<?xml version="1.0" encoding="UTF-8"?>
<svg width="34px" height="34px" viewBox="0 0 34 34" version="1.1" xmlns="http://www.w3.org/2000/svg" xmlns:xlink="http://www.w3.org/1999/xlink">
    <title>svg/animal_and_pets_ic</title>
    <g id="Page-1" stroke="none" stroke-width="1" fill="none" fill-rule="evenodd">
        <g id="Service-All-Category" transform="translate(-45.000000, -1223.000000)" fill="#47CDFE" fill-rule="nonzero">
            <g id="Group-2" transform="translate(20.000000, 1197.000000)">
                <g id="animal_and_pets_ic" transform="translate(25.000000, 26.000000)">
                    <path d="M15.5830078,13.9746094 C18.661377,13.6516113 21.5617676,14.4821777 23.4272461,16.2224121 C24.3896484,17.1254883 24.9367676,18.0153809 25.411377,19.4787598 C25.701416,20.3620605 26.0046387,20.9487305 26.3540039,21.2717285 C26.4528809,21.3640137 26.8747559,21.7133789 27.2900391,22.0495605 C28.7995605,23.2624512 29.3994141,24.0666504 29.6367187,25.1806641 C29.9135742,26.4990234 29.4521484,28.5556641 28.5358887,30.0322266 C28.1140137,30.7177734 26.9472656,31.9372559 26.3078613,32.3657227 C24.1787109,33.7895508 21.548584,34.1257324 19.1821289,33.2753906 C17.9165039,32.8205566 17.6066895,32.7546387 16.875,32.7546387 C16.1433105,32.7546387 15.8400879,32.8205566 14.5678711,33.2819824 C13.6120605,33.6247559 13.1242676,33.7038574 11.9641113,33.7104492 C11.357666,33.7104492 10.7314453,33.6774902 10.480957,33.6247559 C9.44604492,33.4204102 8.31884766,32.9523926 7.44213867,32.3657227 C6.80273437,31.9372559 5.63598633,30.7177734 5.21411133,30.0322266 C4.27148437,28.5095215 3.82983398,26.5319824 4.11987305,25.1477051 C4.34399414,24.0732422 4.96362305,23.2492676 6.45996094,22.0495605 C6.87524414,21.7133789 7.29711914,21.3640137 7.39599609,21.2717285 C7.74536133,20.9487305 8.04858398,20.3620605 8.33862305,19.4787598 C8.49682617,18.9909668 8.74731445,18.3647461 8.89233398,18.0812988 C10.0854492,15.8005371 12.5375977,14.2976074 15.5830078,13.9746094 Z M18.7207031,16.0510254 C18.239502,15.9521484 16.3212891,15.8664551 15.9191895,15.9257812 C14.9765625,16.0576172 14.6535645,16.1235352 14.1064453,16.2949219 C12.6496582,16.7629395 11.6147461,17.5078125 10.8764648,18.628418 C10.5402832,19.1425781 10.3952637,19.472168 10.0854492,20.4675293 C9.68334961,21.7463379 9.20874023,22.3857422 7.82446289,23.4931641 C6.22265625,24.7719727 6.02490234,25.0620117 6.03808594,26.1364746 C6.06445312,29.0698242 8.54956055,31.574707 11.6015625,31.7460937 C12.4980469,31.7988281 13.2495117,31.6669922 14.2910156,31.284668 C15.3325195,30.895752 15.9455566,30.7705078 16.875,30.7705078 C17.8044434,30.7705078 18.4174805,30.895752 19.4589844,31.284668 C20.5004883,31.6669922 21.2519531,31.7988281 22.1484375,31.7460937 C25.2004395,31.574707 27.6855469,29.0698242 27.7119141,26.1364746 C27.7250977,25.0620117 27.5273437,24.7719727 25.9255371,23.4931641 C24.5412598,22.3857422 24.0666504,21.7463379 23.6645508,20.4675293 C23.3547363,19.472168 23.2097168,19.1425781 22.8735352,18.628418 C22.003418,17.296875 20.5927734,16.4267578 18.7207031,16.0510254 Z M29.010498,8.08154297 C30.5793457,7.65966797 32.3063965,8.58911133 33.1501465,10.3161621 C33.9411621,11.9443359 33.9411621,13.8955078 33.1501465,15.5236816 C32.3129883,17.2441406 30.6057129,18.173584 29.0368652,17.7648926 C26.8549805,17.1914063 25.4904785,14.6271973 25.9321289,11.9311523 C26.090332,10.96875 26.4001465,10.2304688 26.9604492,9.4855957 C27.4746094,8.80004883 28.2128906,8.29248047 29.010498,8.08154297 Z M3.1706543,8.08154297 C4.73950195,7.65966797 6.46655273,8.58911133 7.31030273,10.3161621 C8.26611328,12.2739258 8.06176758,14.6601562 6.78955078,16.354248 C5.90625,17.5275879 4.46923828,18.0944824 3.19702148,17.7648926 C1.01513672,17.1914062 -0.349365234,14.6271973 0.0922851562,11.9311523 C0.250488281,10.96875 0.560302734,10.2304687 1.12060547,9.4855957 C1.63476562,8.80004883 2.37304687,8.29248047 3.1706543,8.08154297 Z M4.60107422,10.1447754 C3.73754883,9.703125 2.86743164,10.1513672 2.33349609,11.3049316 C2.03027344,11.9641113 1.92480469,12.7287598 2.03686523,13.4934082 C2.17529297,14.4887695 2.69604492,15.3786621 3.32226562,15.708252 C3.68481445,15.8928223 4.2253418,15.8928223 4.58789062,15.708252 C5.49755859,15.2270508 6.07763672,13.7307129 5.87329102,12.3464355 C5.73486328,11.357666 5.20751953,10.4545898 4.60107422,10.1447754 Z M30.440918,10.1447754 C29.5773926,9.703125 28.7072754,10.1513672 28.1733398,11.3049316 C27.8701172,11.9641113 27.7646484,12.7287598 27.876709,13.4934082 C28.0151367,14.4887695 28.5358887,15.3786621 29.1621094,15.708252 C29.5246582,15.8928223 30.0651855,15.8928223 30.4277344,15.708252 C31.3374023,15.2270508 31.9174805,13.7307129 31.7131348,12.3464355 C31.574707,11.357666 31.0473633,10.4545898 30.440918,10.1447754 Z M11.1467285,0.10546875 C12.7155762,-0.31640625 14.442627,0.613037109 15.286377,2.34008789 C16.0773926,3.96826172 16.0773926,5.91943359 15.286377,7.54760742 C14.4492187,9.26806641 12.7419434,10.1975098 11.1730957,9.78881836 C8.99121094,9.21533203 7.62670898,6.65112305 8.06835937,3.95507813 C8.2265625,2.99267578 8.53637695,2.25439453 9.09667969,1.50952148 C9.61083984,0.823974609 10.3491211,0.31640625 11.1467285,0.10546875 Z M21.0344238,0.10546875 C22.6032715,-0.31640625 24.3303223,0.613037109 25.1740723,2.34008789 C25.9650879,3.96826172 25.9650879,5.91943359 25.1740723,7.54760742 C24.3369141,9.26806641 22.6296387,10.1975098 21.060791,9.78881836 C18.8789062,9.21533203 17.5144043,6.65112305 17.9560547,3.95507813 C18.1142578,2.99267578 18.4240723,2.25439453 18.984375,1.50952148 C19.4985352,0.823974609 20.2368164,0.31640625 21.0344238,0.10546875 Z M12.5771484,2.16870117 C11.713623,1.72705078 10.8435059,2.17529297 10.3095703,3.32885742 C10.0063477,3.98803711 9.90087891,4.75268555 10.0129395,5.51733398 C10.1513672,6.51269531 10.6721191,7.40258789 11.2983398,7.73217773 C11.6608887,7.91674805 12.201416,7.91674805 12.5639648,7.73217773 C13.4736328,7.25097656 14.0537109,5.75463867 13.8493652,4.37036133 C13.7109375,3.3815918 13.1835937,2.47851563 12.5771484,2.16870117 Z M22.4648437,2.16870117 C21.6013184,1.72705078 20.7312012,2.17529297 20.1972656,3.32885742 C19.894043,3.98803711 19.7885742,4.75268555 19.9006348,5.51733398 C20.0390625,6.51269531 20.5598145,7.40258789 21.1860352,7.73217773 C21.548584,7.91674805 22.0891113,7.91674805 22.4516602,7.73217773 C23.3613281,7.25097656 23.9414062,5.75463867 23.7370605,4.37036133 C23.5986328,3.3815918 23.0712891,2.47851563 22.4648437,2.16870117 Z" id="Combined-Shape"></path>
                </g>
            </g>
        </g>
    </g>
</svg>