<?xml version="1.0" encoding="UTF-8"?>
<svg width="55px" height="55px" viewBox="0 0 55 55" version="1.1" xmlns="http://www.w3.org/2000/svg" xmlns:xlink="http://www.w3.org/1999/xlink">
    <title>svg/apple_ic</title>
    <g id="Page-1" stroke="none" stroke-width="1" fill="none" fill-rule="evenodd">
        <g id="Login" transform="translate(-230.000000, -606.000000)">
            <g id="Group-5" transform="translate(90.000000, 606.000000)">
                <g id="apple_ic" transform="translate(140.000000, 0.000000)">
                    <rect id="Background-[12-35]" fill="#F6F6F6" x="0" y="0" width="55" height="55" rx="27.5"></rect>
                    <g id="Group" transform="translate(19.000000, 18.000000)" fill="#000000" fill-rule="nonzero">
                        <g id="apple">
                            <path d="M11.94,3.19 C12.7035469,2.30997118 13.0850066,1.1619933 13,-2.22044605e-16 C11.8393749,0.093686978 10.7620016,0.639556118 10,1.52 C9.26277656,2.37253331 8.90204835,3.48718349 9,4.61 C10.1474862,4.61956027 11.2341092,4.09472875 11.94,3.19 L11.94,3.19 Z M14.46,10.63 C14.4736337,9.07217704 15.2902836,7.63169736 16.62,6.82 C15.7830809,5.61410638 14.426902,4.87302502 12.96,4.82 C11.4,4.66 9.96,5.73 9.13,5.73 C8.3,5.73 7.13,4.84 5.83,4.86 C4.10120895,4.91694786 2.52931671,5.87754868 1.69,7.39 C-0.07,10.45 1.24,15 3,17.47 C3.8,18.68 4.8,20.05 6.12,20 C7.44,19.95 7.87,19.18 9.4,19.18 C10.93,19.18 11.4,20 12.7,19.97 C14,19.94 14.92,18.73 15.76,17.52 C16.3550446,16.6415276 16.8198595,15.6815839 17.14,14.67 C15.5201767,13.9791989 14.4665943,12.3909629 14.46,10.63 Z" id="Shape"></path>
                        </g>
                    </g>
                </g>
            </g>
        </g>
    </g>
</svg>