<?xml version="1.0" encoding="UTF-8"?>
<svg width="42px" height="42px" viewBox="0 0 42 42" version="1.1" xmlns="http://www.w3.org/2000/svg" xmlns:xlink="http://www.w3.org/1999/xlink">
    <title>svg/Architectural_Services_ic</title>
    <g id="Page-1" stroke="none" stroke-width="1" fill="none" fill-rule="evenodd">
        <g id="Service-All-Category" transform="translate(-166.000000, -1369.000000)" fill="#47CDFE" fill-rule="nonzero">
            <g id="Group-2" transform="translate(144.000000, 1348.000000)">
                <g id="Architectural_Services_ic" transform="translate(22.000000, 21.000000)">
                    <g id="Group" transform="translate(20.548600, 20.576000) scale(-1, 1) rotate(-180.000000) translate(-20.548600, -20.576000) translate(0.048600, 0.076000)">
                        <path d="M23.2794,-4.97379915e-14 L23.2794,5.184 L24.2919,5.184 C25.0938,5.184 25.3044,5.1597 25.3044,5.0706 C25.3044,5.0139 25.434,4.7061 25.5879,4.3983 C25.9362,3.7017 26.4222,3.2319 27.1512,2.8917 C27.6453,2.6568 27.7668,2.6325 28.4634,2.6325 C29.16,2.6325 29.2815,2.6568 29.7756,2.8917 C30.5046,3.2319 30.9906,3.7017 31.3389,4.3983 C31.4928,4.7061 31.6224,5.0058 31.6224,5.0625 C31.6224,5.1435 32.0922,5.1759 33.7527,5.2002 C35.802,5.2326 35.8992,5.2407 36.5391,5.4513 C38.3616,6.0588 39.6819,7.5654 40.0869,9.4932 C40.2894,10.449 40.3866,10.368 39.0258,10.368 C38.1105,10.368 37.8513,10.3923 37.8837,10.4733 L37.9016892,10.5155405 C37.9985727,10.7505074 38.4551182,11.9025818 38.9853,13.2354 C39.5766,14.7015 40.0221,15.9246 39.9897,15.9651 C39.9168,16.0299 38.8962,16.4511 38.8719,16.4187 C38.8641375,16.4109375 38.3579578,15.1534125 37.7383324,13.5942955 L37.6569,13.3893 C36.9279,11.5668 36.4095,10.368 36.3447,10.368 C36.2639531,10.368 36.2430782,10.9733722 36.2398739,13.4320729 L36.2394,18.144 L34.9434,18.144 L34.9434,28.512 L32.3514,28.512 L32.3514,31.104 L31.0554,31.104 L31.0554,28.512 L29.7594,28.512 L29.7594,32.4 L28.4634,32.4 L28.4634,28.512 L27.1674,28.512 L27.1674,31.104 L25.8714,31.104 L25.8714,28.512 L23.2794,28.512 L23.2794,20.736 L20.6874,20.736 L20.6874,17.4717 L19.7721,18.3546 C18.4356,19.6587 17.1315,20.4687 15.5034,21.0276 C14.7501,21.2787 14.7339,21.2949 14.5962,21.6351 C14.5233,21.8295 14.4585,22.032 14.4585,22.0806 C14.4504,22.1292 14.6529,22.2507 14.9121,22.356 C15.4224,22.5666 16.2081,23.2956 16.3863,23.7087 C16.4754,23.9355 16.5159,23.9598 17.01,24.0003 C17.3745,24.0408 17.6823,24.1299 18.0225,24.3081 C18.5652,24.5997 18.8082,24.8589 19.1322,25.4664 C19.3509,25.8795 19.3509,25.8957 19.3752,27.8397 L19.4076,29.7918 L19.6749,29.8404 C20.0232,29.9052 20.4363,30.2454 20.574,30.5937 C20.7279,30.9501 20.7279,32.5539 20.574,32.9103 C20.4201,33.2829 20.0961,33.5421 19.6668,33.6555 L19.2861,33.7527 L19.1484,34.3116 C18.6462,36.2637 17.2287,38.1672 15.5439,39.1149 C13.9401,40.0302 12.0042,40.3704 10.2303,40.0545 C8.7237,39.7791 7.4277,39.1149 6.3099,38.0538 C5.1678,36.9603 4.455,35.7777 4.0905,34.344 L3.9447,33.7527 L3.564,33.6555 C3.1347,33.5421 2.8107,33.2829 2.6568,32.9103 C2.5029,32.5539 2.5029,30.9501 2.6568,30.5937 C2.7945,30.2454 3.2076,29.9052 3.5559,29.8404 L3.8232,29.7918 L3.8556,27.8397 C3.8799,25.8957 3.8799,25.8795 4.0986,25.4664 C4.4226,24.8589 4.6656,24.5997 5.2083,24.3081 C5.5485,24.1299 5.8563,24.0408 6.2208,24.0003 C6.7068,23.9598 6.7554,23.9355 6.8445,23.7087 C7.0146,23.3037 7.7274,22.6395 8.2782,22.3884 C8.5536,22.2588 8.7804,22.1211 8.7723,22.0725 C8.7723,22.032 8.7075,21.8295 8.6346,21.6351 C8.4969,21.2949 8.4807,21.2787 7.7274,21.0276 C4.4145,19.8936 1.7739,17.2854 0.6075,13.9887 C0.1296,12.636 -1.42108547e-14,11.8017 -1.42108547e-14,10.0845 C-1.42108547e-14,8.7642 0.0243,8.4564 0.1701,7.9299 C0.6642,6.156 1.9278,4.4793 3.4101,3.6288 L3.8394,3.3858 L3.8394,-4.97379915e-14 L23.2794,-4.97379915e-14 Z M12.2634,33.696 L10.9674,33.696 L10.9674,38.88 L12.2634,38.88 L12.2634,33.696 Z M15.7464,33.696 L13.5594,33.696 L13.5594,38.5641 L13.7457,38.5155 C13.8429,38.4912 14.1831,38.3373 14.5071,38.1834 C15.6573,37.6326 16.6698,36.6525 17.3097,35.478 C17.5851,34.9758 17.9334,34.0362 17.9334,33.8013 C17.9334,33.7203 17.5122,33.696 15.7464,33.696 Z M9.6714,33.696 L7.4844,33.696 C5.7186,33.696 5.2974,33.7203 5.2974,33.8013 C5.2974,34.0362 5.6457,34.9758 5.9211,35.478 C6.6339,36.7821 7.776,37.8189 9.0963,38.3616 C9.3474,38.4669 9.5742,38.556 9.6147,38.556 C9.64539474,38.556 9.66881967,37.5745762 9.67120042,36.3348829 L9.6714,33.696 Z M19.3914,31.104 L3.8394,31.104 L3.8394,32.4 L19.3914,32.4 L19.3914,31.104 Z M5.13587468,29.2022101 L5.1354,29.808 L6.4314,29.808 L6.4314,29.2005 L5.9211,29.0709 C5.6457,28.998 5.3541,28.917 5.2812,28.8846 C5.16338182,28.8330545 5.13928264,28.8618397 5.13587468,29.2022101 Z M9.072,23.4252 C8.6265,23.5548 7.9542,24.2271 7.8246,24.6726 C7.7634,24.8868 7.7311,25.66455 7.7277,27.1423222 L7.7274,29.808 L15.5034,29.808 L15.5034,27.4104 C15.5034,25.758 15.471,24.8994 15.4062,24.6726 C15.2766,24.2271 14.6043,23.5548 14.1588,23.4252 C13.6971,23.2875 9.5337,23.2875 9.072,23.4252 Z M17.9577,28.8846 C17.8767,28.917 17.5851,28.998 17.3097,29.0709 L16.7994,29.2005 L16.7994,29.808 L18.0954,29.808 L18.0954,29.3139 C18.0954,28.8684 18.0792,28.8279 17.9577,28.8846 Z M16.7994,25.2558 L16.7994,27.8883 L17.0667,27.8316 C17.2044,27.8073 17.415,27.7182 17.5203,27.6372 C17.9172,27.3456 18.0549,27.0702 18.0549,26.568 C18.0549,26.2116 18.0144,26.0334 17.8848,25.8714 C17.658,25.5555 17.3745,25.3611 17.0667,25.3044 L16.7994,25.2558 Z M5.9211,25.3854 C4.9086,25.8066 4.9005,27.3132 5.9049,27.7506 C6.39495,27.965925 6.4289875,27.9974812 6.43125729,26.8969312 L6.43126667,26.2393781 C6.4291,25.1409937 6.3963,25.184925 5.9211,25.3854 Z M33.6474,18.144 L29.7594,18.144 L29.7594,20.736 L24.5754,20.736 L24.5754,27.216 L33.6474,27.216 L33.6474,18.144 Z M32.3514,24.624 L32.3514,25.92 L31.0554,25.92 L31.0554,24.624 L32.3514,24.624 Z M27.1674,24.624 L27.1674,25.92 L25.8714,25.92 L25.8714,24.624 L27.1674,24.624 Z M29.7594,24.624 L29.7594,25.92 L28.4634,25.92 L28.4634,24.624 L29.7594,24.624 Z M27.1674,22.032 L27.1674,23.328 L25.8714,23.328 L25.8714,22.032 L27.1674,22.032 Z M32.3514,22.032 L32.3514,23.328 L31.0554,23.328 L31.0554,22.032 L32.3514,22.032 Z M29.7594,22.032 L29.7594,23.328 L28.4634,23.328 L28.4634,22.032 L29.7594,22.032 Z M11.6154,18.0711 C11.5911,18.0711 11.1618,18.6867 10.6596,19.4481 L9.7443,20.8332 L9.9225,21.3678 C10.0197,21.6675 10.1169,21.9348 10.1331,21.9753 C10.14498,21.99906 10.514052,22.014108 11.0262912,22.0172496 L11.4730008,22.0170984 C11.52522,22.016772 11.57814,22.01634 11.6316,22.0158 L13.0977,21.9915 L13.2921,21.4083 L13.4865,20.8332 L12.5712,19.4481 C12.069,18.6867 11.6397,18.0711 11.6154,18.0711 Z M32.3514,19.44 L32.3514,20.736 L31.0554,20.736 L31.0554,19.44 L32.3514,19.44 Z M9.6714,3.8718 L7.8327,3.9042 C6.1074,3.9366 5.9454,3.9528 5.3379,4.1553 C4.4064,4.4631 3.726,4.8924 2.9889,5.6295 C2.2518,6.3666 1.8225,7.047 1.5147,7.9785 C1.3122,8.5779 1.296,8.7318 1.296,10.044 C1.2879,11.5749 1.377,12.2067 1.782,13.4217 C2.5596,15.7221 4.212,17.7471 6.3423,18.9864 C6.885,19.3023 8.0919,19.8369 8.2782,19.845 C8.34138,19.845 8.368056,18.835056 8.3740464,15.2438736 L8.37480693,14.6708073 C8.3749072,14.5718315 8.3749944,14.4711056 8.3750688,14.3686032 L8.3754,6.9498 L8.0352,7.0065 C6.6906,7.2333 5.67,8.0838 5.2974,9.2988 C5.1678,9.71809412 5.13865121,10.0154118 5.13567038,11.1631882 L5.1354,12.96 L3.8394,12.96 L3.8394,11.3562 C3.8394,8.9505 4.0824,8.1891 5.184,7.0713 C5.9697,6.2775 6.5529,6.0021 8.3187,5.6133 L9.6714,5.3136 L9.6714,3.8718 Z M18.0954,1.296 L14.8554,1.296 L14.8554,1.944 C14.8554,2.4867 14.8797,2.592 14.985,2.592 C15.8598,2.592 16.7994,3.6045 16.7994,4.536 C16.7994,5.4675 15.8598,6.48 14.985,6.48 C14.886,6.48 14.8622889,6.84568889 14.8569021,10.2982222 L14.8560377,11.0483347 C14.855966,11.1366556 14.8559019,11.2266667 14.8558444,11.3184 L14.8556944,13.768775 C14.859,17.164525 14.8896,19.845 14.9202,19.845 C14.9607,19.845 15.2118,19.7559 15.4953,19.6425 C17.5122,18.8568 19.4157,17.2611 20.4606,15.4872 L20.6874,15.1065 L20.6874,12.7413 C20.6874,10.8378 20.6631,10.368 20.5821,10.368 C20.5173,10.368 19.9989,11.5668 19.2699,13.3893 C18.6138,15.0417 18.063,16.4106 18.0549,16.4187 C18.0306,16.4511 17.01,16.0299 16.9371,15.9651 C16.9047,15.9246 17.3502,14.7015 17.9415,13.2354 C18.5247,11.7693 19.0188,10.5219 19.0431,10.4733 C19.0755,10.3923 18.8163,10.368 17.901,10.368 C16.5402,10.368 16.6374,10.449 16.8399,9.4932 C17.0019,8.6994 17.2368,8.1486 17.6985,7.4682 L18.0954,6.8769 L18.0954,1.296 Z M28.4634,10.368 L21.9834,10.368 L21.9834,19.44 L28.4634,19.44 L28.4634,10.368 Z M9.6714,15.4467 L9.6714,18.5895 L10.1007,17.9415 C10.1547,17.8623 10.2091,17.7815 10.2618556,17.7024778 L10.4131444,17.4741222 C10.5317,17.2939 10.6272,17.1459 10.6677,17.0829 C10.8054,16.8723 10.8054,16.8723 10.2384,16.1595 L9.6714,15.4467 Z M13.5594,15.4467 L12.4254,16.8723 L12.5631,17.091 C13.0896,17.8929 13.5189,18.549 13.5432,18.549 C13.55076,18.549 13.55832,17.942184 13.5592944,17.1697872 L13.5594,15.4467 Z M27.1674,11.664 L27.1674,18.144 L25.8714,18.144 L25.8714,11.664 L27.1674,11.664 Z M24.5754,11.664 L24.5754,18.144 L23.2794,18.144 L23.2794,11.664 L24.5754,11.664 Z M34.9434,10.368 L29.7594,10.368 L29.7594,16.848 L34.9434,16.848 L34.9434,10.368 Z M9.8739,6.5934 L9.6714,6.642 L9.6714,13.3812 L10.6272,14.5881 C11.1456,15.2442 11.5911,15.7869 11.6154,15.7869 C11.6397,15.7869 12.0852,15.2442 12.6117,14.5881 L13.5594,13.3812 L13.5594,7.7355 L12.5712,7.7355 C11.4129,7.7355 11.2833,7.6869 10.5462,6.9822 C10.1574,6.6177 10.0521,6.5529 9.8739,6.5934 Z M33.6474,14.256 L33.6474,15.552 L31.0554,15.552 L31.0554,14.256 L33.6474,14.256 Z M33.6474,11.664 L33.6474,12.96 L31.0554,12.96 L31.0554,11.664 L33.6474,11.664 Z M25.3692,6.48 L23.49,6.48 C20.9709,6.48 20.3067,6.6501 19.3671,7.5168 C18.954,7.9056 18.3384,8.7642 18.3384,8.9667 C18.3384,9.03999194 19.4893628,9.06395689 24.5864838,9.07015353 L25.2045197,9.07080248 C25.3106162,9.0708976 25.418272,9.07098638 25.5275082,9.07106903 L31.3992918,9.07106903 C31.508528,9.07098638 31.6161838,9.0708976 31.7222803,9.07080248 L32.3403162,9.07015353 C37.4374372,9.06395689 38.5884,9.03999194 38.5884,8.9667 C38.5884,8.7642 37.9728,7.9056 37.5597,7.5168 C36.6201,6.6501 35.9559,6.48 33.4368,6.48 L31.5576,6.48 L31.4604,6.723 C31.3227,7.0632 30.7314,7.5654 30.3426,7.6788 C30.149415,7.73712 29.4559537,7.769196 28.7124649,7.775028 L28.2143351,7.775028 C27.4708462,7.769196 26.777385,7.73712 26.5842,7.6788 C26.1954,7.5654 25.6041,7.0632 25.4664,6.723 L25.3692,6.48 Z M15.1065,3.888 L10.9674,3.888 L10.9674,5.5647 L11.4453,6.0183 L11.9313,6.48 L12.5469,6.48 C13.0896,6.48 13.1868,6.4557 13.3569,6.2775 C13.527,6.1155 13.5594,6.0021 13.5594,5.6295 L13.5594,5.184 L14.3289,5.184 C15.0417,5.184 15.1227,5.1678 15.3009,4.9815 C15.4305,4.86 15.5034,4.6899 15.5034,4.536 C15.5034,4.3821 15.4305,4.212 15.3009,4.0905 L15.1065,3.888 Z M27.1269,4.4955 C26.5113,5.103 26.3331,5.8968 26.7219,6.2775 L26.7717719,6.32785875 C26.9077649,6.45717881 27.0292481,6.47657682 27.9173278,6.47948652 L29.0094722,6.47948652 C30.0020318,6.4762345 30.0370091,6.45238636 30.2049,6.2775 C30.5937,5.8968 30.4155,5.103 29.7999,4.4955 C28.9818,3.6693 27.945,3.6693 27.1269,4.4955 Z M21.9834,1.296 L19.3914,1.296 L19.3918284,4.19275291 C19.3946235,5.73768253 19.4142536,5.84125714 19.5372,5.7834 C19.6101,5.751 19.9665,5.6214 20.3229,5.4999 C20.6712,5.3784 21.1977,5.2488 21.4731,5.2164 L21.9834,5.1678 L21.9834,1.296 Z M8.3754,1.296 L5.1354,1.296 L5.1354,2.8593 L5.4027,2.8026 C5.5404,2.7702 5.8644,2.7135 6.1074,2.6649 C6.3504,2.6244 6.966,2.592 7.4682,2.592 L8.3754,2.592 L8.3754,1.296 Z M13.5594,1.296 L9.6714,1.296 L9.6714,2.592 L13.5594,2.592 L13.5594,1.296 Z" id="Combined-Shape"></path>
                    </g>
                </g>
            </g>
        </g>
    </g>
</svg>