<?xml version="1.0" encoding="UTF-8"?>
<svg width="40px" height="42px" viewBox="0 0 40 42" version="1.1" xmlns="http://www.w3.org/2000/svg" xmlns:xlink="http://www.w3.org/1999/xlink">
    <title>svg/arts_crafts_ic</title>
    <g id="Page-1" stroke="none" stroke-width="1" fill="none" fill-rule="evenodd">
        <g id="Product-All-Category" transform="translate(-295.000000, -296.000000)" fill="#47CDFE" fill-rule="nonzero">
            <g id="Group-2" transform="translate(273.000000, 275.000000)">
                <g id="arts_crafts_ic" transform="translate(22.000000, 21.000000)">
                    <path d="M15.168,40.8625291 C15.072,40.7345291 15.04,40.4865291 15.04,39.9425291 L15.04,39.1985291 L8.704,39.1825291 L2.36,39.1585291 L1.912,38.9345291 C1.032,38.5025291 0.376,37.7505291 0.128,36.8705291 C0.008,36.4785291 -1.38691142e-14,35.3105291 0.016,25.5105291 L0.04,14.5905291 L0.344,13.9825291 C0.696,13.2545291 1.16,12.8145291 1.92,12.4465291 L2.44,12.1985291 L6.304,12.1745291 C9.456,12.1585291 10.16,12.1345291 10.16,12.0465291 C10.16,11.9905291 9.6,9.46252911 8.92,6.43852911 C8.24,3.41452911 7.68,0.822529106 7.68,0.686529106 C7.68,0.550529106 7.736,0.350529106 7.808,0.254529106 C7.928,0.0785189017 7.936,0.0785189017 10.352,0.0785189017 C12.616,0.0785189017 12.784,0.0865291058 12.912,0.230529106 C13,0.326529106 13.472,2.27052911 14.312,6.00652911 C15.008,9.10252911 15.608,11.7585291 15.64,11.8945291 L15.696,12.1585291 L18.16,12.1585291 C20.44,12.1585291 20.632,12.1505291 20.672,12.0225291 C20.688,11.9425291 21.288,9.28652911 22,6.11852911 C22.792,2.59852911 23.344,0.302529106 23.416,0.222529106 C23.536,0.0945291058 23.76,0.0785189017 25.96,0.0785189017 C28.568,0.0785189017 28.512,0.0705291058 28.664,0.502529106 C28.696,0.582529106 28.144,3.19052911 27.44,6.33452911 C26.736,9.46252911 26.16,12.0545291 26.16,12.0945291 C26.16,12.1265291 26.576,12.1585291 27.08,12.1585291 C27.896,12.1585291 28.016,12.1745291 28.16,12.3185291 C28.408,12.5665291 28.376,13.0625291 28.112,13.2705291 L27.896,13.4385291 L15.368,13.4385291 C3.416,13.4385291 2.824,13.4465291 2.52,13.5905291 C2.04,13.8065291 1.712,14.1185291 1.488,14.5745291 L1.28,14.9905291 L1.28,25.6705291 L1.28,36.3585291 L1.472,36.7585291 C1.696,37.2385291 2,37.5345291 2.48,37.7505291 C2.84,37.9105291 2.92,37.9185291 18.192,37.9185291 C33.536,37.9185291 33.552,37.9185291 33.888,37.7505291 C34.216,37.5985291 34.696,37.1345291 34.864,36.8225291 C34.936,36.6865291 34.856,36.5985291 34.224,36.1105291 C33.832,35.8065291 33.44,35.5105291 33.352,35.4465291 C33.216,35.3505291 33.168,35.3825291 32.8,35.7825291 C32.552,36.0545291 32.24,36.2865291 31.984,36.4065291 L31.56,36.5985291 L18.08,36.5985291 L4.6,36.5985291 L4.176,36.4065291 C3.648,36.1665291 3.024,35.5025291 2.848,34.9905291 C2.752,34.7025291 2.72,34.3025291 2.72,33.3825291 C2.72,32.2625291 2.736,32.1425291 2.88,31.9985291 C3.144,31.7345291 3.56,31.7585291 3.824,32.0465291 C3.992,32.2305291 4,32.3185291 4,33.3505291 C4,34.3665291 4.016,34.4785291 4.184,34.7185291 C4.28,34.8625291 4.464,35.0625291 4.584,35.1505291 C4.8,35.3105291 4.92,35.3185291 7.4,35.3425291 L9.984,35.3665291 L9.608,34.6225291 C8.592,32.5985291 8.648,30.1585291 9.728,28.8945291 C10.336,28.1825291 11.56,27.8945291 12.72,28.1905291 C13.896,28.4865291 15.104,29.1905291 17.76,31.1425291 C20.8,33.3825291 21.736,33.8305291 22.352,33.3505291 C22.648,33.1185291 22.632,32.6145291 22.312,31.7265291 C21.976,30.7905291 21.224,29.5105291 19.288,26.5585291 C17.32,23.5745291 17.176,23.3345291 16.648,22.2385291 C15.712,20.3185291 15.856,19.1985291 17.088,18.5905291 C17.4,18.4385291 17.704,18.3665291 18.104,18.3345291 C19.536,18.2465291 20.952,19.0145291 22.72,20.8545291 L23.56,21.7265291 L24.56,21.8705291 C25.92,22.0625291 26.48,22.2065291 27.264,22.5665291 C27.792,22.8145291 28.056,22.9985291 28.512,23.4545291 C28.832,23.7745291 29.176,24.1905291 29.288,24.3745291 C29.392,24.5585291 30.072,25.3585291 30.8,26.1585291 L32.12,27.6065291 L32.144,25.9505291 C32.16,24.5025291 32.144,24.2065291 32,23.6465291 C31.44,21.4305291 29.32,18.9505291 26.576,17.3025291 L25.736,16.7985291 L18.032,16.7985291 L10.32,16.7985291 L10.32,17.0385291 C10.32,17.3825291 10.504,17.8065291 11.248,19.1585291 C11.624,19.8305291 12.024,20.6945291 12.168,21.1185291 C12.392,21.8065291 12.416,21.9425291 12.384,22.6785291 C12.352,23.5745291 12.16,24.1185291 11.696,24.6465291 C11.392,24.9905291 10.68,25.3825291 10.08,25.5265291 C9.448,25.6785291 7.856,25.6465291 6.32,25.4465291 C5.592,25.3505291 4.776,25.2785291 4.504,25.2785291 L4,25.2785291 L4,27.7505291 C4,30.1265291 3.992,30.2225291 3.832,30.4305291 C3.624,30.6945291 3.128,30.7265291 2.88,30.4785291 C2.72,30.3185291 2.72,30.2465291 2.736,23.8145291 L2.76,17.3185291 L2.976,16.9105291 C3.096,16.6865291 3.36,16.3505291 3.56,16.1745291 C4.272,15.5505291 3.096,15.5985291 18.08,15.5985291 C33.36,15.5985291 31.944,15.5265291 32.728,16.3105291 C33.48,17.0625291 33.44,16.6785291 33.44,23.3265291 L33.44,29.1105291 L34.248,30.0545291 C34.696,30.5745291 35.072,31.0145291 35.096,31.0305291 C35.112,31.0545291 35.112,27.4545291 35.104,23.0305291 C35.08,15.5825291 35.072,14.9745291 34.944,14.7025291 C34.72,14.2385291 34.32,13.8305291 33.88,13.6305291 C33.496,13.4465291 33.392,13.4385291 31.72,13.4385291 C29.816,13.4385291 29.68,13.4145291 29.52,12.9905291 C29.432,12.7585291 29.56,12.3425291 29.76,12.2385291 C29.848,12.1905291 30.704,12.1585291 31.76,12.1585291 C33.416,12.1585291 33.656,12.1745291 34.096,12.3265291 C35.328,12.7425291 36.152,13.7425291 36.32,15.0385291 C36.36,15.3905291 36.4,19.1105291 36.4,24.1345291 L36.4,32.6305291 L37,33.3985291 C38.016,34.6945291 38.736,35.7665291 39.136,36.5425291 C39.584,37.4065291 39.648,37.9665291 39.36,38.3425291 C38.904,38.9185291 38.024,38.7505291 36.544,37.7905291 L36.008,37.4465291 L35.848,37.7105291 C35.584,38.1345291 34.912,38.7105291 34.416,38.9425291 L33.96,39.1585291 L27.664,39.1825291 L21.376,39.1985291 L21.344,39.9505291 C21.304,41.1265291 21.576,41.0385291 18.152,41.0385291 L15.288,41.0385291 L15.168,40.8625291 Z M20.08,39.5185291 L20.08,39.1985291 L18.2,39.1985291 L16.32,39.1985291 L16.32,39.5185291 L16.32,39.8385291 L18.2,39.8385291 L20.08,39.8385291 L20.08,39.5185291 Z M37.832,36.8225291 C37.056,35.5185291 34.928,32.8145291 32.408,29.9185291 C31.816,29.2385291 31.32,28.6625291 31.304,28.6465291 C31.264,28.5985291 29.52,30.3345291 29.52,30.4145291 C29.52,30.5025291 32.808,33.3105291 34.44,34.6145291 C35.752,35.6705291 37.784,37.1185291 37.944,37.1185291 C37.984,37.1185291 37.936,36.9825291 37.832,36.8225291 Z M31.576,35.1505291 C31.696,35.0625291 31.88,34.8625291 31.984,34.7185291 L32.16,34.4545291 L31.864,34.2065291 C31.192,33.6545291 28.896,31.6465291 27.232,30.1505291 C26.264,29.2785291 25.248,28.4145291 24.976,28.2385291 C24.312,27.7905291 23.816,27.2065291 23.44,26.4385291 C23.08,25.6865291 22.936,25.1745291 22.76,23.9185291 C22.688,23.4145291 22.592,22.8785291 22.544,22.7265291 C22.432,22.3745291 20.856,20.7905291 20.12,20.2945291 C19.128,19.6305291 18.296,19.4465291 17.688,19.7585291 C17.312,19.9505291 17.256,20.0705291 17.36,20.5345291 C17.56,21.4225291 18.112,22.3985291 20.32,25.7585291 C22.712,29.3985291 23.16,30.1905291 23.6,31.5105291 C24.008,32.7105291 23.912,33.6145291 23.336,34.2305291 C22.968,34.6145291 22.528,34.7985291 21.952,34.7985291 C20.784,34.7985291 19.816,34.2945291 16.896,32.1345291 C14.656,30.4785291 13.664,29.8625291 12.656,29.5265291 C11.152,29.0145291 10.272,29.6705291 10.176,31.3505291 C10.104,32.6545291 10.552,33.9905291 11.368,34.9105291 L11.776,35.3585291 L21.56,35.3425291 L31.352,35.3185291 L31.576,35.1505291 Z M29.456,28.5825291 L30.392,27.6385291 L29.616,26.7745291 L28.848,25.9185291 L27.816,26.9345291 L26.792,27.9585291 L27.616,28.7345291 C28.072,29.1665291 28.456,29.5185291 28.48,29.5185291 C28.504,29.5185291 28.944,29.0945291 29.456,28.5825291 Z M28,24.8305291 C28,24.7025291 27.2,23.9665291 26.88,23.7985291 C26.416,23.5585291 25.744,23.3585291 25,23.2385291 C23.872,23.0545291 23.936,23.0305291 24.016,23.6225291 C24.216,25.1905291 24.568,26.0705291 25.248,26.7745291 L25.688,27.2225291 L26.848,26.0705291 C27.48,25.4385291 28,24.8785291 28,24.8305291 Z M10.024,24.1905291 C10.744,23.9505291 11.12,23.3745291 11.12,22.5025291 C11.12,21.7745291 10.84,21.0945291 9.784,19.1905291 C9.336,18.3825291 9.104,17.7665291 9,17.0945291 L8.952,16.7825291 L6.936,16.8145291 C5.072,16.8385291 4.896,16.8545291 4.64,17.0065291 C4.488,17.0945291 4.28,17.2865291 4.184,17.4385291 C4,17.7025291 4,17.7185291 4,20.8465291 L4,23.9985291 L4.576,23.9985291 C4.888,23.9985291 5.728,24.0705291 6.432,24.1585291 C7.144,24.2465291 7.864,24.3345291 8.04,24.3505291 C8.584,24.4065291 9.624,24.3185291 10.024,24.1905291 Z M32.16,19.2065291 C32.16,17.7745291 32.152,17.6865291 31.976,17.4385291 C31.616,16.8945291 31.416,16.8385291 29.72,16.8145291 L28.208,16.7825291 L28.952,17.3585291 C29.896,18.0865291 31.024,19.2225291 31.64,20.0625291 C31.904,20.4225291 32.128,20.7185291 32.144,20.7185291 C32.152,20.7185291 32.16,20.0385291 32.16,19.2065291 Z M14.36,12.0625291 C14.344,12.0065291 13.8,9.62252911 13.16,6.75852911 C12.52,3.90252911 11.976,1.49452911 11.952,1.42252911 C11.912,1.29452911 11.776,1.27852911 10.512,1.27852911 C9.568,1.27852911 9.12,1.30252911 9.12,1.36652911 C9.12,1.43052911 11.32,11.2625291 11.496,11.9825291 C11.536,12.1585291 11.552,12.1585291 12.968,12.1585291 C14.072,12.1585291 14.384,12.1345291 14.36,12.0625291 Z M24.8,12.1425291 C24.808,12.1265291 25.352,9.68652911 26.024,6.71852911 L27.248,1.31852911 L25.856,1.29452911 C25.088,1.28652911 24.448,1.28652911 24.424,1.30252911 C24.392,1.34252911 22,11.9505291 22,12.0705291 C22,12.1345291 22.456,12.1585291 23.4,12.1585291 C24.168,12.1585291 24.8,12.1505291 24.8,12.1425291 Z" id="Shape" transform="translate(19.772217, 20.559265) scale(-1, 1) rotate(-180.000000) translate(-19.772217, -20.559265) "></path>
                </g>
            </g>
        </g>
    </g>
</svg>