<?xml version="1.0" encoding="UTF-8"?>
<svg width="42px" height="43px" viewBox="0 0 42 43" version="1.1" xmlns="http://www.w3.org/2000/svg" xmlns:xlink="http://www.w3.org/1999/xlink">
    <title>svg/babies_ic</title>
    <g id="Page-1" stroke="none" stroke-width="1" fill="none" fill-rule="evenodd">
        <g id="Product-All-Category" transform="translate(-167.000000, -630.000000)" fill="#47CDFE" fill-rule="nonzero">
            <g id="Group-2" transform="translate(146.000000, 609.000000)">
                <g id="babies_ic" transform="translate(21.000000, 21.000000)">
                    <path d="M37.2762,0.907799832 C38.8233,0.8919 40.0707,1.5318 40.8726,2.7387 C41.7879,4.1238 41.7879,6.1083 40.8645,7.5015 C40.3137,8.3277 39.7305,8.7327 38.2482,9.324 C37.8756,9.4698 37.4949,9.6561 37.3977,9.7371 C37.2195,9.8829 37.2195,9.8829 37.3734,10.1502 C38.394,11.9565 38.9448,13.7709 38.8557,15.0345 L38.8557,15.0345 L38.8152,15.6015 L39.3336,16.1442 C39.6171,16.452 39.9168,16.8327 39.9978,16.9947 C40.7754,18.5337 40.1274,20.4453 38.5803,21.1662 C37.9485,21.4659 37.0899,21.5469 36.5148,21.3687 L36.5148,21.3687 L36.126,21.2472 L36.126,21.7818 C36.126,22.9401 35.5914,24.2766 34.7247,25.281 C34.4731235,25.5675176 31.6230197,28.4465336 28.0625501,32.00908 L27.3249637,32.7467104 C27.2420419,32.829594 27.1588197,32.9127635 27.0753192,32.9961964 L26.3169,33.7536 C19.3661471,40.6776706 18.3263201,41.7292692 17.5424221,42.0702771 L17.4757257,42.0978865 C17.4204479,42.1196448 17.3656514,42.1385301 17.3092756,42.1564236 L17.2407345,42.17754 C17.2175468,42.1845004 17.1939746,42.1914225 17.1698858,42.1984267 L17.0959381,42.2198059 C17.0706844,42.2270946 17.0447824,42.2345859 17.0181,42.2424 C16.038,42.534 14.6124,42.3558 13.7052,41.8455 C13.4379,41.6933446 10.2059425,38.524337 7.03231453,35.3561646 L6.45660696,34.7808142 C3.58801243,31.910826 0.919038462,29.1926769 0.7209,28.8936 C0.5427,28.6263 0.3321,28.1727 0.243,27.873 C0.0405,27.1926 0.0243,26.0667 0.2106,25.4349 C0.5103,24.4224 0.729,24.1389 2.997,21.8628 C3.24837931,21.6091862 3.47202021,21.3842354 3.67145112,21.1847594 L3.95288104,20.9042527 C4.96547337,19.8991616 5.23595172,19.6836207 5.4351,19.6515 C6.0183,19.5462 6.561,20.0889 6.4314,20.6478 C6.399,20.7855 5.6376,21.6117 4.293,22.9725 C1.8711,25.4349 1.8225,25.4997 1.8225,26.6175 L1.82321811,26.7819403 C1.82839091,27.291005 1.86520909,27.4282364 2.0493,27.7596 C2.19406596,28.0201787 3.64542168,29.5226646 7.06230459,32.9433354 L7.82481853,33.7059427 C8.00105826,33.882045 8.1818617,34.0626064 8.3673,34.2477 C8.6531625,34.5328875 8.92634062,34.8055312 9.18747949,35.0661773 L9.93542344,35.8126687 C14.3725922,40.2403437 14.8395359,40.6777854 15.532288,40.6769493 L15.6462124,40.6735876 C15.7373359,40.6688875 15.8355,40.6603125 15.9489,40.6548 C16.3782,40.6386 16.686,40.5738 16.9695,40.4361 C17.2800325,40.2892265 21.6994838,35.9508211 25.9422622,31.7042227 L26.5327,31.1127009 C30.2594154,27.375629 33.6924867,23.8658422 33.8742,23.5395 C34.6032,22.2354 34.6113,20.8908 33.9147,19.611 C33.7494051,19.3073186 31.3912975,16.8764996 28.8905233,14.3686887 L28.0843113,13.5624767 C25.5765004,11.0617025 23.1456814,8.70359492 22.842,8.5383 C21.9105,8.028 20.7522,7.8822 19.845,8.1738 C18.9945,8.4411 18.4842,8.8056 17.1315,10.1421 L17.1315,10.1421 L15.8355,11.4219 L17.3016,12.9042 C18.1116,13.7223 18.8163,14.4756 18.873,14.5809 C19.0026,14.8401 18.9135,15.2613 18.6543,15.5124 C18.4923,15.6744 18.3627,15.723 18.0792,15.723 L18.0792,15.723 L17.7147,15.723 L16.1676,14.184 L14.6124,12.645 L12.2796,14.9859 C12.2112973,15.0542027 12.1448051,15.1206831 12.0800648,15.1853845 L11.7121751,15.5525952 C9.74127064,17.516437 9.6597973,17.5244838 9.1611,17.2863 C8.7966,17.1081 8.6346,16.7841 8.7075,16.3872 C8.7561,16.128 9.2826,15.5691 12.6603,12.1671 L12.6603,12.1671 L13.0876176,11.738796 C15.07032,9.75438 16.86204,8.00046 17.172,7.7283 C18.1764,6.8616 19.5129,6.327 20.6712,6.327 L20.6712,6.327 L21.2058,6.327 L21.0843,5.9382 C20.9061,5.3631 20.9871,4.5045 21.2868,3.8727 C22.0077,2.3256 23.9193,1.6776 25.4583,2.4552 C25.6203,2.5362 26.001,2.8359 26.3088,3.1194 L26.3088,3.1194 L26.8515,3.6378 L27.4185,3.5973 C28.6821,3.5082 30.4965,4.059 32.3028,5.0796 C32.5701,5.2335 32.5701,5.2335 32.7159,5.0553 C32.7969,4.9581 32.9832,4.5774 33.129,4.2048 C33.8742,2.3418 34.5546,1.5885 35.9478,1.1025 C36.369,0.9567 36.6687,0.907799832 37.2762,0.907799832 Z M14.4423,31.3722 C14.6934,31.2507 15.0417,31.2588 15.2928,31.3884 C15.3887211,31.4395579 15.9591989,31.980418 16.6694398,32.6841579 L16.9601966,32.9735661 C17.0590712,33.0724147 17.1596368,33.1733842 17.2611,33.2757 C19.035,35.0658 19.1484,35.2116 19.0512,35.6895 C19.0107,35.9406 18.6786,36.2808 18.4437,36.3132 C18.0289241,36.3810724 17.8037229,36.231285 16.2972585,34.7329268 L15.9408,34.3773 C13.9239,32.3604 13.8429,32.247 14.1345,31.7124 C14.2074,31.5747 14.3532,31.4127 14.4423,31.3722 Z M18.4923,27.4437 C18.7515,27.3951 19.0431,27.468 19.278,27.6381 C19.3914,27.711 20.2581,28.5615 21.2058,29.5173 C22.8906,31.2183 22.923,31.2588 22.923,31.5909 C22.923,31.9959 22.7529,32.2794 22.437,32.409 C21.9186,32.6277 21.789,32.5305 19.7802,30.5217 L19.7802,30.5217 L17.901,28.6344 L17.901,28.2618 C17.901,27.9783 17.9496,27.8487 18.1116,27.6867 C18.225,27.5733 18.3951,27.4599 18.4923,27.4437 Z M22.9473,23.58 L24.7698,25.3782 C25.8066,26.4069 26.6409,27.2979 26.7057,27.4599 C26.9487,28.035 26.568,28.602 25.9362,28.602 L25.9362,28.602 L25.5636,28.602 L23.7492,26.7957 L23.7492,26.7957 L23.4396617,26.4868915 C22.5792324,25.6235111 21.8785263,24.8785579 21.8133,24.7626 C21.6594,24.4629 21.7323,24.066 22.0077,23.7906 C22.1697,23.6286 22.2993,23.58 22.5828,23.58 L22.5828,23.58 L22.9473,23.58 Z M26.3898,19.692 C26.6888769,19.692 27.1190876,20.0370888 28.4640489,21.3770949 L28.8198,21.7332 C30.5856,23.5233 30.618,23.5638 30.618,23.8959 C30.618,24.3252 30.4398,24.6006 30.0834,24.714 C29.5731,24.8841 29.3949,24.7545 27.4347,22.7781 L27.4347,22.7781 L25.596,20.9313 L25.596,20.5749 C25.6041,20.1699 25.7094,19.9917 26.0496,19.8135 C26.1792,19.7487 26.3331,19.692 26.3898,19.692 Z M24.5673,3.9456 C23.5224,3.4272 22.2912,4.6584 22.8096,5.7033 C22.8999549,5.88400986 26.3763637,9.40912472 29.8304229,12.8660175 L30.4053081,13.4409495 C33.5596096,16.5931643 36.5360197,19.5287451 36.7092,19.6191 C37.2195,19.8783 37.7379,19.7973 38.1834,19.3842 C38.637,18.9549 38.7504,18.3717 38.4831,17.8452 C38.3954831,17.6772676 35.6324656,14.8734239 32.5908446,11.8274997 L31.7300175,10.9664229 C28.2731247,7.51236374 24.7480099,4.03595493 24.5673,3.9456 Z M7.0875,17.8533 C7.3467,17.5941 7.4115,17.5698 7.7112,17.6103 C8.1891,17.6751 8.4645,17.9748 8.4645,18.4365 C8.4645,18.9468 8.1648,19.2465 7.6464,19.2465 C7.3305,19.2465 7.2414,19.206 7.0389,18.9792 C6.6987,18.5985 6.7149,18.2259 7.0875,17.8533 Z M20.817,16.776 C21.7323,16.776 21.9591,18.1125 21.0924,18.396 C20.5092,18.5904 20.007,18.2178 20.007,17.586 C20.007,17.3187 20.0556,17.1972 20.2419,17.0109 C20.4282,16.8246 20.5497,16.776 20.817,16.776 Z M37.4625,2.6253 C36.7497,2.5929 36.4014,2.6901 35.883,3.0465 C35.4375,3.3543 35.2026,3.6864 34.8624,4.5126 C34.2387,6.0192 33.8175,6.6105 33.1614,6.8616 C32.6187,7.0641 32.2056,6.975 31.0797,6.3756 C30.1482,5.8896 28.9089,5.3955 28.7469,5.4522 C28.7064,5.4684 30.5532,7.3557 32.8455,9.648 L32.8455,9.648 L33.4593291,10.2606545 C35.4639421,12.2575388 37.017,13.7657455 37.017,13.7142 C37.017,13.4388 36.5472,12.2724 36.0774,11.3733 C35.478,10.2474 35.3889,9.8343 35.5914,9.2916 C35.8425,8.6355 36.4824,8.1738 38.0619,7.5339 C38.8233,7.2261 39.3093,6.8211 39.6252,6.2379 C39.7791,5.9382 39.8115,5.76 39.8115,5.112 C39.8115,4.464 39.7791,4.2858 39.6252,3.9942 C39.3903,3.5487 38.8962,3.0627 38.4588,2.8359 C38.2077,2.7063 37.9323,2.6496 37.4625,2.6253 Z" id="Combined-Shape"></path>
                </g>
            </g>
        </g>
    </g>
</svg>