<?xml version="1.0" encoding="UTF-8"?>
<svg width="42px" height="35px" viewBox="0 0 42 35" version="1.1" xmlns="http://www.w3.org/2000/svg" xmlns:xlink="http://www.w3.org/1999/xlink">
    <title>svg/Bookkeeping_services_ic</title>
    <g id="Page-1" stroke="none" stroke-width="1" fill="none" fill-rule="evenodd">
        <g id="Service-All-Category" transform="translate(-292.000000, -904.000000)" fill="#47CDFE" fill-rule="nonzero" stroke="#47CDFE" stroke-width="0.1">
            <g id="Group-2" transform="translate(271.000000, 879.000000)">
                <g id="Bookkeeping_services_ic" transform="translate(22.000000, 25.000000)">
                    <path d="M38.1429,0.9 L38.5965,1.0701 C39.1959,1.2969 39.7791,1.8801 40.0059,2.4795 L40.0059,2.4795 L40.176,2.9331 L40.176,32.5629 L40.0059,33.0165 C39.7791,33.6159 39.1959,34.1991 38.5965,34.4259 L38.5965,34.4259 L38.1429,34.596 L2.0331,34.596 L1.5795,34.4259 C0.9801,34.1991 0.3969,33.6159 0.1701,33.0165 L0.1701,33.0165 L-7.27926853e-14,32.5629 L-7.64212892e-14,2.9331 L0.1701,2.4795 C0.3888,1.8882 0.9801,1.2969 1.5552,1.0701 C1.559493,1.06848 1.5637536,1.0668762 1.56799999,1.06528844 L1.5934534,1.05595303 C1.61050273,1.04985599 1.62790691,1.04401039 1.64683026,1.03840583 L1.67650021,1.0301785 C1.98750424,0.949687182 2.77130852,0.922267062 7.95751463,0.912926142 L8.49095546,0.912051018 C8.76515875,0.911642292 9.05069551,0.911275848 9.34805694,0.910947312 L10.2761065,0.910071054 C10.3832738,0.909985356 10.4918095,0.909903384 10.6017319,0.909824976 L11.9885227,0.909044784 C12.1098291,0.908992296 12.232595,0.908942724 12.3568384,0.908895906 L20.0637,0.9081 L38.1429,0.9 Z M38.88,8.676 L1.296,8.676 L1.3122,20.4777 C1.33192588,29.9329729 1.33563899,31.8195409 1.4229953,32.3420715 L1.43080475,32.384222 C1.43882987,32.4232367 1.4475093,32.4532972 1.45690856,32.4784832 L1.46655018,32.5021954 C1.46819792,32.505927 1.46986626,32.509561 1.47155551,32.5131162 L1.48194427,32.5336538 C1.48726651,32.5436013 1.49278235,32.55318 1.4985,32.5629 C1.7091,32.9193 2.0007,33.1299 2.3976,33.219 C2.58714,33.266385 9.685413,33.2924468 17.4745593,33.2971853 L22.7014407,33.2971853 C30.490587,33.2924468 37.58886,33.266385 37.7784,33.219 C38.1753,33.1299 38.4669,32.9193 38.6775,32.5629 C38.6832176,32.55318 38.6887335,32.5436013 38.6940557,32.5336538 L38.7044445,32.5131162 C38.7061337,32.509561 38.7078021,32.505927 38.7094498,32.5021954 L38.7190914,32.4784832 C38.7284907,32.4532972 38.7371701,32.4232367 38.7451953,32.384222 L38.7530047,32.3420715 C38.840361,31.8195409 38.8440741,29.9329729 38.8638,20.4777 L38.8638,20.4777 L38.88,8.676 Z M23.976,10.62 C24.3162,10.62 24.6159,10.6767 24.8265,10.7739 C25.1586,10.9197 25.6203,11.3814 25.7742,11.7216 L25.7742,11.7216 L25.8633,11.916 L29.8647,11.916 L29.9538,11.7216 C30.1077,11.3814 30.5694,10.9197 30.9015,10.7739 C31.3308,10.5714 32.1732,10.5714 32.6025,10.7739 C32.9346,10.9197 33.3963,11.3814 33.5502,11.7216 C33.6281625,11.8846125 33.6627141,11.9111906 34.2887396,11.9152881 L34.5951,11.916 C35.3646,11.916 35.64,11.9484 36.0045,12.0861 C36.6039,12.3129 37.1871,12.8961 37.4139,13.4955 C37.5468873,13.8438 37.5759027,13.9891073 37.5822333,17.0396857 L37.5829776,17.4845157 C37.5830798,17.5619008 37.5831719,17.6409354 37.5832547,17.7216585 L37.584,26.739 L37.8594,26.8524 C38.2158,26.9982 38.3535,27.3708 38.1996,27.7434 C38.0943,27.9945 37.9809,28.0512 36.4905,28.6506 L36.4905,28.6506 L34.8948,29.2905 L34.263,30.87 C33.9147,31.7367 33.5664,32.49 33.4854,32.5467 C33.3153,32.6763 32.8536,32.6844 32.643,32.571 C32.4729,32.4819 32.3595,32.1255 32.076,30.8457 L32.076,30.8457 L31.8978,30.06 L23.5304427,30.0591181 C20.8511471,30.0556885 20.2553874,30.0389214 19.9277881,29.956949 L19.8739164,29.9422481 L19.8739164,29.9422481 L19.823266,29.9262117 L19.823266,29.9262117 L19.7488848,29.899526 L19.7488848,29.899526 L19.7235,29.8899 C19.1241,29.6631 18.5409,29.0799 18.3141,28.4805 C18.3111672,28.472819 18.308285,28.4652391 18.3054525,28.4577235 L18.2890469,28.4131081 C18.1782838,28.1020857 18.1521034,27.7748059 18.1459154,24.7061674 L18.1451604,24.2488476 C18.1450549,24.1694214 18.144959,24.0883676 18.1448718,24.0056494 L18.1440009,21.3409936 L18.1440009,21.3409936 L18.144,20.988 C18.144,20.8683155 18.144,20.7506633 18.1440009,20.6350064 L18.1448718,17.9703506 C18.144959,17.8876324 18.1450549,17.8065786 18.1451604,17.7271524 L18.1459154,17.2698326 C18.1521034,14.2011941 18.1782838,13.8739143 18.2890469,13.5628919 L18.3054525,13.5182765 L18.3054525,13.5182765 L18.3141,13.4955 C18.5409,12.8961 19.1241,12.3129 19.7235,12.0861 C20.088,11.9484 20.3634,11.916 21.1329,11.916 L21.1329,11.916 L21.4392604,11.9152881 C22.0652859,11.9111906 22.0998375,11.8846125 22.1778,11.7216 C22.3317,11.3814 22.7934,10.9197 23.1255,10.7739 C23.3361,10.6767 23.6358,10.62 23.976,10.62 Z M32.6673,27.0873 L32.8131,27.7434 C32.8293,27.8163 32.847444,27.897624 32.8666896,27.9838728 L32.9886432,28.5324696 C33.029208,28.716372 33.06744,28.89198 33.0966,29.0313 L33.0966,29.0313 L33.2343,29.6631 L33.5259,28.9503 L33.8175,28.2375 L34.5303,27.9459 L35.2431,27.6543 L34.6113,27.5166 C34.47198,27.48744 34.296372,27.449208 34.1124696,27.4086432 L33.5638728,27.2866896 L33.5638728,27.2866896 L33.3234,27.2331 L32.6673,27.0873 Z M8.424,12.564 C8.52993529,12.564 8.63383391,12.564 8.73573621,12.5640012 L10.8187643,12.5648903 C13.7205416,12.5688471 13.944851,12.59039 14.0748799,12.7076788 L14.094,12.726 C14.22765,12.85965 14.2513442,12.9627567 14.2552656,15.3588602 L14.2559807,16.3353772 L14.2559807,16.3353772 L14.256,16.614 L14.256,20.34 L15.39,20.34 C16.4187,20.34 16.5402,20.3562 16.686,20.502 C16.7189786,20.5349786 16.7452622,20.5660974 16.7662059,20.6350478 L16.7793922,20.687055 C16.8311624,20.9307339 16.8440523,21.53438 16.8471026,23.3487131 L16.8479844,24.5894012 L16.8479844,24.5894012 L16.848,24.876 C16.848,24.9737786 16.8479954,25.0692934 16.8479844,25.1625988 L16.8471026,26.4032869 C16.8440523,28.21762 16.8311624,28.8212661 16.7793922,29.064945 L16.7662059,29.1169522 C16.7452622,29.1859026 16.7189786,29.2170214 16.686,29.25 L16.6774901,29.2583776 L16.6774901,29.2583776 L16.6599227,29.2742563 C16.534439,29.3788395 16.2572022,29.4040169 13.3533262,29.4100781 L12.9093309,29.4108357 C12.8321109,29.4109415 12.7532564,29.4110378 12.6727317,29.4111252 L6.76726826,29.4111252 C6.68674356,29.4110378 6.60788914,29.4109415 6.53066908,29.4108357 L6.0866738,29.4100781 C3.18279784,29.4040169 2.90556097,29.3788395 2.7800773,29.2742563 L2.76250987,29.2583776 L2.76250987,29.2583776 L2.754,29.25 C2.628,29.124 2.6,29.0323 2.59377778,25.2362 L2.59311953,24.7526029 C2.59302624,24.6688329 2.59294072,24.5834566 2.59286233,24.496442 L2.59286233,17.479558 C2.59294072,17.3925434 2.59302624,17.3071671 2.59311953,17.2233971 L2.59377778,16.7398 C2.6,12.9437 2.628,12.852 2.754,12.726 L2.76350438,12.7166562 C2.89360698,12.5914781 3.05491398,12.5689461 6.02923574,12.5648903 L8.11226379,12.5640012 L8.11226379,12.5640012 Z M36.288,17.1 L19.4319,17.1 L19.4562,22.4217 C19.4789812,27.2589188 19.4875242,27.717866 19.6153128,27.9765875 L19.6330696,28.0102639 L19.6330696,28.0102639 L19.6425,28.0269 C19.8531,28.3833 20.1447,28.5939 20.5416,28.683 C20.7322615,28.7278615 23.1004331,28.7537432 25.5954912,28.7590523 L26.2207125,28.75995 C26.4292096,28.7601058 26.6374012,28.7601178 26.8441005,28.759985 L27.458535,28.7591518 C29.6863442,28.7544981 31.59,28.7322231 31.59,28.6911 C31.59,28.680975 31.5834187,28.6414875 31.5713953,28.5787125 L31.5404297,28.4239125 C31.496625,28.2112875 31.427325,27.893925 31.347,27.549 L31.347,27.549 L31.2784999,27.2261806 C31.1799124,26.745895 31.104,26.3030727 31.104,26.1639 C31.104,25.5078 31.509,25.3944 32.7645,25.686 C33.7446,25.9128 33.696,25.929 33.696,25.362 L33.696,25.362 L33.696,24.876 L31.752,24.876 L31.752,23.58 L33.8636208,23.5793376 C35.071092,23.585328 34.992,23.69718 34.992,25.038 L34.992,25.038 L34.992,26.1639 L35.2998,26.2449 C35.4618,26.2854 35.7534,26.3502 35.9478,26.3988 L35.9478,26.3988 L36.288,26.4798 L36.288,17.1 Z M15.552,21.636 L10.368,21.636 L10.368,28.116 L15.552,28.116 L15.552,21.636 Z M12.96,13.86 L3.888,13.86 L3.888,28.116 L9.072,28.116 L9.07273439,23.1348602 C9.07665582,20.7387567 9.10035,20.63565 9.234,20.502 C9.2406913,20.4953087 9.24730605,20.488893 9.25397605,20.4827416 L9.29571365,20.4489143 C9.42182453,20.3615432 9.6400938,20.3440124 10.5981313,20.340719 L10.9680338,20.3400573 L10.9680338,20.3400573 L11.178,20.34 L12.96,20.34 L12.96,13.86 Z M23.2251343,23.580801 C24.2263804,23.5849202 24.3290864,23.6090864 24.462,23.742 C24.5949136,23.8749136 24.6190798,23.9776196 24.623199,24.9788657 L24.623199,26.0691343 C24.6190798,27.0703804 24.5949136,27.1730864 24.462,27.306 L24.4411293,27.3260956 C24.3157862,27.4414019 24.1736832,27.4632966 23.2251343,27.467199 L22.8779997,27.4679369 L22.8779997,27.4679369 L22.68,27.468 C22.61115,27.468 22.5451952,27.4679833 22.4820003,27.4679369 L22.1348657,27.467199 C21.1336196,27.4630798 21.0309136,27.4389136 20.898,27.306 C20.7650864,27.1730864 20.7409202,27.0703804 20.736801,26.0691343 L20.7360631,25.7219997 L20.7360631,25.7219997 L20.736,25.524 C20.736,25.45515 20.7360167,25.3891952 20.7360631,25.3260003 L20.736801,24.9788657 C20.7409202,23.9776196 20.7650864,23.8749136 20.898,23.742 L20.9188707,23.7219044 C21.0442138,23.6065981 21.1863168,23.5847034 22.1348657,23.580801 Z M27.0135,23.7339 C27.4185,23.5476 28.2366,23.5314 28.6578,23.7096 C29.3787,24.0093 29.808,24.6816 29.808,25.524 C29.808,26.6904 29.0304,27.468 27.864,27.468 C26.7057,27.468 25.9281,26.6904 25.92,25.5402 C25.92,24.7059 26.3088,24.0579 27.0135,23.7339 Z M14.256,25.524 L14.256,26.82 L11.664,26.82 L11.664,25.524 L14.256,25.524 Z M7.776,25.524 L7.776,26.82 L5.184,26.82 L5.184,25.524 L7.776,25.524 Z M23.328,24.876 L22.032,24.876 L22.032,26.172 L23.328,26.172 L23.328,24.876 Z M27.864,24.957 C27.7263,24.957 27.5481,25.0299 27.459,25.119 C27.3699,25.2081 27.297,25.3863 27.297,25.524 C27.297,25.6617 27.3699,25.8399 27.459,25.929 C27.5481,26.0181 27.7263,26.091 27.864,26.091 C28.0017,26.091 28.1799,26.0181 28.269,25.929 C28.3581,25.8399 28.431,25.6617 28.431,25.524 C28.431,25.3863 28.3581,25.2081 28.269,25.119 C28.1799,25.0299 28.0017,24.957 27.864,24.957 Z M14.256,22.932 L14.256,24.228 L11.664,24.228 L11.664,22.932 L14.256,22.932 Z M7.776,22.932 L7.776,24.228 L5.184,24.228 L5.184,22.932 L7.776,22.932 Z M33.5931343,18.396801 C34.5943804,18.4009202 34.6970864,18.4250864 34.83,18.558 L34.8500956,18.5788707 C34.9654019,18.7042138 34.9872966,18.8463168 34.991199,19.7948657 L34.9919369,20.1420003 L34.9919369,20.1420003 L34.992,20.34 C34.992,20.40885 34.9919833,20.4748048 34.9919369,20.5379997 L34.991199,20.8851343 C34.9870798,21.8863804 34.9629136,21.9890864 34.83,22.122 C34.6970864,22.2549136 34.5943804,22.2790798 33.5931343,22.283199 L33.2459997,22.2839369 L33.2459997,22.2839369 L33.048,22.284 C32.97915,22.284 32.9131952,22.2839833 32.8500003,22.2839369 L32.5028657,22.283199 C31.5016196,22.2790798 31.3989136,22.2549136 31.266,22.122 L31.2459044,22.1011293 C31.1305981,21.9757862 31.1087034,21.8336832 31.104801,20.8851343 L31.104801,19.7948657 C31.1089202,18.7936196 31.1330864,18.6909136 31.266,18.558 C31.3989136,18.4250864 31.5016196,18.4009202 32.5028657,18.396801 Z M28.4091343,18.396801 C29.4103804,18.4009202 29.5130864,18.4250864 29.646,18.558 L29.6660956,18.5788707 C29.7814019,18.7042138 29.8032966,18.8463168 29.807199,19.7948657 L29.8079369,20.1420003 L29.8079369,20.1420003 L29.808,20.34 C29.808,20.40885 29.8079833,20.4748048 29.8079369,20.5379997 L29.807199,20.8851343 C29.8030798,21.8863804 29.7789136,21.9890864 29.646,22.122 C29.5130864,22.2549136 29.4103804,22.2790798 28.4091343,22.283199 L28.0619997,22.2839369 L28.0619997,22.2839369 L27.864,22.284 C27.79515,22.284 27.7291952,22.2839833 27.6660003,22.2839369 L27.3188657,22.283199 C26.3176196,22.2790798 26.2149136,22.2549136 26.082,22.122 L26.0619044,22.1011293 C25.9465981,21.9757862 25.9247034,21.8336832 25.920801,20.8851343 L25.920801,19.7948657 C25.9249202,18.7936196 25.9490864,18.6909136 26.082,18.558 C26.2149136,18.4250864 26.3176196,18.4009202 27.3188657,18.396801 Z M23.2251343,18.396801 C24.2263804,18.4009202 24.3290864,18.4250864 24.462,18.558 C24.5949136,18.6909136 24.6190798,18.7936196 24.623199,19.7948657 L24.623199,20.8851343 C24.6190798,21.8863804 24.5949136,21.9890864 24.462,22.122 L24.4411293,22.1420956 C24.3157862,22.2574019 24.1736832,22.2792966 23.2251343,22.283199 L22.8779997,22.2839369 L22.8779997,22.2839369 L22.68,22.284 C22.61115,22.284 22.5451952,22.2839833 22.4820003,22.2839369 L22.1348657,22.283199 C21.1336196,22.2790798 21.0309136,22.2549136 20.898,22.122 C20.7650864,21.9890864 20.7409202,21.8863804 20.736801,20.8851343 L20.7360631,20.5379997 L20.7360631,20.5379997 L20.736,20.34 C20.736,20.27115 20.7360167,20.2051952 20.7360631,20.1420003 L20.736801,19.7948657 C20.7409202,18.7936196 20.7650864,18.6909136 20.898,18.558 L20.9188707,18.5379044 C21.0442138,18.4225981 21.1863168,18.4007034 22.1348657,18.396801 Z M7.776,20.34 L7.776,21.636 L5.184,21.636 L5.184,20.34 L7.776,20.34 Z M28.512,19.692 L27.216,19.692 L27.216,20.988 L28.512,20.988 L28.512,19.692 Z M23.328,19.692 L22.032,19.692 L22.032,20.988 L23.328,20.988 L23.328,19.692 Z M33.696,19.692 L32.4,19.692 L32.4,20.988 L33.696,20.988 L33.696,19.692 Z M7.776,17.748 L7.776,19.044 L5.184,19.044 L5.184,17.748 L7.776,17.748 Z M11.664,17.748 L11.664,19.044 L9.072,19.044 L9.072,17.748 L11.664,17.748 Z M7.776,15.156 L7.776,16.452 L5.184,16.452 L5.184,15.156 L7.776,15.156 Z M11.664,15.156 L11.664,16.452 L9.072,16.452 L9.072,15.156 L11.664,15.156 Z M29.8647,13.212 L25.8633,13.212 L25.7742,13.4064 C25.6203,13.7466 25.1586,14.2083 24.8265,14.3541 C24.6159,14.4513 24.3162,14.508 23.976,14.508 C23.6358,14.508 23.3361,14.4513 23.1255,14.3541 C22.7934,14.2083 22.3317,13.7466 22.1778,13.4064 C22.0887,13.2201 22.0482,13.212 21.4326,13.2201 C19.9179,13.2363 19.521,13.5927 19.4562,15.0021 L19.4562,15.0021 L19.4157,15.804 L36.3123,15.804 L36.2718,15.0021 C36.207,13.5927 35.7858,13.2201 34.2549,13.212 C33.6879,13.212 33.6312,13.2282 33.5502,13.4064 C33.3963,13.7466 32.9346,14.2083 32.6025,14.3541 C32.1732,14.5566 31.3308,14.5566 30.9015,14.3541 C30.5694,14.2083 30.1077,13.7466 29.9538,13.4064 L29.9538,13.4064 L29.8647,13.212 Z M23.976,11.997 C23.8383,11.997 23.6601,12.0699 23.571,12.159 C23.4819,12.2481 23.409,12.4263 23.409,12.564 C23.409,12.7017 23.4819,12.8799 23.571,12.969 C23.6601,13.0581 23.8383,13.131 23.976,13.131 C24.1137,13.131 24.2919,13.0581 24.381,12.969 C24.4701,12.8799 24.543,12.7017 24.543,12.564 C24.543,12.4263 24.4701,12.2481 24.381,12.159 C24.2919,12.0699 24.1137,11.997 23.976,11.997 Z M31.752,11.997 C31.6143,11.997 31.4361,12.0699 31.347,12.159 C31.2579,12.2481 31.185,12.4263 31.185,12.564 C31.185,12.7017 31.2579,12.8799 31.347,12.969 C31.4361,13.0581 31.6143,13.131 31.752,13.131 C31.8897,13.131 32.0679,13.0581 32.157,12.969 C32.2461,12.8799 32.319,12.7017 32.319,12.564 C32.319,12.4263 32.2461,12.2481 32.157,12.159 C32.0679,12.0699 31.8897,11.997 31.752,11.997 Z M12.96,2.196 L7.8003,2.2041 C4.9572,2.2122 2.511,2.2446 2.3571,2.277 C2.0007,2.358 1.701,2.5929 1.4985,2.9331 C1.3527,3.1842 1.3365,3.3786 1.3122,5.2902 L1.3122,5.2902 L1.2879,7.38 L12.96,7.38 L12.96,2.196 Z M27.6713913,2.19682047 L14.256,2.196 L14.256,7.38 L38.8881,7.38 L38.8638,5.2902 C38.8395,3.3786 38.8233,3.1842 38.6775,2.9331 C38.4669,2.5767 38.1753,2.3661 37.7784,2.277 C37.6167,2.2329 33.4266556,2.20213889 27.6713913,2.19682047 Z M3.888,4.14 L3.888,5.436 L2.592,5.436 L2.592,4.14 L3.888,4.14 Z M6.48,4.14 L6.48,5.436 L5.184,5.436 L5.184,4.14 L6.48,4.14 Z M9.072,4.14 L9.072,5.436 L7.776,5.436 L7.776,4.14 L9.072,4.14 Z M11.664,4.14 L11.664,5.436 L10.368,5.436 L10.368,4.14 L11.664,4.14 Z" id="Combined-Shape"></path>
                </g>
            </g>
        </g>
    </g>
</svg>