<?xml version="1.0" encoding="UTF-8"?>
<svg width="29px" height="47px" viewBox="0 0 29 47" version="1.1" xmlns="http://www.w3.org/2000/svg" xmlns:xlink="http://www.w3.org/1999/xlink">
    <title>svg/boys_fashion_ic</title>
    <g id="Page-1" stroke="none" stroke-width="1" fill="none" fill-rule="evenodd">
        <g id="Product-All-Category" transform="translate(-49.000000, -628.000000)" fill="#47CDFE" fill-rule="nonzero">
            <g id="Group-2" transform="translate(20.000000, 609.000000)">
                <g id="boys_fashion_ic" transform="translate(29.000000, 19.000000)">
                    <path d="M13.5,0.099 C14.346,-0.009 17.541,-0.018 18.495,0.09 C20.709,0.342 23.328,0.936 23.805,1.296 C24.219,1.62 24.435,2.097 24.435,2.745 L24.435,2.745 L24.4345171,2.96773983 C24.4249259,3.33928395 24.321,3.48466667 23.355,4.995 C23.04,5.481 22.788,5.904 22.806,5.913 C22.824,5.931 23.193,5.841 23.634,5.706 C24.246,5.526 24.705,5.463 25.587,5.427 C26.937,5.364 27.342,5.472 27.846,6.03 C28.377,6.624 28.386,7.155 27.873,9.09 C27.495,10.53 27.126,12.672 27,14.175 C26.955,14.769 26.91,16.452 26.91,17.919 C26.91,20.88 26.865,21.195 26.343,21.888 C26.01,22.329 25.074,22.86 24.615,22.86 L24.615,22.86 L24.327,22.86 L24.273,23.463 C24.138,24.912 23.4,26.766 22.527,27.855 L22.527,27.855 L22.095,28.386 L23.13,29.43 C25.029,31.311 26.154,33.372 26.748,35.982 C26.928,36.801 26.946,37.134 26.973,41.247 C27.0144,45.85896 27.0405648,46.0755648 26.4978472,46.080705 L26.4237863,46.0805201 C26.3979936,46.080288 26.37108,46.08 26.343,46.08 C25.74,46.08 25.614,45.936 25.578,45.189 L25.578,45.189 L25.542,44.55 L22.248,44.55 L22.212,45.189 C22.176,45.927 22.05,46.08 21.492,46.08 C20.961,46.08 20.79,45.846 20.79,45.135 L20.79,45.135 L20.79,44.55 L19.5799768,44.5498462 C18.7565625,44.5480664 18.6890625,44.5275 18.495,44.325 C18.252,44.091 18.216,43.866 18.369,43.533 C18.522,43.191 18.819,43.11 19.845,43.11 L19.845,43.11 L20.79,43.11 L20.79,41.49 L19.543587,41.4898644 C18.6622941,41.4881938 18.6284118,41.4677647 18.459,41.256 C18.216,40.95 18.216,40.68 18.459,40.374 C18.639,40.149 18.666,40.14 19.719,40.14 L20.79,40.14 L20.7903411,39.1224031 C20.7935816,38.4639796 20.8234286,38.3875714 21.024,38.187 C21.213,37.998 21.312,37.971 21.582,38.007 C22.113,38.097 22.185,38.232 22.212,39.24 L22.212,39.24 L22.248,40.14 L25.587,40.14 L25.533,38.538 C25.479,36.954 25.389,36.351 25.02,35.172 L25.02,35.172 L24.831,34.569 L24.363,34.866 C23.553,35.388 22.491,35.91 22.266,35.91 C21.933,35.91 21.6,35.532 21.6,35.163 C21.6,34.785 21.78,34.623 22.725,34.11 C23.121,33.894 23.616,33.606 23.823,33.462 L23.823,33.462 L24.201,33.201 L23.922,32.733 C23.76,32.472 23.472,32.04 23.283,31.77 C22.842,31.167 21.195,29.52 21.024,29.52 C20.961,29.52 20.628,29.709 20.286,29.934 C18.513,31.122 16.47,31.707 14.04,31.707 C11.592,31.716 9.567,31.158 7.83,30.015 C7.461,29.763 7.11,29.538 7.056,29.502 C6.912,29.403 5.427,30.816 4.842,31.617 C4.059,32.661 3.744,33.219 3.888,33.318 C5.355,34.281 7.443,35.262 9.027,35.73 C11.79,36.558 14.931,36.666 17.703,36.036 C18.873,35.775 19.026,35.766 19.26,36 C19.485,36.225 19.503,36.819 19.296,37.026 C18.954,37.377 16.623,37.791 14.625,37.863 C11.007,37.989 7.551,37.125 4.32,35.271 C3.717,34.929 3.195,34.668 3.159,34.686 C3.051,34.758 2.718,35.964 2.565,36.846 C2.493,37.296 2.43,38.187 2.43,38.889 L2.43,38.889 L2.43,40.14 L5.76,40.14 L5.76,39.294 C5.76,38.25 5.886,38.025 6.48,38.025 C7.074,38.025 7.2,38.25 7.2,39.294 L7.2,39.294 L7.2,40.14 L8.44641299,40.1401356 C9.32770588,40.1418062 9.36158824,40.1622353 9.531,40.374 C9.774,40.68 9.774,40.95 9.531,41.256 C9.351,41.481 9.324,41.49 8.271,41.49 L7.2,41.49 L7.2,43.11 L8.145,43.11 C9.171,43.11 9.468,43.191 9.621,43.533 C9.774,43.866 9.738,44.091 9.495,44.325 C9.288,44.541 9.225,44.55 8.235,44.55 L7.2,44.55 L7.2,45.135 C7.2,45.855 7.029,46.08 6.48,46.08 C5.931,46.08 5.76,45.855 5.76,45.135 L5.76,45.135 L5.76,44.55 L2.43,44.55 L2.43,45.054 C2.43,45.54 2.322,45.882 2.124,46.008 C2.07,46.044 1.854,46.08 1.647,46.08 C1.61892,46.08 1.5920064,46.080288 1.5662137,46.0805172 L1.49215277,46.080682 C1.1028119,46.0768044 1.00624651,45.9625283 0.998046936,44.1802004 L0.997848,43.651584 C0.99972,43.01568 1.008,42.2136 1.017,41.202 C1.053,36.324 1.053,36.351 1.665,34.497 C2.304,32.58 3.312,30.969 4.842,29.43 C5.517,28.755 5.841,28.368 5.796,28.296 C5.751,28.242 5.562,27.999 5.373,27.756 C4.914,27.153 4.185,25.659 3.96,24.84 C3.861,24.471 3.753,23.877 3.717,23.526 L3.717,23.526 L3.663,22.878 L3.276,22.833 C2.493,22.752 1.764,22.221 1.368,21.465 L1.368,21.465 L1.125,21.015 L1.071,16.965 C0.99,11.979 0.801,9.819 0.261,7.911 C0.162,7.542 0.054,6.975 0.027,6.642 C-0.018,6.102 0.009,5.994 0.216,5.634 C0.729,4.761 1.764,4.518 2.826,5.022 L2.826,5.022 L3.357,5.274 L4.176,4.446 C5.121,3.492 6.048,2.79 6.354,2.79 C6.642,2.79 7.011,3.141 7.074,3.483 C7.137,3.816 7.092,3.87 5.877,4.869 C5.481,5.202 4.86,5.823 4.509,6.246 C3.744,7.164 3.573,7.209 2.826,6.714 C2.196,6.282 1.773,6.12 1.593,6.228 C1.386,6.336 1.395,6.444 1.701,7.65 C2.196,9.63 2.412,11.691 2.493,15.345 L2.493,15.345 L2.547,17.874 L3.078,17.739 L3.6,17.595 L3.6,16.461 C3.6,13.959 3.978,11.997 4.806,10.125 C5.211,9.216 5.751,8.82 6.561,8.82 C7.191,8.82 7.398,8.919 8.172,9.63 C9.063,10.431 9.801,10.98 9.999,10.98 C10.107,10.98 10.197,10.845 10.296,10.548 C10.539,9.828 11.043,9.45 11.781,9.45 C12.411,9.45 12.573,9.531 13.329,10.233 C14.22,11.061 14.652,11.349 15.957,11.97 C17.892,12.897 19.719,13.428 22.05,13.725 C23.301,13.887 23.67,14.022 23.985,14.436 C24.3,14.85 24.39,15.318 24.39,16.515 L24.39,16.515 L24.39,17.595 L24.921,17.739 L25.443,17.874 L25.497,15.885 C25.524,14.796 25.614,13.383 25.695,12.744 C25.857,11.502 26.325,9.153 26.658,7.938 C26.90352,7.01928 26.9260128,6.902064 26.0814874,6.89329498 L25.8291821,6.89307149 L25.8291821,6.89307149 L25.686,6.894 C24.93,6.894 24.552,6.939 24.03,7.101 C23.328,7.317 22.23,7.839 21.663,8.226 C21.006,8.676 20.34,8.451 20.34,7.776 C20.34,7.353 21.357,5.355 22.311,3.888 C22.716,3.276 23.04,2.718 23.04,2.646 C23.04,2.484 22.824,2.394 21.897,2.16 C19.863,1.656 18.072,1.44 15.975,1.44 C13.779,1.44 12.204,1.692 10.305,2.331 C9.864,2.484 9.441,2.61 9.378,2.61 C9.171,2.61 8.73,2.097 8.73,1.854 C8.73,1.449 9.072,1.197 10.08,0.864 C11.052,0.549 12.465,0.234 13.5,0.099 Z M13.617,38.718 C13.923,38.565 14.175,38.592 14.436,38.799 C14.661,38.97 14.67,39.024 14.67,39.807 L14.67,40.626 L15.237,40.068 C15.885,39.42 16.218,39.339 16.605,39.735 C16.983,40.104 16.911,40.428 16.335,41.04 L16.335,41.04 L15.831,41.562 L16.551,41.589 C17.406,41.634 17.676,41.814 17.676,42.336 C17.676,42.894 17.469,43.02 16.533,43.02 L16.533,43.02 L15.723,43.02 L16.272,43.596 C16.911,44.262 16.992,44.577 16.605,44.955 C16.227,45.342 15.912,45.261 15.246,44.622 L15.246,44.622 L14.67,44.073 L14.67,44.865 C14.67,45.819 14.571,45.99 13.995,45.99 C13.437,45.99 13.302,45.792 13.248,44.91 L13.248,44.91 L13.203,44.181 L12.681,44.685 C12.078,45.261 11.754,45.333 11.385,44.955 C10.998,44.577 11.079,44.262 11.718,43.596 L11.718,43.596 L12.267,43.02 L11.3024531,43.0193906 C10.7705,43.01475 10.611,42.98175 10.512,42.858 C10.143,42.444 10.26,41.841 10.728,41.679 C10.881,41.625 11.268,41.58 11.592,41.58 L11.592,41.58 L12.177,41.58 L11.673,41.049 C11.079,40.428 11.007,40.104 11.385,39.735 C11.754,39.357 12.078,39.429 12.699,40.023 L12.699,40.023 L13.23,40.527 L13.23,39.942 C13.23,39.231 13.356,38.844 13.617,38.718 Z M5.76,41.49 L2.52,41.49 L2.52,43.11 L5.76,43.11 L5.76,41.49 Z M25.47,41.49 L22.23,41.49 L22.23,43.11 L25.47,43.11 L25.47,41.49 Z M13.995,33.12 C14.634,33.12 14.913,33.867 14.445,34.335 C14.175,34.605 13.869,34.623 13.554,34.371 C13.257,34.137 13.221,33.579 13.5,33.3 C13.608,33.192 13.797,33.12 13.995,33.12 Z M9.9,32.76 C10.305,32.355 11.07,32.706 11.07,33.3 C11.07,33.669 10.719,34.02 10.35,34.02 C9.963,34.02 9.72,33.741 9.72,33.3 C9.72,33.057 9.783,32.877 9.9,32.76 Z M17.145,32.805 C17.613,32.337 18.27,32.625 18.27,33.3 C18.27,33.741 18.027,34.02 17.64,34.02 C17.01,34.02 16.695,33.246 17.145,32.805 Z M20.745,31.23 C20.853,31.23 21.051,31.311 21.186,31.419 C21.366,31.563 21.42,31.68 21.42,31.959 C21.42,32.409 21.177,32.67 20.745,32.67 C20.313,32.67 20.07,32.409 20.07,31.959 C20.07,31.68 20.124,31.563 20.304,31.419 C20.439,31.311 20.637,31.23 20.745,31.23 Z M7.245,31.23 C7.353,31.23 7.551,31.311 7.686,31.419 C7.866,31.563 7.92,31.68 7.92,31.959 C7.92,32.409 7.677,32.67 7.245,32.67 C6.813,32.67 6.57,32.409 6.57,31.959 C6.57,31.68 6.624,31.563 6.804,31.419 C6.939,31.311 7.137,31.23 7.245,31.23 Z M6.534,10.26 C6.354,10.26 5.94,11.088 5.634,12.042 C5.22,13.365 5.112,14.202 5.067,16.515 C5.016375,18.9534375 5.02112109,19.0741992 4.22842456,19.0797693 L4.059,19.08 C3.339,19.08 2.925,19.278 2.682,19.719 C2.484,20.088 2.475,20.331 2.646,20.745 C2.844,21.213 3.258,21.42 3.987,21.42 C4.869,21.42 4.995,21.564 5.076,22.68 C5.319,25.722 6.984,28.071 9.864,29.394 C11.016,29.934 12.087,30.168 13.617,30.213 C15.102,30.267 15.921,30.168 17.055,29.817 C18.441,29.376 19.458,28.773 20.511,27.774 C21.942,26.388 22.662,24.885 22.869,22.806 C23.004,21.528 23.094,21.42 24.021,21.42 C24.732,21.42 25.146,21.213 25.344,20.745 C25.515,20.331 25.506,20.088 25.308,19.719 C25.065,19.278 24.651,19.08 23.931,19.08 C23.427,19.08 23.31,19.053 23.148,18.873 C22.977,18.6938571 22.9533469,18.6031224 22.9503926,17.4742935 L22.9497106,16.8702664 C22.9465744,15.7885225 22.9171765,15.4561765 22.824,15.363 C22.743,15.291 22.41,15.21 21.987,15.174 C20.079,15.021 17.163,14.193 15.291,13.293 C14.04,12.69 13.392,12.267 12.51,11.493 C12.141,11.16 11.808,10.89 11.772,10.89 C11.736,10.89 11.664,11.061 11.601,11.268 C11.475,11.754 10.926,12.303 10.485,12.384 C9.558,12.555 8.892,12.24 7.407,10.917 C7.002,10.557 6.606,10.26 6.534,10.26 Z M11.322,25.776 C11.592,25.569 11.997,25.632 12.348,25.92 C12.87,26.352 13.383,26.55 13.995,26.55 C14.607,26.55 15.12,26.352 15.642,25.92 C16.245,25.425 16.92,25.659 16.92,26.352 C16.92,26.631 16.857,26.757 16.587,27.009 C16.128,27.432 15.867,27.585 15.219,27.81 C14.247,28.134 12.897,28.008 12.06,27.513 C11.628,27.261 11.16,26.82 11.061,26.568 C10.971,26.334 11.097,25.947 11.322,25.776 Z M8.955,18.495 C9.234,18.207 9.675,18.198 9.963,18.468 C10.161,18.648 10.17,18.72 10.17,19.845 C10.17,21.15 10.098,21.366 9.639,21.465 C9.297,21.537 8.865,21.321 8.784,21.042 C8.757,20.925 8.73,20.358 8.73,19.773 C8.73,18.765 8.739,18.702 8.955,18.495 Z M18.018,18.477 C18.288,18.189 18.747,18.198 19.035,18.495 C19.251,18.702 19.26,18.765 19.26,19.791 C19.26,20.403 19.215,20.97 19.161,21.096 C18.954,21.546 18.234,21.609 17.955,21.213 C17.856,21.069 17.82,20.736 17.82,19.854 C17.82,18.783 17.838,18.666 18.018,18.477 Z" id="Combined-Shape"></path>
                </g>
            </g>
        </g>
    </g>
</svg>