<?xml version="1.0" encoding="UTF-8"?>
<svg width="38px" height="38px" viewBox="0 0 38 38" version="1.1" xmlns="http://www.w3.org/2000/svg" xmlns:xlink="http://www.w3.org/1999/xlink">
    <title>svg/camera_ic</title>
    <g id="Page-1" stroke="none" stroke-width="1" fill="none" fill-rule="evenodd">
        <g id="Edit-Profile" transform="translate(-215.000000, -202.000000)">
            <g id="Group-3" transform="translate(123.000000, 118.000000)">
                <g id="camera_ic" transform="translate(92.000000, 84.000000)">
                    <circle id="Oval" fill="#47CDFE" cx="19" cy="19" r="19"></circle>
                    <g id="photo-camera-interface-symbol-for-button" transform="translate(12.000000, 13.000000)" fill="#FFFFFF" fill-rule="nonzero">
                        <path d="M8.70704023,-0.00108977945 C8.76176048,-0.00101782559 8.81441269,-0.000927492856 8.86508299,-0.000817459901 L9.26992943,0.000740419356 C9.94234682,0.00482256993 10.1166643,0.0157437011 10.2160306,0.0399956372 L10.248678,0.0491192431 C10.5943811,0.157517681 10.9195764,0.406541118 11.0865686,0.690720806 C11.241842,0.954392681 11.279928,1.12431456 11.2945764,1.58427549 L11.2945764,1.58427549 L11.3092248,2.01786924 L12.6464736,2.01799447 C13.7006507,2.01951149 13.7851555,2.03751538 14.1187952,2.21122862 C14.4732873,2.39579893 14.7809045,2.76493956 14.9156702,3.15751768 L14.9156702,3.15751768 L14.9801233,3.35087706 L14.9889123,6.99833799 C14.9895634,7.28316872 14.9900336,7.55042133 14.990327,7.80067049 L14.9903389,8.91288156 C14.9885346,10.1489416 14.9799063,10.7413935 14.9654748,10.8362286 C14.8717248,11.3840802 14.4644983,11.8704083 13.9225061,12.0872052 L13.9225061,12.0872052 L13.7203577,12.1692364 L1.26918578,12.1692364 L1.06703735,12.0872052 C0.525045159,11.8704083 0.117818597,11.3840802 0.0240685966,10.8362286 C0.0119158189,10.7563675 0.00387826741,10.3236257 0.000565605472,9.45082148 L-0.000795419906,8.91288156 C-0.000890382088,8.84782576 -0.000966441139,8.78098712 -0.00102344822,8.71234435 L-0.00101808985,8.04527313 C-0.000959445492,7.965614 -0.000881302631,7.88408688 -0.000783512422,7.80067049 L0.000631096631,6.99833799 L0.00942015913,3.35087706 L0.0738732841,3.15751768 C0.208638909,2.76493956 0.516256097,2.39579893 0.870748284,2.21122862 C1.22524047,2.02665831 1.29848266,2.01786924 2.55238891,2.01786924 L3.6803186,2.01786924 L3.69496703,1.58427549 C3.70961547,1.12431456 3.74770141,0.954392681 3.90297485,0.690720806 C4.06703735,0.412400493 4.38930297,0.160447368 4.72621703,0.0520489306 C4.83921927,0.0143815199 5.06414752,0.00469561429 6.59836422,0.000852000957 L7.72036715,-0.000955841958 C7.79792104,-0.00103464285 7.87297625,-0.00110167166 7.9456189,-0.00115560703 Z M8.12758422,3.49736143 C7.8053186,3.44169737 7.15785766,3.44462706 6.83559203,3.50322081 C6.32289672,3.59404112 5.74867797,3.84306456 5.32973266,4.15654112 C4.24574828,4.96513487 3.67738891,6.31279112 3.87660766,7.61357237 C4.05824828,8.82646299 4.76137328,9.80790831 5.84242797,10.3586896 C7.54457641,11.2288067 9.65981078,10.6194317 10.6353967,8.97587706 C11.9420373,6.77861143 10.6412561,3.93681456 8.12758422,3.49736143 Z M7.15785766,4.70146299 C7.32484985,4.67509581 7.91957641,4.71025206 8.09535766,4.76005674 C8.49672485,4.86845518 8.9068811,5.10575987 9.19692016,5.39579893 C9.72426391,5.92021299 9.96449828,6.60868956 9.8912561,7.36454893 C9.79457641,8.34013487 9.09731078,9.15458799 8.11586547,9.43583799 C7.79359985,9.52958799 7.1959436,9.52958799 6.87367797,9.43583799 C5.71059203,9.10185362 4.98109985,8.04130674 5.09535766,6.85771299 C5.2037561,5.76493956 6.0475061,4.88017393 7.15785766,4.70146299 Z" id="Combined-Shape"></path>
                    </g>
                </g>
            </g>
        </g>
    </g>
</svg>