<?xml version="1.0" encoding="UTF-8"?>
<svg width="343px" height="177px" viewBox="0 0 343 177" version="1.1" xmlns="http://www.w3.org/2000/svg" xmlns:xlink="http://www.w3.org/1999/xlink">
    <title>svg/card_bg</title>
    <defs>
        <linearGradient x1="100%" y1="36.6853947%" x2="50%" y2="63.3146053%" id="linearGradient-1">
            <stop stop-color="#0DD79E" offset="0%"></stop>
            <stop stop-color="#0DC3D7" offset="100%"></stop>
        </linearGradient>
        <rect id="path-2" x="0" y="0" width="343" height="177" rx="12"></rect>
    </defs>
    <g id="Page-1" stroke="none" stroke-width="1" fill="none" fill-rule="evenodd">
        <g id="Payment" transform="translate(-17.000000, -132.000000)">
            <g id="card_bg" transform="translate(17.000000, 132.000000)">
                <mask id="mask-3" fill="white">
                    <use xlink:href="#path-2"></use>
                </mask>
                <use id="Mask" fill="url(#linearGradient-1)" fill-rule="nonzero" xlink:href="#path-2"></use>
                <path d="M-280.372011,359.462394 C-301.121586,326.839361 -302.578329,282.715344 -284.029311,248.686234 C-265.480292,214.651974 -227.695579,192.123849 -189.166537,192.128999 C-168.047372,192.128999 -147.485681,198.335307 -126.589402,201.363779 C-105.692609,204.392252 -82.8711647,203.794798 -65.4401835,191.753015 C-34.2993492,170.234381 -34.3225129,124.693986 -17.3053908,90.7627354 C-3.44986344,63.1356515 23.5374526,42.5389496 53.6940848,36.5747134 C83.850717,30.6104772 116.511608,39.4074681 139.619253,59.7208944 C158.122973,75.9912073 170.202098,98.5605364 188.314094,115.268639 C206.425575,131.981891 235.584106,141.664762 255.251162,126.74387 C276.220535,110.83924 273.285945,78.0307906 262.780411,53.8699684 C252.274877,29.7091461 236.057162,6.38269888 236.996581,-19.997973 C238.062113,-49.9376148 263.126838,-75.777488 292.092338,-82.7254627 C321.057839,-89.6734374 352.18426,-80.0832752 376.161318,-62.396585 C400.133228,-44.7047443 417.784008,-19.6631929 432.263927,6.47025675 C467.024998,69.2080474 485.664098,144.600526 466.010941,213.776395 C448.123376,276.725355 399.13976,328.698678 339.7968,355.558343 C280.451266,382.418008 211.868542,385.271364 148.835338,369.407938 C113.945064,360.626398 80.0009013,346.266907 44.0589932,344.567255 C8.11708512,342.867602 -32.1039402,357.886352 -46.0994795,391.287105 C-51.4214804,403.988147 -52.4726,418.105566 -57.2397003,431.028078 C-68.3963931,461.271597 -99.7925434,481.260544 -131.733814,483.707014 C-163.67457,486.153484 -195.397586,473.050706 -220.375833,452.932998 C-245.354594,432.820439 -253.92055,401.047233 -280.372011,359.462394" id="Fill-292" fill="#FFFFFF" opacity="0.100000001" mask="url(#mask-3)"></path>
            </g>
        </g>
    </g>
</svg>