<?xml version="1.0" encoding="UTF-8"?>
<svg width="24px" height="24px" viewBox="0 0 24 24" version="1.1" xmlns="http://www.w3.org/2000/svg" xmlns:xlink="http://www.w3.org/1999/xlink">
    <title>svg/change_pass_ic</title>
    <g id="Page-1" stroke="none" stroke-width="1" fill="none" fill-rule="evenodd">
        <g id="Profile" transform="translate(-55.000000, -661.000000)">
            <g id="change_pass_ic" transform="translate(55.000000, 661.000000)">
                <polygon id="Path" points="0 0 24 0 24 24 0 24"></polygon>
                <path d="M10.758,11.828 L18.607,3.979 L20.021,5.393 L18.607,6.808 L21.081,9.282 L19.667,10.697 L17.192,8.222 L15.778,9.636 L17.899,11.757 L16.485,13.172 L14.364,11.05 L12.172,13.242 C13.5814549,15.3837805 13.1432317,18.2444877 11.1572686,19.8661342 C9.17130558,21.4877807 6.28074191,21.3452085 4.464,19.536 C2.64298083,17.72181 2.49422512,14.8224522 4.12001183,12.8314188 C5.74579854,10.8403855 8.61635854,10.4064627 10.758,11.828 Z M10.121,18.121 C10.9141117,17.3708206 11.2371039,16.2490195 10.9643404,15.1919502 C10.6915769,14.134881 9.86611901,13.3094231 8.80904976,13.0366596 C7.7519805,12.7638961 6.63017943,13.0868883 5.88,13.88 C4.74308337,15.0571367 4.75934288,16.9282543 5.91654427,18.0854557 C7.07374567,19.2426571 8.94486334,19.2589166 10.122,18.122 L10.121,18.121 Z" id="Shape" fill="#202328" fill-rule="nonzero"></path>
            </g>
        </g>
    </g>
</svg>