<?xml version="1.0" encoding="UTF-8"?>
<svg width="137px" height="137px" viewBox="0 0 137 137" version="1.1" xmlns="http://www.w3.org/2000/svg" xmlns:xlink="http://www.w3.org/1999/xlink">
    <title>svg/change_password_illu</title>
    <g id="Page-1" stroke="none" stroke-width="1" fill="none" fill-rule="evenodd">
        <g id="Change-Password" transform="translate(-119.000000, -84.000000)">
            <g id="change_password_illu" transform="translate(119.000000, 84.000000)">
                <circle id="Oval" fill="#47CDFE" cx="68.5" cy="68.5" r="68.5"></circle>
                <g id="door-key" transform="translate(48.000000, 47.000000)" fill="#FFFFFF" fill-rule="nonzero">
                    <g id="Group" transform="translate(21.000000, 21.755689) scale(-1, 1) rotate(-180.000000) translate(-21.000000, -21.755689) translate(-0.000000, 0.255689)">
                        <path d="M26.4296407,42.0651198 C22.0082335,41.6040419 18.0067365,38.7881737 15.9977545,34.7208084 C14.9767964,32.6541916 14.6062874,30.8592814 14.6803892,28.3892216 C14.7462575,26.3637725 15.0508982,25.0381737 15.8742515,23.2761976 L16.252994,22.4693114 L8.21706587,14.4251497 C3.79565868,10.0037425 0.13997006,6.29865269 0.0905688623,6.1998503 C-0.0411676647,5.94461078 -0.0247005988,5.37649701 0.123502994,5.07185629 C0.19760479,4.92365269 1.09505988,3.96856287 2.1242515,2.94760479 C4.74251497,0.345808383 4.65194611,0.362275449 6.60329341,2.28892216 L7.82185629,3.49101796 L9.53443114,1.79491018 C11.9633234,-0.625748503 11.7327844,-0.642215569 14.4251497,2.04191617 C15.4543413,3.06287425 16.3517964,4.01796407 16.4258982,4.16616766 C16.5658683,4.47080838 16.5823353,4.91541916 16.4588323,5.23652695 C16.4176647,5.36826347 15.635479,6.20808383 14.738024,7.12200599 L13.0913174,8.77694611 L17.3151198,12.9842814 L21.5306886,17.1916168 L22.2717066,16.8293413 C23.1773952,16.3929641 24.2971557,16.0306886 25.4416168,15.7919162 C26.125,15.6519461 26.6107784,15.619012 27.7881737,15.6107784 C29.2866766,15.6107784 29.9041916,15.6766467 31.1639222,15.9812874 C35.5441617,17.0598802 39.0928144,20.377994 40.5254491,24.7335329 C41.6287425,28.1010479 41.3241018,31.8061377 39.6856287,34.9842814 C37.1661677,39.8585329 31.9543413,42.6332335 26.4296407,42.0651198 Z M28.5374251,35.4041916 C31.2956587,35.116018 33.5022455,33.247006 34.2679641,30.5711078 C34.5314371,29.6571856 34.5314371,28.0598802 34.2679641,27.1459581 C33.6010479,24.8076347 31.8308383,23.0703593 29.508982,22.4775449 C28.6115269,22.2387725 27.2118263,22.2387725 26.3061377,22.4775449 C23.3585329,23.2350299 21.3248503,25.8368263 21.3248503,28.8585329 C21.3248503,30.7110778 22.0411677,32.3495509 23.4161677,33.6586826 C24.4124251,34.6055389 25.7627246,35.239521 27.1212575,35.3959581 C27.4423653,35.4371257 27.7223054,35.4700599 27.747006,35.4782934 C27.7717066,35.4782934 28.1257485,35.4453593 28.5374251,35.4041916 Z" id="Shape"></path>
                    </g>
                </g>
            </g>
        </g>
    </g>
</svg>