<?xml version="1.0" encoding="UTF-8"?>
<svg width="43px" height="44px" viewBox="0 0 43 44" version="1.1" xmlns="http://www.w3.org/2000/svg" xmlns:xlink="http://www.w3.org/1999/xlink">
    <title>svg/Child_care_services_ic</title>
    <g id="Page-1" stroke="none" stroke-width="1" fill="none" fill-rule="evenodd">
        <g id="Service-All-Category" transform="translate(-167.000000, -748.000000)" fill="#47CDFE" fill-rule="nonzero">
            <g id="Group-2" transform="translate(146.000000, 728.000000)">
                <g id="Child_care_services_ic" transform="translate(21.000000, 20.000000)">
                    <path d="M15.582,5.8296 C16.422,5.6196 17.3712,5.754 18.0852,6.174 C18.2784,6.2832 18.9588,6.8964 19.5972,7.5432 C20.6402609,8.59393043 20.7379645,8.69930359 20.7470694,8.99740176 L20.748,9.0888 C20.748,9.6852 20.2944,10.0464 19.6728,9.9288 C19.53,9.9036 19.068,9.5088 18.354,8.8116 C16.9512,7.434 16.548,7.2576 15.7248,7.6524 C14.9688,8.022 14.6496,8.988 15.0276,9.7272 C15.12,9.8952 16.2708,11.1132 17.598,12.432 C18.9168,13.7508 20.0592,14.9268 20.1264,15.0528 C20.3028,15.3972 20.2692,15.75 20.034,16.0272 C19.782,16.3296 19.446,16.422 19.1016,16.296 C18.9672,16.2456 17.388,14.742 15.498,12.8604 C11.886,9.2652 11.886,9.2568 11.1216,9.3492 C10.1052,9.4584 9.4752,10.542 9.87,11.4828 C9.954,11.676 10.7436,12.5412 12.012,13.818 L12.012,13.818 L14.028,15.8508 L14.028,16.2288 C14.028,16.8252 13.5744,17.1864 12.9612,17.0688 C12.8016,17.0436 12.3144,16.6152 11.508,15.834 C10.836,15.1788 10.206,14.5908 10.0968,14.5404 C9.9876,14.4816 9.7188,14.4396 9.492,14.4312 C8.4672,14.4312 7.7196,15.3972 7.98,16.3884 C8.064,16.6992 8.274,16.9512 9.282,17.976 L9.282,17.976 L10.4916,19.1856 L10.9032,18.7992 C11.4072,18.3288 11.8944,18.0684 12.4404,17.9844 C12.9444,17.9004 13.6836,18.0096 14.0952,18.2196 C14.448,18.4044 15.0948,19.026 15.1704,19.2528 C15.2124,19.3872 15.3384,19.2948 15.96,18.6984 C16.7748,17.9172 17.1696,17.6736 17.8584,17.5476 C18.3624,17.4552 19.0764,17.556 19.5216,17.7828 C19.8828,17.9676 20.4624,18.5388 20.58,18.8244 C20.6388,18.9588 20.7312,19.0596 20.7816,19.0344 C20.832,19.0092 21.0756,18.9336 21.3276,18.8496 C22.428,18.5136 23.8224,19.11 24.36,20.16 C24.6792,20.79 24.7212,21.9072 24.4524,22.4196 C24.318,22.6632 24.3348,22.7472 24.5364,22.806 C24.8724,22.9152 25.3932,23.478 25.6368,23.982 C25.83,24.3936 25.872,24.5952 25.872,25.116 C25.872,26.1744 25.6872,26.4516 23.6628,28.4676 C22.7136,29.4168 21.9492,30.2148 21.9744,30.2568 C21.9996,30.2904 22.1004,30.324 22.2096,30.324 C22.5876,30.324 23.1924,30.6012 23.5872,30.954 C24.276,31.5756 24.5868,32.4492 24.4356,33.3732 C24.2844,34.3224 23.8812,34.8264 22.6716,35.6244 L22.6716,35.6244 L21.9828,36.0696 L22.2516,36.1872 C23.226,36.582 24.7884,36.792 26.8212,36.792 C28.0224,36.792 28.4508,36.8172 28.6272,36.9096 C28.731287,36.965113 29.5289853,37.7314344 30.523078,38.720818 L31.0066956,39.2042367 L31.0066956,39.2042367 L31.1724,39.3708 C33.7176,41.9244 33.7512,41.9748 33.4572,42.5712 C33.2808,42.9408 32.8776,43.1172 32.466,42.9996 C32.298,42.9492 31.4916,42.2016 30.03,40.7484 L30.03,40.7484 L27.846,38.5728 L26.082,38.5308 C23.7216,38.4636 22.5372,38.2452 20.9076,37.5816 L20.9076,37.5816 L20.1852,37.2876 L19.4544,37.758 C17.4804,39.0432 15.8088,39.4716 12.768,39.48 L12.768,39.48 L11.718,39.48 L10.038,41.1684 C9.114,42.0924 8.2572,42.9072 8.1312,42.9744 C7.7616,43.1676 7.2828,43.1256 7.0224,42.8736 C6.846,42.6888 6.804,42.5712 6.804,42.2268 L6.804,42.2268 L6.804,41.7984 L8.8452,39.7656 L10.878,37.7328 L12.978,37.6908 C15.288,37.6404 16.0524,37.5144 17.22,36.9852 C17.9088,36.6744 22.26,33.7764 22.5036,33.4656 C22.848,33.0288 22.6884,32.3988 22.1592,32.1216 C21.8064,31.9368 21.6132,32.004 20.4792,32.6844 C19.8912,33.0456 19.3788,33.2976 19.1772,33.3228 C18.2952,33.4404 17.6652,32.6256 17.9844,31.7772 C18.0264,31.6512 19.4292,30.1812 21.0924,28.518 L21.0924,28.518 L24.108,25.4856 L24.108,25.1244 C24.108,24.6204 23.7636,24.276 23.2596,24.276 L23.2596,24.276 L23.1972539,24.2766582 C22.8894215,24.2859041 22.7581455,24.4236364 20.7144,26.4516 C19.236,27.9132 18.4464,28.644 18.2784,28.6776 C17.9592,28.7532 17.514,28.5936 17.3544,28.35 C17.2788,28.2408 17.22,27.9888 17.22,27.7872 L17.22,27.7872 L17.2203837,27.7376636 L17.2203837,27.7376636 L17.2228295,27.6908505 C17.2482632,27.4060569 17.5021171,27.1514634 20.034,24.612 L20.034,24.612 L22.848,21.7812 L22.848,21.4032 C22.848,20.7648 22.2852,20.37 21.714,20.622 C21.595728,20.673744 20.5862765,21.6296774 19.3668449,22.8429471 L18.858,23.352 C17.43,24.7884 16.1532,26.0232 16.0272,26.0904 C15.3804,26.4348 14.7,26.0148 14.7,25.2756 C14.7,25.0236 14.9184,24.78 16.8336,22.848 C18.0096,21.672 19.0092,20.622 19.0596,20.5212 C19.278,20.0844 19.0764,19.5552 18.606,19.362 C18.0852,19.1352 17.9844,19.2108 15.6492,21.5292 C13.5324,23.6376 13.44,23.7132 13.1208,23.7132 C12.7092,23.7132 12.3816,23.4948 12.264,23.142 C12.1212,22.7052 12.2472,22.4448 12.9444,21.714 C13.3056,21.336 13.6332,20.9412 13.6836,20.8236 C13.8768,20.2944 13.4484,19.74 12.8268,19.74 C12.4908,19.74 12.4488,19.782 10.0548,22.1508 C8.7192,23.4864 7.4004,24.8472 7.1232,25.1916 C6.5688,25.8804 5.8716,27.2412 5.67,28.0308 C5.4936,28.728 5.3844,29.9712 5.376,31.206 L5.376,31.206 L5.376,32.2056 L3.3348,34.2468 L1.2936,36.288 L0.8652,36.288 C0.2688,36.288 1.42128468e-15,36.0192 1.34824675e-15,35.4228 L1.34824675e-15,35.4228 L1.29681158e-15,35.0028 L1.806,33.18 L3.612,31.3656 L3.612,30.828 C3.6204,28.2744 4.1748,26.2584 5.3256,24.6204 L5.3256,24.6204 L5.7792,23.9736 L5.4432,23.604 C5.2584,23.394 4.9896,22.9824 4.8468,22.68 C4.5948,22.1676 4.578,22.0752 4.578,21.252 C4.578,20.4372 4.5948,20.328 4.8384,19.824 C5.1492,19.1604 5.7204,18.5724 6.342,18.2616 C6.6024,18.1356 6.7956,18.018 6.7872,17.9844 C6.7704,17.9592 6.6612,17.7408 6.5352,17.5056 C5.6784,15.8676 6.3756,13.7508 8.0304,12.978 L8.0304,12.978 L8.526,12.7428 L8.274,12.2304 C8.0472,11.7684 8.022,11.6424 8.022,10.878 C8.022,10.1136 8.0472,9.9876 8.2824,9.492 C8.61,8.7948 9.2148,8.19 9.912,7.8624 C10.416,7.6188 10.5252,7.602 11.34,7.602 C12.1212,7.6104 12.2724,7.6356 12.6924,7.8372 C12.9528,7.9632 13.1796,8.064 13.2048,8.064 C13.23,8.064 13.2804,7.9632 13.314,7.8288 C13.398,7.4676 13.8348,6.846 14.2212,6.5268 C14.6748,6.1572 15.0612,5.9556 15.582,5.8296 Z M41.7312,31.9704 C42.0252,31.8024 42.2856,31.8024 42.588,31.962 C42.8988,32.1216 43.008,32.3232 43.008,32.76 C43.008,33.5328 42.0924,33.8688 41.5296,33.306 C41.3784,33.1548 41.328,33.012 41.328,32.76 C41.328,32.3316 41.4288,32.13 41.7312,31.9704 Z M28.9128,10.3824 C30.114,10.0548 31.3572,10.374 32.1972,11.214 C32.8104,11.8188 36.7416,17.766 37.254,18.858 C38.2788,21.0168 38.556,22.5204 38.556,25.8888 L38.556,25.8888 L38.556,27.846 L39.7411959,29.0323378 C40.3120286,29.613 40.6842,30.0576 40.7232,30.198 C40.9332,30.954 40.1856,31.5756 39.4968,31.2144 C39.396,31.16064 38.956512,30.75744 38.4406848,30.2456448 L38.1776242,29.9818126 L38.1776242,29.9818126 L38.0436,29.8452 L36.8088,28.5936 L36.7668,25.788 C36.7394222,23.7620444 36.7176214,23.1135967 36.6241464,22.5793733 L36.5968181,22.4355588 C36.5822074,22.3641185 36.5661333,22.2926667 36.5484,22.218 C36.3048,21.168 36.0696,20.4876 35.6832,19.6644 C35.4729951,19.2218634 34.5617475,17.7917147 33.5749581,16.3065187 L33.2440884,15.8106939 C32.0822584,14.0771258 30.9122049,12.4096683 30.7272,12.2892 C29.9208,11.7516 28.7868,12.0792 28.3836,12.978 C28.0728,13.6584 28.1736,13.9944 29.1312,15.5652 C30.1476,17.22 30.2232,17.4636 29.9208,18.06 C29.5848,18.7404 28.8036,18.9252 28.1316,18.4884 C27.93,18.354 26.6952,17.1696 25.3932,15.8592 L25.3932,15.8592 L23.016,13.4736 L23.016,13.0704 C23.016,12.5244 23.3436,12.18 23.8644,12.18 C24.2088,12.18 24.2592,12.2136 25.3764,13.3224 L25.3764,13.3224 L26.5272,14.4648 L26.4852,13.9272 C26.3508,12.2976 27.384,10.794 28.9128,10.3824 Z M29.358,22.1256 C29.6772,21.9828 29.6856,21.9828 30.03,22.1256 C30.3912,22.2768 30.6096,22.68 30.5424,23.0664 C30.5088,23.2344 30.324,23.5284 30.072,23.8056 C29.5176,24.402 29.316,24.8556 29.316,25.5192 C29.316,26.1156 29.442,26.4768 29.8536,27.0396 C30.2736,27.6024 30.2904,28.0224 29.9124,28.4004 C29.7192,28.5936 29.5932,28.644 29.3076,28.644 C28.9968,28.644 28.9044,28.602 28.5852,28.266 C27.9132,27.5604 27.552,26.628 27.5436,25.5696 C27.5436,24.8136 27.7032,24.15 28.0308,23.562 C28.3164,23.0496 29.0472,22.26 29.358,22.1256 Z M8.61,19.908 C7.644,19.3116 6.3,20.0508 6.3,21.1848 C6.3,21.6888 6.4512,22.0584 6.7956,22.386 L6.7956,22.386 L7.056,22.6296 L8.148,21.546 L9.24,20.4624 L9.0468,20.2608 C8.946,20.1516 8.7528,19.992 8.61,19.908 Z M39.0684,4.7796 C39.7404,4.536 40.7736,4.578 41.3616,4.872 C41.9328,5.166 42.4788,5.712 42.7392,6.2832 C42.9324,6.6948 42.966,6.8712 42.966,7.56 C42.966,8.2572 42.9324,8.4084 42.7392,8.778 C42.3696,9.492 41.7564,10.2564 40.8324,11.172 C39.2952,12.6924 38.724,13.0368 38.1948,12.7596 C37.8504,12.5748 36.7584,11.6172 36.0276,10.8612 C34.6164,9.3996 34.0284,8.2908 34.146,7.308 C34.2972,6.09 35.0196,5.1408 36.1116,4.746 C36.582,4.5696 37.6404,4.5948 38.1528,4.788 L38.1528,4.788 L38.5896,4.956 Z M21.5292,10.29 C21.8904,10.1304 22.2516,10.206 22.5372,10.5084 C23.184,11.2056 22.3608,12.2388 21.4704,11.8356 C21.2604,11.7348 21,11.3064 21,11.046 C21,10.7856 21.2688,10.3992 21.5292,10.29 Z M41.0676,6.9132 C40.6896,6.3084 40.0008,6.2076 39.3204,6.678 C38.7996,7.0392 38.3544,7.0728 37.9932,6.7704 C37.8672,6.6696 37.674,6.5352 37.5732,6.4764 C37.4724,6.426 37.2456,6.384 37.0692,6.384 C36.3468,6.384 35.7588,7.1316 35.9604,7.8036 C36.1032,8.2824 36.7668,9.114 37.7244,10.0296 L37.7244,10.0296 L38.5728,10.836 L39.1524,10.3152 C39.8328,9.7104 40.5384,8.9292 40.95,8.316 C41.3028,7.7952 41.3364,7.35 41.0676,6.9132 Z M4.8804,0.2436 C5.5944,-0.0168 6.5856,0.0336 7.2576,0.378 C7.8624,0.6804 8.4252,1.302 8.6688,1.932 C8.9124,2.5788 8.9124,3.5112 8.6604,4.0656 C8.2488,4.9896 6.9552,6.5016 5.628,7.602 C4.5612,8.484 4.3932,8.5092 3.6036,7.9128 C2.8728,7.3752 1.3692,5.8716 0.882,5.208 C0.2268,4.3092 0.0588,3.9144 0.0168,3.15 C-0.0252,2.3856 0.1512,1.7976 0.588,1.2012 C0.8568,0.84 1.5372,0.3444 1.974,0.1848 C2.4108,0.0336 3.4776,0.0672 3.9648,0.252 L3.9648,0.252 L4.4016,0.42 Z M3.6876,2.142 C3.0072,1.6716 2.3184,1.764 1.9404,2.3856 C1.68,2.7972 1.7136,3.2424 2.0244,3.738 C2.3688,4.284 3.1584,5.1576 3.864,5.7876 L3.864,5.7876 L4.4352,6.3 L5.2836,5.4936 C6.2412,4.578 6.9048,3.7464 7.0476,3.2676 C7.1316,2.982 7.1232,2.8896 6.9804,2.562 C6.7872,2.1168 6.3924,1.848 5.9388,1.848 C5.586,1.848 5.376,1.9404 5.0148,2.2344 C4.6536,2.5368 4.2084,2.5032 3.6876,2.142 Z" id="Combined-Shape"></path>
                </g>
            </g>
        </g>
    </g>
</svg>