<?xml version="1.0" encoding="UTF-8"?>
<svg width="39px" height="43px" viewBox="0 0 39 43" version="1.1" xmlns="http://www.w3.org/2000/svg" xmlns:xlink="http://www.w3.org/1999/xlink">
    <title>svg/computers_ic</title>
    <g id="Page-1" stroke="none" stroke-width="1" fill="none" fill-rule="evenodd">
        <g id="Product-All-Category" transform="translate(-169.000000, -781.000000)" fill="#47CDFE" fill-rule="nonzero" stroke="#47CDFE" stroke-width="0.2">
            <g id="Group-2" transform="translate(146.000000, 760.000000)">
                <g id="computers_ic" transform="translate(24.000000, 21.000000)">
                    <path d="M25.9281,11.268 L26.1225,11.4705 C26.3898,11.7297 26.3979,12.1428 26.1387,12.3858 C25.97832,12.53889 25.896672,12.56076 24.8958279,12.5636031 L23.1093,12.564 L23.0121,13.1553 C22.923,13.7547 22.8015,15.0021 22.7286,16.1847 L22.6881,16.8489 L28.9413,16.8732 L35.1945,16.8975 L35.6562,17.1243 C36.2232,17.3997 36.7173,17.9424 36.9117,18.5013 C36.9174375,18.5178375 36.92295,18.5347688 36.9282463,18.5527623 L36.9385532,18.5903639 C37.027097,18.9385226 37.0499878,19.7573473 37.055688,24.7332238 L37.0564995,25.6188099 C37.0565733,25.7217967 37.0566419,25.8263376 37.0567057,25.9324575 L37.0567639,31.9916802 C37.0566804,32.1135871 37.0565895,32.2338436 37.0564911,32.3524709 L37.055809,33.0448567 C37.0490952,38.8790671 37.0212492,40.423618 36.9522,40.6791 C36.7821,41.2623 36.3204,41.805 35.7291,42.1047 L35.2188,42.372 L1.8792,42.372 L1.3689,42.1047 C0.7776,41.805 0.3159,41.2623 0.1458,40.6791 C0.0807344262,40.4383574 0.0522549046,39.052994 0.0435678374,34.012367 L0.042601894,33.3767079 C0.0421672409,33.0495733 0.0418042092,32.708353 0.0415089448,32.3524709 L0.0415004557,25.6188099 C0.0415742187,25.5158232 0.041653125,25.4143906 0.0417375,25.3144875 L0.0423119792,24.7332238 C0.0424195312,24.6393393 0.0425332031,24.5469348 0.0426533203,24.4559854 L0.0434539714,23.9275525 C0.05155,19.2400188 0.0811125,18.8044875 0.1863,18.5013 C0.3807,17.9424 0.8748,17.3997 1.4418,17.1243 L1.9035,16.8975 L8.1567,16.8732 L14.4099,16.8489 L14.3694,16.1847 C14.2965,15.0021 14.175,13.7547 14.0859,13.1553 L13.9887,12.564 L12.1761387,12.563595 C11.152404,12.560679 11.10429,12.53808 10.9512,12.3777 C10.7082,12.1185 10.7163,11.7216 10.9755,11.4705 L11.1699,11.268 L25.9281,11.268 Z M2.835,22.851 L1.296,22.851 L1.3122,31.5423 C1.3365,39.6747 1.3446,40.2417 1.4823,40.4847 C1.6443,40.7925 1.9197,40.9869 2.2923,41.076 C2.39342344,41.1057422 6.40861875,41.1223792 12.0537673,41.1291191 L12.783103,41.129926 C12.906076,41.1300516 13.0297429,41.1301728 13.1540816,41.1302896 L13.9080006,41.130938 C14.0349388,41.1310374 14.1625049,41.1311324 14.2906769,41.1312232 L15.4599891,41.1319248 C15.5915982,41.1319901 15.7237473,41.1320511 15.8564142,41.132108 L18.711,41.1327 C19.676682,41.131728 20.5846564,41.1308143 21.4384328,41.1299205 L22.2742732,41.1290318 C33.3177379,41.1170855 34.6968417,41.1064147 35.0467569,41.0023166 L35.0709242,40.9944333 C35.0821966,40.9904048 35.0923497,40.9862449 35.1018223,40.9819489 L35.1199898,40.9731738 C35.1316699,40.9672008 35.14266,40.96098 35.154,40.9545 C35.3079,40.8573 35.5023,40.6629 35.5995,40.509 C35.6094692,40.4915538 35.618825,40.4747519 35.6276106,40.4565837 L35.640367,40.4280555 C35.6424236,40.4230462 35.644446,40.4178888 35.6464347,40.4125517 L35.6579694,40.3781224 C35.7619659,40.0319742 35.7648646,38.9255123 35.7858,31.5423 L35.802,22.851 L34.263,22.851 L34.2468,27.468 C34.2225,32.5872 34.2549,32.2875 33.6798,32.3847 C33.4368,32.4171 33.3477,32.3928 33.1776,32.2227 L32.967,32.0121 L32.967,22.851 L4.131,22.851 L4.1472,30.6108 L4.1715,38.3625 L32.9265,38.3625 L32.967,36.2727 L33.0075,34.1748 L33.21,34.0128 C33.4368,33.8265 33.8823,33.8589 34.0929,34.0695 C34.2873,34.2639 34.3278,38.2896 34.1415,38.7837 C33.9876,39.1887 33.6474,39.4965 33.2262,39.618 C33.04395,39.66174 29.108808,39.692358 21.2672466,39.6980442 L16.744602,39.6981172 C16.6037811,39.6980487 16.4644804,39.697981 16.326683,39.6979136 L14.7441947,39.6970905 C14.6181542,39.6970185 14.4935495,39.696945 14.3703639,39.6968697 L13.2995523,39.6961298 C13.1847293,39.6960395 13.0712747,39.6959459 12.9591717,39.6958488 L12.3026382,39.6952198 C12.1958743,39.6951067 12.0904282,39.6949891 11.9862832,39.6948667 L11.3768908,39.6940701 C4.64432967,39.6843028 3.7719214,39.6480552 3.45956878,39.4503417 L3.43332684,39.4324739 C3.40409226,39.4111313 3.37914063,39.3880356 3.35269031,39.3630395 L3.32951673,39.3411454 C3.32157996,39.33369 3.313386,39.326076 3.3048,39.3183 C3.2157,39.2373 3.0699,39.0267 2.9889,38.8485 C2.87522542,38.6085203 2.84525473,38.2996081 2.83756612,34.6548918 L2.83668457,34.1603079 C2.83655702,34.0746348 2.83643874,33.9873182 2.8363291,33.8983243 L2.83576985,33.343967 C2.83569224,33.2481303 2.835622,33.1505493 2.8355585,33.0511905 L2.835,22.851 Z M9.3474,26.3016 C9.477,26.3502 15.7626,33.6726 15.9327,33.9804 C16.0866,34.2477 16.0542,34.5069 15.8355,34.7175 C15.5358,35.0253 15.1632,34.9929 14.8068,34.6203 C14.5071,34.2963 8.9181,27.7596 8.6022,27.3546 C8.3673,27.0468 8.3754,26.6985 8.6265,26.4555 C8.8128,26.2611 9.0882,26.2044 9.3474,26.3016 Z M9.5499,30.3678 C10.0602,30.8457 11.3481,32.3604 11.3886,32.5386 C11.4696,32.8464 11.3562,33.1218 11.097,33.2595 C10.8135,33.4053 10.7082,33.4053 10.4814,33.2757 C10.3275,33.1866 9.2421,32.0121 8.6427,31.2912 C8.3673,30.951 8.3592,30.6027 8.6265,30.3435 C8.8938,30.0681 9.2421,30.0762 9.5499,30.3678 Z M34.7166,18.153 L2.3814,18.153 L2.025,18.3393 C1.4256,18.639 1.3446,18.8739 1.3122,20.3238 L1.2798,21.555 L35.8182,21.555 L35.7858,20.3238 C35.7534,18.8739 35.6724,18.639 35.073,18.3312 L34.7166,18.153 Z M20.2014,19.3761 C20.4849,19.6029 20.493,20.0241 20.2095,20.2995 C20.0428714,20.4730714 20.0071653,20.4978673 19.0873076,20.5014096 L18.7465496,20.5019781 C18.6838347,20.502 18.6180429,20.502 18.549,20.502 L18.3514504,20.5019781 L18.3514504,20.5019781 L18.0106924,20.5014096 C17.0908347,20.4978673 17.0551286,20.4730714 16.8885,20.2995 C16.605,20.0241 16.6131,19.6029 16.8966,19.3761 C17.0777842,19.2384 17.1941235,19.2109363 18.1681217,19.2066802 L18.9298783,19.2066802 C19.9038765,19.2109363 20.0202158,19.2384 20.2014,19.3761 Z M21.8052,12.564 L15.2928,12.564 L15.3414,12.7908 C15.4224,13.212 15.5439,14.3055 15.5925,15.075 C15.6168,15.4962 15.6573,16.0713 15.6816,16.3548 L15.7302,16.857 L21.3678,16.857 L21.4164,16.3548 C21.4407,16.0713 21.4812,15.4962 21.5055,15.075 C21.5541,14.3055 21.6756,13.212 21.7566,12.7908 L21.8052,12.564 Z M34.7247,0.9 L35.0001,1.0863 C35.3322,1.305 35.559,1.7262 35.559,2.1312 C35.559,2.4633 33.7041,8.3844 33.4773,8.7732 C33.3963,8.9109 33.2019,9.0891 33.048,9.1701 C33.0227149,9.18389189 32.9959801,9.19645163 32.9596506,9.2078889 L32.9259713,9.21741995 C32.6346995,9.29151017 31.7828519,9.31429565 27.7442152,9.32114626 L27.2225978,9.32192215 C27.1328319,9.32203848 27.0416354,9.32214854 26.9489845,9.32225265 L26.3754363,9.32280834 C26.2768728,9.32288989 26.1768074,9.32296613 26.0752164,9.32303737 L22.5460483,9.32399524 C22.4115699,9.32399852 22.2753284,9.324 22.1373,9.324 L11.5101,9.324 L11.3481,9.1134 C11.1213,8.8299 11.1375,8.5707 11.3724,8.2953 L11.5668,8.0685 L21.9915,8.028 L32.4162,7.9875 L33.3396,5.0796 C33.8499,3.4758 34.263,2.1555 34.263,2.1393 L34.2576771,2.13890826 L34.2154898,2.13809038 C33.8902429,2.13375219 31.9162599,2.12773294 28.9488077,2.12292779 L28.3622327,2.1220137 C27.8633755,2.12126589 27.3397735,2.12055452 26.794176,2.11989174 L26.1290771,2.11912051 C26.0165263,2.11899611 25.9031397,2.11887386 25.7889392,2.11875384 L25.0941465,2.11806132 C24.9767787,2.11795063 24.858641,2.11784237 24.7397556,2.11773664 L24.0176444,2.11713333 C23.8958556,2.1170381 23.7733628,2.11694558 23.6501882,2.11685588 L22.5238005,2.11612731 C22.3967327,2.11605539 22.269049,2.11598659 22.1407714,2.11592099 L14.9572286,2.11592099 C14.828951,2.11598659 14.7012673,2.11605539 14.5741995,2.11612731 L13.4478118,2.11685588 C13.3246372,2.11694558 13.2021444,2.1170381 13.0803556,2.11713333 L12.3582444,2.11773664 C12.239359,2.11784237 12.1212213,2.11795063 12.0038535,2.11806132 L11.3090608,2.11875384 C11.1948603,2.11887386 11.0814737,2.11899611 10.9689229,2.11912051 L10.303824,2.11989174 C9.75822653,2.12055452 9.23462449,2.12126589 8.73576735,2.1220137 L8.14919229,2.12292779 C5.18174014,2.12773294 3.20775714,2.13375219 2.8825102,2.13809038 L2.8403229,2.13890826 C2.83678163,2.13904082 2.835,2.13917143 2.835,2.1393 C2.835,2.1555 3.2481,3.4758 3.7584,5.0796 L4.6818,7.9875 L7.0308,8.028 C9.1935,8.0685 9.396,8.0847 9.5499,8.2224 C9.7767,8.433 9.7848,8.9352 9.558,9.162 C9.42532759,9.29467241 9.32275327,9.31899168 7.74537218,9.32317635 L7.11120285,9.32396546 C7.03308264,9.32399037 6.95231379,9.324 6.8688,9.324 C4.698,9.324 4.293,9.2997 4.0662,9.1863 C3.9204,9.1134 3.7341,8.9595 3.6531,8.8461 C3.4506,8.5545 1.539,2.4714 1.539,2.115 C1.539,1.7262 1.7658,1.305 2.0979,1.0863 L2.3733,0.9 L34.7247,0.9 Z M18.5895,5.5575 C19.1889,5.5575 19.2942,5.5818 19.4562,5.7357 C19.6992,5.9787 19.6911,6.4647 19.44,6.6672 C19.1727,6.8778 17.9982,6.8778 17.7309,6.6591 C17.4798,6.4566 17.4717,5.9868 17.7228,5.7357 C17.8848,5.5818 17.9901,5.5575 18.5895,5.5575 Z M8.7399,5.5251 C9.5175,5.5656 9.72,5.7033 9.72,6.1812 C9.72,6.6996 9.5337,6.813 8.6751,6.813 C7.9866,6.813 7.938,6.8049 7.7841,6.6024 C7.5492,6.3027 7.5735,6.0354 7.857,5.7438 C8.1,5.5089 8.1243,5.5008 8.7399,5.5251 Z M29.241,5.7438 C29.5245,6.0354 29.5488,6.3027 29.3139,6.6024 C29.16,6.8049 29.1114,6.813 28.4229,6.813 C27.8073,6.813 27.6777,6.7887 27.54,6.651 C27.3132,6.4242 27.3213,5.922 27.5481,5.7114 C27.6777,5.598 27.8721,5.5494 28.3581,5.5251 C28.9737,5.5008 28.998,5.5089 29.241,5.7438 Z M12.9924,5.8815 C13.0977,6.1569 13.041,6.4647 12.8547,6.6348 C12.7074273,6.77470909 12.5936256,6.80751074 12.1298991,6.81231841 L11.9799,6.813 C11.3643,6.813 11.2671,6.7968 11.1132,6.6267 C10.935,6.4404 10.8864,6.1407 10.9836,5.8815 C11.178,5.3955 12.798,5.3955 12.9924,5.8815 Z M16.2729,5.8896 C16.4025,6.1812 16.3863,6.3594 16.1919,6.6024 C16.0498385,6.78932308 15.9975,6.81060355 15.4487646,6.81277142 L15.3009,6.813 C14.6853,6.813 14.5557,6.7887 14.418,6.651 C14.2074,6.4404 14.2074,6.003 14.4099,5.7519 C14.5395,5.598 14.6529,5.5575 15.1389,5.5332 C15.8031,5.4927 16.1352,5.598 16.2729,5.8896 Z M22.0401,5.5332 C22.7043,5.5656 22.923,5.7357 22.923,6.2136 C22.923,6.6915 22.7124,6.813 21.8781,6.813 C21.1896,6.813 21.141,6.8049 20.9871,6.6024 C20.7927,6.3594 20.7765,6.1812 20.9061,5.8896 C21.0438,5.598 21.3759,5.4927 22.0401,5.5332 Z M25.7175,5.5494 C26.2197,5.679 26.3979,6.1974 26.0739,6.6024 C25.9318385,6.78932308 25.8795,6.81060355 25.3435064,6.81277142 L25.1991,6.813 C24.5592,6.813 24.4701,6.7968 24.3162,6.6267 C24.0975,6.3918 24.0894,6.003 24.2919,5.7519 C24.4134,5.598 24.5349,5.5575 24.9723,5.5332 C25.272,5.517 25.6041,5.5251 25.7175,5.5494 Z M8.6751,3.411 C9.5175,3.411 9.72,3.5325 9.72,4.0185 C9.72,4.5045 9.5175,4.626 8.6751,4.626 C7.9866,4.626 7.938,4.6179 7.7841,4.4154 C7.6869,4.2939 7.614,4.1157 7.614,4.0185 C7.614,3.9213 7.6869,3.7431 7.7841,3.6216 C7.938,3.4191 7.9866,3.411 8.6751,3.411 Z M11.988,3.411 C12.8385,3.411 13.041,3.5244 13.041,4.0185 C13.041,4.5045 12.8385,4.626 11.988,4.626 C11.3481,4.626 11.2428,4.6017 11.097,4.4478 C10.8864,4.221 10.8864,3.7836 11.097,3.573 C11.2347,3.4353 11.3643,3.411 11.988,3.411 Z M16.1919,3.6216 C16.2891,3.7431 16.362,3.9213 16.362,4.0185 C16.362,4.1157 16.2891,4.2939 16.1919,4.4154 C16.038,4.6179 15.9894,4.626 15.3009,4.626 C14.6853,4.626 14.5557,4.6017 14.418,4.464 C14.3208,4.3668 14.256,4.1967 14.256,4.0185 C14.256,3.5325 14.4585,3.411 15.3009,3.411 C15.9894,3.411 16.038,3.4191 16.1919,3.6216 Z M18.5895,3.411 C19.4481,3.411 19.6182,3.5082 19.6182,4.0185 C19.6182,4.5288 19.4481,4.626 18.5895,4.626 C17.9415,4.626 17.8281,4.6017 17.6985,4.464 C17.6094,4.3668 17.5446,4.1724 17.5446,4.0185 C17.5446,3.5244 17.739,3.411 18.5895,3.411 Z M21.8781,3.411 C22.7205,3.411 22.923,3.5325 22.923,4.0185 C22.923,4.5045 22.7205,4.626 21.8781,4.626 C21.1896,4.626 21.141,4.6179 20.9871,4.4154 C20.8899,4.2939 20.817,4.1157 20.817,4.0185 C20.817,3.9213 20.8899,3.7431 20.9871,3.6216 C21.141,3.4191 21.1896,3.411 21.8781,3.411 Z M26.082,3.5892 C26.1711,3.6864 26.244,3.8727 26.244,4.0185 C26.244,4.1643 26.1711,4.3506 26.082,4.4478 C25.9362,4.6017 25.8309,4.626 25.191,4.626 C24.5673,4.626 24.4377,4.6017 24.3,4.464 C24.2028,4.3668 24.138,4.1967 24.138,4.0185 C24.138,3.5325 24.3405,3.411 25.191,3.411 C25.8309,3.411 25.9362,3.4353 26.082,3.5892 Z M29.3139,3.6216 C29.4111,3.7431 29.484,3.9213 29.484,4.0185 C29.484,4.1157 29.4111,4.2939 29.3139,4.4154 C29.16,4.6179 29.1114,4.626 28.4229,4.626 C27.8073,4.626 27.6777,4.6017 27.54,4.464 C27.4428,4.3668 27.378,4.1967 27.378,4.0185 C27.378,3.5325 27.5805,3.411 28.4229,3.411 C29.1114,3.411 29.16,3.4191 29.3139,3.6216 Z" id="Combined-Shape" transform="translate(18.548672, 21.636000) scale(-1, 1) rotate(-180.000000) translate(-18.548672, -21.636000) "></path>
                </g>
            </g>
        </g>
    </g>
</svg>