<?xml version="1.0" encoding="UTF-8"?>
<svg width="41px" height="41px" viewBox="0 0 41 41" version="1.1" xmlns="http://www.w3.org/2000/svg" xmlns:xlink="http://www.w3.org/1999/xlink">
    <title>svg/Construction_services_ic</title>
    <g id="Page-1" stroke="none" stroke-width="1" fill="none" fill-rule="evenodd">
        <g id="Service-All-Category" transform="translate(-168.000000, -281.000000)" fill="#47CDFE" fill-rule="nonzero">
            <g id="Group-2" transform="translate(146.000000, 259.000000)">
                <g id="Construction_services_ic" transform="translate(22.000000, 22.000000)">
                    <path d="M38.528,4.26325641e-14 C39.296,4.26325641e-14 39.792,0.248 40.288,0.888 C40.8,1.56 40.96,1.944 40.96,2.568 C40.96,2.984 40.912,3.184 40.744,3.528 C40.536,3.936 40.344,4.088 37.456,6.256 C34.624,8.392 34.376,8.56 34.072,8.56 C33.728,8.56 33.568,8.432 33.192,7.88 C33.088,7.728 32.976,7.6 32.936,7.6 C32.792,7.6 31.376,8.736 31.296,8.92 C31.24,9.048 31.2,9.576 31.2,10.264 C31.192,11.864 31.048,12.144 29.672,13.168 C29.232,13.496 28.968,13.744 28.992,13.808 C29.016,13.864 29.688,14.784 30.496,15.856 C31.296,16.928 32.016,17.928 32.096,18.08 C32.176,18.232 32.24,18.504 32.24,18.688 L32.24,18.688 L32.24,19.024 L33.008,19.056 C33.736,19.088 33.792,19.104 33.968,19.312 L33.968,19.312 L34.16,19.528 L34.16,25.92 L39.208,25.92 L39.4,26.12 L39.6,26.312 L39.6,33.768 L39.4,33.96 L39.208,34.16 L34.16,34.16 L34.16,37.344 C34.16,37.4357333 34.1599822,37.5249156 34.1599437,37.6116204 L34.15944,38.102712 C34.15584,40.18416 34.1328,40.5672 34.032,40.704 L34.032,40.704 L33.912,40.88 L17.104,40.88 C16.9471515,40.88 16.7917551,40.8799992 16.6377974,40.8799974 L10.980515,40.8790595 C10.8641982,40.879009 10.7491314,40.878956 10.6353011,40.8789003 L9.32782989,40.8780971 C9.22367642,40.8780183 9.12070561,40.8779363 9.01890397,40.8778511 L8.42201657,40.8773002 C8.32483777,40.8772016 8.22880122,40.8770995 8.13389342,40.8769939 L7.57788408,40.8763159 C7.48743746,40.8761954 7.39809266,40.8760711 7.30983621,40.8759429 L6.79324993,40.8751254 C0.916264055,40.8650162 0.240161616,40.8345051 0.144,40.744 C0.0268888889,40.6406667 0.00469135802,40.460216 0.000784465021,38.1644779 L0.000754150791,35.6105731 C0.00464572681,33.2624164 0.0274594595,33.1042162 0.152,32.952 L0.152,32.952 L0.304,32.76 L5.44,32.712 L5.44,27.36 L3,27.36 C0.44,27.36 0.176,27.328 0.048,27 C0.02688,26.93664 0.00576,25.5908736 0.000995328,23.8840509 L3.89603249e-14,19.464 L0.416,19.08 L8.552,19.056 L16.688,19.04 L19.512,13.776 C21.064,10.888 22.432,8.424 22.544,8.304 C23,7.816 23.92,7.712 24.52,8.08 C24.68,8.176 25.424,9.096 26.4,10.4 C26.8114286,10.951619 27.1485533,11.3929433 27.4118164,11.7257419 L27.5954217,11.95502 C27.9066667,12.3381587 28.0784762,12.5169524 28.112,12.496 C28.16,12.456 28.496,12.208 28.856,11.936 C29.216,11.664 29.568,11.36 29.632,11.264 C29.736,11.12 29.76,10.84 29.76,9.912 L29.76,9.912 L29.7604299,9.54274293 C29.763654,8.72736332 29.7910588,8.66964706 30.024,8.232 C30.248,7.792 30.392,7.64 31.168,7.048 L31.168,7.048 L32.056,6.368 L31.712,5.896 C31.328,5.376 31.264,5.04 31.504,4.752 C31.696,4.512 37.416,0.24 37.712,0.112 C37.848,0.056 38.216,0.008 38.528,4.26325641e-14 Z M10.88,34.16 L1.44,34.16 L1.44,39.52 L10.88,39.52 L10.88,34.16 Z M21.84,34.16 L12.32,34.16 L12.32,39.52 L21.84,39.52 L21.84,34.16 Z M32.72,34.16 L23.28,34.16 L23.28,39.52 L28,39.52 L32.72,39.52 L32.72,34.16 Z M16.32,27.36 L6.88,27.36 L6.88,32.72 L16.32,32.72 L16.32,27.36 Z M27.28,27.36 L22.52,27.36 L17.76,27.36 L17.76,32.72 L27.28,32.72 L27.28,27.36 Z M38.16,27.36 L28.72,27.36 L28.72,32.72 L38.16,32.72 L38.16,27.36 Z M10.88,20.48 L1.44,20.48 L1.44,21.84 L2.39102041,21.8403003 C3.00281633,21.8431429 3.07657143,21.8691429 3.24,22.04 C3.504,22.296 3.504,22.712 3.248,23.016 C3.072,23.224 3.016,23.232 2.248,23.264 L2.248,23.264 L1.44,23.296 L1.44,25.92 L10.88,25.92 L10.88,20.48 Z M15.912,20.48 L12.32,20.48 L12.32,25.92 L21.84,25.92 L21.84,24.12 C21.84,23.128 21.824,22.32 21.8,22.32 C21.776,22.32 20.904,22.504 19.856,22.728 C17.096,23.312 17.216,23.296 16.768,23.192 C16.48,23.12 16.28,23 16.032,22.76 C15.488,22.216 15.384,21.608 15.72,20.896 L15.72,20.896 L15.912,20.48 Z M32.72,20.48 L31.504,20.488 L30.28,20.496 L26.8,21.248 C24.888,21.656 23.312,22 23.304,22 C23.2908235,22 23.2830727,22.5968166 23.2807474,23.4106574 L23.28,25.92 L32.72,25.92 L32.72,20.48 Z M7.37867938,21.8407456 C8.46855198,21.8448091 8.54295652,21.869913 8.696,22.016 C8.96,22.264 8.952,22.784 8.672,23.048 C8.472,23.232 8.424,23.24 7.016,23.264 C5.304,23.296 5.016,23.24 4.824,22.848 C4.68,22.536 4.728,22.232 4.96,22 C5.09127273,21.8687273 5.19867769,21.8448595 6.24587603,21.8407911 Z M23.6608381,9.28644946 C23.5806409,9.30383905 23.2953846,9.84726154 19.928,16.112 C17.84,20 16.984,21.656 17.04,21.728 C17.104,21.8 17.232,21.792 17.624,21.712 C17.896,21.656 20.68,21.064 23.8,20.4 C26.928,19.736 29.76,19.136 30.104,19.064 C30.456,18.992 30.752,18.888 30.776,18.832 C30.832,18.688 27.76,14.632 27.648,14.696 C27.6,14.728 26.944,15.216 26.192,15.776 C24.976,16.688 24.792,16.8 24.504,16.8 C23.984,16.8 23.648,16.296 23.864,15.824 C23.92,15.696 24.52,15.184 25.36,14.56 C26.128,13.984 26.768,13.488 26.784,13.448 C26.792,13.416 26.12,12.472 25.28,11.352 C24.44,10.232 23.72,9.312 23.68,9.296 C23.6787692,9.29550769 23.6775972,9.2949529 23.6764683,9.29436367 L23.6670564,9.2888884 C23.6650382,9.28780171 23.6630067,9.28691392 23.6608381,9.28644946 Z M38.888,1.536 C38.56,1.264 38.368,1.376 35.72,3.368 C35.6613333,3.412 35.6031111,3.45570833 35.5453987,3.49907523 L35.2057655,3.75478125 C34.0421244,4.632625 33.1609948,5.316 33.1679586,5.344 C33.192,5.504 34.216,6.792 34.296,6.76 C34.448,6.712 39.224,3.12 39.384,2.944 C39.592,2.696 39.552,2.344 39.264,1.968 C39.128,1.792 38.96,1.592 38.888,1.536 Z" id="Combined-Shape"></path>
                </g>
            </g>
        </g>
    </g>
</svg>