<?xml version="1.0" encoding="UTF-8"?>
<svg width="36px" height="37px" viewBox="0 0 36 37" version="1.1" xmlns="http://www.w3.org/2000/svg" xmlns:xlink="http://www.w3.org/1999/xlink">
    <title>svg/Consulting_services_ic</title>
    <g id="Page-1" stroke="none" stroke-width="1" fill="none" fill-rule="evenodd">
        <g id="Service-All-Category" transform="translate(-295.000000, -132.000000)" fill="#47CDFE" fill-rule="nonzero">
            <g id="Group-2" transform="translate(271.000000, 108.000000)">
                <g id="Consulting_services_ic" transform="translate(24.000000, 24.000000)">
                    <g id="Group" transform="translate(18.000000, 18.840000) scale(-1, 1) rotate(-180.000000) translate(-18.000000, -18.840000) translate(0.000000, 0.840000)">
                        <path d="M33.824,22.414 C34.594,22.463 35.294,22.932 35.644,23.646 L35.805,23.975 L35.805,34.265 L35.644,34.594 C35.434,35.014 35.014,35.434 34.594,35.644 L34.265,35.805 L26.215,35.819 C25.2005738,35.8208361 24.3135284,35.8223109 23.5371739,35.8232036 L22.7095926,35.8239505 C22.6226322,35.8240036 22.5373036,35.8240463 22.4535741,35.8240782 L21.7423056,35.8240612 C21.6678776,35.8240243 21.5949511,35.8239752 21.5234932,35.8239136 L20.9191494,35.8230085 C18.4016055,35.817376 18.0776196,35.7895883 17.8609555,35.7120131 L17.829,35.7 L17.829,35.7 C17.297,35.497 16.905,35.126 16.646,34.594 L16.415,34.132 L16.394,32.326 C16.373,30.765 16.387,30.499 16.485,30.282 C16.709,29.806 17.367,29.701 17.724,30.079 C17.885,30.247 17.885,30.289 17.92,32.011 C17.955,33.929 17.983,34.041 18.382,34.216 C18.4943043,34.2721522 20.1469957,34.2949386 24.4800718,34.2992287 L25.8258847,34.29997 C25.9445903,34.2999901 26.0649565,34.3 26.187,34.3 L33.824,34.3 L34.3,33.824 L34.3,24.416 L34.062,24.178 C33.929,24.045 33.754,23.94 33.677,23.94 C33.054,23.94 32.648,23.303 32.928,22.764 C33.082,22.47 33.313,22.379 33.824,22.414 Z M23.94,28.35 L23.94,29.89 L22.4,29.89 L22.4,28.35 L23.94,28.35 Z M26.88,28.35 L26.88,29.89 L25.34,29.89 L25.34,28.35 L26.88,28.35 Z M29.89,28.35 L29.89,29.89 L28.35,29.89 L28.35,28.35 L29.89,28.35 Z M5.502,11.97 C5.614,12.012 6.349,12.691 7.14,13.482 L8.582,14.91 L11.494,14.91 L11.732,15.148 C11.928,15.344 11.97,15.442 11.97,15.68 C11.97,15.918 11.928,16.016 11.732,16.212 L11.494,16.45 L9.765,16.45 C8.645,16.45 7.987,16.422 7.889,16.373 C7.805,16.331 7.35,15.911 6.881,15.449 L6.02,14.595 L6.02,15.176 C6.02,15.827 5.908,16.177 5.656,16.324 C5.537,16.387 5.012,16.422 3.724,16.45 L1.946,16.485 L1.743,16.716 L1.54,16.94 L1.54060904,22.5143821 C1.54445786,25.2024329 1.56709677,26.3041935 1.624,26.418 C1.666,26.516 1.785,26.656 1.883,26.719 C2.051,26.838 2.408,26.845 6.755,26.866 C10.269,26.873 11.487,26.901 11.606,26.964 C12.117,27.23 12.061,28.091 11.515,28.322 C11.3541556,28.3870222 9.11868395,28.4219289 6.81666069,28.4242661 L6.18869481,28.4240942 C3.9956,28.4206533 1.9082,28.3873333 1.673,28.322 C0.945,28.126 0.392,27.636 0.133,26.95 C0.0266,26.6662667 0.00505728395,26.4224662 0.000929722908,23.508268 L2.7533531e-14,16.625 L0.203,16.205 C0.448,15.68 0.903,15.253 1.428,15.057 C1.785,14.924 1.967,14.91 3.15,14.91 L4.48,14.91 L4.48081019,13.1325185 C4.48486111,12.4059444 4.50916667,12.3631667 4.655,12.194 C4.858,11.956 5.208,11.865 5.502,11.97 Z M6.706,-2.13162821e-14 L6.734,2.541 C6.762,4.711 6.79,5.131 6.895,5.46 C7.189,6.391 7.721,7.147 8.456,7.707 C8.62586667,7.8344 9.46215667,8.29435444 10.3593931,8.76903067 L10.775625,8.988 C11.816,9.53225 12.8135,10.031 12.838,9.996 C12.852,9.982 12.978,9.254 13.118,8.365 C13.265,7.483 13.412,6.636 13.447,6.489 C13.524,6.181 13.839,5.95 14.175,5.95 C14.294,5.95 15.183,6.265 16.149,6.657 L17.92,7.364 L19.691,6.657 C20.671,6.265 21.56,5.95 21.672,5.95 C22.001,5.95 22.316,6.188 22.393,6.489 C22.428,6.636 22.575,7.483 22.722,8.365 C22.862,9.254 22.988,9.982 23.002,9.996 C23.0265,10.031 24.024,9.53225 25.064375,8.988 L25.4806069,8.76903067 C26.3778433,8.29435444 27.2141333,7.8344 27.384,7.707 C28.119,7.147 28.651,6.391 28.945,5.46 C29.05,5.131 29.078,4.711 29.106,2.541 L29.134,-2.13162821e-14 L30.674,-2.13162821e-14 L30.639,2.681 C30.604,5.446 30.59,5.579 30.282,6.44 C30.1,6.93 29.722,7.553 29.295,8.071 C28.637,8.869 28.014,9.261 25.277,10.633 L22.785,11.886 L22.183,12.509 C21.595,13.118 21.574,13.153 21.336,13.867 L21.091,14.602 L21.539,15.078 C22.386,15.967 23.037,17.115 23.443,18.445 C23.807,19.642 23.898,20.314 23.898,21.91 C23.898,23.17 23.877,23.415 23.744,23.905 C23.149,26.047 21.511,27.685 19.425,28.21 C18.774,28.378 17.647,28.441 17.045,28.35 C14.644,27.972 12.754,26.278 12.096,23.905 C11.963,23.415 11.942,23.17 11.942,21.91 C11.942,20.314 12.033,19.642 12.397,18.445 C13.188,15.869 14.847,14.049 16.87,13.538 C17.486,13.384 18.767,13.433 19.327,13.636 L19.719,13.776 L19.838,13.391 C19.908,13.181 19.936,12.978 19.901,12.943 C19.649,12.691 17.941,11.48 17.878,11.508 C17.829,11.529 17.22,11.97 16.527,12.488 C15.3536667,13.3613333 15.2533492,13.4346667 14.9562063,13.4396704 L14.567,13.44 L13.055,11.886 L10.563,10.64 C7.826,9.261 7.203,8.869 6.545,8.071 C6.118,7.553 5.74,6.93 5.558,6.44 C5.25,5.579 5.236,5.446 5.201,2.681 L5.166,-2.13162821e-14 L6.706,-2.13162821e-14 Z M16.863,15.176 C15.022,15.904 13.699,18.193 13.524,20.937 L13.475,21.686 L13.825,21.763 C14.273,21.868 14.987,22.197 15.33,22.47 C15.477,22.589 15.631,22.68 15.68,22.68 C15.729,22.68 15.883,22.582 16.03,22.47 C16.408,22.169 17.115,21.854 17.682,21.735 C17.99,21.672 18.578,21.63 19.313,21.63 L20.454,21.63 L20.692,21.868 C20.888,22.064 20.93,22.162 20.93,22.4 C20.93,22.638 20.888,22.736 20.692,22.932 L20.454,23.17 L19.474,23.17 C18.942,23.17 18.34,23.198 18.137,23.24 C17.584,23.345 17.017,23.653 16.576,24.094 C16.114,24.556 15.974,24.64 15.68,24.64 C15.386,24.64 15.246,24.556 14.784,24.094 C14.448,23.758 13.671,23.268 13.594,23.345 C13.58,23.352 13.643,23.562 13.72,23.807 C14.028,24.71 14.658,25.536 15.463,26.068 C15.974,26.411 16.135,26.488 16.765,26.677 C17.374,26.866 18.69,26.831 19.32,26.607 C21.014,26.012 22.148,24.556 22.337,22.729 C22.421,21.924 22.316,20.426 22.127,19.551 C21.644,17.395 20.475,15.771 18.977,15.176 C18.424,14.952 17.416,14.952 16.863,15.176 Z M10.5,23.87 L10.5,25.41 L2.94,25.41 L2.94,23.87 L10.5,23.87 Z M31.29,19.733 C31.332,19.817 31.36,20.566 31.36,21.658 L31.36,23.436 L31.185,23.646 C30.961,23.912 30.604,23.989 30.282,23.835 C29.939,23.674 29.82,23.373 29.82,22.673 L29.82,22.092 L28.959,22.939 C28.49,23.408 28.014,23.828 27.909,23.863 C27.594,23.989 26.047,23.961 25.781,23.828 C25.305,23.59 25.228,22.918 25.634,22.575 C25.80725,22.4274167 25.8805069,22.4033542 26.3983409,22.4003686 L27.265,22.4 L28.665,20.993 C29.435,20.223 30.149,19.544 30.254,19.488 C30.604,19.306 31.122,19.432 31.29,19.733 Z M10.5,20.86 L10.5,22.4 L2.94,22.4 L2.94,20.86 L10.5,20.86 Z M4.48,17.92 L4.48,19.46 L2.94,19.46 L2.94,17.92 L4.48,17.92 Z M7.49,17.92 L7.49,19.46 L5.95,19.46 L5.95,17.92 L7.49,17.92 Z M21.007,7.84 C20.979,7.84 20.335,8.092 19.565,8.4 C18.739,8.729 18.067,8.96 17.92,8.96 C17.773,8.96 17.101,8.729 16.254,8.393 C15.47,8.078 14.826,7.833 14.812,7.847 C14.798,7.861 14.672,8.554 14.532,9.38 L14.287,10.885 L14.644,11.249 C14.847,11.452 15.022,11.62 15.029,11.62 C15.043,11.62 15.61,11.2 16.296,10.682 C16.989,10.171 17.633,9.73 17.731,9.702 C17.836,9.681 18.004,9.681 18.109,9.702 C18.207,9.73 18.851,10.171 19.544,10.682 C20.23,11.2 20.818,11.62 20.853,11.62 C20.888,11.62 21.063,11.459 21.245,11.256 C21.476,11.004 21.56,10.85 21.532,10.752 C21.518,10.668 21.399,9.982 21.273,9.226 C21.147,8.463 21.028,7.84 21.007,7.84 Z M11.2,3.99680289e-15 L11.2,3.78 L9.66,3.78 L9.66,3.99680289e-15 L11.2,3.99680289e-15 Z M26.18,3.99680289e-15 L26.18,3.78 L24.64,3.78 L24.64,3.99680289e-15 L26.18,3.99680289e-15 Z M18.69,2.24 L18.69,3.78 L17.15,3.78 L17.15,2.24 L18.69,2.24 Z" id="Combined-Shape"></path>
                    </g>
                </g>
            </g>
        </g>
    </g>
</svg>