<?xml version="1.0" encoding="UTF-8"?>
<svg width="127px" height="127px" viewBox="0 0 127 127" version="1.1" xmlns="http://www.w3.org/2000/svg" xmlns:xlink="http://www.w3.org/1999/xlink">
    <title>svg/default_pic_ic</title>
    <defs>
        <circle id="path-1" cx="63.5" cy="63.5" r="63.5"></circle>
    </defs>
    <g id="Page-1" stroke="none" stroke-width="1" fill="none" fill-rule="evenodd">
        <g id="Edit-Profile" transform="translate(-123.000000, -118.000000)">
            <g id="default_pic_ic" transform="translate(123.000000, 118.000000)">
                <mask id="mask-2" fill="white">
                    <use xlink:href="#path-1"></use>
                </mask>
                <use id="Mask" fill="#F3F7F8" xlink:href="#path-1"></use>
                <g id="user(1)" mask="url(#mask-2)">
                    <g transform="translate(40.000000, 37.000000)" id="Group">
                        <g transform="translate(23.500000, 26.939063) scale(-1, 1) rotate(-180.000000) translate(-23.500000, -26.939063) translate(0.000000, 0.939063)">
                            <path d="M21.9375,51.878125 C18.7078125,51.4617188 16.1179688,50.2429688 13.8835938,48.0898438 C8.9375,43.3265625 8.409375,35.5976562 12.6546875,30.14375 C16.7273438,24.903125 24.1820313,23.4203125 29.9101563,26.7210938 C34.9679688,29.6359375 37.578125,35.303125 36.5015625,41.0007813 C35.4960938,46.271875 31.2507813,50.5578125 25.9695313,51.6445312 C24.9640625,51.8476562 22.7398438,51.9796875 21.9375,51.878125 Z" id="Path" fill="#B0BDC0" fill-rule="nonzero"></path>
                            <path d="M12.390625,23.80625 C7.89140625,23.0140625 3.76796875,20.2210938 1.1984375,16.2296875 C0.66015625,15.3867188 0,13.9546875 0,13.6195313 C0,12.9492188 1.9296875,10.2273438 3.7578125,8.328125 C8.21640625,3.68671875 13.7210937,0.92421875 20.0585938,0.13203125 C21.3789062,-0.040625 25.0554688,-0.03046875 26.3554688,0.13203125 C31.4945313,0.7921875 36.0648438,2.71171875 40.015625,5.8703125 C41.2445313,6.8453125 43.6515625,9.33359375 44.60625,10.603125 C45.6726563,12.0351563 46.515625,13.3960938 46.515625,13.7109375 C46.515625,14.015625 45.946875,15.2648438 45.4492188,16.0367188 C43.7125,18.7484375 41.2953125,20.9625 38.5835937,22.3132813 C36.603125,23.2984375 34.1351562,23.9789063 32.8859375,23.8875 C32.459375,23.8570313 32.175,23.7554688 31.76875,23.5015625 C30.30625,22.5773438 29.8390625,22.3234375 29.0265625,21.9679688 C27.0054687,21.084375 24.94375,20.6984375 22.75,20.7898438 C19.946875,20.9015625 17.590625,21.653125 15.2445312,23.196875 C14.7367187,23.5320313 14.1984375,23.8265625 14.0460937,23.8671875 C13.8835937,23.8976563 13.690625,23.9382813 13.609375,23.9585938 C13.528125,23.9789063 12.9796875,23.9078125 12.390625,23.80625 Z" id="Path" fill="#B0BDC0" fill-rule="nonzero"></path>
                        </g>
                    </g>
                </g>
            </g>
        </g>
    </g>
</svg>