<?xml version="1.0" encoding="UTF-8"?>
<svg width="43px" height="37px" viewBox="0 0 43 37" version="1.1" xmlns="http://www.w3.org/2000/svg" xmlns:xlink="http://www.w3.org/1999/xlink">
    <title>svg/Delivery_services_ic</title>
    <g id="Page-1" stroke="none" stroke-width="1" fill="none" fill-rule="evenodd">
        <g id="Service-All-Category" transform="translate(-292.000000, -601.000000)" fill="#47CDFE" fill-rule="nonzero">
            <g id="Group-2" transform="translate(271.000000, 577.000000)">
                <g id="Delivery_services_ic" transform="translate(21.000000, 24.000000)">
                    <g id="Group" transform="translate(21.500000, 18.681320) scale(-1, 1) rotate(-180.000000) translate(-21.500000, -18.681320) translate(-0.000000, 0.681320)">
                        <path d="M36.70524,0.00828 L42.07896,0.03312 L42.23628,0.23184 C42.3623908,0.385975385 42.3877207,0.551967337 42.3925297,2.92692912 L42.3931958,3.38357072 C42.393275,3.46389757 42.39334,3.54637513 42.3933927,3.63106454 L42.3936,8.49528 L42.20316,8.66916 C41.9382,8.91756 41.4828,8.90928 41.25096,8.66088 L41.2229885,8.6308727 C41.0996377,8.49223007 41.0749675,8.33538918 41.0700335,6.57787144 L41.0692495,6.17618364 C41.0691596,6.10496008 41.0690877,6.03155066 41.0690302,5.9558833 L41.0688,1.39932 L31.9608,1.39932 L31.9608,4.21452 L34.7421715,4.21473482 C36.4627683,4.21672473 36.6561969,4.23553846 37.06128,4.3884 C37.91412,4.71132 38.49372,5.40684 38.65932,6.31764 C38.709,6.59088 38.7504,7.2864 38.7504,7.87428 L38.7504,8.93412 L38.99052,8.93412 C39.31344,8.93412 39.6612,9.07488 39.79368,9.24876 C39.8093834,9.26731862 39.8228717,9.30581422 39.8344842,9.37065481 L39.8475406,9.46151923 C39.8922721,9.84406345 39.9033186,10.7862703 39.9096,12.834 C39.9096,16.0241657 39.8836177,16.6875526 39.6302903,17.1829824 L39.5783662,17.2774082 L39.5783662,17.2774082 L39.52044,17.37144 L39.52044,17.37144 C39.35484,17.62812 39.48732,17.9676 39.73572,17.90136 C40.04208,17.81856 40.56372,17.29692 40.79556,16.81668 C41.0274,16.34472 41.0274,16.33644 41.0688,14.29128 C41.1102,12.24612 41.1102,12.22956 41.30892,12.07224 C41.55732,11.86524 41.90508,11.87352 42.17832,12.0888 L42.3936,12.2544 L42.3936,14.39064 C42.3936,16.31988 42.37704,16.57656 42.228,17.0154 C41.82228,18.18288 41.00256,18.9612 39.72744,19.39176 C39.60324,19.43316 39.5784,19.54908 39.5784,20.09556 C39.5784,20.66688 39.55356,20.76624 39.38796,20.92356 C39.28032,21.02292 39.09816,21.10572 38.97396,21.10572 C38.7847938,21.10572 38.7556914,21.1116483 38.7512141,21.459593 L38.7504,21.68532 C38.7504,22.24836 38.75868,22.26492 39.00708,22.38912 C39.4956,22.6458 40.26564,23.5152 40.58856,24.16932 C40.99428,25.01388 41.0688,25.44444 41.0688,27.02592 L41.0688,28.39212 L41.26752,28.39212 C41.38344,28.39212 41.58216,28.4832 41.70636,28.59084 C41.9382,28.78956 41.9382,28.80612 41.96304,29.8908 C41.98788,30.73536 41.96304,31.05828 41.86368,31.32324 C41.78916,31.51368 41.69808,31.92768 41.65668,32.24232 C41.51592,33.30216 41.18472,33.98112 40.45608,34.66836 C39.89304,35.20656 39.14784,35.5626 38.3778,35.67852 C37.83132,35.75304 35.86068,35.7696 35.3142,35.70336 C34.46964,35.604 33.75756,35.28108 33.14484,34.7346 C32.38308,34.04736 31.878,33.02064 31.878,32.14296 L31.878,31.70412 L30.1806,31.70412 C29.09592,31.70412 28.41696,31.671 28.28448,31.61304 C27.59724,31.2984 27.68832,29.75832 28.4418,29.01312 C28.9386,28.50804 29.38572,28.39212 30.77676,28.39212 L31.878,28.39212 L31.878,27.21636 C31.88628,25.76736 32.02704,24.93936 32.38308,24.21072 C32.706,23.56488 33.37668,22.79484 33.9066,22.45536 L34.2792,22.22352 L34.2792,21.66876 C34.2792,21.12228 34.27092,21.10572 34.06392,21.10572 C33.56712,21.10572 33.3684,20.76624 33.3684,19.89684 C33.3684,19.38348 33.3684,19.38348 33.10344,19.32552 C32.36652,19.1682 31.32324,18.2574 30.94236,17.43768 C30.6060646,16.7192308 30.5590303,16.3958698 30.5537842,13.094151 L30.5532543,12.5157088 C30.5532163,12.4145127 30.5532,12.3108738 30.5532,12.20472 L30.5532,8.27172 L29.33604,8.27172 C28.65708,8.27172 27.96984,8.23032 27.80424,8.18064 C27.4896,8.09784 27.0342,7.69212 26.94312,7.42716 C26.90172,7.29468 26.77752,7.27812 25.86672,7.27812 C24.6744,7.27812 24.39288,7.19532 24.04512,6.73164 C23.82984,6.45012 23.805,6.36732 23.805,5.7546 C23.805,5.02596 23.92092,4.72788 24.32664,4.42152 L24.3669989,4.39372863 C24.5721291,4.26310031 24.8777775,4.2543675 27.55584,4.23108 L30.5532,4.20624 L30.5532,2.39292 C30.5532,0.34776 30.58632,0.19872 31.04172,0.06624 C31.1763368,0.0325858065 32.0974846,0.0103306139 33.7819978,0.00462235843 L35.7201082,0.00462041288 C36.0330867,0.00546255983 36.3614865,0.00667741935 36.70524,0.00828 Z M40.34844,31.70412 L33.18624,31.70412 L33.2442,32.10156 C33.38496,33.04548 33.95628,33.79068 34.82568,34.155 C35.17965,34.29783 35.31006,34.338195 35.9923838,34.3424644 L36.2965868,34.3424043 C36.4652442,34.3415691 36.660114,34.339644 36.8874,34.33716 C38.35296,34.31232 38.48544,34.29576 38.8332,34.12188 C39.62808,33.70788 40.17456,32.94612 40.29876,32.07672 L40.34844,31.70412 Z M11.35188,0.06624 C11.7904133,0.193813333 11.8373674,0.336742716 11.8402439,2.17338747 L11.8404,4.20624 L14.84604,4.23108 C17.51634,4.2543675 17.8215033,4.26310031 18.0266031,4.39372863 L18.06696,4.42152 L18.06696,4.42152 C18.47268,4.72788 18.5886,5.02596 18.5886,5.7546 C18.5886,6.36732 18.56376,6.45012 18.34848,6.73164 C18.00072,7.19532 17.7192,7.27812 16.52688,7.27812 C15.61608,7.27812 15.49188,7.29468 15.45048,7.42716 C15.3594,7.69212 14.904,8.09784 14.58936,8.18064 C14.42376,8.23032 13.73652,8.27172 13.06584,8.27172 L11.84868,8.27172 L11.82384,10.0602 C11.799,11.82384 11.799,11.84868 11.60028,12.006 C11.37672,12.18816 10.95444,12.20472 10.74744,12.0474 C10.4945236,11.8577127 10.4377612,11.539771 10.4331235,10.0925727 L10.4328,8.27172 L7.7832,8.27172 L7.7832,8.90928 L8.21376,8.95896 C8.487,8.99208 8.71056,9.07488 8.80992,9.18252 C8.81883692,9.19101231 8.82729657,9.19928686 8.83532239,9.20784952 L8.8581218,9.23490766 C8.95507355,9.36511132 8.97723396,9.64001335 8.98229919,11.3042029 L8.98316685,11.6973976 C8.98327237,11.7669101 8.98336031,11.8384549 8.98343359,11.9120951 L8.98332721,14.0257974 C8.97996793,16.6181653 8.95670182,17.0643273 8.85132,17.3052 C8.72712,17.57844 8.72712,17.61156 8.86788,17.78544 C9.04176,18.00072 9.17424,17.95932 9.70416,17.47908 C10.09332,17.13132 10.32516,16.70076 10.39968,16.20396 C10.5156,15.39252 10.70604,15.14412 11.21112,15.14412 C11.44296,15.14412 11.74104,15.41736 11.80728,15.69888 C11.89008,16.00524 11.69964,16.91604 11.45952,17.4294 C11.07036,18.2574 10.02708,19.1682 9.29844,19.32552 C9.0252,19.38348 9.0252,19.38348 9.0252,19.89684 C9.0252,20.76624 8.82648,21.10572 8.32968,21.10572 C8.13860308,21.10572 8.1168497,21.1198303 8.11463366,21.5518224 L8.1144,22.22352 L8.487,22.45536 C9.01692,22.79484 9.6876,23.56488 10.01052,24.21072 C10.4328,25.06356 10.53216,25.80876 10.49904,27.87048 L10.4742,29.62584 L10.73916,29.89908 C11.12832,30.3048 11.2608,30.68568 11.2608,31.44744 C11.2608,32.67288 10.74744,33.52572 9.70416,34.03908 L9.1494,34.31232 L6.8724,34.32888 L6.65229997,34.3300024 L6.65229997,34.3300024 L6.21881425,34.3303058 C5.22321882,34.3281351 4.36404706,34.3064753 4.17312,34.2792 C2.51712,34.01424 1.242,32.92128 0.73692,31.33152 C0.6204825,30.943395 0.584095781,30.6207661 0.580002275,29.5722221 L0.5796,29.3526 C0.5796,28.00296 0.59616,27.82908 0.75348,27.50616 C0.85284,27.30744 1.01844,27.08388 1.12608,27.00936 C1.30824,26.89344 1.3248,26.8272 1.3248,26.27244 C1.3248,25.45272 1.449,24.90624 1.80504,24.16932 C2.12796,23.5152 2.898,22.6458 3.38652,22.38912 C3.61422,22.27527 3.6401525,22.2518675 3.64289333,21.8150735 L3.6432,21.10572 L3.41136,21.10572 C3.2706,21.10572 3.105,21.02292 2.99736,20.91528 C2.84004,20.74968 2.8152,20.62548 2.8152,20.08728 C2.8152,19.54908 2.79036,19.43316 2.67444,19.39176 C1.39104,18.9612 0.57132,18.18288 0.1656,17.0154 L0.150085596,16.9695625 C0.145082743,16.9544066 0.140246652,16.9392849 0.135571763,16.9239301 L0.122025149,16.8768985 C0.119846128,16.8688542 0.117706019,16.8606847 0.115604125,16.8523567 L0.103445802,16.8002185 C0.0234216911,16.4272845 0.0053030244,15.6754425 0.00120068477,12.2412258 L0.00120207445,5.25860018 C0.00633277836,0.589818606 0.0323187097,0.384619355 0.15732,0.23184 L0.31464,0.03312 L5.68836,0.00828 C6.03211355,0.00667741935 6.36051334,0.00546255983 6.67349184,0.00462041288 L8.61160217,0.00462235843 C10.2961154,0.0103306139 11.2172632,0.0325858065 11.35188,0.06624 Z M3.07142406,27.9778973 L2.81940026,27.9774234 C1.8119121,27.9790652 1.87641931,28.061491 1.92096,29.50164 C1.95408,30.44556 1.99548,30.7602 2.14452,31.14936 C2.45088,31.94424 3.2706,32.65632 4.11516,32.85504 C4.25835529,32.8891341 5.0754108,32.9176127 6.06225264,32.9219777 L6.49411034,32.9223182 C6.56732927,32.9221109 6.64104706,32.9217671 6.71508,32.92128 L9.00036,32.90472 L9.29844,32.67288 C9.70416,32.36652 9.87804,32.0022 9.88632,31.48884 C9.90288,30.73536 9.8946,30.72708 7.79976,30.69396 C6.13548,30.66912 5.97816,30.65256 5.66352,30.48696 C4.95972,30.11436 4.554,29.41884 4.554,28.58256 C4.554,28.359 4.5126,28.13544 4.45464,28.07748 C4.3884,28.01124 3.99096,27.97812 3.21264,27.97812 L3.07142406,27.9778973 L3.07142406,27.9778973 Z M40.572,29.79972 L29.63412,29.79972 L29.4354,30.00672 C29.31948,30.11436 29.2284,30.24684 29.2284,30.29652 C29.2284,30.3509673 30.799357,30.3761874 34.2158288,30.3790444 L40.572,30.37932 L40.572,29.79972 Z M3.2706,24.45084 C2.92284,24.9642 2.7738,25.3782 2.69928,26.05716 L2.64132,26.57052 L3.4776,26.57052 C4.60368,26.57052 5.00112,26.67816 5.43168,27.10872 C5.796,27.47304 5.9616,27.95328 5.9616,28.61568 C5.9616,28.8144 6.02784,28.98828 6.14376,29.11248 C6.31764,29.29464 6.36732,29.30292 7.71696,29.30292 L9.108,29.30292 L9.108,27.62208 C9.108,25.3368 8.93412,24.72408 8.06472,23.92092 C6.61572,22.58784 4.38012,22.83624 3.2706,24.45084 Z M34.32888,23.92092 C33.51744,24.6744 33.2856,25.38648 33.2856,27.16668 L33.2856,28.39212 L39.744,28.39212 L39.744,27.38196 C39.73572,25.51896 39.52044,24.78204 38.72556,23.98716 C37.51668,22.77828 35.604,22.75344 34.32888,23.92092 Z M28.45836,8.85132 L28.63224,9.04176 C28.7822541,9.19859294 28.8087272,9.24873135 28.8133989,11.0466121 L28.8141034,11.4592992 C28.8141775,11.5327642 28.8142332,11.6086274 28.8142749,11.6869733 L28.8144,15.6906 L29.07936,15.76512 C29.54304,15.90588 29.56788,16.03836 29.54304,18.30708 C29.5182,20.31084 29.5182,20.36052 29.32776,20.54268 C29.1456,20.72484 29.09592,20.73312 27.21636,20.75796 C26.8928031,20.7617815 26.612165,20.7644272 26.3680237,20.765294 L26.0283816,20.7651847 C24.9821318,20.7598708 24.7680277,20.7025477 24.58332,20.51784 C24.35148,20.286 24.37632,19.82232 24.633,19.57392 C24.8058,19.39392 24.8346,19.3704417 25.92802,19.3673794 L28.152,19.36692 L28.152,17.04852 L14.2416,17.04852 L14.2416,19.36692 L21.45348,19.36692 L21.6522,19.57392 C22.01652,19.92996 21.9006,20.51784 21.43692,20.68344 C21.03948,20.8242 13.52124,20.80764 13.248,20.66688 C12.8812267,20.4834933 12.8369304,20.3077847 12.8341523,18.4318201 L12.834,18.20772 C12.834,16.05492 12.86712,15.8976 13.31424,15.76512 L13.5792,15.6906 L13.5792,9.20736 L13.76964,9.03348 L13.96008,8.85132 L28.45836,8.85132 Z M38.2536,18.91152 L34.776,18.91152 L34.776,19.78092 L38.2536,19.78092 L38.2536,18.91152 Z M7.6176,18.91152 L4.14,18.91152 L4.14,19.78092 L7.6176,19.78092 L7.6176,18.91152 Z M34.6104,8.27172 L31.95252,8.27172 L31.97736,12.39516 C31.9985649,15.8444868 32.001668,16.4096054 32.1154419,16.7020208 L32.1360541,16.7499651 C32.1433023,16.7653809 32.1509358,16.7803935 32.1589788,16.7954903 L32.18436,16.84152 L32.18436,16.84152 C32.35824,17.17272 32.73912,17.57016 33.12,17.81856 C33.37668,17.99244 33.35184,17.99244 33.534,17.77716 C33.66648,17.61156 33.66648,17.57844 33.54228,17.3052 C33.4439236,17.0803855 33.4170992,16.6767412 33.4112285,14.51623 L33.4102728,14.0257974 C33.4101608,13.9393852 33.410071,13.8505882 33.4100009,13.7593348 L33.4101664,11.9120951 C33.4125114,9.55560868 33.4298645,9.34485205 33.5582776,9.20784952 L33.58368,9.18252 L33.58368,9.18252 C33.68304,9.07488 33.9066,8.99208 34.17984,8.95896 L34.6104,8.90928 L34.6104,8.27172 Z M10.4328,1.39932 L1.3248,1.39932 L1.34136,8.87616 L1.3662,16.34472 L1.58976,16.80012 C1.82988,17.29692 2.13624,17.62812 2.5254,17.82684 C2.75724,17.95104 2.78208,17.95104 2.88144,17.81856 C2.93112,17.74404 2.9808,17.6364 2.9808,17.57844 C2.9808,17.52048 2.94768,17.44596 2.898,17.42112 C2.8566,17.39628 2.74068,17.13132 2.6496,16.83324 C2.64006545,16.8021273 2.63107835,16.7719878 2.62260734,16.7420971 L2.5987113,16.6524472 C2.50906971,16.2910386 2.48923476,15.8611504 2.48505985,14.1110409 L2.48431104,13.6452845 C2.48423017,13.5628328 2.48416866,13.4779081 2.48412257,13.3904196 L2.484,12.834 L2.484,12.834 C2.49028138,10.7925517 2.50132794,9.84709584 2.54605943,9.46261717 L2.55911582,9.37126591 C2.57072832,9.30606036 2.58421655,9.26731862 2.59992,9.24876 C2.7324,9.07488 3.08016,8.93412 3.38652,8.93412 L3.62664,8.93412 L3.66804,7.59276 C3.70944,5.95332 3.8088,5.62212 4.42152,4.99284 C5.117868,4.288488 5.349984,4.2185864 7.84781007,4.21470891 L10.4328,4.21452 L10.4328,1.39932 Z M38.5848,10.34172 L34.776,10.34172 L34.7761314,14.0163945 C34.7761809,14.0991965 34.7762471,14.1794363 34.7763343,14.2572033 L34.7771434,14.6948476 C34.7818497,16.4006898 34.8050336,16.6728575 34.9138147,16.9090174 L34.9416,16.96572 L34.9416,16.96572 C35.20656,17.48736 35.604,17.6364 36.53964,17.595 C37.01988,17.57016 37.29312,17.50392 37.57464,17.36316 C38.05488,17.11476 38.39436,16.6428 38.502,16.0632 C38.5412211,15.8357179 38.5804421,14.5752771 38.584462,13.2111885 L38.5848,10.34172 Z M7.6176,10.34172 L3.80052,10.34172 L3.82536,13.26456 C3.8502,16.12944 3.8502,16.1874 4.04892,16.57656 C4.40496,17.31348 5.11704,17.65296 6.17688,17.595 C6.57432,17.57844 6.86412,17.52048 7.038,17.41284 C7.18704,17.33004 7.37748,17.12304 7.46028,16.96572 L7.48660781,16.9154821 C7.59795117,16.6839534 7.61498016,16.3389527 7.61727252,14.2690305 L7.6176,10.34172 Z M27.4896,10.17612 L14.904,10.17612 L14.904,15.72372 L27.4896,15.72372 L27.4896,10.17612 Z M26.13168,13.0824 C26.17308,13.32252 26.13996,13.42188 25.97436,13.6206 L25.76736,13.86072 L23.29164,13.869 C21.93372,13.87728 20.7414,13.869 20.64204,13.84416 C20.41848,13.80276 20.1204,13.44672 20.1204,13.22316 C20.1204,12.9996 20.33568,12.61044 20.493,12.5442 C20.563794,12.520602 21.6583479,12.497004 22.9744674,12.4947032 L23.6725603,12.4946509 C26.0409345,12.4966793 26.04612,12.5301491 26.13168,13.0824 Z M27.974616,5.54580398 L27.0921826,5.5458557 C25.5960361,5.54939919 25.265108,5.57408424 25.191948,5.64025728 L25.1801918,5.65454691 L25.1801918,5.65454691 L25.1740057,5.67006054 L25.1740057,5.67006054 L25.1716038,5.68683822 C25.1712354,5.69264591 25.1712,5.69867094 25.1712,5.70492 C25.1712,5.84476 25.2104533,5.86684 25.9751664,5.87002025 L26.29728,5.87052 L26.29728,5.87052 C27.738,5.87052 28.0692,6.01128 28.16856,6.65712 C28.1934,6.82272 28.2762,6.82272 31.7952,6.86412 C34.50276,6.89724 35.44668,6.93036 35.57916,7.01316 C35.8938,7.18704 36.018,7.54308 36.018,8.27172 L36.018,8.93412 L37.35108,8.93412 L37.32624,7.659 C37.3014,6.23484 37.24344,6.0858 36.67212,5.74632 L36.6394266,5.72814639 C36.375908,5.5883111 35.9994528,5.5797264 30.78504,5.55588 C29.6250589,5.55072453 28.7047585,5.54699573 27.974616,5.54580398 Z M15.3042346,5.5458557 L14.4231045,5.54580398 C13.6940412,5.54699573 12.7751026,5.55072453 11.61684,5.55588 C6.3944784,5.5797264 6.01770528,5.5883111 5.75417394,5.72814639 L5.72148,5.74632 L5.72148,5.74632 C5.15016,6.0858 5.0922,6.23484 5.06736,7.659 L5.04252,8.93412 L6.3756,8.93412 L6.3756,8.27172 C6.3756,7.54308 6.4998,7.18704 6.81444,7.01316 C6.94692,6.93036 7.89084,6.89724 10.5984,6.86412 C14.1174,6.82272 14.2002,6.82272 14.22504,6.65712 C14.3244,6.01128 14.6556,5.87052 16.09632,5.87052 L16.4184336,5.87002025 C17.1831467,5.86684 17.2224,5.84476 17.2224,5.70492 C17.2224,5.69867094 17.2223646,5.69264591 17.2219967,5.68683822 L17.2195978,5.67006054 L17.2195978,5.67006054 L17.2134202,5.65454691 C17.1686692,5.57758963 16.9012032,5.54964357 15.3042346,5.5458557 Z" id="Combined-Shape"></path>
                    </g>
                </g>
            </g>
        </g>
    </g>
</svg>