<?xml version="1.0" encoding="UTF-8"?>
<svg width="37px" height="38px" viewBox="0 0 37 38" version="1.1" xmlns="http://www.w3.org/2000/svg" xmlns:xlink="http://www.w3.org/1999/xlink">
    <title>svg/Design_services_ic</title>
    <g id="Page-1" stroke="none" stroke-width="1" fill="none" fill-rule="evenodd">
        <g id="Service-All-Category" transform="translate(-44.000000, -600.000000)" fill="#47CDFE" fill-rule="nonzero">
            <g id="Group-2" transform="translate(20.000000, 577.000000)">
                <g id="Design_services_ic" transform="translate(24.000000, 23.000000)">
                    <g id="Group" transform="translate(18.500000, 19.264000) scale(-1, 1) rotate(-180.000000) translate(-18.500000, -19.264000) translate(-0.000000, 0.764000)">
                        <path d="M6.2424,30.24 L6.4368,30.4272 L6.624,30.6216 L6.624,36.4824 L6.4368,36.6768 L6.2424,36.864 L0.3816,36.864 L0.1872,36.6768 L-9.14823772e-14,36.4824 L-9.14823772e-14,30.6216 L0.1872,30.4272 L0.3816,30.24 L6.2424,30.24 Z M36.4824,30.24 L36.6768,30.4272 L36.864,30.6216 L36.864,36.4824 L36.6768,36.6768 L36.4824,36.864 L30.6216,36.864 L30.4416,36.684 C30.3408,36.5832 30.24,36.3816 30.2112,36.2304 C30.192,36.1024 30.1728,35.1324444 30.1687704,33.9880296 L30.1687704,33.1159704 C30.1728,31.9715556 30.192,31.0016 30.2112,30.8736 C30.24,30.7224 30.3408,30.5208 30.4416,30.42 L30.6216,30.24 L36.4824,30.24 Z M5.112,31.68 L1.44,31.68 L1.44,35.424 L5.112,35.424 L5.112,31.68 Z M35.352,31.68 L31.68,31.68 L31.68,35.424 L35.352,35.424 L35.352,31.68 Z M10.3032,32.7528 C10.4688,32.9184 10.512,33.0264 10.512,33.264 C10.512,33.5016 10.4688,33.6096 10.3032,33.7752 C10.1016,33.9768 10.0656,33.984 9.432,33.984 C8.8344,33.984 8.7624,33.9696 8.604,33.8112 C8.28,33.4872 8.28,33.0408 8.604,32.7168 C8.7492,32.5716 8.8218,32.5474 9.29319583,32.544375 L9.432,32.544 C10.0656,32.544 10.1016,32.5512 10.3032,32.7528 Z M14.8176,32.544 L15.0048,32.7672 C15.1344,32.9184 15.192,33.0696 15.192,33.264 C15.192,33.4584 15.1344,33.6096 15.0048,33.7608 L14.8176,33.984 L13.7448,33.984 C12.7008,33.984 12.6576,33.9768 12.492,33.8112 C12.168,33.4872 12.168,33.0408 12.492,32.7168 C12.6381176,32.5706824 12.6889412,32.5478865 13.4160562,32.5445452 L14.8176,32.544 Z M24.372,32.7168 C24.5736,32.9256 24.66,33.192 24.5952,33.4512 C24.5664,33.552 24.4656,33.7176 24.372,33.8112 C24.2064,33.9768 24.1632,33.984 23.1264,33.984 L22.0608,33.984 L21.8664,33.7824 C21.7152,33.624 21.672,33.5088 21.672,33.264 C21.672,33.0192 21.7152,32.904 21.8664,32.7456 L22.0608,32.544 L23.4528899,32.5445452 C24.1750588,32.5478865 24.2258824,32.5706824 24.372,32.7168 Z M28.26,32.7168 C28.4616,32.9256 28.548,33.192 28.4832,33.4512 C28.4544,33.552 28.3536,33.7176 28.26,33.8112 C28.1016,33.9696 28.0296,33.984 27.432,33.984 C26.7984,33.984 26.7624,33.9768 26.5608,33.7752 C26.3952,33.6096 26.352,33.5016 26.352,33.264 C26.352,33.0264 26.3952,32.9184 26.5608,32.7528 C26.7456,32.568 26.79125,32.54655 27.2856083,32.5442583 L27.432,32.544 C28.0296,32.544 28.1016,32.5584 28.26,32.7168 Z M19.62,32.6592 C19.9656,32.8896 19.9944,33.48 19.6776,33.804 C19.5187765,33.9564706 19.4776692,33.9800138 18.7629084,33.9834431 L18.4392,33.984 C17.6184,33.984 17.352,33.9624 17.2296,33.876 C16.8696,33.624 16.8696,32.904 17.2296,32.652 C17.46,32.4936 19.3752,32.4936 19.62,32.6592 Z M27.8760877,8.19145309 L28.2744,8.5896 C28.414,8.7288 28.5466,8.86108889 28.6725469,8.98684198 L29.3511667,9.66593333 C30.862,11.1826 31.032,11.3976 31.032,11.5776 C31.032,11.7072 30.9888,11.9016 30.9312,12.0096 C30.8736,12.1176 30.024,13.0032 29.0304,13.9896 L27.2376,15.768 L26.8776,15.768 C26.3808,15.768 26.136,15.5304 26.136,15.0624 L26.136,14.7312 L27.6624,13.1976 L29.196,11.664 L25.2,7.668 L24.2856,8.5824 L23.364,9.504 L23.7816,9.9216 C24.1632,10.3032 24.192,10.3608 24.192,10.6632 C24.192,10.9224 24.1488,11.0376 24.012,11.1816 C23.6376,11.5488 23.2416,11.4912 22.6944,10.9728 L22.284,10.5912 L21.7656,11.1096 L21.24,11.6208 L22.284,12.672 L23.328,13.7304 L23.328,14.0688 C23.328,14.4432 23.1336,14.7168 22.7952,14.8032 C22.428,14.8968 22.2192,14.76 21.1824,13.7304 L20.16,12.7152 L19.476,13.392 L18.792,14.076 L23.9976,19.296 L24.7989086,20.0977421 C24.9679985,20.2668414 25.1312044,20.4300246 25.2887301,20.5875463 L25.7444698,21.043382 C29.3305031,24.6314977 29.6291829,24.9743095 29.6355304,25.8194493 L29.6350502,25.9257013 C29.6332607,26.0531855 29.628,26.1940431 29.628,26.3592 C29.628,27.252 29.628,27.2664 29.3616,27.7992 C29.0232,28.4832 28.4256,29.0736 27.7416,29.3976 C27.2736,29.6208 27.216,29.628 26.352,29.628 L26.073952,29.6283309 C24.8953872,29.6264492 24.8226545,29.5113273 21.8304,26.5392 L19.152,23.868 L15.6384,27.3744 C13.7088,29.2968 12.06,30.9096 11.9736,30.9528 C11.8872,30.996 11.7072,31.032 11.5776,31.032 C11.3736,31.032 11.1310667,30.8136444 8.98791235,28.6725469 L8.19145309,27.8760877 C6.05035556,25.7329333 5.832,25.4904 5.832,25.2864 C5.832,25.1568 5.868,24.9768 5.9112,24.8904 C5.9544,24.804 7.5672,23.1552 9.4896,21.2256 L12.996,17.712 L11.1096,15.8256 L9.2232,13.932 L8.2152,11.0592 C7.6536,9.4824 7.2,8.1216 7.1928,8.0352 C7.164,7.7112 7.2072,7.5744 7.3872,7.3872 C7.7184,7.0632 7.92,7.1064 11.0592,8.208 L13.932,9.216 L17.712,12.996 L21.2256,9.4896 C23.1552,7.5672 24.804,5.9544 24.8904,5.9112 C24.9768,5.868 25.1568,5.832 25.2864,5.832 C25.4904,5.832 25.7329333,6.05035556 27.8760877,8.19145309 Z M14.076,18.792 L13.392,19.476 L12.7152,20.16 L13.7304,21.1824 C14.76,22.2192 14.8968,22.428 14.8032,22.7952 C14.7168,23.1336 14.4432,23.328 14.0688,23.328 L13.7304,23.328 L12.672,22.284 L11.6208,21.24 L11.1096,21.7656 L10.5912,22.284 L10.9728,22.6944 C11.4912,23.2416 11.5488,23.6376 11.1816,24.012 C11.0376,24.1488 10.9224,24.192 10.6632,24.192 C10.3608,24.192 10.3032,24.1632 9.9216,23.7816 L9.504,23.364 L8.5824,24.2856 L7.668,25.2 L9.648,27.18 C10.7352,28.2672 11.6424,29.16 11.664,29.16 C11.6818759,29.16 12.6761436,28.1786768 14.0142401,26.8445126 L14.5309078,26.3288891 C14.6487553,26.2111762 14.7684414,26.0915586 14.8896,25.9704 L18.072,22.788 L14.076,18.792 Z M3.8232,26.2728 C4.0248,26.4744 4.032,26.5176 4.032,27.108 C4.032,27.8064 3.9744,27.9576 3.672,28.116 C3.3912,28.26 3.1752,28.2528 2.9016,28.08 C2.556,27.8712 2.4264,27.2448 2.592,26.6256 C2.7504,26.0568 3.4128,25.8696 3.8232,26.2728 Z M34.0632,26.2728 C34.2648,26.4744 34.272,26.5176 34.272,27.108 C34.272,27.8064 34.2144,27.9576 33.912,28.116 C33.6312,28.26 33.4152,28.2528 33.1416,28.08 C32.796,27.8712 32.6664,27.2448 32.832,26.6256 C32.9904,26.0568 33.6528,25.8696 34.0632,26.2728 Z M26.4672,23.8968 L25.1856,25.1784 L23.904,26.46 L24.5736,27.1296 C24.9336,27.4968 25.3368,27.864 25.4664,27.9432 C25.8912,28.2096 26.532,28.2456 27.0432,28.044 C27.3816,27.9072 27.8352,27.468 28.0008,27.1152 C28.1808,26.748 28.2024,26.0352 28.044,25.6536 C27.9792,25.5096 27.6048,25.056 27.2016,24.6456 L26.4672,23.8968 Z M13.572,11.016 L12.2976,12.2904 L11.016,13.572 L17.5524392,20.1082407 C17.9106038,20.466186 18.259511,20.8146942 18.5961286,21.1507438 L18.9939766,21.5478298 C21.2128215,23.7619041 22.8073091,25.344 22.824,25.344 C22.8456,25.344 23.4288,24.7752 24.12,24.084 L25.38,22.824 L13.572,11.016 Z M3.8088,21.5712 L4.032,21.7584 L4.032,22.8024 C4.032,23.3784 3.996,23.904 3.96,23.9832 C3.8664,24.1488 3.5208,24.336 3.2976,24.336 C3.204,24.336 3.0312,24.2712 2.9016,24.192 C2.5848,23.9976 2.4984,23.6376 2.5344,22.6224 C2.5632,21.852 2.5776,21.8088 2.772,21.6 C3.0528,21.312 3.4848,21.2976 3.8088,21.5712 Z M34.0488,21.5712 L34.272,21.7584 L34.272,22.8024 C34.272,23.3784 34.236,23.904 34.2,23.9832 C34.1064,24.1488 33.7608,24.336 33.5376,24.336 C33.444,24.336 33.2712,24.2712 33.1416,24.192 C32.8248,23.9976 32.7384,23.6376 32.7744,22.6224 C32.8032,21.852 32.8176,21.8088 33.012,21.6 C33.2928,21.312 33.7248,21.2976 34.0488,21.5712 Z M3.9168,16.956 C4.00371429,17.0830286 4.02854694,17.3031796 4.03165102,17.9969248 L4.03135312,18.4981641 C4.0276125,19.17945 4.0032,19.233 3.852,19.3968 C3.7584,19.4976 3.6288,19.584 3.5712,19.584 C3.5136,19.584 3.4272,19.5984 3.3696,19.6128 C3.3192,19.6272 3.168,19.6128 3.0456,19.5768 C2.628,19.4544 2.556,19.2528 2.556,18.144 C2.556,17.3376 2.5776,17.136 2.6784,16.9776 C2.9304,16.596 3.672,16.5816 3.9168,16.956 Z M34.1568,16.956 C34.2437143,17.0830286 34.2685469,17.3031796 34.271651,17.9969248 L34.2716952,18.4887691 C34.269409,19.2009799 34.2499765,19.2316235 34.0848,19.3968 C33.9768,19.4976 33.8544,19.584 33.7968,19.584 C33.7464,19.584 33.6672,19.5984 33.6096,19.6128 C33.5592,19.6272 33.408,19.6128 33.2856,19.5768 C32.868,19.4544 32.796,19.2528 32.796,18.144 C32.796,17.3376 32.8176,17.136 32.9184,16.9776 C33.1704,16.596 33.912,16.5816 34.1568,16.956 Z M25.4808,17.4528 C25.3944,17.64 25.02,17.856 24.7896,17.856 C24.7176,17.8488 24.5736,17.8056 24.4656,17.7408 C24.2568,17.6328 24.048,17.3016 24.048,17.1 C24.048,16.8768 24.2712,16.5096 24.4512,16.4232 C25.1568,16.1064 25.7976,16.7472 25.4808,17.4528 Z M3.2976,11.952 C3.5208,11.952 3.8664,12.1392 3.96,12.3048 C3.996,12.384 4.032,12.9096 4.032,13.4856 L4.032,14.5296 L3.8088,14.7168 C3.4848,14.9904 3.0528,14.976 2.772,14.688 C2.5776,14.4792 2.5632,14.436 2.5344,13.6656 C2.4984,12.6504 2.5848,12.2904 2.9016,12.096 C3.0312,12.0168 3.204,11.952 3.2976,11.952 Z M33.5376,11.952 C33.7608,11.952 34.1064,12.1392 34.2,12.3048 C34.2327273,12.3768 34.2654545,12.8177256 34.2711345,13.3300562 L34.272,14.5296 L34.0488,14.7168 C33.7248,14.9904 33.2928,14.976 33.012,14.688 C32.8176,14.4792 32.8032,14.436 32.7744,13.6656 C32.7384,12.6504 32.8248,12.2904 33.1416,12.096 C33.2712,12.0168 33.444,11.952 33.5376,11.952 Z M9.1584,9.1584 L9.4824,10.0656 C9.6624,10.5696 9.8928,11.232 9.9936,11.5416 C10.1016,11.844 10.2024,12.096 10.224,12.096 C10.2456,12.096 10.6848,11.6784 11.196,11.16 C11.7072,10.6488 12.1104,10.2168 12.096,10.2024 C12.0744,10.188 11.7072,10.0512 11.268,9.9 C10.836,9.7488 10.1808,9.5184 9.8208,9.3888 L9.1584,9.1584 Z M3.8592,8.316 C4.0176,8.4744 4.032,8.5464 4.032,9.144 C4.032,9.7776 4.0248,9.8136 3.8232,10.0152 C3.528,10.3104 3.096,10.3104 2.808,10.0224 C2.5704,9.7848 2.4768,9.3312 2.556,8.8128 C2.6568,8.1 3.3696,7.8336 3.8592,8.316 Z M34.0992,8.316 C34.2576,8.4744 34.272,8.5464 34.272,9.144 C34.272,9.7776 34.2648,9.8136 34.0632,10.0152 C33.768,10.3104 33.336,10.3104 33.048,10.0224 C32.8104,9.7848 32.7168,9.3312 32.796,8.8128 C32.8968,8.1 33.6096,7.8336 34.0992,8.316 Z M6.2424,-9.14823772e-14 L6.4368,0.1872 L6.624,0.3816 L6.624,6.2424 L6.4368,6.4368 L6.2424,6.624 L0.3816,6.624 L0.1872,6.4368 L-9.14823772e-14,6.2424 L-9.14823772e-14,0.3816 L0.1872,0.1872 L0.3816,-9.14823772e-14 L6.2424,-9.14823772e-14 Z M36.4824,-9.14823772e-14 L36.6768,0.1872 L36.864,0.3816 L36.864,6.2424 L36.6768,6.4368 L36.4824,6.624 L30.6216,6.624 L30.4416,6.444 C30.3408,6.3432 30.24,6.1416 30.2112,5.9904 C30.192,5.8624 30.1728,4.89244444 30.1687704,3.74802963 L30.1687704,2.87597037 C30.1728,1.73155556 30.192,0.7616 30.2112,0.6336 C30.24,0.4824 30.3408,0.2808 30.4416,0.18 L30.6216,-9.14823772e-14 L36.4824,-9.14823772e-14 Z M5.112,1.44 L1.44,1.44 L1.44,5.184 L5.112,5.184 L5.112,1.44 Z M35.352,1.44 L31.68,1.44 L31.68,5.184 L35.352,5.184 L35.352,1.44 Z M18.4176,2.304 C19.5768,2.304 19.7496,2.3616 19.8648,2.7792 C19.9512,3.1032 19.8432,3.4848 19.62,3.6288 C19.3752,3.7944 17.46,3.7944 17.2296,3.636 C16.9992,3.4704 16.8912,3.0816 16.992,2.772 C17.136,2.3472 17.2584,2.304 18.4176,2.304 Z M10.3032,2.5128 C10.4688,2.6784 10.512,2.7864 10.512,3.024 C10.512,3.2616 10.4688,3.3696 10.3032,3.5352 C10.1016,3.7368 10.0656,3.744 9.432,3.744 C8.8344,3.744 8.7624,3.7296 8.604,3.5712 C8.28,3.2472 8.28,2.8008 8.604,2.4768 C8.7492,2.3316 8.8218,2.3074 9.29319583,2.304375 L9.432,2.304 C10.0656,2.304 10.1016,2.3112 10.3032,2.5128 Z M14.8176,2.304 L15.0048,2.5272 C15.1344,2.6784 15.192,2.8296 15.192,3.024 C15.192,3.2184 15.1344,3.3696 15.0048,3.5208 L14.8176,3.744 L13.7448,3.744 C12.7008,3.744 12.6576,3.7368 12.492,3.5712 C12.168,3.2472 12.168,2.8008 12.492,2.4768 C12.6381176,2.33068235 12.6889412,2.30788651 13.4160562,2.30454517 L14.8176,2.304 Z M24.372,2.4768 C24.5736,2.6856 24.66,2.952 24.5952,3.2112 C24.5664,3.312 24.4656,3.4776 24.372,3.5712 C24.2064,3.7368 24.1632,3.744 23.1264,3.744 L22.0608,3.744 L21.8664,3.5424 C21.7152,3.384 21.672,3.2688 21.672,3.024 C21.672,2.7792 21.7152,2.664 21.8664,2.5056 L22.0608,2.304 L23.4528899,2.30454517 C24.1750588,2.30788651 24.2258824,2.33068235 24.372,2.4768 Z M28.26,2.4768 C28.3536,2.5704 28.4544,2.736 28.4832,2.8368 C28.548,3.096 28.4616,3.3624 28.26,3.5712 C28.1016,3.7296 28.0296,3.744 27.432,3.744 C26.7984,3.744 26.7624,3.7368 26.5608,3.5352 C26.3952,3.3696 26.352,3.2616 26.352,3.024 C26.352,2.7864 26.3952,2.6784 26.5608,2.5128 C26.7456,2.328 26.79125,2.30655 27.2856083,2.30425833 L27.432,2.304 C28.0296,2.304 28.1016,2.3184 28.26,2.4768 Z" id="Combined-Shape"></path>
                    </g>
                </g>
            </g>
        </g>
    </g>
</svg>