<?xml version="1.0" encoding="UTF-8"?>
<svg width="40px" height="41px" viewBox="0 0 40 41" version="1.1" xmlns="http://www.w3.org/2000/svg" xmlns:xlink="http://www.w3.org/1999/xlink">
    <title>svg/donation_ic</title>
    <g id="Page-1" stroke="none" stroke-width="1" fill="none" fill-rule="evenodd">
        <g id="Service-All-Category" transform="translate(-47.000000, -1521.000000)" fill="#47CDFE" fill-rule="nonzero">
            <g id="Group-2" transform="translate(19.000000, 1499.000000)">
                <g id="donation_ic" transform="translate(28.000000, 22.000000)">
                    <path d="M5.93420408,0.0280116618 L6.056,0.032 C6.512,0.056 6.704,0.136 8.096,0.872 C9.856,1.808 10.224,2.112 10.432,2.8 C10.504,3.04 10.56,3.336 10.56,3.472 L10.56,3.472 L10.5604723,3.52646356 C10.5676735,3.74791837 10.6822857,3.80628571 12.48,4.72 C14.112,5.552 14.984,5.76 18.352,6.12 C21.16,6.424 22.12,6.648 23.384,7.304 C24.104,7.672 25.056,8.52 25.52,9.192 C25.68,9.44 26.512,10.864 27.36,12.36 L27.36,12.36 L27.600501,12.7868481 C28.3618141,14.1334785 29.1028571,15.4015238 29.32,15.72 C29.84,16.52 29.968,16.768 30.208,17.464 C30.728,19 30.568,20.92 29.808,22.288 L29.808,22.288 L29.608,22.64 L35.870571,22.6407911 C38.8013388,22.6448595 38.9618182,22.6687273 39.176,22.8 C39.32,22.888 39.464,23.056 39.496,23.176 C39.531,23.281 39.55375,26.032 39.5588906,29.5639375 L39.559821,30.488188 C39.55994,30.69688 39.56,30.9076 39.56,31.12 L39.5598465,32.5268592 C39.5598176,32.6364146 39.5597839,32.744095 39.5597448,32.8499344 L39.5589738,34.0338324 C39.5588811,34.1254917 39.5587806,34.2154468 39.5586715,34.303732 L39.5579099,34.8136776 C39.5522299,38.0016258 39.5317073,38.7536291 39.459859,39.0981448 L39.4483955,39.1482059 C39.438497,39.1877004 39.4277241,39.2222069 39.416,39.256 C39.232,39.784 38.664,40.424 38.128,40.704 L38.128,40.704 L37.72,40.92 L11.96,40.92 L11.56,40.704 C10.776,40.288 10.32,39.688 10.168,38.84 C10.112,38.5413333 10.0821333,35.2216533 10.0784,31.7217114 L10.0784,30.2189819 C10.0821333,26.7255111 10.112,23.4576 10.168,23.256 C10.224,23.048 10.336,22.904 10.504,22.8 L10.504,22.8 L10.5403461,22.7787683 C10.7491776,22.6641013 11.050461,22.643899 13.6705542,22.6406036 L19.2,22.64 L18.992,22.216 C18.872,21.992 18.696,21.544 18.592,21.24 L18.592,21.24 L18.416,20.68 L15.544,18.896 C15.3864,18.7976 15.22672,18.69848 15.066344,18.599456 L14.584512,18.303488 C13.30144,17.51936 12.0624,16.7936 11.576,16.544 C9.904,15.696 9.168,15.048 8.16,13.52 C7.752,12.896 7.208,12.312 6.728,11.984 C6.4,11.752 6.376,11.744 6.296,11.888 C6.104,12.248 5.584,12.64 5.144,12.768 C4.384,12.992 4.104,12.912 2.384,11.992 C1.552,11.544 0.744,11.072 0.6,10.952 C0.168,10.568 -0.024,10.072 0.016,9.4 C0.0165581395,9.38697674 0.0171032991,9.37425635 0.0176608349,9.3617845 L0.0213574151,9.28950105 C0.0227743469,9.26611091 0.0244436339,9.24328021 0.0265681261,9.22057429 L0.0345100683,9.15239614 L0.0345100683,9.15239614 L0.0464003421,9.08235853 C0.127264467,8.67528394 0.456930233,8.05302326 2.032,5.08 C3.128,3.008 4.128,1.152 4.256,0.944 C4.488,0.568 4.832,0.296 5.32,0.104 C5.456,0.048 5.776,0.016 6.056,0.032 Z M37.92,24.24 L22.6330124,24.2407791 C22.5124868,24.2408647 22.3925063,24.2409571 22.2730959,24.2410562 L21.5636717,24.241732 C15.9461717,24.2477784 11.7562105,24.2690526 11.736,24.296 C11.704,24.32 11.68,25.024 11.68,25.848 L11.68,27.352 L13.984,27.376 C16.552,27.4 16.648,27.424 16.784,27.944 C16.872,28.296 16.816,28.52 16.584,28.76 L16.584,28.76 L16.384,28.96 L14.048,28.976 L11.72,29 L11.7208285,35.9189522 C11.7248674,38.6799312 11.7485957,38.7501277 11.888,38.936 C11.976,39.056 12.144,39.208 12.248,39.256 L12.248,39.256 L12.2694566,39.2632038 C12.4677233,39.3112002 13.7432501,39.3341246 17.2344098,39.340008 L17.7612599,39.3407483 C17.8517484,39.3408517 17.9435879,39.3409452 18.0367951,39.3410289 L20.8977551,39.3409959 C21.0169169,39.3409129 21.1375949,39.3408211 21.2598057,39.3407207 L22.0115957,39.3400159 C22.9104511,39.339075 23.8860308,39.3377231 24.944,39.336 L24.944,39.336 L37.456,39.32 L37.688,39.056 L37.92,38.8 L37.92,28.96 L22.872,28.96 L22.68,28.768 C22.392,28.48 22.344,28.184 22.528,27.848 C22.632,27.656 22.776,27.528 22.96,27.464 C23.1356444,27.4032 24.5492069,27.3766281 28.2797615,27.3698326 L28.8882085,27.3689218 C28.9928779,27.3687967 29.0991912,27.3686848 29.2071681,27.3685857 L30.584,27.368 L37.92,27.36 L37.92,24.24 Z M28.139047,31.3597234 C28.2307659,31.359767 28.3207695,31.3598221 28.4090906,31.3598906 L28.9190906,31.3604765 C32.7600593,31.3665547 33.029705,31.4103551 33.1413525,31.6851889 L33.1550101,31.721544 C33.1661145,31.7529107 33.1770746,31.7869851 33.192,31.824 C33.2391579,31.9418947 33.2645983,32.3638338 33.2683213,33.2178358 L33.2685873,33.6106628 C33.2680554,33.8206759 33.2665263,34.0513684 33.264,34.304 L33.264,34.304 L33.24,36.56 L33.016,36.776 L32.8,37 L16.864,37 L16.632,36.736 L16.4,36.48 L16.4005918,33.7582099 C16.4061633,31.8401224 16.4565714,31.6337143 16.776,31.448 C16.872,31.392 19.608,31.368 24.84,31.36 L25.5916143,31.3599294 C25.7128828,31.3599083 25.832173,31.3598838 25.9495176,31.3598578 Z M31.68,32.96 L18,32.96 L18,35.44 L31.68,35.44 L31.68,32.96 Z M19.352,27.472 C19.92,27.288 20.4,27.616 20.4,28.192 C20.4,29.072 19.152,29.272 18.88,28.432 C18.752,28.048 18.976,27.592 19.352,27.472 Z M25.48,15 C24.976,14.872 23.904,14.856 23.432,14.968 C22.736,15.128 21.896,15.56 21.384,16.024 L21.384,16.024 L21.208,16.184 L21.408,16.576 C21.88,17.504 22.048,18.896 21.8,19.744 C21.584,20.456 21.24,20.816 20.336,21.256 C20.28,21.28 20.592,21.824 20.896,22.216 L20.896,22.216 L21.216,22.64 L27.6,22.64 L27.928,22.224 C28.608,21.36 28.912,20.488 28.912,19.4 C28.912,18.128 28.48,17.104 27.568,16.192 C26.952,15.576 26.312,15.216 25.48,15 Z M9.888,5.2 C9.84,5.2 9.936,5.024 8.76,7.24 C8.2,8.296 7.6,9.416 7.432,9.736 L7.432,9.736 L7.112,10.312 L7.576,10.624 C8.248,11.08 8.864,11.728 9.448,12.576 C10.408,14 10.936,14.448 12.576,15.288 C13.087619,15.5470476 14.3856327,16.3041451 15.7188468,17.117913 L16.1896314,17.4067595 C16.3462313,17.5033469 16.5020952,17.6 16.656,17.696 C18.384,18.776 19.696,19.544 19.856,19.568 C20.088,19.608 20.136,19.584 20.224,19.408 C20.456,18.888 20.248,17.744 19.768,16.92 C19.64,16.696 18.832,15.784 17.96,14.88 C17.096,13.976 16.296,13.104 16.184,12.944 C15.736,12.28 15.792,11.616 16.352,11.08 C16.752,10.688 17.256,10.512 18.296,10.392 C20.368,10.144 21.8,10.936 22.984,12.968 L22.984,12.968 L23.2,13.336 L24.144,13.304 C24.816,13.272 25.224,13.296 25.6,13.384 C25.888,13.456 26.128,13.504 26.136,13.488 C26.16,13.464 24.44,10.448 24.176,10.064 C23.648,9.304 22.72,8.64 21.68,8.296 C21.008,8.072 20.112,7.928 17.952,7.68 C14.272,7.272 13.552,7.08 11.304,5.912 C10.544,5.52 9.904,5.2 9.888,5.2 Z M19.184,11.96 C18.592,11.928 17.6,12.048 17.6,12.144 C17.6,12.176 18.192,12.808 18.912,13.56 L18.912,13.56 L20.216,14.912 L20.568,14.624 C20.76,14.472 21.088,14.248 21.296,14.128 L21.296,14.128 L21.68,13.904 L21.496,13.592 C21.208,13.08 20.504,12.344 20.12,12.16 C19.888,12.048 19.568,11.976 19.184,11.96 Z M5.904,1.6 C5.84,1.6 5.728,1.664 5.664,1.736 C5.392,2.056 1.6,9.32 1.6,9.528 C1.6,9.728 1.712,9.808 2.888,10.448 C4.552,11.344 4.6,11.36 4.792,11.16 C4.88,11.072 5.856,9.296 6.96,7.208 C8.688,3.968 8.968,3.392 8.896,3.24 C8.84,3.128 8.336,2.816 7.424,2.336 C6.656,1.928 5.976,1.6 5.904,1.6 Z" id="Combined-Shape"></path>
                </g>
            </g>
        </g>
    </g>
</svg>