<?xml version="1.0" encoding="UTF-8"?>
<svg width="41px" height="41px" viewBox="0 0 41 41" version="1.1" xmlns="http://www.w3.org/2000/svg" xmlns:xlink="http://www.w3.org/1999/xlink">
    <title>svg/electronics_ic</title>
    <g id="Page-1" stroke="none" stroke-width="1" fill="none" fill-rule="evenodd">
        <g id="Product-All-Category" transform="translate(-295.000000, -1084.000000)" fill="#47CDFE" fill-rule="nonzero">
            <g id="Group-2" transform="translate(273.000000, 1062.000000)">
                <g id="electronics_ic" transform="translate(22.000000, 22.000000)">
                    <path d="M40.592,1.77635684e-14 L40.776,0.176 L40.96,0.344 L40.96,39.232 L40.784,39.416 C40.64,39.568 40.528,39.6 40.104,39.6 L40.104,39.6 L39.6,39.6 L39.6,40.96 L38.16,40.96 L38.16,39.6 L24.64,39.6 L24.64,40.96 L23.2,40.96 L23.2,39.6 L22.704,39.6 C22.304,39.6 22.176,39.568 22.024,39.424 L22.024,39.424 L21.84,39.256 L21.84,0.368 L22.016,0.184 L22.184,1.77635684e-14 L40.592,1.77635684e-14 Z M14.6040412,14.3209488 C14.6949313,14.3210218 14.7843168,14.3211004 14.8722235,14.321185 L15.3821236,14.3217689 C15.4642179,14.3218794 15.5448849,14.3219969 15.6241501,14.3221217 L16.0831279,14.3229621 C19.9187316,14.3310689 20.1034136,14.3613629 20.2545091,14.4745666 L20.272,14.488 L20.48,14.648 L20.48,39.232 L20.304,39.416 C20.16,39.568 20.048,39.6 19.624,39.6 L19.624,39.6 L19.12,39.6 L19.12,40.96 L17.68,40.96 L17.68,39.6 L2.8,39.6 L2.8,40.96 L1.36,40.96 L1.36,39.6 L0.864,39.6 C0.464,39.6 0.336,39.568 0.184,39.424 L0.184,39.424 L2.0962475e-14,39.256 L1.79488641e-14,14.648 L0.208,14.488 C0.367780822,14.363726 0.413745168,14.3313807 4.39687207,14.3229621 L4.85584986,14.3221217 C4.93511514,14.3219969 5.01578208,14.3218794 5.09787638,14.3217689 L5.60777648,14.321185 C5.69568318,14.3211004 5.7850687,14.3210218 5.87595878,14.3209488 Z M39.52,14.4 L23.28,14.4 L23.28,38.16 L39.52,38.16 L39.52,14.4 Z M19.04,21.2 L1.44,21.2 L1.44,38.16 L19.04,38.16 L19.04,21.2 Z M8.72,21.96 C9.36,21.832 10.92,21.808 11.568,21.928 C14.384,22.424 16.632,24.448 17.496,27.256 C17.696,27.904 17.712,28.064 17.712,29.36 L17.7117695,29.5913184 C17.70925,30.6840625 17.683,30.85 17.488,31.48 C16.704,34.04 14.8,35.904 12.192,36.656 C11.648,36.816 11.376,36.84 10.24,36.84 C9.104,36.84 8.832,36.816 8.288,36.656 C5.68,35.904 3.744,34.016 3,31.48 C2.6,30.152 2.632,28.272 3.072,26.976 C3.96,24.384 6.072,22.504 8.72,21.96 Z M11.648,23.44 C10.896,23.248 9.68,23.24 8.88,23.408 C8.592,23.464 7.992,23.696 7.552,23.92 C5.824,24.768 4.552,26.432 4.232,28.272 C4.096,29.064 4.176,30.464 4.4,31.12 C4.752,32.16 5.184,32.872 5.92,33.6 C6.88,34.56 7.8,35.064 9.064,35.336 C9.848,35.504 11.2,35.44 11.96,35.2 C12.568,35.008 13.432,34.584 13.784,34.296 L13.784,34.296 L14.008,34.12 L13.128,33.256 L12.496,33.584 C11.616,34.048 10.96,34.184 9.96,34.136 C8.632,34.072 7.592,33.592 6.68,32.624 C4.76,30.592 5.024,27.208 7.232,25.552 C8.184,24.832 9.008,24.552 10.168,24.552 C11.12,24.552 11.768,24.704 12.528,25.12 L12.528,25.12 L13.104,25.424 L13.528,24.984 L13.96,24.552 L13.76,24.392 C13.384,24.096 12.28,23.6 11.648,23.44 Z M15,25.592 L14.024,26.576 L13.04,27.56 L13.04,31.08 L14.04,32.08 L15.048,33.08 L15.2,32.88 C15.48,32.52 15.904,31.648 16.096,31.04 C16.248,30.536 16.28,30.272 16.28,29.36 C16.28,28.144 16.136,27.52 15.632,26.56 C15.48,26.272 15.28,25.936 15.176,25.816 L15.176,25.816 L15,25.592 Z M11.544,26.264 C10.92,25.984 9.832,25.928 9.24,26.136 C8.264,26.488 7.6,27.08 7.176,27.984 C6.936,28.48 6.92,28.584 6.92,29.36 C6.92,30.112 6.944,30.248 7.144,30.672 C7.6,31.648 8.4,32.328 9.4,32.6 C10.2,32.824 11.16,32.688 11.88,32.264 C12.04,32.176 12.032,32.168 11.824,31.944 L11.824,31.944 L11.6,31.712 L11.6,27.016 L11.808,26.744 L12.008,26.48 Z M26.64,15.68 L26.64,25.28 L25.2,25.28 L25.2,15.68 L26.64,15.68 Z M19.04,15.76 L1.44,15.76 L1.44,19.76 L19.04,19.76 L19.04,15.76 Z M4.16,17.04 L4.16,18.48 L2.72,18.48 L2.72,17.04 L4.16,17.04 Z M6.88,17.04 L6.88,18.48 L5.44,18.48 L5.44,17.04 L6.88,17.04 Z M9.6,17.04 L9.6,18.48 L8.16,18.48 L8.16,17.04 L9.6,17.04 Z M17.76,17.04 L17.76,18.48 L13.6,18.48 L13.6,17.04 L17.76,17.04 Z M20.112,-5.32907052e-15 L20.296,0.176 L20.48,0.344 L20.48,12.616 L20.064,13 L10.24,13 L0.416,13 L2.02889192e-14,12.616 L1.87889718e-14,0.368 L0.176,0.184 L0.344,-3.55271368e-15 L20.112,-5.32907052e-15 Z M39.52,1.44 L23.28,1.44 L23.28,12.96 L39.52,12.96 L39.52,1.44 Z M26.64,4.72 L26.64,11.68 L25.2,11.68 L25.2,4.72 L26.64,4.72 Z M13.6,1.44 L1.44,1.44 L1.44,11.6 L7.52,11.6 L13.6,11.6 L13.6,1.44 Z M19.04,1.44 L15.04,1.44 L15.04,11.6 L19.04,11.6 L19.04,1.44 Z M16.568,8.624 C17.288,8.24 18.104,8.744 18.104,9.568 C18.104,10.656 16.592,11.024 16.128,10.04 C15.872,9.504 16.064,8.896 16.568,8.624 Z M11.928,2.72 L12.12,2.92 L12.32,3.112 L12.32,9.848 L12.12,10.04 L11.928,10.24 L3.088,10.24 L2.904,10.064 L2.72,9.896 L2.72,3.112 L2.92,2.92 L3.112,2.72 L11.928,2.72 Z M10.88,4.16 L4.16,4.16 L4.16,8.8 L10.88,8.8 L10.88,4.16 Z M17.76,5.44 L17.76,6.88 L16.32,6.88 L16.32,5.44 L17.76,5.44 Z M17.76,2.72 L17.76,4.16 L16.32,4.16 L16.32,2.72 L17.76,2.72 Z" id="Combined-Shape"></path>
                </g>
            </g>
        </g>
    </g>
</svg>