<?xml version="1.0" encoding="UTF-8"?>
<svg width="47px" height="47px" viewBox="0 0 47 47" version="1.1" xmlns="http://www.w3.org/2000/svg" xmlns:xlink="http://www.w3.org/1999/xlink">
    <title>svg/entertainment_ic</title>
    <g id="Page-1" stroke="none" stroke-width="1" fill="none" fill-rule="evenodd">
        <g id="Product-All-Category" transform="translate(-169.000000, -930.000000)" fill="#47CDFE" fill-rule="nonzero">
            <g id="Group-2" transform="translate(146.000000, 911.000000)">
                <g id="entertainment_ic" transform="translate(23.000000, 19.000000)">
                    <path d="M0.198,45.873 C0.072,45.738 0,45.549 0,45.351 C0,44.928 0.792,42.597 0.999,42.399 C1.125,42.282 1.764,42.138 3.384,41.868 C4.599,41.67 5.607,41.49 5.616,41.472 C5.634,41.454 6.579,39.726 7.731,37.62 C9.117,35.082 9.81,33.732 9.774,33.615 C9.756,33.516 9.666,33.192 9.585,32.895 C9.468,32.49 9.441,32.139 9.477,31.5 C9.54,30.096 10.098,29.025 11.187,28.17 C11.637,27.819 11.844,27.531 12.753,26.028 L13.797,24.291 L14.553,12.528 C14.967,6.057 15.327,0.675 15.354,0.558 C15.372,0.45 15.471,0.279 15.57,0.18 C15.732,0.018 15.876,0 17.244,0 C18.063,0 18.801,0.036 18.891,0.09 C19.134,0.216 19.224,0.513 19.62,2.475 L19.98,4.275 L20.745,5.418 C21.744,6.921 21.744,6.885 20.772,8.352 L20.043,9.459 L20.376,15.372 C20.556,18.621 20.736,21.402 20.772,21.546 C20.826,21.771 21.096,21.942 22.905,22.941 C24.048,23.571 28.944,26.271 33.795,28.953 C38.646,31.626 43.353,34.191 44.253,34.641 C45.162,35.091 45.936,35.532 45.99,35.631 C46.044,35.739 46.08,36.558 46.08,37.701 L46.08,39.591 L45.846,39.771 C45.711,39.879 45.486,39.96 45.351,39.96 C45.207,39.96 44.226,39.618 43.182,39.195 L41.265,38.43 L39.69,38.43 C38.43,38.43 38.07,38.403 37.917,38.295 C37.791,38.205 37.602,37.791 37.359,37.053 L36.981,35.937 L30.456,33.039 L23.922,30.132 L23.391,30.366 C22.14,30.906 20.781,31.077 19.521,30.834 C18.396,30.627 18.45,30.6 18.45,31.212 L18.45,31.734 L19.827,32.4 L21.195,33.075 L25.425,37.278 L29.655,41.481 L31.86,41.85 C33.075,42.057 34.146,42.273 34.245,42.336 C34.344,42.408 34.812,43.029 35.28,43.74 C36.216,45.153 36.306,45.441 35.91,45.855 L35.703,46.08 L32.166,46.08 C28.809,46.08 28.602,46.071 28.134,45.891 C27.702,45.729 27.099,45.207 23.382,41.787 C21.042,39.636 18.954,37.701 18.747,37.503 L18.369,37.143 L18.909,38.394 C19.53,39.825 19.737,40.545 19.692,41.076 L19.665,41.445 L20.115,41.454 C21.267,41.49 22.185,42.372 22.293,43.551 C22.419,44.973 21.411,46.08 19.989,46.08 C18.846,46.071 18.081,45.495 17.703,44.352 C17.658,44.217 17.613,44.217 17.181,44.343 C16.065,44.667 14.679,44.343 13.824,43.56 C13.32,43.101 13.113,42.732 12.555,41.382 C12.312,40.797 12.087,40.32 12.06,40.32 C12.024,40.32 11.295,41.382 10.431,42.669 C9.441,44.163 8.712,45.162 8.442,45.405 C7.704,46.071 7.623,46.08 3.78,46.08 L0.387,46.08 L0.198,45.873 Z M7.056,44.388 C7.083,44.343 6.831,44.037 6.489,43.704 L5.886,43.101 L4.221,43.38 C2.052,43.74 2.196,43.695 2.079,44.019 C2.025,44.181 1.98,44.343 1.98,44.379 C1.98,44.478 6.993,44.487 7.056,44.388 Z M20.475,44.235 C20.754,43.965 20.763,43.641 20.493,43.326 C20.34,43.146 20.196,43.083 19.98,43.083 C19.629,43.083 19.26,43.443 19.26,43.794 C19.26,44.109 19.638,44.46 19.98,44.46 C20.151,44.46 20.34,44.379 20.475,44.235 Z M33.597,44.181 C33.507,44.028 33.39,43.875 33.345,43.83 C33.291,43.785 32.301,43.587 31.14,43.398 C29.205,43.074 29.016,43.056 28.917,43.191 C28.854,43.272 28.683,43.506 28.53,43.713 L28.26,44.082 L28.557,44.271 C28.827,44.451 28.971,44.46 31.302,44.46 L33.759,44.46 L33.597,44.181 Z M10.755,39.231 C12.429,36.702 13.338,35.415 13.482,35.361 C13.599,35.316 14.823,35.28 16.2,35.28 L18.702,35.28 L19.008,35.523 C19.287,35.757 25.902,41.841 26.685,42.588 L27.054,42.93 L27.387,42.48 C27.567,42.237 27.72,42.003 27.72,41.967 C27.72,41.922 26.046,40.23 24.012,38.187 L20.295,34.488 L18.666,33.669 C17.433,33.048 17.019,32.796 16.938,32.625 C16.866,32.481 16.83,31.887 16.83,31.05 L16.83,29.7 L17.091,29.412 L17.343,29.124 L18.369,29.124 C18.936,29.124 19.719,29.178 20.115,29.241 C20.745,29.349 20.925,29.349 21.546,29.223 C21.969,29.133 22.545,28.926 22.977,28.71 C23.481,28.449 23.778,28.35 23.931,28.377 C24.066,28.404 26.631,29.52 29.646,30.861 C32.661,32.202 35.154,33.3 35.181,33.3 C35.262,33.3 36.126,32.13 36.081,32.094 C36.063,32.085 32.301,30.006 27.729,27.486 C23.157,24.966 19.359,22.824 19.296,22.716 C19.206,22.59 19.089,21.087 18.855,17.208 C18.684,14.283 18.54,11.808 18.54,11.7 C18.54,11.529 18.486,11.52 17.415,11.52 C16.326,11.52 16.29,11.529 16.254,11.727 C16.227,11.835 16.029,14.832 15.804,18.387 L15.39,24.849 L14.139,26.937 C13.023,28.782 12.834,29.052 12.474,29.277 C11.619,29.817 11.07,30.762 11.07,31.725 C11.07,32.031 11.169,32.526 11.34,33.021 C11.484,33.471 11.583,33.903 11.547,33.993 C11.52,34.083 10.521,35.928 9.333,38.106 L7.182,42.057 L7.659,42.534 C7.92,42.804 8.163,43.02 8.19,43.02 C8.217,43.02 9.369,41.31 10.755,39.231 Z M16.974,42.669 C17.433,42.462 17.865,41.94 17.991,41.436 C18.108,40.968 18.108,40.851 18.009,40.689 C17.856,40.446 16.722,41.562 16.065,42.597 L15.912,42.84 L16.254,42.84 C16.452,42.84 16.767,42.759 16.974,42.669 Z M15.543,40.545 C15.786,40.248 16.299,39.762 16.668,39.465 L17.352,38.934 L17.136,38.43 C16.812,37.701 16.65,37.512 16.11,37.242 C15.399,36.873 14.805,36.927 14.139,37.422 C13.716,37.737 13.374,38.511 13.437,39.006 C13.491,39.366 14.328,41.499 14.517,41.742 C14.58,41.823 14.661,41.751 14.841,41.472 C14.976,41.256 15.291,40.842 15.543,40.545 Z M44.46,37.233 L44.46,36.585 L43.137,35.919 C42.399,35.559 40.86,34.74 39.699,34.092 C38.547,33.453 37.584,32.949 37.557,32.967 C37.44,33.093 36.81,33.975 36.81,34.02 C36.81,34.056 37.08,34.191 37.422,34.326 C37.755,34.461 38.097,34.641 38.178,34.713 C38.259,34.785 38.475,35.289 38.655,35.829 L38.988,36.81 L40.311,36.81 L41.634,36.81 L42.93,37.341 C43.65,37.638 44.289,37.881 44.352,37.881 C44.424,37.89 44.46,37.701 44.46,37.233 Z M18.396,9.468 C18.342,9.054 18.36,9.018 18.99,8.064 C19.35,7.524 19.656,7.029 19.683,6.966 C19.701,6.903 19.431,6.426 19.08,5.895 L18.441,4.941 L18.108,3.276 L17.775,1.62 L17.352,1.62 C16.947,1.62 16.929,1.629 16.884,1.917 C16.839,2.169 16.371,9.504 16.38,9.792 C16.38,9.873 16.65,9.9 17.415,9.9 L18.459,9.9 L18.396,9.468 Z" id="Shape" transform="translate(23.040000, 23.040000) scale(-1, 1) rotate(-180.000000) translate(-23.040000, -23.040000) "></path>
                </g>
            </g>
        </g>
    </g>
</svg>