<?xml version="1.0" encoding="UTF-8"?>
<svg width="39px" height="44px" viewBox="0 0 39 44" version="1.1" xmlns="http://www.w3.org/2000/svg" xmlns:xlink="http://www.w3.org/1999/xlink">
    <title>svg/Finance_services_ic</title>
    <g id="Page-1" stroke="none" stroke-width="1" fill="none" fill-rule="evenodd">
        <g id="Service-All-Category" transform="translate(-168.000000, -597.000000)" fill="#47CDFE" fill-rule="nonzero" stroke="#47CDFE" stroke-width="0.2">
            <g id="Group-2" transform="translate(146.000000, 577.000000)">
                <g id="Finance_services_ic" transform="translate(23.000000, 21.000000)">
                    <path d="M0.73336,28.3044 C0.9064,28.19728 1.18656,28.18904 2.2248,28.222 C2.9252,28.23848 4.27656,28.28792 5.22416,28.31264 C6.92984,28.36208 6.94632,28.37032 7.14408,28.57632 C7.30888,28.7576 7.3336,28.86472 7.3336,29.46624 L7.3336,29.46624 L7.3336,30.15016 L7.79504,29.94416 C9.15464,29.34264 10.89328,29.07072 12.35176,29.23552 C13.54656,29.36736 14.48592,29.64752 15.71368,30.2408 C17.27928,30.99888 17.23808,30.99064 20.1468,31.07304 C24.28328,31.19664 24.74472,31.2708 25.81592,32.00416 C26.26912,32.31728 26.87064,32.94352 27.09312,33.33904 C27.15904,33.46264 27.4804,33.3308 30.00184,32.14424 C31.5592,31.40264 33.05064,30.75168 33.3308,30.67752 C34.608,30.34792 36.1324,30.88352 36.92344,31.93824 C37.3684,32.52328 37.41784,32.86112 37.11296,33.19072 C36.89872,33.4132 25.7088,40.7056 24.67056,41.29064 C24.12672,41.59552 23.22032,41.90864 22.38808,42.0652 C21.62176,42.21352 19.8584,42.23 19.14976,42.09816 C18.88608,42.04872 16.67776,41.45544 14.2552,40.77152 C12.7767086,40.3571657 11.7468767,40.063889 10.9985022,39.8724711 L10.6945148,39.7966151 C9.1119986,39.4130903 8.96057959,39.5802514 8.05048,40.0464 C7.58904,40.28536 7.16056,40.51608 7.11112,40.56552 C7.05344,40.60672 7.004,40.80448 7.004,41.01048 C7.004,41.30712 6.95456,41.42248 6.7568,41.62848 L6.7568,41.62848 L6.50136,41.87568 L5.20768,41.82624 C4.49904,41.80152 3.13944,41.75208 2.19184,41.72736 C0.219556129,41.6678194 0.0889461694,41.695669 0.0821377432,40.7726341 L0.0828841761,40.3360676 C0.102146612,38.3205947 0.404675556,28.7055659 0.4532,28.56808 C0.48616,28.48568 0.60976,28.37032 0.73336,28.3044 Z M13.29112,30.89176 C12.66488,30.72696 10.9592,30.6116 10.4648,30.70224 C9.36064,30.90824 8.42128,31.2296 7.69616,31.66632 L7.69616,31.66632 L7.27592,31.91352 L7.21824,33.69336 C7.19352,34.67392 7.14408,36.23952 7.11936,37.17888 L7.11936,37.17888 L7.06168,38.88456 L7.58904,38.6044 C8.2812,38.2336 9.17112,38.03584 9.85504,38.09352 C10.1352,38.11824 12.36,38.70328 14.79904,39.3872 C17.50176,40.14528 19.49584,40.6644 19.92432,40.71384 C20.86368,40.8292 22.042,40.69736 23.072,40.35128 C23.78888,40.10408 24.31624,39.79096 29.63928,36.3384 C32.82816,34.2784 35.432,32.56448 35.432,32.53152 C35.432,32.39968 34.71512,32.11128 34.2784,32.07832 C34.2335137,32.0737663 34.1920683,32.0696235 34.1521137,32.0666578 L34.0736141,32.0625231 L34.0736141,32.0625231 L33.9956227,32.0628898 C33.588009,32.0787594 33.0619158,32.3294232 30.26552,33.6604 L30.26552,33.6604 L27.6864,34.87992 L27.6864,35.4732 C27.6864,36.00056 27.66168,36.08296 27.47216,36.26424 C27.4584267,36.2770578 27.4469822,36.289138 27.4366342,36.3004977 L27.4170467,36.3222613 L27.4170467,36.3222613 L27.3982629,36.3421335 L27.3982629,36.3421335 L27.378163,36.3601444 L27.378163,36.3601444 L27.3546269,36.3763243 C27.2810712,36.4196016 27.1406104,36.4411921 26.7162569,36.4441812 L26.4638838,36.4440427 C25.7450549,36.4393343 24.436483,36.4015733 22.0008,36.3384 C20.0232,36.28072 18.57296,36.2148 18.43288,36.15712 C18.15272,36.05 18.0456,35.86048 18.0456,35.48144 C18.0456,35.15184 18.2516,34.88816 18.55648,34.814 C18.6636,34.78928 20.41872,34.82224 22.454,34.87992 C24.49752,34.94584 26.17024,34.98704 26.17024,34.98704 C26.17848,34.9788 26.11256,34.7728 26.01368,34.5256 C25.77472,33.88288 25.01664,33.13304 24.3492,32.88584 C24.2823106,32.8606353 24.2203253,32.8381678 24.1573135,32.8179678 L24.0612847,32.7893097 C23.6026389,32.6629608 22.9484,32.6362165 20.0644,32.548 C17.04032,32.45736 16.8096,32.41616 15.0792,31.6004 C14.45296,31.30376 13.64544,30.9824 13.29112,30.89176 Z M1.8128,29.67224 L1.81259593,30.0893082 C1.80880247,30.4377958 1.75256276,32.739509 1.68096,35.33312 C1.61916,37.5716533 1.57452667,39.4782978 1.57090259,40.0612015 L1.5708324,40.1751747 C1.5712032,40.2189456 1.572192,40.242512 1.57384,40.24416 C1.59032,40.26064 2.49672,40.2936 3.59264,40.31832 L3.59264,40.31832 L5.57024,40.36776 L5.71032,35.08592 C5.78208774,32.5596955 5.82885253,30.4210168 5.83428178,29.9057154 L5.83453819,29.7957686 L5.83453819,29.7957686 C5.81744,29.77936 4.91104,29.7464 3.81512,29.72168 L3.81512,29.72168 L1.8128,29.67224 Z M17.9632,9.23704 C19.42992,9.04752 21.41576,9.31944 22.85776,9.89624 C27.26616,11.6596 29.81232,16.1916 29.046,20.9296 C28.37856,25.02488 25.16496,28.32088 21.03672,29.14488 C20.05616,29.3344 18.17744,29.3344 17.19688,29.14488 C15.29344,28.76584 13.57128,27.87592 12.1952,26.56576 C8.46248,22.99784 7.9928,17.28752 11.09104,13.15928 C12.71432,10.99216 15.19456,9.58312 17.9632,9.23704 Z M21.19328,10.90976 C20.28688,10.67904 18.746,10.5884 17.93024,10.712 C15.97736,11.02512 14.27168,11.91504 12.90384,13.35704 C11.75024,14.56832 11.02512,15.93616 10.69552,17.54296 C10.45656,18.68832 10.51424,20.50112 10.82736,21.53112 C11.67608,24.36568 13.6784,26.47512 16.41408,27.40624 C20.05616,28.64224 24.13496,27.21672 26.29384,23.95368 C27.22496,22.52816 27.604,21.30864 27.66168,19.5288 C27.69464,18.54824 27.66992,18.19392 27.53808,17.54296 C27.20848,15.92792 26.46688,14.52712 25.31328,13.33232 C24.1432,12.12104 22.77536,11.31352 21.19328,10.90976 Z M18.63888,12.74728 C18.83664,12.66488 19.3228,12.69784 19.45464,12.79672 C19.66888,12.96152 19.776,13.23344 19.776,13.62896 C19.776,13.98328 19.78424,13.99976 20.08912,14.0904 C20.50936,14.22224 21.16856,14.68368 21.44872,15.038 C21.81128,15.4912 22.02552,16.05152 22.06672,16.66128 C22.09968,17.16392 22.09144,17.2216 21.89368,17.41936 C21.73712,17.57592 21.5888,17.6336 21.35808,17.6336 C20.93784,17.6336 20.73184,17.40288 20.60824,16.77664 C20.50112,16.18336 20.20448,15.77136 19.74304,15.56536 C18.8696,15.16984 17.90552,15.64776 17.64184,16.6036 C17.47704,17.19688 17.83136,17.97144 18.39992,18.25984 C18.54,18.334 18.952,18.43288 19.3228,18.47408 C20.48464,18.59768 21.36632,19.1992 21.81952,20.17152 C22.01728,20.58352 22.042,20.74008 22.042,21.4652 C22.042,22.14088 22.00904,22.36336 21.86072,22.68472 C21.58056,23.28624 20.9296,23.92896 20.30336,24.19264 L20.30336,24.19264 L19.776,24.42336 L19.776,24.78592 C19.776,25.39568 19.52056,25.70056 19.02616,25.7088 C18.53176,25.7088 18.35048,25.49456 18.30928,24.87656 L18.30928,24.87656 L18.27632,24.3492 L17.8396,24.15968 C16.90848,23.74768 16.22456,22.75064 16.16688,21.72888 C16.13392,21.23448 16.1504,21.14384 16.32344,20.96256 C16.46352,20.81424 16.59536,20.7648 16.8508,20.7648 C17.29576,20.7648 17.47704,20.96256 17.60888,21.60528 C17.73248,22.2068 18.0044,22.58584 18.48232,22.81656 C18.93552,23.03904 19.29808,23.03904 19.75128,22.81656 C20.62472,22.39632 20.8884,21.30864 20.30336,20.54232 C20.01496,20.16328 19.58648,19.97376 18.91904,19.91608 C17.81488,19.8172 16.8508,19.158 16.40584,18.2104 C16.24928,17.87256 16.18336,17.5924 16.16688,17.08152 C16.12568,16.30696 16.25752,15.81256 16.66128,15.21104 C16.94144,14.78256 17.68304,14.214 18.05384,14.1316 C18.27632,14.08216 18.2928,14.05744 18.2928,13.67016 C18.2928,13.24992 18.4576,12.82144 18.63888,12.74728 Z M19.1168,0 C19.29808,0 19.50408,0.06592 19.61944,0.15656 L19.61944,0.15656 L19.8172,0.31312 L19.84192,3.914 L19.86664,7.50664 L19.61944,7.7456 C19.45464,7.91864 19.29808,7.9928 19.1168,7.9928 C18.93552,7.9928 18.77896,7.91864 18.61416,7.7456 L18.61416,7.7456 L18.36696,7.50664 L18.39168,3.914 L18.4164,0.31312 L18.61416,0.15656 C18.72952,0.06592 18.93552,0 19.1168,0 Z M13.9256,3.4608 C14.10688,3.4608 14.31288,3.52672 14.42824,3.61736 C14.626,3.77392 14.626,3.7904 14.65072,5.63616 L14.65072,5.63616 L14.67544,7.4984 L14.42824,7.7456 C14.26344,7.91864 14.10688,7.9928 13.9256,7.9928 C13.74432,7.9928 13.58776,7.91864 13.42296,7.7456 L13.42296,7.7456 L13.17576,7.4984 L13.20048,5.63616 C13.2252,3.7904 13.2252,3.77392 13.42296,3.61736 C13.53832,3.52672 13.74432,3.4608 13.9256,3.4608 Z M23.7724,3.6668 C24.0196,3.41136 24.53048,3.38664 24.81064,3.61736 C25.0084,3.77392 25.0084,3.7904 25.03312,5.63616 L25.03312,5.63616 L25.05784,7.4984 L24.81064,7.7456 C24.5552,8.00928 24.29152,8.05872 23.95368,7.90216 C23.6076,7.7456 23.5664,7.52312 23.5664,5.63616 L23.5668023,5.05100734 C23.5696188,3.86147 23.59215,3.83984 23.7724,3.6668 Z" id="Combined-Shape"></path>
                </g>
            </g>
        </g>
    </g>
</svg>