<?xml version="1.0" encoding="UTF-8"?>
<svg width="287px" height="206px" viewBox="0 0 287 206" version="1.1" xmlns="http://www.w3.org/2000/svg" xmlns:xlink="http://www.w3.org/1999/xlink">
    <title>svg/get_in_touch_illu</title>
    <defs>
        <path d="M3.05712,10.03392 C3.05712,10.0332 3.05712,10.0332 3.0564,10.0332 C1.86912,6.76728 0.86616,3.46392 0.44712,0.738 C0.86688,3.46392 1.87056,6.768 3.05712,10.03392 L3.05712,10.03392 Z M0.44712,0.738 C0.43416,0.65304 0.4212,0.56952 0.40752,0.48672 C0.4212,0.56952 0.43416,0.65304 0.44712,0.738 L0.44712,0.738 Z" id="path-1"></path>
    </defs>
    <g id="Page-1" stroke="none" stroke-width="1" fill="none" fill-rule="evenodd">
        <g id="Support" transform="translate(-44.000000, -120.000000)">
            <g id="get_in_touch_illu" transform="translate(44.000000, 120.000000)">
                <polygon id="Fill-1" fill="#ECECE8" points="263.1528 187.201479 287.00064 187.201479 287.00064 187.021479 263.1528 187.021479"></polygon>
                <polygon id="Fill-2" fill="#ECECE8" points="195.29136 189.154839 201.55032 189.154839 201.55032 188.974839 195.29136 188.974839"></polygon>
                <polygon id="Fill-3" fill="#ECECE8" points="248.61384 180.514839 262.43208 180.514839 262.43208 180.334839 248.61384 180.334839"></polygon>
                <polygon id="Fill-4" fill="#ECECE8" points="0.8424 181.725159 31.94136 181.725159 31.94136 181.545159 0.8424 181.545159"></polygon>
                <polygon id="Fill-5" fill="#ECECE8" points="38.35224 181.725159 42.912 181.725159 42.912 181.545159 38.35224 181.545159"></polygon>
                <polygon id="Fill-6" fill="#ECECE8" points="57.73104 184.764999 125.17776 184.764999 125.17776 184.584999 57.73104 184.584999"></polygon>
                <path d="M244.38816,137.958519 L241.2504,137.958519 C240.42456,137.958519 239.75496,137.288919 239.75496,136.463079 L239.75496,134.820759 C239.75496,133.994919 240.42456,133.325319 241.2504,133.325319 L244.38816,133.325319 L244.38816,137.958519" id="Fill-26" fill="#F8F7F5"></path>
                <path d="M279.20016,197.026599 C279.20016,201.529479 216.69912,205.179159 139.60008,205.179159 C62.50104,205.179159 0,201.529479 0,197.026599 C0,192.524439 62.50104,188.874039 139.60008,188.874039 C216.69912,188.874039 279.20016,192.524439 279.20016,197.026599" id="Fill-58" fill="#F8F7F5"></path>
                <path d="M194.7528,40.9428389 C192.8196,38.9297189 191.44008,35.1619589 190.7712,32.7751589 L187.74144,40.0752389 C188.73576,41.2517189 189.19944,42.9221189 188.86176,44.2634789 C188.8452,44.3282789 188.75376,45.5515589 186.7392,46.8057989 C186.7392,46.8057989 187.10712,54.1958789 191.50488,53.1453989 C195.90264,52.0956389 198.29592,43.3368389 198.29592,43.3368389 L198.61056,40.8513989 C198.61056,40.8513989 196.5456,42.5340389 194.7528,40.9428389" id="Fill-59" fill="#F2B9B5"></path>
                <path d="M156.54384,73.8165989 C156.54384,73.8165989 168.41376,74.3040389 173.6892,72.8589989 C178.96464,71.4132389 183.438,62.1986789 183.438,62.1986789 L177.42672,58.8765989 L171.44712,67.7714789 L156.55392,70.1553989 L152.27712,67.1105189 C152.27712,67.1105189 143.62992,65.2680389 143.62992,66.3861989 C143.62992,67.5036389 148.08456,68.4216389 148.08456,68.4216389 C148.08456,68.4216389 148.34664,73.7359589 150.1812,73.8957989 C152.01576,74.0556389 156.54384,73.8165989 156.54384,73.8165989" id="Fill-60" fill="#F2B9B5"></path>
                <path d="M185.60232,48.4135589 C185.60232,48.4135589 180.46224,49.1328389 177.10056,55.3622789 C173.73888,61.5917189 176.60592,61.8365189 179.4528,63.5997989 C182.3004,65.3623589 183.726,65.7360389 185.03352,61.9142789 C186.34104,58.0917989 188.92728,48.0312389 185.60232,48.4135589" id="Fill-61" fill="#426AA5"></path>
                <path d="M175.35024,23.6131589 C175.35024,23.6131589 171.60696,24.9386789 174.07872,28.7510789 C176.55048,32.5641989 171.56448,35.1468389 179.95032,36.2001989 C188.33616,37.2535589 180.24624,22.0831589 180.24624,22.0831589 L175.35024,23.6131589" id="Fill-62" fill="#1A282B"></path>
                <path d="M207.59904,47.5178789 C206.34696,39.3653189 201.59856,39.5085989 196.97544,41.3301989 C197.29944,44.4024389 197.3088,48.3206789 192.87,50.7578789 C188.87328,52.9524389 187.31448,49.3502789 187.22736,46.2758789 C183.04128,48.6605189 179.53704,51.7190789 180.68472,57.7685189 C181.34136,61.2302789 184.39056,65.0239589 187.5168,69.8400389 C191.25288,75.5957189 195.09768,82.1397989 195.09768,82.1397989 L216.45576,71.2634789 C216.45576,71.2634789 208.95768,56.3558789 207.59904,47.5178789" id="Fill-63" fill="#0048F7"></path>
                <g id="Group-66" transform="translate(207.151920, 46.779879)">
                    <mask id="mask-2" fill="white">
                        <use xlink:href="#path-1"></use>
                    </mask>
                    <g id="Clip-65"></g>
                    <polygon id="Fill-64" fill="#C9C8C3" mask="url(#mask-2)" points="0.40752 10.03392 3.05712 10.03392 3.05712 0.48672 0.40752 0.48672"></polygon>
                </g>
                <path d="M210.20832,56.8130789 C205.47288,52.8444389 201.90888,46.5703589 201.90888,46.5703589 L203.59296,43.8876389 L206.8272,44.4348389 C207.12888,45.2369189 207.37728,46.1729189 207.55944,47.2665989 C207.57312,47.3493989 207.58608,47.4329189 207.59904,47.5178789 C208.01808,50.2437989 209.02104,53.5471589 210.20832,56.8130789" id="Fill-67" fill="#2F5B99"></path>
                <path d="M213.31008,44.9273189 C213.31008,44.9273189 220.63824,49.9413989 222.876,51.8717189 C226.20744,54.7473989 235.19232,64.4508389 235.19232,64.4508389 L240.69528,67.4640389 L240.69528,70.9445189 L238.0932,72.7445189 C237.2904,73.2989189 236.18952,73.0893989 235.64664,72.2786789 L232.30944,67.2912389 C232.30944,67.2912389 224.0712,59.7629189 221.04144,57.6173189 C218.4804,55.8029189 210.16584,51.3475589 210.16584,51.3475589 L213.31008,44.9273189" id="Fill-68" fill="#F2B9B5"></path>
                <path d="M199.782,40.5749189 C199.782,40.5749189 204.49872,38.4501989 208.52784,40.5749189 C212.55696,42.6996389 214.32744,43.8696389 213.93288,46.4342789 C213.53976,48.9895589 212.06592,54.2959589 209.41272,53.4110789 C206.7588,52.5269189 198.30744,44.1497189 199.782,40.5749189" id="Fill-69" fill="#0048F7"></path>
                <path d="M191.89008,26.6969189 C192.43512,32.2149989 192.78648,34.5377189 190.48032,37.7856389 C187.01136,42.6737189 180.11808,42.1394789 177.93144,36.8964389 C175.96512,32.1775589 175.40136,23.9529989 180.39456,20.9153189 C183.95136,18.7265189 188.60832,19.8353189 190.79712,23.3921189 C191.41344,24.3936389 191.78784,25.5247589 191.89008,26.6969189" id="Fill-70" fill="#F2B9B5"></path>
                <path d="M180.288,30.9175589 C180.05688,31.9961189 179.67816,33.0386789 179.16264,34.0142789 C179.6724,34.2705989 180.27,34.2878789 180.79344,34.0617989 L180.288,30.9175589" id="Fill-71" fill="#E88143"></path>
                <path d="M183.97296,27.2318789 L184.0536,27.1512389 C184.11408,27.0461189 184.07736,26.9121989 183.97224,26.8517189 L183.96792,26.8495589 C183.25152,26.4168389 182.3688,26.3606789 181.60344,26.6990789 C181.49832,26.7573989 181.458,26.8877189 181.51056,26.9957189 C181.566,27.1015589 181.69488,27.1440389 181.80216,27.0914789 C182.43864,26.8221989 183.16584,26.8754789 183.75696,27.2340389 C183.82464,27.2707589 183.906,27.2700389 183.97296,27.2318789" id="Fill-72" fill="#1A282B"></path>
                <path d="M175.72968,28.6214789 L175.82184,28.5552389 C176.25456,28.0202789 176.91696,27.7243589 177.60384,27.7596389 C177.72408,27.7769189 177.83496,27.6926789 177.85152,27.5731589 L177.85224,27.5702789 C177.86448,27.4485989 177.77808,27.3391589 177.6564,27.3233189 C176.82192,27.2700389 176.01192,27.6228389 175.48272,28.2708389 C175.40064,28.3601189 175.4064,28.4990789 175.49568,28.5811589 C175.55904,28.6394789 175.65048,28.6553189 175.72968,28.6214789" id="Fill-73" fill="#1A282B"></path>
                <path d="M183.30984,29.6755589 C183.38184,30.1176389 183.204,30.5150789 182.91024,30.5654789 C182.61648,30.6151589 182.32776,30.2925989 182.25864,29.8433189 C182.19024,29.3933189 182.36448,29.0037989 182.6532,28.9555589 C182.9412,28.9073189 183.23496,29.2284389 183.30984,29.6755589" id="Fill-74" fill="#1A282B"></path>
                <path d="M178.28064,30.4884389 C178.35336,30.9297989 178.17552,31.3279589 177.8868,31.3754789 C177.5988,31.4237189 177.30504,31.1033189 177.23016,30.6554789 C177.156,30.2083589 177.336,29.8159589 177.624,29.7677189 C177.912,29.7201989 178.21224,30.0384389 178.28064,30.4884389" id="Fill-75" fill="#1A282B"></path>
                <path d="M177.75576,29.7713189 L176.63904,29.6381189 C176.63904,29.6381189 177.32376,30.3804389 177.75576,29.7713189" id="Fill-76" fill="#1A282B"></path>
                <path d="M182.78424,28.9591589 L181.66752,28.8252389 C181.66752,28.8252389 182.35224,29.5675589 182.78424,28.9591589" id="Fill-77" fill="#1A282B"></path>
                <path d="M184.38336,36.1094789 C184.65768,35.9733989 184.91832,35.8128389 185.16384,35.6299589 C185.23512,35.5781189 185.25096,35.4780389 185.19912,35.4074789 L185.19624,35.4031589 C185.1444,35.3333189 185.04648,35.3174789 184.97592,35.3678789 C183.888,36.2066789 182.46744,36.4824389 181.1448,36.1101989 C181.062,36.0777989 180.9684,36.1195589 180.936,36.2023589 C180.90432,36.2858789 180.94536,36.3787589 181.02816,36.4111589 C182.14344,36.7481189 183.34656,36.6401189 184.38336,36.1094789" id="Fill-78" fill="#1A282B"></path>
                <path d="M179.97768,23.6736389 C177.83496,23.9285189 172.05624,25.5737189 172.97352,20.2010789 C173.89008,14.8291589 184.176,12.1428389 188.95896,15.6153989 C193.7412,19.0872389 197.41032,18.8258789 201.20976,16.0085189 C205.00992,13.1911589 206.84376,14.3049989 211.69224,16.9257989 C211.69224,16.9257989 209.07144,21.4459589 210.31632,24.1977989 C210.31632,24.1977989 207.43344,21.3149189 202.06152,24.3943589 C202.06152,24.3943589 208.2852,22.7412389 210.64392,27.0403589 C210.64392,27.0403589 209.98872,31.7865989 212.28192,34.6089989 C214.5744,37.4313989 212.2164,40.7729189 203.43744,37.3658789 C198.30024,35.3721989 195.84864,35.6155589 194.29344,35.8589189 C193.19112,36.0317189 192.53952,36.2045189 191.70072,35.5802789 C189.67896,34.0754789 188.15544,30.0017189 187.84512,27.0403589 C187.62192,24.9127589 186.6708,22.8773189 179.97768,23.6736389" id="Fill-79" fill="#1A282B"></path>
                <path d="M192.6432,30.4927589 C192.50424,31.5561989 191.9484,32.5202789 191.09736,33.1725989 C189.96264,34.0286789 188.87904,33.1409189 188.76024,31.7988389 C188.65368,30.5957189 189.1152,28.6941989 190.46376,28.3644389 C191.45232,28.1541989 192.42504,28.7856389 192.63528,29.7749189 C192.68496,30.0110789 192.68784,30.2551589 192.6432,30.4927589" id="Fill-80" fill="#F2B9B5"></path>
                <path d="M221.56344,183.064359 C221.7564,187.668039 221.89032,191.314119 221.89032,191.314119 L216.78048,191.898039 C216.78048,191.898039 216.29016,188.786199 215.55288,184.014759 L221.56344,183.064359" id="Fill-81" fill="#F2B9B5"></path>
                <path d="M213.64272,189.851799 C213.56424,189.855399 213.4872,189.871239 213.41304,189.897159 C213.31368,189.920199 213.23016,189.988599 213.18696,190.081479 C213.10632,190.236999 213.14232,190.308279 213.17976,190.347159 C213.43824,190.664679 214.72704,190.590519 215.66952,190.411959 C215.0352,190.098759 214.3476,189.908679 213.64272,189.851799 Z M214.51896,190.794279 C213.88392,190.833879 213.22008,190.760439 212.99184,190.501239 C212.87304,190.347879 212.86296,190.136919 212.96736,189.973479 C213.0444,189.828039 213.174,189.717879 213.33096,189.666039 C214.16832,189.377319 216.01584,190.281639 216.0972,190.321959 L216.16344,190.443639 L216.072,190.549479 C215.56224,190.676199 215.0424,190.758279 214.51896,190.794279 L214.51896,190.794279 Z" id="Fill-82" fill="#426AA5"></path>
                <path d="M214.67232,188.559399 L214.60176,188.557959 C214.38576,188.590359 214.37712,188.678919 214.36992,188.710599 C214.36056,189.059079 215.22096,189.873399 215.8776,190.207479 C215.7804,189.632199 215.50896,189.100839 215.09928,188.685399 C214.97688,188.593239 214.82496,188.548599 214.67232,188.560119 L214.67232,188.559399 Z M216.05256,190.548759 L216.00216,190.547319 C215.37432,190.315479 214.07616,189.285879 214.14816,188.704839 C214.15176,188.565159 214.24536,188.390199 214.57656,188.335479 C214.81776,188.294439 215.06616,188.353479 215.26272,188.498919 C215.94744,188.992839 216.17208,190.361559 216.18288,190.424919 L216.13536,190.537959 L216.05256,190.548759 L216.05256,190.548759 Z" id="Fill-83" fill="#426AA5"></path>
                <path d="M216.54792,189.800679 L222.1236,189.444999 C222.33384,189.431319 222.52536,189.565239 222.5844,189.767559 L223.88184,194.238759 C223.99992,194.634759 223.77456,195.051639 223.37856,195.169719 L223.22304,195.198519 C221.21064,195.292119 219.4164,195.295719 216.9144,195.459159 C213.96168,195.648519 214.7328,195.953799 211.26456,196.225239 C209.1744,196.385799 208.64016,194.032839 209.51928,193.859319 C213.54624,193.088919 213.88968,191.836119 215.3628,190.283799 C215.68536,189.982839 216.10728,189.811479 216.54792,189.800679" id="Fill-84" fill="#1A282B"></path>
                <path d="M218.45664,74.4739589 L217.4832,70.9826789 C217.3644,70.5564389 216.88488,70.3447589 216.48888,70.5434789 L194.70384,81.5306789 C194.32296,81.7229189 194.19912,82.2060389 194.44104,82.5573989 L196.65,85.7664389 C196.65,85.7664389 202.05576,122.605239 204.3,134.850999 C206.58744,147.332919 214.78608,184.669959 214.78608,184.669959 C214.84008,184.946439 215.1036,185.130039 215.38152,185.084679 L221.7276,184.055079 C221.976,184.015479 222.1596,183.805959 222.16536,183.554679 C222.2388,180.371559 222.1884,160.254039 220.16088,146.022519 C219.43656,140.939319 217.728,136.865559 217.14696,134.064759 C216.50544,130.973799 217.4976,128.900919 217.88928,121.459719 C218.62656,107.447799 219.50712,85.3603589 218.45664,74.4739589" id="Fill-85" fill="#1B2F34"></path>
                <path d="M217.836,122.386359 C217.85472,122.086839 217.872,121.777959 217.88928,121.459719 C218.02104,118.954839 218.15712,116.192919 218.28672,113.281959 C218.15712,116.192919 218.02104,118.955559 217.88928,121.459719 C217.87272,121.778679 217.85472,122.087559 217.836,122.386359" id="Fill-86" fill="#797A76"></path>
                <path d="M217.68912,124.342599 C211.50648,111.898119 206.7984,92.0901989 206.7984,92.0901989 L209.4624,88.4671589 L212.28192,94.7563589 L218.5992,105.414519 C218.5056,108.100119 218.39904,110.747559 218.28672,113.281959 C218.15712,116.192919 218.02104,118.954839 217.88928,121.459719 C217.872,121.777959 217.85472,122.086839 217.836,122.386359 C217.79136,123.087639 217.74168,123.734919 217.68912,124.342599" id="Fill-87" fill="#0F1313"></path>
                <path d="M265.82832,165.453879 C268.48224,169.220199 270.20448,171.694839 270.20448,171.694839 L266.2236,174.951399 C266.2236,174.951399 264.12696,172.599879 260.92512,168.986919 L265.82832,165.453879" id="Fill-88" fill="#F2B9B5"></path>
                <path d="M262.1808,174.885159 L262.01232,175.047159 C261.94032,175.120599 261.9072,175.223559 261.92088,175.324359 C261.93816,175.500039 262.00728,175.539639 262.05912,175.552599 C262.44792,175.680039 263.49192,174.919719 264.18816,174.259479 C263.48544,174.339399 262.80432,174.551799 262.1808,174.885159 Z M263.4264,175.203399 C262.91448,175.581399 262.31616,175.878039 261.98424,175.782999 C261.80136,175.718919 261.67896,175.546839 261.67896,175.353159 C261.66456,175.188999 261.71352,175.025559 261.8172,174.898119 C262.36584,174.201879 264.40776,173.962119 264.49848,173.952039 L264.62016,174.018999 L264.60072,174.156519 C264.24072,174.539559 263.8476,174.889479 263.4264,175.203399 L263.4264,175.203399 Z" id="Fill-89" fill="#426AA5"></path>
                <path d="M262.3464,173.242119 L262.28664,173.278119 C262.12248,173.422839 262.1628,173.501319 262.17432,173.532279 C262.35504,173.829639 263.51928,174.049959 264.25296,173.975079 C263.85912,173.544519 263.3436,173.244279 262.77408,173.116119 C262.62144,173.104599 262.4688,173.149239 262.3464,173.242119 Z M264.58416,174.166599 L264.54096,174.193239 C263.8872,174.337959 262.2384,174.175239 261.98424,173.646759 C261.91224,173.527959 261.89568,173.329959 262.1448,173.104599 C262.32552,172.939719 262.566,172.855479 262.8108,172.870599 C263.6532,172.915239 264.58272,173.944839 264.62664,173.992359 L264.64824,174.113319 L264.58416,174.166599 L264.58416,174.166599 Z" id="Fill-90" fill="#426AA5"></path>
                <path d="M264.59568,173.270199 L269.09208,169.952439 C269.26056,169.828599 269.49456,169.836519 269.65368,169.975479 L273.1644,173.033319 C273.47832,173.301879 273.51432,173.774199 273.24504,174.088119 L273.12984,174.196119 C271.48824,175.363959 269.98128,176.338839 267.966,177.829959 C265.58496,179.586759 266.4,179.426199 263.62944,181.532199 C261.95904,182.797959 260.23608,181.108839 260.88192,180.486759 C263.8512,177.660039 263.46168,176.420919 263.85984,174.317799 C263.96856,173.889399 264.23064,173.517159 264.59568,173.270199" id="Fill-91" fill="#1A282B"></path>
                <path d="M202.50072,83.3565989 C202.50072,83.3565989 219.18528,121.818279 227.06856,133.278519 C234.06912,143.455719 260.66736,169.506039 260.66736,169.506039 C261.0756,169.946679 261.75888,169.986999 262.2168,169.597479 L265.90896,166.459719 C266.33016,166.101879 266.4288,165.490599 266.13936,165.019719 C263.87568,161.326839 254.32344,145.971399 245.9484,135.979239 C242.60832,131.993319 239.3928,129.075159 237.81312,126.875559 C235.72944,123.975399 236.2176,121.646919 234.56808,113.590839 C231.5016,98.6119589 225.52992,76.5799589 216.45576,73.0541189 L202.50072,83.3565989" id="Fill-92" fill="#1B2F34"></path>
                <path d="M170.29656,192.017559 L170.29656,192.017559 C172.64808,192.017559 174.85992,191.064279 176.53608,189.523479 C174.86064,191.064279 172.64808,192.017559 170.29656,192.017559" id="Fill-93" fill="#B8CBDF"></path>
                <path d="M170.62704,188.237559 L102.66624,188.237559 C100.49184,188.237559 98.784,186.765159 98.40528,184.764999 L125.17776,184.764999 L125.17776,184.584999 L98.37504,184.584999 C98.34336,184.370439 98.3267458,184.150119 98.3267458,183.925479 C98.3267458,183.785799 98.33256,183.644679 98.3448,183.502119 L99.03528,175.612359 L176.46696,175.612359 L175.7772,183.502119 C175.54824,186.113559 173.23848,188.237559 170.62704,188.237559 L170.62704,188.237559 Z M176.4828,175.432359 L99.05112,175.432359 L101.86056,143.321079 L119.25432,143.321079 C119.81736,144.361479 120.91536,145.051959 122.2344,145.051959 L136.97568,145.051959 C139.0176,145.051959 140.8176,143.397399 140.99616,141.355479 L142.28568,126.614199 C142.46424,124.572279 140.95368,122.916999 138.91176,122.916999 L137.83104,122.916999 L137.83104,115.693959 C138.49344,116.120199 139.29336,116.365719 140.17248,116.365719 L146.31552,116.365719 L146.31552,139.211319 C146.31552,141.477879 148.15944,143.321079 150.42456,143.321079 L179.29224,143.321079 L176.4828,175.432359 L176.4828,175.432359 Z M179.30808,143.141079 L150.42456,143.141079 C148.25808,143.141079 146.49552,141.378519 146.49552,139.211319 L146.49552,116.365719 L158.59872,116.365719 C161.15112,116.365719 163.40112,114.296439 163.62432,111.744039 L165.2364,93.3177989 C165.4596,90.7653989 163.57176,88.6961189 161.01936,88.6961189 L146.49552,88.6961189 L146.49552,83.6741189 C149.058,83.4552389 151.2396,81.3218789 151.46712,78.7219589 L151.88472,73.9512389 C151.90704,73.9512389 151.92864,73.9512389 151.95096,73.9512389 C153.99864,73.9512389 156.54384,73.8165989 156.54384,73.8165989 C156.54384,73.8165989 158.46984,73.8957989 161.11512,73.8957989 C165.03624,73.8957989 170.53848,73.7222789 173.6892,72.8589989 C177.13368,71.9150789 180.23544,67.6598789 181.97424,64.8194789 C182.15496,64.8597989 182.32776,64.8806789 182.49336,64.8806789 C182.98152,64.8806789 183.40992,64.6985189 183.80376,64.2823589 C184.4604,65.2910789 185.1804,66.3444389 185.92992,67.4525189 L179.30808,143.141079 L179.30808,143.141079 Z M181.537918,107.508999 C181.5372,107.777559 181.75824,107.922279 181.97568,107.922279 C182.17656,107.922279 182.37456,107.799879 182.39688,107.540679 C182.49192,106.459239 182.58624,105.377799 182.68056,104.296359 C182.682,104.281239 182.682722,104.266839 182.682722,104.252439 C182.68344,103.983159 182.46312,103.839159 182.24496,103.839159 C182.0448,103.839159 181.84608,103.960839 181.82376,104.220759 C181.72944,105.301479 181.6344,106.382919 181.53936,107.464359 C181.53864,107.479479 181.537918,107.494599 181.537918,107.508999 L181.537918,107.508999 Z M182.183758,100.128999 C182.18304,100.397559 182.40336,100.542279 182.62152,100.542279 C182.82168,100.542279 183.0204,100.419879 183.04272,100.160679 C183.37176,96.3965189 183.70152,92.6337989 184.03056,88.8696389 C184.032,88.8545189 184.03272,88.8401189 184.03272,88.8257189 C184.03272,88.5571589 183.8124,88.4131589 183.59496,88.4131589 C183.39408,88.4131589 183.19608,88.5348389 183.17304,88.7947589 C182.844,92.5574789 182.51496,96.3216389 182.1852,100.084359 C182.18448,100.099479 182.183758,100.114599 182.183758,100.128999 L182.183758,100.128999 Z M119.1636,143.141079 L101.87568,143.141079 L113.27616,12.8325989 C113.50512,10.2218789 115.81488,8.09787891 118.42632,8.09787891 L137.65104,8.09787891 L137.65104,25.5557189 C136.33272,26.2713989 135.3672,27.6221189 135.23184,29.1715589 L133.78104,45.7553189 C133.58016,48.0521189 135.27864,49.9147589 137.57616,49.9147589 L137.65104,49.9147589 L137.65104,53.9323589 L128.84688,53.9323589 C126.10152,53.9323589 123.6816,56.1578789 123.44184,58.9032389 L121.70736,78.7219589 C121.4676,81.4673189 123.498,83.6928389 126.24336,83.6928389 L137.65104,83.6928389 L137.65104,92.7525989 C137.61216,92.9376389 137.58408,93.1262789 137.56752,93.3177989 L135.95544,111.744039 C135.81576,113.335959 136.49832,114.740679 137.65104,115.571559 L137.65104,122.916999 L124.1712,122.916999 C122.12928,122.916999 120.32928,124.572279 120.15072,126.614199 L118.8612,141.355479 C118.80432,142.002759 118.91736,142.611879 119.1636,143.141079 L119.1636,143.141079 Z M137.83104,92.1139589 L137.83104,83.6928389 L146.06208,83.6928389 C146.14704,83.6928389 146.23128,83.6906789 146.31552,83.6863589 L146.31552,88.6961189 L142.59312,88.6961189 C140.45688,88.6961189 138.53304,90.1454789 137.83104,92.1139589 L137.83104,92.1139589 Z M156.55392,70.1553989 L152.4708,67.2487589 L153.20088,58.9032389 C153.44136,56.1578789 151.41096,53.9323589 148.6656,53.9323589 L146.49552,53.9323589 L146.49552,49.9147589 L154.15992,49.9147589 C156.45744,49.9147589 158.48208,48.0521189 158.68296,45.7553189 L160.13376,29.1715589 C160.33464,26.8740389 158.63544,25.0121189 156.33864,25.0121189 L146.49552,25.0121189 L146.49552,8.09787891 L186.38712,8.09787891 C188.856,8.09787891 190.72296,9.99579891 190.726614,12.4092389 C190.72728,12.5489189 190.7208,12.6900389 190.70856,12.8325989 L190.3824,16.5585989 C189.91872,16.2821189 189.44424,15.9681989 188.95896,15.6153989 C187.48152,14.5433189 185.48064,14.0580389 183.39192,14.0580389 C178.71696,14.0580389 173.60712,16.4880389 172.97352,20.2010789 C172.57392,22.5417989 173.44584,23.5505189 174.73392,23.9227589 C174.10896,24.3072389 173.23416,25.0740389 173.23488,26.3556389 C173.23488,27.0129989 173.466,27.8057189 174.07872,28.7510789 C174.72312,29.7453989 174.86064,30.6561989 174.86064,31.4777189 C174.86064,32.0925989 174.78288,32.6585189 174.78288,33.1718789 C174.7836,34.2921989 175.15584,35.1641189 177.50952,35.7645989 C177.64128,36.1598789 177.7824,36.5385989 177.93144,36.8964389 C179.10144,39.7022789 181.61856,41.1588389 184.23792,41.1588389 C185.45904,41.1588389 186.70248,40.8420389 187.84152,40.1976389 C187.9956,40.3927589 188.136,40.6008389 188.25984,40.8168389 L187.80696,45.9965189 C187.64352,46.1505989 187.45344,46.3097189 187.23456,46.4709989 C187.23168,46.4054789 187.2288,46.3406789 187.22736,46.2758789 C185.68368,47.1557189 184.23288,48.1269989 183.07368,49.3056389 C181.3032,50.2013189 178.93656,51.9595589 177.10056,55.3622789 C175.44168,58.4359589 175.29984,60.0523589 175.92336,61.1136389 L171.44712,67.7714789 L156.55392,70.1553989 L156.55392,70.1553989 Z M137.83104,53.9323589 L146.31552,53.9323589 L146.31552,49.9147589 L137.83104,49.9147589 L137.83104,53.9323589 Z M137.83104,25.4628389 L137.83104,8.09787891 L146.31552,8.09787891 L146.31552,25.0121189 L139.75488,25.0121189 C139.07664,25.0121189 138.42216,25.1748389 137.83104,25.4628389 L137.83104,25.4628389 Z" id="Fill-94" fill="#BFD8FF"></path>
                <path d="M125.17776,184.764999 L98.40528,184.764999 C98.39376,184.705239 98.38368,184.645479 98.37504,184.584999 L125.17776,184.584999 L125.17776,184.764999" id="Fill-95" fill="#AFC2DA"></path>
                <path d="M119.25432,143.321079 L101.86056,143.321079 L101.87568,143.141079 L119.1636,143.141079 C119.1924,143.202279 119.22264,143.262039 119.25432,143.321079 L119.25432,143.321079 Z M137.83104,122.916999 L137.65104,122.916999 L137.65104,115.571559 C137.71008,115.614039 137.76984,115.655079 137.83104,115.693959 L137.83104,122.916999 L137.83104,122.916999 Z M137.65104,92.7525989 L137.65104,83.6928389 L137.83104,83.6928389 L137.83104,92.1139589 C137.75688,92.3213189 137.6964,92.5344389 137.65104,92.7525989 L137.65104,92.7525989 Z M137.65104,53.9323589 L137.83104,53.9323589 L137.83104,49.9147589 L137.65104,49.9147589 L137.65104,53.9323589 Z M137.65104,25.5557189 L137.65104,8.09787891 L137.83104,8.09787891 L137.83104,25.4628389 C137.77056,25.4923589 137.71008,25.5233189 137.65104,25.5557189 L137.65104,25.5557189 Z" id="Fill-96" fill="#AFC2DA"></path>
                <path d="M179.29224,143.321079 L150.42456,143.321079 C148.15944,143.321079 146.31552,141.477879 146.31552,139.211319 L146.31552,116.365719 L146.49552,116.365719 L146.49552,139.211319 C146.49552,141.378519 148.25808,143.141079 150.42456,143.141079 L179.30808,143.141079 L179.29224,143.321079 L179.29224,143.321079 Z M146.49552,88.6961189 L146.31552,88.6961189 L146.31552,83.6863589 C146.376,83.6834789 146.43576,83.6791589 146.49552,83.6741189 L146.49552,88.6961189 L146.49552,88.6961189 Z M146.31552,53.9323589 L146.49552,53.9323589 L146.49552,49.9147589 L146.31552,49.9147589 L146.31552,53.9323589 Z M146.31552,25.0121189 L146.49552,25.0121189 L146.49552,8.09787891 L146.31552,8.09787891 L146.31552,25.0121189 Z" id="Fill-97" fill="#AFC2DA"></path>
                <polyline id="Fill-98" fill="#AFC2DA" points="176.46696 175.612359 99.03528 175.612359 99.05112 175.432359 176.4828 175.432359 176.46696 175.612359"></polyline>
                <path d="M187.5816,48.5748389 C187.38072,47.9030789 187.26912,47.1765989 187.23456,46.4709989 C187.45344,46.3097189 187.64352,46.1505989 187.80696,45.9965189 L187.5816,48.5748389" id="Fill-99" fill="#C7A8C4"></path>
                <path d="M188.25984,40.8168389 C188.136,40.6008389 187.9956,40.3927589 187.84152,40.1976389 C187.9956,40.3920389 188.13528,40.5986789 188.26056,40.8139589 L188.25984,40.8168389" id="Fill-100" fill="#ABBFD8"></path>
                <path d="M188.26056,40.8139589 C188.13528,40.5986789 187.9956,40.3920389 187.84152,40.1976389 C188.01,40.1025989 188.17704,39.9996389 188.3412,39.8894789 L188.26056,40.8139589" id="Fill-101" fill="#B399B8"></path>
                <path d="M151.95096,73.9512389 C151.92864,73.9512389 151.90704,73.9512389 151.88472,73.9512389 L152.4708,67.2487589 L156.55392,70.1553989 L171.44712,67.7714789 L175.92336,61.1136389 C176.56344,62.2029989 178.01064,62.7062789 179.4528,63.5997989 C180.44856,64.2161189 181.2708,64.6625189 181.97424,64.8194789 C180.23544,67.6598789 177.13368,71.9150789 173.6892,72.8589989 C170.53848,73.7222789 165.03624,73.8957989 161.11512,73.8957989 C158.46984,73.8957989 156.54384,73.8165989 156.54384,73.8165989 C156.54384,73.8165989 153.99864,73.9512389 151.95096,73.9512389" id="Fill-102" fill="#C7A8C4"></path>
                <path d="M182.49336,64.8806789 C182.32776,64.8806789 182.15496,64.8597989 181.97424,64.8194789 C181.2708,64.6625189 180.44856,64.2161189 179.4528,63.5997989 C178.01064,62.7062789 176.56344,62.2029989 175.92336,61.1136389 C175.29984,60.0523589 175.44168,58.4359589 177.10056,55.3622789 C178.93656,51.9595589 181.3032,50.2013189 183.07368,49.3056389 C181.40256,51.0055589 180.33768,53.1360389 180.47664,56.0477189 C180.46224,56.2802789 180.20448,60.6060389 180.64224,64.2859589 C181.35144,64.6567589 181.9584,64.8763589 182.49408,64.8770789 C182.9808,64.8770789 183.4092,64.6949189 183.80232,64.2809189 C183.80304,64.2809189 183.80304,64.2816389 183.80376,64.2823589 C183.40992,64.6985189 182.98152,64.8806789 182.49336,64.8806789" id="Fill-103" fill="#426AA5"></path>
                <path d="M182.49408,64.8770789 C181.9584,64.8763589 181.35144,64.6567589 180.64224,64.2859589 C180.20448,60.6060389 180.46224,56.2802789 180.47664,56.0477189 C180.50256,56.5927589 180.57024,57.1658789 180.68472,57.7685189 C181.06632,59.7816389 182.25792,61.9070789 183.80232,64.2809189 C183.4092,64.6949189 182.9808,64.8770789 182.49408,64.8770789" id="Fill-104" fill="#3B66A2"></path>
                <path d="M177.50952,35.7645989 C175.15584,35.1641189 174.7836,34.2921989 174.78288,33.1718789 C174.78288,32.6585189 174.86064,32.0925989 174.86064,31.4777189 C174.86064,30.6561989 174.72312,29.7453989 174.07872,28.7510789 C173.466,27.8057189 173.23488,27.0129989 173.23488,26.3556389 C173.23416,25.0740389 174.10896,24.3072389 174.73392,23.9227589 C175.20336,24.0581189 175.72824,24.1085189 176.2668,24.1085189 C176.7204,24.1085189 177.18336,24.0725189 177.6312,24.0206789 C177.12216,25.0653989 176.8032,26.2382789 176.63904,27.4622789 C176.19264,27.6177989 175.79016,27.8942789 175.48272,28.2708389 C175.40064,28.3601189 175.4064,28.4990789 175.49568,28.5811589 C175.53744,28.6193189 175.59,28.6394789 175.644,28.6394789 C175.6728,28.6394789 175.70232,28.6337189 175.72968,28.6214789 L175.82184,28.5552389 C176.02992,28.2981989 176.29056,28.0965989 176.58144,27.9597989 C176.3172,30.6173189 176.74632,33.4685189 177.50952,35.7645989" id="Fill-105" fill="#1F3556"></path>
                <path d="M185.92992,67.4525189 C185.1804,66.3444389 184.4604,65.2910789 183.80376,64.2823589 C183.80304,64.2816389 183.80304,64.2809189 183.80232,64.2809189 C182.25792,61.9070789 181.06632,59.7816389 180.68472,57.7685189 C180.57024,57.1658789 180.50256,56.5927589 180.47664,56.0477189 C180.33768,53.1360389 181.40256,51.0055589 183.07368,49.3056389 C184.23288,48.1269989 185.68368,47.1557189 187.22736,46.2758789 C187.2288,46.3406789 187.23168,46.4054789 187.23456,46.4709989 C187.26912,47.1765989 187.38072,47.9030789 187.5816,48.5748389 L185.92992,67.4525189" id="Fill-106" fill="#426AA5"></path>
                <path d="M184.23792,41.1588389 C181.61856,41.1588389 179.10144,39.7022789 177.93144,36.8964389 C177.7824,36.5385989 177.64128,36.1598789 177.50952,35.7645989 C176.74632,33.4685189 176.3172,30.6173189 176.58144,27.9597989 C176.86368,27.8273189 177.17472,27.7567589 177.49368,27.7567589 C177.5304,27.7567589 177.56712,27.7574789 177.60384,27.7596389 C177.61392,27.7610789 177.62472,27.7617989 177.6348,27.7617989 C177.7428,27.7617989 177.8364,27.6825989 177.85152,27.5731589 L177.85224,27.5702789 C177.86448,27.4485989 177.77808,27.3391589 177.6564,27.3233189 C177.60096,27.3197189 177.54552,27.3182789 177.4908,27.3182789 C177.19776,27.3182789 176.91048,27.3679589 176.63904,27.4622789 C176.8032,26.2382789 177.12216,25.0653989 177.6312,24.0206789 C178.54416,23.9148389 179.3952,23.7427589 179.97768,23.6736389 C180.9936,23.5526789 181.87776,23.4972389 182.646,23.4972389 C186.94296,23.4972389 187.65576,25.2353189 187.84512,27.0403589 C187.97112,28.2413189 188.29656,29.6258789 188.77392,30.9470789 C188.7408,31.2480389 188.7372,31.5396389 188.76024,31.7988389 C188.78688,32.1012389 188.8632,32.3805989 188.97696,32.6217989 L188.3412,39.8894789 C188.17704,39.9996389 188.01,40.1025989 187.84152,40.1976389 C186.70248,40.8420389 185.45904,41.1588389 184.23792,41.1588389 M181.08648,36.0993989 C181.02168,36.0993989 180.9612,36.1382789 180.936,36.2023589 C180.90432,36.2858789 180.94536,36.3787589 181.02816,36.4111589 C181.4544,36.5400389 181.8936,36.6034012 182.33136,36.6034012 C183.03912,36.6041189 183.74256,36.4370789 184.38336,36.1094789 C184.65768,35.9733989 184.91832,35.8128389 185.16384,35.6299589 C185.23512,35.5781189 185.25096,35.4780389 185.19912,35.4074789 L185.19624,35.4031589 C185.16456,35.3606789 185.11704,35.3383589 185.06808,35.3383589 C185.03568,35.3383589 185.004,35.3477189 184.97592,35.3678789 C184.20696,35.9611589 183.27096,36.2721989 182.32128,36.2721989 C181.92816,36.2721989 181.53216,36.2189189 181.1448,36.1101989 C181.12536,36.1029989 181.10592,36.0993989 181.08648,36.0993989 M180.288,30.9175589 C180.05688,31.9961189 179.67816,33.0386789 179.16264,34.0142789 C179.4348,34.1510789 179.73144,34.2194789 180.0288,34.2194789 C180.28872,34.2194789 180.54936,34.1669189 180.79344,34.0617989 L180.288,30.9175589 M177.31656,30.0110789 C177.22584,30.1759589 177.18912,30.4070789 177.23016,30.6554789 C177.3,31.0730789 177.56064,31.3805189 177.8292,31.3805189 C177.84864,31.3805189 177.86736,31.3790789 177.8868,31.3754789 C178.17552,31.3279589 178.35336,30.9297989 178.28064,30.4884389 C178.21728,30.0708389 177.95448,29.7669989 177.68664,29.7633989 L176.63904,29.6381189 C176.63904,29.6381189 176.96952,29.9966789 177.31656,30.0110789 M182.3472,29.1981989 C182.25792,29.3630789 182.2212,29.5934789 182.25864,29.8433189 C182.32272,30.2616389 182.5776,30.5705189 182.84976,30.5705189 C182.86992,30.5705189 182.89008,30.5690789 182.91024,30.5654789 C183.204,30.5150789 183.38184,30.1176389 183.30984,29.6755589 C183.24072,29.2601189 182.98224,28.9541189 182.71512,28.9505189 L181.66752,28.8252389 C181.66752,28.8252389 181.99944,29.1852389 182.3472,29.1981989 M182.64024,26.9215589 C183.02904,26.9215589 183.41568,27.0266789 183.75696,27.2340389 C183.79008,27.2520389 183.8268,27.2613989 183.86352,27.2613989 C183.90096,27.2613989 183.93912,27.2513189 183.97296,27.2318789 L184.0536,27.1512389 C184.11408,27.0461189 184.07736,26.9121989 183.97224,26.8517189 L183.96792,26.8495589 C183.56256,26.6040389 183.10248,26.4801989 182.64168,26.4801989 C182.28888,26.4801989 181.93536,26.5529189 181.60344,26.6990789 C181.49832,26.7573989 181.458,26.8877189 181.51056,26.9957189 C181.55016,27.0705989 181.62648,27.1137989 181.70568,27.1137989 C181.73808,27.1137989 181.7712,27.1065989 181.80216,27.0914789 C182.07144,26.9777189 182.35656,26.9215589 182.64024,26.9215589" id="Fill-107" fill="#C7A8C4"></path>
                <path d="M180.0288,34.2194789 C179.73144,34.2194789 179.4348,34.1510789 179.16264,34.0142789 C179.67816,33.0386789 180.05688,31.9961189 180.288,30.9175589 L180.79344,34.0617989 C180.54936,34.1669189 180.28872,34.2194789 180.0288,34.2194789" id="Fill-108" fill="#BE7F70"></path>
                <path d="M183.86352,27.2613989 C183.8268,27.2613989 183.79008,27.2520389 183.75696,27.2340389 C183.41568,27.0266789 183.02904,26.9215589 182.64024,26.9215589 C182.35656,26.9215589 182.07144,26.9777189 181.80216,27.0914789 C181.7712,27.1065989 181.73808,27.1137989 181.70568,27.1137989 C181.62648,27.1137989 181.55016,27.0705989 181.51056,26.9957189 C181.458,26.8877189 181.49832,26.7573989 181.60344,26.6990789 C181.93536,26.5529189 182.28888,26.4801989 182.64168,26.4801989 C183.10248,26.4801989 183.56256,26.6040389 183.96792,26.8495589 L183.97224,26.8517189 C184.07736,26.9121989 184.11408,27.0461189 184.0536,27.1512389 L183.97296,27.2318789 C183.93912,27.2513189 183.90096,27.2613989 183.86352,27.2613989" id="Fill-109" fill="#214064"></path>
                <path d="M175.644,28.6394789 C175.59,28.6394789 175.53744,28.6193189 175.49568,28.5811589 C175.4064,28.4990789 175.40064,28.3601189 175.48272,28.2708389 C175.79016,27.8942789 176.19264,27.6177989 176.63904,27.4622789 C176.91048,27.3679589 177.19776,27.3182789 177.4908,27.3182789 C177.54552,27.3182789 177.60096,27.3197189 177.6564,27.3233189 C177.77808,27.3391589 177.86448,27.4485989 177.85224,27.5702789 L177.85152,27.5731589 C177.8364,27.6825989 177.7428,27.7617989 177.6348,27.7617989 C177.62472,27.7617989 177.61392,27.7610789 177.60384,27.7596389 C177.56712,27.7574789 177.5304,27.7567589 177.49368,27.7567589 C177.17472,27.7567589 176.86368,27.8273189 176.58144,27.9597989 C176.29056,28.0965989 176.02992,28.2981989 175.82184,28.5552389 L175.72968,28.6214789 C175.70232,28.6337189 175.6728,28.6394789 175.644,28.6394789" id="Fill-110" fill="#214064"></path>
                <path d="M182.84976,30.5705189 C182.5776,30.5705189 182.32272,30.2616389 182.25864,29.8433189 C182.2212,29.5934789 182.25792,29.3630789 182.3472,29.1981989 C182.35368,29.1989189 182.36016,29.1989189 182.36664,29.1989189 C182.51208,29.1989189 182.65896,29.1362789 182.78424,28.9591589 L182.71512,28.9505189 C182.98224,28.9541189 183.24072,29.2601189 183.30984,29.6755589 C183.38184,30.1176389 183.204,30.5150789 182.91024,30.5654789 C182.89008,30.5690789 182.86992,30.5705189 182.84976,30.5705189" id="Fill-111" fill="#214064"></path>
                <path d="M177.8292,31.3805189 C177.56064,31.3805189 177.3,31.0730789 177.23016,30.6554789 C177.18912,30.4070789 177.22584,30.1759589 177.31656,30.0110789 C177.32376,30.0110789 177.33096,30.0110789 177.33744,30.0110789 C177.48288,30.0110789 177.62976,29.9484389 177.75576,29.7713189 L177.68664,29.7633989 C177.95448,29.7669989 178.21728,30.0708389 178.28064,30.4884389 C178.35336,30.9297989 178.17552,31.3279589 177.8868,31.3754789 C177.86736,31.3790789 177.84864,31.3805189 177.8292,31.3805189" id="Fill-112" fill="#214064"></path>
                <path d="M177.33744,30.0110789 C177.33096,30.0110789 177.32376,30.0110789 177.31656,30.0110789 C176.96952,29.9966789 176.63904,29.6381189 176.63904,29.6381189 L177.68664,29.7633989 L177.75576,29.7713189 C177.62976,29.9484389 177.48288,30.0110789 177.33744,30.0110789" id="Fill-113" fill="#214064"></path>
                <path d="M182.36664,29.1989189 C182.36016,29.1989189 182.35368,29.1989189 182.3472,29.1981989 C181.99944,29.1852389 181.66752,28.8252389 181.66752,28.8252389 L182.71512,28.9505189 L182.78424,28.9591589 C182.65896,29.1362789 182.51208,29.1989189 182.36664,29.1989189" id="Fill-114" fill="#214064"></path>
                <path d="M182.33136,36.6034012 C181.8936,36.6034012 181.4544,36.5400389 181.02816,36.4111589 C180.94536,36.3787589 180.90432,36.2858789 180.936,36.2023589 C180.9612,36.1382789 181.02168,36.0993989 181.08648,36.0993989 C181.10592,36.0993989 181.12536,36.1029989 181.1448,36.1101989 C181.53216,36.2189189 181.92816,36.2721989 182.32128,36.2721989 C183.27096,36.2721989 184.20696,35.9611589 184.97592,35.3678789 C185.004,35.3477189 185.03568,35.3383589 185.06808,35.3383589 C185.11704,35.3383589 185.16456,35.3606789 185.19624,35.4031589 L185.19912,35.4074789 C185.25096,35.4780389 185.23512,35.5781189 185.16384,35.6299589 C184.91832,35.8128389 184.65768,35.9733989 184.38336,36.1094789 C183.74256,36.4370789 183.03912,36.6041189 182.33136,36.6034012" id="Fill-115" fill="#214064"></path>
                <path d="M188.77392,30.9470789 C188.29656,29.6258789 187.97112,28.2413189 187.84512,27.0403589 C187.65576,25.2353189 186.94296,23.4972389 182.646,23.4972389 C181.87776,23.4972389 180.9936,23.5526789 179.97768,23.6736389 C179.3952,23.7427589 178.54416,23.9148389 177.6312,24.0206789 C177.18336,24.0725189 176.7204,24.1085189 176.2668,24.1085189 C175.72824,24.1085189 175.20336,24.0581189 174.73392,23.9227589 C173.44584,23.5505189 172.57392,22.5417989 172.97352,20.2010789 C173.60712,16.4880389 178.71696,14.0580389 183.39192,14.0580389 C185.48064,14.0580389 187.48152,14.5433189 188.95896,15.6153989 C189.44424,15.9681989 189.91872,16.2821189 190.3824,16.5585989 L189.26352,29.3465189 C188.99064,29.8217189 188.83296,30.4005989 188.77392,30.9470789" id="Fill-116" fill="#214064"></path>
                <path d="M188.97696,32.6217989 C188.8632,32.3805989 188.78688,32.1012389 188.76024,31.7988389 C188.7372,31.5396389 188.7408,31.2480389 188.77392,30.9470789 C188.83296,30.4005989 188.99064,29.8217189 189.26352,29.3465189 L188.97696,32.6217989" id="Fill-117" fill="#C7A8C4"></path>
                <path d="M194.48856,12.8325989 C194.5116,12.5755589 194.5224,12.3213989 194.52168,12.0693989 C194.5224,12.3213989 194.5116,12.5755589 194.48856,12.8325989" id="Fill-118" fill="#C0D2E3"></path>
                <path d="M170.29656,192.017559 L170.29656,192.017559 C172.64808,192.017559 174.85992,191.064279 176.53608,189.523479 C174.85992,191.064279 172.64808,192.017559 170.29656,192.017559" id="Fill-120" fill="#E4ECF2"></path>
                <path d="M170.29656,192.017559 L102.33576,192.017559 C97.88976,192.017559 94.53744,188.609799 94.53168,184.265319 C94.53168,184.013319 94.54248,183.759159 94.5648,183.502119 L109.49616,12.8325989 C109.908,8.12955891 114.05376,4.31715891 118.7568,4.31715891 L186.71832,4.31715891 C191.1636,4.31715891 194.51592,7.72419891 194.521714,12.0693989 C194.521714,12.3213989 194.5116,12.5755589 194.48856,12.8325989 L183.08808,143.141079 L183.07224,143.321079 L180.26352,175.432359 L180.24768,175.612359 L179.5572,183.502119 C179.35128,185.852919 178.21224,187.981959 176.53608,189.523479 C174.85992,191.064279 172.64808,192.017559 170.29656,192.017559 M98.3267458,183.925479 C98.3304,186.339639 100.19736,188.237559 102.66624,188.237559 L170.62704,188.237559 C173.23848,188.237559 175.54824,186.113559 175.7772,183.502119 L190.70856,12.8325989 C190.7208,12.6900389 190.726614,12.5489189 190.726614,12.4092389 C190.72296,9.99579891 188.856,8.09787891 186.38712,8.09787891 L118.42632,8.09787891 C115.81488,8.09787891 113.50512,10.2218789 113.27616,12.8325989 L101.87568,143.141079 L101.86056,143.321079 L99.05112,175.432359 L99.03528,175.612359 L98.3448,183.502119 C98.33256,183.644679 98.3267458,183.785799 98.3267458,183.925479" id="Fill-121" fill="#ABCAFF"></path>
                <path d="M146.51856,181.473159 C146.11392,181.473159 128.23056,181.473159 127.82592,181.473159 C127.24704,181.473159 126.73656,181.942599 126.68544,182.522199 C126.63504,183.101079 127.06344,183.570519 127.64232,183.570519 C128.05416,183.570519 145.92312,183.570519 146.33496,183.570519 C146.91456,183.570519 147.42504,183.101079 147.47544,182.522199 C147.52656,181.942599 147.09744,181.473159 146.51856,181.473159" id="Fill-122" fill="#FFFFFE"></path>
                <path d="M146.06208,83.6928389 L137.83104,83.6928389 L137.83104,53.9323589 L146.31552,53.9323589 L146.31552,66.1190789 C145.75824,66.0614789 145.24344,66.0261989 144.8172,66.0261989 C144.09792,66.0261989 143.62992,66.1262789 143.62992,66.3861989 C143.62992,67.0219589 145.07208,67.5936389 146.31552,67.9680389 L146.31552,83.6863589 C146.23128,83.6906789 146.14704,83.6928389 146.06208,83.6928389 M137.65104,83.6928389 L126.24336,83.6928389 C123.498,83.6928389 121.4676,81.4673189 121.70736,78.7219589 L123.44184,58.9032389 C123.6816,56.1578789 126.10152,53.9323589 128.84688,53.9323589 L137.65104,53.9323589 L137.65104,83.6928389 M146.49552,83.6741189 L146.49552,68.0213189 C147.36024,68.2725989 148.08456,68.4216389 148.08456,68.4216389 C148.08456,68.4216389 148.34664,73.7359589 150.1812,73.8957989 C150.62544,73.9346789 151.22736,73.9497989 151.88472,73.9512389 L151.46712,78.7219589 C151.2396,81.3218789 149.058,83.4552389 146.49552,83.6741189 M152.4708,67.2487589 L152.27712,67.1105189 C152.27712,67.1105189 149.01336,66.4157189 146.49552,66.1385189 L146.49552,53.9323589 L148.6656,53.9323589 C151.41096,53.9323589 153.44136,56.1578789 153.20088,58.9032389 L152.4708,67.2487589" id="Fill-123" fill="#A8BBD6"></path>
                <polygon id="Fill-124" fill="#9AAFCC" points="137.65104 83.6928389 137.83104 83.6928389 137.83104 53.9323589 137.65104 53.9323589"></polygon>
                <path d="M146.31552,83.6863589 L146.31552,67.9680389 C146.376,67.9860389 146.43648,68.0040389 146.49552,68.0213189 L146.49552,83.6741189 C146.43576,83.6791589 146.376,83.6834789 146.31552,83.6863589 M146.49552,66.1385189 C146.43504,66.1313189 146.37528,66.1248389 146.31552,66.1190789 L146.31552,53.9323589 L146.49552,53.9323589 L146.49552,66.1385189" id="Fill-125" fill="#9AAFCC"></path>
                <path d="M151.88472,73.9512389 C151.22736,73.9497989 150.62544,73.9346789 150.1812,73.8957989 C148.34664,73.7359589 148.08456,68.4216389 148.08456,68.4216389 C148.08456,68.4216389 147.36024,68.2725989 146.49552,68.0213189 C146.43648,68.0040389 146.376,67.9860389 146.31552,67.9680389 C145.07208,67.5936389 143.62992,67.0219589 143.62992,66.3861989 C143.62992,66.1262789 144.09792,66.0261989 144.8172,66.0261989 C145.24344,66.0261989 145.75824,66.0614789 146.31552,66.1190789 C146.37528,66.1248389 146.43504,66.1313189 146.49552,66.1385189 C149.01336,66.4157189 152.27712,67.1105189 152.27712,67.1105189 L152.4708,67.2487589 L151.88472,73.9512389" id="Fill-126" fill="#B194B0"></path>
                <path d="M143.90208,81.5328389 L124.08336,81.5328389 C121.338,81.5328389 119.3076,79.3073189 119.54736,76.5619589 L121.28184,56.7432389 C121.5216,53.9978789 123.94152,51.7723589 126.68688,51.7723589 L146.5056,51.7723589 C149.25096,51.7723589 151.28136,53.9978789 151.0416,56.7432389 L149.30712,76.5619589 C149.06664,79.3073189 146.64744,81.5328389 143.90208,81.5328389" id="Fill-127" fill="#0048F7"></path>
                <path d="M138.62304,64.8533189 C138.95928,61.0135589 135.70416,57.9009989 131.35248,57.9009989 C127.0008,57.9009989 123.20136,61.0135589 122.86512,64.8533189 C122.59944,67.8888389 124.58232,70.4621189 127.57176,71.4103589 C127.08,72.2952389 126.3888,72.9612389 125.68392,73.2758789 C125.82936,73.3572389 125.97624,73.4393189 126.1404,73.4990789 C127.728,74.0729189 129.56256,73.3089989 130.44528,71.7919589 C134.6652,71.6479589 138.29544,68.6016389 138.62304,64.8533189" id="Fill-128" fill="#FFFFFE"></path>
                <path d="M147.74688,68.1847589 C148.02408,65.0153189 145.33704,62.4463589 141.74568,62.4463589 C141.102,62.4463589 140.47488,62.5313189 139.87512,62.6846789 C140.022,63.3773189 140.0796,64.1023589 140.01408,64.8533189 C139.7736,67.6008389 138.09672,70.0286789 135.68904,71.5471589 C136.6704,72.8777189 138.3192,73.7798789 140.28408,73.9022789 C140.72184,75.0924389 142.02864,75.7015589 143.32608,75.2601989 C143.45712,75.2155589 143.57808,75.1536389 143.69832,75.0924389 C143.21448,74.8577189 142.79472,74.3558789 142.54056,73.6999589 C145.32624,73.0159589 147.5172,70.8077189 147.74688,68.1847589" id="Fill-129" fill="#FFFFFE"></path>
                <path d="M136.97568,145.051959 L122.2344,145.051959 C120.91536,145.051959 119.81736,144.361479 119.25432,143.321079 L133.722,143.321079 C135.98712,143.321079 137.83104,141.477879 137.83104,139.211319 L137.83104,122.916999 L138.91176,122.916999 C140.95368,122.916999 142.46424,124.572279 142.28568,126.614199 L140.99616,141.355479 C140.8176,143.397399 139.0176,145.051959 136.97568,145.051959 M133.722,143.141079 L119.1636,143.141079 C118.91736,142.611879 118.80432,142.002759 118.8612,141.355479 L120.15072,126.614199 C120.32928,124.572279 122.12928,122.916999 124.1712,122.916999 L137.65104,122.916999 L137.65104,139.211319 C137.65104,141.378519 135.88848,143.141079 133.722,143.141079" id="Fill-130" fill="#A8BBD6"></path>
                <path d="M133.722,143.321079 L119.25432,143.321079 C119.22264,143.262039 119.1924,143.202279 119.1636,143.141079 L133.722,143.141079 C135.88848,143.141079 137.65104,141.378519 137.65104,139.211319 L137.65104,122.916999 L137.83104,122.916999 L137.83104,139.211319 C137.83104,141.477879 135.98712,143.321079 133.722,143.321079" id="Fill-131" fill="#9AAFCC"></path>
                <path d="M158.59872,116.365719 L146.49552,116.365719 L146.49552,88.6961189 L161.01936,88.6961189 C163.57176,88.6961189 165.4596,90.7653989 165.2364,93.3177989 L163.62432,111.744039 C163.40112,114.296439 161.15112,116.365719 158.59872,116.365719 M146.31552,116.365719 L140.17248,116.365719 C139.29336,116.365719 138.49344,116.120199 137.83104,115.693959 L137.83104,92.1139589 C138.53304,90.1454789 140.45688,88.6961189 142.59312,88.6961189 L146.31552,88.6961189 L146.31552,116.365719 M137.65104,115.571559 C136.49832,114.740679 135.81576,113.335959 135.95544,111.744039 L137.56752,93.3177989 C137.58408,93.1262789 137.61216,92.9376389 137.65104,92.7525989 L137.65104,115.571559" id="Fill-132" fill="#A8BBD6"></path>
                <path d="M137.83104,115.693959 C137.76984,115.655079 137.71008,115.614039 137.65104,115.571559 L137.65104,92.7525989 C137.6964,92.5344389 137.75688,92.3213189 137.83104,92.1139589 L137.83104,115.693959" id="Fill-133" fill="#9AAFCC"></path>
                <polygon id="Fill-134" fill="#9AAFCC" points="146.31552 116.365719 146.49552 116.365719 146.49552 88.6961189 146.31552 88.6961189"></polygon>
                <path d="M156.43872,114.205719 L138.01248,114.205719 C135.46008,114.205719 133.57152,112.136439 133.79544,109.584039 L135.40752,91.1577989 C135.63072,88.6053989 137.88072,86.5361189 140.43312,86.5361189 L158.85936,86.5361189 C161.41176,86.5361189 163.2996,88.6053989 163.0764,91.1577989 L161.46432,109.584039 C161.24112,112.136439 158.99112,114.205719 156.43872,114.205719" id="Fill-135" fill="#0048F7"></path>
                <path d="M134.81568,142.891959 L120.0744,142.891959 C118.03248,142.891959 116.52192,141.237399 116.7012,139.195479 L117.99072,124.454199 C118.16928,122.412279 119.96928,120.756999 122.0112,120.756999 L136.75176,120.756999 C138.79368,120.756999 140.30424,122.412279 140.12568,124.454199 L138.83616,139.195479 C138.6576,141.237399 136.8576,142.891959 134.81568,142.891959" id="Fill-136" fill="#0048F7"></path>
                <path d="M152.31888,100.360119 L158.0436,95.0961989 L157.12272,105.624759 L152.31888,100.360119 Z M145.4328,101.322039 L146.69568,102.705879 C147.08232,103.129959 147.62016,103.341639 148.176,103.341639 C148.73256,103.341639 149.30712,103.129239 149.7672,102.705879 L151.27272,101.322039 L156.096,106.607559 L139.68504,106.607559 L145.4328,101.322039 Z M140.79744,94.1342789 L157.16592,94.1342789 L148.88952,101.743959 C148.54536,102.061479 148.03056,102.060759 147.74184,101.743959 L140.79744,94.1342789 Z M144.5544,100.359399 L138.82968,105.624759 L139.75056,95.0961989 L144.5544,100.359399 Z M157.64832,92.7734789 L140.55264,92.7734789 C139.47264,92.7734789 138.51648,93.6525989 138.42216,94.7325989 L137.43576,106.008519 C137.34072,107.089239 138.1428,107.969079 139.22352,107.969079 L156.3192,107.969079 C157.3992,107.969079 158.35536,107.089239 158.44968,106.008519 L159.43608,94.7325989 C159.53112,93.6525989 158.72832,92.7734789 157.64832,92.7734789 L157.64832,92.7734789 Z" id="Fill-137" fill="#FFFFFE"></path>
                <polyline id="Fill-138" fill="#FFFFFE" points="121.65552 127.853319 125.96832 129.615159 130.72104 126.355719 127.15128 130.584999 129.7764 134.285079 133.92936 123.976119 121.65552 127.853319"></polyline>
                <polyline id="Fill-139" fill="#FFFFFE" points="125.67384 130.591479 127.61928 132.969639 125.54928 132.969639 125.67384 130.591479"></polyline>
                <path d="M123.95376,133.697559 L123.49944,133.405239 C123.73416,133.039479 123.93432,132.805479 123.94224,132.795399 L124.35336,133.145319 C124.3512,133.147479 124.1676,133.364919 123.95376,133.697559" id="Fill-140" fill="#FFFFFE"></path>
                <path d="M123.28632,135.390279 L122.74848,135.346359 C122.78232,134.934519 122.92056,134.481639 123.1596,133.999959 L123.64344,134.240439 C123.43464,134.660919 123.3144,135.047559 123.28632,135.390279 Z M123.7428,137.244279 C123.25896,136.954119 122.94576,136.566759 122.81256,136.092279 L123.3324,135.946119 C123.42816,136.288839 123.6528,136.561719 124.01928,136.779879 L123.7428,137.244279 L123.7428,137.244279 Z" id="Fill-141" fill="#FFFFFE"></path>
                <path d="M130.37688,137.648199 L130.32576,137.111079 C130.78944,137.067159 131.23368,137.029719 131.6484,137.009559 L131.67432,137.549559 C131.26752,137.568279 130.8312,137.605719 130.37688,137.648199 Z M133.51176,137.714439 C133.22448,137.602119 132.8328,137.543799 132.3144,137.536599 L132.32232,136.996599 C132.90624,137.005239 133.35984,137.074359 133.70832,137.211159 L133.51176,137.714439 Z M125.73648,137.820999 C125.6616,137.812359 125.58672,137.802999 125.51256,137.792199 C125.09568,137.735319 124.71912,137.650359 124.3944,137.539479 L124.56864,137.028999 C124.86096,137.128359 125.20296,137.205399 125.586,137.257959 L125.79408,137.283159 L125.73648,137.820999 Z M128.40768,137.826039 L128.36952,137.287479 C128.80872,137.255799 129.24504,137.214759 129.67128,137.173719 L129.72384,137.710839 C129.29256,137.753319 128.8512,137.794359 128.40768,137.826039 Z M126.97272,137.882919 C126.78264,137.882199 126.594,137.879319 126.40824,137.871399 L126.43128,137.331399 C126.8532,137.349399 127.28448,137.345079 127.7208,137.325639 L127.74528,137.865639 C127.48608,137.877159 127.22832,137.882919 126.97272,137.882919 Z M134.62776,139.127799 L134.09496,139.034919 C134.12016,138.893799 134.1324,138.763479 134.1324,138.643959 C134.1324,138.370359 134.06832,138.159399 133.93728,138.000999 L134.35344,137.657559 C134.56512,137.913159 134.6724,138.245079 134.6724,138.643959 C134.6724,138.791559 134.658,138.952839 134.62776,139.127799 L134.62776,139.127799 Z" id="Fill-142" fill="#FFFFFE"></path>
                <path d="M134.17704,140.513799 L133.6824,140.297079 C133.78392,140.064519 133.86816,139.847079 133.93584,139.646919 L134.44776,139.818279 C134.37648,140.032839 134.28648,140.263959 134.17704,140.513799" id="Fill-143" fill="#FFFFFE"></path>
                <path d="M154.15992,49.9147589 L146.49552,49.9147589 L146.49552,25.0121189 L156.33864,25.0121189 C158.63544,25.0121189 160.33464,26.8740389 160.13376,29.1715589 L158.68296,45.7553189 C158.48208,48.0521189 156.45744,49.9147589 154.15992,49.9147589 M146.31552,49.9147589 L137.83104,49.9147589 L137.83104,25.4628389 C138.42216,25.1748389 139.07664,25.0121189 139.75488,25.0121189 L146.31552,25.0121189 L146.31552,49.9147589 M137.65104,49.9147589 L137.57616,49.9147589 C135.27864,49.9147589 133.58016,48.0521189 133.78104,45.7553189 L135.23184,29.1715589 C135.3672,27.6221189 136.33272,26.2713989 137.65104,25.5557189 L137.65104,49.9147589" id="Fill-144" fill="#A8BBD6"></path>
                <path d="M137.83104,49.9147589 L137.65104,49.9147589 L137.65104,25.5557189 C137.71008,25.5233189 137.77056,25.4923589 137.83104,25.4628389 L137.83104,49.9147589" id="Fill-145" fill="#9AAFCC"></path>
                <polygon id="Fill-146" fill="#9AAFCC" points="146.31552 49.9147589 146.49552 49.9147589 146.49552 25.0121189 146.31552 25.0121189"></polygon>
                <path d="M151.99992,47.7547589 L135.41616,47.7547589 C133.11864,47.7547589 131.42016,45.8921189 131.62104,43.5953189 L133.07184,27.0115589 C133.27272,24.7140389 135.29808,22.8521189 137.59488,22.8521189 L154.17864,22.8521189 C156.47544,22.8521189 158.17464,24.7140389 157.97376,27.0115589 L156.52296,43.5953189 C156.32208,45.8921189 154.29744,47.7547589 151.99992,47.7547589" id="Fill-147" fill="#0048F7"></path>
                <path d="M152.8884,38.6813189 C152.58744,32.5821989 148.1796,27.7524389 142.1532,26.9172389 C140.54256,26.0489189 138.39408,26.5017989 137.106,28.0843589 C135.68328,29.8317989 136.94184,30.9449189 138.57768,32.2149989 C140.21424,33.4843589 141.6096,34.4289989 143.03232,32.6815589 C143.58816,31.9982789 143.892,31.2091589 143.96832,30.4243589 C146.66904,31.5324389 148.70304,33.7615589 149.56632,36.5587589 C148.7808,36.5666789 147.9708,36.8021189 147.24432,37.2981989 C145.386,38.5675589 146.20176,40.0457189 147.31848,41.7931589 C148.4352,43.5405989 149.43024,44.8963589 151.28856,43.6262789 C152.9712,42.4771589 153.6084,40.3675589 152.8884,38.6813189" id="Fill-148" fill="#FFFFFE"></path>
                <path d="M145.96848,1.45227891 C149.73192,1.45227891 153.49536,1.45227891 157.2588,1.45227891 C157.81464,1.45227891 157.89096,0.587558913 157.3344,0.587558913 C153.57096,0.587558913 149.80752,0.587558913 146.04408,0.587558913 C145.48824,0.587558913 145.4112,1.45227891 145.96848,1.45227891" id="Fill-149" fill="#426AA5"></path>
                <path d="M161.39448,1.45227891 C162.47592,1.45227891 163.55736,1.45227891 164.6388,1.45227891 C165.19464,1.45227891 165.27096,0.587558913 164.7144,0.587558913 C163.63296,0.587558913 162.55152,0.587558913 161.47008,0.587558913 C160.91424,0.587558913 160.8372,1.45227891 161.39448,1.45227891" id="Fill-150" fill="#426AA5"></path>
                <path d="M157.2588,1.45227891 C153.67104,1.45227891 150.08328,1.45227891 146.49552,1.45227891 C146.43576,1.45227891 146.37528,1.45227891 146.31552,1.45227891 C146.1996,1.45227891 146.08368,1.45227891 145.96848,1.45227891 C145.70928,1.45227891 145.5876,1.26507891 145.586878,1.06563891 C145.58616,0.835238913 145.746,0.587558913 146.04408,0.587558913 C149.80752,0.587558913 153.57096,0.587558913 157.3344,0.587558913 C157.59288,0.587558913 157.71528,0.774758913 157.716,0.974198913 C157.716,1.20459891 157.55616,1.45227891 157.2588,1.45227891" id="Fill-151" fill="#0048F7"></path>
                <path d="M164.6388,1.45227891 C163.55736,1.45227891 162.47592,1.45227891 161.39448,1.45227891 C161.136,1.45227891 161.0136,1.26507891 161.012878,1.06563891 C161.01216,0.835238913 161.17272,0.587558913 161.47008,0.587558913 C162.55152,0.587558913 163.63296,0.587558913 164.7144,0.587558913 C164.97288,0.587558913 165.09528,0.774758913 165.096,0.974198913 C165.096,1.20459891 164.93616,1.45227891 164.6388,1.45227891" id="Fill-152" fill="#0048F7"></path>
                <path d="M183.17304,88.7947589 C182.844,92.5574789 182.51496,96.3216389 182.1852,100.084359 C182.13696,100.640919 182.99376,100.717239 183.04272,100.160679 C183.37176,96.3965189 183.70152,92.6337989 184.03056,88.8696389 C184.07952,88.3145189 183.222,88.2374789 183.17304,88.7947589" id="Fill-153" fill="#426AA5"></path>
                <path d="M181.82376,104.220759 C181.72944,105.301479 181.6344,106.382919 181.53936,107.464359 C181.49112,108.020919 182.34864,108.097239 182.39688,107.540679 C182.49192,106.459239 182.58624,105.377799 182.68056,104.296359 C182.72952,103.740519 181.872,103.663479 181.82376,104.220759" id="Fill-154" fill="#426AA5"></path>
                <path d="M182.62152,100.542279 C182.40336,100.542279 182.18304,100.397559 182.183758,100.128999 C182.183758,100.114599 182.18448,100.099479 182.1852,100.084359 C182.51496,96.3216389 182.844,92.5574789 183.17304,88.7947589 C183.19608,88.5348389 183.39408,88.4131589 183.59496,88.4131589 C183.8124,88.4131589 184.03272,88.5571589 184.03272,88.8257189 C184.03272,88.8401189 184.032,88.8545189 184.03056,88.8696389 C183.70152,92.6337989 183.37176,96.3965189 183.04272,100.160679 C183.0204,100.419879 182.82168,100.542279 182.62152,100.542279" id="Fill-155" fill="#7094C0"></path>
                <path d="M181.97568,107.922279 C181.75824,107.922279 181.5372,107.777559 181.537918,107.508999 C181.537918,107.494599 181.53864,107.479479 181.53936,107.464359 C181.6344,106.382919 181.72944,105.301479 181.82376,104.220759 C181.84608,103.960839 182.0448,103.839159 182.24496,103.839159 C182.46312,103.839159 182.68344,103.983159 182.682722,104.252439 C182.682722,104.266839 182.682,104.281239 182.68056,104.296359 C182.58624,105.377799 182.49192,106.459239 182.39688,107.540679 C182.37456,107.799879 182.17656,107.922279 181.97568,107.922279" id="Fill-156" fill="#7094C0"></path>
                <path d="M83.20608,38.5567589 C83.20608,38.5567589 79.02864,37.9836389 79.53264,40.1573189 C79.90128,41.7463589 81.30456,38.6265989 83.20608,38.5567589" id="Fill-157" fill="#1A282B"></path>
                <path d="M79.57728,43.4916389 C79.57728,43.4916389 83.01744,43.4599589 83.54952,37.1844389 C83.54952,37.1844389 86.83056,36.0410789 88.6968,38.0844389 C90.56232,40.1270789 86.27976,44.0935589 88.64208,46.1505989 C88.64208,46.1505989 86.27832,47.4393989 79.57728,43.4916389" id="Fill-158" fill="#FC8D7C"></path>
                <path d="M92.31192,21.3393989 C92.31192,21.3393989 96.7464,20.3875589 97.89768,23.6498789 C99.04968,26.9114789 91.332,25.4779589 91.332,25.4779589 L92.31192,21.3393989" id="Fill-159" fill="#1A282B"></path>
                <path d="M95.76936,25.7414789 C95.13864,23.8831589 94.04352,22.2948389 92.3328,21.3350789 C92.44656,21.3127589 93.00384,21.2097989 93.73248,21.2097989 C95.13432,21.2097989 97.17048,21.5892389 97.89768,23.6498789 C97.97832,23.8766789 98.01504,24.0811589 98.01504,24.2647589 C98.01432,25.2187589 97.00416,25.6140389 95.76936,25.7414789" id="Fill-160" fill="#111819"></path>
                <path d="M95.93928,29.4681989 C96.00984,29.0513189 96.28848,28.7510789 96.56064,28.7971589 C96.8328,28.8432389 96.99696,29.2183589 96.92568,29.6352389 C96.85584,30.0521189 96.5772,30.3523589 96.30504,30.3062789 C96.03288,30.2601989 95.86872,29.8850789 95.93928,29.4681989" id="Fill-161" fill="#1A282B"></path>
                <path d="M96.15528,30.2551589 L98.09712,33.3900389 C98.09712,33.3900389 97.056,34.1395589 95.61816,33.6031589 L96.15528,30.2551589" id="Fill-162" fill="#DF5354"></path>
                <path d="M81.4896,27.4543589 C81.24768,32.7881189 81.03024,35.0445989 83.4156,38.0513189 C87.20928,41.2581989 93.61728,41.7074789 95.44752,36.5486789 C97.09632,31.9075589 97.21368,23.9839589 92.25,21.2889989 C88.7112,19.3694789 84.28608,20.6834789 82.36728,24.2222789 C81.828,25.2165989 81.52776,26.3232389 81.4896,27.4543589" id="Fill-163" fill="#FC8D7C"></path>
                <path d="M95.26968,28.1527589 C95.34744,28.1808389 95.43384,28.1707589 95.50224,28.1246789 C96.00264,27.7409189 96.65712,27.6221189 97.26048,27.8064389 C97.38648,27.8532389 97.52688,27.7905989 97.57656,27.6653189 C97.62408,27.5378789 97.56288,27.3960389 97.43688,27.3434789 C96.67944,27.1001189 95.85,27.2397989 95.21352,27.7178789 C95.1012,27.7891589 95.06808,27.9381989 95.13936,28.0505189 L95.14656,28.0605989 L95.26968,28.1527589" id="Fill-164" fill="#1A282B"></path>
                <path d="M77.15232,44.5752389 C77.15232,44.5752389 78.6384,40.4798789 84.77856,43.0898789 C90.91944,45.6991589 91.49904,49.3005989 91.49904,49.3005989 L77.15232,44.5752389" id="Fill-165" fill="#1A282B"></path>
                <path d="M91.07568,48.1802789 C87.84072,45.6077189 82.08864,44.0352389 77.7204,43.6622789 C78.28128,42.9998789 79.31952,42.2201189 81.09792,42.2201189 C82.08288,42.2201189 83.29464,42.4591589 84.77856,43.0898789 C88.77672,44.7890789 90.4176,46.9080389 91.07568,48.1802789" id="Fill-166" fill="#0F1516"></path>
                <path d="M79.91424,122.220039 C79.91424,122.220039 79.03872,129.684279 78.62184,132.153159 C78.25248,134.341959 66.39336,190.980039 66.39336,190.980039 L60.98256,190.085079 C60.98256,190.085079 60.38424,161.378679 64.5444,142.380759 C65.39616,138.490599 67.1184,135.234039 67.74408,132.262599 C68.24592,129.875079 67.48848,122.508759 67.48848,122.508759 L79.91424,122.220039" id="Fill-167" fill="#FC8D7C"></path>
                <path d="M57.39192,121.004679 C57.39192,121.004679 54.87768,127.841799 53.70696,129.961479 C52.43328,132.265479 47.59416,138.536679 47.59416,138.536679 L21.81672,174.697239 L16.88616,171.577479 C16.88616,171.577479 24.32376,151.666599 35.52552,135.452199 C38.19528,131.586519 42.04152,128.640999 44.12736,124.805559 C45.32976,122.596599 46.3572,114.994119 46.3572,114.994119 L57.39192,121.004679" id="Fill-168" fill="#FC8D7C"></path>
                <path d="M64.30464,51.7658789 C64.30464,51.7658789 58.13496,59.6347589 58.65696,62.9431589 C59.17968,66.2508389 68.8536,70.2734789 68.8536,70.2734789 L71.3088,66.7814789 L64.95624,62.1425189 L71.00352,55.2103589 L64.30464,51.7658789" id="Fill-169" fill="#FC8D7C"></path>
                <path d="M74.50776,43.8876389 C73.73232,43.5254789 70.31952,42.1531589 62.93448,51.7471589 C62.93448,51.7471589 65.62296,55.0937189 71.3772,57.0866789 C71.3772,57.0866789 77.85504,45.4514789 74.50776,43.8876389" id="Fill-170" fill="#1B2F34"></path>
                <path d="M69.30864,56.2601189 C67.9716,55.6502789 66.85488,54.9864389 65.94624,54.3600389 C66.81312,52.7227589 69.45624,47.8353989 71.36784,45.3953189 C70.27488,47.4437189 69.9228,51.3626789 69.30864,56.2601189" id="Fill-171" fill="#0F1516"></path>
                <path d="M65.5668,75.7541189 C65.5668,75.7541189 75.4776,81.6177989 88.5312,82.3637189 L80.21016,128.738199 C80.21016,128.738199 56.20464,128.664759 43.65288,116.738679 C43.65288,116.738679 48.65616,91.4695589 65.5668,75.7541189" id="Fill-172" fill="#0048F7"></path>
                <path d="M64.54512,75.8858789 C64.54512,75.8858789 74.15784,82.9713989 89.46792,82.4853989 C89.46792,82.4853989 98.25912,58.1645189 92.7504,49.9399589 C89.34552,44.8567589 76.27176,42.5541989 72.74808,44.0021189 C68.508,45.7437989 70.96176,60.9969989 64.54512,75.8858789" id="Fill-173" fill="#1B2F34"></path>
                <path d="M59.3856,125.367879 C58.3272,125.041719 57.24864,124.673079 56.18376,124.254759 C57.24792,124.661559 58.31856,125.031639 59.3856,125.367879" id="Fill-174" fill="#E5E5E0"></path>
                <path d="M67.68072,127.410519 C65.73888,126.982839 62.6544,126.375879 59.3856,125.367879 C58.31856,125.031639 57.24792,124.661559 56.18376,124.254759 C56.17656,124.251879 56.16864,124.248999 56.16144,124.246119 L66.85128,100.871319 C68.03928,105.571479 67.68072,127.410519 67.68072,127.410519" id="Fill-175" fill="#003AC9"></path>
                <path d="M93.3552,68.4129989 C88.48584,61.3166789 87.01776,55.1693189 87.01776,55.1693189 L88.71768,53.9157989 L90.77256,54.8820389 L94.55904,58.0925189 C94.55256,61.3533989 94.04856,64.9735589 93.3552,68.4129989" id="Fill-176" fill="#0F1516"></path>
                <path d="M98.35344,57.4351589 L104.1156,65.4617189 L118.58832,66.4164389 L121.24584,64.2060389 C121.4244,64.0569989 121.64472,63.9677189 121.87728,63.9489989 L129.60432,63.3362789 C129.84192,63.3175589 130.04064,63.5141189 130.0248,63.7517189 L129.98088,64.4097989 C129.96792,64.6034789 129.81528,64.7575589 129.62232,64.7726789 L125.96112,65.0635589 L125.2152,68.8190789 C125.13024,69.2474789 124.80696,69.5901989 124.3836,69.6981989 L121.51368,70.4354789 C121.32936,70.4829989 121.13568,70.4829989 120.95136,70.4361989 L118.92384,69.9213989 C118.92384,69.9213989 107.6436,72.2001989 102.46392,71.2857989 C97.28424,70.3721189 92.18016,61.9481189 92.18016,61.9481189 L98.35344,57.4351589" id="Fill-177" fill="#FC8D7C"></path>
                <path d="M91.68552,63.5285189 C91.68552,63.5285189 82.40976,51.1279589 88.13304,48.2457989 C93.85704,45.3643589 99.8748,58.1119589 99.8748,58.1119589 C99.8748,58.1119589 97.52184,61.7090789 91.68552,63.5285189" id="Fill-178" fill="#1B2F34"></path>
                <path d="M68.03136,190.483239 C69.13584,190.662519 70.63992,190.709319 70.9308,190.331319 C70.97256,190.284519 71.01288,190.201719 70.91424,190.021719 C70.86096,189.914439 70.7616,189.838119 70.64424,189.812919 C70.55784,189.785559 70.46712,189.770439 70.37568,189.768279 C69.55632,189.856839 68.76072,190.099479 68.03136,190.483239 Z M67.56696,190.656039 L67.4568,190.535799 L67.53096,190.391079 C67.62456,190.342119 69.74856,189.231879 70.73352,189.542919 C70.91784,189.597639 71.07264,189.722919 71.16624,189.889959 C71.29296,190.076439 71.28792,190.323399 71.154,190.504119 C70.89696,190.813719 70.12584,190.920999 69.38424,190.892919 C68.77224,190.866999 68.16456,190.787799 67.56696,190.656039 L67.56696,190.656039 Z" id="Fill-179" fill="#426AA5"></path>
                <path d="M69.13656,188.294439 C68.958,188.285799 68.78232,188.343399 68.64264,188.454279 C68.17824,188.951079 67.878,189.578919 67.78224,190.252839 C68.53752,189.843159 69.51456,188.866839 69.49296,188.461479 C69.48432,188.424759 69.47136,188.321079 69.21792,188.290119 L69.13656,188.294439 Z M67.49208,190.645239 L67.43304,190.514919 C67.44456,190.440759 67.66344,188.838039 68.44608,188.242599 C68.67144,188.066199 68.95872,187.989159 69.24168,188.030199 C69.62904,188.083479 69.7428,188.284359 69.75144,188.447079 C69.85368,189.123159 68.37264,190.362279 67.6476,190.651719 L67.58856,190.654599 L67.49208,190.645239 L67.49208,190.645239 Z" id="Fill-180" fill="#426AA5"></path>
                <path d="M66.9888,189.798519 L60.48072,189.555879 C60.2352,189.545799 60.01632,189.708519 59.95368,189.946119 L58.5792,195.197079 C58.45392,195.662199 58.72968,196.140279 59.1948,196.265559 L59.37696,196.294359 C61.72488,196.341159 63.81576,196.290759 66.7368,196.403799 C70.18344,196.533399 69.29352,196.912839 73.34424,197.122359 C75.78504,197.245479 76.33512,194.486439 75.3048,194.311479 C70.5888,193.537479 70.1496,192.088839 68.3856,190.324119 C68.0004,189.984279 67.50288,189.796359 66.9888,189.798519" id="Fill-181" fill="#1A282B"></path>
                <path d="M23.11848,175.108359 C24.0228,175.765719 25.34472,176.485719 25.77528,176.279799 C25.8336,176.256039 25.90704,176.199879 25.89984,175.995399 C25.90056,175.875879 25.84656,175.762839 25.75296,175.687959 C25.68744,175.623879 25.614,175.569159 25.53336,175.527399 C24.76152,175.235799 23.94288,175.093959 23.11848,175.108359 Z M22.626,175.052919 L22.58136,174.895959 L22.71312,174.800199 C22.81896,174.798039 25.21584,174.764919 25.95528,175.486359 C26.09424,175.618839 26.17632,175.800279 26.18424,175.991079 C26.21376,176.215719 26.09784,176.433159 25.89624,176.534679 C25.52688,176.695239 24.79032,176.442519 24.14088,176.083959 C23.60664,175.785159 23.09976,175.440279 22.626,175.052919 L22.626,175.052919 Z" id="Fill-182" fill="#426AA5"></path>
                <path d="M25.092,173.652519 C24.93648,173.564679 24.75432,173.535879 24.57864,173.571879 C23.94072,173.806599 23.3892,174.231399 23.0004,174.789399 C23.85864,174.764199 25.1712,174.333639 25.33536,173.962119 C25.344,173.924679 25.37856,173.827479 25.16616,173.685639 L25.092,173.652519 Z M22.56408,175.008999 L22.57056,174.866439 C22.61376,174.805239 23.53176,173.473239 24.49944,173.294679 C24.77952,173.239239 25.0704,173.300439 25.3044,173.463879 C25.62624,173.686359 25.63776,173.917479 25.57152,174.065799 C25.3584,174.715239 23.47776,175.152999 22.70016,175.084599 L22.64616,175.060839 L22.56408,175.008999 L22.56408,175.008999 Z" id="Fill-183" fill="#426AA5"></path>
                <path d="M22.4964,174.026919 L16.79688,170.875479 C16.5816,170.756679 16.31376,170.802039 16.15032,170.985639 L12.5568,175.052919 C12.23496,175.412199 12.2652,175.962999 12.62376,176.284119 L12.77352,176.392839 C14.84784,177.492999 16.73712,178.390119 19.29384,179.808519 C22.31136,181.478199 21.34656,181.415559 24.86736,183.428679 C26.98992,184.638999 28.72512,182.424999 27.88488,181.803639 C24.02352,178.986999 24.2856,177.495879 23.50584,175.125639 C23.31576,174.647559 22.95648,174.256599 22.4964,174.026919" id="Fill-184" fill="#1A282B"></path>
                <path d="M90.47808,32.0385989 C90.47808,32.0385989 92.66832,31.3531589 91.84176,28.1829989 C91.84176,28.1829989 93.11688,26.0481989 92.91312,24.8781989 C92.91312,24.8781989 99.37872,21.1449989 95.69592,17.0445989 C92.01384,12.9441989 85.27608,15.6888389 82.30536,20.9246789 C82.30536,20.9246789 66.4992,26.0618789 77.49936,35.7249989 C88.24104,45.1605989 90.47808,32.0385989 90.47808,32.0385989" id="Fill-185" fill="#1A282B"></path>
                <path d="M83.98512,23.1177989 C83.98512,23.1177989 81.52128,17.6933189 85.22352,13.6001189 C88.92576,9.50691891 82.76616,19.3701989 83.98512,23.1177989" id="Fill-186" fill="#1A282B"></path>
                <path d="M90.47808,32.0385989 C90.47808,32.0385989 90.5472,32.0155589 90.65304,31.9644389 C90.62424,27.9079589 89.09136,23.0378789 83.10384,19.7129189 C82.818,20.1017189 82.54584,20.5013189 82.30536,20.9246789 C82.30536,20.9246789 81.8496,21.0744389 81.15552,21.3638789 C83.22624,23.5670789 88.91712,30.8592389 82.51776,38.8310789 C88.97256,40.8427589 90.47808,32.0385989 90.47808,32.0385989" id="Fill-187" fill="#426AA5"></path>
                <path d="M90.76392,30.1392389 C91.5012,30.9434789 91.88712,32.0083589 91.83744,33.0977189 C91.7604,34.5434789 90.34992,34.8156389 89.22456,34.0380389 C88.20504,33.3345989 87.03,31.7383589 87.66072,30.4646789 C88.29144,29.1917189 89.85168,29.1657989 90.76392,30.1392389" id="Fill-188" fill="#E78076"></path>
                <path d="M96.45696,28.8072389 L97.62912,28.7467589 C97.62912,28.7467589 96.86376,29.4717989 96.45696,28.8072389" id="Fill-189" fill="#1A282B"></path>
                <path d="M88.38072,42.4051589 C88.38,42.4044389 88.37928,42.4044389 88.37928,42.4037189 C88.47,42.1452389 88.56576,41.8860389 88.65792,41.6282789 C88.56648,41.8860389 88.47144,42.1459589 88.38072,42.4051589" id="Fill-190" fill="#C9C8C3"></path>
                <path d="M88.37928,42.4037189 C86.84928,41.4504389 86.0832,40.1637989 85.78512,39.5489189 C86.82984,40.0269989 87.94296,40.3293989 89.03448,40.4208389 C88.93944,40.8125189 88.80336,41.2178789 88.65792,41.6282789 C88.56576,41.8860389 88.47,42.1452389 88.37928,42.4037189" id="Fill-191" fill="#D7695B"></path>
                <path d="M89.03448,40.4208389 C87.94296,40.3293989 86.82984,40.0269989 85.78512,39.5489189 C85.7844,39.5481989 85.7844,39.5481989 85.7844,39.5481989 C86.83128,40.0269989 87.9444,40.3207589 89.03664,40.4114789 C89.03592,40.4143589 89.0352,40.4172389 89.03448,40.4208389" id="Fill-192" fill="#D7695B"></path>
            </g>
        </g>
    </g>
</svg>