<?xml version="1.0" encoding="UTF-8"?>
<svg width="32px" height="43px" viewBox="0 0 32 43" version="1.1" xmlns="http://www.w3.org/2000/svg" xmlns:xlink="http://www.w3.org/1999/xlink">
    <title>svg/girls_fashion_ic</title>
    <g id="Page-1" stroke="none" stroke-width="1" fill="none" fill-rule="evenodd">
        <g id="Product-All-Category" transform="translate(-299.000000, -463.000000)" fill="#47CDFE" fill-rule="nonzero" stroke="#47CDFE" stroke-width="0.2">
            <g id="Group-2" transform="translate(273.000000, 442.000000)">
                <g id="girls_fashion_ic" transform="translate(27.000000, 22.000000)">
                    <path d="M8.63505401,0.000354349671 C9.71505401,-0.00725572386 10.043054,0.104744276 10.483054,0.624744276 C11.123054,1.36874428 13.419054,2.07274428 15.211054,2.07274428 C17.083054,2.07274428 19.387054,1.36874428 20.115054,0.568744276 C20.555054,0.0727442761 20.907054,-0.0232557239 22.051054,0.00874427614 C22.931054,0.0327442761 23.043054,0.0487442761 23.291054,0.232744276 C23.923054,0.680744276 28.499054,5.07274428 28.603054,5.32874428 C28.747054,5.66474428 28.747054,6.16874428 28.603054,6.49674428 C28.5473397,6.62960142 27.8464724,7.51551979 27.1068204,8.4140657 L26.8103284,8.77240244 C26.2682377,9.42415244 25.7487683,10.0296014 25.491054,10.2967443 C24.891054,10.9127443 24.395054,10.9367443 23.291054,10.3927443 L23.291054,10.3927443 L22.475054,10.0007443 L22.4759446,12.7298224 C22.480429,14.0122443 22.504054,14.2327443 22.595054,14.2327443 C22.795054,14.2327443 23.315054,14.8167443 23.419054,15.1607443 C23.539054,15.5847443 23.547054,16.4807443 23.419054,16.8887443 C23.371054,17.0647443 23.211054,17.3207443 23.083054,17.4647443 L23.083054,17.4647443 L22.835054,17.7127443 L23.227054,18.3927443 C24.059054,19.8487443 24.715054,21.1767443 24.715054,21.3927443 C24.715054,21.8487443 24.179054,22.1367443 23.755054,21.9127443 C23.675054,21.8727443 23.419054,21.4807443 23.187054,21.0567443 C22.963054,20.6247443 22.483054,19.7607443 22.131054,19.1287443 L22.131054,19.1287443 L21.491054,17.9927443 L8.90705401,17.9927443 L8.45905401,18.7687443 C5.81905401,23.3767443 3.73905401,28.3687443 2.33105401,33.5127443 C1.98705401,34.7847443 1.49905401,36.8327443 1.33905401,37.7047443 C1.25105401,38.2167443 1.25105401,38.2567443 1.39505401,38.3607443 C1.50582324,38.441975 2.00513685,38.4686733 3.83682733,38.4723 L7.10705401,38.4727443 L7.14705401,38.1367443 C7.17105401,37.9447443 7.26705401,37.2167443 7.35505401,36.5127443 C7.67505401,34.0167443 7.76305401,33.5767443 7.97105401,33.3687443 C8.13105401,33.2087443 8.21905401,33.1847443 8.45905401,33.2247443 C8.62705401,33.2487443 8.81905401,33.3447443 8.90705401,33.4487443 C9.06705401,33.6487443 9.07505401,33.6087443 8.79505401,35.4407443 C8.50705401,37.3767443 8.32305401,39.2967443 8.40305401,39.4567443 C8.45105401,39.5367443 8.57105401,39.6327443 8.68305401,39.6727443 C8.80669037,39.720017 11.4526408,39.7458021 14.3278925,39.7500996 L16.0622155,39.7500996 C18.9374672,39.7458021 21.5834176,39.720017 21.707054,39.6727443 C22.059054,39.5447443 22.075054,39.4087443 21.907054,37.9207443 C21.403054,33.3447443 20.443054,28.7767443 19.059054,24.3527443 C18.491054,22.5367443 18.483054,22.4567443 18.747054,22.2007443 C18.867054,22.0727443 19.035054,21.9927443 19.171054,21.9927443 C19.595054,21.9927443 19.731054,22.1767443 20.067054,23.2167443 C21.451054,27.4807443 22.571054,32.5527443 23.075054,36.8727443 C23.147054,37.4647443 23.219054,38.0727443 23.243054,38.2087443 L23.243054,38.2087443 L23.283054,38.4727443 L26.5564268,38.4723 C28.3986043,38.4686733 28.8842848,38.441975 28.995054,38.3607443 C29.147054,38.2487443 29.147054,38.2327443 29.011054,37.5047443 C28.307054,33.7687443 26.723054,28.7767443 25.003054,24.8487443 C24.755054,24.2807443 24.555054,23.7287443 24.555054,23.6247443 C24.555054,23.1527443 25.219054,22.8647443 25.587054,23.1687443 C25.907054,23.4327443 27.443054,27.2247443 28.347054,29.9687443 C29.299054,32.8807443 30.395054,37.2647443 30.395054,38.1847443 C30.395054,38.6887443 30.323054,38.8727443 30.003054,39.2167443 C29.547054,39.7207443 29.595054,39.7127443 26.291054,39.7367443 L26.291054,39.7367443 L23.275054,39.7607443 L23.123054,40.0567443 C22.947054,40.4007443 22.699054,40.6407443 22.339054,40.8247443 C22.1457207,40.9180776 21.6079429,40.9447443 17.8553503,40.9510406 L17.3357019,40.9517634 C17.2458347,40.9518651 17.1543169,40.9519578 17.0611171,40.9520419 L13.3289909,40.9520419 C13.2357911,40.9519578 13.1442733,40.9518651 13.0544061,40.9517634 L12.5347577,40.9510406 C8.78216512,40.9447443 8.24438734,40.9180776 8.05105401,40.8247443 C7.69105401,40.6407443 7.44305401,40.4007443 7.26705401,40.0567443 L7.26705401,40.0567443 L7.11505401,39.7607443 L4.09905401,39.7367443 C0.795054005,39.7127443 0.843054005,39.7207443 0.387054005,39.2167443 C-0.124945995,38.6727443 -0.124945995,38.2807443 0.363054005,36.0887443 C1.20305401,32.3047443 2.37905401,28.6327443 3.92305401,24.9767443 C4.57905401,23.4007443 6.22705401,20.0487443 7.01905401,18.6647443 L7.01905401,18.6647443 L7.56305401,17.6967443 L7.34705401,17.4407443 C7.05105401,17.0807443 6.93105401,16.5927443 6.97105401,15.8567443 C7.01105401,15.0407443 7.18705401,14.6807443 7.69105401,14.3687443 L7.69105401,14.3687443 L8.07505401,14.1287443 L8.07505401,10.0007443 L7.25905401,10.3927443 C6.15505401,10.9367443 5.65905401,10.9127443 5.05905401,10.2967443 C4.80133972,10.0296014 4.28187033,9.42415244 3.73977959,8.77240244 L3.44328761,8.4140657 C2.70363564,7.51551979 2.00276829,6.62960142 1.94705401,6.49674428 C1.81105401,6.18474428 1.80305401,5.70474428 1.92305401,5.36074428 C2.03505401,5.04874428 7.06705401,0.280744276 7.46705401,0.104744276 C7.62705401,0.0407442761 8.03505401,0.000354349671 8.63505401,0.000354349671 Z M11.219054,21.9927443 C11.483054,21.9927443 11.835054,22.3127443 11.835054,22.5447443 C11.835054,22.6407443 11.595054,23.4727443 11.307054,24.4087443 C10.747054,26.2407443 10.043054,28.8807443 9.71505401,30.4327443 C9.45905401,31.6327443 9.39505401,31.8007443 9.12305401,31.9127443 C8.67505401,32.0967443 8.23505401,31.8087443 8.23505401,31.3367443 C8.23505401,30.8807443 9.01105401,27.6327443 9.64305401,25.4567443 C10.299054,23.1847443 10.627054,22.2487443 10.819054,22.1127443 C10.915054,22.0487443 11.091054,21.9927443 11.219054,21.9927443 Z M24.995054,3.56874428 C22.363054,1.09674428 22.395054,1.12074428 21.611054,1.22474428 C21.363054,1.25674428 21.179054,1.33674428 21.075054,1.45674428 C20.987054,1.55274428 20.259054,2.57674428 19.451054,3.72074428 C18.651054,4.87274428 17.843054,5.95274428 17.651054,6.12874428 C17.083054,6.65674428 16.715054,6.75274428 15.275054,6.75274428 C13.835054,6.75274428 13.467054,6.65674428 12.899054,6.12874428 C12.707054,5.95274428 11.899054,4.87274428 11.099054,3.72074428 C10.291054,2.57674428 9.56305401,1.55274428 9.47505401,1.44874428 C9.33905401,1.28874428 9.21905401,1.24874428 8.79505401,1.22474428 C8.50705401,1.20874428 8.19505401,1.22474428 8.09105401,1.27274428 C7.90705401,1.35274428 3.11505401,5.81674428 3.11505401,5.90474428 C3.11505401,5.97674428 6.05905401,9.51274428 6.11505401,9.51274428 C6.13905401,9.51274428 6.69905401,9.24074428 7.35505401,8.91274428 C8.01105401,8.58474428 8.63505401,8.31274428 8.74705401,8.31274428 C8.85105401,8.31274428 9.02705401,8.38474428 9.14705401,8.48074428 L9.14705401,8.48074428 L9.35505401,8.64074428 L9.35505401,14.0567443 L10.083054,14.0887443 C10.731054,14.1127443 10.827054,14.1367443 10.963054,14.3047443 C11.171054,14.5607443 11.163054,14.9607443 10.931054,15.1767443 C10.755054,15.3367443 10.667054,15.3527443 9.61905401,15.3527443 L9.45199557,15.3529304 C8.27897083,15.3560259 8.23505401,15.405266 8.23505401,16.0327443 C8.23505401,16.0676193 8.23363018,16.1007189 8.23170372,16.1321329 L8.2274536,16.1927402 C8.22599547,16.2122112 8.2245869,16.2309596 8.22350084,16.2490122 L8.22148314,16.3011087 C8.21795324,16.6515423 8.47702074,16.7068096 11.5264684,16.713358 L11.9813589,16.7139887 C12.0604286,16.7140474 12.1411485,16.7140852 12.2235525,16.7141054 L12.7384603,16.7140412 C12.8277376,16.714004 12.9187674,16.7139559 13.0115837,16.7139002 L14.2133183,16.7130763 C14.3209731,16.7130125 14.4305508,16.7129544 14.5420857,16.7129052 L15.9280223,16.7129052 C16.0395572,16.7129544 16.1491349,16.7130125 16.2567897,16.7130763 L17.4585243,16.7139002 C17.5513406,16.7139559 17.6423704,16.714004 17.7316478,16.7140412 L18.2465555,16.7141054 C18.3289595,16.7140852 18.4096794,16.7140474 18.4887491,16.7139887 L18.9436396,16.713358 C21.9930873,16.7068096 22.2521548,16.6515423 22.2486249,16.3011087 L22.2466072,16.2490122 C22.2455211,16.2309596 22.2441125,16.2122112 22.2426544,16.1927402 L22.2384043,16.1321329 C22.2364778,16.1007189 22.235054,16.0676193 22.235054,16.0327443 L22.2354287,15.9911554 C22.2363711,15.9368591 22.2388583,15.8871527 22.2401704,15.8416502 L22.2409169,15.7765011 C22.235892,15.3935966 22.0139425,15.3538767 19.4222584,15.3518558 L18.7439643,15.3519449 C18.6631503,15.3520012 18.5804778,15.352067 18.4959043,15.3521362 L12.787054,15.3527443 L12.595054,15.1527443 C12.283054,14.8487443 12.379054,14.3367443 12.771054,14.1607443 C12.899054,14.0967443 14.235054,14.0727443 17.075054,14.0727443 L21.195054,14.0727443 L21.195054,8.64074428 L21.403054,8.48074428 C21.523054,8.38474428 21.699054,8.31274428 21.803054,8.31274428 C21.915054,8.31274428 22.539054,8.58474428 23.195054,8.91274428 C23.851054,9.24074428 24.411054,9.51274428 24.435054,9.51274428 C24.491054,9.51274428 27.435054,5.97674428 27.435054,5.90474428 C27.435054,5.88074428 26.339054,4.82474428 24.995054,3.56874428 Z M18.387054,2.92874428 C18.371054,2.91274428 18.107054,2.96874428 17.795054,3.04874428 C16.827054,3.29674428 15.939054,3.37674428 14.755054,3.32874428 C14.139054,3.29674428 13.403054,3.22474428 13.115054,3.15274428 C12.011054,2.89674428 12.067054,2.83274428 12.635054,3.65674428 C13.899054,5.48074428 13.883054,5.46474428 15.051054,5.49674428 C16.563054,5.54474428 16.595054,5.52874428 17.683054,3.98474428 C18.083054,3.40874428 18.403054,2.93674428 18.387054,2.92874428 Z" id="Combined-Shape"></path>
                </g>
            </g>
        </g>
    </g>
</svg>