<?xml version="1.0" encoding="UTF-8"?>
<svg width="55px" height="55px" viewBox="0 0 55 55" version="1.1" xmlns="http://www.w3.org/2000/svg" xmlns:xlink="http://www.w3.org/1999/xlink">
    <title>svg/google_ic</title>
    <g id="Page-1" stroke="none" stroke-width="1" fill="none" fill-rule="evenodd">
        <g id="Login" transform="translate(-160.000000, -606.000000)">
            <g id="Group-5" transform="translate(90.000000, 606.000000)">
                <g id="google_ic" transform="translate(70.000000, 0.000000)">
                    <rect id="Background-[12-35]" fill="#FFF4F3" x="0" y="0" width="55" height="55" rx="27.5"></rect>
                    <g id="Group" transform="translate(18.000000, 18.000000)" fill-rule="nonzero">
                        <g id="google">
                            <path d="M18.7487389,9.77824572 C18.7487389,8.99174214 18.6849189,8.41780115 18.5468008,7.82261123 L9.56568313,7.82261123 L9.56568313,11.3725018 L14.8373967,11.3725018 C14.731152,12.2546989 14.157211,13.58327 12.8817622,14.4760183 L12.8638838,14.5948658 L15.7035471,16.7947164 L15.9002829,16.8143534 C17.7071016,15.1456527 18.7487389,12.6904485 18.7487389,9.77824572" id="Path" fill="#4285F4"></path>
                            <path d="M9.56568313,19.1313663 C12.1483809,19.1313663 14.316578,18.2810426 15.9002829,16.8143534 L12.8817622,14.4760183 C12.0740097,15.0393348 10.9898745,15.4325866 9.56568313,15.4325866 C7.03610765,15.4325866 4.8891595,13.7639592 4.12383157,11.4575708 L4.01165187,11.4670962 L1.05892955,13.7522357 L1.02031511,13.8595794 C2.59332227,16.9843448 5.8244056,19.1313663 9.56568313,19.1313663" id="Path" fill="#34A853"></path>
                            <path d="M4.12383157,11.4575708 C3.92189345,10.8623809 3.80502432,10.2246198 3.80502432,9.56568313 C3.80502432,8.90667314 3.92189345,8.26898535 4.11320711,7.67379543 L4.10785824,7.54703456 L1.11813347,5.22518571 L1.02031511,5.27171355 C0.372002859,6.56841132 0,8.02454936 0,9.56568313 C0,11.1068169 0.372002859,12.5628817 1.02031511,13.8595794 L4.12383157,11.4575708" id="Path" fill="#FBBC05"></path>
                            <path d="M9.56568313,3.69870638 C11.3618774,3.69870638 12.5735061,4.4745855 13.2643895,5.12297102 L15.9640297,2.48707761 C14.3060268,0.945943846 12.1483809,0 9.56568313,0 C5.8244056,0 2.59332227,2.14694815 1.02031511,5.27171355 L4.11320711,7.67379543 C4.8891595,5.36740702 7.03610765,3.69870638 9.56568313,3.69870638" id="Path" fill="#EB4335"></path>
                        </g>
                    </g>
                </g>
            </g>
        </g>
    </g>
</svg>