<?xml version="1.0" encoding="UTF-8"?>
<svg width="47px" height="38px" viewBox="0 0 47 38" version="1.1" xmlns="http://www.w3.org/2000/svg" xmlns:xlink="http://www.w3.org/1999/xlink">
    <title>svg/health_suppliers_ic</title>
    <g id="Page-1" stroke="none" stroke-width="1" fill="none" fill-rule="evenodd">
        <g id="Product-All-Category" transform="translate(-45.000000, -466.000000)" fill="#47CDFE" fill-rule="nonzero">
            <g id="Group-2" transform="translate(20.000000, 442.000000)">
                <g id="health_suppliers_ic" transform="translate(25.000000, 24.000000)">
                    <path d="M20.835,0.0608098249 C21.024,0.0788098249 23.13,1.73480982 24.975,3.30980982 C25.4129063,3.68443482 25.9497686,4.15659205 26.4974875,4.6455905 L26.8632751,4.97319895 C28.1423936,6.12236256 29.3740313,7.26559107 29.439,7.37780982 C29.484,7.46780982 29.52,7.69280982 29.52,7.89080982 C29.52,8.52080982 28.863,8.95280982 28.278,8.70080982 C28.125,8.63780982 27.423,8.05280982 26.712,7.41380982 C26.1175263,6.8714414 25.4382881,6.26674611 24.7544902,5.66795547 L24.3443059,5.3099355 C22.5700305,3.76631675 20.8733684,2.35486246 20.664,2.27480982 C20.502,2.21180982 18.477,3.87680982 15.705,6.33380982 C11.052,10.4738098 7.2,14.5778098 5.004,17.7458098 L4.401,18.6188098 L8.98106601,18.6190195 C12.6781622,18.6221197 12.9246279,18.6642284 13.122,19.0418098 C13.167,19.1318098 13.536,20.3558098 13.941,21.7688098 C14.346,23.1818098 14.697,24.3968098 14.724,24.4688098 C14.726025,24.4742098 14.7335681,24.4618404 14.7462953,24.4327155 L14.7785625,24.3524251 C15.0059531,23.7572473 15.908625,20.9734348 16.956,17.6108098 C18.162,13.7588098 19.197,10.5548098 19.26,10.4738098 C19.53,10.1498098 20.43,10.1498098 20.7,10.4738098 C20.763,10.5458098 21.366,12.3818098 22.041,14.5508098 L23.274,18.4838098 L25.434,18.5288098 C27.684,18.5738098 27.738,18.5828098 28.053,18.9788098 C28.116,19.0508098 28.17,19.2848098 28.17,19.5008098 C28.17,19.8158098 28.116,19.9418098 27.909,20.1578098 L27.648,20.4188098 L24.0303236,20.4183845 C22.3213169,20.4156196 22.2146419,20.3948831 22.0270947,20.2393597 L21.9838144,20.201517 L21.9838144,20.201517 L21.9434532,20.1615698 C21.7336482,19.9389886 21.5930571,19.5139241 20.655,16.4858098 C20.313,15.3788098 20.007,14.4788098 19.98,14.4788098 C19.953,14.4788098 18.963,17.6108098 17.775,21.4358098 C15.688125,28.1374348 15.4961719,28.8097629 15.0044766,28.8731321 L14.950548,28.8778384 C14.9321228,28.878795 14.9132153,28.8792218 14.8937256,28.8793657 L14.8334095,28.8791957 C14.8126553,28.8790208 14.7912188,28.8788098 14.769,28.8788098 C14.499,28.8788098 14.337,28.8158098 14.13,28.6358098 C13.878,28.4108098 13.77,28.0688098 12.906,25.0538098 C12.384,23.2268098 11.88,21.4538098 11.781,21.1208098 L11.601,20.5088098 L3.249,20.5088098 L2.943,21.1658098 C2.151,22.8848098 1.89,23.8928098 1.89,25.2788098 C1.89,29.6618098 4.761,33.7658098 8.856,35.2238098 C10.017,35.6378098 11.079,35.8268098 12.33,35.8268098 C15.057,35.8268098 17.325,34.8908098 19.548,32.8658098 C20.484,32.0018098 20.736,32.0018098 21.672,32.8658098 C23.373,34.4228098 25.065,35.3048098 27.054,35.6828098 C27.963,35.8448098 29.637,35.8718098 30.537,35.7278098 C33.552,35.2328098 36.306,33.2978098 37.926,30.5348098 C38.295,29.9048098 38.826,28.6178098 39.006,27.9338098 L39.123,27.4658098 L37.899,27.4118098 C35.613,27.3218098 33.912,26.5478098 32.337,24.8918098 C31.527,24.0368098 30.969,23.0918098 30.582,21.9128098 C30.3278824,21.1345745 30.2909792,20.9869621 30.2858134,19.9737889 L30.285,19.5188098 L30.285,19.5188098 C30.285,17.8628098 30.384,17.3678098 30.915,16.2158098 C31.95,13.9658098 33.804,12.4178098 36.243,11.7698098 C37.233,11.4998098 39.078,11.4998098 40.077,11.7698098 C42.912,12.5168098 45.09,14.6408098 45.855,17.4038098 C46.062,18.1418098 46.134,20.0858098 45.99,20.9048098 C45.576,23.2898098 43.911,25.5128098 41.706,26.6108098 L41.157,26.8898098 L41.049,27.4568098 C40.149,32.0558098 37.044,35.6738098 32.733,37.1138098 C31.419,37.5548098 30.42,37.7078098 28.89,37.7078098 C28.098,37.7078098 27.27,37.6538098 26.775,37.5638098 C24.723,37.2038098 22.599,36.1958098 20.952,34.8008098 L20.61,34.5218098 L20.277,34.8008098 C18.765,36.0698098 16.938,36.9968098 15.075,37.4288098 C14.427,37.5818098 14.031,37.6268098 12.6,37.7348098 C12.375,37.7528098 11.808,37.7348098 11.34,37.6898098 C8.307,37.4558098 5.571,36.1328098 3.438,33.8738098 C1.215,31.5338098 5.32907052e-14,28.4468098 5.32907052e-14,25.1888098 C5.32907052e-14,23.8568098 0.18,22.9568098 0.711,21.5348098 C0.918,21.0038098 1.08,20.5538098 1.08,20.5358098 C1.08,20.5178098 0.954,20.5088098 0.801,20.5088098 C0.369,20.5088098 5.32907052e-14,20.0858098 5.32907052e-14,19.5908098 C5.32907052e-14,18.8888098 0.414,18.6188098 1.476,18.6188098 L2.133,18.6188098 L2.484,18.0608098 C5.193,13.6598098 11.178,7.41380982 18.162,1.71680982 C20.286,-0.0201901751 20.232,0.0158098249 20.835,0.0608098249 Z M38.16,13.4618098 C37.287,13.4618098 37.017,13.4978098 36.405,13.6958098 C35.406,14.0288098 34.623,14.5058098 33.885,15.2438098 C32.715,16.4228098 32.211,17.5748098 32.148,19.2488098 C32.112,20.1218098 32.139,20.4098098 32.301,21.0038098 C32.616,22.1288098 33.057,22.8758098 33.93,23.7488098 C35.136,24.9638098 36.459,25.5308098 38.115,25.5398098 C38.511,25.5398098 39.114,25.4858098 39.456,25.4138098 C39.807,25.3418098 40.428,25.1078098 40.851,24.9008098 C41.85,24.4058098 42.993,23.3078098 43.488,22.3538098 C44.037,21.3008098 44.217,20.4728098 44.172,19.2488098 C44.109,17.5748098 43.605,16.4228098 42.435,15.2438098 C41.697,14.5058098 40.914,14.0288098 39.915,13.6958098 C39.303,13.4978098 39.033,13.4618098 38.16,13.4618098 Z M38.16,15.2888098 C38.457,15.2888098 38.592,15.3428098 38.799,15.5498098 L39.06,15.8108098 L39.06,18.5108098 L40.446,18.5468098 C41.769,18.5738098 41.85,18.5828098 42.066,18.7898098 C42.516,19.2128098 42.444,20.0228098 41.931,20.2838098 C41.7555,20.3757384 41.3937551,20.4133455 40.5647351,20.418249 L39.06,20.4188098 L39.06,21.7688098 C39.06,23.2718098 38.997,23.4788098 38.502,23.6498098 C38.169,23.7668098 38.097,23.7668098 37.8,23.6498098 C37.3360909,23.4694007 37.2658017,23.2971921 37.2603702,21.9903444 L37.26,20.4188098 L35.955,20.4188098 C34.983,20.4188098 34.578,20.3828098 34.389,20.2838098 C33.876,20.0228098 33.804,19.2128098 34.254,18.7898098 C34.47,18.5828098 34.551,18.5738098 35.874,18.5468098 L37.26,18.5108098 L37.26,15.8108098 L37.521,15.5498098 C37.728,15.3428098 37.863,15.2888098 38.16,15.2888098 Z M31.5,9.43880982 C32.391,9.80780982 32.13,11.2388098 31.167,11.2388098 C30.978,11.2388098 30.726,11.1758098 30.609,11.0948098 C30.33,10.8968098 30.132,10.4018098 30.204,10.0868098 C30.339,9.52880982 30.96,9.21380982 31.5,9.43880982 Z" id="Combined-Shape" transform="translate(23.032661, 18.894405) scale(-1, 1) rotate(-180.000000) translate(-23.032661, -18.894405) "></path>
                </g>
            </g>
        </g>
    </g>
</svg>