<?xml version="1.0" encoding="UTF-8"?>
<svg width="42px" height="43px" viewBox="0 0 42 43" version="1.1" xmlns="http://www.w3.org/2000/svg" xmlns:xlink="http://www.w3.org/1999/xlink">
    <title>svg/hobbies_ic</title>
    <g id="Page-1" stroke="none" stroke-width="1" fill="none" fill-rule="evenodd">
        <g id="Product-All-Category" transform="translate(-294.000000, -781.000000)" fill="#47CDFE" fill-rule="nonzero" stroke="#47CDFE" stroke-width="0.2">
            <g id="Group-2" transform="translate(273.000000, 760.000000)">
                <g id="hobbies_ic" transform="translate(22.000000, 22.000000)">
                    <path d="M30.744,0.4 C31.752,-0.04 32.144,-0.096 32.4,0.16 C32.544,0.304 32.56,0.424 32.56,1.624 L32.56,2.92 L33.976,2.456 C34.752,2.2 35.56,1.968 35.776,1.944 L35.776,1.944 L36.16,1.896 L37.232,2.952 L38.296,4.008 L38.608,3.848 C38.976,3.648 39.656,3.624 39.984,3.792 C40.272,3.944 40.608,4.312 40.712,4.584 C40.7664681,4.7133617 40.7919638,6.90555727 40.79835,11.4860637 L40.7991659,12.1910927 C40.7992784,12.3115965 40.7993793,12.4336031 40.7994686,12.5571177 L40.7994886,17.5973903 C40.7994375,17.6959886 40.7993812,17.792925 40.7993193,17.8882286 L40.7985967,18.7026537 C40.7984965,18.7884201 40.7983891,18.8726404 40.798274,18.9553435 L40.7974875,19.433586 C40.7915757,22.5035721 40.7717538,23.2384502 40.705292,23.4882275 L40.6949689,23.5222871 C40.6914085,23.5325817 40.6877274,23.5418948 40.6839216,23.5504577 L40.6721256,23.5741267 L40.6721256,23.5741267 L40.6595564,23.5946818 C40.6573957,23.5979252 40.6552018,23.6010967 40.6529741,23.6042252 L40.632,23.632 C40.4,23.928 39.92,23.928 39.688,23.632 L39.688,23.632 L39.6670259,23.6042344 C39.6603429,23.5948582 39.6539637,23.585104 39.6478744,23.5742004 L39.6360784,23.5506322 C39.5504468,23.3589498 39.527986,22.7929763 39.5220947,19.249687 L39.5214033,18.7593766 C39.5213031,18.6746415 39.52121,18.5883789 39.5211235,18.5005604 L39.5203728,17.3702231 C39.5203314,17.2694997 39.5202946,17.1671061 39.5202618,17.0630137 L39.5194671,12.0651559 C39.5194041,11.9554835 39.5193349,11.8474728 39.5192591,11.7410995 L39.5183928,10.827291 C39.5123891,5.89209997 39.4869508,5.02544262 39.4,4.992 C39.3943111,4.98986667 39.3625165,5.00252444 39.3061951,5.02910806 L39.2035153,5.0793197 C38.4190933,5.47217778 35.3781333,7.14773333 31.544,9.304 L31.544,9.304 L23.8,13.656 L23.776,26.392 C23.7745287,27.5197241 23.7732604,28.5477405 23.7722759,29.484832 L23.7715919,30.1707395 C23.7714872,30.2822617 23.7713873,30.3923976 23.7712923,30.5011642 L23.7703975,31.741738 C23.7703442,31.8398252 23.7702965,31.9366117 23.7702545,32.0321148 L23.770264,33.8548934 C23.7703095,33.9332685 23.7703618,34.0104801 23.7704211,34.0865456 L23.7711467,34.7406493 C23.7712491,34.8099917 23.771359,34.8782394 23.7714765,34.9454094 L23.7722737,35.3356352 C23.7792524,38.2932583 23.8037017,38.9462055 23.8620188,39.0754627 L23.8696488,39.089256 C23.8722543,39.0929969 23.8749224,39.0959269 23.8776544,39.098183 C23.8874735,39.1035899 23.8889202,39.1039786 23.8903834,39.1042503 L23.8993609,39.1046138 C23.984,39.088 27.528,37.12 31.784,34.728 L31.784,34.728 L39.52,30.376 L39.5202709,28.1863401 C39.5224802,26.8842193 39.5412174,26.7787826 39.68,26.64 C39.896,26.424 40.424,26.424 40.64,26.64 C40.773,26.773 40.79575,26.875375 40.7993594,28.0993906 L40.799731,28.931635 C40.7950769,30.8290178 40.7258462,31.0929231 40.272,31.416 C40.144,31.504 36.528,33.552 32.24,35.968 C24.696,40.208 24.424,40.352 23.96,40.384 C23.608,40.408 23.432,40.464 23.28,40.6 C22.9285517,40.9155862 22.8407515,40.9546635 21.0794847,40.9593712 L19.7205153,40.9593712 C17.9592485,40.9546635 17.8714483,40.9155862 17.52,40.6 C17.368,40.464 17.192,40.408 16.84,40.384 C16.6758154,40.3726769 16.5346689,40.346329 16.0869383,40.1291577 L15.9629677,40.0680601 C15.0872426,39.6303432 13.1975385,38.5692308 8.56,35.96 C4.272,33.552 0.656,31.504 0.528,31.416 C0.408,31.328 0.232,31.112 0.152,30.928 C0.0427586207,30.6913103 0.0117859691,30.3395196 0.00319849112,24.7697608 L0.00247792341,24.2489025 C0.0023675883,24.1596497 0.00226200336,24.0691635 0.00216097421,23.9774262 L0.00136946984,23.1175307 C0.001294026,23.0181269 0.00122255479,22.9174187 0.00115486186,22.8153883 L0.00107687892,14.685833 C0.00118077822,14.5520979 0.00129238591,14.4197776 0.001411784,14.2888669 L0.00222231334,13.5202778 C0.00946492271,7.50623543 0.0350344828,4.71641379 0.088,4.584 C0.192,4.312 0.528,3.944 0.816,3.792 C1.144,3.624 1.824,3.648 2.192,3.848 L2.192,3.848 L2.504,4.008 L3.568,2.952 L4.64,1.896 L5.024,1.944 C5.24,1.968 6.048,2.2 6.824,2.456 L6.824,2.456 L8.24,2.92 L8.24016735,1.4338107 C8.24217284,0.410592593 8.264,0.296 8.4,0.16 C8.656,-0.096 9.048,-0.04 10.056,0.4 C11.144,0.872 12.312,1.512 13.36,2.192 C15.488,3.584 17.496,5.592 18.84,7.68 C19.24,8.288 20.064,9.896 20.248,10.416 C20.304,10.584 20.376,10.72 20.4,10.72 C20.424,10.72 20.496,10.584 20.552,10.416 C20.736,9.896 21.568,8.272 21.96,7.664 C23.968,4.576 27.072,2 30.744,0.4 Z M22.48,38.24 L18.32,38.24 L18.32,38.92 C18.32,39.504 18.344,39.608 18.472,39.68 C18.568,39.728 19.336,39.76 20.4,39.76 L20.6087419,39.7595781 C21.5634133,39.7556622 22.2384,39.7248 22.328,39.68 C22.456,39.608 22.48,39.504 22.48,38.92 L22.48,38.24 Z M1.424,4.96 C1.41925581,4.96 1.41466739,4.96079827 1.41022963,4.96285054 L1.40155349,4.96876212 C1.31677076,5.0472986 1.29089606,5.74896512 1.28317825,10.7196293 L1.28246548,11.2310608 C1.28235627,11.318716 1.28225173,11.4075909 1.28215166,11.4977022 L1.28136686,12.3425444 C1.28129196,12.4402264 1.28122097,12.5391956 1.28115371,12.6394687 L1.28040038,14.2434745 C1.28036563,14.3572095 1.28033366,14.4723329 1.28030428,14.5888615 L1.28,30.376 L9.016,34.728 C13.272,37.12 16.824,39.088 16.896,39.104 C16.9877209,39.120186 17.0212223,38.8525516 17.0284064,34.9538096 L17.0293143,34.3192253 C17.0293927,34.2453748 17.0294638,34.1703934 17.0295277,34.094264 L17.0294572,31.4488189 C17.0293941,31.3480135 17.0293254,31.2458884 17.0292514,31.1424267 L17.0284444,30.1747155 C17.0283396,30.0630789 17.0282299,29.9500541 17.0281155,29.8356239 L17.0273739,29.1320413 C17.0264456,28.2911996 17.0253023,27.379814 17.024,26.392 L17.024,26.392 L17,13.656 L9.28,9.312 C5.032,6.92 1.496,4.968 1.424,4.96 Z M22.48,35.52 L18.32,35.52 L18.32,36.96 L22.48,36.96 L22.48,35.52 Z M22.48,19.44 L18.32,19.44 L18.32,34.24 L22.48,34.24 L22.48,19.44 Z M20.421696,22.599104 L20.464,22.608 C20.528,22.624 20.608,22.64 20.64,22.64 C20.68,22.64 20.784,22.72 20.88,22.816 L20.88,22.816 L20.9033746,22.8417776 C21.0178445,22.9771891 21.0364072,23.187123 21.0394174,25.3317906 L21.0393883,28.2864888 C21.0360237,30.571645 21.0141538,30.656 20.872,30.832 C20.64,31.128 20.16,31.128 19.928,30.832 C19.9236923,30.8266667 19.9194951,30.8214175 19.9154055,30.8161887 L19.8921365,30.7845498 C19.7856932,30.6278768 19.7649959,30.3810343 19.7609714,28.4882313 L19.760354,28.0726208 C19.7602832,27.999268 19.7602266,27.9238304 19.7601813,27.8462443 L19.76,26.808 C19.768,22.736 19.76,22.808 20.168,22.648 C20.272,22.608 20.408,22.584 20.464,22.608 Z M31.24,13.664 C36.995661,10.3685424 37.2883217,10.1937696 37.6247138,10.5060274 L37.661174,10.5412273 L37.661174,10.5412273 L37.68,10.56 L37.68,10.56 L37.7114627,10.593955 C37.8185399,10.7221704 37.8367005,10.9249419 37.8395171,12.314513 L37.84,15.192 L37.584,15.384 C37.359,15.5482857 35.082023,16.8589362 32.6115271,18.2625168 L32.0158441,18.600621 C31.9162615,18.6570893 31.8166071,18.7135714 31.717,18.77 L31.120875,19.1073892 C28.5483673,20.561949 26.1685714,21.8891429 26.072,21.904 C25.936,21.928 25.784,21.864 25.632,21.736 L25.632,21.736 L25.4,21.536 L25.376,19.424 C25.3743158,19.2581053 25.3730748,19.1032909 25.3722957,18.958885 L25.3719703,18.3770485 C25.3765097,17.574205 25.4050526,17.232 25.464,17.12 C25.536,16.976 27.144,16.008 31.24,13.664 Z M36.504,12.168 C36.464,12.168 34.232,13.44 31.544,14.984 L31.544,14.984 L26.64,17.792 L26.64,20.168 L27.104,19.904 C27.36,19.76 29.592,18.488 32.064,17.08 L32.064,17.08 L36.552,14.52 L36.56,13.336 C36.56,12.688 36.536,12.16 36.504,12.168 Z M22.48,16.72 L18.32,16.72 L18.32,18.16 L22.48,18.16 L22.48,16.72 Z M22.384,14.016 C22.248,13.88 18.552,13.88 18.416,14.016 C18.36,14.072 18.32,14.368 18.32,14.776 L18.32,14.776 L18.32,15.44 L22.48,15.44 L22.48,14.776 C22.48,14.368 22.44,14.072 22.384,14.016 Z M35.64,3.28 C35.6,3.28 34.984,3.48 34.28,3.712 C30.632,4.944 27.48,6.648 24.96,8.768 C24.024,9.552 22.56,11.096 21.944,11.944 L21.944,11.944 L21.448,12.624 L21.984,12.672 C22.336,12.712 22.632,12.688 22.848,12.624 C23.032,12.568 26.312,10.752 30.144,8.6 L30.144,8.6 L37.112,4.68 L36.416,3.976 C36.032,3.592 35.688,3.28 35.64,3.28 Z M9.568,1.6 C9.544,1.6 9.52,2.008 9.52,2.512 L9.52,2.512 L9.52,3.424 L10.784,4.04 C11.472,4.368 12.088,4.704 12.144,4.776 C12.368,5.08 12.176,5.616 11.784,5.768 C11.608,5.832 11.408,5.76 10.464,5.32 C8.976,4.616 7.48,4.016 6.176,3.592 L6.176,3.592 L5.112,3.248 L4.4,3.968 L3.688,4.68 L10.656,8.6 C14.488,10.752 17.768,12.568 17.952,12.624 C18.168,12.688 18.464,12.704 18.816,12.672 L18.816,12.672 L19.344,12.624 L18.856,11.936 C18.168,10.984 16.488,9.272 15.464,8.472 C14.992,8.104 14.528,7.72 14.424,7.624 C14.032,7.248 14.312,6.56 14.864,6.56 C15.096,6.56 15.288,6.664 15.896,7.128 C16.304,7.44 17.008,8.04 17.456,8.464 C18.128,9.104 18.24,9.184 18.08,8.92 C16.376,6.072 13.848,3.752 10.656,2.128 C10.08,1.84 9.592,1.6 9.568,1.6 Z M31.224,1.6 C31.064,1.608 28.984,2.744 28.24,3.232 C26.024,4.68 24.024,6.72 22.808,8.784 L22.808,8.784 L22.544,9.24 L23.208,8.6 C25,6.888 27.208,5.408 29.96,4.064 L29.96,4.064 L31.28,3.424 L31.279417,2.37716003 C31.2755702,1.93719008 31.2530909,1.6 31.224,1.6 Z" id="Combined-Shape"></path>
                </g>
            </g>
        </g>
    </g>
</svg>