<?xml version="1.0" encoding="UTF-8"?>
<svg width="45px" height="37px" viewBox="0 0 45 37" version="1.1" xmlns="http://www.w3.org/2000/svg" xmlns:xlink="http://www.w3.org/1999/xlink">
    <title>svg/home_and_garden_ic</title>
    <g id="Page-1" stroke="none" stroke-width="1" fill="none" fill-rule="evenodd">
        <g id="Product-All-Category" transform="translate(-47.000000, -1086.000000)" fill="#47CDFE" fill-rule="nonzero">
            <g id="Group-2" transform="translate(20.000000, 1062.000000)">
                <g id="home_and_garden_ic" transform="translate(27.000000, 24.000000)">
                    <g id="Group" transform="translate(22.500000, 18.636070) scale(-1, 1) rotate(-180.000000) translate(-22.500000, -18.636070) translate(-0.000000, 0.636070)">
                        <path d="M39.74049,35.51337 C39.15648,35.36505 38.4705,34.96644 38.01627,34.51221 C37.66401,34.15068 37.06146,33.06609 34.64199,28.44036 C32.66748,24.66747 31.64778,22.6188 31.55508,22.23873 C31.38822,21.58983 31.4253,20.89458 31.65705,20.19933 L31.80537,19.77291 L31.18428,18.57708 C30.84129,17.92818 30.46122,17.21439 30.34071,17.00118 L30.11823,16.60257 L28.9224,17.20512 C27.69876,17.81694 27.26307,17.92818 26.94789,17.69643 C26.86446,17.63154 25.6779,15.61068 24.30594,13.20975 C21.61764,8.50059 21.38589,7.99074 21.20049,6.45192 L21.09852,5.60835 L20.63502,5.77521 C20.37546,5.85864 19.94904,5.9328 19.69875,5.94207 L19.23525,5.94207 L19.06839,6.40557 C18.74394,7.31403 17.56665,8.16687 16.63965,8.16687 L16.3152,8.16687 L16.3152,11.13327 L16.3152,14.09967 L17.19585,14.09967 C20.44035,14.09967 23.37894,16.08345 24.63966,19.12401 C25.1217,20.29203 25.2144,20.96874 25.2144,23.50872 C25.2144,26.02089 25.17732,26.20629 24.63039,26.7903 C24.0093,27.44847 24.02784,27.44847 19.82853,27.44847 C16.1298,27.44847 16.04637,27.44847 15.16572,27.21672 C14.66514,27.09621 13.96062,26.84592 13.58055,26.66052 C12.68136,26.2341 11.53188,25.35345 10.96641,24.68601 L10.52145,24.14835 L10.05795,24.2874 C9.44613,24.46353 2.01159,24.55623 1.45539,24.38937 C1.00116,24.25959 0.38934,23.70339 0.17613,23.23062 C0.02781,22.90617 0,22.58172 0,20.49597 C0,17.69643 0.10197,17.10315 0.8343,15.62922 C1.65006,13.97916 2.90151,12.73698 4.58865,11.92122 C5.99769,11.23524 6.19236,11.19816 9.19584,11.16108 L11.8656,11.11473 L11.8656,9.60372 L11.8656,8.09271 L11.59677,8.02782 C11.43918,8.00001 11.14254,7.84242 10.92933,7.68483 C10.55853,7.416 10.48437,7.39746 9.77985,7.416 C9.20511,7.43454 8.8992,7.38819 8.49132,7.23987 C7.80534,6.98031 7.11009,6.3036 6.88761,5.66397 L6.72075,5.20047 L6.00696,5.20047 C5.07996,5.20047 4.41252,4.95945 3.85632,4.42179 C3.44844,4.01391 3.0591,3.39282 3.0591,3.11472 C3.0591,3.00348 2.92005,2.97567 2.27115,2.97567 L1.4832,2.97567 L1.4832,2.23407 L1.4832,1.49247 L2.781,1.49247 C4.27347,1.49247 4.39398,1.54809 4.49595,2.26188 C4.62573,3.10545 5.17266,3.62457 5.9328,3.62457 C6.61878,3.62457 7.3233,3.03129 7.3233,2.44728 C7.3233,2.24334 7.36038,2.23407 8.11125,2.23407 L8.8992,2.23407 L8.8992,2.53998 C8.8992,2.97567 8.74161,3.46698 8.48205,3.84705 C7.88877,4.71843 8.54694,5.84937 9.6408,5.84937 C10.32678,5.84937 11.0313,5.25609 11.0313,4.67208 C11.0313,4.46814 11.06838,4.45887 11.81925,4.45887 L12.6072,4.45887 L12.6072,4.78332 C12.6072,5.16339 12.31056,5.97915 12.07881,6.23871 C11.93976,6.38703 11.93976,6.43338 12.051,6.49827 C12.26421,6.63732 12.95946,6.60951 13.2561,6.45192 C13.49712,6.33141 13.51566,6.28506 13.4415,6.07185 C13.38588,5.94207 13.3488,5.69178 13.3488,5.51565 L13.3488,5.20047 L14.13675,5.20047 C14.88762,5.20047 14.9247,5.20974 14.9247,5.41368 C14.9247,5.71032 15.24915,6.19236 15.59214,6.40557 C15.95367,6.62805 16.58403,6.64659 16.9641,6.45192 C17.22366,6.32214 17.613,5.89572 17.613,5.75667 C17.613,5.71032 17.4276,5.58981 17.19585,5.47857 C16.64892,5.21901 15.8517,4.48668 15.49944,3.92121 C15.13791,3.35574 14.832,2.43801 14.832,1.90962 L14.832,1.49247 L15.61995,1.49247 L16.4079,1.49247 L16.4079,1.84473 C16.4079,2.3175 16.88067,3.25377 17.31636,3.63384 C18.22482,4.44033 19.467,4.61646 20.52378,4.09734 C20.83896,3.94902 21.19122,3.71727 21.30246,3.59676 L21.51567,3.36501 L21.20049,3.17034 C20.58867,2.79027 20.0232,1.78911 20.0232,1.07532 L20.0232,0.75087 L20.81115,0.75087 C21.56202,0.75087 21.5991,0.76014 21.5991,0.96408 C21.5991,1.54809 22.30362,2.14137 22.9896,2.14137 C23.67558,2.14137 24.3801,1.54809 24.3801,0.96408 C24.3801,0.76014 24.40791,0.75087 25.17732,0.75087 L25.98381,0.75087 L25.92819,1.18656 C25.90965,1.43685 25.85403,1.70568 25.81695,1.78911 C25.73352,2.00232 26.08578,2.14137 26.6976,2.14137 C27.30942,2.14137 27.66168,2.00232 27.57825,1.78911 C27.54117,1.70568 27.48555,1.43685 27.46701,1.19583 L27.41139,0.75087 L28.21788,0.75087 C28.98729,0.75087 29.0151,0.76014 29.0151,0.96408 C29.0151,1.54809 29.71962,2.14137 30.4056,2.14137 C31.09158,2.14137 31.7961,1.54809 31.7961,0.96408 C31.7961,0.76014 31.83318,0.75087 32.58405,0.75087 L33.372,0.75087 L33.372,1.06605 C33.372,1.24218 33.33492,1.49247 33.2793,1.62225 C33.20514,1.83546 33.22368,1.88181 33.4647,2.00232 C33.61302,2.07648 33.90966,2.14137 34.13214,2.14137 C34.87374,2.14137 35.42067,1.61298 35.55045,0.77868 C35.67096,-0.01854 35.54118,0.0091517155 39.1194,0.0091517155 L42.2712,0.0091517155 L42.2712,0.75087 L42.2712,1.49247 L39.64779,1.49247 L37.03365,1.49247 L36.86679,1.95597 C36.64431,2.5956 35.94906,3.27231 35.25381,3.53187 C34.79958,3.708 34.58637,3.72654 33.87258,3.69873 L33.02901,3.65238 L35.05914,7.98147 C37.09854,12.35691 37.24686,12.74625 36.96876,13.09851 C36.90387,13.18194 36.19935,13.58055 35.39286,13.97916 L33.94674,14.70222 L34.78104,16.27812 L35.60607,17.85402 L36.13446,18.01161 C36.78336,18.20628 37.4508,18.6327 37.8216,19.11474 C38.12751,19.48554 43.76367,30.17385 44.01396,30.83202 C44.22717,31.39749 44.19936,32.66748 43.95834,33.27003 C43.58754,34.21557 42.81813,34.98498 41.88186,35.34651 C41.31639,35.55972 40.25961,35.64315 39.74049,35.51337 Z M41.3442,33.8355 C42.15996,33.4647 42.58638,32.83434 42.58638,31.99077 C42.59565,31.49019 42.49368,31.28625 39.69414,25.91892 C36.57015,19.93977 36.44964,19.7451 35.62461,19.49481 C35.10549,19.33722 34.78104,19.35576 34.299,19.57824 C33.48324,19.94904 33.05682,20.5794 33.05682,21.42297 C33.04755,21.92355 33.14952,22.12749 35.94906,27.49482 C38.36853,32.12055 38.92473,33.12171 39.25845,33.43689 C39.89808,34.03944 40.6026,34.16922 41.3442,33.8355 Z M23.21208,25.83549 C23.70339,25.63155 23.76828,25.3071 23.70339,23.18427 C23.6385,21.07071 23.49018,20.35692 22.87836,19.17036 C22.37778,18.20628 21.20049,16.98264 20.3013,16.51914 L19.70802,16.19469 L20.17152,16.75089 C21.55275,18.36387 22.14603,19.81926 22.22946,21.82158 L22.27581,22.99887 L21.52494,22.99887 L20.78334,22.99887 L20.71845,22.19238 C20.57013,20.22714 19.98612,18.87372 18.7254,17.62227 C18.13212,17.02899 17.75205,16.73235 17.17731,16.43571 C16.76943,16.2225 16.4079,16.04637 16.38009,16.04637 C16.36155,16.04637 16.3152,16.43571 16.28739,16.90848 C16.1298,19.33722 14.71149,21.75669 12.65355,23.10084 L12.03246,23.50872 L12.63501,24.07419 C13.66398,25.04754 15.10083,25.71498 16.48206,25.8633 C16.8714,25.90965 18.48438,25.94673 20.05101,25.956 C22.31289,25.96527 22.97106,25.93746 23.21208,25.83549 Z M9.5481,22.76712 C12.06954,22.08114 13.905,20.25495 14.60025,17.71497 C14.74857,17.18658 14.77638,16.55622 14.80419,12.47742 C14.84127,7.96293 14.84127,7.84242 14.66514,7.73118 C14.51682,7.64775 14.40558,7.66629 14.04405,7.85169 C13.79376,7.9722 13.54347,8.07417 13.46931,8.07417 C13.37661,8.07417 13.3488,8.48205 13.3488,10.15992 C13.3488,12.71844 13.39515,12.61647 12.17151,12.61647 C9.63153,12.62574 8.04636,13.15413 6.62805,14.48901 C5.29317,15.73119 4.64427,17.17731 4.49595,19.22598 L4.43106,20.03247 L3.68946,20.03247 L2.93859,20.03247 L2.99421,18.85518 C3.02202,18.19701 3.11472,17.41833 3.19815,17.11242 C3.44844,16.18542 4.19931,14.76711 4.87602,13.96989 L5.48784,13.24683 L4.89456,13.55274 C4.01391,14.01624 2.82735,15.24915 2.33604,16.20396 C1.72422,17.39052 1.5759,18.10431 1.51101,20.21787 C1.44612,22.31289 1.51101,22.65588 1.98378,22.86909 C2.43801,23.0823 8.7138,22.9896 9.5481,22.76712 Z M33.43689,18.21555 C33.65937,18.12285 33.8355,18.01161 33.8355,17.9838 C33.8355,17.86329 30.41487,11.38356 30.25728,11.2167 C30.17385,11.11473 30.0348,11.04057 29.95137,11.04057 C29.70108,11.04057 29.3859,11.3094 29.3859,11.52261 C29.3859,11.62458 30.14604,13.15413 31.06377,14.9247 C31.99077,16.686 32.78799,18.20628 32.83434,18.29898 C32.88069,18.39168 32.94558,18.45657 32.98266,18.42876 C33.01974,18.41022 33.22368,18.31752 33.43689,18.21555 Z M29.3859,15.18426 C29.3859,15.16572 29.04291,14.51682 28.63503,13.72887 C28.01394,12.55158 27.87489,12.19932 27.82854,11.76363 C27.68022,10.1043 29.31174,8.98263 30.83202,9.68715 C31.4253,9.96525 31.60143,10.197 32.49135,11.90268 C32.88069,12.65355 33.21441,13.26537 33.24222,13.26537 C33.372,13.26537 35.226,12.28275 35.226,12.20859 C35.226,12.10662 32.56551,6.37776 31.90734,5.06142 C31.23063,3.69873 31.28625,3.74508 30.34071,3.69873 C29.72889,3.68019 29.41371,3.6153 29.09853,3.45771 L28.67211,3.25377 L28.22715,3.44844 C27.98613,3.55968 27.54117,3.67092 27.24453,3.68946 C26.93862,3.71727 26.6976,3.75435 26.6976,3.76362 C26.6976,3.77289 27.17964,4.66281 27.77292,5.7474 C28.3662,6.83199 28.8297,7.75899 28.80189,7.82388 C28.74627,7.96293 27.55971,8.59329 27.48555,8.5284 C27.45774,8.50059 26.79957,7.31403 26.02089,5.88645 L24.61185,3.30012 L24.26886,3.46698 C24.08346,3.55968 23.75901,3.66165 23.53653,3.69873 C23.19354,3.75435 23.11011,3.81924 22.91544,4.18077 C22.7115,4.57011 22.69296,4.67208 22.73931,5.61762 C22.8042,7.2306 22.97106,7.62921 25.53885,12.12516 L27.76365,16.01856 L28.57941,15.61995 C29.02437,15.39747 29.3859,15.2028 29.3859,15.18426 Z" id="Shape"></path>
                    </g>
                </g>
            </g>
        </g>
    </g>
</svg>