<?xml version="1.0" encoding="UTF-8"?>
<svg width="43px" height="42px" viewBox="0 0 43 42" version="1.1" xmlns="http://www.w3.org/2000/svg" xmlns:xlink="http://www.w3.org/1999/xlink">
    <title>svg/home_and_kitchen_ic</title>
    <g id="Page-1" stroke="none" stroke-width="1" fill="none" fill-rule="evenodd">
        <g id="Product-All-Category" transform="translate(-175.000000, -1234.000000)" fill="#47CDFE" fill-rule="nonzero" stroke="#47CDFE" stroke-width="0.2">
            <g id="Group-2" transform="translate(146.000000, 1213.000000)">
                <g id="home_and_kitchen_ic" transform="translate(30.000000, 22.000000)">
                    <path d="M14.312,15.192 C14.56,14.992 14.864,15 15.096,15.216 C15.264,15.368 15.28,15.456 15.28,16.096 C15.28,17.064 15.04,17.48 14.344,17.72 C14.04,17.824 14.04,17.824 14.016,18.312 L14.016,18.312 L13.992,18.8 L25.1894062,18.800417 C25.3098414,18.8004871 25.4287884,18.8005661 25.5462589,18.8006542 L26.2334577,18.8012928 C31.3675813,18.8070374 33.4270189,18.8324528 33.552,18.888 C33.96,19.072 33.992,19.712 33.608,19.912 C33.5146667,19.9653333 30.0546667,19.9908889 22.4178148,19.9979259 L21.5680954,19.9986206 C21.423701,19.9987243 21.277916,19.9988219 21.1307357,19.9989137 L19.7683057,19.9995798 C19.6127092,19.9996363 19.4557027,19.999687 19.2972814,19.999732 L1.2,20 L1.2,21.52 L39.76,21.52 L39.76,20 L37.1920728,19.999813 C35.5522414,19.9980247 35.4515556,19.9807407 35.296,19.84 C35.04,19.6 35.056,19.184 35.336,18.96 C35.4845714,18.8457143 35.5596735,18.8089796 36.4067872,18.8060641 L36.6849271,18.8061603 C36.9879184,18.8071837 37.368,18.8108571 37.848,18.816 C40.024,18.84 40.16,18.848 40.368,19.008 C40.872,19.376 40.92,19.52 40.944,20.688 C40.968,21.72 40.968,21.776 40.768,22.112 C40.512,22.552 40.168,22.72 39.528,22.72 L39.528,22.72 L39.04,22.72 L39.0399067,34.500898 C39.0398484,34.595902 39.0397794,34.6892408 39.039698,34.7809455 L39.0390501,35.3118134 C39.0330332,39.0647009 38.9971692,39.7746705 38.7983426,40.0980723 L38.7702073,40.140026 C38.7167282,40.2134629 38.6526857,40.2702857 38.576,40.352 C38.456,40.48 38.216,40.648 38.04,40.728 L38.04,40.728 L38.0000215,40.7446354 C37.9927683,40.7473019 37.9851364,40.749916 37.9770006,40.7524788 L37.950956,40.7600143 C37.6497138,40.8400028 36.6838284,40.8668577 30.7515737,40.875731 L30.18975,40.8765 C30.09372,40.87662 29.9964832,40.876736 29.8980239,40.8768481 L29.2924735,40.8774755 C29.1890617,40.8775726 29.0843961,40.8776661 28.9784611,40.8777562 L27.9903476,40.8784759 C27.8766549,40.8785462 27.7616457,40.8786133 27.6453044,40.8786775 L25.000944,40.879632 C24.8651856,40.8796608 24.7279854,40.8796875 24.5893279,40.8797123 L16.3706721,40.8797123 C16.2320146,40.8796875 16.0948144,40.8796608 15.959056,40.879632 L13.3146956,40.8786775 C13.1983543,40.8786133 13.0833451,40.8785462 12.9696524,40.8784759 L11.9815389,40.8777562 C11.8756039,40.8776661 11.7709383,40.8775726 11.6675265,40.8774755 L11.0619761,40.8768481 C10.9635168,40.876736 10.86628,40.87662 10.77025,40.8765 L10.2084263,40.875731 C4.3674371,40.8669942 3.34118123,40.8408249 3.02343506,40.7636685 L2.99559675,40.7562847 L2.99559675,40.7562847 L2.971158,40.748596 L2.971158,40.748596 L2.94936693,40.7405963 L2.94936693,40.7405963 L2.92947166,40.7322793 L2.92947166,40.7322793 C2.744,40.648 2.504,40.48 2.384,40.352 C2.37005714,40.3371429 2.35653224,40.3231086 2.3434128,40.3096477 L2.30525836,40.2707357 C2.28677682,40.2518903 2.26917943,40.2337737 2.252424,40.215544 L2.22002325,40.1786842 C2.20958887,40.1661811 2.1995162,40.1533781 2.18979272,40.140026 L2.1616574,40.0980723 C1.95831198,39.7673205 1.92542078,39.0322299 1.9205844,35.0511882 L1.91994899,34.2108586 C1.91991058,34.1124927 1.91988133,34.0124304 1.91985969,33.9106403 L1.91986491,32.6042358 C1.91987909,32.4881254 1.91989462,32.3701626 1.91990995,32.2503162 L1.92,22.72 L1.432,22.72 C0.824,22.72 0.408,22.512 0.16,22.072 C6.83429008e-14,21.784 -0.008,21.664 0.016,20.68 C0.04,19.52 0.088,19.376 0.592,19.008 C0.8,18.848 0.936,18.84 2.848,18.816 L2.848,18.816 L4.88,18.792 L4.88,18.28 C4.88,17.784 4.872,17.76 4.688,17.76 C4.392,17.76 3.976,17.432 3.784,17.04 C3.64,16.76 3.6,16.552 3.6,16.056 C3.6,15.504 3.624,15.408 3.8,15.24 C4.04,14.992 4.368,14.984 4.616,15.216 C4.776,15.368 4.8,15.464 4.8,15.976 C4.8,16.512 4.816,16.56 4.984,16.6 C5.04914286,16.6162857 6.02783673,16.6252041 7.41265561,16.6267551 L8.33654337,16.6267551 C8.74005102,16.6263469 9.16428571,16.6254286 9.6,16.624 L9.6,16.624 L14.04,16.6 L14.088,15.968 C14.12,15.44 14.16,15.312 14.312,15.192 Z M19.84,22.72 L3.12,22.72 L3.12083965,34.0438717 C3.1209148,34.1385423 3.12099629,34.2315574 3.1210846,34.3229467 L3.12170003,34.8520073 C3.12733916,38.9321818 3.15089083,39.4022062 3.24542922,39.5243736 L3.25762008,39.5380688 L3.25762008,39.5380688 L3.2712957,39.5503005 C3.39120919,39.645391 3.90172059,39.6710454 7.62917896,39.6777341 L8.13384504,39.6785032 C8.22107407,39.6786148 8.30988148,39.6787185 8.4002963,39.6788148 L9.564288,39.679648 C9.66802667,39.6796933 9.77348889,39.6797333 9.8807037,39.6797685 L19.84,39.68 L19.84,22.72 Z M37.84,31.84 L21.12,31.84 L21.12,39.68 L31.4251652,39.6796665 C31.5298034,39.6796234 31.6326721,39.6795752 31.7338018,39.6795214 L32.5978377,39.6788721 C32.6888074,39.6787802 32.7781293,39.6786811 32.865834,39.6785744 L33.372899,39.6778386 C37.1967042,39.6712961 37.5825488,39.645697 37.6913693,39.5487657 L37.704,39.536 C37.8102857,39.4155429 37.8349845,39.1005322 37.8392417,36.6676682 L37.8398268,36.1698291 C37.8399478,35.9947233 37.84,35.8102857 37.84,35.616 L37.84,31.84 Z M13.4133562,28.5604622 C13.5031287,28.5605233 13.5911452,28.5605921 13.677442,28.5606691 L14.4086551,28.5616108 C17.6134035,28.5672655 17.975819,28.5920048 18.1748703,28.6963905 L18.216,28.72 C18.2382609,28.7335652 18.2595388,28.7463289 18.2798771,28.7587139 L18.3381167,28.7951554 C18.6711627,29.0120608 18.7138454,29.2432396 18.7192436,31.9543618 L18.7198415,32.4296007 C18.7198981,32.5127752 18.7199367,32.5979689 18.7199629,32.6852347 L18.7199344,34.0929311 C18.7199075,34.1825876 18.7198718,34.2700337 18.7198255,34.3553278 L18.7190667,35.0664459 C18.71458,37.6182035 18.6897561,37.7482927 18.56,37.96 C18.5258305,38.015322 18.4982798,38.0647699 18.4690688,38.1089662 L18.4389977,38.151435 C18.2307459,38.423198 17.8260494,38.4707822 14.7718434,38.4786662 L14.2935346,38.4795741 C14.2104023,38.4796834 14.1255375,38.4797738 14.0389017,38.4798479 L9.16109826,38.4798479 C9.07446249,38.4797738 8.98959765,38.4796834 8.90646541,38.4795741 L8.42815657,38.4786662 C4.76310945,38.4692054 4.91335593,38.4025763 4.64,37.96 L4.64,37.96 L4.61876822,37.9240398 C4.50410072,37.719502 4.48389322,37.4569974 4.48059654,34.8417349 L4.48075637,31.9543618 C4.48570472,29.4691664 4.5219824,29.0678124 4.78452457,28.851106 L4.83479618,28.8133168 L4.83479618,28.8133168 L4.8903147,28.7770602 C4.91942908,28.7588922 4.9506087,28.7403478 4.984,28.72 C4.98850909,28.7172364 4.99300231,28.7145203 4.99751583,28.7118511 L5.02512969,28.6963905 C5.02986901,28.6939051 5.03470093,28.6914649 5.03966163,28.689069 L5.07126032,28.6752191 C5.29045638,28.588568 5.81550714,28.5668616 8.79134485,28.5616108 L9.52255803,28.5606691 C9.60885479,28.5605921 9.69687133,28.5605233 9.78664381,28.5604622 Z M17.52,29.76 L5.68,29.76 L5.68,37.28 L17.52,37.28 L17.52,29.76 Z M30.3741938,33.1264483 C31.2128544,33.1306616 31.3154783,33.1627826 31.472,33.288 C31.736,33.496 31.76,33.92 31.52,34.16 C31.3806667,34.2993333 31.2749444,34.3176667 29.9149676,34.3197546 L29.512,34.32 C28.368,34.32 27.608,34.288 27.512,34.232 C27.136,34.04 27.16,33.4 27.544,33.216 C27.648,33.168 28.424,33.128 29.488,33.128 C29.6333913,33.1273043 29.7669868,33.1267297 29.88987,33.1263654 Z M37.84,22.72 L21.12,22.72 L21.12,30.64 L37.84,30.64 L37.84,22.72 Z M5.736,23.8 C6.808,23.416 7.968,24.008 8.288,25.104 C8.76,26.712 7.032,28.128 5.52,27.36 C5.128,27.16 4.688,26.648 4.576,26.248 C4.264,25.224 4.776,24.136 5.736,23.8 Z M10.896,23.8 C11.336,23.6 12.136,23.672 12.608,23.968 C13.184,24.32 13.52,24.912 13.52,25.576 C13.52,26.176 13.368,26.576 13.016,26.944 C12.6,27.376 12.192,27.552 11.6,27.552 C11.008,27.552 10.6,27.376 10.184,26.944 C9.616,26.352 9.504,25.392 9.92,24.664 C10.16,24.248 10.424,24.008 10.896,23.8 Z M6.808,24.96 C6.512,24.808 6.16,24.864 5.912,25.112 C5.256,25.776 6.144,26.808 6.856,26.208 C6.992,26.088 7.128,25.888 7.16,25.76 C7.216,25.496 7.04,25.088 6.808,24.96 Z M11.944,24.976 C11.624,24.8 11.216,24.896 10.984,25.192 C10.928,25.264 10.88,25.464 10.88,25.648 C10.88,26.088 11.16,26.36 11.616,26.36 C12.032,26.36 12.32,26.056 12.32,25.616 C12.312,25.288 12.216,25.112 11.944,24.976 Z M30.0684531,23.6806406 C31.259,23.68425 31.357,23.707 31.504,23.84 C31.76,24.08 31.744,24.496 31.472,24.712 C31.2893913,24.858087 31.1801437,24.8774594 29.9081377,24.8797238 L29.512,24.88 C28.384,24.88 27.696,24.848 27.568,24.792 C27.168,24.608 27.128,23.984 27.496,23.768 C27.584,23.72 28.344,23.68 29.488,23.68 Z M12.8,17.84 L6.08,17.84 L6.08,18.8 L12.8,18.8 L12.8,17.84 Z M34.6441766,0.00141301435 C34.7345521,0.00151929837 34.8233248,0.00163322895 34.9105246,0.001755318 L35.4150892,0.00258984911 C38.899311,0.00933098178 39.5862998,0.0330501386 39.8620892,0.114447252 L39.8981428,0.126183414 C39.9207196,0.134262535 39.9406984,0.142857143 39.96,0.152 C40.36,0.328 40.768,0.784 40.88,1.176 C40.9246061,1.32654545 40.9458953,2.25043159 40.9492848,4.12371205 L40.9490132,5.48182764 C40.9481139,5.98060606 40.9464242,6.52606061 40.944,7.12 C40.9232941,11.9030588 40.9204521,12.6369673 40.8121781,12.9486807 L40.7967484,12.9889108 C40.7833264,13.0208228 40.7684706,13.0494118 40.752,13.08 C40.664,13.256 40.432,13.504 40.248,13.64 L40.248,13.64 L39.904,13.88 L31.128,13.904 L22.352,13.92 L21.992,13.736 C21.76,13.608 21.56,13.416 21.4,13.16 L21.4,13.16 L21.16,12.776 L21.136,7.144 C21.134,6.668 21.132625,6.221375 21.1318594,5.80379687 L21.1318142,4.37339526 C21.1360313,2.38692187 21.15975,1.34725 21.2,1.192 C21.312,0.792 21.712,0.336 22.12,0.152 C22.3564444,0.04 22.6945185,0.0102716049 26.6649108,0.00258984911 L27.1694754,0.001755318 C27.2566752,0.00163322895 27.3454479,0.00151929837 27.4358234,0.00141301435 Z M30.48,1.2 L22.568,1.2 L22.448,1.376 C22.3484444,1.51822222 22.3247407,2.05866667 22.3207023,5.55382167 L22.3208397,8.94033819 C22.324898,12.2607347 22.3474286,12.4811429 22.464,12.584 C22.5811111,12.6873333 22.8939815,12.7135494 25.2415617,12.7188383 L25.7218333,12.7196157 C25.8062778,12.7197068 25.892963,12.7197798 25.9819506,12.7198368 L30.48,12.72 L30.48,1.2 Z M36.3906574,1.20038426 L31.68,1.2 L31.68,12.72 L36.1557157,12.7198283 C36.2449597,12.7197686 36.3318902,12.7196921 36.4165683,12.719597 L36.8980991,12.7187872 C39.1755102,12.7134694 39.536,12.688 39.632,12.592 C39.7293913,12.4946087 39.7541928,12.016121 39.7590058,8.67375557 L39.7597737,7.87234799 C39.7598264,7.77770017 39.7598692,7.68114605 39.7599027,7.58264683 L39.7598825,6.06160746 C39.7598533,5.96684021 39.7598178,5.87401324 39.7597748,5.78308582 L39.7591603,5.01492711 C39.7590637,4.9350304 39.7589566,4.85691105 39.758838,4.78052832 L39.7579804,4.34274556 C39.7514036,1.62837818 39.7242449,1.4315102 39.616,1.336 C39.4913333,1.226 39.1515556,1.20338889 36.3906574,1.20038426 Z M33.088,5.208 C33.368,4.984 33.64,5 33.88,5.24 C34.08,5.432 34.08,5.44 34.08,6.984 L34.079922,7.191416 C34.07882,8.4442 34.064,8.562 33.912,8.752 C33.704,9.016 33.28,9.04 33.04,8.8 C32.9087273,8.66872727 32.8848595,8.56728926 32.8807911,7.55779113 L32.88,5.368 Z M28.24,5.2 C28.448,4.992 28.784,5 29.016,5.216 C29.184,5.3693913 29.1986087,5.40940643 29.199879,6.63305729 L29.1999376,7.21468144 C29.1990669,8.41944703 29.1876183,8.62312246 29.0779865,8.75844929 L29.04,8.8 C28.824,9.016 28.392,9.008 28.192,8.792 C28.056,8.64 28.04,8.464 28.016,7.176 C27.984,5.6 28.008,5.432 28.24,5.2 Z M8.184102,1.779554 C8.70828,1.7801 9.2976,1.7816 9.96,1.784 C14.5871373,1.7974902 15.3357109,1.79960631 15.6820656,1.90542732 L15.7281335,1.92087767 C15.7428526,1.92625985 15.7570513,1.93187797 15.7710794,1.93774358 L15.813002,1.95609453 C15.8270388,1.96246674 15.8412549,1.96909804 15.856,1.976 C16.064,2.072 16.36,2.248 16.512,2.36 C16.864,2.624 17.32,3.304 17.448,3.736 L17.448,3.736 L17.544,4.08 L18.072,4.08 C18.736,4.08 19.24,4.312 19.48,4.72 C19.616,4.952 19.64,5.144 19.64,5.84 C19.64,6.848 19.512,7.136 18.96,7.424 L18.96,7.424 L18.6,7.6 L9.704,7.584 C2.31534328,7.5639403 1.06315883,7.56064691 0.725030645,7.46201074 L0.692062388,7.45107264 C0.647142793,7.43410292 0.621014925,7.41456716 0.592,7.392 C0.096,7.024 0.04,6.872 0.04,5.84 L0.0404023324,5.67197668 C0.0440408163,4.98718367 0.0742857143,4.85028571 0.208,4.672 C0.536,4.232 0.752,4.136 1.48,4.096 C2.096,4.064 2.16,4.048 2.16,3.904 C2.16,3.664 2.536,2.952 2.824,2.656 C3.128,2.336 3.64,2.016 4.104,1.872 C4.3148,1.81 5.06376,1.781635 7.44569925,1.77945725 Z M11.9870216,2.9664907 L10.9971749,2.96644844 C10.9072776,2.96651616 10.8154706,2.96660048 10.7217111,2.96670049 L10.1353809,2.96748171 L10.1353809,2.96748171 L9.824,2.968 L9.824,2.968 L9.27383921,2.96848659 C6.64481998,2.97312799 4.48825806,3.01006452 4.376,3.04 C4.056,3.136 3.624,3.488 3.48,3.76 C3.416,3.888 3.36,4.008 3.36,4.032 C3.36,4.048 3.832,4.08 4.408,4.096 C5.392,4.12 5.464,4.128 5.608,4.312 C5.808,4.552 5.8,4.92 5.6,5.12 C5.59415385,5.12584615 5.58836686,5.13147929 5.58252845,5.13690715 L5.5459959,5.16707283 C5.40977788,5.26446427 5.15332362,5.27815203 3.7523168,5.27979609 L1.2,5.28 L1.2,6.4 L9.824,6.384 L18.44,6.36 L18.44,5.32 L12.856,5.28 C7.97098039,5.24392157 7.34887505,5.2338762 7.19166408,5.12658968 L7.1734826,5.11203419 C7.16539792,5.10447059 7.15858824,5.09647059 7.152,5.088 C6.992,4.864 7.016,4.536 7.192,4.312 L7.192,4.312 L7.344,4.12 L11.832,4.096 L16.32,4.08 L16.208,3.856 C16.048,3.552 15.688,3.232 15.344,3.088 C15.1291163,2.99683721 14.6227236,2.96927637 11.9870216,2.9664907 Z" id="Combined-Shape"></path>
                </g>
            </g>
        </g>
    </g>
</svg>