<?xml version="1.0" encoding="UTF-8"?>
<svg width="38px" height="39px" viewBox="0 0 38 39" version="1.1" xmlns="http://www.w3.org/2000/svg" xmlns:xlink="http://www.w3.org/1999/xlink">
    <title>svg/human_resources_ic</title>
    <g id="Page-1" stroke="none" stroke-width="1" fill="none" fill-rule="evenodd">
        <g id="Service-All-Category" transform="translate(-294.000000, -1220.000000)" fill="#47CDFE" fill-rule="nonzero">
            <g id="Group-2" transform="translate(271.000000, 1197.000000)">
                <g id="human_resources_ic" transform="translate(23.000000, 23.000000)">
                    <path d="M4.89,38.3645522 C4.0725,38.1470522 3.4875,37.8095522 2.85,37.1645522 C2.1975,36.5195522 1.8675,35.9420522 1.65,35.0945522 C1.4625,34.3595522 1.4625,33.6695522 1.65,32.9345522 C1.8525,32.1395522 2.1975,31.5245522 2.7825,30.9095522 L3.2775,30.3845522 L2.745,30.0395522 C1.455,29.1845522 0.6225,28.0220522 0.1725,26.4395522 C0.015,25.8845522 -0.06,22.7945522 0.075,22.4570522 C0.27,21.9995522 0.075,22.0145522 6,22.0145522 C11.76,22.0145522 11.7225,22.0145522 11.895,22.3670522 C11.9325,22.4420522 11.9775,23.0495522 12,23.7170522 L12.0375,24.9320522 L13.2375,23.9270522 C13.8975,23.3720522 14.4375,22.8920522 14.4375,22.8620522 C14.4375,22.8245522 14.28,22.4795522 14.085,22.0895522 C13.305,20.5220522 13.305,18.9920522 14.0925,17.4245522 L14.4525,16.6970522 L12.4575,15.2420522 L10.4625,13.7870522 L10.275,14.3645522 C10.02,15.1445522 9.66,15.7145522 9.06,16.2770522 C7.665,17.5970522 5.595,17.8745522 3.8775,16.9745522 C3.27,16.6595522 2.355,15.7445522 2.04,15.1370522 C1.515,14.1395522 1.38,12.9920522 1.65,11.9345522 C1.8525,11.1395522 2.1975,10.5245522 2.7825,9.90955223 L3.2775,9.38455223 L2.745,9.03955223 C1.455,8.18455223 0.6225,7.02205223 0.1725,5.43955223 C0.015,4.88455223 -0.06,1.79455223 0.075,1.45705223 C0.27,0.999552229 0.075,1.01449542 6,1.01449542 C11.8725,1.01449542 11.715,1.00705223 11.91,1.42705223 C12.0375,1.70455223 12.0225,4.33705223 11.895,5.06455223 C11.6025,6.68455223 10.6425,8.12455223 9.2475,9.03955223 L8.715,9.39205223 L9.12,9.79705223 C9.6075,10.2770522 9.9225,10.7495522 10.1925,11.4020522 L10.3875,11.8820522 L12.915,13.7195522 C14.31,14.7320522 15.4875,15.5645522 15.5325,15.5645522 C15.5775,15.5645522 15.7125,15.4970522 15.8325,15.4070522 C16.5225,14.9195522 17.835,14.5145522 18.75,14.5145522 C19.665,14.5145522 20.9775,14.9195522 21.6675,15.4070522 C21.7875,15.4970522 21.9225,15.5645522 21.9675,15.5645522 C22.0125,15.5645522 23.205,14.7095522 24.615,13.6595522 C27.12,11.7995522 27.1875,11.7395522 27.315,11.3870522 C27.5025,10.8695522 27.96,10.1870522 28.4175,9.75955223 C28.635,9.56455223 28.8,9.39205223 28.785,9.38455223 C26.97,8.22955223 26.1825,7.23955223 25.6725,5.43955223 C25.515,4.88455223 25.44,1.79455223 25.575,1.45705223 C25.77,0.999552229 25.575,1.01449542 31.5,1.01449542 C37.3725,1.01449542 37.215,1.00705223 37.41,1.42705223 C37.5375,1.70455223 37.5225,4.33705223 37.395,5.06455223 C37.1025,6.67705223 36.1425,8.12455223 34.755,9.03955223 L34.2225,9.38455223 L34.7175,9.90955223 C35.82,11.0720522 36.2325,12.5945522 35.85,14.0945522 C35.6325,14.9420522 35.3025,15.5195522 34.65,16.1645522 C34.005,16.8170522 33.4275,17.1470522 32.58,17.3645522 C30.3,17.9495522 27.8925,16.5845522 27.21,14.3270522 C27.1275,14.0420522 27.045,13.7870522 27.03,13.7720522 C27.015,13.7570522 26.115,14.4095522 25.0275,15.2195522 L23.0475,16.6895522 L23.4075,17.4245522 C24.195,18.9920522 24.195,20.5220522 23.415,22.0895522 C23.22,22.4795522 23.0625,22.8245522 23.0625,22.8620522 C23.0625,22.8920522 23.6025,23.3720522 24.2625,23.9270522 L25.4625,24.9320522 L25.5,23.7170522 C25.5225,23.0495522 25.5675,22.4420522 25.605,22.3670522 C25.7775,22.0145522 25.74,22.0145522 31.4925,22.0145522 C35.52,22.0145522 36.945,22.0370522 37.0875,22.1045522 C37.455,22.2695522 37.5,22.4795522 37.5,24.0545522 C37.4925,24.9395522 37.455,25.7195522 37.395,26.0645522 C37.1025,27.6770522 36.1425,29.1245522 34.755,30.0395522 L34.2225,30.3845522 L34.7175,30.9095522 C35.82,32.0720522 36.2325,33.5945522 35.85,35.0945522 C35.6325,35.9420522 35.3025,36.5195522 34.65,37.1645522 C34.005,37.8170522 33.4275,38.1470522 32.58,38.3645522 C31.5225,38.6345522 30.375,38.4995522 29.3775,37.9745522 C28.77,37.6595522 27.855,36.7445522 27.54,36.1370522 C27.015,35.1395522 26.88,33.9920522 27.15,32.9345522 C27.3525,32.1395522 27.6975,31.5245522 28.2825,30.9095522 L28.7775,30.3845522 L28.245,30.0395522 C27.9525,29.8445522 27.51,29.4920522 27.27,29.2445522 C26.7975,28.7720522 26.1675,27.8720522 26.01,27.4445522 C25.965,27.3020522 25.8975,27.1895522 25.8675,27.1895522 C25.83,27.1895522 24.945,26.4620522 23.88,25.5620522 L21.9525,23.9420522 L21.7575,24.0695522 C20.9025,24.6320522 19.68,25.0145522 18.75,25.0145522 C17.835,25.0145522 16.575,24.6170522 15.7425,24.0695522 L15.5475,23.9420522 L13.62,25.5620522 C12.555,26.4620522 11.6625,27.1895522 11.625,27.1895522 C11.5875,27.1895522 11.52,27.3095522 11.475,27.4520522 C11.34,27.8645522 10.7175,28.7570522 10.23,29.2445522 C9.99,29.4920522 9.5475,29.8445522 9.255,30.0395522 L8.7225,30.3845522 L9.2175,30.9095522 C9.8025,31.5245522 10.1475,32.1395522 10.35,32.9345522 C10.62,33.9920522 10.485,35.1395522 9.96,36.1370522 C9.645,36.7445522 8.73,37.6595522 8.1225,37.9745522 C7.1325,38.4920522 5.94,38.6345522 4.89,38.3645522 Z M7.23,36.7295522 C7.9125,36.4145522 8.3475,35.9795522 8.685,35.3045522 C8.9475,34.7645522 8.9625,34.6970522 8.9625,34.0145522 C8.9625,33.3320522 8.9475,33.2645522 8.685,32.7245522 C8.3475,32.0420522 7.9125,31.6220522 7.215,31.2920522 C6.7575,31.0745522 6.645,31.0520522 6,31.0520522 C5.355,31.0520522 5.2425,31.0745522 4.8,31.2845522 C4.0875,31.6295522 3.6525,32.0420522 3.3225,32.7245522 C3.0525,33.2645522 3.0375,33.3320522 3.0375,34.0070522 C3.0375,34.6595522 3.06,34.7720522 3.2775,35.2295522 C3.5775,35.8670522 4.005,36.3320522 4.5675,36.6245522 C5.1525,36.9395522 5.4825,37.0145522 6.165,36.9845522 C6.6225,36.9620522 6.855,36.9020522 7.23,36.7295522 Z M32.73,36.7295522 C33.4125,36.4145522 33.8475,35.9795522 34.185,35.3045522 C34.4475,34.7645522 34.4625,34.6970522 34.4625,34.0145522 C34.4625,33.3320522 34.4475,33.2645522 34.185,32.7245522 C33.8475,32.0420522 33.4125,31.6220522 32.715,31.2920522 C32.2575,31.0745522 32.145,31.0520522 31.5,31.0520522 C30.855,31.0520522 30.7425,31.0745522 30.3,31.2845522 C29.5875,31.6295522 29.1525,32.0420522 28.8225,32.7245522 C28.5525,33.2645522 28.5375,33.3320522 28.5375,34.0070522 C28.5375,34.6595522 28.56,34.7720522 28.7775,35.2295522 C29.0775,35.8670522 29.505,36.3320522 30.0675,36.6245522 C30.6525,36.9395522 30.9825,37.0145522 31.665,36.9845522 C32.1225,36.9620522 32.355,36.9020522 32.73,36.7295522 Z M7.08,29.3645522 C7.9275,29.1470522 8.505,28.8170522 9.15,28.1645522 C10.155,27.1670522 10.5,26.2295522 10.5,24.5120522 L10.5,23.5145522 L6,23.5145522 L1.5,23.5145522 L1.5,24.5120522 C1.5,25.6745522 1.65,26.3870522 2.04,27.1370522 C2.355,27.7445522 3.27,28.6595522 3.8775,28.9745522 C4.875,29.4995522 6.0225,29.6345522 7.08,29.3645522 Z M32.58,29.3645522 C33.4275,29.1470522 34.005,28.8170522 34.65,28.1645522 C35.655,27.1670522 36,26.2295522 36,24.5120522 L36,23.5145522 L31.5,23.5145522 L27,23.5145522 L27,24.5120522 C27,25.6745522 27.15,26.3870522 27.54,27.1370522 C27.855,27.7445522 28.77,28.6595522 29.3775,28.9745522 C30.375,29.4995522 31.5225,29.6345522 32.58,29.3645522 Z M19.515,23.4320522 C21.21,23.0795522 22.5,21.4895522 22.5,19.7645522 C22.5,17.7395522 20.775,16.0145522 18.75,16.0145522 C17.0325,16.0145522 15.435,17.3120522 15.0825,18.9995522 C14.82,20.2520522 15.195,21.4820522 16.125,22.3970522 C17.0625,23.3195522 18.27,23.6945522 19.515,23.4320522 Z M7.23,15.7295522 C7.9125,15.4145522 8.3475,14.9795522 8.685,14.3045522 C8.9475,13.7645522 8.9625,13.6970522 8.9625,13.0145522 C8.9625,12.3320522 8.9475,12.2645522 8.685,11.7245522 C8.3475,11.0420522 7.9125,10.6220522 7.215,10.2920522 C6.7575,10.0745522 6.645,10.0520522 6,10.0520522 C5.355,10.0520522 5.2425,10.0745522 4.8,10.2845522 C4.0875,10.6295522 3.6525,11.0420522 3.3225,11.7245522 C3.0525,12.2645522 3.0375,12.3320522 3.0375,13.0070522 C3.0375,13.6595522 3.06,13.7720522 3.2775,14.2295522 C3.5775,14.8670522 4.005,15.3320522 4.5675,15.6245522 C5.1525,15.9395522 5.4825,16.0145522 6.165,15.9845522 C6.6225,15.9620522 6.855,15.9020522 7.23,15.7295522 Z M32.73,15.7295522 C33.4125,15.4145522 33.8475,14.9795522 34.185,14.3045522 C34.4475,13.7645522 34.4625,13.6970522 34.4625,13.0145522 C34.4625,12.3320522 34.4475,12.2645522 34.185,11.7245522 C33.8475,11.0420522 33.4125,10.6220522 32.715,10.2920522 C32.2575,10.0745522 32.145,10.0520522 31.5,10.0520522 C30.855,10.0520522 30.7425,10.0745522 30.3,10.2845522 C29.5875,10.6295522 29.1525,11.0420522 28.8225,11.7245522 C28.5525,12.2645522 28.5375,12.3320522 28.5375,13.0070522 C28.5375,13.6595522 28.56,13.7720522 28.7775,14.2295522 C29.0775,14.8670522 29.505,15.3320522 30.0675,15.6245522 C30.6525,15.9395522 30.9825,16.0145522 31.665,15.9845522 C32.1225,15.9620522 32.355,15.9020522 32.73,15.7295522 Z M7.08,8.36455223 C7.9275,8.14705223 8.505,7.81705223 9.15,7.16455223 C10.155,6.16705223 10.5,5.22955223 10.5,3.51205223 L10.5,2.51455223 L6,2.51455223 L1.5,2.51455223 L1.5,3.51205223 C1.5,4.67455223 1.65,5.38705223 2.04,6.13705223 C2.355,6.74455223 3.27,7.65955223 3.8775,7.97455223 C4.875,8.49955223 6.0225,8.63455223 7.08,8.36455223 Z M32.58,8.36455223 C33.4275,8.14705223 34.005,7.81705223 34.65,7.16455223 C35.655,6.16705223 36,5.22955223 36,3.51205223 L36,2.51455223 L31.5,2.51455223 L27,2.51455223 L27,3.51205223 C27,4.67455223 27.15,5.38705223 27.54,6.13705223 C27.855,6.74455223 28.77,7.65955223 29.3775,7.97455223 C30.375,8.49955223 31.5225,8.63455223 32.58,8.36455223 Z" id="Shape" transform="translate(18.752449, 19.757276) scale(-1, 1) rotate(-180.000000) translate(-18.752449, -19.757276) "></path>
                </g>
            </g>
        </g>
    </g>
</svg>