<?xml version="1.0" encoding="UTF-8"?>
<svg width="34px" height="42px" viewBox="0 0 34 42" version="1.1" xmlns="http://www.w3.org/2000/svg" xmlns:xlink="http://www.w3.org/1999/xlink">
    <title>svg/industries_ic</title>
    <g id="Page-1" stroke="none" stroke-width="1" fill="none" fill-rule="evenodd">
        <g id="Product-All-Category" transform="translate(-172.000000, -129.000000)" fill="#47CDFE" fill-rule="nonzero">
            <g id="Group-2" transform="translate(146.000000, 108.000000)">
                <g id="industries_ic" transform="translate(26.000000, 21.000000)">
                    <path d="M15.125,24.035 C16.533,23.727 18.26,23.881 19.668,24.453 C21.23,25.091 23.991,27.049 24.783,28.083 L24.783,28.083 L25.08,28.468 L27.742,28.512 L30.415,28.545 L31.152,28.897 C32.406,29.491 33.209,30.547 33.429,31.889 C33.726,33.704 32.824,35.387 31.152,36.168 C30.547,36.454 30.426,36.465 28.193,36.52 L28.193,36.52 L25.861,36.575 L25.41,37.279 C23.958,39.523 21.549,40.799 18.095,41.14 C13.684,41.591 9.548,39.963 7.942,37.158 L7.942,37.158 L7.579,36.531 L5.247,36.498 C2.992,36.465 2.893,36.454 2.299,36.179 C1.463,35.783 0.88,35.233 0.429,34.408 C0.066,33.748 0.055,33.66 0.055,32.56 C0.055,31.515 0.088,31.339 0.363,30.778 C0.759,29.975 1.672,29.139 2.508,28.809 C3.08,28.589 3.366,28.556 5.709,28.512 L5.709,28.512 L8.283,28.468 L8.833,27.874 C9.867,26.741 12.485,24.959 13.97,24.376 C14.245,24.266 14.762,24.112 15.125,24.035 Z M18.095,25.685 C17.292,25.476 16.093,25.487 15.29,25.696 C13.178,26.246 9.713,28.886 8.921,30.569 C8.47,31.526 8.316,32.538 8.459,33.583 C8.899,36.74 11,38.72 14.63,39.38 C15.488,39.534 17.941,39.534 18.832,39.38 C21.131,38.973 23.023,37.873 24.002,36.366 C24.794,35.145 25.212,33.231 24.981,31.955 C24.761,30.767 24.299,29.975 23.166,28.853 C21.615,27.335 19.635,26.092 18.095,25.685 Z M17.1960634,33.8809049 C19.3216664,33.8722023 21.3170435,33.8907609 21.538,33.946 C22.066,34.089 22.22,34.87 21.802,35.332 C21.669,35.4935 21.3637045,35.5237338 18.3990176,35.5289763 L17.371499,35.529925 C17.1845455,35.529986 16.9895,35.5300087 16.786,35.5300087 L15.9103178,35.5299727 C15.8187576,35.529949 15.7290718,35.5299134 15.6412218,35.5298608 L15.1358466,35.5292982 C11.5868243,35.5230548 11.4436858,35.4634513 11.4398723,34.9036273 L11.4399091,34.8241452 L11.4399091,34.8241452 L11.44,34.782 C11.44,34.32 11.506,34.188 11.825,34.012 C11.9354783,33.9488696 14.0512628,33.9033516 16.2819112,33.8862762 Z M7.249,30.14 L5.467,30.14 C3.553,30.151 3.135,30.228 2.486,30.734 C1.386,31.57 1.386,33.385 2.486,34.298 C3.08,34.793 3.454,34.87 5.346,34.87 L5.346,34.87 L6.996,34.87 L6.853,33.902 C6.677,32.769 6.743,31.614 7.04,30.745 L7.04,30.745 L7.249,30.14 Z M26.202,30.118 L26.422,30.822 C26.609,31.361 26.653,31.779 26.653,32.725 C26.653,33.385 26.598,34.144 26.532,34.397 L26.532,34.397 L26.422,34.87 L28.171,34.87 C30.151,34.87 30.481,34.793 31.163,34.122 C31.658,33.638 31.933,32.846 31.823,32.208 C31.724,31.581 31.163,30.8 30.58,30.47 C30.118,30.206 29.975,30.195 28.138,30.162 L28.138,30.162 L26.202,30.118 Z M17.7635364,30.0306639 C20.2419012,30.0348889 20.3842222,30.0642222 20.57,30.25 C20.9,30.58 20.867,31.163 20.504,31.449 C20.4958286,31.4552857 20.4877829,31.4614008 20.4797838,31.4673499 L20.4317179,31.5010896 C20.2041247,31.6495905 19.8892356,31.6751931 17.7523944,31.6792734 L17.2659807,31.6798553 C17.0941257,31.6799641 16.9123429,31.68 16.72,31.68 L16.4393267,31.6799684 C16.3483562,31.6799459 16.2599468,31.6799097 16.1740193,31.6798553 L15.6876056,31.6792734 C13.5507644,31.6751931 13.2358753,31.6495905 13.0082821,31.5010896 L12.9602162,31.4673499 L12.9602162,31.4673499 L12.936,31.449 C12.573,31.163 12.54,30.58 12.87,30.25 C13.0557778,30.0642222 13.1980988,30.0348889 15.6764636,30.0306639 Z M17.1669922,0.000820909016 C18.6220435,0.00682041588 18.9635217,0.0483043478 19.305,0.209 C19.866,0.462 20.526,1.188 20.691,1.738 C20.801,2.123 20.867,2.189 21.406,2.354 C22.352,2.651 23.892,3.476 24.882,4.202 C27.203,5.907 28.985,8.371 29.865,11.077 C30.184,12.023 30.47,13.541 30.47,14.212 C30.47,14.795 30.613,15.026 31.031,15.114 C31.526,15.213 32.373,15.774 32.725,16.236 C34.122,18.062 33.528,20.636 31.482,21.637 L31.482,21.637 L30.855,21.945 L2.585,21.945 L1.958,21.637 C1.188,21.263 0.418,20.427 0.176,19.723 C0.077,19.426 9.65205375e-16,18.854 9.07279581e-16,18.381 C7.84692437e-16,17.38 0.297,16.643 0.957,15.983 C1.375,15.565 2.255,15.07 2.585,15.07 C2.827,15.07 2.937,14.762 3.003,13.805 C3.201,11.187 4.598,8.107 6.6,5.918 C7.898,4.488 10.351,2.882 12.045,2.354 C12.595,2.178 12.661,2.123 12.782,1.738 C12.947,1.177 13.585,0.451 14.124,0.209 C14.4755217,0.0483043478 14.8087032,0.00682041588 16.2706084,0.000820909016 Z M10.978,16.61 L6.70285965,16.6108956 C3.27346822,16.6217312 2.99259459,16.6373514 2.618,16.83 C1.892,17.215 1.485,18.15 1.694,18.975 C1.804,19.415 2.497,20.108 2.948,20.24 C3.21308791,20.3127692 9.25247712,20.351153 15.6091356,20.3551513 L17.8308644,20.3551513 C24.1875229,20.351153 30.2269121,20.3127692 30.492,20.24 C30.943,20.108 31.636,19.415 31.746,18.975 C31.856,18.513 31.724,17.754 31.46,17.391 C31.328,17.204 31.031,16.951 30.8,16.83 C30.437,16.6435946 30.1965026,16.6146925 27.5109203,16.610622 L22.473,16.61 L22.055,17.226 C20.889,18.909 18.788,20.02 16.72,20.02 C14.641,20.02 12.397,18.832 11.33,17.16 L11.33,17.16 L10.978,16.61 Z M16.962,8.734 C15.851,8.69 15.433,8.778 14.531,9.24 C12.562,10.23 11.473,12.606 12.034,14.685 C12.991,18.271 17.314,19.547 19.976,17.028 C20.691,16.346 21.065,15.763 21.351,14.839 C22.044,12.628 20.922,10.197 18.733,9.152 C18.04,8.822 17.787,8.767 16.962,8.734 Z M12.628,3.894 C12.57256,3.83856 11.7961536,4.2177696 11.003879,4.6530007 L10.665417,4.84185434 C10.1624336,5.126968 9.69452,5.41288 9.449,5.599 C6.666,7.711 4.994,10.736 4.565,14.377 L4.565,14.377 L4.499,14.96 L10.307,14.96 L10.252,13.882 C10.164,11.913 10.714,10.428 12.078,8.998 L12.078,8.998 L12.881,8.162 L12.782,6.05 C12.716,4.895 12.65,3.927 12.628,3.894 Z M22.187,4.51 C21.153,3.982 20.79,3.861 20.79,4.037 C20.79,4.092 20.735,5.038 20.68,6.149 L20.68,6.149 L20.581,8.173 L21.34,8.976 C22.11,9.79 22.561,10.549 22.946,11.66 C23.111,12.122 23.155,12.573 23.155,13.618 L23.155,14.96 L28.93,14.96 L28.864,14.432 C28.523,11.385 27.467,9.042 25.531,7.007 C24.475,5.896 23.529,5.203 22.187,4.51 Z M15.543,9.999 C16.753,9.581 17.49,9.812 17.49,10.615 C17.49,11.11 17.171,11.44 16.698,11.44 C16.247,11.44 15.532,11.77 15.213,12.111 C14.894,12.452 14.63,13.101 14.63,13.53 C14.63,14.234 13.695,14.575 13.189,14.069 C12.98,13.86 12.958,13.75 13.024,13.178 C13.178,11.638 14.091,10.494 15.543,9.999 Z M18.403,1.661 C18.007,1.551 15.609,1.518 15.103,1.617 C14.971,1.639 14.729,1.815 14.575,1.991 C14.344,2.277 14.3,2.431 14.3,3.058 C14.3039286,3.43121429 14.3289031,4.07381633 14.361394,4.7482879 L14.3816822,5.15489504 C14.4376122,6.2392449 14.5058571,7.28357143 14.531,7.315 C14.553,7.337 14.872,7.282 15.235,7.194 C16.082,6.996 17.358,6.996 18.205,7.194 C18.568,7.282 18.887,7.337 18.931,7.304 C18.975,7.282 19.041,6.149 19.085,4.785 C19.173,1.98 19.151,1.87 18.403,1.661 Z" id="Combined-Shape"></path>
                </g>
            </g>
        </g>
    </g>
</svg>