<?xml version="1.0" encoding="UTF-8"?>
<svg width="43px" height="41px" viewBox="0 0 43 41" version="1.1" xmlns="http://www.w3.org/2000/svg" xmlns:xlink="http://www.w3.org/1999/xlink">
    <title>svg/Insurance_services_ic</title>
    <g id="Page-1" stroke="none" stroke-width="1" fill="none" fill-rule="evenodd">
        <g id="Service-All-Category" transform="translate(-292.000000, -281.000000)" fill="#47CDFE" fill-rule="nonzero" stroke="#47CDFE" stroke-width="0.2">
            <g id="Group-2" transform="translate(271.000000, 259.000000)">
                <g id="Insurance_services_ic" transform="translate(22.000000, 22.000000)">
                    <g id="Group" transform="translate(20.500000, 20.680000) scale(-1, 1) rotate(-180.000000) translate(-20.500000, -20.680000) translate(0.000000, 0.680000)">
                        <path d="M4.2,-1.42108547e-14 C4.592,-1.42108547e-14 6.032,0.328 6.872,0.608 C7.864,0.936 9.568,1.8 9.736,2.056 C9.808,2.16 9.84,2.368 9.824,2.576 L9.8,2.912 L11.88,3.696 L14.64,3.368 C16.16,3.184 19.304,2.8 21.624,2.512 C23.952,2.232 26.128,2 26.464,2 C27.192,2 27.848,2.152 28.52,2.488 C28.7776842,2.61305263 31.2665706,4.55286427 33.8788406,6.62815221 L34.4605194,7.09087484 C37.1765023,9.25428378 39.8572632,11.429614 40.152,11.744 C40.344,11.952 40.6,12.32 40.712,12.56 C40.896,12.952 40.92,13.096 40.92,13.92 C40.92,14.768 40.904,14.88 40.696,15.304 C40.376,15.944 39.8,16.512 39.144,16.824 C38.682,17.044 38.5628333,17.0757778 37.9423009,17.0795463 L37.76,17.08 C37.072,17.08 36.848,17.048 36.536,16.904 C36.328,16.808 34.208,15.464 31.816,13.912 C29.432,12.36 27.28,11 27.04,10.888 C26.232,10.52 25.76,10.552 22.08,11.192 C20.296,11.504 18.76,11.784 18.656,11.8 C18.504,11.84 18.776,12.032 20.088,12.816 C21.568,13.696 21.712,13.768 21.784,13.632 C21.936,13.352 22.448,12.912 22.848,12.72 C23.408,12.448 24.424,12.44 25.016,12.712 C25.512,12.936 26.104,13.528 26.344,14.064 C26.35808,14.09408 26.3710336,14.1220096 26.3829632,14.1507338 L26.4001024,14.1947843 C26.5203456,14.5275904 26.52288,15.13472 26.544,19.936 L26.568,25.432 L26.968,25.872 C28.264,27.296 30.624,27.2 31.736,25.68 C32.256,24.968 32.36,24.88 32.664,24.88 C32.96,24.88 32.976,24.888 33.56,25.688 C33.88,26.128 34.512,26.56 35.104,26.76 C35.728,26.96 36.696,26.904 37.296,26.624 C37.808,26.384 38.472,25.808 38.736,25.368 C38.96,24.984 39.104,24.88 39.4,24.88 C39.736,24.88 39.984,25.072 40.048,25.392 C40.176,26.088 39.8,28.568 39.368,29.904 C38.752,31.776 37.544,33.848 36.328,35.104 C35.864,35.576 35.392,35.576 35.152,35.104 C34.976,34.768 35.056,34.568 35.568,33.984 C36.632,32.776 37.6,31.064 38.12,29.488 C38.392,28.664 38.672,27.408 38.568,27.456 C38.544,27.472 38.328,27.584 38.104,27.704 C37.472,28.032 36.856,28.168 36,28.168 C35.104,28.176 34.448,28 33.728,27.56 C33.472,27.408 33.256,27.28 33.24,27.28 C33.232,27.28 33.2,27.6 33.176,27.992 C32.928,31.488 31.648,35.32 30.072,37.28 C29.856,37.544 29.728,37.76 29.784,37.76 C30.168,37.76 31.96,36.904 33.04,36.2 C33.408,35.96 33.808,35.76 33.92,35.76 C34.376,35.76 34.656,36.216 34.488,36.672 C34.384,36.936 33.248,37.688 32.12,38.24 C29.728,39.408 26.944,39.888 24.32,39.592 C22.72,39.408 21.232,38.976 19.776,38.28 C15.152,36.056 12.096,31.56 11.768,26.496 C11.68,25.144 11.784,24.88 12.376,24.88 C12.664,24.88 12.792,24.976 13.104,25.448 C13.696,26.336 14.528,26.808 15.576,26.864 C16.656,26.92 17.616,26.488 18.216,25.68 C18.736,24.976 18.848,24.88 19.136,24.88 C19.432,24.88 19.56,24.984 19.968,25.592 C20.272,26.056 20.984,26.576 21.552,26.752 C22.216,26.96 23.168,26.904 23.784,26.624 C24.288,26.384 25.056,25.712 25.192,25.376 C25.2421818,25.2644848 25.2651607,24.4923269 25.2690622,22.7697148 L25.2694095,21.7831946 C25.2687603,21.2452893 25.2669091,20.6392727 25.264,19.96 C25.2422642,14.7941132 25.2533371,14.4970566 24.8871705,14.1898478 L24.8394052,14.1510409 C24.8145105,14.1312581 24.7880755,14.1106415 24.76,14.088 C24.216,13.664 23.616,13.68 23.112,14.136 C22.768,14.448 22.728,14.624 22.952,14.832 C23.032,14.904 23.216,15.216 23.36,15.528 C23.664,16.2 23.768,17.144 23.6,17.848 C23.152,19.792 21.144,21.016 19.24,20.512 C18.9539592,20.4414694 16.547202,19.3038634 14.103745,18.1153398 L13.4933222,17.8177362 C12.7830843,17.4706665 12.0844983,17.126469 11.4492725,16.8103564 L10.6715367,16.4213861 C9.61032903,15.8876268 8.84408163,15.488 8.704,15.384 C7.968,14.848 7.376,13.888 7.2,12.96 C7.104,12.448 7.072,12.408 6.712,12.352 C6.448,12.304 6.424,12.32 6.304,12.624 C6.232,12.8 6.08,13.008 5.96,13.088 C5.744,13.224 5.704,13.224 4.888,13.088 C3.384,12.832 1.248,12.024 0.328,11.352 C0.048,11.152 7.10542736e-14,11.08 7.10542736e-14,10.824 C7.10542736e-14,10.5077647 0.333853133,9.35610919 0.805916277,7.916933 L0.989036434,7.36483452 C2.0276263,4.26593772 3.55011765,0.235294118 3.84,0.08 C3.92,0.032 4.088,-1.42108547e-14 4.2,-1.42108547e-14 Z M26.608,27.36 C26.58625,27.36 26.5645,29.3836562 26.560613,32.0078801 L26.56,38.32 L26.904,38.184 C27.088,38.112 27.424,37.936 27.64,37.8 C28.512,37.24 29.592,35.848 30.256,34.416 C30.96,32.896 31.552,30.704 31.808,28.648 C31.976,27.248 32.016,27.328 31.4,27.656 C30.776,27.984 30.536,28.064 29.824,28.152 C28.84,28.28 27.568,28.008 26.888,27.528 C26.76,27.432 26.632,27.36 26.608,27.36 Z M25.28,27.28 L24.904,27.512 C24.024,28.048 22.952,28.288 21.936,28.16 C21.312,28.08 20.864,27.928 20.264,27.6 L19.832,27.368 L19.88,27.904 C20.12,30.368 20.712,32.672 21.56,34.456 C22.432,36.288 23.456,37.504 24.568,38.04 C24.888,38.192 25.184,38.32 25.216,38.32 C25.245,38.32 25.274,36.2832031 25.2791826,33.6386523 L25.2799072,33.0833008 C25.2799688,32.9894531 25.28,32.895 25.28,32.8 L25.28,27.28 Z M18.36,27.36 C18.296,27.464 17.6,27.816 17.168,27.976 C16.024,28.376 14.272,28.168 13.368,27.528 L13.136,27.36 L13.256,27.984 C13.512,29.36 14.256,31.192 15.072,32.464 C16.512,34.712 18.8,36.568 21.296,37.52 C21.744,37.696 22.128,37.84 22.144,37.84 C22.152,37.84 22.008,37.648 21.816,37.416 C20.152,35.376 18.872,31.616 18.592,27.968 C18.536,27.328 18.48,27.168 18.36,27.36 Z M4.416,1.824 C3.568,3.912 2.288,7.512 1.648,9.584 L1.376,10.488 L1.84,10.72 C2.616,11.112 3.496,11.44 4.352,11.648 C5.032,11.808 5.168,11.824 5.232,11.728 C5.272,11.672 5.56,10.976 5.872,10.192 C6.36,8.96 6.472,8.744 6.664,8.656 C7.048,8.472 7.464,8.672 7.568,9.088 C7.616,9.264 7.44,9.816 7,10.896 C6.936,11.056 6.928,11.048 7.632,11.248 C8.256,11.424 8.4,11.576 8.4,12.072 C8.4,12.288 8.472,12.704 8.56,12.992 C8.696,13.416 8.816,13.616 9.184,14 L9.21102214,14.0283914 L9.21102214,14.0283914 L9.26340875,14.0825538 L9.26340875,14.0825538 L9.31532045,14.1341523 C9.34150465,14.1594966 9.36829165,14.1842981 9.39685281,14.2091847 L9.45668774,14.2592573 C9.86550271,14.587885 10.7061224,15.0016327 14.552,16.88 C17.248,18.192 19.552,19.288 19.672,19.304 C20.016,19.368 20.656,19.28 21.008,19.128 C22.056,18.664 22.608,17.48 22.288,16.384 C22.056,15.584 21.776,15.36 18.928,13.664 C17.52,12.824 16.28,12.064 16.184,11.984 C15.856,11.688 15.888,11.152 16.24,10.96 C16.336,10.912 18.36,10.528 20.744,10.112 C26.008,9.2 26.424,9.176 27.696,9.744 C27.904,9.832 30.024,11.176 32.416,12.728 C34.808,14.28 36.904,15.608 37.08,15.688 C37.712,15.976 38.528,15.816 39.072,15.296 C39.704,14.688 39.864,13.832 39.472,13.064 L39.4502224,13.0211521 C39.2480768,12.6466612 38.6491852,12.1496296 33.896,8.344 C31.5115556,6.43 29.386679,4.7392284 28.5584883,4.09134294 L28.4059808,3.97244719 C28.2948765,3.88621605 28.2244444,3.83266667 28.2,3.816 C27.776,3.528 26.968,3.28 26.448,3.28 C26.224,3.28 22.824,3.672 18.888,4.152 L11.744,5.032 L10.688,4.64 C10.112,4.432 9.584,4.232 9.512,4.2 C9.4,4.16 9.296,4.392 8.88,5.68 C8.352,7.344 8.2,7.6 7.76,7.6 C7.472,7.6 7.12,7.296 7.12,7.04 C7.12,6.944 7.392,6.024 7.72,5 C8.056,3.976 8.336,3.04 8.344,2.912 C8.36,2.728 8.304,2.656 8.04,2.512 C7.408,2.144 5.72,1.56 4.88,1.408 C4.6,1.36 4.6,1.36 4.416,1.824 Z M20.376,14.92 C20.68,15.072 21,15.272 21.08,15.36 C21.296,15.6 21.28,16.064 21.048,16.248 C20.784,16.464 20.472,16.44 19.92,16.16 C19.656,16.032 19.408,15.92 19.36,15.92 C19.216,15.92 18.88,16.52 18.64,17.208 C18.376,17.944 18.256,18.08 17.88,18.08 C17.744,18.08 17.568,18.032 17.496,17.984 C17.128,17.696 17.208,17.016 17.736,15.96 C18.392,14.64 19.184,14.328 20.376,14.92 Z M5.92,2.88 C6.248,2.88 6.56,3.192 6.56,3.52 C6.56,4.072 5.832,4.376 5.456,3.976 C5.08,3.576 5.376,2.88 5.92,2.88 Z" id="Combined-Shape"></path>
                    </g>
                </g>
            </g>
        </g>
    </g>
</svg>