<?xml version="1.0" encoding="UTF-8"?>
<svg width="38px" height="38px" viewBox="0 0 38 38" version="1.1" xmlns="http://www.w3.org/2000/svg" xmlns:xlink="http://www.w3.org/1999/xlink">
    <title>svg/legal_service_ic</title>
    <g id="Page-1" stroke="none" stroke-width="1" fill="none" fill-rule="evenodd">
        <g id="Service-All-Category" transform="translate(-43.000000, -1371.000000)" fill="#47CDFE" fill-rule="nonzero">
            <g id="Group-2" transform="translate(20.000000, 1348.000000)">
                <g id="legal_service_ic" transform="translate(23.000000, 23.000000)">
                    <path d="M9.35287723,28.7317677 C9.67312616,28.7320483 10.0098187,28.7324325 10.3637695,28.7329102 L10.3637695,28.7329102 L17.1020508,28.7475586 L17.512207,28.9379883 C18.0908203,29.2089844 18.4863281,29.597168 18.7646484,30.1611328 C18.984375,30.5932617 19.0063477,30.7177734 19.0063477,31.2744141 C19.0063477,31.8237305 18.9770508,31.9555664 18.7866211,32.3510742 L18.7866211,32.3510742 L18.5668945,32.7978516 L18.8745117,32.9956055 C19.5922852,33.4423828 20.2441406,34.4091797 20.4272461,35.2880859 C20.5371094,35.8007813 20.5297852,36.8554688 20.4199219,37.097168 C20.3909958,37.1616953 20.3789692,37.215914 20.3425133,37.2614669 L20.3220583,37.2835289 C20.1352583,37.4579282 19.4262867,37.4924041 15.3813375,37.4988097 L14.6002278,37.4996962 C14.5091261,37.4997654 14.4165632,37.4998257 14.3225153,37.4998781 L6.18529722,37.4998781 C6.09124927,37.4998257 5.9986864,37.4997654 5.90758469,37.4996962 L5.12647496,37.4988097 C0.998975788,37.4922734 0.345005986,37.4565093 0.174946028,37.2726756 L0.156670265,37.2498972 C0.126721542,37.2068059 0.114406151,37.156318 0.087890625,37.097168 C-0.0219726562,36.8554688 -0.029296875,35.8007813 0.0805664063,35.2880859 C0.263671875,34.4091797 0.915527344,33.4423828 1.63330078,32.9956055 L1.63330078,32.9956055 L1.94091797,32.7978516 L1.72119141,32.3510742 C1.53076172,31.9555664 1.50146484,31.8237305 1.50146484,31.2744141 C1.50146484,30.7543945 1.53076172,30.5859375 1.69189453,30.2490234 C2.02880859,29.5239258 2.57080078,29.0551758 3.31787109,28.8134766 C3.49651834,28.7609333 4.25188551,28.7385452 6.66833389,28.7327918 L7.12623346,28.731926 C7.20568117,28.7318113 7.28671456,28.731711 7.3693638,28.7316249 Z M14.5898438,0.1171875 C15.3149414,-0.0805664063 16.0473633,-8.88230461e-14 16.7724609,0.358886719 C16.9995117,0.476074219 18.1420898,1.56738281 20.5517578,3.97705078 C23.5180664,6.94335937 24.0307617,7.49267578 24.1992188,7.8515625 C24.7485352,9.04541016 24.4848633,10.4003906 23.5180664,11.2939453 C22.9174805,11.8579102 22.3828125,12.0483398 21.4453125,12.0483398 L21.4453125,12.0483398 L20.7348633,12.0483398 L20.3320313,12.4438477 L19.9291992,12.8466797 L20.1269531,12.9638672 C20.4711914,13.1762695 20.9326172,13.762207 21.0644531,14.1503906 C21.2841797,14.8168945 21.1450195,15.6005859 20.6982422,16.2231445 C20.6912109,16.2328125 20.6831777,16.2406348 20.6767071,16.2489021 L20.6708522,16.2574027 C20.6511333,16.2912073 20.6669359,16.3427726 20.8627135,16.5411355 L20.9179635,16.5962972 C21.5826321,17.2513491 23.8811279,19.2473145 31.3842773,25.7739258 C33.8012695,27.8759766 35.9985352,29.831543 36.2695313,30.1098633 C37.9394531,31.8457031 37.8955078,34.4677734 36.1816406,36.1816406 C34.5776367,37.7929687 32.1020508,37.9321289 30.3515625,36.5185547 C30.1464844,36.3574219 26.9165039,32.7026367 23.1738281,28.4033203 C17.3154704,21.6721598 16.4832588,20.7312153 16.2744241,20.6873231 L16.2567893,20.6856768 C16.2514157,20.6858823 16.2465041,20.6867946 16.2419261,20.688271 L16.2290649,20.6942503 L16.2290649,20.6942503 C15.6518555,21.1230469 14.7875977,21.2768555 14.1503906,21.0644531 C13.762207,20.9326172 13.1762695,20.4711914 12.9638672,20.1269531 L12.9638672,20.1269531 L12.8466797,19.9291992 L12.4438477,20.3320312 L12.0483398,20.7348633 L12.0410156,21.4819336 C12.0410156,22.4414062 11.8725586,22.8955078 11.3012695,23.5107422 C10.612793,24.2578125 9.71923828,24.5800781 8.69384766,24.4482422 C7.76367188,24.3237305 7.72705078,24.2944336 4.07958984,20.6616211 C4.01594491,20.5982287 3.95258737,20.5350628 3.88956797,20.4721755 L3.33289372,19.9151256 C1.81955018,18.3965041 0.612708782,17.150037 0.505371094,16.9921875 C0.234375,16.5893555 1.23988687e-13,15.8422852 1.23933075e-13,15.3881836 C1.23877464e-13,14.934082 0.17578125,14.2675781 0.402832031,13.8793945 C0.666503906,13.4399414 1.25244141,12.9125977 1.74316406,12.6855469 C2.11669922,12.5097656 2.24853516,12.487793 2.95166016,12.487793 L2.95166016,12.487793 L3.73535156,12.487793 L8.10058594,8.12255859 L12.4731445,3.75 L12.4804688,2.95898437 C12.487793,2.25585937 12.5097656,2.109375 12.6855469,1.74316406 C13.0517578,0.959472656 13.7841797,0.329589844 14.5898438,0.1171875 Z M7.36354722,33.8545806 L6.24377267,33.8545641 C6.17670242,33.8546345 6.1110904,33.8547201 6.04690181,33.8548215 L5.67857269,33.8556223 C3.68500967,33.8612771 3.25641096,33.8863209 3.02414525,33.9515168 L2.98491667,33.9634429 L2.98491667,33.9634429 L2.96630859,33.9697266 C2.49023438,34.1308594 2.16796875,34.3725586 1.89697266,34.7387695 C1.69189453,35.0244141 1.46484375,35.6323242 1.46484375,35.9033203 C1.46484375,36.0010141 1.67676417,36.0265648 5.85065995,36.0330392 L6.36021168,36.0337161 C6.44825886,36.0338153 6.53788582,36.033908 6.62912085,36.0339945 L7.80293742,36.0347642 C7.90748926,36.0348081 8.01376224,36.0348474 8.12178463,36.0348826 L19.0649414,36.0351563 L19.0136719,35.7275391 C18.8964844,34.987793 18.4643555,34.4018555 17.8125,34.0795898 L17.8125,34.0795898 L17.3950195,33.8745117 L10.3637695,33.8598633 C9.53320313,33.8579989 8.79968443,33.8564905 8.15126962,33.8555192 L7.61604869,33.8548224 C7.53022597,33.8547296 7.44607042,33.8546488 7.36354722,33.8545806 Z M31.9628906,28.2568359 C31.9262695,28.2275391 31.0546875,29.0405273 30.0292969,30.065918 L30.0292969,30.065918 L28.1689453,31.9262695 L28.3520508,32.1313477 C28.4545898,32.2412109 29.1137695,32.9882812 29.8095703,33.7866211 C31.1132813,35.2880859 31.5161133,35.6542969 32.0800781,35.8520508 C33.5595703,36.3720703 35.1123047,35.6835937 35.8081055,34.2041016 C35.9692383,33.8598633 35.9985352,33.7060547 35.9985352,33.1054687 C35.9985352,32.3730469 35.8886719,32.0214844 35.5004883,31.4355469 C35.4125977,31.3037109 34.5996094,30.5419922 33.6914063,29.7436523 C32.7832031,28.9526367 32.0068359,28.2788086 31.9628906,28.2568359 Z M11.2216901,30.175805 L3.77197266,30.1757813 L3.48632813,30.3515625 C2.75390625,30.7910156 2.76855469,31.8017578 3.515625,32.2192383 C3.73927525,32.3428345 3.79266544,32.3671123 7.14940483,32.3718812 L8.12527657,32.3727465 C8.21353095,32.3727894 8.30356909,32.3728262 8.39542912,32.3728577 L12.1123834,32.3728577 C12.2042434,32.3728262 12.2942816,32.3727894 12.3825359,32.3727465 L13.3584077,32.3718812 C16.7151471,32.3671123 16.7685372,32.3428345 16.9921875,32.2192383 C17.3144531,32.0361328 17.578125,31.6113281 17.578125,31.2817383 C17.578125,30.9082031 17.3217773,30.4907227 16.9921875,30.3222656 C16.779652,30.2104048 16.6482664,30.183965 13.776809,30.1777156 L13.3476563,30.1769531 C13.2729226,30.1768466 13.1965594,30.1767497 13.1185287,30.1766617 L11.5256534,30.1758376 C11.4262411,30.1758235 11.3249326,30.1758129 11.2216901,30.175805 Z M29.7363281,26.2939453 C29.7143555,26.2939453 28.9306641,27.0629883 27.9858398,28.0078125 L27.9858398,28.0078125 L26.2719727,29.7216797 L26.7407227,30.2783203 L27.2094727,30.8276367 L30.7983398,27.2387695 L30.2856445,26.7700195 C30.0073242,26.5136719 29.7583008,26.3012695 29.7363281,26.2939453 Z M19.5703125,17.4462044 C19.5410156,17.4389648 19.0429688,17.9077148 18.4643555,18.4863281 L17.4023438,19.5483398 L17.8125,20.0097656 C18.0322266,20.2661133 19.7900391,22.2802734 21.7163086,24.4995117 C23.6425781,26.7114258 25.2392578,28.5351562 25.2612305,28.5498591 C25.2832031,28.5571289 26.0449219,27.824707 26.9458008,26.9238281 L26.9458008,26.9238281 L28.5791016,25.2905273 L26.5795898,23.5400391 C25.4736328,22.5732422 23.4594727,20.8154297 22.097168,19.6289062 C20.7348633,18.4423828 19.5996094,17.4609375 19.5703125,17.4462044 Z M3.57421875,14.0551758 C3.23730469,13.8867187 2.61474609,13.8720703 2.30712891,14.0405273 C1.57470703,14.4287109 1.27441406,15.2270508 1.60400391,15.9301758 C1.69921875,16.1279297 2.84912109,17.3217773 5.09765625,19.5703125 C8.3203125,22.7709961 8.47412109,22.9101562 8.81103516,22.9833984 C9.92431641,23.2104492 10.8325195,22.2583008 10.546875,21.159668 C10.4736328,20.8666992 10.1293945,20.5004883 7.15576172,17.5195312 C5.33203125,15.6958008 3.72070313,14.1357422 3.57421875,14.0551758 Z M18.9550781,14.1357422 L18.6401367,14.1357422 L16.3916016,16.3916016 L14.1357422,18.6401367 L14.1357422,18.9550781 C14.1357422,19.387207 14.4360352,19.7021484 14.8461914,19.7021484 C14.8541815,19.7021484 14.8620236,19.7020677 14.8697805,19.7018499 L14.9158017,19.6984451 C15.1458185,19.6686749 15.4121538,19.4138406 17.409668,17.409668 C17.4764737,17.3430842 17.5413358,17.2784239 17.6043106,17.2156244 L17.9599639,16.8606542 C19.6295116,15.1924272 19.7021484,15.0858931 19.7021484,14.8461914 C19.7021484,14.6337891 19.6508789,14.5092773 19.4897461,14.3481445 C19.3212891,14.1796875 19.2114258,14.1357422 18.9550781,14.1357422 L18.9550781,14.1357422 Z M13.293457,5.05371094 C13.2493761,5.05371094 11.4800473,6.79936664 9.59237042,8.68377825 L8.68377825,9.59237042 C6.79936664,11.4800473 5.05371094,13.2493761 5.05371094,13.293457 C5.05371094,13.3326939 6.15724836,14.4637906 7.59797777,15.9099751 L7.94983455,16.2627114 L7.94983455,16.2627114 L8.12988281,16.4428711 L11.2060547,19.519043 L15.3588867,15.3588867 L19.519043,11.2060547 L16.4428711,8.12988281 L16.4428711,8.12988281 L16.08498,7.77243478 C14.5560253,6.24729701 13.3342634,5.05371094 13.293457,5.05371094 Z M8.11523438,12.5317383 C8.11767578,12.5317383 8.13313802,12.5366211 8.15809462,12.5453016 L8.25792101,12.5816515 C8.29833984,12.5968424 8.34472656,12.6147461 8.39355469,12.6342773 C8.73779297,12.7734375 8.90625,13.1616211 8.7890625,13.5205078 C8.67919922,13.8354492 8.46679688,13.9892578 8.10791016,13.9892578 C7.72705078,13.9892578 7.39746094,13.6743164 7.39746094,13.3081055 C7.39746094,13.0078125 7.67578125,12.6269531 7.93212891,12.5756836 C8.02001953,12.5610352 8.10058594,12.5390625 8.11523438,12.5317383 Z M12.7734375,7.60986328 C13.1542969,7.32421875 13.4912109,7.32421875 13.7768555,7.60986328 C13.9453125,7.77832031 13.9892578,7.88818359 13.9892578,8.13720703 C13.9892578,8.43042834 13.982909,8.46334813 12.6165997,9.83192776 L12.2900391,10.1586914 C11.1914062,11.25 10.5102539,11.8725586 10.3857422,11.9018555 C9.82177734,12.0410156 9.34570312,11.5649414 9.48486328,11.0083008 C9.53613281,10.7958984 12.2460937,7.99804688 12.7734375,7.60986328 Z M15.9301758,1.60400391 C14.9853516,1.16455078 13.9160156,1.86767578 13.9160156,2.9296875 C13.9160156,3.15673828 13.9746094,3.40576172 14.0551758,3.57421875 C14.1357422,3.72070312 15.6958008,5.33203125 17.5195313,7.15576172 C17.5922375,7.22828935 17.6633883,7.29925279 17.7330205,7.36868627 L18.1328856,7.76720131 C20.553688,10.17832 20.888136,10.478992 21.159668,10.546875 C22.2583008,10.8325195 23.2104492,9.92431641 22.9833984,8.81103516 C22.9101563,8.47412109 22.7709961,8.3203125 19.5703125,5.09765625 C17.3217773,2.84912109 16.1279297,1.69921875 15.9301758,1.60400391 Z" id="Combined-Shape"></path>
                </g>
            </g>
        </g>
    </g>
</svg>