<?xml version="1.0" encoding="UTF-8"?>
<svg width="45px" height="45px" viewBox="0 0 45 45" version="1.1" xmlns="http://www.w3.org/2000/svg" xmlns:xlink="http://www.w3.org/1999/xlink">
    <title>svg/Lifestyle_service_ic</title>
    <g id="Page-1" stroke="none" stroke-width="1" fill="none" fill-rule="evenodd">
        <g id="Service-All-Category" transform="translate(-290.000000, -1368.000000)" fill="#47CDFE" fill-rule="nonzero" stroke="#47CDFE" stroke-width="0.1">
            <g id="Group-2" transform="translate(271.000000, 1348.000000)">
                <g id="Lifestyle_service_ic" transform="translate(20.000000, 20.000000)">
                    <path d="M15.50043,39.22325 C15.828615,39.097025 16.07265,39.130685 16.283025,39.349475 L16.283025,39.349475 L16.4934,39.551435 L16.493054,41.7315075 C16.4893818,42.756065 16.45677,43.595585 16.40925,43.674785 C16.367175,43.758935 16.215705,43.876745 16.07265,43.93565 C15.75288,44.07029 15.38262,43.93565 15.239565,43.63271 C15.121755,43.371845 15.11334,39.82913 15.23115,39.517775 C15.273225,39.399965 15.39945,39.265325 15.50043,39.22325 Z M20.78505,17.2601 C22.82148,16.99082 25.11036,17.63036 26.43993,18.85895 C27.88731,20.180105 28.552095,21.997745 28.40904,24.24455 C28.3857369,24.5824446 28.3503342,25.2470304 28.3195851,25.9395386 L28.2999591,26.4020687 C28.2937694,26.5554385 28.2879935,26.7069085 28.282815,26.8532 C28.20708,28.712915 28.131345,29.083175 27.6012,30.13505 C27.273015,30.79142 26.4231,31.9022 25.909785,32.348195 C25.505865,32.701625 25.489035,32.735285 25.51428,33.0803 L25.51428,33.0803 L25.539525,33.442145 L26.33895,33.68618 C29.2012188,34.5629762 29.6985933,34.7221925 29.8621371,34.9429403 L29.8901677,34.9866433 C29.9026441,35.0090881 29.9132213,35.03258 29.92374,35.057825 C30.07521,35.4365 29.948985,35.80676 29.612385,35.9414 C29.38518,36.04238 29.20005,36.000305 27.78633,35.562725 C26.919585,35.293445 26.05284,35.024165 25.859295,34.96526 L25.859295,34.96526 L25.49745,34.855865 L25.320735,35.276615 C25.0767,35.82359 24.378255,36.46313 23.755545,36.69875 C21.55923,37.52342 18.90009,36.79973 18.29421,35.21771 C18.218475,35.007335 18.10908,34.855865 18.05859,34.872695 C18.0081,34.889525 17.208675,35.141975 16.283025,35.428085 C15.357375,35.72261 14.44014,36.04238 14.25501,36.151775 C13.842675,36.39581 13.44717,36.824975 13.203135,37.313045 C12.80763,38.07881 12.765555,38.38175 12.731895,41.032475 C12.70665,42.97634 12.664575,43.59905 12.580425,43.73369 C12.327975,44.129195 11.62953,44.045045 11.4444,43.59905 C11.2761,43.203545 11.37708,38.39858 11.56221,37.750625 C11.940885,36.4463 12.698235,35.428085 13.691205,34.91477 C14.010975,34.74647 15.121755,34.35938 16.17363,34.03961 L16.17363,34.03961 L18.09225,33.458975 L18.09225,33.13079 C18.09225,32.836265 18.02493,32.735285 17.393805,32.078915 C16.636455,31.287905 16.19046,30.665195 15.8202,29.86577 C15.424695,29.02427 15.3153,28.443635 15.3153,27.282365 C15.3153,26.659655 15.23115,25.55729 15.09651,24.54749 C14.86089,22.687775 14.87772,22.048235 15.16383,21.18149 C15.374205,20.52512 15.80337,19.88558 16.25778,19.506905 C16.64487,19.187135 17.62101,18.69065 17.848215,18.69065 C17.92395,18.69065 18.050175,18.58967 18.12591,18.47186 C18.470925,17.95013 19.65744,17.41157 20.78505,17.2601 Z M31.1465447,36.7090715 L31.244895,36.71558 C31.69089,36.74924 31.867605,36.993275 32.069565,37.84319 C32.0749506,37.8660788 32.0801612,37.8887522 32.0852021,37.9113335 L32.1134549,38.0467027 C32.2099003,38.5462397 32.22945,39.120587 32.22945,41.082965 L32.2290545,41.7607175 C32.2264599,43.4571114 32.2080871,43.6580896 32.0911498,43.7807616 L32.06115,43.809425 C31.817115,44.028215 31.345875,44.0198 31.110255,43.78418 C30.925125,43.59905 30.925125,43.540145 30.874635,40.92308 C30.840975,38.693105 30.807315,38.19662 30.689505,37.885265 C30.504375,37.40561 30.51279,37.18682 30.723165,36.91754 C30.874635,36.723995 30.958785,36.690335 31.244895,36.71558 Z M27.39924,39.315815 C27.693765,39.080195 27.963045,39.097025 28.249155,39.34106 L28.249155,39.34106 L28.484775,39.54302 L28.4841009,42.3544152 C28.4803932,43.5672821 28.4562935,43.6275315 28.299645,43.78418 C28.064025,44.0198 27.592785,44.028215 27.34875,43.809425 C27.2011638,43.6773742 27.1826409,43.5811743 27.1806645,41.9985415 L27.18045,39.484115 Z M19.413405,33.56837 L19.45548,34.064855 C19.514385,34.69598 19.649025,34.96526 20.019285,35.21771 C21.045915,35.932985 23.166495,35.78993 23.8986,34.956845 C24.125805,34.704395 24.15105,34.61183 24.15105,34.132175 L24.15105,34.132175 L24.15105,33.593615 L23.789205,33.7535 C22.829895,34.182665 21.567645,34.29206 20.591505,34.03961 C20.31381,33.97229 19.92672,33.829235 19.750005,33.73667 L19.750005,33.73667 L19.413405,33.56837 Z M19.5228,24.539075 C19.447065,24.51383 19.23669,24.68213 19.00107,24.95141 C18.61398,25.397405 17.915535,25.818155 17.06562,26.137925 L17.06562,26.137925 L16.6617,26.289395 L16.6617,27.265535 C16.670115,28.864385 17.090865,29.806865 18.386775,31.102775 C20.196,32.912 21.937905,33.290675 23.7303,32.264045 C24.849495,31.624505 25.926615,30.47165 26.45676,29.352455 C26.82702,28.56986 26.928,28.056545 26.928,26.962595 C26.928,25.935965 26.818605,25.666685 26.229555,25.262765 C25.556355,24.808355 25.472205,24.79994 22.846725,24.791525 C21.113235,24.791525 20.29698,24.757865 20.0277,24.68213 C19.817325,24.623225 19.59012,24.555905 19.5228,24.539075 Z M17.461125,20.2895 L17.141355,20.550365 C16.737435,20.87855 16.44291,21.459185 16.3251,22.149215 C16.249365,22.57838 16.25778,22.906565 16.35876,23.731235 C16.42608,24.303455 16.51023,24.791525 16.52706,24.81677 C16.59438,24.875675 17.28441,24.59798 17.595765,24.387605 C17.747235,24.286625 17.94078,24.101495 18.033345,23.97527 L18.033345,23.97527 L18.201645,23.748065 L17.949195,23.175845 C17.80614,22.86449 17.663085,22.485815 17.629425,22.351175 C17.595765,22.20812 17.545275,21.694805 17.511615,21.189905 L17.511615,21.189905 L17.461125,20.2895 Z M23.301135,18.74114 C22.60269,18.57284 21.382515,18.50552 20.78505,18.6065 C20.103435,18.72431 19.278765,19.170305 19.059975,19.53215 C18.91692,19.7846 18.891675,19.96973 18.891675,20.836475 C18.891675,22.401665 19.11888,22.89815 20.01087,23.25158 C20.473695,23.428295 20.59992,23.43671 22.97295,23.445125 C25.657335,23.45354 25.926615,23.4872 26.74287,23.95844 L26.74287,23.95844 L27.0963,24.168815 L27.0963,23.680745 C27.07947,21.18149 25.64892,19.31336 23.301135,18.74114 Z M6.36099912,9.28295607 L6.93663206,9.28492679 C8.3715362,9.29194143 9.72537328,9.31449922 9.87921,9.35 C10.06434,9.392075 10.325205,9.543545 10.46826,9.678185 C10.729125,9.93905 10.729125,9.95588 10.75437,10.940435 L10.75437,10.940435 L10.78803,11.94182 L11.570625,11.97548 C12.30273,12.000725 12.378465,12.017555 12.681405,12.26159 C13.22838,12.69917 13.2887012,12.6374226 13.2950629,15.5383511 L13.2957431,21.105755 L13.102155,21.476015 C12.97593,21.70322 12.782385,21.913595 12.57201,22.031405 C12.2759267,22.2028217 12.1818495,22.2227337 10.4460714,22.2247431 L7.750215,22.22495 L7.581915,22.00616 C7.35471,21.72005 7.35471,21.4676 7.581915,21.18149 L7.581915,21.18149 L7.750215,20.9627 L9.719325,20.9627 C10.796445,20.9627 11.738925,20.937455 11.81466,20.91221 C11.93247,20.870135 11.9493,20.651345 11.9493,19.321775 L11.9493,17.78183 L11.637945,17.89964 C11.435985,17.96696 10.92267,18.009035 10.291545,18.01745 L10.291545,18.01745 L9.96983953,18.0177789 C9.26305147,18.0202453 9.2565,18.04121 9.2565,18.21941 C9.2565,18.463445 8.961975,18.90944 8.642205,19.14506 C8.423415,19.304945 8.271945,19.321775 6.79932,19.34702 C5.461335,19.372265 5.13315,19.355435 4.83021,19.237625 C4.42629,19.086155 4.15701,18.766385 4.030785,18.311975 L4.030785,18.311975 L3.946635,18.01745 L2.953665,18.01745 C2.297295,18.01745 1.83447,17.975375 1.607265,17.891225 L1.607265,17.891225 L1.26225,17.773415 L1.26252405,19.4418408 C1.26551118,20.4805118 1.29393,20.7251 1.39689,20.82806 C1.506285,20.94587 1.81764,20.9627 3.525885,20.9627 L4.12920092,20.9632962 C5.4347436,20.9667796 5.5532268,20.9892914 5.67171,21.122585 C5.865255,21.341375 5.865255,21.846275 5.67171,22.065065 C5.56952786,22.1792686 5.48881255,22.2161915 4.63529112,22.2187676 L4.35525624,22.2185529 C4.05044862,22.2173937 3.66894,22.2135296 3.189285,22.20812 C0.967725,22.182875 0.8415,22.17446 0.614295,22.00616 C0.48807,21.913595 0.294525,21.70322 0.18513,21.55175 L0.18513,21.55175 L2.90977499e-14,21.274055 L2.80878204e-14,13.027355 L0.210375,12.66551 C0.5049,12.16061 0.95931,11.95865 1.78398,11.95865 L1.78398,11.95865 L2.415105,11.95865 L2.45718,11.04983 C2.50767,9.863315 2.72646,9.45098 3.374415,9.324755 C3.51957375,9.29951 4.42444922,9.28609859 5.51614755,9.2831895 L6.36099912,9.28295607 L6.36099912,9.28295607 Z M34.880175,8.72729 C35.620695,8.55899 37.354185,8.601065 38.077875,8.79461 C40.013325,9.324755 41.746815,10.79738 42.54624,12.606605 C43.295175,14.289605 43.278345,16.51958 42.504165,18.21941 C41.629005,20.146445 39.70197,21.677975 37.66554,22.048235 C36.849285,22.199705 35.47764,22.166045 34.68663,21.9725 C32.372505,21.41711 30.453885,19.56581 29.7891,17.2601 C29.528235,16.359695 29.477745,14.97122 29.65446,14.053985 C30.184605,11.411675 32.24628,9.307925 34.880175,8.72729 Z M36.5211,9.97271 C36.03303,9.95588 35.56179,9.964295 35.469225,9.98954 C34.08075,10.317725 33.30657,10.721645 32.4819,11.5379 C31.90968,12.118535 31.514175,12.741245 31.194405,13.59116 C30.95037,14.222285 30.93354,14.34851 30.93354,15.366725 C30.93354,16.342865 30.958785,16.527995 31.15233,17.07497 C31.4721,17.975375 31.850775,18.564425 32.540805,19.254455 C33.55902,20.264255 34.85493,20.7944 36.327555,20.802815 C37.875915,20.802815 39.2139,20.22218 40.265775,19.102985 C41.225085,18.076355 41.662665,17.04131 41.72157,15.67808 C41.77206,14.55047 41.645835,13.953005 41.174595,12.976865 C40.871655,12.34574 40.67811,12.068045 40.19004,11.58839 C39.50001,10.89836 38.902545,10.5281 38.01897,10.216745 C37.539315,10.048445 37.21113,9.98954 36.5211,9.97271 Z M35.8479,12.12695 C36.06669,11.90816 36.5211,11.90816 36.781965,12.118535 C36.950265,12.253175 36.983925,12.3794 37.026,12.96845 L37.026,12.96845 L37.068075,13.65848 L38.431305,14.41583 C39.93759,15.25733 40.08906,15.417215 39.8871,15.9137 C39.65148,16.48592 39.34854,16.46909 38.128365,15.804305 C37.7307562,15.5897225 37.3662816,15.3940737 37.1946945,15.3061107 L37.1106321,15.2643961 L37.1106321,15.2643961 L37.09332,15.25733 C37.051245,15.2405 37.026,15.64442 37.026,16.14932 L37.026,16.14932 L37.026,17.07497 L37.56456,17.37791 C38.111535,17.689265 38.2041,17.790245 38.2041,18.15209 C38.2041,18.47186 38.06946,18.665405 37.76652,18.766385 C37.51407,18.85895 37.42992,18.84212 36.916605,18.57284 L36.916605,18.57284 L36.344385,18.278315 L35.73009,18.57284 C35.05689,18.89261 34.812855,18.884195 34.55199,18.50552 C34.257465,18.08477 34.43418,17.739755 35.1747,17.32742 L35.1747,17.32742 L35.6796,17.049725 L35.6796,15.164765 L34.63614,15.753815 C34.06392,16.073585 33.500115,16.33445 33.382305,16.33445 C33.028875,16.33445 32.73435,16.03151 32.73435,15.66125 C32.73435,15.25733 32.83533,15.17318 34.48467,14.272775 L34.48467,14.272775 L35.6796,13.60799 L35.6796,12.95162 C35.6796,12.404645 35.704845,12.270005 35.8479,12.12695 Z M7.9101,16.7552 L5.30145,16.7552 L5.30145,18.01745 L7.9101,18.01745 L7.9101,16.7552 Z M1.438965,13.30505 L1.337985,13.481765 C1.27908,13.60799 1.253835,14.037155 1.27908,14.777675 C1.31274,15.99785 1.38006,16.19981 1.876545,16.511165 C2.112165,16.65422 2.27205,16.67105 3.071475,16.65422 L3.071475,16.65422 L3.98871,16.628975 L4.047615,16.35128 C4.081275,16.19981 4.19067,15.972605 4.300065,15.854795 C4.69557,15.434045 4.838625,15.4088 6.66468,15.4088 L7.07317777,15.4093597 C8.25580194,15.4132269 8.42221286,15.4400557 8.65062,15.5771 C8.961975,15.770645 9.2565,16.208225 9.2565,16.477505 C9.2565,16.64828 9.26960294,16.6683712 9.91434472,16.6707348 L10.3779625,16.6705597 C11.0212101,16.6664691 11.2094273,16.6348008 11.419155,16.50275 C11.890395,16.21664 11.957715,15.98102 11.93247,14.58413 L11.93247,14.58413 L11.907225,13.347125 L6.673095,13.32188 L1.438965,13.30505 Z M19.228275,0.943415 C19.632195,0.926585 20.5326,1.128545 21.02067,1.35575 L21.02067,1.35575 L21.5424,1.599785 L22.072545,1.35575 C23.570415,0.657305 25.245,0.91817 26.330535,2.02895 C27.592785,3.30803 27.878895,5.34446 27.04581,7.019045 C26.885925,7.338815 26.280045,8.012015 24.748515,9.55196 C22.577445,11.73986 22.190355,12.0428 21.5424,12.0428 C20.9571503,12.0428 20.5847187,11.7956564 18.9183267,10.1356312 L18.5408881,9.75786099 L18.5408881,9.75786099 L18.336285,9.55196 C16.804755,8.012015 16.198875,7.338815 16.03899,7.019045 C15.205905,5.34446 15.492015,3.30803 16.754265,2.02895 C17.28441,1.49039 17.932365,1.145375 18.61398,1.027565 C18.858015,0.98549 19.13571,0.95183 19.228275,0.943415 Z M9.4248,10.61225 L3.78675,10.61225 L3.78675,11.95865 L9.4248,11.95865 L9.4248,10.61225 Z M24.20154,2.36555 C23.54517,2.222495 22.85514,2.407625 21.84534,3.02192 C21.62655,3.15656 21.25629,3.08924 20.978595,2.87045 C20.8692,2.7863 20.574675,2.63483 20.33064,2.542265 C19.716345,2.31506 19.211445,2.26457 18.74862,2.39921 C17.58735,2.71898 16.84683,3.855005 16.93098,5.19299 C16.9919888,6.13099953 17.122109,6.39171661 18.8370417,8.11090178 L19.2149658,8.48810631 L19.2149658,8.48810631 L19.42182,8.69363 C20.524185,9.795995 21.47508,10.6964 21.5424,10.6964 C21.60972,10.6964 22.560615,9.795995 23.66298,8.69363 C25.95186,6.413165 26.094915,6.21962 26.15382,5.150915 C26.179065,4.646015 26.15382,4.41881 26.010765,4.04855 C25.657335,3.10607 25.068285,2.559095 24.20154,2.36555 Z M29.43567,4.4693 C29.80593,4.4693 32.120055,5.773625 32.96997,6.463655 C33.264495,6.699275 33.3234,6.800255 33.3234,7.04429 C33.3234,7.406135 33.012045,7.75115 32.692275,7.75115 C32.557635,7.75115 32.11164,7.51553 31.58991,7.170515 C31.110255,6.850745 30.36132,6.413165 29.932155,6.194375 C28.939185,5.68106 28.7793,5.538005 28.7793,5.134085 C28.7793,4.89005 28.82979,4.780655 28.99809,4.646015 C29.124315,4.545035 29.31786,4.4693 29.43567,4.4693 Z M13.640715,4.4693 C14.010975,4.4693 14.3055,4.763825 14.3055,5.134085 C14.3055,5.538005 14.145615,5.68106 13.152645,6.194375 C12.72348,6.40475 12.008205,6.833915 11.553795,7.136855 C10.56924,7.78481 10.28313,7.860545 9.98019,7.557605 C9.82872,7.406135 9.7614,7.24625 9.7614,7.04429 C9.7614,6.800255 9.820305,6.699275 10.123245,6.463655 C10.61973,6.05132 11.32659,5.61374 12.4542,4.999445 C12.984345,4.70492 13.522905,4.4693 13.640715,4.4693 Z" id="Combined-Shape"></path>
                </g>
            </g>
        </g>
    </g>
</svg>