<?xml version="1.0" encoding="UTF-8"?>
<svg width="110px" height="110px" viewBox="0 0 110 110" version="1.1" xmlns="http://www.w3.org/2000/svg" xmlns:xlink="http://www.w3.org/1999/xlink">
    <title>svg/login_logo</title>
    <defs>
        <linearGradient x1="50%" y1="100%" x2="47.1030203%" y2="-2.42861287e-15%" id="linearGradient-1">
            <stop stop-color="#1451FD" offset="0%"></stop>
            <stop stop-color="#13A2F7" offset="100%"></stop>
        </linearGradient>
    </defs>
    <g id="Page-1" stroke="none" stroke-width="1" fill="none" fill-rule="evenodd">
        <g id="Login" transform="translate(-133.000000, -115.000000)" fill-rule="nonzero">
            <g id="login_logo" transform="translate(133.000000, 115.000000)">
                <g id="Group-2" fill="url(#linearGradient-1)">
                    <circle id="Oval" cx="54.62424" cy="54.62424" r="54.62424"></circle>
                </g>
                <g id="Screen-Shot-2022-02-12-at-12.58.14-PM" transform="translate(14.113440, 27.632880)" fill="#FFFFFF">
                    <g id="Group" transform="translate(40.500000, 26.970544) scale(-1, 1) rotate(-180.000000) translate(-40.500000, -26.970544) translate(0.000000, 0.970544)">
                        <path d="M27.1396224,-4.8316906e-13 L29.5232256,4.0563072 C30.8195712,6.3144576 32.199552,8.6562432 32.5759104,9.2835072 L32.5759104,9.2835072 L33.2868096,10.4125824 L36.2140416,5.3108352 C40.3121664,-1.7145216 40.353984,-1.7145216 44.326656,5.2272 L44.326656,5.2272 L47.3375232,10.4962176 L50.3483904,5.3526528 L53.31744,0.209088 L61.3046016,0.0836352 C62.5016304,0.0679536 63.552951,0.0561924 64.4726932,0.053987175 L65.0088621,0.0538558416 C70.9090589,0.06638544 70.8557414,0.57290112 69.2917632,3.345408 C68.6644992,4.4326656 68.162688,5.4781056 68.162688,5.6035584 C68.162688,5.7290112 70.6299264,5.854464 73.6407936,5.854464 L73.9831438,5.85490452 C79.2646074,5.86878435 80.707968,6.2142696 80.707968,7.4017152 C80.707968,7.7780736 75.0207744,17.9397504 68.0790528,29.9832192 C56.3283072,50.3483904 55.3665024,51.8956416 54.36288,51.7701888 C53.526528,51.6865536 52.8156288,50.7247488 50.5156608,46.835712 C48.9684096,44.2012032 47.5466112,41.9848704 47.3793408,41.9430528 C47.1702528,41.9012352 45.7484544,44.117568 44.1593856,46.8775296 C41.5666944,51.435648 41.190336,51.8956416 40.2285312,51.7701888 C39.308544,51.6865536 38.68128,50.8502016 36.4649472,47.0448 C35.0431488,44.535744 33.7049856,42.1939584 33.5377152,41.9012352 C33.3286272,41.5666944 32.1577344,43.2393984 30.2759424,46.5011712 C27.8505216,50.808384 27.18144,51.644736 26.2614528,51.7701888 C25.3832832,51.8956416 25.0069248,51.6029184 24.1287552,50.0974848 C10.9980288,27.4741632 0,8.1126144 0,7.5689856 C0,6.063552 0.836352,5.854464 6.7744512,5.854464 L7.06170415,5.85423593 C10.1073408,5.8493952 12.54528,5.7682944 12.54528,5.6871936 C12.54528,5.6035584 12.0434688,4.6835712 11.4580224,3.5963136 C10.7889408,2.3836032 10.4962176,1.3799808 10.663488,0.836352 C10.8982061,0.0930778839 11.206116,0.00852887575 17.6125453,0.000713079144 L27.1396224,-4.8316906e-13 Z M71.0481024,9.199872 L65.86272,9.2416896 L57.5828352,23.6687616 C53.8662156,30.1131754 50.7334488,35.7235137 49.7487474,37.6660583 L49.6465323,37.870148 C49.4917482,38.1836753 49.4155362,38.3628229 49.4284032,38.3885568 C49.5120384,38.5976448 50.599296,40.563072 51.853824,42.7794048 C53.108352,44.9957376 54.2792448,46.7938944 54.4465152,46.7102592 C54.5870223,46.6701143 59.4389345,38.4307758 64.5024263,29.738603 L65.1361392,28.6502832 L65.1361392,28.6502832 L65.770103,27.5606085 L65.770103,27.5606085 L66.4023648,26.4729411 C71.2381885,18.1504442 75.751746,10.3013476 75.9825792,9.7435008 C76.1498496,9.3253248 75.0207744,9.199872 71.0481024,9.199872 L71.0481024,9.199872 Z M40.1292287,5.29866774 L40.1030784,5.3108352 C39.8939904,5.5199232 37.0922112,10.2871296 33.8304384,15.9325056 C27.3487104,27.18144 26.7214464,28.0596096 25.5923712,27.3487104 C25.2160128,27.0978048 22.6233216,22.9578624 19.8215424,18.1488384 L19.8215424,18.1488384 L14.8034304,9.40896 L4.18176,9.1580544 L6.2308224,12.6289152 C7.22896052,14.3948519 11.3989878,21.5530001 15.7642971,29.1207784 L16.2326204,29.9329523 C16.4670202,30.339596 16.7016752,30.7469046 16.936128,31.154112 C21.7033344,39.4339968 25.717824,46.3757184 25.8014592,46.5429888 C25.926912,46.7520768 26.2614528,46.6684416 26.554176,46.3339008 C26.8314267,46.0353231 31.6334086,37.7967123 36.3005187,29.7002607 L36.8486872,28.7488803 C41.1333972,21.3091742 45.1483718,14.2593834 45.2466432,13.9252608 C45.4557312,13.2143616 40.4794368,4.9344768 40.1030784,5.3108352 Z M60.9097784,2.92750769 L55.617408,2.927232 L54.6137856,4.5163008 C54.0701568,5.3526528 49.4284032,13.2979968 44.3684736,22.0796928 L44.3684736,22.0796928 L35.126784,38.1376512 L37.2594816,41.9430528 C38.472192,44.0757504 39.6430848,46.0411776 39.8521728,46.3339008 C40.1030784,46.626624 40.3958016,46.7102592 40.6048896,46.5429888 C40.7621238,46.3464461 46.304825,36.7923079 52.1359213,26.6940805 L53.2547136,24.7560192 C59.4750816,13.9775328 65.653632,3.2199552 65.653632,3.0945024 C65.653632,3.0108672 63.3954816,2.927232 60.63552,2.927232 Z M20.1560832,3.0108672 C17.354304,2.9690496 15.054336,3.0108672 15.054336,3.1781376 C15.054336,3.3035904 17.5215744,7.736256 20.5742592,13.0052736 C23.626944,18.2742912 26.136,22.581504 26.1778176,22.581504 C26.2196352,22.581504 27.4323456,20.5742592 28.8123264,18.1488384 L28.8123264,18.1488384 L31.3632,13.6743552 L28.3523328,8.4053376 L25.299648,3.13632 Z" id="Combined-Shape"></path>
                    </g>
                </g>
            </g>
        </g>
    </g>
</svg>