<?xml version="1.0" encoding="UTF-8"?>
<svg width="24px" height="24px" viewBox="0 0 24 24" version="1.1" xmlns="http://www.w3.org/2000/svg" xmlns:xlink="http://www.w3.org/1999/xlink">
    <title>svg/logout_ic</title>
    <g id="Page-1" stroke="none" stroke-width="1" fill="none" fill-rule="evenodd">
        <g id="Profile" transform="translate(-57.000000, -888.000000)">
            <g id="logout_ic" transform="translate(57.000000, 888.000000)">
                <polygon id="Path" points="0 0 24 0 24 24 0 24"></polygon>
                <path d="M5,22 C4.44771525,22 4,21.5522847 4,21 L4,3 C4,2.44771525 4.44771525,2 5,2 L19,2 C19.5522847,2 20,2.44771525 20,3 L20,6 L18,6 L18,4 L6,4 L6,20 L18,20 L18,18 L20,18 L20,21 C20,21.5522847 19.5522847,22 19,22 L5,22 Z M18,16 L18,13 L11,13 L11,11 L18,11 L18,8 L23,12 L18,16 Z" id="Shape" fill="#202328" fill-rule="nonzero"></path>
            </g>
        </g>
    </g>
</svg>