<?xml version="1.0" encoding="UTF-8"?>
<svg width="24px" height="24px" viewBox="0 0 24 24" version="1.1" xmlns="http://www.w3.org/2000/svg" xmlns:xlink="http://www.w3.org/1999/xlink">
    <title>svg/mail_ic</title>
    <g id="Page-1" stroke="none" stroke-width="1" fill="none" fill-rule="evenodd">
        <g id="Login" transform="translate(-33.000000, -329.000000)">
            <g id="Group-3" transform="translate(33.000000, 328.000000)">
                <g id="mail_ic" transform="translate(0.000000, 1.000000)">
                    <polygon id="Path" points="0 0 24 0 24 24 0 24"></polygon>
                    <path d="M3,3 L21,3 C21.5522847,3 22,3.44771525 22,4 L22,20 C22,20.5522847 21.5522847,21 21,21 L3,21 C2.44771525,21 2,20.5522847 2,20 L2,4 C2,3.44771525 2.44771525,3 3,3 Z M20,7.238 L12.072,14.338 L4,7.216 L4,19 L20,19 L20,7.238 Z M4.511,5 L12.061,11.662 L19.502,5 L4.511,5 Z" id="Shape" fill="#202328" fill-rule="nonzero"></path>
                </g>
            </g>
        </g>
    </g>
</svg>