<?xml version="1.0" encoding="UTF-8"?>
<svg width="41px" height="41px" viewBox="0 0 41 41" version="1.1" xmlns="http://www.w3.org/2000/svg" xmlns:xlink="http://www.w3.org/1999/xlink">
    <title>svg/Maintenance_services_ic</title>
    <g id="Page-1" stroke="none" stroke-width="1" fill="none" fill-rule="evenodd">
        <g id="Service-All-Category" transform="translate(-42.000000, -901.000000)" fill="#47CDFE" fill-rule="nonzero">
            <g id="Group-2" transform="translate(19.000000, 879.000000)">
                <g id="Maintenance_services_ic" transform="translate(23.000000, 22.000000)">
                    <path d="M7.216,20.56 L7.448,20.792 C7.672,21.016 7.68,21.064 7.68,21.712 L7.68,21.712 L7.68,22.392 L11.624,22.416 L15.56,22.44 L19.76,24.184 C20.5031429,24.4925714 21.2198367,24.7945306 21.8574789,25.0667642 L22.4668222,25.3282332 C23.4963265,25.7724082 24.2205714,26.0982857 24.344,26.176 C26.256,27.4 26.496,30.416 24.8,31.952 L24.8,31.952 L24.488,32.232 L24.744,32.312 C25.592,32.576 26.76,32.68 27.656,32.568 C28.056,32.52 30.032,32.096 32.056,31.632 C36.0556863,30.7140392 36.9597386,30.5022561 37.4453442,30.4936437 L37.5189318,30.493899 C37.5780074,30.4953964 37.6322779,30.499953 37.6878421,30.506423 L37.7555303,30.5150319 C37.8015902,30.5212857 37.8500392,30.5284706 37.904,30.536 C39.144,30.72 40.144,31.448 40.672,32.56 C40.904,33.056 40.92,33.128 40.92,34.04 C40.92,34.968 40.912,35.024 40.648,35.552 C40.328,36.208 39.696,36.864 39.104,37.152 C38.8323265,37.2835918 36.0064373,38.039097 33.2389265,38.7456471 L32.6024956,38.9075219 C30.3869388,39.468898 28.3405714,39.9645714 27.84,40.04 C26.52,40.248 25.224,40.176 23.92,39.84 C23.184,39.648 17.24,37.336 16.96,37.128 C16.36,36.688 16.688,35.68 17.432,35.68 C17.648,35.68 18.68,36.048 20.8,36.88 L20.8,36.88 L21.2568174,37.0575567 C22.7717686,37.6437025 24.1767273,38.1607273 24.504,38.248 C25.32,38.456 26.648,38.528 27.44,38.408 C28.216,38.288 38.008,35.8 38.304,35.648 C38.616,35.488 38.952,35.136 39.136,34.768 C39.376,34.304 39.312,33.504 39.016,33.048 C38.744,32.64 38.176,32.264 37.728,32.2 C37.464,32.16 36.512,32.352 33.32,33.08 C32.1095385,33.3556923 30.947787,33.619787 30.0845407,33.8135822 L29.7335822,33.892162 C29.1815385,34.0153846 28.8,34.0984615 28.68,34.12 C27.264,34.384 25.808,34.336 24.408,33.968 C24.032,33.872 21.864,33.08 19.6,32.208 C15.176,30.512 15.04,30.44 15.04,29.912 C15.04,29.616 15.232,29.232 15.432,29.12 C15.52,29.08 15.704,29.04 15.848,29.04 C15.992,29.04 17.376,29.528 18.928,30.12 C20.472,30.72 21.864,31.224 22.024,31.256 C22.448,31.32 23.072,31.144 23.472,30.832 C24.6,29.976 24.496,28.136 23.288,27.528 C23.128,27.448 21.208,26.64 19.016,25.728 L19.016,25.728 L15.04,24.08 L7.68,24.08 L7.68,33.04 L11.12,33.04 L11.376,33.272 C11.6,33.472 11.64,33.56 11.64,33.872 C11.64,34.16 11.592,34.28 11.416,34.456 L11.416,34.456 L11.2,34.68 L7.68,34.728 L7.68,35.248 C7.68,35.72 7.656,35.792 7.448,36.008 L7.448,36.008 L7.216,36.24 L0.424,36.24 L0.208,36.032 L6.81699281e-14,35.816 L6.63525522e-14,20.976 L0.496,20.56 L7.216,20.56 Z M13.576,34.488 C13.752,34.336 13.848,34.312 14.152,34.344 C14.624,34.4 14.88,34.672 14.88,35.128 C14.88,35.536 14.776,35.728 14.48,35.88 C14.168,36.04 13.928,36.032 13.624,35.84 C13.16,35.56 13.136,34.872 13.576,34.488 Z M6,22.24 L1.6,22.24 L1.6,34.56 L6,34.56 L6,22.24 Z M27.04,22.488 C27.32,22.384 27.408,22.384 27.72,22.512 C28.048,22.648 28.176,22.88 28.176,23.312 C28.168,23.576 28.12,23.688 27.92,23.856 C27.368,24.352 26.56,24 26.56,23.264 C26.56,22.88 26.728,22.608 27.04,22.488 Z M20,0.112 C21.048,-0.04 23.224,0.024 24.256,0.232 C29.432,1.288 33.4,5.28 34.4,10.448 C35.168,14.448 33.928,18.752 31.16,21.656 C30.656,22.184 30.568,22.24 30.296,22.24 C29.888,22.24 29.568,22.056 29.44,21.768 C29.312,21.456 29.392,21.032 29.608,20.832 C29.928,20.552 30.776,19.48 31.136,18.92 C31.904,17.728 32.424,16.464 32.736,15.016 C32.984,13.872 32.984,11.824 32.736,10.704 C32.224,8.36 31.272,6.616 29.608,4.96 C27.952,3.312 26.2,2.376 23.84,1.864 C23.32,1.752 22.824,1.72 21.72,1.72 C20.456,1.728 20.176,1.752 19.392,1.936 C14.896,3 11.584,6.44 10.752,10.92 C10.592,11.784 10.552,13.52 10.664,14.352 L10.664,14.352 L10.736,14.816 L11.008,14.408 C11.432,13.784 11.952,13.656 12.416,14.072 C12.64,14.272 12.68,14.36 12.68,14.656 C12.672,14.96 12.584,15.136 11.816,16.248 C10.952,17.504 10.768,17.68 10.336,17.68 C10.072,17.68 7.728,16.336 7.464,16.032 C7.336,15.896 7.28,15.728 7.28,15.512 C7.28,14.792 8.04,14.496 8.76,14.92 L8.76,14.92 L9.096,15.112 L9.032,14.776 C8.904,14.072 8.864,12.512 8.952,11.64 C9.296,8.48 10.472,6 12.672,3.792 C14.744,1.728 17.12,0.528 20,0.112 Z M23.536,4.536 C23.808,4.4 23.856,4.4 24.336,4.52 C24.976,4.688 26,5.16 26.616,5.584 C27.248,6.008 27.936,6.6 28.056,6.824 C28.264,7.192 28.136,7.704 27.76,8.04 C27.552,8.224 27.36,8.632 27.36,8.896 C27.36,9.208 27.68,9.744 27.968,9.928 C28.224,10.08 28.312,10.096 28.984,10.04 C29.696,9.992 29.728,9.992 29.936,10.184 C30.056,10.296 30.184,10.52 30.232,10.688 C30.64,12.232 30.48,14.872 29.952,15.368 C29.784,15.528 29.68,15.56 29.336,15.536 C28.2,15.472 28.2,15.472 27.904,15.696 C27.728,15.832 27.56,16.064 27.472,16.28 C27.296,16.752 27.4,17.128 27.84,17.64 C28.432,18.32 28.28,18.728 27.096,19.624 C26.096,20.392 24.528,21.12 23.888,21.12 C23.52,21.12 23.232,20.872 23.08,20.4 C22.848,19.704 22.448,19.36 21.88,19.36 C21.264,19.36 20.824,19.728 20.648,20.384 C20.4,21.28 19.8,21.328 18.2,20.56 C17.296,20.128 16.688,19.736 16.088,19.184 C15.432,18.584 15.376,18.168 15.88,17.608 C16.224,17.216 16.32,17.024 16.32,16.68 C16.32,16.344 16.224,16.128 15.936,15.824 C15.624,15.488 15.28,15.408 14.696,15.52 C14.256,15.608 14.16,15.608 13.944,15.488 C13.8,15.416 13.656,15.296 13.616,15.216 C13.352,14.704 13.192,13.104 13.288,11.968 C13.376,10.936 13.544,10.376 13.816,10.16 C14.016,10 14.096,9.992 14.76,10.04 C15.4,10.08 15.512,10.072 15.744,9.928 C16.24,9.616 16.448,8.992 16.24,8.448 C16.2,8.336 16.032,8.096 15.864,7.912 C15.608,7.632 15.56,7.52 15.56,7.216 C15.56,6.88 15.592,6.832 16.072,6.384 C16.952,5.576 18,4.968 19.16,4.584 C19.736,4.4 19.984,4.4 20.304,4.608 C20.496,4.736 20.592,4.92 20.672,5.296 C20.744,5.624 21.176,6.064 21.528,6.168 C22.192,6.368 22.8,5.968 23.08,5.152 C23.216,4.752 23.288,4.656 23.536,4.536 Z M19.224,6.336 L18.624,6.664 C18.296,6.848 17.928,7.072 17.808,7.16 L17.808,7.16 L17.6,7.32 L17.808,7.832 C17.992,8.288 18.016,8.432 17.984,9.032 C17.952,9.584 17.904,9.816 17.72,10.184 C17.272,11.088 16.264,11.76 15.368,11.76 L15.368,11.76 L14.976,11.76 L14.943488,12.441408 C14.93376,12.70816 14.9312,13.0384 14.944,13.256 L14.944,13.256 L14.976,13.76 L15.24,13.76 C16.016,13.76 17.064,14.344 17.52,15.024 C18.04,15.808 18.152,17.024 17.776,17.864 L17.776,17.864 L17.608,18.248 L17.944,18.488 C18.128,18.624 18.496,18.84 18.752,18.976 L18.752,18.976 L19.232,19.216 L19.392,18.992 C19.688,18.56 20.192,18.136 20.632,17.928 C21.024,17.744 21.184,17.72 21.88,17.72 C22.608,17.72 22.72,17.744 23.144,17.952 C23.568,18.168 24.176,18.72 24.376,19.072 C24.456,19.208 24.496,19.2 25.088,18.888 C25.432,18.704 25.808,18.488 25.912,18.4 L25.912,18.4 L26.096,18.24 L25.912,17.816 C25.632,17.192 25.64,16.128 25.936,15.504 C26.368,14.576 27.272,13.904 28.24,13.792 C28.672,13.744 28.704,13.728 28.752,13.504 C28.816,13.192 28.816,12.328 28.752,12.024 C28.704,11.792 28.68,11.776 28.208,11.744 C26.344,11.592 25.152,9.464 25.944,7.728 L25.944,7.728 L26.144,7.304 L25.768,7.064 C25.296,6.752 24.624,6.4 24.52,6.4 C24.472,6.4 24.32,6.56 24.176,6.76 C23.656,7.504 22.528,7.992 21.568,7.888 C21,7.832 20.296,7.528 19.928,7.176 C19.784,7.032 19.56,6.784 19.44,6.624 L19.44,6.624 L19.224,6.336 Z M20.88,9.4 C21.496,9.232 22.544,9.28 23.144,9.512 C25.472,10.416 26.104,13.512 24.312,15.272 C22.552,17.008 19.512,16.368 18.608,14.08 C17.848,12.168 18.928,9.952 20.88,9.4 Z M22.408,11.048 C21.024,10.64 19.72,11.896 20.12,13.264 C20.44,14.328 21.664,14.896 22.616,14.416 C23.264,14.08 23.68,13.416 23.68,12.72 C23.68,12.056 23.064,11.248 22.408,11.048 Z" id="Combined-Shape"></path>
                </g>
            </g>
        </g>
    </g>
</svg>