<?xml version="1.0" encoding="UTF-8"?>
<svg width="43px" height="47px" viewBox="0 0 43 47" version="1.1" xmlns="http://www.w3.org/2000/svg" xmlns:xlink="http://www.w3.org/1999/xlink">
    <title>svg/mans_fashion_ic</title>
    <g id="Page-1" stroke="none" stroke-width="1" fill="none" fill-rule="evenodd">
        <g id="Product-All-Category" transform="translate(-291.000000, -628.000000)" fill="#47CDFE" fill-rule="nonzero">
            <g id="Group-2" transform="translate(269.000000, 609.000000)">
                <g id="mans_fashion_ic" transform="translate(22.000000, 19.000000)">
                    <path d="M25.803,8.38440428e-13 L26.109,0.207 C26.595,0.531 26.73,0.9 26.73,1.935 L26.73,1.935 L26.73,2.835 L30.537,4.536 C32.625,5.472 34.722,6.435 35.199,6.678 C36.63,7.398 37.287,8.1 38.835,10.566 C40.689,13.5 41.004,14.697 41.94,22.257 C42.4735,26.5745 42.6675278,28.1157222 42.7398086,29.3495895 L42.7516575,29.5710918 C42.7781682,30.1191285 42.7822508,30.6345777 42.784353,31.3493068 L42.7851367,31.6463763 C42.7853951,31.7493086 42.7856667,31.8563333 42.786,31.968 L42.786,31.968 L42.795,34.722 L42.579,34.956 C42.273,35.289 41.751,35.28 41.499,34.947 C41.31,34.722 41.31,34.641 41.364,33.174 C41.3667,33.1044 41.36915,33.03482 41.371344,32.9651713 L41.381388,32.545746 C41.41233,30.64824 41.2479,28.5714 40.77,24.57 C39.582,14.688 39.483,14.301 37.278,10.863 C36.675,9.909 36.405,9.558 36.351,9.648 C36.18,9.9 35.613,11.79 35.415,12.744 C34.893,15.273 34.893,17.667 35.415,22.5 C35.92125,27.174375 36.1005469,28.8042188 36.1682227,30.0811816 L36.178771,30.297135 C36.2089659,30.9732216 36.2098929,31.5906429 36.216,32.58 C36.216,33.336 36.20925,34.37325 36.198,35.436375 L36.1873076,36.3480055 C36.1775663,37.103051 36.1658571,37.8340714 36.153,38.448 L36.153,38.448 L36.081,41.58 L41.04,41.58 L41.04,41.373 C41.04,41.265 41.085,40.329 41.13,39.294 C41.193,37.926 41.256,37.35 41.346,37.206 C41.607,36.819 42.237,36.855 42.516,37.278 C42.633,37.458 42.642,37.782 42.552,39.825 C42.498,41.112 42.417,42.246 42.372,42.345 C42.327,42.444 42.237,42.624 42.165,42.75 C42.075,42.903 42.03,43.263 42.03,43.875 C42.03,45.144 41.967,45.414 41.607,45.774 L41.607,45.774 L41.301,46.08 L1.602,46.08 L1.341,45.891 C0.927,45.603 0.873,45.396 0.81,44.037 C0.774,43.074 0.72,42.723 0.621,42.597 C0.54,42.507 0.45,42.372 0.423,42.291 C0.396,42.21 0.279,39.861 0.171,37.071 C-0.081,30.843 -0.045,29.97 0.675,24.03 C1.818,14.571 2.052,13.626 4.059,10.467 C5.58,8.073 6.228,7.389 7.641,6.678 C8.07984,6.45444 9.889848,5.621472 11.8095494,4.76077594 L12.312,4.536 L16.11,2.835 L16.11,1.935 C16.11,0.9 16.245,0.531 16.731,0.207 L16.731,0.207 L17.037,8.38440428e-13 L25.803,8.38440428e-13 Z M14.904,4.95872862 C14.895,4.95872862 14.49,5.157 13.995,5.382 C12.78,5.949 12.717,5.994 12.546,6.318 C12.366,6.669 12.411,7.083 12.717,7.785 C12.996,8.415 13.032,9.099 12.825,9.774 C12.582,10.584 12.618,10.737 13.455,12.105 C13.878,12.798 14.22,13.437 14.22,13.518 C14.22,14.04 13.725,14.382 13.23,14.211 C13.023,14.139 12.807,13.851 12.213,12.888 C11.799,12.204 11.412,11.52 11.358,11.349 C11.214,10.935 11.223,10.134 11.385,9.54 C11.565,8.865 11.556,8.703 11.286,8.127 C11.151,7.857 11.025,7.434 10.989,7.191 L10.989,7.191 L10.935,6.759 L9.558,7.38 C8.793,7.722 8.046,8.091 7.875,8.19 L7.875,8.19 L7.587,8.37 L7.938,9.297 C8.37,10.431 8.757,11.853 9.018,13.275 C9.189,14.202 9.216,14.724 9.234,16.965 L9.234,16.965 L9.252,19.575 L10.089,24.705 C10.755,28.854 10.917,30.024 10.917,30.825 C10.9171698,30.843 10.9173172,30.8607629 10.917434,30.8783319 L10.9174428,31.0323819 L10.9174428,31.0323819 L10.9144906,31.182952 L10.9144906,31.182952 L10.9102296,31.2848518 C10.8710676,32.042906 10.6473396,33.0940189 9.549,38.115 C8.802,41.58 8.163,44.487 8.136,44.568 C8.09961702,44.6917021 8.27502943,44.721273 10.8978551,44.728062 L11.3326501,44.7289551 C11.4086143,44.7290758 11.4863549,44.7291834 11.5659126,44.7292791 L12.9006546,44.7299865 L12.9006546,44.7299865 L13.203,44.73 L18.315,44.721 L18.945,44.01 C19.836,42.984 20.457,42.057 21.078,40.806 L21.078,40.806 L21.618,39.708 L21.339,38.871 C20.916,37.548 20.781,36.657 20.727,34.785 C20.682,33.129 20.682,33.066 20.88,32.823 C21.033,32.634 21.15,32.58 21.42,32.58 C22.068,32.58 22.104,32.697 22.167,34.677 C22.239,37.008 22.482,38.115 23.247,39.645 C23.94,41.031 24.84,42.219 26.406,43.803 L26.406,43.803 L27.315,44.73 L31.032,44.73 C31.1266216,44.73 31.2188437,44.7299934 31.3087259,44.7299776 L32.2788197,44.7291738 C34.5866121,44.7249379 34.7429189,44.7003243 34.704,44.568 C34.677,44.487 34.038,41.58 33.282,38.115 C32.1911321,33.0865472 31.9686728,32.0403685 31.9297264,31.2842055 L31.9254887,31.1825432 C31.9244124,31.1490238 31.9236509,31.1157569 31.9231399,31.0823956 L31.923,30.825 C31.923,30.024 32.085,28.881 32.76,24.75 L32.76,24.75 L33.597,19.665 L33.615,17.1 C33.633,14.355 33.732,13.383 34.164,11.655 C34.38,10.782 34.839,9.387 35.136,8.712 L35.136,8.712 L35.28,8.379 L34.974,8.19 C34.803,8.091 34.047,7.722 33.282,7.38 L33.282,7.38 L31.905,6.759 L31.851,7.191 C31.815,7.434 31.689,7.857 31.554,8.127 C31.284,8.712 31.275,8.838 31.464,9.576 C31.653,10.296 31.599,11.178 31.347,11.673 C31.239,11.88 29.124,15.327 26.649,19.332 L26.649,19.332 L22.14,26.622 L22.1396893,28.8825608 C22.1371418,30.2176616 22.1153478,30.3405652 21.951,30.546 C21.69,30.879 21.15,30.879 20.889,30.546 C20.709,30.321 20.7,30.195 20.7,28.458 L20.7,26.622 L17.577,21.564 C14.292,16.245 14.247,16.164 14.625,15.75 C14.832,15.516 15.417,15.507 15.642,15.732 C15.723,15.813 16.542,17.091 17.451,18.567 C18.36,20.043 19.116,21.24 19.125,21.222 C19.143,21.204 18.918,20.25 18.621,19.098 C18.081,16.956 17.325,13.518 17.046,11.97 L17.046,11.97 L16.902,11.106 L16.389,10.962 C15.786,10.782 15.192,10.305 14.922,9.774 C14.337,8.622 14.265,6.867 14.751,5.436 C14.841,5.166 14.904,4.95 14.904,4.95872862 Z M22.5,41.4 C22.473,41.4 22.248,41.778 21.987,42.237 C21.6,42.939 21.213,43.515 20.439,44.559 C20.3376,44.6994 20.37816,44.72488 21.9374667,44.7291787 L22.5400017,44.7299647 L22.5400017,44.7299647 L22.77,44.73 L25.218,44.73 L24.66,44.127 C24.048,43.461 22.95,42.084 22.707,41.661 C22.617,41.517 22.527,41.4 22.5,41.4 Z M6.39,43.02 L2.25,43.02 L2.25,44.73 L6.507,44.73 L6.444,44.316 C6.417,44.082 6.39,43.695 6.39,43.461 L6.39,43.461 L6.39,43.02 Z M40.59,43.02 L36.45,43.02 L36.45,43.398 C36.45,43.614 36.423,44.001 36.396,44.253 L36.396,44.253 L36.333,44.73 L40.59,44.73 L40.59,43.02 Z M6.435,9.513 L6.084,10.044 C5.319,11.187 4.482,12.555 4.221,13.068 L4.221,13.068 L4.13061993,13.2508782 C3.34867537,14.8797253 2.98930909,16.9293273 2.07,24.57 C1.422,29.916 1.377,30.951 1.566,35.829 L1.566,35.829 L1.58557594,36.3551599 C1.6609968,38.3653584 1.73916,40.25916 1.764,40.698 L1.764,40.698 L1.827,41.58 L6.777,41.58 L6.723,39.717 C6.579,35.064 6.552,31.59 6.651,30.15 C6.705,29.331 6.957,26.802 7.209,24.534 C7.676775,20.18295 7.81989187,18.5945569 7.82028169,17.0853375 L7.81882031,16.811209 L7.81882031,16.811209 L7.81445644,16.5352411 C7.81158937,16.3962 7.807725,16.255125 7.803,16.11 C7.749,14.283 7.524,12.807 7.047,11.25 C6.876,10.683 6.669,10.062 6.588,9.864 L6.588,9.864 L6.435,9.513 Z M8.649,25.182 C8.586,25.11 8.235,28.278 8.1,30.15 C8.01,31.392 8.001,34.209 8.091,36.351 L8.091,36.351 L8.145,37.728 L8.847,34.461 C9.234,32.661 9.54,31.05 9.54,30.879 C9.54,30.708 9.351,29.376 9.126,27.909 C8.892,26.442 8.676,25.218 8.649,25.182 Z M34.1811422,25.1919519 L34.173,25.2 C34.092,25.416 33.3,30.537 33.3,30.879 C33.3,31.05 33.615,32.661 33.993,34.452 L33.993,34.452 L34.695,37.728 L34.776,35.082 C34.839,33.183 34.83,31.932 34.749,30.6 C34.7108182,29.9536364 34.6503223,29.1849587 34.5822883,28.4329602 L34.5406814,27.9848745 C34.392719,26.4313636 34.2245455,25.074 34.173,25.2 Z M22.707,9.819 L22.311,10.017 C21.816,10.26 21.069,10.269 20.565,10.035 C20.367,9.945 20.187,9.855 20.16,9.846 C20.106,9.819 18.558,10.656 18.432,10.782 C18.315,10.899 18.468,11.799 19.08,14.67 C19.692,17.496 21.195,23.373 21.393,23.697 C21.618,24.057 24.642,11.349 24.453,10.854 C24.426,10.791 24.021,10.53 23.553,10.278 L23.553,10.278 L22.707,9.819 Z M30.213,18.369 C30.591,18.36 30.726,18.405 30.969,18.603 C31.419,18.981 31.5,19.296 31.5,20.565 L31.5,20.565 L31.5,21.69 L31.716,21.69 C31.977,21.69 32.31,22.068 32.31,22.365 C32.31,22.473 32.229,22.671 32.121,22.806 L32.121,22.806 L31.941,23.04 L29.034,23.04 C28.9459688,23.04 28.8606006,23.0399912 28.7778101,23.039969 L28.0999863,23.0392793 C26.193375,23.0352188 26.10675,23.009625 25.965,22.86 C25.866,22.752 25.794,22.536 25.794,22.365 C25.794,21.969 26.046,21.69 26.406,21.69 C26.658,21.69 26.82,21.528 28.017,20.124 C28.755,19.269 29.439,18.522 29.547,18.468 C29.655,18.414 29.952,18.369 30.213,18.369 Z M30.024,20.07 C30.006,20.07 29.682,20.43 29.304,20.88 L29.304,20.88 L28.62,21.69 L30.06,21.69 L30.059478,20.74797 C30.0564,20.3616 30.0402,20.07 30.024,20.07 Z M27.936,4.977 L28.098,5.445 C28.575,6.867 28.503,8.631 27.918,9.774 C27.648,10.305 27.054,10.782 26.451,10.962 L26.451,10.962 L25.947,11.106 L25.749,12.195 C25.344,14.4 24.813,16.749 23.706,21.15 C23.661,21.33 28.953,12.879 29.907,11.241 C30.186,10.773 30.204,10.413 30.015,9.774 C29.808,9.099 29.844,8.415 30.123,7.785 C30.609,6.669 30.465,6.147 29.547,5.715 C29.259,5.571 28.782,5.355 28.476,5.22 L28.476,5.22 L27.936,4.977 Z M21.087,17.91 C21.582,17.694 22.14,18.045 22.14,18.567 C22.14,19.179 21.366,19.494 20.907,19.062 C20.565,18.738 20.664,18.081 21.087,17.91 Z M20.898,14.787 C21.321,14.337 22.14,14.643 22.14,15.264 C22.14,15.705 21.87,15.975 21.42,15.975 C21.132,15.975 20.997,15.921 20.871,15.759 C20.646,15.48 20.655,15.048 20.898,14.787 Z M21.42,11.25 C21.78,11.25 22.14,11.601 22.14,11.952 C22.14,12.357 21.834,12.69 21.456,12.69 C20.79,12.69 20.457,11.934 20.925,11.475 C21.06,11.331 21.249,11.25 21.42,11.25 Z M17.127,5.22 C16.326,5.22 15.894,5.985 15.894,7.425 C15.903,8.478 16.119,9.135 16.551,9.423 C17.019,9.738 17.307,9.684 18.432,9.081 L18.432,9.081 L19.449,8.541 L19.422,7.407 L19.395,6.282 L18.45,5.751 C17.73,5.355 17.415,5.229 17.127,5.22 Z M26.415,5.517 C25.956,5.058 25.569,5.103 24.39,5.76 L24.39,5.76 L23.445,6.282 L23.391,8.532 L24.417,9.081 C25.551,9.684 25.83,9.738 26.289,9.423 C26.73,9.126 26.928,8.532 26.937,7.47 C26.946,6.426 26.811,5.913 26.415,5.517 Z M21.42,6.03 C21.321,6.03 21.159,6.111 21.06,6.21 C20.898,6.372 20.88,6.507 20.88,7.398 C20.88,7.956 20.916,8.46 20.952,8.514 C20.988,8.568 21.105,8.658 21.222,8.721 C21.429,8.829 21.744,8.73 21.888,8.514 C21.924,8.46 21.96,7.956 21.96,7.398 C21.96,6.507 21.942,6.372 21.78,6.21 C21.681,6.111 21.519,6.03 21.42,6.03 Z M25.29,1.35 L17.55,1.35 L17.55,3.762 L17.802,3.816 C17.937,3.852 18.522,4.131 19.107,4.455 L19.107,4.455 L20.169,5.031 L20.502,4.833 C20.952,4.563 21.861,4.563 22.356,4.824 L22.356,4.824 L22.707,5.013 L23.751,4.446 C24.327,4.14 24.903,3.852 25.047,3.825 L25.047,3.825 L25.29,3.762 L25.29,1.35 Z" id="Combined-Shape"></path>
                </g>
            </g>
        </g>
    </g>
</svg>