<?xml version="1.0" encoding="UTF-8"?>
<svg width="39px" height="39px" viewBox="0 0 39 39" version="1.1" xmlns="http://www.w3.org/2000/svg" xmlns:xlink="http://www.w3.org/1999/xlink">
    <title>svg/medical_services_ic</title>
    <g id="Page-1" stroke="none" stroke-width="1" fill="none" fill-rule="evenodd">
        <g id="Service-All-Category" transform="translate(-168.000000, -1220.000000)" fill="#47CDFE" fill-rule="nonzero" stroke="#3DCCFF" stroke-width="0.3">
            <g id="Group-2" transform="translate(146.000000, 1197.000000)">
                <g id="medical_services_ic" transform="translate(23.000000, 24.000000)">
                    <path d="M14.4109688,0.000923247482 C14.5076358,0.000997338816 14.6026907,0.00107701594 14.6961608,0.0011626551 L15.2381823,0.00175104449 C15.3254225,0.00186203678 15.4111325,0.0019797436 15.4953397,0.00210454119 L15.9827672,0.00294142596 C19.6631072,0.010210712 20.1443818,0.0348057644 20.2631579,0.115789474 C20.5236842,0.289473684 26.5375,6.28157895 26.7835526,6.61447368 L26.7835526,6.61447368 L26.9934211,6.89671053 L26.9936382,12.6870382 C26.9936864,12.7743579 26.9937427,12.8609363 26.993807,12.9467084 L26.9946031,13.6951378 C26.9971923,15.5432091 27.0040351,16.8618421 27.0151316,16.8618421 C27.0223684,16.8618421 27.2901316,16.7822368 27.6085526,16.6809211 C27.9269737,16.5796053 28.2381579,16.5 28.3032895,16.5 C28.3069079,16.5 28.3146083,16.5013008 28.326206,16.5038449 L28.4410855,16.5335674 C29.5255084,16.8323191 36.5411184,19.0273026 36.7703947,19.1486842 C36.7784357,19.1528655 36.7863015,19.1569646 36.7939956,19.1610316 L36.8381273,19.1854495 L36.8381273,19.1854495 L36.8783021,19.2115028 C37.0568069,19.3406422 37.111409,19.6017784 37.1170727,21.094968 L37.1173,21.6187053 C37.1160263,22.1875789 37.1105263,22.8959211 37.1032895,23.7802632 C37.0767544,27.2895285 37.0684622,27.8677723 36.9557802,28.4358812 L36.9341149,28.5397122 L36.9341149,28.5397122 L36.9223684,28.5927632 C36.6111842,30.0618421 36.0901316,31.2848684 35.2361842,32.5657895 C34.6934211,33.3907895 33.3618421,34.7440789 32.5657895,35.2868421 C31.4296053,36.0684211 30.0473684,36.6835526 28.8532895,36.9440789 C28.3322368,37.0598684 28.2598684,37.0598684 27.7315789,36.9440789 C26.1539474,36.5967105 24.4605263,35.7355263 23.1796053,34.6138158 L23.1796053,34.6138158 L22.6585526,34.1578947 L12.1796053,34.1434211 L1.70065789,34.1217105 L1.28815789,33.9190789 C0.825,33.6875 0.484868421,33.3401316 0.260526316,32.8625 C0.252083333,32.8444079 0.244109405,32.8270752 0.236574751,32.8094311 L0.222082316,32.7734102 C0.108366499,32.4706657 0.106542398,31.8943713 0.0868421053,26.3782895 C0.0846153846,25.6779858 0.083245095,25.046368 0.0827312364,24.4783236 L0.0826027717,23.6732982 C0.0826598671,23.5890067 0.0827407523,23.5064102 0.0828454272,23.4254849 L0.0837589536,22.9597989 C0.089154469,20.9527562 0.111892713,20.1295547 0.151973684,20.0243421 C0.296710526,19.6697368 0.738157895,19.525 1.12171053,19.6986842 C1.12894737,19.7019852 1.13605279,19.7051615 1.14302919,19.7082515 L1.18335821,19.7260627 C1.189828,19.728961 1.19617353,19.7318498 1.20239718,19.7347676 L1.23829554,19.7529283 C1.47961294,19.8867851 1.51434007,20.2071729 1.51908163,23.5600327 L1.51970308,24.3259552 C1.51973544,24.4164455 1.51975794,24.5087701 1.51977299,24.6029674 L1.51977123,25.5023443 C1.51975466,25.7139033 1.51973684,25.9334141 1.51973684,26.1611842 L1.51971046,27.7276356 C1.51972746,27.8222993 1.51975232,27.9150744 1.51978749,28.0059997 L1.52044903,28.7754304 C1.52521802,31.9824589 1.55831024,32.4160622 1.77728535,32.5596806 L1.81154543,32.5793589 C1.84723903,32.5974832 1.88729224,32.6118767 1.93223684,32.6309211 C2.04480994,32.673806 3.47172858,32.6968369 7.10716538,32.7000135 L8.89520475,32.7001029 C9.00315753,32.7000334 9.11257446,32.6999515 9.22346952,32.6998572 L9.90668911,32.6991424 C10.4910063,32.6984227 11.1129751,32.6973928 11.7743421,32.6960526 L11.7743421,32.6960526 L21.4210526,32.6743421 L21.1967105,32.3486842 C20.8348684,31.8131579 20.2703947,30.6480263 20.0388158,29.9460526 C19.6697368,28.8532895 19.5322368,28.0282895 19.4888158,26.6098684 L19.4888158,26.6098684 L19.4453947,25.3289474 L10.5832512,25.3281135 C6.45588856,25.3235867 5.00709064,25.3 4.88486842,25.2421053 C4.675,25.1480263 4.48684211,24.8440789 4.48684211,24.6052632 C4.48684211,24.3664474 4.675,24.0625 4.88486842,23.9684211 C5.00403509,23.9119737 6.38971345,23.8881404 10.2855854,23.8827883 L10.9049223,23.8821088 C11.0115018,23.8820192 11.1197735,23.8819413 11.2297585,23.8818749 L19.4671053,23.8815789 L19.4671053,21.2763158 L11.2297585,21.2760199 C11.1197735,21.2759534 11.0115018,21.2758755 10.9049223,21.2757859 L10.2855854,21.2751064 C6.38971345,21.2697544 5.00403509,21.2459211 4.88486842,21.1894737 C4.675,21.0953947 4.48684211,20.7914474 4.48684211,20.5526316 C4.48684211,20.3138158 4.675,20.0098684 4.88486842,19.9157895 C5.00709064,19.8578947 6.46160656,19.834308 10.5902399,19.8297812 L11.5648742,19.8290779 C11.7917391,19.8289903 12.0255409,19.8289474 12.2664474,19.8289474 L14.4639477,19.8281097 C14.5563524,19.8280236 14.6470784,19.8279299 14.7361556,19.8278283 L15.2510711,19.8271205 C18.968122,19.8210526 19.4671053,19.7973684 19.4671053,19.7203947 C19.4671053,19.6552632 19.5177632,19.5105263 19.5756579,19.3947368 L19.5756579,19.3947368 L19.5969378,19.3545855 C19.7183398,19.1375386 19.9089547,19.077924 22.9914474,18.1210526 L22.9914474,18.1210526 L25.5460526,17.3322368 L25.5460526,7.82302632 L23.1072368,7.80131579 L20.6611842,7.77960526 L20.2776316,7.5625 C19.8506579,7.33092105 19.6190789,7.08486842 19.3730263,6.62894737 C19.3621711,6.60827068 19.3520542,6.5885909 19.3426179,6.56901134 L19.316292,6.50967662 C19.2186896,6.26636681 19.2107143,5.90836466 19.1921053,3.88618421 L19.1921053,3.88618421 L19.1703947,1.44736842 L9.19668561,1.44777955 C9.08306019,1.44784895 8.97103516,1.44792734 8.86059256,1.4480149 L8.21678263,1.44865157 C3.63265824,1.45414618 2.04263416,1.47801858 1.91776316,1.53421053 C1.91052632,1.53751154 1.90342089,1.54068782 1.8964445,1.54377778 L1.85611548,1.56158898 C1.84964568,1.5644873 1.84330015,1.56737613 1.83707651,1.57029388 L1.80117815,1.58845466 C1.55986075,1.72231145 1.52513361,2.04269918 1.52039205,5.39555904 L1.5197706,6.16148155 C1.51973825,6.2519718 1.51971574,6.34429637 1.5197007,6.43849368 L1.51882768,9.80011442 C1.51459064,13.2725614 1.49368421,14.0264474 1.41842105,14.1769737 C1.16513158,14.6546053 0.426973684,14.6546053 0.173684211,14.1769737 C0.10587232,14.0444323 0.0682561277,11.8297005 0.0597172754,9.28916147 L0.0589512356,7.26557811 C0.0660771334,4.44927555 0.107212476,1.78937622 0.180921053,1.54144737 C0.383552632,0.861184211 0.853947368,0.369078947 1.55592105,0.130263158 C1.56632401,0.126644737 1.5770662,0.123132324 1.58837355,0.119722607 L1.62421698,0.109798231 C1.95347033,0.0263996325 2.8174991,0.0101838764 8.18725714,0.00292583265 L8.82706638,0.00212480645 C8.9371092,0.00199682336 9.04887483,0.00187132484 9.1623915,0.0017478968 L9.86472997,0.0010288615 C9.98536378,0.000912058981 10.1078051,0.00079649875 10.2320822,0.000681766711 Z M28.2598684,18.0197368 C28.1802632,18.0269737 26.4940789,18.5407895 24.5111842,19.1631579 L24.5111842,19.1631579 L20.9072368,20.2921053 L20.9361842,24.0552632 C20.957308,27.0231508 20.9668707,27.8522582 21.1336003,28.5757545 L21.173307,28.7356194 C21.2298816,28.9486583 21.3013514,29.1656472 21.3921053,29.4394737 C21.9710526,31.1835526 23.2157895,32.8842105 24.7138158,33.9986842 C25.6907895,34.7296053 27.5868421,35.5401316 28.2960526,35.5473684 C28.6796053,35.5473684 29.7868421,35.1855263 30.5032895,34.8309211 C32.6598684,33.7526316 34.4256579,31.7480263 35.1710526,29.5190789 C35.6197368,28.1875 35.6269737,28.1440789 35.6559211,24.0552632 L35.6559211,24.0552632 L35.6848684,20.2921053 L32.0447368,19.1559211 C30.0401316,18.5263158 28.3394737,18.0197368 28.2598684,18.0197368 Z M28.2743421,19.5466079 C28.3684211,19.5394737 29.6493421,19.9157895 31.1328947,20.3789474 C33.4631579,21.1026316 33.8611842,21.2473684 34.0348684,21.4282895 L34.0348684,21.4282895 L34.2302632,21.6381579 L34.2300703,24.6786351 C34.2263565,27.4445491 34.1658802,27.9950998 33.7815789,29.0921053 C33.2460526,30.6335526 32.1243421,32.1026316 30.8289474,32.9638158 C30.2282895,33.3618421 29.1210526,33.8901316 28.6144737,34.0131579 C28.2815789,34.1 28.2092105,34.0927632 27.6736842,33.9118421 C25.5098684,33.1881579 23.6427632,31.3789474 22.8684211,29.2585526 C22.4197368,28.0210526 22.4125,27.9486842 22.3835526,24.6703947 L22.3835526,24.6703947 L22.3546053,21.6598684 L22.5282895,21.45 C22.6875,21.2690789 23.0638158,21.1315789 25.4085526,20.3934211 C26.8993421,19.9302632 28.1875,19.5466079 28.2743421,19.5466079 Z M28.2960526,21.0664474 C28.1947368,21.0664474 27.1526316,21.3703947 25.9802632,21.7394737 L25.9802632,21.7394737 L23.8453947,22.4052632 L23.8236842,24.6776316 C23.8019737,27.1453947 23.8598684,27.7677632 24.1927632,28.6868421 C24.6342105,29.8953947 25.575,31.0822368 26.6605263,31.7986842 C27.2756579,32.2039474 28.0427632,32.5657895 28.2960526,32.5657895 C28.5493421,32.5657895 29.3164474,32.2039474 29.9315789,31.8059211 C31.0098684,31.0894737 31.8782895,30.0039474 32.3559211,28.7736842 C32.725,27.8184211 32.7901316,27.2105263 32.7684211,24.6776316 L32.7684211,24.6776316 L32.7467105,22.4052632 L30.6118421,21.7322368 C29.4394737,21.3631579 28.3973684,21.0664474 28.2960526,21.0664474 Z M10.2748168,27.9305971 C12.2748457,27.9338532 14.0917398,27.9631579 14.2203947,28.0210526 C14.4302632,28.1151316 14.6184211,28.4190789 14.6184211,28.6578947 C14.6184211,28.8967105 14.4302632,29.2006579 14.2203947,29.2947368 C13.9526316,29.4177632 5.15263158,29.4177632 4.88486842,29.2947368 C4.38552632,29.0703947 4.37105263,28.3032895 4.85592105,28.0355263 C4.97267544,27.9718421 7.14430702,27.935833 9.36752193,27.9308815 Z M30.5973684,24.4605263 C31.0460526,24.4605263 31.2993421,24.7065789 31.2993421,25.1407895 L31.2993421,25.1407895 L31.2993421,25.4736842 L29.6348684,27.1381579 C29.4563596,27.3160636 29.2945358,27.4787418 29.1470307,27.6266824 L28.8704111,27.9030589 C27.705225,29.0596344 27.5720805,29.0489299 26.7460084,28.2281514 L26.5503295,28.0325668 C26.4808337,27.9630239 26.4068348,27.8891813 26.3276316,27.8111842 C25.5315789,27.0223684 25.3217105,26.7690789 25.2855263,26.5664474 C25.2203947,26.2407895 25.3651316,25.9802632 25.6980263,25.8138158 C26.0743421,25.6328947 26.2625,25.7269737 27.0078947,26.4723684 L27.0078947,26.4723684 L27.6447368,27.0947368 L28.9690789,25.7776316 C30.2572368,24.4967105 30.3006579,24.4605263 30.5973684,24.4605263 Z M11.8032895,7.19342105 C12.0638158,7.04868421 15.7039474,7.04868421 15.9861842,7.19342105 C16.3046053,7.35986842 16.3552632,7.56973684 16.3552632,8.82894737 L16.3552632,8.82894737 L16.3552632,9.98684211 L17.5131579,9.98684211 C18.7723684,9.98684211 18.9822368,10.0375 19.1486842,10.3559211 C19.2861842,10.6236842 19.3006579,14.2203947 19.1631579,14.5098684 C19.0039474,14.8572368 18.7868421,14.9078947 17.5131579,14.9078947 L16.3552632,14.9078947 L16.3552632,16.0657895 C16.3552632,17.325 16.3046053,17.5348684 15.9861842,17.7013158 C15.6894737,17.8532895 12.1,17.8532895 11.8032895,17.7013158 C11.4848684,17.5348684 11.4342105,17.325 11.4342105,16.0657895 L11.4342105,14.9078947 L10.073647,14.9073835 C8.97868746,14.9013503 8.77668129,14.8379386 8.62631579,14.5098684 C8.56992873,14.3904605 8.53938574,13.568702 8.53468681,12.6884143 L8.53468681,12.2063225 C8.53938574,11.3260348 8.56992873,10.5042763 8.62631579,10.3848684 C8.78552632,10.0375 9.00263158,9.98684211 10.2763158,9.98684211 L10.2763158,9.98684211 L11.4342105,9.98684211 L11.4342105,8.80723684 C11.4414474,7.55526316 11.4776316,7.37434211 11.8032895,7.19342105 Z M0.441447368,16.4565789 C0.919078947,16.1888158 1.51973684,16.5434211 1.51973684,17.0861842 C1.51973684,17.4480263 1.16513158,17.8026316 0.796052632,17.8026316 C0.0796052632,17.8026316 -0.188157895,16.8039474 0.441447368,16.4565789 Z M14.9078947,8.53947368 L12.8815789,8.53947368 L12.8810643,10.0220936 C12.8738596,11.4342105 12.7657895,11.4342105 11.1447368,11.4342105 L9.98684211,11.4342105 L9.98684211,13.4605263 L11.3126959,13.4605906 C12.7733801,13.4623275 12.874117,13.5109591 12.8810643,14.8726433 L12.8815789,16.3552632 L14.9078947,16.3552632 L14.9084094,14.8726433 C14.915614,13.4605263 15.0236842,13.4605263 16.6447368,13.4605263 L17.8026316,13.4605263 L17.8026316,11.4342105 L16.4767778,11.4341462 C15.0160936,11.4324094 14.9153567,11.3837778 14.9084094,10.0220936 L14.9078947,8.53947368 Z M20.6467105,2.53289474 C20.6349507,2.53289474 20.6279682,3.03930407 20.6257633,3.73382536 L20.625,5.94868421 L20.8348684,6.15855263 L21.0447368,6.36842105 L24.4967105,6.36842105 L22.5789474,4.45065789 C22.327381,4.19909148 22.0864811,3.95860186 21.8653319,3.73817551 L21.6100146,3.4838694 C21.0391082,2.91564327 20.6515351,2.53289474 20.6467105,2.53289474 Z" id="Combined-Shape"></path>
                </g>
            </g>
        </g>
    </g>
</svg>