<?xml version="1.0" encoding="UTF-8"?>
<svg width="24px" height="24px" viewBox="0 0 24 24" version="1.1" xmlns="http://www.w3.org/2000/svg" xmlns:xlink="http://www.w3.org/1999/xlink">
    <title>svg/my_selling_overview_ic</title>
    <g id="Page-1" stroke="none" stroke-width="1" fill="none" fill-rule="evenodd">
        <g id="Profile" transform="translate(-54.000000, -409.000000)">
            <g id="my_selling_overview_ic" transform="translate(54.000000, 409.000000)">
                <polygon id="Path" points="0 0 24 0 24 24 0 24"></polygon>
                <path d="M2,3.993 C2.00380782,3.44655554 2.44555966,3.00435839 2.992,3 L21.008,3 C21.556,3 22,3.445 22,3.993 L22,20.007 C21.9961922,20.5534445 21.5544403,20.9956416 21.008,21 L2.992,21 C2.44397181,20.9994481 2,20.5550285 2,20.007 L2,3.993 Z M4,5 L4,19 L20,19 L20,5 L4,5 Z M6,7 L12,7 L12,13 L6,13 L6,7 Z M8,9 L8,11 L10,11 L10,9 L8,9 Z M6,15 L18,15 L18,17 L6,17 L6,15 Z M14,7 L18,7 L18,9 L14,9 L14,7 Z M14,11 L18,11 L18,13 L14,13 L14,11 Z" id="Shape" fill="#202328" fill-rule="nonzero"></path>
            </g>
        </g>
    </g>
</svg>