<?xml version="1.0" encoding="UTF-8"?>
<svg width="24px" height="24px" viewBox="0 0 24 24" version="1.1" xmlns="http://www.w3.org/2000/svg" xmlns:xlink="http://www.w3.org/1999/xlink">
    <title>svg/my_wallet_ic</title>
    <g id="Page-1" stroke="none" stroke-width="1" fill="none" fill-rule="evenodd">
        <g id="Profile" transform="translate(-54.000000, -351.000000)">
            <g id="my_wallet_ic" transform="translate(54.000000, 351.000000)">
                <polygon id="Path" points="0 0 24 0 24 24 0 24"></polygon>
                <path d="M18,7 L21,7 C21.5522847,7 22,7.44771525 22,8 L22,20 C22,20.5522847 21.5522847,21 21,21 L3,21 C2.44771525,21 2,20.5522847 2,20 L2,4 C2,3.44771525 2.44771525,3 3,3 L18,3 L18,7 Z M4,9 L4,19 L20,19 L20,9 L4,9 Z M4,5 L4,7 L16,7 L16,5 L4,5 Z M15,13 L18,13 L18,15 L15,15 L15,13 Z" id="Shape" fill="#202328" fill-rule="nonzero"></path>
            </g>
        </g>
    </g>
</svg>