<?xml version="1.0" encoding="UTF-8"?>
<svg width="18px" height="25px" viewBox="0 0 18 25" version="1.1" xmlns="http://www.w3.org/2000/svg" xmlns:xlink="http://www.w3.org/1999/xlink">
    <title>svg/notigfication_ic</title>
    <g id="Page-1" stroke="none" stroke-width="1" fill="none" fill-rule="evenodd">
        <g id="Home" transform="translate(-323.000000, -51.000000)" fill="#FFFDFE" fill-rule="nonzero">
            <g id="Group-6" transform="translate(323.000000, 42.000000)">
                <g id="notigfication_ic" transform="translate(0.000000, 9.000000)">
                    <path d="M6.72,24.576 L10.56,24.576 C11.090208,24.576 11.52,24.146208 11.52,23.616 C11.52,23.085792 11.090208,22.656 10.56,22.656 L6.72,22.656 C6.189792,22.656 5.76,23.085792 5.76,23.616 C5.76,24.146208 6.189792,24.576 6.72,24.576 Z" id="Path"></path>
                    <path d="M8.64,0 C8.109792,0 7.68,0.429792 7.68,0.96 L7.68,1.98888 C4.42776,2.456112 1.92,5.260512 1.92,8.64 L1.92,14.541888 C1.92,14.880192 1.7676,15.187968 1.540848,15.307776 C0.5904,15.809616 0,16.786032 0,17.856 C0,19.444032 1.291968,20.736 2.88,20.736 L14.4,20.736 C15.988032,20.736 17.28,19.444032 17.28,17.856 C17.28,16.786032 16.6896,15.809616 15.739152,15.307776 C15.512352,15.188016 15.36,14.88024 15.36,14.541888 L15.36,8.64 C15.36,5.260512 12.85224,2.456112 9.6,1.98888 L9.6,0.96 C9.6,0.429792 9.170208,0 8.64,0 Z M13.44,8.64 L13.44,14.541888 C13.44,15.604704 13.977456,16.54872 14.842656,17.005584 C15.16176,17.174064 15.36,17.499936 15.36,17.856 C15.36,18.385344 14.929344,18.816 14.4,18.816 L2.88,18.816 C2.350656,18.816 1.92,18.385344 1.92,17.856 C1.92,17.499936 2.11824,17.174064 2.437344,17.005584 C3.302544,16.54872 3.84,15.604704 3.84,14.541888 L3.84,8.64 C3.84,5.99328 5.99328,3.84 8.64,3.84 C11.28672,3.84 13.44,5.99328 13.44,8.64 Z" id="Shape"></path>
                </g>
            </g>
        </g>
    </g>
</svg>