<?xml version="1.0" encoding="UTF-8"?>
<svg width="237px" height="168px" viewBox="0 0 237 168" version="1.1" xmlns="http://www.w3.org/2000/svg" xmlns:xlink="http://www.w3.org/1999/xlink">
    <title>svg/payment)failed_illu</title>
    <g id="Page-1" stroke="none" stroke-width="1" fill="none" fill-rule="evenodd">
        <g id="Payment-Failed" transform="translate(-69.000000, -197.000000)" fill-rule="nonzero">
            <g id="payment)failed_illu" transform="translate(69.000000, 197.000000)">
                <path d="M2.75267695,83.3992514 C6.47650862,97.7907781 14.3529378,110.23142 26.8000113,116.262012 C52.6760322,128.794839 111.033212,122.331193 154.58725,114.9114 C177.116754,111.073945 196.919306,100.483428 211.304401,85.5795259 L2.75267695,83.3992514 Z" id="Path" fill="#0048F7" opacity="0.1"></path>
                <path d="M231.147686,15.6563861 L207.25042,15.6563861 C206.116334,15.6563861 205.185912,14.816005 205.185912,13.7891107 C205.185912,12.7622164 206.116334,11.9196915 207.25042,11.9196915 L211.383723,11.9196915 C210.247493,11.9196915 209.319215,11.0793103 209.319215,10.0502722 C209.319215,9.02123412 210.247493,8.18299682 211.383723,8.18299682 L208.433814,8.18299682 C207.297584,8.18299682 206.367162,7.3426157 206.367162,6.31357759 C206.367162,5.28453947 207.297584,4.44630218 208.433814,4.44630218 L220.906613,4.44630218 C218.138929,3.28220281 214.903891,2.45468466 211.175771,2.0194873 C177.163918,-1.93159029 165.021268,0.68173775 160.737897,3.36795599 C155.398886,6.75787724 149.468234,9.11006345 143.257112,10.3011003 C122.27331,14.2178766 83.0305127,18.9300136 47.4622391,8.80041969 C29.7842219,3.75598911 16.6446915,12.2691357 8.77040608,26.4998752 L235.29814,26.4998752 C235.002291,22.3644283 234.11689,18.5441243 232.491867,15.2018943 C232.107017,15.4990326 231.633889,15.6590058 231.147686,15.6563861 L231.147686,15.6563861 Z" id="Path" fill="#0048F7" opacity="0.1"></path>
                <path d="M0.726758167,53.3599138 C-0.191131473,61.7297859 0.12088638,70.1889366 1.65289247,78.4684437 L211.465188,85.4123072 C217.240746,79.4221677 222.147864,72.6517886 226.043228,65.2988997 L0.726758167,53.3599138 Z M83.7101066,71.2716084 L79.5789474,71.2716084 C80.715177,71.2716084 81.6455989,72.1141334 81.6455989,73.1410277 C81.6455989,74.167922 80.715177,75.0083031 79.5789474,75.0083031 L55.681681,75.0083031 C54.5475953,75.0083031 53.6171733,74.167922 53.6171733,73.1410277 C53.6171733,72.1141334 54.5475953,71.2716084 55.681681,71.2716084 L59.8149841,71.2716084 C58.6787545,71.2716084 57.7504764,70.4312273 57.7504764,69.404333 C57.7504764,68.3774387 58.6787545,67.5349138 59.8149841,67.5349138 L56.862931,67.5349138 C55.7267015,67.5349138 54.7962795,66.6945327 54.7962795,65.6676384 C54.7962795,64.6407441 55.7267015,63.7982191 56.862931,63.7982191 L80.7601974,63.7982191 C81.896427,63.7982191 82.8247051,64.6386003 82.8247051,65.6676384 C82.8247051,66.6966765 81.896427,67.5349138 80.7601974,67.5349138 L83.7101066,67.5349138 C84.8463362,67.5349138 85.7746143,68.3752949 85.7746143,69.404333 C85.7746143,70.4333711 84.8463362,71.2716084 83.7101066,71.2716084 Z" id="Shape" fill="#0048F7" opacity="0.1"></path>
                <path d="M235.306715,26.628505 L6.24283122,31.6665041 C3.45585299,38.1473004 1.60787205,45.4749093 0.756771779,53.068353 L231.293466,53.068353 C232.793792,48.6257326 233.907015,44.0616589 234.62069,39.4271665 C235.308859,34.9658575 235.583269,30.6503289 235.306715,26.628505 Z M47.2650068,43.1467105 L43.1338475,43.1467105 C44.2700771,43.1467105 45.2004991,43.9892355 45.2004991,45.0161298 C45.2004991,46.043024 44.2700771,46.885549 43.1338475,46.885549 L19.2365812,46.885549 C18.1024955,46.885549 17.1720735,46.043024 17.1720735,45.0161298 C17.1720735,43.9892355 18.1024955,43.1467105 19.2365812,43.1467105 L23.3698843,43.1467105 C22.2336547,43.1467105 21.3053766,42.3063294 21.3053766,41.2794351 C21.3053766,40.2525408 22.2336547,39.4100159 23.3698843,39.4100159 L20.4178312,39.4100159 C19.2816016,39.4100159 18.3511797,38.5696348 18.3511797,37.5427405 C18.3511797,36.5158462 19.2816016,35.6733212 20.4178312,35.6733212 L44.3150975,35.6733212 C45.4513271,35.6733212 46.3796053,36.5137024 46.3796053,37.5427405 C46.3796053,38.5717786 45.4513271,39.4100159 44.3150975,39.4100159 L47.2650068,39.4100159 C48.4012364,39.4100159 49.3295145,40.2525408 49.3295145,41.2794351 C49.3295145,42.3063294 48.4012364,43.1467105 47.2650068,43.1467105 Z" id="Shape" fill="#0048F7" opacity="0.1"></path>
                <ellipse id="Oval" fill="#0048F7" opacity="0.1" cx="117.070236" cy="158.6348" rx="95.8248866" ry="8.8154265"></ellipse>
                <ellipse id="Oval" fill="#575A89" cx="174.368364" cy="90.842627" rx="1.92944646" ry="1.30773593"></ellipse>
                <g id="Group" transform="translate(52.000000, 31.000000)">
                    <circle id="Oval" fill="#0048F7" cx="66.137137" cy="66.137137" r="66.137137"></circle>
                    <path d="M100.839304,99.3729242 C100.839304,109.813373 84.4261456,100.264757 66.8295939,100.264757 C49.2330422,100.264757 31.4349705,109.418909 31.4349705,98.9784596 C31.4349705,93.0250454 37.1075431,84.7455762 45.2455195,78.7321348 L45.2455195,78.7321348 C51.3768716,74.2000794 58.9060005,70.9543217 66.4694306,70.9543217 C74.2472436,70.9543217 81.8664133,74.4680581 87.9441697,79.2916742 C95.6147913,85.3737182 100.839304,93.5459959 100.839304,99.3729242 Z" id="Path" fill="#00298B"></path>
                    <path d="M87.9420259,79.2873866 C78.5884982,77.8788907 61.6715404,76.1616833 45.2455195,78.7278471 C51.3768716,74.1957917 58.9060005,70.950034 66.4694306,70.950034 C74.2450998,70.950034 81.8642695,74.4637704 87.9420259,79.2873866 Z" id="Path" fill="#F6F8FB"></path>
                    <path d="M31.4349705,19.4509642 C31.4349705,19.4509642 11.5123639,32.1874546 11.6752949,52.1100613 C11.838226,72.0326679 31.4349705,19.4509642 31.4349705,19.4509642 Z" id="Path" fill="#000000" opacity="0.05"></path>
                    <path d="M42.6236162,57.4653471 C43.882044,57.3946007 49.8054446,56.9486842 53.5678652,54.802711 C54.1721229,54.4472167 54.8547117,54.2461954 55.5551951,54.2174456 C56.7514519,54.1831443 58.1277904,54.6826565 57.2466765,57.4782101 C55.8188861,62.0509982 47.5286978,67.1961887 42.3835073,66.9110594 C37.435549,66.6366493 31.5657441,64.6428879 27.6897005,57.6325658 C27.318327,56.9581136 27.1354153,56.1961049 27.1601747,55.4265653 C27.2051951,54.0116379 27.7197142,52.238691 30.3759188,54.2153017 C33.9646892,56.8843693 40.7734914,57.3903131 42.1391107,57.4653471 C42.3004967,57.4739984 42.4622302,57.4739984 42.6236162,57.4653471 L42.6236162,57.4653471 Z" id="Path" fill="#00298B"></path>
                    <path d="M90.2166289,57.4653471 C91.4750567,57.3946007 97.3984574,56.9486842 101.160878,54.802711 C101.765136,54.4472167 102.447724,54.2461954 103.148208,54.2174456 C104.344465,54.1831443 105.720803,54.6826565 104.839689,57.4782101 C103.411899,62.0509982 95.1217105,67.1961887 89.97652,66.9110594 C85.0285617,66.6366493 79.1587568,64.6428879 75.2827132,57.6325658 C74.9113397,56.9581136 74.728428,56.1961049 74.7531874,55.4265653 C74.7982078,54.0116379 75.3127269,52.238691 77.9689315,54.2153017 C81.5577019,56.8843693 88.3665041,57.3903131 89.7321234,57.4653471 C89.8935094,57.4739984 90.0552429,57.4739984 90.2166289,57.4653471 L90.2166289,57.4653471 Z" id="Path" fill="#00298B"></path>
                </g>
                <path d="M177.588396,14.8417309 C177.588396,14.8417309 159.537353,13.7548094 161.666175,26.4034029 C161.666175,26.4034029 161.237409,28.6372731 163.26976,29.6534483 C163.26976,29.6534483 163.301917,28.7165948 165.119884,29.0338816 C165.767776,29.1422742 166.426185,29.1739354 167.081488,29.1282101 C167.966992,29.0680037 168.8086,28.7202196 169.478289,28.1377609 L169.478289,28.1377609 C169.478289,28.1377609 174.552734,26.0432396 176.527201,17.7487636 C176.527201,17.7487636 177.987148,15.9393716 177.929265,15.4763044 L174.882883,16.7754651 C174.882883,16.7754651 175.922641,18.9728902 175.097266,20.7994328 C175.097266,20.7994328 174.99865,16.8569306 174.413385,16.9405399 C174.295474,16.9598344 172.831239,17.7015994 172.831239,17.7015994 C172.831239,17.7015994 174.621336,21.5304787 173.260005,24.3110254 C173.260005,24.3110254 173.77238,19.5946007 172.26098,17.9781534 L170.117151,19.2301497 C170.117151,19.2301497 172.209528,23.1833711 170.790313,26.4098344 C170.790313,26.4098344 171.154764,21.4618761 169.666946,19.5345735 L167.722493,21.0502609 C167.722493,21.0502609 169.688385,24.9477427 168.489984,27.6232418 C168.489984,27.6232418 168.333485,21.8627722 167.302303,21.4275749 C167.302303,21.4275749 165.602246,22.9282554 165.342843,23.5435345 C165.342843,23.5435345 166.689167,26.3712455 165.855218,27.8633507 C165.855218,27.8633507 165.342843,24.0258961 164.922652,24.0044578 C164.922652,24.0044578 163.229027,26.5470395 163.051089,28.2921166 C163.051089,28.2921166 163.126123,25.698083 164.511037,23.7622051 C164.511037,23.7622051 162.873151,24.0430467 161.919147,25.1063861 C161.919147,25.1063861 162.182838,23.3077132 164.920508,23.1512137 C164.920508,23.1512137 166.320429,21.2217672 166.695599,21.1060005 C166.695599,21.1060005 163.962216,20.8766107 162.305036,21.6119442 C162.305036,21.6119442 163.76284,19.9161751 167.195111,20.6858099 L169.124558,19.1208144 C169.124558,19.1208144 165.527212,18.6277337 164.000805,19.1722663 C164.000805,19.1722663 165.756602,17.6715858 169.641221,18.7649387 L171.731454,17.5150862 C171.731454,17.5150862 168.663634,16.8547868 166.834948,17.0863203 C166.834948,17.0863203 168.764394,16.0465631 172.342446,17.1742173 L173.843126,16.5031987 C173.843126,16.5031987 171.594249,16.0615699 170.936093,15.9929673 C170.277938,15.9243648 170.243637,15.7399955 170.243637,15.7399955 C171.671797,15.5077905 173.136405,15.677783 174.473412,16.2309324 C174.473412,16.2309324 177.641992,15.0411071 177.588396,14.8417309 Z" id="Path" fill="#0048F7"></path>
                <path d="M159.074285,9.21846642 C159.074285,9.21846642 150.927734,8.72538566 151.879594,14.4408348 C151.879594,14.4408348 151.688793,15.4505785 152.604208,15.909358 C152.604208,15.909358 152.617071,15.4805921 153.440302,15.6306602 C153.732821,15.6788021 154.029901,15.6931886 154.325703,15.6735368 C154.726126,15.6449595 155.106607,15.4878043 155.410481,15.2254764 L155.410481,15.2254764 C155.410481,15.2254764 157.702235,14.2779038 158.594068,10.53049 C158.594068,10.53049 159.254367,9.71369102 159.237216,9.50359574 L157.860878,10.091005 C157.860878,10.091005 158.33252,11.083598 157.961638,11.9089723 C157.961638,11.9089723 157.916618,10.1274501 157.652926,10.1703267 C157.599331,10.1703267 156.936887,10.5133394 156.936887,10.5133394 C156.936887,10.5133394 157.747255,12.2434097 157.136264,13.4996937 C157.136264,13.4996937 157.367797,11.3687273 156.686059,10.6376815 L155.717049,11.2036525 C155.717049,11.2036525 156.662477,12.9916062 156.021472,14.4494102 C156.021472,14.4494102 156.184403,12.2133961 155.513385,11.3430014 L154.634415,12.0268829 C154.634415,12.0268829 155.52196,13.7869669 154.981715,14.9960867 C154.981715,14.9960867 154.910969,12.3934778 154.443614,12.1962455 C154.443614,12.1962455 153.676123,12.8736956 153.558212,13.1523934 C153.558212,13.1523934 154.16706,14.438691 153.789746,15.105422 C153.789746,15.105422 153.558212,13.371064 153.36098,13.3646325 C153.36098,13.3646325 152.595633,14.5115812 152.516311,15.2940789 C152.553206,14.5658732 152.780114,13.860017 153.174467,13.2467219 C152.733369,13.3301762 152.326411,13.5411083 152.003936,13.8534256 C152.003936,13.8534256 152.121847,13.0409142 153.363124,12.9701679 C153.363124,12.9701679 153.995554,12.0997731 154.164916,12.0461774 C154.164916,12.0461774 152.93007,11.9432736 152.181874,12.2755672 C152.181874,12.2755672 152.840029,11.5080762 154.392162,11.8468013 L155.249694,11.1414814 C155.249694,11.1414814 153.624671,10.9270985 152.934358,11.1629197 C152.934358,11.1629197 153.727575,10.4854696 155.483371,10.9806942 L156.426656,10.4147232 C156.426656,10.4147232 155.041742,10.1167309 154.214224,10.2239224 C154.214224,10.2239224 155.086763,9.75442377 156.70321,10.2646552 L157.378516,9.9602314 C157.378516,9.9602314 156.362341,9.76085526 156.066493,9.73084165 C155.770644,9.70082804 155.75135,9.61721869 155.75135,9.61721869 C156.394922,9.51015832 157.055592,9.58439092 157.659358,9.83160163 C157.659358,9.83160163 159.097868,9.30850726 159.074285,9.21846642 Z" id="Path" fill="#0048F7"></path>
                <ellipse id="Oval" fill="#0048F7" opacity="0.1" cx="230.266572" cy="155.526248" rx="5.77333258" ry="1"></ellipse>
                <ellipse id="Oval" fill="#0048F7" cx="217.630842" cy="165.97956" rx="8.62033802" ry="1.45780399"></ellipse>
                <path d="M221.193886,163.597765 C221.587346,163.27663 221.874348,162.843885 222.017117,162.356488 C222.122164,161.865551 221.912069,161.273854 221.44257,161.093773 C220.915188,160.892253 220.351361,161.258848 219.924739,161.627586 C219.498117,161.996325 219.00718,162.416515 218.447641,162.339338 C219.033004,161.809298 219.296777,161.010651 219.142241,160.236241 C219.117847,160.078511 219.051169,159.930339 218.949297,159.807475 C218.655592,159.494476 218.126066,159.627393 217.774478,159.873934 C216.659687,160.658575 216.348832,162.172119 216.3424,163.535594 C216.230921,163.044657 216.32525,162.532282 216.323106,162.034914 C216.320962,161.537545 216.181613,160.962999 215.757135,160.699308 C215.493711,160.558621 215.198117,160.489156 214.899603,160.497788 C214.397947,160.478494 213.840551,160.527802 213.497539,160.894397 C213.068773,161.351032 213.182396,162.114235 213.553278,162.60946 C213.924161,163.104685 214.485844,163.426259 215.002507,163.771416 C215.418309,164.018615 215.772985,164.356436 216.04012,164.759721 C216.071357,164.816488 216.097196,164.876062 216.117298,164.937659 L219.258008,164.937659 C219.960776,164.580379 220.611975,164.12966 221.193886,163.597765 L221.193886,163.597765 Z" id="Path" fill="#47CDFE"></path>
                <path d="M12.9358666,145.621756 C12.9358666,145.621756 14.1128289,147.161025 12.3913339,149.480649 C10.6698389,151.800272 9.25062387,153.768308 9.81873866,155.217536 C9.81873866,155.217536 12.4149161,150.899864 14.5351633,150.837693 C16.6554106,150.775522 15.2597777,148.217933 12.9358666,145.621756 Z" id="Path" fill="#47CDFE"></path>
                <path d="M12.9358666,145.621756 C13.0380702,145.770521 13.1188944,145.932891 13.1759755,146.104118 C15.2383394,148.526645 16.33598,150.788385 14.3550817,150.844124 C12.5071007,150.89772 10.2818058,154.199217 9.76085526,155.033167 C9.77906635,155.09781 9.80053201,155.161491 9.82517015,155.223968 C9.82517015,155.223968 12.4213475,150.906295 14.5415948,150.844124 C16.6618421,150.781953 15.2597777,148.217933 12.9358666,145.621756 Z" id="Path" fill="#000000" opacity="0.1"></path>
                <path d="M6.71447368,145.621756 C6.71447368,145.621756 5.53751134,147.161025 7.25686252,149.480649 C8.9762137,151.800272 10.3975726,153.768308 9.8294578,155.217536 C9.8294578,155.217536 7.23113657,150.899864 5.11303312,150.837693 C2.99492967,150.775522 4.38841878,148.217933 6.71447368,145.621756 Z" id="Path" fill="#47CDFE"></path>
                <path d="M6.71447368,145.621756 C6.61132747,145.769965 6.5304335,145.932475 6.47436479,146.104118 C4.41200091,148.526645 3.31221642,150.788385 5.29525862,150.844124 C7.14109574,150.89772 9.36853448,154.199217 9.8873412,155.033167 C9.8698544,155.097777 9.84910409,155.161459 9.82517015,155.223968 C9.82517015,155.223968 7.22684891,150.906295 5.10874546,150.844124 C2.99064201,150.781953 4.38841878,148.217933 6.71447368,145.621756 Z" id="Path" fill="#000000" opacity="0.1"></path>
                <path d="M4.90079401,155.022448 C4.90079401,155.022448 8.19371597,154.921688 9.18845281,154.214224 C10.1831897,153.50676 14.2543217,152.664235 14.5008621,153.785458 C14.7474025,154.906681 19.4488203,159.42373 15.7314201,159.453743 C12.01402,159.483757 7.09393149,158.872765 6.1034823,158.270349 C5.11303312,157.667933 4.90079401,155.022448 4.90079401,155.022448 Z" id="Path" fill="#A8A8A8"></path>
                <path d="M15.7935912,159.069998 C12.076191,159.100011 7.15610254,158.48902 6.16565336,157.886604 C5.41102541,157.427824 5.11088929,155.77922 5.01012931,155.01816 L4.90079401,155.01816 C4.90079401,155.01816 5.11517695,157.674365 6.09919465,158.276781 C7.08321234,158.879197 12.0097323,159.490188 15.7271325,159.460175 C16.7990472,159.460175 17.1699297,159.067854 17.1506352,158.504027 C17.0005672,158.849183 16.5932396,159.063566 15.7935912,159.069998 Z" id="Path" fill="#000000" opacity="0.2"></path>
            </g>
        </g>
    </g>
</svg>