<?xml version="1.0" encoding="UTF-8"?>
<svg width="187px" height="170px" viewBox="0 0 187 170" version="1.1" xmlns="http://www.w3.org/2000/svg" xmlns:xlink="http://www.w3.org/1999/xlink">
    <title>svg/payment_done_illu</title>
    <g id="Page-1" stroke="none" stroke-width="1" fill="none" fill-rule="evenodd">
        <g id="Successfully-Done" transform="translate(-95.000000, -208.000000)" fill-rule="nonzero">
            <g id="payment_done_illu" transform="translate(95.000000, 208.000000)">
                <path d="M72.8572794,59.5074875 L72.1930618,59.5074875 L72.1930618,41.3114066 C72.1930648,38.5183065 71.0835128,35.8396033 69.1084946,33.8645814 C67.1334765,31.8895595 64.4547754,30.78 61.6616753,30.78 L23.1107946,30.78 C17.2944664,30.78 12.5793791,35.4950449 12.5793791,41.3113731 L12.5793791,141.136522 C12.5793791,143.929622 13.6889278,146.608324 15.6639455,148.583346 C17.6389632,150.558368 20.3176636,151.667929 23.1107634,151.667929 L61.661624,151.667929 C67.4779535,151.667929 72.1930334,146.952892 72.1930507,141.136562 L72.1930507,72.4597652 L72.8572794,72.4597652 L72.8572794,59.5074875 Z" id="Path" fill="#3F3D56"></path>
                <path d="M62.086581,33.5199068 L57.0544176,33.5199068 C57.5243557,34.6720506 57.3899319,35.9825324 56.6958768,37.0152786 C56.0018218,38.0480247 54.8392111,38.6675156 53.5949133,38.6676105 L31.5096152,38.6676105 C30.2653161,38.6675189 29.1027031,38.0480288 28.4086473,37.0152815 C27.7145915,35.9825343 27.5801692,34.6720505 28.0501109,33.5199068 L23.3500574,33.5199068 C21.2642015,33.5199068 19.2637762,34.3485065 17.7888523,35.8234283 C16.3139285,37.29835 15.485323,39.2987742 15.485323,41.38463 L15.485323,141.063294 C15.485323,143.14915 16.3139229,145.149576 17.7888451,146.624501 C19.2637673,148.099425 21.264192,148.928031 23.3500485,148.928031 L62.086581,148.928031 C64.1724375,148.928031 66.1728632,148.09943 67.647787,146.624507 C69.1227109,145.149584 69.9513155,143.149159 69.9513155,141.063303 L69.9513155,141.063303 L69.9513155,41.38463 C69.9513155,39.2987738 69.1227115,37.298349 67.6477874,35.823427 C66.1728633,34.3485049 64.1724373,33.5199068 62.086581,33.5199068 Z" id="Path" fill="#FFFFFF"></path>
                <path d="M85.2135863,151.685141 L0.223072215,151.685141 C0.0998728327,151.685141 0,151.585268 0,151.462069 C0,151.338869 0.0998728327,151.238996 0.223072215,151.238996 L85.2135863,151.238996 C85.3367857,151.238996 85.4366585,151.338869 85.4366585,151.462069 C85.4366585,151.585268 85.3367857,151.685141 85.2135863,151.685141 Z" id="Path" fill="#CBCBCB"></path>
                <circle id="baf12095-0797-4180-a98d-6422936d747a" fill="#0048F7" cx="42.7183293" cy="89.0539579" r="18.8376009"></circle>
                <path d="M40.851623,96.2399488 C40.4278333,96.2406599 40.0153019,96.1035581 39.6762444,95.8493176 L39.6552176,95.8335486 L35.2281264,92.4469666 C34.6703168,92.0193249 34.3830236,91.3265798 34.4744673,90.6296816 C34.5659111,89.9327834 35.0221994,89.3376077 35.6714528,89.0683512 C36.3207062,88.7990948 37.0642876,88.8966641 37.6220973,89.3243058 L40.4896081,91.5232469 L47.2656943,82.6831047 C47.5830226,82.2691847 48.0517839,81.9982771 48.5688548,81.929979 C49.0859257,81.8616809 49.60895,82.001587 50.0228669,82.3189192 L50.0234379,82.3193475 L49.9813844,82.3777411 L50.0245778,82.3193475 C50.8855135,82.9810239 51.0482532,84.2147913 50.388335,85.0770755 L42.4181878,95.4703893 C42.0444458,95.955779 41.4659577,96.2394105 40.8533541,96.2376238 L40.851623,96.2399488 Z" id="b582f34e-fd02-4670-b1d8-d23f069ed737-189" fill="#FFFFFF"></path>
                <path d="M154.866735,153.53664 C155.095913,153.166115 155.365708,152.822311 155.671113,152.511603 C155.797039,152.380986 155.92989,152.257912 156.066843,152.13818 C157.762752,150.628697 160.141542,150.152533 162.287811,150.892925 C164.434079,151.633317 166.01333,153.474876 166.41784,155.708935 C167.337857,152.306586 164.942935,148.955283 162.535085,146.381043 C160.125961,143.807682 157.372467,140.984674 157.386306,137.458525 C157.393045,135.496455 158.352851,133.746021 159.801989,132.448285 C159.846695,132.408962 159.891403,132.369695 159.937021,132.331792 C161.688559,130.830438 163.942014,130.045112 166.247288,130.132675 C170.530051,130.362076 174.269569,133.240497 176.86654,136.654796 C181.046679,142.148444 182.878426,149.859913 179.952019,156.113628 C177.377989,161.613797 171.888218,164.87992 166.28544,167.505663 C165.503097,167.872394 164.722303,168.228072 163.943057,168.572698 C163.937957,168.574036 163.932313,168.577728 163.927123,168.579107 C163.889609,168.595565 163.852094,168.612068 163.816947,168.629039 C163.656143,168.699976 163.49525,168.770982 163.335814,168.841036 L163.409651,168.889329 L163.640018,169.038477 C163.560158,168.990104 163.481128,168.94319 163.401272,168.894819 C163.377508,168.880169 163.352377,168.866397 163.328702,168.851692 C160.576939,167.200585 157.786841,165.453827 155.885802,162.876103 C153.914212,160.1997 153.121489,156.36607 154.866735,153.53664 Z" id="Path" fill="#47CDFE"></path>
                <path d="M173.226207,147.321043 C173.83559,148.707216 174.239567,150.174848 174.425387,151.67761 C174.571578,153.017611 174.516607,154.371939 174.262297,155.695685 C173.715861,158.415938 172.524154,160.96519 170.787416,163.129009 C169.477145,164.771741 167.964502,166.242282 166.285447,167.505672 C165.503135,167.872403 164.722341,168.22808 163.943063,168.572705 C163.937944,168.574043 163.9323,168.57773 163.927111,168.579109 C163.889635,168.595572 163.852092,168.61207 163.816914,168.629041 C163.65611,168.699978 163.495244,168.770985 163.335823,168.841036 L163.40966,168.889331 L163.640022,169.038477 C163.560151,168.990108 163.481134,168.943192 163.401263,168.894819 C163.377533,168.880165 163.352411,168.866401 163.328754,168.851694 C164.557515,164.553362 163.625563,159.926062 160.828699,156.438504 C159.442947,154.741445 157.675734,153.395914 155.671153,152.511623 C155.797055,152.381001 155.929863,152.257934 156.066812,152.1382 C156.838955,152.49276 157.578238,152.914895 158.276025,153.399674 C160.771669,155.124549 162.645631,157.607121 163.62053,160.479926 C164.490891,163.086185 164.599605,165.886668 163.933906,168.552557 C164.072017,168.462237 164.210652,168.369562 164.345474,168.277366 C166.90902,166.548601 169.271612,164.472405 171.051235,161.926324 C172.586122,159.77455 173.568338,157.278358 173.911371,154.657607 C174.252448,151.794754 173.536121,148.979527 172.257998,146.425064 C170.84658,143.692216 169.068114,141.165191 166.972016,138.914205 C164.866678,136.601083 162.486197,134.554278 159.883646,132.819426 C159.761878,132.737246 159.725952,132.57401 159.801969,132.448301 C159.829883,132.393199 159.878414,132.351338 159.937017,132.331815 C159.997313,132.316413 160.061342,132.32936 160.110917,132.36698 C160.43221,132.581408 160.750748,132.797639 161.065421,133.020423 C163.686317,134.876206 166.066519,137.050396 168.151345,139.493044 C170.165926,141.847574 171.99931,144.463466 173.226207,147.321043 Z" id="Path" fill="#FFFFFF"></path>
                <circle id="ae2e9f9a-ed63-4994-961d-af4fbb6f5199" fill="#C0D0EC" cx="109.02222" cy="27.4261871" r="4.0005905"></circle>
                <circle id="b777be60-18da-4893-88a8-55a275d98bc2" fill="#C0D0EC" cx="169.297324" cy="92.2450243" r="2.43908499"></circle>
                <circle id="a703acd2-aa23-4bff-9a86-75b7d9a928c1" fill="#C0D0EC" cx="87.3842148" cy="105.417191" r="2.43908499"></circle>
                <path d="M96.8613734,169.307846 L181.851887,169.307846 C181.975087,169.307846 182.07496,169.207973 182.07496,169.084774 C182.07496,168.961574 181.975087,168.861701 181.851887,168.861701 L96.8613734,168.861701 C96.738174,168.861701 96.6383012,168.961574 96.6383012,169.084774 C96.6383012,169.207973 96.738174,169.307846 96.8613734,169.307846 Z" id="Path" fill="#CBCBCB"></path>
                <g id="Group" transform="translate(90.720000, 0.000000)">
                    <path d="M95.6792994,5.21480224 C96.0026674,2.91887628 94.5577074,0.74394364 92.315891,0.152249232 C90.0740747,-0.439445176 87.7440071,0.739124547 86.8922332,2.89558555 L77.2367544,13.9648889 L80.0698157,21.8775932 L89.7801939,8.94354935 C91.0629046,9.35444481 92.4617354,9.17606395 93.6002765,8.4564071 C94.7388175,7.73675024 95.5001103,6.54974531 95.6792994,5.21480224 L95.6792994,5.21480224 Z" id="Path" fill="#FFB7B7"></path>
                    <polygon id="Path" fill="#0048F7" points="55.6558333 48.2854964 87.706983 14.079469 83.3837989 7.20634636 43.1834642 41.2046935"></polygon>
                    <circle id="Oval" fill="#2F2E41" cx="48.5024704" cy="16.2593307" r="11.2428397"></circle>
                    <path d="M49.4062073,9.90812878 C51.8254698,7.45482965 54.7530968,5.56166082 57.982973,4.36190793 C60.0562401,3.59383148 62.3128748,3.11928059 64.4803787,3.5554809 C66.6479576,3.99165936 68.6977397,5.49114187 69.3024389,7.61781556 C69.7968927,9.35682052 69.2863523,11.2291968 68.5189441,12.8662042 C67.7516203,14.5032116 66.727101,16.0212198 66.1065399,17.7193196 C64.8201077,21.2395528 65.4010534,25.1715558 67.650514,28.1693678 C69.8999746,31.1671798 73.5128123,32.8241497 77.2523195,32.5730814 C75.1226321,32.8586402 73.1594668,33.8594497 71.0778145,34.3921822 C68.9961621,34.9248898 66.53923,34.8887691 64.9922902,33.3974283 C63.3555201,31.8195488 63.3227285,29.2540827 63.4018875,26.9819891 C63.5195355,23.6044715 63.6371814,20.2269403 63.7548252,16.8493955 C63.8148307,15.1269175 63.8660668,13.3492372 63.2448219,11.7415455 C62.623655,10.1338569 61.1473858,8.72605974 59.4239366,8.74070041 C58.1176997,8.75177461 56.9615923,9.54308627 55.9141313,10.3234424 C54.8665204,11.1038141 53.7578358,11.9363964 52.4567082,12.05246 C51.1556619,12.1685423 49.6700924,11.2056774 49.7674585,9.90306325 L49.4062073,9.90812878 Z" id="Path" fill="#2F2E41"></path>
                    <path d="M5.80137835,91.7496462 C3.56739125,92.3702465 1.22229563,91.2218701 0.342739961,89.0765904 C-0.536815704,86.9313107 0.327183219,84.4672191 2.35385526,83.3409671 L12.0665819,72.3218662 L20.2816343,74.0966952 L8.72732737,85.4138844 C9.30230847,86.631903 9.30824186,88.0420453 8.74353094,89.2648593 C8.17882001,90.4876734 7.10147531,91.3975442 5.80139709,91.7496368 L5.80137835,91.7496462 Z" id="Path" fill="#FFB7B7"></path>
                    <polygon id="Path" fill="#0048F7" points="37.7562956 52.3004393 13.5482758 82.6873365 6.16922533 79.2994942 34.6229787 35.0011444"></polygon>
                    <polygon id="Path" fill="#FFB7B7" points="18.4404725 144.056377 12.671022 143.965809 13.364955 163.630161 18.4395356 163.630161"></polygon>
                    <path d="M19.7340112,161.973385 L9.74002303,161.972985 L9.73961392,161.972985 C6.22225555,161.973181 3.37090882,164.824489 3.37066393,168.341847 L3.37066393,168.548816 L19.7337051,168.549425 L19.7340112,161.973385 Z" id="Path" fill="#2F2E41"></path>
                    <polygon id="Path" fill="#FFB7B7" points="56.6402064 138.840948 50.3376578 142.887121 62.9446287 158.054024 67.215034 155.312333"></polygon>
                    <path d="M67.409126,153.218701 L58.9991446,158.617978 L58.9988042,158.618187 C56.0391093,160.518724 55.1802707,164.458596 57.080451,167.41852 L57.1922548,167.592684 L70.9617696,158.75247 L67.409126,153.218701 Z" id="Path" fill="#2F2E41"></path>
                    <path d="M58.8855232,78.7945314 C58.8855232,78.7945314 44.8820761,32.2843403 40.3817517,31.655825 C35.8814272,31.0273096 28.6304608,43.5898026 28.6304608,43.5898026 C19.2292608,55.5847289 9.53512228,94.4389396 9.53512228,94.4389396 C9.53512228,94.4389396 25.6956393,95.4501987 37.5089906,101.735368 C49.322342,108.020537 63.2637255,101.417195 63.2637255,101.417195 L58.8855232,78.7945314 Z" id="Path" fill="#0048F7"></path>
                    <path d="M58.8855232,78.7945314 C58.8855232,78.7945314 44.8820761,32.2843403 40.3817517,31.655825 C35.8814272,31.0273096 30.4721067,43.717287 30.4721067,43.717287 C25.7875902,63.0799553 9.53512852,94.4389396 9.53512852,94.4389396 C9.53512852,94.4389396 25.6956456,95.4501987 37.5089969,101.735368 C49.3223482,108.020537 63.2637317,101.417195 63.2637317,101.417195 L58.8855232,78.7945314 Z" id="Path" fill="#000000" opacity="0.1"></path>
                    <polygon id="Path" fill="#2F2E41" points="47.3967184 64.8789908 47.3967184 88.2500437 50.1471542 122.104732 63.8884026 147.713423 57.3300795 152.397939 38.5920134 128.038453 31.180796 103.851045 19.5416462 157.394757 10.7972154 156.770155 16.8702226 82.5327475 28.3944455 61.6366808"></polygon>
                    <path d="M33.2777448,42.2739125 C28.9055294,46.6461279 32.9654437,51.3306445 32.9654437,51.3306445 L27.9686261,62.5734841 L47.6435955,67.8826029 L54.5192915,37.1589639 L49.834775,32.1621463 C40.4657419,31.8498452 40.4606702,31.6556751 40.4606702,31.6556751 C38.8191469,33.2620988 33.2777448,42.2739125 33.2777448,42.2739125 Z" id="Path" fill="#0048F7"></path>
                    <path d="M55.3116337,33.9760254 C53.5066729,32.6436851 51.2435659,32.0891308 49.027115,32.4360597 C46.8106641,32.7829886 44.8252483,34.0025409 43.5137288,35.8226868 C38.5675384,42.7096288 33.9940355,53.8303243 40.2955628,67.6998161 C50.4137843,89.9698734 59.2189047,101.370388 62.7984749,101.36922 C62.9547568,101.370485 63.1101892,101.346064 63.2585381,101.296888 C65.4618786,100.549379 68.6475622,96.8209882 69.2242824,93.535412 C69.4307541,92.3594047 69.3816541,90.7213479 67.9752311,89.5965768 C63.9354445,86.3654502 56.6831353,76.3045672 54.4207824,63.0622666 C53.170513,55.7451486 55.5951157,49.0799217 57.8492239,44.7770995 C59.8174839,41.0965527 58.7826874,36.5289714 55.420352,34.0560838 L55.420352,34.0560838 L55.3116337,33.9760254 Z" id="Path" fill="#0048F7"></path>
                    <circle id="Oval" fill="#FFB7B7" transform="translate(45.111013, 19.135853) rotate(-28.663200) translate(-45.111013, -19.135853) " cx="45.1110128" cy="19.1358531" r="8.27601667"></circle>
                    <path d="M33.472043,18.5101128 L45.4224195,18.5101128 L45.5450039,16.7943962 L46.1577106,18.5101128 L47.9978168,18.5101128 L48.240659,15.1096129 L49.4550574,18.5101128 L53.0155648,18.5101128 L53.0155648,18.3416358 C53.0100367,13.4124061 49.0155063,9.41784355 44.0862767,9.41227583 L42.4014123,9.41227583 C37.4721659,9.41783487 33.4776072,13.4123894 33.472043,18.3416358 L33.472043,18.5101128 Z" id="Path" fill="#2F2E41"></path>
                    <path d="M51.2102084,24.6771945 L56.3099979,23.0223984 L56.3099979,10.6379109 L46.6772703,10.6379109 L46.9157465,10.8760186 C50.2338302,14.1898175 53.9241206,25.9467516 51.2102084,24.6771945 Z" id="Path" fill="#2F2E41"></path>
                </g>
            </g>
        </g>
    </g>
</svg>