<?xml version="1.0" encoding="UTF-8"?>
<svg width="24px" height="24px" viewBox="0 0 24 24" version="1.1" xmlns="http://www.w3.org/2000/svg" xmlns:xlink="http://www.w3.org/1999/xlink">
    <title>svg/privacy_policy_ic</title>
    <g id="Page-1" stroke="none" stroke-width="1" fill="none" fill-rule="evenodd">
        <g id="Profile" transform="translate(-57.000000, -832.000000)">
            <g id="privacy_policy_ic" transform="translate(57.000000, 832.000000)">
                <polygon id="Path" points="0 0 24 0 24 24 0 24"></polygon>
                <path d="M20,22 L4,22 C3.44771525,22 3,21.5522847 3,21 L3,3 C3,2.44771525 3.44771525,2 4,2 L20,2 C20.5522847,2 21,2.44771525 21,3 L21,21 C21,21.5522847 20.5522847,22 20,22 Z M19,20 L19,4 L5,4 L5,20 L19,20 Z M8,7 L16,7 L16,9 L8,9 L8,7 Z M8,11 L16,11 L16,13 L8,13 L8,11 Z M8,15 L13,15 L13,17 L8,17 L8,15 Z" id="Shape" fill="#202328" fill-rule="nonzero"></path>
            </g>
        </g>
    </g>
</svg>