<?xml version="1.0" encoding="UTF-8"?>
<svg width="24px" height="24px" viewBox="0 0 24 24" version="1.1" xmlns="http://www.w3.org/2000/svg" xmlns:xlink="http://www.w3.org/1999/xlink">
    <title>svg/product-dlete_ic</title>
    <g id="Page-1" stroke="none" stroke-width="1" fill="none" fill-rule="evenodd">
        <g id="My-Sell-Product-and-Services" transform="translate(-248.000000, -390.000000)">
            <g id="Group-5" transform="translate(234.000000, 344.000000)">
                <g id="product-dlete_ic" transform="translate(14.000000, 46.000000)">
                    <polygon id="Path" points="0 0 24 0 24 24 0 24"></polygon>
                    <path d="M20,7 L20,21 C20,21.5522847 19.5522847,22 19,22 L5,22 C4.44771525,22 4,21.5522847 4,21 L4,7 L2,7 L2,5 L22,5 L22,7 L20,7 Z M6,7 L6,20 L18,20 L18,7 L6,7 Z M7,2 L17,2 L17,4 L7,4 L7,2 Z M11,10 L13,10 L13,17 L11,17 L11,10 Z" id="Shape" fill="#000000" fill-rule="nonzero"></path>
                </g>
            </g>
        </g>
    </g>
</svg>