<?xml version="1.0" encoding="UTF-8"?>
<svg width="24px" height="24px" viewBox="0 0 24 24" version="1.1" xmlns="http://www.w3.org/2000/svg" xmlns:xlink="http://www.w3.org/1999/xlink">
    <title>svg/profile_location_ic</title>
    <g id="Page-1" stroke="none" stroke-width="1" fill="none" fill-rule="evenodd">
        <g id="Seller-Profile" transform="translate(-100.000000, -275.000000)">
            <g id="Group" transform="translate(100.000000, 274.000000)">
                <g id="profile_location_ic" transform="translate(0.000000, 1.000000)">
                    <polygon id="Path" points="0 0 24 0 24 24 0 24"></polygon>
                    <path d="M12,23.728 L5.636,17.364 C2.12131304,13.84927 2.12133631,8.15080522 5.63605196,4.63610392 C9.15076761,1.12140261 14.8492324,1.12140261 18.363948,4.63610392 C21.8786637,8.15080522 21.878687,13.84927 18.364,17.364 L12,23.728 Z M16.95,15.95 C19.6834648,13.2162562 19.6833141,8.78423123 16.9496633,6.05067343 C14.2160125,3.31711563 9.7839875,3.31711563 7.05033671,6.05067343 C4.31668593,8.78423123 4.31653518,13.2162562 7.05,15.95 L12,20.9 L16.95,15.95 L16.95,15.95 Z M12,13 C10.8954305,13 10,12.1045695 10,11 C10,9.8954305 10.8954305,9 12,9 C13.1045695,9 14,9.8954305 14,11 C14,12.1045695 13.1045695,13 12,13 Z" id="Shape" fill="#272A2F" fill-rule="nonzero"></path>
                </g>
            </g>
        </g>
    </g>
</svg>