<?xml version="1.0" encoding="UTF-8"?>
<svg width="42px" height="43px" viewBox="0 0 42 43" version="1.1" xmlns="http://www.w3.org/2000/svg" xmlns:xlink="http://www.w3.org/1999/xlink">
    <title>svg/Public_relations_services_ic</title>
    <g id="Page-1" stroke="none" stroke-width="1" fill="none" fill-rule="evenodd">
        <g id="Service-All-Category" transform="translate(-292.000000, -1051.000000)" fill="#47CDFE" fill-rule="nonzero">
            <g id="Group-2" transform="translate(263.000000, 1030.000000)">
                <g id="Public_relations_services_ic" transform="translate(29.000000, 21.000000)">
                    <path d="M18.1116,42.2308707 C18.0954,42.1498707 17.9739,41.6071707 17.8524,41.0239707 L17.6337,39.9628707 L17.0586,39.7765707 C16.7427,39.6793707 16.1838,39.4525707 15.8274,39.2743707 L15.1632,38.9584707 L14.1588,39.6064707 C13.5999,39.9709707 13.1139,40.2625707 13.0734,40.2625707 C13.0329,40.2625707 12.2067,39.4687707 11.2347,38.4967707 L9.477,36.7309707 L9.801,35.9695707 C9.9792,35.5564707 10.125,35.1838707 10.125,35.1514707 C10.125,35.1190707 9.9144,35.0704707 9.6633,35.0380707 C8.991,34.9732707 8.0028,34.6411707 7.5006,34.3171707 C6.5367,33.7015707 5.7591,32.6323707 5.4756,31.5469707 C5.2974,30.8584707 5.2974,28.5094707 5.4675,27.8290707 C5.6781,27.0109707 6.0669,26.3386707 6.7068,25.6906707 C7.0308,25.3585707 7.2819,25.0345707 7.2738,24.9616707 C7.2576,24.8806707 6.9741,24.7753707 6.399,24.6295707 L5.5485,24.4189707 L3.9042,25.3747707 L2.2518,26.3305707 L1.1259,26.3305707 L-3.55271368e-15,26.3305707 L-3.55271368e-15,19.3726707 L-3.55271368e-15,12.4147707 L3.3048,11.3131707 C6.4557,10.2601707 6.6339,10.2115707 7.2576,10.2115707 L7.9218,10.2115707 L7.9704,10.4869707 L8.0271,10.7704707 L9.0315,10.1629707 C9.8901,9.64457067 10.044,9.52307067 10.044,9.35297067 C10.044,8.61587067 10.8783,7.75727067 11.7612,7.57907067 C11.9394,7.54667067 11.9961,7.47377067 12.069,7.19027067 C12.3039,6.31547067 13.0815,5.59457067 13.8024,5.59457067 C13.9563,5.59457067 13.9968,5.52977067 14.0778,5.18957067 C14.1264,4.97087067 14.2641,4.63877067 14.3856,4.46867067 C14.7015,3.99077067 15.3738,3.56957067 15.8193,3.56957067 C15.9651,3.56957067 16.0137,3.49667067 16.0947,3.17267067 C16.2081,2.70287067 16.5159,2.20877067 16.8561,1.95767067 C17.4231,1.53647067 18.2736,1.43117067 18.954,1.69847067 L19.3185,1.83617067 L19.7316,1.48787067 C19.9584,1.30157067 20.2743,1.09097067 20.4363,1.01807067 C20.8494,0.847970666 21.8214,0.864170666 22.2345,1.05047067 C22.8501,1.32587067 23.4009,2.07107067 23.409,2.61377067 C23.409,2.79197067 23.4576,2.84867067 23.6358,2.88917067 C24.381,3.05117067 24.7779,3.30227067 25.1262,3.82067067 C25.2477,3.99887067 25.3692,4.30667067 25.3935,4.50107067 C25.4502,4.82507067 25.4745,4.85747067 25.7418,4.90607067 C26.5923,5.06807067 27.297,5.78087067 27.4347,6.61517067 C27.4671,6.82577067 27.5157,6.89057067 27.6534,6.89057067 C27.9612,6.89057067 28.6254,7.26317067 28.9332,7.60337067 C29.2248,7.92737067 29.484,8.56727067 29.484,8.97227067 C29.484,9.13427067 30.1239,9.48257067 35.478,12.1555707 L41.472,15.1525707 L41.472,20.0935707 L41.472,25.0345707 L40.7349,25.0345707 L39.9897,25.0345707 L38.8881,24.4594707 C37.8189,23.9005707 37.7784,23.8924707 37.503,23.9896707 C37.3491,24.0463707 36.5472,24.2569707 35.721,24.4675707 C34.7004,24.7186707 34.2144,24.8806707 34.1982,24.9616707 C34.1901,25.0264707 34.4412,25.3504707 34.7652,25.6825707 C35.4132,26.3548707 35.802,27.0352707 36.0126,27.8614707 C36.1179,28.2745707 36.1341,28.6795707 36.1098,29.8459707 C36.0612,31.5712707 35.9559,31.9681707 35.2836,32.9644707 C34.5222,34.0822707 33.4449,34.7626707 32.1003,34.9813707 C31.6872,35.0461707 31.347,35.1271707 31.347,35.1595707 C31.347,35.1838707 31.4928,35.5564707 31.671,35.9695707 L31.995,36.7309707 L30.2373,38.4967707 C29.2653,39.4687707 28.4391,40.2625707 28.3986,40.2625707 C28.3581,40.2625707 27.8721,39.9709707 27.3132,39.6064707 L26.3088,38.9584707 L25.6446,39.2743707 C25.2882,39.4525707 24.7293,39.6793707 24.4134,39.7765707 L23.8383,39.9628707 L23.6196,41.0239707 C23.4981,41.6071707 23.3766,42.1498707 23.3604,42.2308707 C23.3199,42.3604707 23.1255,42.3685707 20.736,42.3685707 C18.3465,42.3685707 18.1521,42.3604707 18.1116,42.2308707 Z M22.3965,39.8980707 L22.6233,38.8045707 L22.9554,38.7154707 C24.0408,38.4400707 25.0452,38.0350707 25.8471,37.5409707 L26.3331,37.2493707 L27.2727,37.8730707 L28.2204,38.4886707 L29.2572,37.4518707 L30.294,36.4150707 L29.9376,35.5645707 C29.5974,34.7545707 29.5569,34.6978707 29.1681,34.4629707 C28.9332,34.3252707 28.6011,34.0903707 28.4148,33.9445707 C28.1232,33.7096707 28.0746,33.6934707 28.0098,33.8149707 C27.8073,34.1794707 26.9082,35.2000707 26.4627,35.5726707 C24.9804,36.8200707 23.3523,37.5085707 21.4812,37.6705707 C20.0394,37.8001707 18.5166,37.5490707 17.2287,36.9739707 C15.8517,36.3583707 14.418,35.2000707 13.6566,34.0822707 L13.3407,33.6205707 L12.9924,33.9445707 C12.798,34.1227707 12.474,34.3495707 12.2796,34.4467707 C11.9313,34.6087707 11.8989,34.6573707 11.5425,35.5159707 L11.1699,36.4069707 L12.2067,37.4437707 L13.2435,38.4805707 L14.1912,37.8649707 L15.147,37.2493707 L15.6249,37.5490707 C16.4268,38.0350707 17.4312,38.4400707 18.5166,38.7154707 L18.8487,38.8045707 L19.0755,39.8980707 L19.3023,40.9915707 L20.736,40.9915707 L22.1697,40.9915707 L22.3965,39.8980707 Z M22.1535,36.1396707 C24.0408,35.7508707 25.7256,34.6249707 26.7948,33.0211707 C27.1998,32.4136707 27.2079,32.3893707 27.0945,32.1625707 C26.8434,31.6684707 26.73,30.9232707 26.73,29.6596707 C26.73,27.6670707 27.0702,26.7193707 28.1637,25.6258707 C28.4877,25.3018707 28.755,25.0021707 28.755,24.9616707 C28.755,24.8725707 28.6497,24.8401707 27.135,24.4675707 L26.0415,24.2083707 L24.786,24.5242707 C23.8302,24.7672707 23.5224,24.8725707 23.5062,24.9778707 C23.49,25.0588707 23.652,25.2775707 23.9193,25.5205707 C24.462,26.0146707 24.8508,26.5897707 25.1505,27.3430707 C25.3692,27.8776707 25.3854,27.9991707 25.4178,29.3275707 C25.4502,30.9313707 25.3692,31.4821707 24.9399,32.3569707 C23.9193,34.4386707 21.6513,35.4754707 19.4481,34.8598707 C18.225,34.5277707 17.0343,33.5314707 16.4997,32.4055707 C16.0866,31.5307707 16.0137,31.0366707 16.0542,29.3518707 C16.0866,27.9991707 16.1028,27.8776707 16.3215,27.3430707 C16.6212,26.5897707 17.01,26.0146707 17.5527,25.5205707 C17.82,25.2775707 17.982,25.0588707 17.9658,24.9778707 C17.9496,24.8725707 17.6418,24.7672707 16.686,24.5242707 L15.4305,24.2083707 L14.337,24.4675707 C12.8304,24.8320707 12.717,24.8725707 12.717,24.9535707 C12.717,24.9940707 12.9843,25.2937707 13.3083,25.6177707 C13.9887,26.2981707 14.4099,27.0433707 14.6205,27.9262707 C14.7339,28.3960707 14.7501,28.7605707 14.7258,29.8702707 C14.6934,31.0852707 14.661,31.2877707 14.4747,31.7899707 C14.2317,32.4541707 14.2236,32.4379707 14.9769,33.4342707 C16.6536,35.6212707 19.4805,36.6904707 22.1535,36.1396707 Z M10.8054,33.4990707 C12.6927,33.0049707 13.6809,31.0285707 13.284,28.5175707 C13.122,27.5374707 12.555,26.6788707 11.7531,26.2090707 L11.34,25.9660707 L11.34,24.8563707 L11.34,23.7466707 L11.6478,23.6656707 C11.8098,23.6251707 12.2553,23.5117707 12.636,23.4145707 C13.0167,23.3254707 13.3731,23.2282707 13.4298,23.2120707 C13.4946,23.1877707 13.4379,23.0338707 13.2354,22.7260707 C12.9033,22.1995707 12.7494,21.7297707 12.6765,20.9602707 C12.6279,20.4904707 12.5955,20.4094707 12.4416,20.3770707 C11.1699,20.0854707 10.8378,20.0125707 10.7568,20.0125707 C10.7001,20.0125707 10.6839,20.2150707 10.7244,20.6848707 L10.7811,21.3652707 L9.0315,22.3777707 L7.2819,23.3983707 L8.019,23.5765707 L8.748,23.7547707 L8.748,24.8401707 L8.748,25.9174707 L8.3268,26.1928707 C7.1928,26.9137707 6.723,27.9019707 6.723,29.5300707 C6.723,31.1014707 6.9984,31.9438707 7.7274,32.6404707 C8.6427,33.4990707 9.6795,33.7906707 10.8054,33.4990707 Z M21.8943,33.3775707 C22.9149,32.9887707 23.7897,31.8547707 23.976,30.7045707 C24.3,28.5985707 23.7816,27.0433707 22.4613,26.1928707 L22.032,25.9174707 L22.032,24.8401707 L22.032,23.7547707 L24.0246,23.2606707 C25.1181,22.9852707 26.1306,22.7017707 26.2764,22.6369707 C26.6328,22.4506707 26.9568,22.1266707 27.1593,21.7540707 C27.3213,21.4543707 27.3375,21.3166707 27.3375,19.8910707 C27.3375,18.3520707 27.3375,18.3520707 27.1512,18.3277707 C27.054,18.3115707 26.0091,18.5788707 24.8265,18.9109707 C23.6439,19.2511707 22.4532,19.5589707 22.1778,19.5994707 C21.8943,19.6399707 21.0843,19.8586707 20.3715,20.0935707 C18.2817,20.7658707 17.7066,20.9035707 16.6779,20.9602707 C15.8436,21.0007707 14.7258,20.9197707 14.2236,20.7658707 C14.0859,20.7253707 14.0778,20.7577707 14.1183,21.0979707 C14.2155,21.7702707 14.6124,22.3372707 15.1956,22.6369707 C15.3414,22.7017707 16.3539,22.9852707 17.4474,23.2606707 L19.44,23.7547707 L19.44,24.8401707 L19.44,25.9174707 L19.0107,26.1928707 C18.2331,26.6869707 17.6661,27.5293707 17.496,28.4284707 C17.3907,28.9792707 17.3907,30.1942707 17.496,30.8098707 C17.6985,32.0734707 18.5247,33.0211707 19.8045,33.4828707 C20.3391,33.6691707 21.2463,33.6286707 21.8943,33.3775707 Z M32.7402,33.3046707 C33.0318,33.1669707 33.4449,32.8834707 33.6636,32.6647707 C34.4412,31.8952707 34.749,31.0123707 34.749,29.4814707 C34.749,27.9100707 34.263,26.9137707 33.1533,26.1928707 L32.724,25.9174707 L32.724,24.8401707 L32.724,23.7547707 L34.3035,23.3659707 C35.1702,23.1472707 35.883,22.9528707 35.883,22.9285707 C35.883,22.8961707 29.16,19.3159707 28.917,19.2186756 C28.8846,19.2106707 28.836,19.7209707 28.8117,20.3527707 C28.755,21.6487707 28.6578,22.0618707 28.2366,22.7260707 C28.0341,23.0338707 27.9774,23.1877707 28.0422,23.2120707 C28.0989,23.2282707 28.4553,23.3254707 28.836,23.4145707 C29.2167,23.5117707 29.6622,23.6251707 29.8323,23.6656707 L30.132,23.7466707 L30.132,24.8563707 L30.132,25.9660707 L29.7189,26.2090707 C28.6254,26.8489707 28.107,27.9586707 28.107,29.6515707 C28.107,31.0366707 28.4067,31.9033707 29.1195,32.6161707 C29.8323,33.3370707 30.5775,33.6286707 31.5576,33.5881707 C32.0841,33.5638707 32.319,33.5071707 32.7402,33.3046707 Z M4.1391,23.5684707 C5.4513,22.8070707 6.5367,22.1671707 6.5529,22.1509707 C6.6015,22.1104707 4.1958,12.5605707 4.1391,12.5605707 C4.1148,12.5605707 3.483,12.7630707 2.7378,13.0141707 L1.377,13.4677707 L1.377,19.2106707 L1.377,24.9535707 L1.5714,24.9535707 C1.6767,24.9535707 2.835,24.3298707 4.1391,23.5684707 Z M40.095,19.7290707 L40.095,16.0435707 L34.4979,13.2409707 L28.8927,10.4464707 L28.6821,10.6408707 C28.1313,11.1430707 23.5629,15.2416707 23.166,15.5818707 C22.599,16.0678707 22.032,16.2865707 21.3111,16.2865707 C20.5578,16.2865707 20.2662,16.1650707 18.63,15.1930707 C16.9695,14.2048707 16.7832,14.1562707 16.3701,14.6260707 C16.0704,14.9743707 16.0218,15.4927707 16.2729,15.8086707 C16.362,15.9220707 17.3583,16.4647707 18.6381,17.0965707 L20.8413,18.1900707 L21.5784,18.1819707 C22.2507,18.1738707 22.5099,18.1171707 24.4215,17.5582707 C26.1711,17.0398707 26.6166,16.9345707 27.0945,16.9345707 L27.6696,16.9345707 L33.8175,20.1745707 C37.2033,21.9565707 39.9978,23.4145707 40.0383,23.4145707 C40.0707,23.4145707 40.095,21.7540707 40.095,19.7290707 Z M8.7723,20.8711707 C9.072,20.7010707 9.315,20.5228707 9.315,20.4742707 C9.315,20.3203707 6.8769,11.7991707 6.8121,11.7343707 C6.7797,11.6938707 6.48,11.7586707 6.1398,11.8720707 L5.5323,12.0826707 L6.6177,16.4323707 C7.2171,18.8218707 7.7436,20.9197707 7.7841,21.0898707 C7.8651,21.3895707 7.8732,21.3976707 8.0433,21.2842707 C8.1405,21.2275707 8.4645,21.0331707 8.7723,20.8711707 Z M18.144,19.2754707 C18.6543,19.1377707 19.0917,19.0162707 19.1079,19.0000707 C19.1241,18.9838707 18.3627,18.5869707 17.4312,18.1171707 C16.4916,17.6473707 15.5925,17.1451707 15.4305,17.0074707 C14.8392,16.4809707 14.5638,15.5818707 14.7339,14.7313707 C14.9202,13.8322707 15.6087,13.1518707 16.5078,12.9574707 C17.2773,12.7954707 17.6499,12.9250707 19.2861,13.8970707 C20.0718,14.3749707 20.8413,14.7961707 20.9952,14.8447707 C21.3921,14.9662707 21.8538,14.8123707 22.3236,14.4073707 C23.5386,13.3462707 27.6129,9.66887067 27.8073,9.45827067 C28.0827,9.14237067 28.0989,8.76977067 27.8478,8.53487067 C27.6048,8.32427067 27.3294,8.25947067 27.0783,8.35667067 C26.9649,8.39717067 26.0334,9.12617067 25.0128,9.97667067 C23.9922,10.8271707 23.1498,11.5156707 23.1417,11.4994707 C23.1255,11.4832707 22.9311,11.2402707 22.6962,10.9729707 C22.4613,10.6975707 22.275,10.4545707 22.275,10.4302707 C22.275,10.4059707 23.0283,9.75797067 23.9598,8.99657067 C24.8832,8.22707067 25.7175,7.51427067 25.8228,7.40087067 C26.2278,6.96347067 25.9281,6.32357067 25.3125,6.32357067 C25.0047,6.32357067 24.8751,6.41267067 23.085,7.90307067 C22.0401,8.76977067 21.1653,9.48257067 21.141,9.47447067 C21.1167,9.47447067 20.9061,9.23147067 20.6712,8.93987067 C20.331,8.51057067 20.2662,8.38097067 20.3472,8.30807067 C20.4039,8.25137067 21.2301,7.56287067 22.1778,6.77717067 C23.1255,5.98337067 23.9355,5.25437067 23.976,5.14097067 C24.0651,4.91417067 24.0165,4.72787067 23.7897,4.47677067 C23.571,4.23377067 23.1822,4.24187067 22.8015,4.50917067 C22.3479,4.81697067 21.141,5.84567067 21.141,5.92667067 C21.141,5.95907067 20.9952,6.13727067 20.8089,6.30737067 C20.4849,6.62327067 20.0961,6.83387067 19.6668,6.92297067 C19.5048,6.96347067 19.4319,7.03637067 19.3995,7.19837067 C19.2213,8.07317067 18.3627,8.91557067 17.6418,8.91557067 C17.4798,8.91557067 17.4393,8.98037067 17.3583,9.31247067 C17.1639,10.1143707 16.5969,10.6894707 15.8112,10.8757707 C15.4467,10.9648707 15.39,11.0053707 15.39,11.1835707 C15.3819,11.7667707 14.6934,12.6172707 14.0373,12.8359707 C13.0329,13.1761707 12.3201,12.9169707 11.1942,11.7829707 C10.7649,11.3617707 10.4004,11.0296707 10.368,11.0377707 C10.3356,11.0539707 9.8901,11.3131707 9.3798,11.6209707 L8.4483,12.1798707 L9.3474,15.2983707 L10.2465,18.4249707 L12.555,18.9352707 C13.8267,19.2187707 15.1227,19.4860707 15.4305,19.5184707 C16.2567,19.6237707 17.0829,19.5508707 18.144,19.2754707 Z M13.7538,11.3455707 C13.9968,11.1187707 14.0454,10.8433707 13.9077,10.5679707 C13.8429,10.4383707 13.4784,10.0333707 13.0977,9.66887067 C12.5145,9.09377067 12.3768,8.99657067 12.1419,8.99657067 C11.8341,9.00467067 11.6559,9.10997067 11.5182,9.37727067 C11.3238,9.73367067 11.4048,9.89567067 12.2067,10.7056707 C12.9114,11.4265707 13.0167,11.5075707 13.284,11.5075707 C13.4703,11.5075707 13.6404,11.4427707 13.7538,11.3455707 Z M15.5358,9.47447067 C15.8598,9.36107067 16.0704,8.93987067 15.957,8.63207067 C15.9165,8.51867067 15.552,8.09747067 15.1632,7.70057067 C14.5314,7.05257067 14.4099,6.97157067 14.1588,6.97157067 C13.7781,6.97157067 13.446,7.29557067 13.446,7.66817067 C13.446,7.90307067 13.5432,8.04887067 14.0778,8.60777067 C14.6286,9.18287067 15.0822,9.56357067 15.2361,9.56357067 C15.2604,9.56357067 15.3981,9.52307067 15.5358,9.47447067 Z M17.6013,7.44137067 C17.8686,7.30367067 17.9739,7.12547067 17.982,6.81767067 C17.982,6.58277067 17.8848,6.44507067 17.3178,5.86187067 C16.9452,5.48117067 16.5402,5.11667067 16.4106,5.05187067 C15.9732,4.82507067 15.471,5.14907067 15.471,5.66747067 C15.471,5.91857067 15.5601,6.04007067 16.2648,6.74477067 C17.0829,7.56287067 17.2368,7.64387067 17.6013,7.44137067 Z M19.7964,5.30297067 C19.9422,5.15717067 20.007,5.00327067 20.007,4.80887067 C20.007,4.58207067 19.9098,4.43627067 19.3509,3.86117067 C18.4437,2.90537067 18.0468,2.75957067 17.6499,3.21317067 C17.2854,3.64247067 17.415,3.96647067 18.3303,4.84937067 C18.9297,5.41637067 19.0755,5.51357067 19.3023,5.51357067 C19.4967,5.51357067 19.6506,5.44877067 19.7964,5.30297067 Z M21.951,3.15647067 C22.1373,2.71907067 21.789,2.27357067 21.2706,2.27357067 C21.0924,2.27357067 20.412,2.71907067 20.412,2.83247067 C20.412,2.86487067 20.5254,2.99447067 20.6631,3.13217067 C20.8008,3.26177067 20.979,3.48857067 21.0681,3.62627067 L21.2301,3.89357067 L21.546,3.64247067 C21.7161,3.50477067 21.9024,3.28607067 21.951,3.15647067 Z" id="Shape" transform="translate(20.736000, 21.634285) scale(-1, 1) rotate(-180.000000) translate(-20.736000, -21.634285) "></path>
                </g>
            </g>
        </g>
    </g>
</svg>