<?xml version="1.0" encoding="UTF-8"?>
<svg width="38px" height="41px" viewBox="0 0 38 41" version="1.1" xmlns="http://www.w3.org/2000/svg" xmlns:xlink="http://www.w3.org/1999/xlink">
    <title>svg/Real_estate_services_ic</title>
    <g id="Page-1" stroke="none" stroke-width="1" fill="none" fill-rule="evenodd">
        <g id="Service-All-Category" transform="translate(-43.000000, -750.000000)" fill="#47CDFE" fill-rule="nonzero">
            <g id="Group-2" transform="translate(20.000000, 728.000000)">
                <g id="Real_estate_services_ic" transform="translate(23.000000, 22.000000)">
                    <path d="M15.496,4.26325641e-14 C16.128,0.008 16.24,0.256 16.24,1.632 L16.24,1.632 L16.24,2.712 L17.88,2.736 C19.456,2.76 19.52,2.768 19.696,2.944 L19.7180189,2.96645484 C19.8727259,3.12842344 19.8810435,3.25252174 19.904,4.76 L19.904,4.76 L19.928,6.4 L21.192,6.4 L21.216,4.76 C21.24,3.184 21.248,3.12 21.424,2.944 L21.608,2.76 L28.224,2.736 C28.64,2.73508571 29.0483722,2.73438041 29.445582,2.73388408 L31.9169545,2.73370776 C33.7269159,2.7361502 34.9586286,2.74491429 35.024,2.76 C35.12,2.784 35.272,2.872 35.36,2.96 L35.36,2.96 L35.3739723,2.9749454 L35.3739723,2.9749454 L35.38282,2.986405 C35.481012,3.127097 35.5089192,3.6904226 35.5168507,10.2732714 L35.5177882,11.18016 C35.5178803,11.2849376 35.5179686,11.3910704 35.5180533,11.4985762 L35.51872,12.50368 C35.518784,12.619584 35.5188448,12.7369144 35.5189026,12.855689 L35.519787,15.9926794 C35.5198064,16.1357004 35.519824,16.280308 35.51984,16.42652 L35.52,39.504 L36.232,39.536 C36.856,39.56 36.976,39.584 37.152,39.752 C37.424,40.008 37.44,40.504 37.184,40.776 L37.184,40.776 L37.016,40.96 L0.448,40.96 L0.264,40.784 C2.88102875e-14,40.536 0.008,40.016 0.288,39.752 C0.464,39.584 0.584,39.56 1.208,39.536 L1.208,39.536 L1.92,39.504 L1.92,13.208 L2.128,13.048 C2.31,12.908 2.400125,12.884375 4.36526563,12.8806563 L8.312,12.88 L8.336,9.84 L8.36,6.808 L8.544,6.624 C8.712,6.448 8.8,6.44 9.92,6.416 L9.92,6.416 L11.12,6.392 L11.12,4.776 C11.128,3.632 11.152,3.12 11.224,3.032 C11.4203636,2.77745455 11.6167273,2.72786777 12.834879,2.72095567 L14.8,2.72 L14.8006188,1.20254834 C14.8044291,0.412595156 14.8305882,0.362352941 15,0.2 C15.136,0.056 15.28,4.26325641e-14 15.496,4.26325641e-14 Z M34.08,4.16 L22.64,4.16 L22.64,21.12 L24.864,21.12 L24.912,20.864 C24.992,20.472 25.248,20.24 25.616,20.24 C26.008,20.24 26.32,20.52 26.32,20.88 L26.32,20.88 L26.32,21.12 L27.68,21.12 L27.68,20.88 C27.68,20.52 27.992,20.24 28.376,20.24 C28.712,20.248 28.88,20.344 29.024,20.616 C29.0878491,20.7295094 29.1139509,22.6674689 29.1190424,27.9585228 L29.119765,29.0130848 C29.1198177,29.1349005 29.1198614,29.2582783 29.1198962,29.3832329 L29.12,39.52 L34.08,39.52 L34.08,4.16 Z M14.8,14.32 L3.36,14.32 L3.36,39.52 L6.48,39.52 L6.48048397,37.8307901 C6.48465306,37.0684898 6.51542857,36.3914286 6.56,36.28 C6.712,35.88 7.008,35.832 9.2,35.856 C10.948,35.8772308 11.162213,35.8796805 11.3268248,36.0128753 L11.3696177,36.0506859 L11.3696177,36.0506859 L11.392,36.072 L11.6,36.264 L11.6,39.52 L14.8,39.52 L14.8,14.32 Z M27.68,22.56 L16.24,22.56 L16.24,39.52 L27.68,39.52 L27.68,22.56 Z M10.16,37.28 L7.92,37.28 L7.92,39.52 L8.12,39.52 C8.312,39.52 8.32,39.504 8.32,38.928 C8.32,38.16 8.408,37.944 8.768,37.792 C9.088,37.656 9.312,37.704 9.584,37.944 C9.744,38.088 9.76,38.184 9.76,38.816 L9.76,38.816 L9.76047407,39.0593185 C9.76355556,39.5139911 9.78666667,39.52 9.96,39.52 L9.96,39.52 L10.16,39.52 L10.16,37.28 Z M24.2,24.12 C24.568,23.744 25.28,23.92 25.4,24.424 C25.4146667,24.4826667 25.423358,25.6497531 25.4260741,27.3793484 L25.4266667,27.8645926 C25.4267407,27.9476543 25.4268025,28.0317757 25.4268519,28.1169055 L25.4268519,29.1835852 C25.4268025,29.2759619 25.4267407,29.369142 25.4266667,29.4630741 L25.4260741,30.0352812 C25.4255802,30.4222222 25.4248889,30.8195556 25.424,31.224 L25.424,31.224 L25.4,37.856 L25.176,38.048 C24.848,38.328 24.376,38.28 24.104,37.928 C24.024,37.832 24.008,36.232 24,31.056 L24,24.312 Z M18.68,24.12 C18.952,23.84 19.424,23.848 19.688,24.128 L19.688,24.128 L19.88,24.336 L19.88,37.856 L19.656,38.048 C19.328,38.328 18.856,38.28 18.584,37.928 C18.504,37.832 18.488,36.232 18.48,31.056 L18.48,24.312 Z M21.432,24.128 C21.696,23.848 22.168,23.84 22.44,24.12 L22.44,24.12 L22.64,24.312 L22.64,31.056 C22.632,36.232 22.616,37.832 22.536,37.928 C22.264,38.28 21.688,38.312 21.392,37.992 C21.3868571,37.9862857 21.3818878,37.980449 21.377086,37.9742099 L21.3631778,37.9540058 C21.2692595,37.8002099 21.2466983,37.3455569 21.2414942,33.9980466 L21.240863,33.4998717 C21.2407755,33.4134694 21.2406964,33.3253571 21.240625,33.2355 L21.24,24.336 Z M30.832,34.112 C31.128,33.984 31.416,34.032 31.664,34.256 C31.824,34.408 31.84,34.504 31.84,35.192 C31.832,35.672 31.8,36.008 31.736,36.088 C31.568,36.304 31.28,36.416 31,36.368 C30.576,36.288 30.448,36.072 30.416,35.4 C30.376,34.64 30.496,34.264 30.832,34.112 Z M11.32,31.48 C11.592,31.2 12.064,31.208 12.32,31.48 C12.472,31.64 12.52,31.8 12.544,32.2 C12.608,33.2 12.4,33.6 11.824,33.6 C11.6,33.6 11.456,33.544 11.32,33.4 C11.136,33.224 11.12,33.144 11.12,32.44 L11.1203532,32.2882877 C11.1234556,31.7231243 11.1501538,31.6424615 11.32,31.48 Z M8.632,31.384 C8.856,31.208 9.344,31.256 9.56,31.48 C9.744,31.656 9.76,31.736 9.76,32.44 C9.76,33.144 9.744,33.224 9.56,33.4 C9.424,33.544 9.28,33.6 9.064,33.6 C8.504,33.592 8.32,33.304 8.32,32.44 C8.32,31.824 8.4,31.56 8.632,31.384 Z M5.8,31.48 C6.072,31.2 6.544,31.208 6.8,31.48 C6.952,31.64 7,31.8 7.024,32.2 C7.088,33.2 6.88,33.6 6.304,33.6 C6.08,33.6 5.936,33.544 5.8,33.4 C5.616,33.224 5.6,33.144 5.6,32.44 L5.60035321,32.2882877 C5.60345562,31.7231243 5.63015385,31.6424615 5.8,31.48 Z M30.632,29.648 C30.896,29.368 31.368,29.36 31.64,29.64 C31.824,29.816 31.84,29.896 31.84,30.6 C31.84,31.304 31.824,31.384 31.64,31.56 C31.368,31.84 30.896,31.832 30.632,31.552 C30.456,31.368 30.44,31.28 30.44,30.6 L30.4403496,30.4532726 C30.4434083,29.9058935 30.4695385,29.8178462 30.632,29.648 Z M6.008,26.728 C6.272,26.624 6.36,26.624 6.6,26.736 C6.92,26.88 7.04,27.192 7.04,27.856 C7.04,28.296 7,28.504 6.88,28.696 C6.624,29.112 6.016,29.128 5.704,28.728 C5.568,28.552 5.568,27.128 5.712,26.944 C5.768,26.864 5.904,26.768 6.008,26.728 Z M8.72,26.736 C8.976,26.608 9.344,26.672 9.576,26.896 C9.744,27.056 9.76,27.136 9.76,27.832 C9.752,28.312 9.72,28.648 9.656,28.728 C9.384,29.08 8.808,29.112 8.512,28.792 C8.392,28.656 8.352,28.472 8.336,27.928 C8.312,27.168 8.392,26.912 8.72,26.736 Z M11.528,26.728 C11.8,26.616 11.896,26.624 12.152,26.76 C12.48,26.928 12.584,27.248 12.552,27.992 C12.528,28.472 12.48,28.664 12.368,28.792 C12.072,29.112 11.496,29.08 11.224,28.728 C11.088,28.552 11.088,27.128 11.232,26.944 C11.288,26.864 11.424,26.768 11.528,26.728 Z M31.096,24.8 C31.272,24.8 31.624,24.968 31.728,25.104 C31.872,25.288 31.872,26.712 31.736,26.888 C31.424,27.288 30.816,27.272 30.56,26.856 C30.44,26.664 30.4,26.456 30.4,26 C30.408,25.352 30.504,25.08 30.808,24.912 C30.912,24.856 31.04,24.808 31.096,24.8 Z M11.32,22.28 C11.592,22 12.064,22.008 12.328,22.288 C12.504,22.472 12.52,22.56 12.52,23.24 C12.52,23.92 12.504,24.008 12.328,24.192 C12.064,24.472 11.592,24.48 11.32,24.2 C11.136,24.024 11.12,23.944 11.12,23.24 L11.1203532,23.0882877 C11.1234556,22.5231243 11.1501538,22.4424615 11.32,22.28 Z M5.8,22.28 C6.072,22 6.544,22.008 6.808,22.288 C6.984,22.472 7,22.56 7,23.24 C7,23.92 6.984,24.008 6.808,24.192 C6.544,24.472 6.072,24.48 5.8,24.2 C5.616,24.024 5.6,23.944 5.6,23.24 L5.60035321,23.0882877 C5.60345562,22.5231243 5.63015385,22.4424615 5.8,22.28 Z M8.632,22.184 C8.856,22.008 9.344,22.056 9.56,22.28 C9.744,22.456 9.76,22.536 9.76,23.24 C9.76,23.944 9.744,24.024 9.56,24.2 C9.424,24.344 9.28,24.4 9.064,24.4 C8.504,24.392 8.32,24.104 8.32,23.24 C8.32,22.624 8.4,22.36 8.632,22.184 Z M30.632,20.448 C30.896,20.168 31.368,20.16 31.64,20.44 C31.824,20.616 31.84,20.696 31.84,21.4 C31.84,22.104 31.824,22.184 31.64,22.36 C31.368,22.64 30.896,22.632 30.632,22.352 C30.456,22.168 30.44,22.08 30.44,21.4 L30.4403496,21.2532726 C30.4434083,20.7058935 30.4695385,20.6178462 30.632,20.448 Z M21.2,7.84 L9.76,7.84 L9.76,12.88 L13.7506719,12.8806406 C15.72675,12.88425 15.837,12.907 15.984,13.04 C16.072,13.128 16.176,13.328 16.208,13.48 L16.208,13.48 L16.256,13.76 L17.5228679,13.760806 C18.7198186,13.7718458 18.952381,13.9020952 18.96,14.504 C18.96,14.72 18.904,14.864 18.76,15 C18.576,15.192 18.536,15.2 17.4,15.2 L17.4,15.2 L16.24,15.2 L16.24,17.44 L17.5169938,17.440806 C18.7270748,17.4518458 18.952381,17.5820952 18.96,18.184 C18.96,18.4 18.904,18.544 18.76,18.68 C18.576,18.872 18.536,18.88 17.4,18.88 L17.4,18.88 L16.24,18.88 L16.24,21.12 L21.2,21.12 L21.2,7.84 Z M5.96,17.536 C6.296,17.344 6.776,17.512 6.944,17.88 C7.08,18.176 7.064,19.16 6.92,19.432 C6.768,19.744 6.4,19.888 6.072,19.768 C5.664,19.624 5.608,19.48 5.608,18.64 C5.608,17.864 5.656,17.712 5.96,17.536 Z M11.48,17.536 C11.816,17.344 12.256,17.48 12.44,17.832 C12.6,18.144 12.6,19.128 12.44,19.432 C12.288,19.744 11.92,19.888 11.592,19.768 C11.184,19.624 11.128,19.48 11.128,18.64 C11.128,17.864 11.176,17.712 11.48,17.536 Z M8.72,17.536 C8.976,17.408 9.344,17.472 9.576,17.696 C9.744,17.856 9.76,17.936 9.76,18.64 C9.76,19.368 9.744,19.424 9.552,19.608 C9.28,19.864 8.792,19.872 8.544,19.616 C8.384,19.464 8.36,19.336 8.336,18.736 C8.312,17.968 8.392,17.712 8.72,17.536 Z M25.304,15.68 C25.648,15.544 26,15.632 26.216,15.912 C26.352,16.096 26.352,17.512 26.208,17.704 C26.032,17.936 25.632,18.032 25.352,17.92 C25.008,17.776 24.88,17.464 24.88,16.8 C24.88,16.168 25.024,15.792 25.304,15.68 Z M30.808,15.712 C31.136,15.528 31.504,15.608 31.736,15.912 C31.872,16.096 31.872,17.512 31.728,17.704 C31.552,17.936 31.152,18.032 30.872,17.92 C30.528,17.776 30.4,17.464 30.4,16.784 C30.408,16.152 30.512,15.88 30.808,15.712 Z M28.16,15.656 C28.36,15.576 28.752,15.672 28.92,15.848 C29.056,15.984 29.08,16.112 29.08,16.8 C29.08,17.52 29.064,17.616 28.896,17.776 C28.648,18.032 28.16,18.024 27.888,17.768 C27.696,17.584 27.68,17.528 27.68,16.8 L27.6803459,16.6498716 C27.6833609,16.0900828 27.7089231,16.0043077 27.864,15.864 C27.96,15.776 28.096,15.68 28.16,15.656 Z M25.136,11.2 C25.392,10.968 25.872,10.984 26.12,11.24 C26.304,11.416 26.32,11.496 26.32,12.2 C26.32,12.904 26.304,12.984 26.12,13.16 C25.848,13.44 25.376,13.432 25.12,13.16 C24.968,13 24.92,12.84 24.896,12.44 C24.848,11.776 24.928,11.4 25.136,11.2 Z M30.632,11.248 C30.896,10.968 31.368,10.96 31.64,11.24 C31.824,11.416 31.84,11.496 31.84,12.2 C31.84,12.904 31.824,12.984 31.64,13.16 C31.368,13.44 30.896,13.432 30.632,13.152 C30.456,12.968 30.44,12.88 30.44,12.2 L30.4403496,12.0532726 C30.4434083,11.5058935 30.4695385,11.4178462 30.632,11.248 Z M28.376,11.04 C28.936,11.048 29.12,11.336 29.12,12.2 C29.12,13.064 28.936,13.352 28.376,13.36 C28.16,13.36 28.016,13.304 27.88,13.16 C27.696,12.984 27.68,12.904 27.68,12.2 L27.6803532,12.0482877 C27.6834556,11.4831243 27.7101538,11.4024615 27.88,11.24 C28.016,11.096 28.16,11.04 28.376,11.04 Z M12.4,10.184 C12.672,10.048 18.328,10.032 18.584,10.176 C18.856,10.32 18.952,10.488 18.96,10.824 C18.96,11.04 18.904,11.184 18.76,11.32 L18.76,11.32 L18.568,11.52 L12.416,11.52 L12.208,11.272 C11.888,10.896 11.976,10.4 12.4,10.184 Z M25.28,6.504 C25.528,6.376 25.72,6.376 25.944,6.496 C26.264,6.664 26.312,6.808 26.32,7.608 C26.32,8.304 26.304,8.384 26.144,8.536 C25.888,8.768 25.624,8.832 25.352,8.712 C25.008,8.576 24.88,8.264 24.88,7.584 C24.88,6.936 24.984,6.648 25.28,6.504 Z M28.04,6.496 C28.256,6.36 28.712,6.44 28.912,6.64 C29.04,6.76 29.08,6.928 29.104,7.36 C29.152,8.176 29.08,8.456 28.776,8.648 C28.472,8.84 28.136,8.8 27.864,8.544 C27.696,8.384 27.68,8.304 27.68,7.608 C27.688,6.824 27.728,6.68 28.04,6.496 Z M30.8,6.504 C31.144,6.328 31.504,6.416 31.736,6.712 C31.872,6.896 31.872,8.312 31.728,8.504 C31.552,8.736 31.152,8.832 30.872,8.72 C30.528,8.576 30.4,8.264 30.4,7.584 C30.4,6.936 30.504,6.648 30.8,6.504 Z M18.48,4.16 L12.56,4.16 L12.56,6.4 L18.48,6.4 L18.48,4.16 Z" id="Combined-Shape"></path>
                </g>
            </g>
        </g>
    </g>
</svg>