<?xml version="1.0" encoding="UTF-8"?>
<svg width="40px" height="41px" viewBox="0 0 40 41" version="1.1" xmlns="http://www.w3.org/2000/svg" xmlns:xlink="http://www.w3.org/1999/xlink">
    <title>svg/Research_services_ic</title>
    <g id="Page-1" stroke="none" stroke-width="1" fill="none" fill-rule="evenodd">
        <g id="Service-All-Category" transform="translate(-293.000000, -448.000000)" fill="#47CDFE" fill-rule="nonzero">
            <g id="Group-2" transform="translate(271.000000, 426.000000)">
                <g id="Research_services_ic" transform="translate(22.000000, 22.000000)">
                    <g id="Group" transform="translate(20.064800, 20.104000) scale(-1, 1) rotate(-180.000000) translate(-20.064800, -20.104000) translate(0.064800, 0.104000)">
                        <path d="M28.4417801,0.00054675 L31.4983241,0.002239488 C31.5992502,0.0023328 31.698864,0.00243 31.7971828,0.00253125 L32.3716946,0.003188646 C32.4649028,0.003306744 32.5568507,0.003429216 32.6475557,0.003556224 L33.1770087,0.004374 C38.3251581,0.013122 39.1235103,0.039366 39.3179589,0.118098 L39.3355295,0.126147456 C39.3408078,0.128889792 39.3455539,0.131691744 39.3499065,0.134554608 L39.3619223,0.143327232 C39.3693307,0.1492992 39.37572,0.15552 39.3822,0.162 C39.5108471,0.290647059 39.5385945,0.400375433 39.5433427,1.19228933 L39.5442,1.5471 C39.5442,2.6325 39.5199,2.835 39.3417,3.3777 C39.042,4.2687 38.4993,5.0463 37.827,5.5647 L37.6083,5.7267 L37.584,13.6971 L37.5597,21.6675 L37.3329,22.3803 C36.8631,23.8788 36.2475,24.9318 35.2188,25.9848 C34.1577,27.0783 32.967,27.7911 31.4685,28.2366 C30.9096,28.3986 30.5127,28.4553 29.6379,28.4877 L28.512,28.5363 L28.1799,28.8198 C27.9936,28.9737 27.6858,29.1762 27.4995,29.2653 C27.3051,29.3625 27.1512,29.4678 27.1512,29.5002 C27.1512,29.5326 27.2646,29.9619 27.3942,30.456 C27.8235,32.0517 27.8478,32.0274 25.92,32.5296 C25.5798,32.6187 25.3692,32.7159 25.3692,32.7888 C25.3692,32.8455 25.4664,33.2505 25.5798,33.6879 C25.7904,34.4736 25.7904,34.4736 26.1711,34.6923 C26.9406,35.1216 27.7182,36.1989 27.7182,36.8388 C27.7182,37.1952 27.6129,37.3815 27.3375,37.4949 C26.8272,37.6974 21.0276,39.204 20.7441,39.204 C20.5173,39.204 20.4039,39.1554 20.2743,38.9934 C19.8936,38.5074 19.9503,37.2843 20.3877,36.3933 L20.6793,35.802 L20.4606,34.9758 C20.3391,34.5141 20.2257,34.1253 20.2095,34.1091 C20.2014,34.0929 19.7316,34.1982 19.1646,34.344 C18.063,34.6275 17.8848,34.6194 17.6418,34.2468 C17.5689,34.1253 16.70625,30.980475 15.861825,27.825525 L15.6814502,27.1504074 C14.9035867,24.2337432 14.1912,21.4939286 14.1912,21.3435 C14.1912,20.9142 14.3694,20.7765 15.1389,20.574 C15.5277,20.4687 15.8598,20.3796 15.8679,20.3796 C15.876,20.3715 15.7707,19.9908 15.6492,19.521 C15.3414,18.4275 15.3333,18.0468 15.6087,17.8362 C15.7221,17.7471 15.9651,17.6499 16.1433,17.6175 C16.3944,17.577 16.4592,17.5284 16.4268,17.4312 C16.1595,16.4754 15.9732,15.6897 15.9732,15.4872 C15.9732,15.0336 16.1595,14.9283 17.5932,14.5395 C19.683,13.9725 19.6425,13.9563 20.0637,15.6006 L20.2986,16.4997 L20.5416,16.4349 C20.979,16.3053 21.384,16.3458 21.546,16.5321 C21.6351,16.6212 21.8052,17.0991 21.9348,17.5932 C22.0644,18.0792 22.194,18.5247 22.2183,18.5652 C22.2588,18.6219 22.4856,18.5976 22.9149,18.4761 C23.7168,18.2655 23.7735,18.2655 24.0327,18.4923 C24.1947,18.63 24.3,18.8892 24.5106,19.683 L24.7779,20.6955 L25.5798,20.7522 C26.6652,20.817 27.3942,21.1005 28.1475,21.7242 L28.5444,22.0563 L29.079,21.9996 C30.0024,21.9024 30.6099,21.5055 30.9339,20.7765 C31.0716,20.4768 31.0797,20.0637 31.104,15.4548 L31.1283,10.449 L28.5525,10.449 C27.135,10.449 25.677,10.4247 25.3125,10.3923 L24.6402,10.3437 L24.6402,10.8459 C24.6402,11.5828672 25.0646827,11.6613421 21.3012575,11.6656797 L20.3152661,11.6655965 C20.2260059,11.6655208 20.134923,11.6654341 20.0419804,11.6653412 L19.4617136,11.6647457 C19.3611848,11.6646463 19.2587225,11.6645501 19.1542898,11.6644615 L16.0937924,11.6636471 C16.0084191,11.6635967 15.9248179,11.6635391 15.8429506,11.6634733 L15.1519326,11.6626307 C12.0642472,11.6572778 11.9712,11.631 11.8422,11.502 C11.7092864,11.3690864 11.6851202,11.2663804 11.681001,10.2651343 L11.6802631,9.91799966 C11.6802167,9.85480475 11.6802,9.78885 11.6802,9.72 L11.6802631,9.52200034 L11.6802631,9.52200034 L11.681001,9.17486574 C11.6851202,8.17361963 11.7092864,8.07091364 11.8422,7.938 C11.9712,7.809 12.0642472,7.78272222 15.1519326,7.77736934 L15.8429506,7.77652675 C15.9248179,7.77646091 16.0084191,7.77640329 16.0937924,7.77635288 L20.2266076,7.77635288 C20.3119809,7.77640329 20.3955821,7.77646091 20.4774494,7.77652675 L21.1684674,7.77736934 C24.2561528,7.78272222 24.3492,7.809 24.4782,7.938 C24.6078,8.0676 24.6402,8.2053 24.6402,8.586 L24.6402,9.072 L31.1202,9.072 L31.1202,6.48 L16.2720132,6.48048774 C16.1546493,6.48050958 16.0388048,6.48052926 15.9244583,6.4805459 L14.6228379,6.48054315 C14.5201338,6.48052135 14.4188422,6.48049298 14.3189418,6.48045717 L13.1855493,6.47961343 C7.9279225,6.4731524 7.21574482,6.42848897 6.66255048,6.16460141 L6.57882137,6.12262319 L6.57882137,6.12262319 L6.52266349,6.09267788 L6.52266349,6.09267788 L6.435356,6.04471439 L6.435356,6.04471439 L6.37360883,6.01064669 C6.33121471,5.98736526 6.28613407,5.96293516 6.237,5.9373 C5.2326,5.4108 4.3821,4.3416 4.0338,3.1671 C3.9447,2.8512 3.9042,2.3895 3.9042,1.5228 C3.9042,0.4293 3.9204,0.3078 4.0662,0.162 L4.0759907,0.152473104 C4.08765752,0.141582168 4.10074603,0.131469156 4.12120458,0.122078502 L4.14068413,0.114204978 C4.35270972,0.03849606 5.20904439,0.0129762 10.2713913,0.004374 L10.8008443,0.003556224 C10.8915493,0.003429216 10.9834972,0.003306744 11.0767054,0.003188646 L11.6512172,0.00253125 C11.749536,0.00243 11.8491498,0.0023328 11.9500759,0.002239488 L15.0066199,0.00054675 C15.1325727,0.0005103 15.2599939,0.00047628 15.3889008,0.000444528 L28.0594992,0.000444528 C28.1884061,0.00047628 28.3158273,0.0005103 28.4417801,0.00054675 Z M14.7136409,13.0824465 L14.7438038,13.1079948 C14.7486208,13.1125236 14.7533906,13.1171906 14.7582,13.122 C14.9769,13.3407 14.9769,13.8753 14.7582,14.094 C14.61969,14.23251 14.513985,14.252922 12.5987562,14.2556193 L11.8908,14.256 C10.0845,14.256 9.1044,14.2884 8.9262,14.3451 L8.89518839,14.356024 L8.89518839,14.356024 L8.83717956,14.3777311 C8.48636041,14.5183149 8.44556749,14.7647642 8.44082413,17.7883515 L8.44033481,18.2892282 C8.44028987,18.3766839 8.44025992,18.4661602 8.44023994,18.5577058 L8.4402,23.2875 L9.315,23.4576 C10.8783,23.7654 12.1824,24.4539 13.3083,25.5879 C14.3046,26.5923 14.9445,27.6777 15.3414,29.0466 C15.5034,29.6136 15.5277,29.8566 15.5196,31.1445 C15.5196,32.4972 15.5034,32.6511 15.2928,33.3315 C14.1912,36.9522 10.8459,39.1878 7.0227,38.8719 C3.3534,38.5722 0.3078,35.5023 0.0324,31.833 C-0.1539,29.3382 0.5832,27.2889 2.2761,25.5879 C3.402,24.4539 4.7061,23.7654 6.2775,23.4576 L7.1442,23.2875 L7.14419251,17.7051859 C7.14421997,17.6184009 7.14426163,17.5336697 7.14432288,17.4509372 L7.14496839,16.9780888 C7.15012378,14.5794671 7.18635631,14.1151375 7.43006268,13.7853424 L7.47823202,13.7246429 C7.52891883,13.6646413 7.58728723,13.6054149 7.6545,13.5351 C8.16618857,13.0005 8.20982939,12.9627507 11.0306907,12.9601821 L12.323471,12.960327 C14.2860653,12.9625444 14.5744641,12.9786311 14.7136409,13.0824465 Z M22.4532,36.207 C22.1292,36.369 21.6756,36.8469 21.5703,37.1304 C21.3921,37.5921 21.384,37.6893 21.4893,37.6488 C21.5541,37.6245 22.6152,37.341 23.8464,37.0089 C26.0253,36.4338 26.0901,36.4095 25.9524,36.2637 C25.7175,36.0045 25.1748,35.721 24.7941,35.6724 C24.3972,35.6157 22.9716,35.9397 22.4532,36.207 Z M7.8246,24.6969 C6.7554,24.6969 5.9859,24.8751 4.9977,25.353 C3.6045,26.0334 2.7216,26.9163 2.0412,28.3095 C1.8225,28.755 1.5876,29.3787 1.5228,29.7027 C1.3365,30.5289 1.3527,31.8168 1.5552,32.6106 C1.7658,33.4449 2.3328,34.5789 2.8512,35.2107 C3.8961,36.4743 5.7267,37.4139 7.3467,37.5192 C7.9461,37.5597 9.0396,37.4301 9.6147,37.26 C11.3562,36.7173 12.717,35.5752 13.5108,33.9795 C13.9968,32.9913 14.1912,32.1813 14.1912,31.1283 C14.1912,30.0672 14.0292,29.322 13.5918,28.3905 C12.5145,26.1225 10.3032,24.705 7.8246,24.6969 Z M8.9262,26.73 C9.2745,27.0783 9.0477,27.864 8.6022,27.864 C8.4645,27.864 8.4402,27.9207 8.4402,28.2123 C8.4402,28.5606 8.4483,28.5687 8.7723,28.6659 C9.0801,28.755 9.1206,28.755 9.2907,28.593 C9.4608,28.4391 9.477,28.3581 9.4365,28.026 C9.396,27.6777 9.4122,27.6129 9.5985,27.4266 C9.7524,27.2727 9.8982,27.216 10.1088,27.216 C10.368,27.216 10.4733,27.2889 11.0403,27.8559 C11.6073,28.4229 11.6802,28.5282 11.6802,28.7874 C11.6802,28.998 11.6235,29.1438 11.4696,29.2977 C11.2833,29.484 11.2185,29.5002 10.8702,29.4597 C10.5381,29.4192 10.4571,29.4354 10.3032,29.6055 C10.1412,29.7756 10.1412,29.8161 10.2303,30.1239 C10.3275,30.4479 10.3356,30.456 10.6839,30.456 C10.9755,30.456 11.0322,30.4317 11.0322,30.294 C11.0322,30.0267 11.3157,29.808 11.6802,29.808 C12.2173579,29.808 12.3183274,29.9533961 12.3274678,30.9329068 L12.3282,31.104 C12.3282,31.9707 12.312,32.0922 12.1662,32.238 C11.8179,32.5863 11.0322,32.3595 11.0322,31.914 C11.0322,31.7763 10.9755,31.752 10.6839,31.752 C10.3356,31.752 10.3275,31.7601 10.2303,32.0841 C10.1412,32.3919 10.1412,32.4324 10.3032,32.6025 C10.4571,32.7726 10.5381,32.7888 10.8702,32.7483 C11.2185,32.7078 11.2833,32.724 11.4696,32.9103 C11.6235,33.0642 11.6802,33.21 11.6802,33.4206 C11.6802,33.6798 11.6073,33.7851 11.0403,34.3521 C10.4733,34.9191 10.368,34.992 10.1088,34.992 C9.8982,34.992 9.7524,34.9353 9.5985,34.7814 C9.4122,34.5951 9.396,34.5303 9.4365,34.182 C9.477,33.8499 9.4608,33.7689 9.2907,33.615 C9.1206,33.453 9.0801,33.453 8.7723,33.5421 C8.4483,33.6393 8.4402,33.6474 8.4402,33.9957 C8.4402,34.2873 8.4645,34.344 8.6022,34.344 C8.8695,34.344 9.0882,34.6275 9.0882,34.992 C9.0882,35.559 8.9262,35.64 7.7922,35.64 C6.9255,35.64 6.804,35.6238 6.6582,35.478 C6.3099,35.1297 6.5367,34.344 6.9822,34.344 C7.1199,34.344 7.1442,34.2873 7.1442,33.9957 C7.1442,33.6474 7.1361,33.6393 6.8121,33.5421 C6.5043,33.453 6.4638,33.453 6.2937,33.615 C6.1236,33.7689 6.1074,33.8499 6.1479,34.182 C6.1884,34.5303 6.1722,34.5951 5.9859,34.7814 C5.832,34.9353 5.6862,34.992 5.4756,34.992 C5.2164,34.992 5.1111,34.9191 4.5441,34.3521 C3.9771,33.7851 3.9042,33.6798 3.9042,33.4206 C3.9042,33.21 3.9609,33.0642 4.1148,32.9103 C4.3011,32.724 4.3659,32.7078 4.7142,32.7483 C5.0463,32.7888 5.1273,32.7726 5.2812,32.6025 C5.4432,32.4324 5.4432,32.3919 5.3541,32.0841 C5.2569,31.7601 5.2488,31.752 4.9005,31.752 C4.6089,31.752 4.5522,31.7763 4.5522,31.914 C4.5522,32.1813 4.2687,32.4 3.9042,32.4 C3.3372,32.4 3.2562,32.238 3.2562,31.104 C3.2562,30.2373 3.2724,30.1158 3.4182,29.97 C3.7665,29.6217 4.5522,29.8485 4.5522,30.294 C4.5522,30.4317 4.6089,30.456 4.9005,30.456 C5.2488,30.456 5.2569,30.4479 5.3541,30.1239 C5.4432,29.8161 5.4432,29.7756 5.2812,29.6055 C5.1273,29.4354 5.0463,29.4192 4.7142,29.4597 C4.3659,29.5002 4.3011,29.484 4.1148,29.2977 C3.9609,29.1438 3.9042,28.998 3.9042,28.7874 C3.9042,28.5282 3.9771,28.4229 4.5441,27.8559 C5.1111,27.2889 5.2164,27.216 5.4756,27.216 C5.6862,27.216 5.832,27.2727 5.9859,27.4266 C6.1722,27.6129 6.1884,27.6777 6.1479,28.026 C6.1074,28.3581 6.1236,28.4391 6.2937,28.593 C6.4638,28.755 6.5043,28.755 6.8121,28.6659 C7.1361,28.5687 7.1442,28.5606 7.1442,28.2123 C7.1442,27.9207 7.1199,27.864 6.9822,27.864 C6.5367,27.864 6.3099,27.0783 6.6582,26.73 C6.79428,26.59392 6.909192,26.570736 7.628568,26.5682496 L7.7922,26.568 C8.6589,26.568 8.7804,26.5842 8.9262,26.73 Z M21.9024,33.6069 C21.6351,33.6798 21.5622,33.7365 21.5946,33.8418 C21.6108,33.9147 21.6918,34.182 21.7566,34.4331 L21.8862,34.8948 L22.5018,34.7004 C22.842,34.5951 23.3847,34.4574 23.7087,34.3845 L24.3,34.2468 L24.138,33.6717 C24.0489,33.3477 23.9679,33.0804 23.9598,33.0723 C23.9517,33.0561 23.2875,33.2343 21.9024,33.6069 Z M23.0526,19.8935466 C22.7043,19.9584 15.8355,21.8214 15.7869,21.87 C15.6978,21.951 18.6624,33.0561 18.7677,33.0157105 C18.8163,32.9994 20.4525,32.562 22.4127,32.0355 C24.3729,31.509 26.001,31.0635 26.0334,31.0311 C26.0658,31.0068 26.0253,30.7233 25.9443,30.4155 L25.8066,29.8485 L24.9966,29.7918 C24.5592,29.7675 24.0408,29.6865 23.8464,29.6136 C22.3803,29.079 21.3111,27.9531 20.8818,26.4951 C20.6712,25.7823 20.7036,24.5835 20.9547,23.8383 C21.3192,22.761 22.1049,21.789 22.9959,21.3273 C23.2308,21.2058 23.4252,21.0681 23.4252,21.0195 C23.4171,20.8008 23.1093,19.8855 23.0526,19.8935466 Z M7.7922,29.889 C7.5735,29.889 7.3224,29.9538 7.1604,30.051 C6.1074,30.6909 6.561,32.319 7.7922,32.319 C8.0109,32.319 8.262,32.2542 8.424,32.157 C9.477,31.5171 9.0234,29.889 7.7922,29.889 Z M24.8022,22.1292 C23.4657,22.3236 22.3074,23.4981 22.1373,24.8184 C21.8133,27.3699 24.3972,29.2329 26.7138,28.107 C27.3132,27.8154 27.8964,27.216 28.188,26.5842 C28.3824,26.1792 28.4067,26.0253 28.4067,25.272 C28.4067,24.5187 28.3824,24.3648 28.188,23.9598 C27.5886,22.6719 26.2035,21.9267 24.8022,22.1292 Z M25.2882,23.328 C26.4546,23.328 27.2322,24.1056 27.2322,25.272 C27.2322,26.1144 26.8029,26.7867 26.082,27.0864 C25.6608,27.2646 24.8427,27.2484 24.4377,27.0621 C23.733,26.7381 23.3442,26.0901 23.3442,25.2558 C23.3523,24.1056 24.1299,23.328 25.2882,23.328 Z M36.3123,6.3261 L36.045,6.4071 C35.90892,6.4449 35.1378,6.475644 34.2848304,6.4795752 L32.4162,6.48 L32.4,13.7538 L32.3757,21.0195 L32.1408,21.5055 C31.7115,22.3884 30.8448,23.0607 29.889,23.2632 L29.4597,23.3523 L29.646,23.9193 C29.8971,24.6726 29.9052,25.8066 29.6703,26.568 C29.5731,26.8596 29.5002,27.1107 29.5002,27.1269 C29.5002,27.1998 30.5532,27.0378 31.0797,26.892 C33.4935,26.2116 35.4213,24.2028 36.0693,21.708 C36.087422,21.6388068 36.1037849,21.5758125 36.1185846,21.5108219 L36.1328704,21.4448624 C36.2499945,20.8733905 36.2588949,19.960322 36.2799,13.6728 L36.3123,6.3261 Z M25.2882,24.705 C25.1505,24.705 24.9723,24.7779 24.8832,24.867 C24.7941,24.9561 24.7212,25.1343 24.7212,25.272 C24.7212,25.4097 24.7941,25.5879 24.8832,25.677 C24.9723,25.7661 25.1505,25.839 25.2882,25.839 C25.4259,25.839 25.6041,25.7661 25.6932,25.677 C25.7823,25.5879 25.8552,25.4097 25.8552,25.272 C25.8552,25.1343 25.7823,24.9561 25.6932,24.867 C25.6041,24.7779 25.4259,24.705 25.2882,24.705 Z M20.5497,17.9172 C20.5173,17.8848 17.0424,18.7758 16.9533,18.8406 C16.9371,18.8568 16.9857,19.1241 17.0667,19.44 C17.1801,19.8936 17.2368,20.007 17.3421,19.9746 C17.415,19.9503 18.2331,19.7316 19.1565,19.4805 C20.088,19.2375 20.8575,19.035 20.8656,19.035 C20.9061,19.035 20.5983,17.9658 20.5497,17.9172 Z M17.5284,16.0056 C17.5122,16.0218 17.5608,16.281 17.6418,16.5969 C17.7552,17.0343 17.82,17.1639 17.9172,17.1396 C17.982,17.1153 18.2493,17.0424 18.5004,16.9776 L18.9621,16.848 L18.8163,16.3134 C18.7353,16.0299 18.6462,15.7707 18.6219,15.7464 C18.5895,15.714 17.6094,15.9489 17.5284,16.0056 Z M23.3442,9.072 L12.9762,9.072 L12.9762,10.368 L23.3442,10.368 L23.3442,9.072 Z M38.2482,1.296 L5.2002,1.296 L5.2002,1.5228 C5.2083,2.0331 5.3784,2.8998 5.5647,3.2967 C5.9859,4.2201 6.966,4.9491 7.9947,5.0949 C8.33517303,5.1418618 14.5730013,5.16802497 21.0096169,5.17156247 L23.7001437,5.17171676 C23.8485423,5.17165136 23.9966184,5.17157358 24.1443003,5.17148341 L25.0250876,5.17079342 C30.4203665,5.1656188 35.0797348,5.14340899 35.3727,5.103 C36.8793,4.8843 37.9485,3.807 38.1672,2.3085 C38.2077,2.0007 38.2482,1.6443 38.2482,1.5228 L38.2482,1.296 Z" id="Combined-Shape"></path>
                    </g>
                </g>
            </g>
        </g>
    </g>
</svg>