<?xml version="1.0" encoding="UTF-8"?>
<svg width="23px" height="23px" viewBox="0 0 23 23" version="1.1" xmlns="http://www.w3.org/2000/svg" xmlns:xlink="http://www.w3.org/1999/xlink">
    <title>svg/send-ic</title>
    <g id="Page-1" stroke="none" stroke-width="1" fill="none" fill-rule="evenodd" opacity="0.988">
        <g id="Chat" transform="translate(-336.000000, -749.000000)" fill="#47CDFE">
            <g id="send-ic" transform="translate(336.000000, 749.000000)">
                <path d="M1.4640411,0.0256849315 C2.10250685,-0.0264246575 2.70181849,0.102 3.2619863,0.410958904 C9.20172945,3.38080479 15.1606336,6.36025685 21.1386986,9.34931507 C22.1799658,9.8652226 22.6166096,10.6956678 22.4486301,11.8407534 C22.1909075,12.5436986 21.72,13.0488699 21.0359589,13.3561644 C14.8495377,16.4751884 8.66804795,19.5402226 2.49143836,22.5513699 C1.71402226,22.7786301 1.03765068,22.6159418 0.462328767,22.0633562 C-0.0112191781,21.3418664 -0.0968321918,20.5713185 0.205479452,19.7517123 C0.856166096,17.5941781 1.5068476,15.4366438 2.15753425,13.2791096 C2.25372945,12.9950342 2.31366267,12.7039212 2.33732877,12.4058219 C6.1044863,12.4144007 9.87159247,12.4058219 13.6386986,12.380137 C14.4911301,12.0833733 14.7222945,11.5268322 14.3321918,10.7106164 C14.1620034,10.4671747 13.930839,10.3216438 13.6386986,10.2739726 C9.87159247,10.2482877 6.1044863,10.2397089 2.33732877,10.2482877 C2.31366267,9.95018836 2.25372945,9.65907534 2.15753425,9.375 C1.5068476,7.21746575 0.856166096,5.05993151 0.205479452,2.90239726 C-0.0968321918,2.08281164 -0.0112191781,1.3122637 0.462328767,0.590753425 C0.744056507,0.298402397 1.07796062,0.110044521 1.4640411,0.0256849315 Z" id="Path"></path>
            </g>
        </g>
    </g>
</svg>