<?xml version="1.0" encoding="UTF-8"?>
<svg width="41px" height="44px" viewBox="0 0 41 44" version="1.1" xmlns="http://www.w3.org/2000/svg" xmlns:xlink="http://www.w3.org/1999/xlink">
    <title>svg/skincare_ic</title>
    <g id="Page-1" stroke="none" stroke-width="1" fill="none" fill-rule="evenodd">
        <g id="Product-All-Category" transform="translate(-42.000000, -931.000000)" fill="#47CDFE" fill-rule="nonzero">
            <g id="Group-2" transform="translate(20.000000, 911.000000)">
                <g id="skincare_ic" transform="translate(22.000000, 20.000000)">
                    <path d="M17.532,0.009 C18.6456774,-0.00725806452 18.7167409,-0.0675702393 18.7200653,1.57222728 L18.72,2.16 C18.72,2.23317391 18.719983,2.30340454 18.7199364,2.37082354 L18.7192011,2.74265143 C18.714896,3.87663516 18.6886957,3.99130435 18.54,4.14 C18.3861,4.2939 18.26865,4.31658 16.363692,4.319577 L12.96,4.32 L12.96,7.2 L13.464,7.2 C14.094,7.2 14.283,7.299 14.4,7.722 C14.535,8.208 15.12,11.817 15.12,12.168 C15.12,12.456 15.174,12.51 15.957,13.023 C18.477,14.679 20.151,17.649 20.16,20.484 C20.16,21.132 19.899,23.526 19.683,24.894 C19.647,25.083 19.656,25.083 20.07,24.921 C21.24,24.48 23.193,24.327 23.589,24.651 C23.778,24.804 23.805,24.894 23.787,25.317 C23.76,25.884 23.922,26.1 24.543,26.316 C25.038,26.487 25.74,26.595 25.74,26.487 C25.74,26.442 25.461,24.282 25.11,21.69 C24.6974211,18.5925789 24.5544931,17.4880471 24.5053664,16.5400725 L24.4956145,16.3232524 C24.4859932,16.0715876 24.4821906,15.821032 24.480775,15.5357489 L24.4807989,14.5551015 C24.485104,13.4033648 24.5113043,13.2886957 24.66,13.14 C24.669,13.131 24.6778425,13.12245 24.6874511,13.1143275 L24.7079635,13.0986458 C24.8698927,12.9877292 25.3290785,12.9655458 28.9995237,12.9611092 L30.0823615,12.9602858 C30.1795978,12.960245 30.2786295,12.96021 30.379491,12.96018 L34.420509,12.96018 C34.5213705,12.96021 34.6204023,12.960245 34.7176385,12.9602858 L35.8004763,12.9611092 C39.4709215,12.9655458 39.9301073,12.9877292 40.0920365,13.0986458 L40.1125489,13.1143275 C40.1221575,13.12245 40.131,13.131 40.14,13.14 C40.2886957,13.2886957 40.314896,13.4033648 40.3192011,14.5551015 L40.3199364,14.9328056 L40.3199364,14.9328056 L40.32,15.147 L40.32,16.965 L38.88,27.765 C37.7357324,36.3283099 37.4988312,38.1609498 37.4514388,39.3672916 L37.445585,39.5472546 L37.445585,39.5472546 L37.443036,39.6642101 C37.4426898,39.6836004 37.4423805,39.7029595 37.4421047,39.7223169 L37.4408236,39.8386804 L37.4408236,39.8386804 L37.44,40.077 C37.44,41.751 37.377,42.03 36.873,42.561 C36.711,42.723 36.423,42.939 36.225,43.029 L36.225,43.029 L36.1927668,43.0433098 C36.1852615,43.0463979 36.177469,43.0494253 36.169271,43.0523932 L36.1433432,43.0611198 C35.8330369,43.1580257 34.9176831,43.1875515 28.7571124,43.1963616 L28.1998025,43.1970864 C28.1046094,43.1971987 28.0082525,43.1973067 27.910717,43.1974107 L27.0006762,43.1982419 C26.8959361,43.1983231 26.7899732,43.1984006 26.6827726,43.1984747 L25.3360141,43.1992084 C25.2186762,43.1992573 25.1000417,43.1993034 24.9800957,43.1993469 L15.1489999,43.1993308 C15.028817,43.1992863 14.9099507,43.199239 14.7923862,43.1991888 L13.4431466,43.1984358 C13.3357587,43.1983598 13.2296132,43.1982802 13.1246953,43.1981968 L12.2131771,43.1973433 C12.1154909,43.1972365 12.0189878,43.1971255 11.9236529,43.1970102 L11.3655428,43.1962656 C5.92225061,43.1882792 4.57760017,43.1637001 4.12598834,43.089481 L4.08368522,43.0818925 C4.06390334,43.0780142 4.04608692,43.0740091 4.02983526,43.069873 L3.99929956,43.0614249 C3.98017503,43.0556748 3.9633574,43.049687 3.94789685,43.0434515 L3.92560512,43.0339115 L3.92560512,43.0339115 L3.915,43.029 C3.474,42.831 2.934,42.255 2.799,41.841 C2.70960811,41.5643108 2.0786302,36.9629869 1.43837465,32.0983791 L1.328625,31.262625 C1.05452027,29.1705811 0.784298393,27.0728053 0.559861193,25.2889959 L0.472627485,24.5929748 C0.19065011,22.3337728 7.28196869e-13,20.7085135 7.28168271e-13,20.475 C0.009,17.649 1.683,14.679 4.212,13.023 C4.986,12.51 5.04,12.456 5.04,12.168 C5.04,11.817 5.625,8.208 5.76,7.722 C5.877,7.299 6.066,7.2 6.696,7.2 L6.696,7.2 L7.2,7.2 L7.2,4.32 L6.66,4.32 C5.652,4.32 5.544,3.915 6.111,2.25 C6.57,0.891 6.561,0.909 6.786,0.792 C6.894,0.729 9.027,0.549 11.835,0.36 L11.835,0.36 L12.4054045,0.320090379 C14.8636837,0.149877551 17.1057857,0.0173571429 17.532,0.009 Z M12.591,13.23 C11.214,12.906 8.739,12.924 7.38,13.266 C5.895,13.653 4.275,14.706 3.258,15.93 C2.277,17.136 1.53,19.098 1.53,20.502 C1.53,20.830125 2.12973958,25.5776076 2.76578137,30.4395796 L2.87506759,31.2733788 C3.5134184,36.1343785 4.155875,40.863875 4.239,41.157 C4.38272727,41.6980909 4.53439669,41.7547107 6.99939745,41.7595863 L10.071,41.76 L10.125,32.976 L10.377,32.598 C10.71,32.085 11.241,31.752 11.79,31.698 L11.79,31.698 L12.24,31.653 L12.2402428,30.2315527 C12.2443906,28.9109844 12.310875,28.841625 13.113,28.764 C14.031,28.665 14.517,28.539 15.102,28.233 C15.732,27.909 18,26.136 18,25.965 C18,25.902 18.144,24.804 18.315,23.526 C18.675,20.835 18.702,20.133 18.45,19.089 C17.757,16.2 15.48,13.923 12.591,13.23 Z M36,38.88 L31.68,38.88 L31.68,41.76 L33.6346987,41.7595227 C34.59088,41.75508 35.292,41.7198 35.46,41.661 C35.892,41.508 36,41.157 36,39.915 L36,39.915 L36,38.88 Z M17.923125,33.1411667 L16.3009861,33.1411049 C13.1266389,33.1445556 12.1,33.172 11.97,33.237 C11.6057143,33.4191429 11.5363265,33.4951224 11.5326589,35.6516774 L11.5326472,36.0542886 C11.5332245,36.4793878 11.5354286,36.9732857 11.538,37.548 L11.538,37.548 L11.565,41.301 L11.979,41.715 L29.781,41.715 L30.195,41.301 L30.195,33.579 L29.781,33.165 L20.988,33.147 C19.8315,33.144 18.815,33.142 17.923125,33.1411667 Z M19.728,34.749 C20.385,34.497 21.339,34.497 22.005,34.749 C23.868,35.442 24.381,38.07 22.95,39.51 C21.582,40.869 19.152,40.491 18.261,38.781 C17.955,38.187 17.919,37.035 18.18,36.333 C18.432,35.658 19.08,35.001 19.728,34.749 Z M20.88,36.09 C20.115,36.09 19.53,36.675 19.53,37.44 C19.53,38.205 20.115,38.79 20.88,38.79 C22.248,38.79 22.752,36.981 21.582,36.27 C21.402,36.162 21.123,36.09 20.88,36.09 Z M38.727,17.28 L31.1768747,17.2801994 C31.0815101,17.2802369 30.9879292,17.2802806 30.8960991,17.2803315 L30.1159977,17.2810023 C30.0343724,17.2811029 29.9543981,17.281213 29.8760417,17.2813333 L29.4250507,17.2821854 C26.3282716,17.2892685 26.1,17.3183333 26.1,17.433 C26.109,17.523 26.379,19.638 26.712,22.131 C27.324,26.667 27.324,26.676 27.54,26.73 C28.197,26.91 28.935,27.594 29.277,28.332 C29.448,28.701 29.475,28.953 29.502,30.204 L29.502,30.204 L29.538,31.662 L29.979,31.698 C30.519,31.752 31.05,32.094 31.383,32.598 L31.383,32.598 L31.635,32.967 L31.662,35.208 L31.689,37.44 L36.045,37.44 L37.341,27.693 C38.052,22.338 38.655,17.802 38.682,17.613 L38.682,17.613 L38.727,17.28 Z M28.08,30.24 L13.68,30.24 L13.68,31.68 L28.08,31.68 L28.08,30.24 Z M22.311,26.307 C22.212,25.992 22.167,25.983 21.555,26.1 C20.286,26.352 19.242,26.973 17.46,28.521 L17.46,28.521 L17.145,28.791 L22.437,28.8 L22.437,28.8 L22.9925191,28.7995601 C25.6406909,28.7953548 27.72,28.7616774 27.72,28.728 C27.72,28.683 27.621,28.557 27.504,28.44 C27.243,28.206 26.739,28.089 25.938,28.08 C24.183,28.071 22.644,27.315 22.311,26.307 Z M30.897,20.295 C31.536,20.124 33.21,20.124 33.867,20.295 C34.533,20.466 35.073,20.736 35.442,21.096 C35.865,21.483 36,21.789 36,22.32 C36,22.851 35.865,23.157 35.442,23.544 C34.776,24.183 33.795,24.48 32.4,24.48 C31.005,24.48 30.024,24.183 29.358,23.544 C28.935,23.157 28.8,22.851 28.8,22.32 C28.8,22.068 28.854,21.753 28.926,21.618 C29.223,21.051 29.979,20.547 30.897,20.295 Z M10.934768,18.0001653 C11.023464,18.0002071 11.1101164,18.0002584 11.1947745,18.0003208 L11.9041772,18.0012292 C14.5370199,18.006431 14.7763905,18.0326248 14.9170732,18.1581466 L14.957118,18.1976243 C15.0895397,18.3388582 15.1146212,18.5041107 15.1190848,20.0095215 L15.1190848,21.7504785 C15.1144352,23.3186147 15.0874138,23.4325862 14.94,23.58 L14.94,23.58 L14.9170732,23.6018534 C14.7802984,23.7238885 14.5502421,23.7520371 12.1180895,23.758287 L11.679184,23.7591573 C11.6023067,23.7592711 11.5235333,23.7593704 11.4428148,23.7594568 L8.71718519,23.7594568 C8.63646667,23.7593704 8.55769333,23.7592711 8.480816,23.7591573 L8.04191052,23.758287 C5.47077778,23.75168 5.3606,23.7206 5.22,23.58 C5.07258621,23.4325862 5.0455648,23.3186147 5.04091517,21.7504785 L5.04003838,21.1205589 L5.04003838,21.1205589 L5.04,20.88 C5.04,20.7971379 5.0400107,20.7169834 5.04003838,20.6394411 L5.04091517,20.0095215 C5.0455648,18.4413853 5.07258621,18.3274138 5.22,18.18 C5.3644,18.0356 5.47671111,18.00672 8.25582281,18.0012292 L8.96522548,18.0003208 C9.04988356,18.0002584 9.136536,18.0002071 9.225232,18.0001653 Z M32.535,21.708 C31.491,21.681 30.762,21.843 30.438,22.176 C30.294,22.32 30.303,22.347 30.501,22.509 C31.122,23.013 33.093,23.112 33.975,22.68 C34.227,22.554 34.425,22.392 34.425,22.32 C34.425,22.248 34.227,22.086 33.975,21.96 C33.588,21.771 33.381,21.735 32.535,21.708 Z M13.68,19.44 L6.48,19.44 L6.48,22.32 L13.68,22.32 L13.68,19.44 Z M38.88,14.4 L25.92,14.4 L25.92,15.84 L38.88,15.84 L38.88,14.4 Z M13.023,8.64 L7.137,8.64 L6.939,9.873 C6.822,10.557 6.714,11.205 6.687,11.313 L6.687,11.313 L6.642,11.52 L13.518,11.52 L13.473,11.313 C13.446,11.205 13.338,10.557 13.221,9.873 L13.221,9.873 L13.023,8.64 Z M11.52,4.32 L8.64,4.32 L8.64,7.2 L11.52,7.2 L11.52,4.32 Z M17.28,1.53 L17.037,1.539 C16.893,1.548 14.859,1.683 12.51,1.854 C10.161,2.016 8.127,2.151 8.001,2.151 C7.821,2.16 7.749,2.214 7.704,2.376 C7.677,2.493 7.623,2.655 7.596,2.736 C7.55181818,2.84645455 7.84502479,2.87256198 10.3734298,2.87840421 L10.8158523,2.87920126 C10.8931472,2.87930649 10.9722482,2.87939883 11.0531959,2.87947966 L17.28,2.88 L17.28,1.53 Z" id="Combined-Shape"></path>
                </g>
            </g>
        </g>
    </g>
</svg>