<?xml version="1.0" encoding="UTF-8"?>
<svg width="48px" height="37px" viewBox="0 0 48 37" version="1.1" xmlns="http://www.w3.org/2000/svg" xmlns:xlink="http://www.w3.org/1999/xlink">
    <title>svg/software_ic</title>
    <g id="Page-1" stroke="none" stroke-width="1" fill="none" fill-rule="evenodd">
        <g id="Product-All-Category" transform="translate(-164.000000, -466.000000)" fill="#47CDFE" fill-rule="nonzero">
            <g id="Group-2" transform="translate(146.000000, 442.000000)">
                <g id="software_ic" transform="translate(18.000000, 24.000000)">
                    <path d="M38.6760364,0.0018522 C38.7880826,0.0019404 38.8987288,0.0020328 39.0079929,0.0021296 L39.6471334,0.0027648 C39.75094,0.00288 39.8534,0.003 39.9545313,0.003125 L40.5455162,0.0039366 C46.5864281,0.013122 47.494907,0.04374 47.72429,0.1458 L47.7442253,0.1557376 C47.750281,0.1591232 47.7557947,0.1625824 47.760909,0.1661168 L47.7751962,0.1769472 C47.7796541,0.1806336 47.783855,0.1843968 47.7879415,0.1882384 L47.8,0.2 C47.8186047,0.218604651 47.8354786,0.236603569 47.8507829,0.263503339 L47.8619694,0.285495617 L47.8619694,0.285495617 L47.8725823,0.311716956 C47.8743041,0.316489114 47.8760027,0.321474619 47.8776784,0.326692037 L47.8874593,0.360928047 C47.9667133,0.671895163 47.9901546,1.65548387 47.997088,5.63263761 L47.9978433,6.12441372 C47.9979568,6.20882076 47.9980643,6.29446237 47.9981662,6.38135711 L47.9987121,6.91791163 C47.9987926,7.00989315 47.998868,7.10316494 47.9989388,7.19774556 L47.999839,9.38270542 C47.9998591,9.49651949 47.9998767,9.61177236 47.9998921,9.7284826 L47.9998921,15.0715174 C47.9998767,15.1882276 47.9998591,15.3034805 47.999839,15.4172946 L47.9989388,17.6022544 C47.998868,17.6968351 47.9987926,17.7901068 47.9987121,17.8820884 L47.9981662,18.4186429 C47.9980643,18.5055376 47.9979568,18.5911792 47.9978433,18.6755863 L47.997088,19.1673624 C47.9901546,23.1445161 47.9667133,24.1281048 47.8874593,24.439072 L47.8776784,24.473308 C47.8760027,24.4785254 47.8743041,24.4835109 47.8725823,24.488283 L47.8619694,24.5145044 L47.8619694,24.5145044 L47.8507829,24.5364967 C47.8354786,24.5633964 47.8186047,24.5813953 47.8,24.6 C47.62,24.78 47.47,24.8 46.2,24.8 L46.2,24.8 L44.8,24.8 L44.799909,31.8126718 C44.7998862,31.9059581 44.7998578,31.9973552 44.7998222,32.086903 L44.7989631,33.0752618 C44.7948154,35.7893563 44.7740769,36.3135566 44.6703843,36.5093512 L44.6523228,36.539262 L44.6523228,36.539262 L44.6326567,36.5650063 C44.6292416,36.5690562 44.6257567,36.5730123 44.6222007,36.5769145 L44.6,36.6 C44.5931034,36.6068966 44.5862901,36.6135553 44.5792808,36.6199844 L44.5573857,36.6385912 C44.396095,36.7641314 44.0252347,36.7920292 40.8589093,36.7982287 L40.3872812,36.7989749 C40.3054139,36.7990775 40.2218921,36.7991697 40.1366809,36.7992527 L38.4128806,36.7999723 C38.3061396,36.7999815 38.1974997,36.7999877 38.0869261,36.7999918 L30.4,36.8 L30.4,35.2 L43.2,35.2 L43.2,33.6 L30.4,33.6 L30.4,32 L33.6,32 L33.6,24.8 L21.4075173,24.799989 C21.2800503,24.7999854 21.1542384,24.7999805 21.0300597,24.799974 L18.0581129,24.7991088 C17.9615554,24.7990402 17.8664338,24.7989664 17.7727261,24.7988869 L16.9669408,24.7980071 C12.354181,24.7916765 11.6726235,24.7652372 11.4698317,24.6548143 L11.4490941,24.6421963 C11.4459078,24.6400346 11.4428417,24.6378433 11.4398741,24.6356219 L11.4075832,24.6074992 L11.4075832,24.6074992 L11.3863685,24.5860115 C11.3819312,24.5812876 11.3775995,24.5764529 11.3733709,24.571359 L11.3609921,24.5551511 C11.3469053,24.5349881 11.3340511,24.5098299 11.3223216,24.473308 L11.3125407,24.439072 C11.2364569,24.1405435 11.21181,23.222127 11.2038258,19.6304003 L11.202912,19.1673624 C11.202496,18.9287332 11.2021394,18.6793271 11.2018338,18.4186429 L11.2010612,17.6022544 C11.2009905,17.5076738 11.2009244,17.4117844 11.2008628,17.3145675 L11.2008628,7.48543248 C11.2009244,7.38821563 11.2009905,7.29232618 11.2010612,7.19774556 L11.2018338,6.38135711 C11.2021394,6.1206729 11.202496,5.87126684 11.202912,5.63263761 L11.2038258,5.16959974 C11.21181,1.57787297 11.2364569,0.659456479 11.3125407,0.360928047 L11.3223216,0.326692037 C11.3340511,0.290170111 11.3469053,0.265011949 11.3609921,0.244848881 L11.3733709,0.228641 C11.381828,0.218453218 11.3906977,0.209302326 11.4,0.2 L11.4,0.2 L11.4248038,0.1769472 C11.4337197,0.1695744 11.4436634,0.1625088 11.4557747,0.1557376 L11.47571,0.1458 C11.705093,0.04374 12.6135719,0.013122 18.6544838,0.0039366 L19.2454688,0.003125 C19.3466,0.003 19.44906,0.00288 19.5528666,0.0027648 L20.1920071,0.0021296 C20.3012712,0.0020328 20.4119174,0.0019404 20.5239636,0.0018522 Z M9.6,16.8 L9.6,18.4 L5.6,18.4 L5.6,32 L23.2,32 L23.2,26.4 L24.8,26.4 L24.8,32 L27.1877924,32.0009098 C28.3302268,32.0058412 28.436087,32.036087 28.61,32.21 C28.8,32.4 28.82,32.51 28.78,33.2 C28.7,34.58 27.85,35.82 26.55,36.46 L26.55,36.46 L25.95,36.75 L2.85,36.75 L2.25,36.46 C0.95,35.82 0.1,34.58 0.02,33.2 C-0.02,32.51 3.48427884e-13,32.4 0.19,32.21 C0.363913043,32.036087 0.469773157,32.0058412 1.61220761,32.0009098 L4,32 L4.000675,21.7861162 C4.00075,21.6979458 4.00083333,21.6114583 4.00092593,21.5266204 L4.0016,21.03712 C4.008,17.2752 4.04,17.16 4.2,17 C4.37034483,16.8296552 4.50049941,16.8039952 6.30561729,16.8005092 L9.6,16.8 Z M11.53,33.6 L1.79,33.6 L1.94,33.88 C2.15,34.29 2.81,34.85 3.26,35.01 C3.53473684,35.1094737 8.41817175,35.1618283 13.5441697,35.1670637 L15.2558303,35.1670637 C20.3818283,35.1618283 25.2652632,35.1094737 25.54,35.01 C25.99,34.85 26.65,34.29 26.86,33.88 L26.86,33.88 L27.01,33.6 L17.27,33.6 L16.84,34 L16.4,34.4 L12.4,34.4 L11.96,34 L11.53,33.6 Z M36.8,24.8 L35.2,24.8 L35.2,32 L40,32 L40,24.8 L38.4,24.8 L38.4,25.8 C38.4,26.98 38.28,27.2 37.6,27.2 C36.92,27.2 36.8,26.98 36.8,25.8 L36.8,25.8 L36.8,24.8 Z M43.2,24.8 L41.6,24.8 L41.6,32 L43.2,32 L43.2,24.8 Z M46.4,6.4 L12.8,6.4 L12.8,23.2 L46.4,23.2 L46.4,6.4 Z M16.8,20 L16.8,21.6 L14.4,21.6 L14.4,20 L16.8,20 Z M22.4,20 L22.4,21.6 L19.2,21.6 L19.2,20 L22.4,20 Z M28.8,20 L28.8,21.6 L24,21.6 L24,20 L28.8,20 Z M38.35,9.42 C38.41,9.26 38.45,9.26 39.26,9.54 C39.69,9.68 39.95,9.83 39.94,9.91 C39.9308333,10.00625 39.2893576,11.9952257 38.5894126,14.1294119 L38.3975,14.71375 C38.205,15.2990625 38.0120313,15.8833594 37.8302344,16.4311914 L37.6525926,16.9655556 C37.1911111,18.3511111 36.8366667,19.3933333 36.81,19.42 C36.73,19.51 35.2,19.02 35.2,18.91 C35.2,18.881875 36.1492188,16.0092578 37.0064819,13.4299097 L37.195048,12.862824 C37.7847005,11.0904167 38.290625,9.57833333 38.35,9.42 Z M16.8,16 L16.8,17.6 L14.4,17.6 L14.4,16 L16.8,16 Z M28.8,16 L28.8,17.6 L19.2,17.6 L19.2,16 L28.8,16 Z M33.8,11.4 C33.83,11.4 34.12,11.67 34.45,12 L34.45,12 L35.04,12.6 L34.15,13.5 L33.25,14.4 L35.05,16.2 L33.8,17.45 L32.5,16.14 L32.5,16.14 L32.2076331,15.8469965 C31.2252083,14.8590972 31.2,14.785 31.2,14.4 L31.2003214,14.3471867 C31.2057278,13.9733837 31.2934783,13.8756522 32.47,12.68 C33.17,11.98 33.77,11.4 33.8,11.4 Z M41.4,11.4 C41.43,11.4 42.03,11.98 42.73,12.68 C43.96,13.93 44,13.98 44,14.4 C44,14.82 43.97,14.87 42.7,16.14 L42.7,16.14 L41.4,17.45 L40.15,16.2 L41.95,14.4 L41.05,13.5 L40.16,12.6 L40.75,12 C41.08,11.67 41.37,11.4 41.4,11.4 Z M16.8,12 L16.8,13.6 L14.4,13.6 L14.4,12 L16.8,12 Z M22.4,12 L22.4,13.6 L19.2,13.6 L19.2,12 L22.4,12 Z M28.8,12 L28.8,13.6 L24,13.6 L24,12 L28.8,12 Z M16.8,8 L16.8,9.6 L14.4,9.6 L14.4,8 L16.8,8 Z M24.8,8 L24.8,9.6 L19.2,9.6 L19.2,8 L24.8,8 Z M28.8,8 L28.8,9.6 L26.4,9.6 L26.4,8 L28.8,8 Z M46.4,1.6 L12.8,1.6 L12.8,4.8 L46.4,4.8 L46.4,1.6 Z M14.4,2.4 C14.67,2.4 14.87,2.47 15,2.6 C15.13,2.73 15.2,2.93 15.2,3.2 C15.2,3.73 14.93,4 14.4,4 C13.87,4 13.6,3.73 13.6,3.2 C13.6,2.93 13.67,2.73 13.8,2.6 C13.93,2.47 14.13,2.4 14.4,2.4 Z M16.8,2.4 C17.07,2.4 17.27,2.47 17.4,2.6 C17.53,2.73 17.6,2.93 17.6,3.2 C17.6,3.73 17.33,4 16.8,4 C16.27,4 16,3.73 16,3.2 C16,2.93 16.07,2.73 16.2,2.6 C16.33,2.47 16.53,2.4 16.8,2.4 Z M19.2,2.4 C19.47,2.4 19.67,2.47 19.8,2.6 C19.93,2.73 20,2.93 20,3.2 C20,3.73 19.73,4 19.2,4 C18.67,4 18.4,3.73 18.4,3.2 C18.4,2.93 18.47,2.73 18.6,2.6 C18.73,2.47 18.93,2.4 19.2,2.4 Z" id="Combined-Shape"></path>
                </g>
            </g>
        </g>
    </g>
</svg>