<?xml version="1.0" encoding="UTF-8"?>
<svg width="40px" height="38px" viewBox="0 0 40 38" version="1.1" xmlns="http://www.w3.org/2000/svg" xmlns:xlink="http://www.w3.org/1999/xlink">
    <title>svg/Software_Services_ic</title>
    <g id="Page-1" stroke="none" stroke-width="1" fill="none" fill-rule="evenodd">
        <g id="Service-All-Category" transform="translate(-42.000000, -133.000000)" fill="#47CDFE" fill-rule="nonzero">
            <g id="Group-2" transform="translate(20.000000, 108.000000)">
                <g id="Software_Services_ic" transform="translate(22.000000, 25.000000)">
                    <g id="Group" transform="translate(19.559684, 18.757868) scale(-1, 1) rotate(-180.000000) translate(-19.559684, -18.757868) translate(0.059684, 0.257868)">
                        <path d="M28.5290526,0 C29.0662105,0 29.6332105,0.0373026316 29.7898816,0.0820657895 C30.4165658,0.276039474 30.8791184,0.880342105 30.9537237,1.61147368 C30.9761053,1.83528947 31.0357895,2.01434211 31.0805526,2.01434211 C31.1253158,2.01434211 31.4311974,2.13371053 31.7594605,2.27546053 L32.3488421,2.53657895 L32.5801184,2.31276316 C33.0501316,1.85767105 33.8558684,1.73084211 34.44525,2.01434211 C34.8331974,2.20085526 36.0865658,3.46914474 36.2357763,3.82725 C36.4745132,4.40917105 36.3327632,5.18506579 35.9000526,5.63269737 L35.6762368,5.86397368 L35.9373553,6.45335526 C36.0791053,6.78161842 36.1984737,7.09496053 36.1984737,7.14718421 C36.1984737,7.19940789 36.3029211,7.23671053 36.4670526,7.23671053 C36.9519868,7.23671053 37.3399342,7.40084211 37.6905789,7.75894737 C38.13075,8.19911842 38.2128158,8.49007895 38.2128158,9.68376316 C38.2128158,10.6014079 38.1978947,10.6760132 38.0039211,11.0490395 C37.7204211,11.5936579 37.3175526,11.8696974 36.7207105,11.9293816 L36.2581579,11.9741447 L36.0865658,12.4292368 C36.0057434,12.6406184 35.9041974,12.8882664 35.8337368,13.0383405 L35.7956053,13.1156053 C35.6911579,13.3170395 35.6911579,13.3468816 35.7956053,13.4364079 C35.86275,13.4886316 36.0119605,13.7049868 36.1313289,13.9138816 C36.5267368,14.60025 36.4073684,15.3463026 35.7881447,16.0326711 L35.5344868,16.3087105 L35.5121053,24.7018026 L35.4897237,33.0874342 L35.2882895,33.6917368 C34.9376447,34.7063684 34.2065132,35.6389342 33.453,36.0268816 L33.4077339,36.0505469 C33.2985445,36.1084521 33.216458,36.1569872 33.1003644,36.1976379 L33.0519684,36.2134811 C32.589057,36.3549211 31.5593932,36.3930218 26.950475,36.4010166 L26.4333404,36.4017729 C26.3447366,36.4018802 26.2549133,36.4019785 26.1638525,36.4020681 L21.945265,36.4021535 C21.818968,36.4020931 21.691198,36.4020297 21.561937,36.4019639 L19.9380766,36.4010839 C19.7965976,36.4010053 19.6535551,36.4009261 19.5089311,36.4008466 L18.1641235,36.4001357 C18.0098471,36.4000586 17.8539347,36.3999825 17.6963684,36.3999079 L16.8871301,36.3990878 C9.11891842,36.3904496 2.97923684,36.3613618 2.835,36.3253026 C1.55925,36.0268816 0.432710526,34.7660526 0.126828947,33.31125 C0.0522236842,32.9585706 0.0115299043,28.3407514 0.00474760766,23.3358929 L0.00474760766,20.3175579 C0.0115299043,15.3130077 0.0522236842,10.6970383 0.126828947,10.34775 C0.447631579,8.83326316 1.58163158,7.59481579 2.90960526,7.31877632 C3.14731307,7.26835345 4.3378392,7.24053394 5.53603967,7.23699654 L6.0472685,7.23697207 C7.14400839,7.24016135 8.13094465,7.26449456 8.25134211,7.31131579 C8.70643421,7.48290789 8.84072368,8.14689474 8.49007895,8.49753947 L8.29610526,8.69151316 L5.69984211,8.72881579 C3.20802632,8.76611842 3.09611842,8.77357895 2.80515789,8.93025 C2.38736842,9.15406579 1.91735526,9.69868421 1.71592105,10.2134605 L1.54432895,10.63125 L1.54432895,24.9554605 L17.7560526,24.9778421 L33.9603158,24.9927632 L33.9603158,17.3830263 L33.6842763,17.3830263 C33.3410921,17.3830263 32.8039342,17.1442895 32.5353553,16.8906316 L32.3339211,16.6966579 L31.8266053,16.9204737 C31.5431053,17.0398421 31.2372237,17.1666711 31.1476974,17.1890526 C31.0208684,17.2263553 30.9761053,17.3158816 30.9388026,17.6292237 C30.8492763,18.28575 30.5284737,18.7557632 29.9763947,19.0392632 C29.6182895,19.2257763 28.3126974,19.3078421 27.6561711,19.1810132 C26.8429737,19.0318026 26.3058158,18.4573421 26.22375,17.6590658 L26.1864474,17.2636579 L25.5224605,16.9801579 L24.8584737,16.6966579 L24.6271974,16.8980921 C24.2243289,17.2263553 23.95575,17.3308026 23.4782763,17.3308026 C23.1723947,17.3308026 22.9411184,17.2860395 22.7322237,17.1741316 C22.3293553,16.9652368 21.0909079,15.6969474 20.9416974,15.3537632 C20.7104211,14.7867632 20.8745526,13.9661053 21.3147237,13.5035526 L21.5012368,13.3095789 L21.2102763,12.6455921 L20.9193158,11.9741447 L20.5239079,11.9368421 C20.0613553,11.8846184 19.7554737,11.7428684 19.4794342,11.4369868 C19.0840263,11.0117368 19.0094211,10.7804605 18.9795789,9.72106579 L18.9497368,8.72881579 L14.3242105,8.72881579 L14.1078553,8.51246053 C13.7422895,8.14689474 13.8467368,7.55751316 14.31675,7.31877632 C14.4239951,7.26157895 15.3945629,7.23864042 17.4385744,7.23682818 L20.9416974,7.23671053 L21.2251974,6.56526316 L21.5161579,5.88635526 L21.2923421,5.64015789 C20.8223289,5.103 20.7104211,4.32710526 21.0237632,3.71534211 C21.2177368,3.33485526 22.4039605,2.18593421 22.7769868,2.01434211 C23.2395395,1.80544737 23.7692368,1.82036842 24.23925,2.05164474 C24.4481447,2.15609211 24.6719605,2.30530263 24.7391053,2.37990789 C24.8584737,2.51419737 24.8883158,2.50673684 25.5224605,2.24561842 L26.1864474,1.97703947 L26.2685132,1.49210526 C26.3729605,0.865421053 26.6415395,0.484934211 27.1637763,0.208894737 C27.5368026,0.0149210526 27.6114079,0 28.5290526,0 Z M33.9677763,26.4848684 L1.49956579,26.4848684 L1.52194737,29.7525789 C1.54432895,32.9382237 1.55178947,33.0202895 1.71592105,33.4306184 C1.99196053,34.1169868 2.54403947,34.6616053 3.14834211,34.8481184 C3.23886316,34.8739816 8.18217474,34.8998447 14.6564128,34.9062818 L15.4100454,34.9069372 C15.5367201,34.9070317 15.6639138,34.9071188 15.7916028,34.9071982 L17.7411316,34.9078026 L17.7411316,34.9078026 L18.1849645,34.9080509 L18.1849645,34.9080509 L19.8704745,34.9088544 C20.0050514,34.908908 20.1381789,34.9089582 20.2698728,34.9090048 L24.1165256,34.9091114 C24.2186023,34.9090671 24.3194201,34.9090182 24.4189949,34.9089644 L25.5552404,34.908083 C25.6451246,34.9079893 25.7338292,34.9078904 25.8213701,34.9077862 L26.3327781,34.9070965 C31.475653,34.8992953 32.2672908,34.8703285 32.4905921,34.7958947 C32.9456842,34.6392237 33.4306184,34.1692105 33.7066579,33.6022105 L33.9230132,33.1620395 L33.9453947,29.8271842 L33.9677763,26.4848684 Z M27.2434482,28.164066 L27.6489493,28.1648596 C29.3033508,28.169321 29.652164,28.1882819 29.8816712,28.2688658 L29.9330565,28.2885775 L29.9330565,28.2885775 L29.9834459,28.3106056 C30.0004363,28.3183487 30.0178007,28.3264993 30.0360789,28.3350789 C30.6030789,28.5887368 30.9984868,28.9617632 31.2745263,29.4765395 C31.8788289,30.618 31.5431053,31.9907368 30.4687895,32.7293289 C29.8122632,33.1844211 29.6182895,33.1993421 25.6791316,33.1918816 C23.7319342,33.1844211 22.0085526,33.1545789 21.8518816,33.1172763 C20.3224737,32.7591711 19.4570526,31.0581711 20.0762763,29.6481316 C20.2851711,29.1855789 20.8521711,28.6111184 21.3445658,28.3723816 L21.7623553,28.1634868 L27.0223032,28.163822 C27.0981295,28.163889 27.171822,28.1639694 27.2434482,28.164066 Z M14.5704079,28.3649211 C15.1075658,28.6111184 15.5701184,29.0662105 15.8237763,29.6108289 C15.9879079,29.9614737 16.01775,30.1330658 16.01775,30.6627632 C16.01775,31.2073816 15.9879079,31.3565921 15.8088553,31.7221579 C15.2866184,32.7890132 13.9959474,33.4082368 12.9141711,33.1023553 C11.6235,32.7367895 10.8326842,31.5132632 11.0639605,30.2375132 C11.2206316,29.3870132 11.7279474,28.7379474 12.5411447,28.3574605 C13.1305263,28.0814211 13.9661053,28.0814211 14.5704079,28.3649211 Z M6.99051316,28.1634868 C7.49036842,28.1634868 7.66196053,28.2007895 8.03498684,28.3723816 C8.60944737,28.6409605 9.13168421,29.1930395 9.34057895,29.7525789 C9.56439474,30.3345 9.52709211,31.2148421 9.26597368,31.7445395 C8.74373684,32.8188553 7.48290789,33.3933158 6.35636842,33.0874342 C5.89381579,32.9606053 5.26713158,32.5577368 5.03585526,32.2443947 C4.61806579,31.6773947 4.52853947,31.4013553 4.52853947,30.6627632 C4.52853947,30.0733816 4.55838158,29.8943289 4.70013158,29.6108289 C4.97617105,29.0512895 5.34919737,28.6782632 5.88635526,28.4096842 C6.32652632,28.1933289 6.46081579,28.1634868 6.99051316,28.1634868 Z M26.8705586,29.6186307 L25.3582901,29.6187399 C23.6852023,29.6220173 22.2957829,29.6425362 22.1726842,29.6630526 C21.8518816,29.7301974 21.4564737,30.1330658 21.3967895,30.4687895 C21.3296447,30.8045132 21.5534605,31.3565921 21.8071184,31.4908816 C22.1726842,31.6848553 22.4711053,31.6997763 25.8656447,31.6848553 L29.3720921,31.6699342 L29.62575,31.4908816 C30.0808421,31.1626184 30.2076711,30.5732368 29.90925,30.1330658 C29.6012642,29.6643917 29.6057277,29.6223288 26.8705586,29.6186307 Z M13.1305263,29.7600395 C12.7276579,29.9540132 12.5486053,30.2449737 12.5486053,30.6926053 C12.5486053,30.9761053 12.5933684,31.0805526 12.7948026,31.3043684 C13.1752895,31.7221579 13.7273684,31.7669211 14.1899211,31.4162763 C14.6375526,31.0880132 14.6599342,30.3718026 14.2346842,29.9465526 C13.9064211,29.6182895 13.5483158,29.5586053 13.1305263,29.7600395 Z M6.60256579,29.7376579 C5.90873684,30.0808421 5.78190789,30.9238816 6.34890789,31.4386579 C6.65478947,31.7221579 7.32623684,31.7146974 7.63957895,31.4311974 C8.09467105,31.0208684 8.10959211,30.3419605 7.67688158,29.9390921 C7.33369737,29.62575 6.97559211,29.5586053 6.60256579,29.7376579 Z M11.3474605,13.5259342 C11.5190526,14.0556316 12.8544868,19.7480132 12.8619474,19.9643684 C12.8619474,20.2777105 12.7425789,20.4940658 12.474,20.6283553 C12.2352632,20.7551842 12.0711316,20.7626447 11.8249342,20.6656579 C11.7354079,20.6283553 11.6085789,20.5164474 11.5414342,20.4194605 C11.4725842,20.3143737 11.0904408,18.8276278 10.7138794,17.277469 L10.5817264,16.7298675 C10.2327056,15.2740238 9.92186053,13.8993868 9.91503947,13.7049868 C9.90757895,13.46625 9.94488158,13.3767237 10.1463158,13.1976711 C10.5715658,12.8171842 11.1684079,12.9738553 11.3474605,13.5259342 Z M7.20686842,13.5781579 C7.63957895,13.5781579 7.92307895,13.8691184 7.92307895,14.3018289 C7.92307895,14.5853289 7.86339474,14.6748553 6.95321053,15.7044079 C6.42351316,16.30125 5.98334211,16.8234868 5.98334211,16.8533289 C5.98334211,16.8831711 6.17731579,17.1219079 6.41605263,17.3904868 C7.86776815,19.0297446 7.92261765,19.0845941 7.92327839,19.3432647 L7.92307895,19.4048289 L7.92307895,19.4048289 C7.92307895,19.9718289 7.31877632,20.3299342 6.83384211,20.0464342 C6.5205,19.8673816 4.41663158,17.4277895 4.32710526,17.1442895 C4.17789474,16.6444342 4.31218421,16.4056974 5.50586842,15.0628026 C6.10271053,14.3913553 6.66225,13.7795921 6.74431579,13.7124474 C6.83384211,13.6303816 7.02035526,13.5781579 7.20686842,13.5781579 Z M15.5626579,13.5781579 C15.7267895,13.5781579 15.9207632,13.6229211 15.9879079,13.6751447 C16.3161711,13.9213421 18.3752763,16.3310921 18.4498816,16.5474474 C18.6065526,17.0174605 18.4871842,17.2561974 17.6366842,18.2260658 C17.1965132,18.7259211 16.6220526,19.3600658 16.3534737,19.6435658 C15.9282237,20.0762763 15.8312368,20.1434211 15.5925,20.1434211 C15.4134474,20.1434211 15.2493158,20.0837368 15.1001053,19.9569079 C14.8389868,19.7330921 14.7643816,19.4421316 14.8986711,19.13625 C14.9508947,19.0168816 15.4059868,18.4573421 15.8983816,17.9052632 C16.3907763,17.3531842 16.8011053,16.8757105 16.8011053,16.8533289 C16.8011053,16.8234868 16.3758553,16.3310921 15.8610789,15.7491711 C14.742,14.4883421 14.6226316,14.2048421 15.0628026,13.7721316 C15.2045526,13.6229211 15.3313816,13.5781579 15.5626579,13.5781579 Z M28.5439737,1.50702632 L27.8053816,1.52940789 L27.7680789,2.17847368 C27.7158553,2.99167105 27.5964868,3.14088158 26.8429737,3.36469737 C26.5520132,3.45422368 25.9775526,3.69296053 25.5672237,3.89439474 C24.8883158,4.23757895 24.80625,4.25996053 24.5600526,4.18535526 C24.4183026,4.14059211 24.1348026,3.93915789 23.9259079,3.73026316 C23.7244737,3.52882895 23.5230395,3.35723684 23.4782763,3.35723684 C23.4335132,3.35723684 23.1574737,3.60343421 22.8515921,3.90931579 C22.2472895,4.51361842 22.2323684,4.59568421 22.6874605,4.91648684 C22.9560395,5.11046053 23.2171579,5.52078947 23.2171579,5.74460526 C23.2171579,5.84159211 23.0679474,6.20715789 22.8888947,6.55780263 C22.7098421,6.90844737 22.4860263,7.45306579 22.3965,7.75894737 C22.1503026,8.57214474 22.0234737,8.68405263 21.2177368,8.72881579 L20.5686711,8.76611842 L20.5462895,9.60915789 L20.5239079,10.4447368 L21.0685263,10.4447368 C21.4340921,10.4447368 21.6952105,10.4895 21.8742632,10.5790263 C22.113,10.6909342 22.1577632,10.773 22.3965,11.4892105 C22.5457105,11.9219211 22.7919079,12.5038421 22.9411184,12.7873421 C23.0903289,13.0708421 23.2171579,13.3692632 23.2171579,13.4438684 C23.2171579,13.6676842 23.0306447,13.9661053 22.6650789,14.3242105 C22.4785658,14.5032632 22.3218947,14.6897763 22.3218947,14.7270789 C22.3218947,14.8539079 23.3141447,15.8163158 23.4409737,15.8163158 C23.5081184,15.8163158 23.6946316,15.6820263 23.8513026,15.5104342 C24.1944868,15.1597895 24.4779868,14.9956579 24.7391053,14.9956579 C24.8360921,14.9956579 25.2091184,15.1448684 25.5523026,15.3239211 C25.9029474,15.5104342 26.4326447,15.73425 26.7385263,15.8163158 C27.1115526,15.9282237 27.3502895,16.0475921 27.4920395,16.1968026 C27.6785526,16.3982368 27.6934737,16.4653816 27.6934737,16.9950789 C27.6934737,17.3158816 27.7158553,17.6068421 27.7456974,17.6292237 C27.7680789,17.6590658 28.1560263,17.6814474 28.6036579,17.6814474 L29.4093947,17.6814474 L29.4093947,17.1442895 C29.4093947,16.7787237 29.4541579,16.5176053 29.5436842,16.3385526 C29.6555921,16.0998158 29.7376579,16.0550526 30.3792632,15.8461579 C30.7672105,15.7193289 31.3640526,15.4731316 31.6997763,15.309 C32.0429605,15.1374079 32.3936053,14.9956579 32.4905921,14.9956579 C32.6994868,14.9956579 32.9233026,15.1448684 33.3858553,15.5850395 L33.7365,15.9207632 L34.2960395,15.3686842 C34.6019211,15.0628026 34.8555789,14.7793026 34.8555789,14.7345395 C34.8555789,14.6897763 34.6914474,14.4883421 34.4825526,14.2869079 C34.2811184,14.0854737 34.0722237,13.8094342 34.0274605,13.6751447 C33.9528553,13.4438684 33.9752368,13.3618026 34.3184211,12.6605132 C34.5273158,12.2427237 34.7660526,11.6608026 34.8481184,11.3698421 C35.0719342,10.6163289 35.2211447,10.4969605 36.0343421,10.4447368 L36.6834079,10.4074342 L36.7057895,9.66884211 C36.7207105,9.19136842 36.6983289,8.90040789 36.6386447,8.83326316 C36.5789605,8.75865789 36.3775263,8.72881579 35.9746579,8.72881579 C35.1987632,8.72881579 35.0868553,8.63928947 34.8182763,7.78132895 C34.7063684,7.41576316 34.4676316,6.83384211 34.2811184,6.47573684 C33.9752368,5.88635526 33.9528553,5.81175 34.0274605,5.58047368 C34.0722237,5.43872368 34.2811184,5.16268421 34.4825526,4.96125 C34.6914474,4.75981579 34.8555789,4.55838158 34.8555789,4.51361842 C34.8555789,4.41663158 33.7961842,3.35723684 33.6917368,3.35723684 C33.6544342,3.35723684 33.4380789,3.54375 33.2142632,3.76756579 C32.6621842,4.32710526 32.5278947,4.34202632 31.7370789,3.93169737 C31.3789737,3.74518421 30.7970526,3.50644737 30.4389474,3.402 C29.5809868,3.14088158 29.484,3.02151316 29.484,2.23815789 C29.484,1.83528947 29.4541579,1.63385526 29.3795526,1.57417105 C29.3124079,1.51448684 29.0214474,1.49210526 28.5439737,1.50702632 Z M29.8197237,5.17760526 C31.3715132,5.64015789 32.5726579,6.84130263 33.0352105,8.39309211 C33.2366447,9.072 33.2217237,10.1836184 33.0053684,10.8923684 C32.5278947,12.4366974 31.1999211,13.7049868 29.6928947,14.0630921 C29.1035132,14.1973816 28.0068158,14.1973816 27.4696579,14.0556316 C26.2162895,13.7273684 25.0449868,12.7798816 24.5003684,11.6309605 C24.1124211,10.8326842 24.0079737,10.2731447 24.0527368,9.30327632 C24.0825789,8.69897368 24.1348026,8.43785526 24.2989342,8.02006579 C24.8435526,6.65478947 25.8059605,5.72968421 27.1861579,5.24475 C27.8874474,4.99109211 29.1109737,4.96125 29.8197237,5.17760526 Z M25.8507237,8.25880263 C25.6194474,8.72881579 25.5746842,8.90786842 25.5448421,9.43010526 C25.5075395,10.1985395 25.6418289,10.7058553 26.0446974,11.3101579 C26.4102632,11.8622368 26.9772632,12.2949474 27.6114079,12.5187632 C28.3201579,12.7649605 29.2005,12.7201974 29.8868684,12.3993947 C31.8116842,11.4966711 32.2742368,9.03469737 30.8194342,7.49782895 C29.34225,5.93111842 26.8056711,6.31906579 25.8507237,8.25880263 Z M11.3847632,7.25909211 C11.8025526,7.31877632 12.0263684,7.58735526 12.0263684,8.02006579 C12.0263684,8.28864474 11.9890658,8.37071053 11.7950921,8.53484211 C11.5414342,8.75119737 11.2057105,8.78103947 10.8998289,8.61690789 C10.4671184,8.37817105 10.4447368,7.76640789 10.8550658,7.41576316 C11.0490395,7.25163158 11.1385658,7.22925 11.3847632,7.25909211 Z" id="Combined-Shape"></path>
                    </g>
                </g>
            </g>
        </g>
    </g>
</svg>