<?xml version="1.0" encoding="UTF-8"?>
<svg width="210px" height="196px" viewBox="0 0 210 196" version="1.1" xmlns="http://www.w3.org/2000/svg" xmlns:xlink="http://www.w3.org/1999/xlink">
    <title>svg/splash_logo</title>
    <defs>
        <linearGradient x1="50%" y1="100%" x2="47.1030203%" y2="-2.42861287e-15%" id="linearGradient-1">
            <stop stop-color="#1451FD" offset="0%"></stop>
            <stop stop-color="#13A2F7" offset="100%"></stop>
        </linearGradient>
    </defs>
    <g id="Page-1" stroke="none" stroke-width="1" fill="none" fill-rule="evenodd">
        <g id="Splash" transform="translate(-83.000000, -309.000000)">
            <g id="splash_logo" transform="translate(84.000000, 309.000000)">
                <g id="Group-6" transform="translate(35.420000, 0.000000)" fill-rule="nonzero">
                    <g id="Group-2" fill="url(#linearGradient-1)">
                        <circle id="Oval" cx="60.6936" cy="60.6936" r="60.6936"></circle>
                    </g>
                    <g id="Screen-Shot-2022-02-12-at-12.58.14-PM" transform="translate(15.681600, 30.703200)" fill="#FFFFFF">
                        <g id="Group" transform="translate(45.000000, 29.856160) scale(-1, 1) rotate(-180.000000) translate(-45.000000, -29.856160) translate(0.000000, 0.856160)">
                            <path d="M30.155136,-5.18696197e-13 L32.803584,4.507008 L32.803584,4.507008 L33.268279,5.31423322 C34.5597336,7.5517631 35.8220846,9.69272229 36.195456,10.315008 L36.195456,10.315008 L36.985344,11.569536 L40.237824,5.900928 C44.791296,-1.905024 44.83776,-1.905024 49.25184,5.808 L49.25184,5.808 L52.597248,11.662464 L55.942656,5.947392 L59.2416,0.23232 L68.116224,0.092928 C69.4615437,0.0753037241 70.6412223,0.0621361617 71.671507,0.0599054765 L72.2187622,0.0598123373 C78.7879225,0.0730017027 78.7297766,0.634473931 76.990848,3.71712 C76.293888,4.925184 75.73632,6.086784 75.73632,6.226176 C75.73632,6.365568 78.477696,6.50496 81.823104,6.50496 C88.002816,6.50496 89.67552,6.876672 89.67552,8.224128 C89.67552,8.642304 83.356416,19.933056 75.643392,33.314688 C62.587008,55.942656 61.518336,57.661824 60.4032,57.522432 C59.47392,57.429504 58.684032,56.360832 56.128512,52.03968 C54.409344,49.112448 52.829568,46.649856 52.643712,46.603392 C52.411392,46.556928 50.831616,49.01952 49.065984,52.086144 C46.185216,57.15072 45.76704,57.661824 44.698368,57.522432 C43.67616,57.429504 42.9792,56.500224 40.516608,52.272 C38.936832,49.48416 37.449984,46.882176 37.264128,46.556928 C37.031808,46.185216 35.730816,48.043776 33.639936,51.667968 C30.945024,56.45376 30.2016,57.38304 29.179392,57.522432 C28.203648,57.661824 27.785472,57.336576 26.809728,55.663872 C15.4297651,36.0569933 5.49150582,18.655073 1.66946193,11.6605564 L1.3876009,11.1431823 C0.48880128,9.4879488 0,8.5307904 0,8.409984 C0,6.73728 0.92928,6.50496 7.527168,6.50496 L7.527168,6.50496 L8.12573919,6.50406702 C11.378256,6.49433966 13.9392,6.40672183 13.9392,6.319104 C13.9392,6.226176 13.381632,5.203968 12.731136,3.995904 C11.987712,2.648448 11.662464,1.533312 11.84832,0.92928 C11.8654759,0.874952862 11.8829838,0.823792973 11.9027493,0.775616256 L11.9343291,0.705565547 C12.2436994,0.0835215038 13.1600668,0.00808190206 19.6376737,0.000711954527 L30.155136,-5.18696197e-13 Z M79.2522772,10.2223196 L78.942336,10.22208 L73.1808,10.268544 L63.980928,26.298624 C58.916352,35.08032 54.82752,42.468096 54.920448,42.653952 C55.013376,42.886272 56.22144,45.07008 57.61536,47.532672 C59.00928,49.995264 60.310272,51.993216 60.496128,51.900288 C60.6554995,51.8547533 66.2701582,42.3154571 72.0212548,32.4386918 L72.7257909,31.2282279 C76.2482644,25.1737015 79.7405037,19.1327659 81.9818532,15.2067553 L82.4130829,14.4503749 C83.585595,12.3907222 84.3303014,11.0551795 84.425088,10.826112 C84.610944,10.361472 83.356416,10.22208 78.942336,10.22208 Z M44.5862058,5.887624 L44.558976,5.900928 C44.326656,6.133248 41.213568,11.430144 37.589376,17.702784 C30.387456,30.2016 29.690496,31.177344 28.435968,30.387456 C28.017792,30.108672 25.137024,25.508736 22.023936,20.165376 L22.023936,20.165376 L16.448256,10.4544 L10.547328,10.315008 L4.6464,10.175616 L6.923136,14.032128 C8.1312,16.169472 13.521024,25.415808 18.81792,34.61568 C24.114816,43.815552 28.57536,51.528576 28.668288,51.714432 C28.80768,51.946752 29.179392,51.853824 29.50464,51.482112 C29.7945754,51.1698739 34.5379178,43.0427628 39.4182883,34.587641 L40.6387377,32.4713597 C45.5119712,24.0135617 50.1625344,15.8516582 50.274048,15.472512 C50.506368,14.682624 44.977152,5.482752 44.558976,5.900928 Z M67.6586029,3.25274941 L61.79712,3.25248 L60.681984,5.018112 C60.1366773,5.85704533 55.8802559,13.1336268 50.921163,21.7198279 L50.4614924,22.5159705 C50.3076621,22.7824917 50.1532541,23.0501034 49.9983562,23.3186562 L49.5322802,24.1269885 L49.5322802,24.1269885 L49.298304,24.532992 L39.02976,42.375168 L41.399424,46.603392 C42.74688,48.973056 44.047872,51.156864 44.280192,51.482112 C44.558976,51.80736 44.884224,51.900288 45.116544,51.714432 C45.1276954,51.7004928 45.1632264,51.6441924 45.2216642,51.5480774 L45.368646,51.303516 C48.1656278,46.6146595 72.94848,3.7031808 72.94848,3.438336 C72.94848,3.345408 70.439424,3.25248 67.3728,3.25248 Z M22.395648,3.345408 C19.28256,3.298944 16.72704,3.345408 16.72704,3.531264 C16.72704,3.670656 19.468416,8.59584 22.860288,14.450304 C26.25216,20.304768 29.04,25.09056 29.086464,25.09056 C29.132928,25.09056 30.480384,22.860288 32.013696,20.165376 L32.013696,20.165376 L34.848,15.193728 L31.502592,9.339264 L28.11072,3.4848 Z" id="Combined-Shape"></path>
                        </g>
                    </g>
                </g>
                <text id="Africa-Market" font-family="CormorantGaramond-SemiBold, Cormorant Garamond" font-size="34.1" font-weight="500" fill="#010101">
                    <tspan x="0.48015" y="158.72">Africa Market</tspan>
                </text>
                <text id="Today" font-family="CormorantGaramond-SemiBold, Cormorant Garamond" font-size="28.6" font-weight="500" fill="#010101">
                    <tspan x="60.9191" y="186.8816">Today</tspan>
                </text>
                <text id="TM" font-family="Poppins-SemiBold, Poppins" font-size="8.8" font-weight="500" fill="#010101">
                    <tspan x="195.47352" y="139.85072">TM</tspan>
                </text>
            </g>
        </g>
    </g>
</svg>