<?xml version="1.0" encoding="UTF-8"?>
<svg width="45px" height="38px" viewBox="0 0 45 38" version="1.1" xmlns="http://www.w3.org/2000/svg" xmlns:xlink="http://www.w3.org/1999/xlink">
    <title>svg/sports_ic</title>
    <g id="Page-1" stroke="none" stroke-width="1" fill="none" fill-rule="evenodd">
        <g id="Product-All-Category" transform="translate(-166.000000, -298.000000)" fill="#47CDFE" fill-rule="nonzero">
            <g id="Group-2" transform="translate(146.000000, 275.000000)">
                <g id="sports_ic" transform="translate(20.000000, 23.000000)">
                    <path d="M44.64,36 L44.64,37.44 L-5.86109582e-13,37.44 L-5.86285932e-13,36 L44.64,36 Z M37.305,1.548 C37.773,1.368 38.862,1.458 39.366,1.71 C41.202,2.637 43.074,6.309 44.127,11.07 C44.541,12.915 44.667,14.049 44.613,15.435 C44.559,16.902 44.424,17.451 43.875,18.585 C42.957,20.457 41.355,21.78 39.528,22.194 L39.528,22.194 L38.88,22.338 L38.88,26.64 L44.64,26.64 L44.64,28.08 L35.298,28.08 L35.235,28.503 C34.821,31.302 32.652,33.669 29.844,34.38 C28.872,34.623 27.297,34.632 26.316,34.38 C23.769,33.741 21.708,31.68 21.06,29.124 C20.853,28.314 20.817,26.838 20.979,25.956 C21.213,24.66 22.023,23.175 22.986,22.23 C23.265,21.96 23.49,21.708 23.49,21.663 C23.49,21.618 23.301,21.303 23.076,20.952 L23.076,20.952 L22.671,20.313 L20.727,23.22 L18.792,26.136 L18.936,26.361 C19.332,26.964 19.395,27.216 19.395,28.125 C19.395,28.89 19.359,29.088 19.188,29.412 C18.927,29.907 18.378,30.447 17.892,30.699 C17.415,30.942 16.227,31.041 15.696,30.87 C15.219,30.726 14.589,30.285 14.283,29.898 C14.148,29.727 14.04,29.637 14.04,29.709 C14.04,29.781 13.887,30.168 13.698,30.564 C12.852,32.292 11.295,33.633 9.405,34.254 C8.469,34.56 6.696,34.65 5.697,34.443 C4.365,34.155 3.294,33.588 2.268,32.625 C1.278,31.698 0.747,30.861 0.306,29.547 C-0.036,28.53 -0.099,26.829 0.171,25.722 C0.819,22.986 2.826,20.979 5.562,20.331 C6.219,20.169 6.534,20.151 7.515,20.187 C8.73,20.232 9.558,20.43 10.458,20.889 C10.656,20.988 10.827,21.06 10.836,21.042 C10.845,21.024 11.169,20.583 11.547,20.061 L11.547,20.061 L12.24,19.098 L12.24,17.28 L10.7857315,17.2797857 C9.80504844,17.2773529 9.69194118,17.2519412 9.531,17.091 C9.36,16.92 9.342,16.821 9.378,16.2 C9.45,14.958 10.215,13.842 11.385,13.266 C11.889,13.023 11.997,13.005 12.96,13.005 C13.923,13.005 14.031,13.023 14.535,13.266 C15.705,13.842 16.47,14.958 16.542,16.2 C16.578,16.821 16.56,16.92 16.389,17.091 C16.218,17.262 16.101,17.28 14.94,17.28 L13.68,17.28 L13.68,18.72 L18.7662857,18.719449 C18.8423265,18.7193571 18.9175753,18.7192538 18.9919659,18.719139 L19.4274844,18.7183125 C20.9120625,18.7149375 21.96,18.7065 21.96,18.693 C21.96,18.684 21.717,17.946 21.42,17.055 C20.835,15.318 20.772,14.868 21.06,14.58 C21.2192069,14.4207931 21.3394067,14.4020119 23.280029,14.4001786 L26.244,14.4 L26.712,14.634 C27.621,15.084 28.071,15.849 28.08,16.929 C28.08,17.478 28.035,17.694 27.846,18.072 C27.423,18.918 26.622,19.431 25.722,19.44 L25.722,19.44 L25.2,19.44 L25.2,18.018 L25.578,17.955 C26.127,17.856 26.55,17.415 26.55,16.938 C26.55,16.479 26.217,16.065 25.758,15.93 C25.47,15.858 22.68,15.795 22.68,15.867 C22.68,15.876 22.923,16.614 23.22,17.496 C23.652,18.801 23.859,19.269 24.309,19.98 L24.309,19.98 L24.858,20.862 L25.254,20.691 C26.496,20.133 28.458,19.989 29.844,20.34 C30.744,20.574 31.842,21.096 32.535,21.636 C33.921,22.707 34.983,24.498 35.235,26.217 L35.235,26.217 L35.298,26.64 L37.44,26.64 L37.44,22.338 L36.792,22.194 C35.982,22.014 35.028,21.546 34.362,21.024 C33.21,20.106 32.22,18.513 31.86,17.01 C31.437,15.21 31.743,12.366 32.724,8.964 C33.903,4.923 35.586,2.196 37.305,1.548 Z M29.475,21.834 C28.782,21.672 28.17,21.627 27.495,21.699 C26.946,21.753 26.064,21.987 25.839,22.131 C25.749,22.185 25.929,22.536 26.658,23.679 L26.658,23.679 L27.594,25.155 L28.224,25.209 C28.926,25.263 29.259,25.407 29.673,25.848 C30.069,26.253 30.24,26.712 30.24,27.36 C30.24,28.656 29.376,29.52 28.08,29.52 C27.144,29.52 26.397,29.043 26.064,28.242 C25.866,27.765 25.884,26.865 26.1,26.379 L26.1,26.379 L26.28,25.983 L25.362,24.534 C24.858,23.733 24.435,23.067 24.408,23.04 C24.318,22.932 23.382,24.102 23.049,24.75 C22.599,25.614 22.41,26.37 22.41,27.36 C22.41,28.305 22.59,29.07 22.986,29.862 C23.994,31.869 25.893,33.039 28.107,33.039 C29.709,33.03 30.933,32.517 32.085,31.365 C33.273,30.186 33.768,28.989 33.768,27.36 C33.768,25.731 33.273,24.534 32.085,23.355 C31.293,22.554 30.438,22.059 29.475,21.834 Z M8.568,21.834 C6.57,21.339 4.626,21.897 3.15,23.391 C2.421,24.129 2.025,24.786 1.71,25.785 C1.431,26.658 1.431,28.044 1.71,28.935 C2.313,30.87 3.906,32.409 5.805,32.895 C6.516,33.075 7.848,33.075 8.568,32.895 C10.161,32.481 11.574,31.347 12.294,29.889 C12.528,29.412 12.807,28.611 12.762,28.566 C12.744,28.557 11.943,28.485 10.98,28.413 C9.774,28.323 9.216,28.305 9.189,28.368 C9.108,28.611 8.469,29.205 8.145,29.349 C7.659,29.574 6.732,29.574 6.255,29.349 C5.49,28.989 5.013,28.224 5.022,27.351 C5.04,26.064 5.913,25.209 7.218,25.2 L7.218,25.2 L7.812,25.2 L8.649,24.048 L8.649,24.048 L8.8602071,23.7578207 C9.24390533,23.2303314 9.59538462,22.7464615 9.702,22.617 L9.702,22.617 L9.918,22.32 L9.504,22.14 C9.27,22.041 8.847,21.906 8.568,21.834 Z M17.262,26.91 C16.371,26.37 15.21,27.036 15.21,28.08 C15.21,28.845 15.795,29.43 16.56,29.43 C17.928,29.43 18.432,27.621 17.262,26.91 Z M28.08,26.73 C27.927,26.73 27.729,26.811 27.63,26.91 C27.531,27.009 27.45,27.207 27.45,27.36 C27.45,27.513 27.531,27.711 27.63,27.81 C27.729,27.909 27.927,27.99 28.08,27.99 C28.233,27.99 28.431,27.909 28.53,27.81 C28.629,27.711 28.71,27.513 28.71,27.36 C28.71,27.207 28.629,27.009 28.53,26.91 C28.431,26.811 28.233,26.73 28.08,26.73 Z M7.2,26.73 C6.858,26.73 6.57,27.018 6.57,27.36 C6.57,27.909 7.263,28.197 7.65,27.81 C7.749,27.711 7.83,27.513 7.83,27.36 C7.83,27.207 7.749,27.009 7.65,26.91 C7.551,26.811 7.353,26.73 7.2,26.73 Z M11.169,23.31 C11.133,23.31 10.647,23.94 10.089,24.705 L10.089,24.705 L9.081,26.1 L9.189,26.415 C9.279,26.658 9.369,26.739 9.576,26.775 C9.80491304,26.8102174 10.3466484,26.8550813 10.9245731,26.8934143 L11.3121819,26.9178246 C12.0859792,26.964 12.8148261,26.9921739 12.843,26.964 C12.87,26.937 12.852,26.631 12.789,26.28 C12.654,25.533 12.141,24.435 11.61,23.778 C11.403,23.526 11.205,23.31 11.169,23.31 Z M12.798,21.132 C12.762,21.105 12.582,21.285 12.393,21.537 L12.393,21.537 L12.06,21.996 L12.501,22.455 C13.311,23.292 13.914,24.381 14.211,25.578 L14.211,25.578 L14.364,26.19 L14.562,25.983 L14.76,25.776 L13.806,23.481 C13.284,22.221 12.825,21.168 12.798,21.132 Z M17.7747457,20.160091 L17.2829915,20.1600924 C15.5268906,20.1615 14.13,20.17875 14.13,20.196 C14.13,20.214 14.589,21.339 15.156,22.689 L15.156,22.689 L16.182,25.155 L16.839,25.209 C17.208,25.236 17.514,25.263 17.514,25.254 C17.532,25.236 20.763,20.376 20.826,20.268 C20.88,20.187 20.187,20.16 17.514,20.16 Z M38.853,3.195 C38.358,2.907 37.944,2.907 37.458,3.204 C35.721,4.239 33.39,10.548 33.237,14.625 C33.174,16.2 33.273,16.695 33.84,17.901 C34.128,18.495 34.353,18.801 34.902,19.35 C35.613,20.07 36.144,20.394 36.972,20.637 L36.972,20.637 L37.44,20.781 L37.44,18.513 L37.431,16.245 L36.216,15.345 C35.55,14.85 34.956,14.391 34.902,14.337 C34.839,14.256 34.929,14.067 35.244,13.635 C35.478,13.311 35.685,13.05 35.703,13.05 C35.721,13.05 36.108,13.329 36.567,13.68 L36.567,13.68 L37.395,14.301 L37.44,11.61 C37.467,9.99 37.521,8.883 37.575,8.838 C37.6328571,8.784 38.061,8.49195918 38.5349563,8.1758309 L38.8541535,7.96385811 C39.3855918,7.61244898 39.8845714,7.29 39.906,7.29 C39.951,7.29 40.518,8.109 40.716,8.433 C40.752,8.505 40.446,8.766 39.825,9.18 L39.825,9.18 L38.88,9.81 L38.88,20.781 L39.357,20.637 C40.176,20.394 40.707,20.07 41.409,19.359 C42.192,18.585 42.633,17.811 42.939,16.677 C43.11,16.056 43.128,15.822 43.083,14.625 C42.921,10.512 40.59,4.221 38.853,3.195 Z M13.752,14.634 C13.329,14.454 12.564,14.454 12.15,14.634 C11.781,14.796 11.286,15.246 11.106,15.588 L11.106,15.588 L10.971,15.84 L14.949,15.84 L14.814,15.588 C14.625,15.237 14.139,14.787 13.752,14.634 Z M5.832,0.171 C6.543,-0.054 7.812,-0.054 8.541,0.171 C9.882,0.585 10.998,1.728 11.385,3.078 C11.529,3.573 11.547,3.6 11.826,3.6 C12.636,3.6 13.662,4.302 14.103,5.166 C14.274,5.499 14.346,5.805 14.382,6.3 C14.436,7.254 14.193,7.884 13.509,8.559 C12.834,9.216 12.33,9.396 11.295,9.342 C10.638,9.306 10.485,9.261 10.035,8.991 C9.756,8.82 9.441,8.577 9.351,8.442 L9.351,8.442 L9.18,8.199 L8.748,8.397 C8.415,8.55 8.1,8.595 7.29,8.622 C6.417,8.649 6.228,8.685 6.066,8.829 C5.571,9.288 4.248,9.504 3.402,9.27 C2.61,9.045 1.737,8.163 1.521,7.362 C1.206,6.174 1.602,4.878 2.493,4.203 C2.781,3.987 2.844,3.87 2.943,3.402 C3.24,1.926 4.401,0.63 5.832,0.171 Z M8.325,1.746 C7.452,1.35 6.615,1.404 5.742,1.917 C4.977,2.367 4.41,3.285 4.41,4.095 C4.41,4.689 4.266,4.932 3.78,5.22 C3.231,5.535 2.97,5.949 2.97,6.471 C2.97,7.236 3.546,7.83 4.302,7.83 C4.77,7.83 4.977,7.731 5.418,7.308 C5.778,6.966 5.796,6.966 6.93,7.065 C7.74,7.146 8.172,7.038 8.775,6.642 C9.243,6.336 9.729,6.273 9.954,6.498 C10.026,6.561 10.17,6.804 10.278,7.02 C10.674,7.803 11.574,8.082 12.24,7.623 C13.104,7.047 13.104,5.913 12.231,5.328 C11.952,5.13 11.862,5.121 11.223,5.166 C10.53,5.22 10.521,5.22 10.26,4.959 C10.017,4.725 9.99,4.635 9.99,4.158 C9.99,3.159 9.333,2.205 8.325,1.746 Z" id="Combined-Shape"></path>
                </g>
            </g>
        </g>
    </g>
</svg>