<?xml version="1.0" encoding="UTF-8"?>
<svg width="42px" height="42px" viewBox="0 0 42 42" version="1.1" xmlns="http://www.w3.org/2000/svg" xmlns:xlink="http://www.w3.org/1999/xlink">
    <title>svg/Tech_support_services_ic</title>
    <g id="Page-1" stroke="none" stroke-width="1" fill="none" fill-rule="evenodd">
        <g id="Service-All-Category" transform="translate(-167.000000, -901.000000)" fill="#47CDFE" fill-rule="nonzero">
            <g id="Group-2" transform="translate(145.000000, 879.000000)">
                <g id="Tech_support_services_ic" transform="translate(22.000000, 21.000000)">
                    <g id="Group" transform="translate(21.045000, 21.760000) scale(-1, 1) rotate(-180.000000) translate(-21.045000, -21.760000) translate(0.045000, 0.760000)">
                        <path d="M34.335,0.18 C34.452,0.297 34.515,0.477 34.515,0.72 C34.515,1.26 34.29,1.44 33.615,1.44 L33.075,1.44 L33.075,2.871 L36.117,2.898 L39.15,2.925 L39.69,3.186 C40.383,3.528 41.067,4.212 41.409,4.905 L41.67,5.445 L41.67,19.035 L41.409,19.575 C41.067,20.268 40.383,20.952 39.69,21.294 L39.15,21.555 L30.357,21.582 L21.555,21.6 L21.555,27.576 L21.5549871,27.9393371 L21.5549871,27.9393371 L21.5543113,29.2644345 C21.549541,33.2505662 21.5122574,34.2139973 21.2254728,35.1247462 L21.1793544,35.2648464 C21.1151605,35.4521605 21.04,35.6436667 20.952,35.865 C19.755,38.862 17.172,41.031 14.094,41.616 C13.185,41.787 11.232,41.796 10.395,41.625 C6.903,40.923 4.095,38.295 3.087,34.785 L3.06596496,34.711508 C3.04567425,34.6399851 3.02758619,34.5733835 3.01142786,34.5028333 L2.99590266,34.4306383 C2.87916898,33.8496537 2.87526316,32.8449474 2.853,27.153 C2.85033333,26.209 2.84845679,25.3880617 2.84783859,24.6728317 L2.84791358,23.6770988 C2.85169959,20.6077984 2.89279698,19.9642867 3.02973342,19.5773823 L3.051,19.521 L3.051,19.521 C3.105,19.413 3.015,19.359 2.619,19.269 C2.034,19.134 1.179,18.612 0.783,18.126 C0.621,17.937 0.378,17.55 0.243,17.28 L0,16.785 L0,2.565 L0.261,2.025 C0.603,1.332 1.287,0.648 1.98,0.306 L2.52,0.045 L4.653,0.018 C6.705,-0.009 6.786,-0.009 6.966,0.171 C7.191,0.396 7.218,0.954 7.029,1.224 C6.912,1.377 6.741,1.395 5.022,1.449 C2.961,1.503 2.691,1.566 2.124,2.097 C1.962,2.259 1.737,2.565 1.629,2.79 C1.449,3.168 1.44,3.366 1.413,5.922 L1.377,8.64 L5.715,8.64 L5.715,7.398 C5.715,6.462 5.751,6.111 5.841,5.976 C5.967,5.814 6.147,5.805 10.773,5.76 C14.5242,5.724 15.34932,5.7168 15.709032,5.618592 L15.7650966,5.60136079 C15.7913961,5.59230331 15.815413,5.5825676 15.8385713,5.57208435 L15.8841647,5.55010054 C15.8992622,5.54242667 15.9144,5.5344 15.93,5.526 C17.586,4.635 17.559,2.457 15.885,1.674 C15.507,1.494 15.291,1.485 12.168,1.44 C9.018,1.395 8.847,1.386 8.721,1.224 C8.532,0.954 8.559,0.396 8.775,0.18 C8.90678571,0.0482142857 8.98550415,0.0129145408 11.5224611,0.0105234033 L12.1198218,0.0105021866 C12.1908009,0.0105530248 12.2633517,0.0106206724 12.3375107,0.0107042069 L12.8020532,0.0113886776 C13.5286875,0.0126792092 14.3914821,0.0151071429 15.417,0.018 L21.87,0.045 L22.365,0.288 C23.301,0.756 23.931,1.44 24.255,2.367 L24.417,2.835 L25.146,2.862 L25.875,2.889 L25.875,1.44 L25.335,1.44 C24.66,1.44 24.435,1.26 24.435,0.72 C24.435,0.477 24.498,0.297 24.615,0.18 L24.6379268,0.158146568 C24.7786095,0.0326247901 25.0179801,0.00643101235 27.6508228,0.00122923457 L31.2991772,0.00122923457 C34.0782889,0.00672 34.1906,0.0356 34.335,0.18 Z M5.688,33.12 L4.356,33.12 L4.41,33.552 C4.5,34.191 4.968,35.523 5.319,36.153 C7.056,39.276 10.638,40.86 14.085,40.032 C16.677,39.411 18.855,37.404 19.656,34.875 C19.8,34.434 19.944,33.849 19.98,33.597 L20.043,33.12 L18.702,33.12 L18.549,33.84 C18.054,36.153 16.155,38.115 13.851,38.7 C13.374,38.826 12.852,38.88 12.195,38.88 C10.323,38.88 8.91,38.295 7.596,36.99 C6.966,36.369 6.75,36.072 6.408,35.388 C6.165,34.902 5.931,34.263 5.841,33.84 L5.688,33.12 Z M7.236,33.093 L7.299,33.354 C7.677,34.956 8.667,36.216 10.089,36.9 C10.89,37.287 11.214,37.35 12.375,37.314 C13.248,37.296 13.5,37.251 13.995,37.044 C15.588,36.396 16.587,35.181 17.118,33.264 C17.163,33.102 17.118,33.093 16.038,33.138 C14.319,33.219 13.959,33.462 13.113,35.154 C12.735,35.91 12.636,36 12.195,36 C11.754,36 11.655,35.91 11.277,35.154 C10.728,34.065 10.467,33.732 9.945,33.444 C9.522,33.219 9.369,33.183 8.361,33.138 L7.236,33.093 Z M12.195,21.735 C10.926,21.735 10.368,21.897 9.423,22.527 C8.712,23.004 8.1,23.697 7.731,24.444 C7.263,25.398 7.227,25.677 7.182,28.773 L7.137,31.662 L8.568,31.698 C9.972,31.725 10.008,31.734 10.593,32.022 C11.142,32.292 12.105,33.165 12.105,33.399 C12.105,33.444 12.15,33.48 12.195,33.48 C12.249,33.48 12.285,33.444 12.285,33.399 C12.285,33.165 13.248,32.292 13.797,32.022 C14.382,31.734 14.418,31.725 15.822,31.698 L17.253,31.662 L17.208,28.773 C17.163,25.677 17.127,25.398 16.659,24.444 C16.29,23.697 15.678,23.004 14.967,22.527 C14.022,21.897 13.464,21.735 12.195,21.735 Z M5.715,27.36 L5.4,27.36 C4.887,27.36 4.491,27.567 4.374,27.9 C4.239,28.287 4.239,30.753 4.374,31.14 C4.491,31.473 4.86,31.671 5.382,31.68 L5.715,31.68 L5.715,27.36 Z M18.99,27.36 L18.675,27.36 L18.675,31.68 L18.99,31.68 C19.17,31.68 19.449,31.626 19.611,31.554 C19.818,31.473 19.944,31.338 20.016,31.14 C20.151,30.753 20.151,28.287 20.016,27.9 C19.899,27.567 19.503,27.36 18.99,27.36 Z M4.68,19.8 C4.653,19.8 4.554,19.953 4.473,20.142 C4.347,20.421 4.32,20.889 4.293,23.22 L4.257,25.965 L4.977,25.938 L5.688,25.911 L5.841,25.191 C5.931,24.777 6.165,24.129 6.408,23.652 C6.759,22.95 6.966,22.68 7.668,21.978 C8.172,21.474 8.496,21.087 8.469,21.015 C8.379,20.763 7.974,20.61 6.372,20.214 C5.472,19.989 4.707,19.8 4.68,19.8 Z M17.874,20.241 L17.127,20.43 C16.362,20.628 16.002,20.799 15.921,21.015 C15.894,21.087 16.218,21.474 16.722,21.978 C17.424,22.68 17.631,22.95 17.982,23.652 C18.225,24.138 18.459,24.777 18.549,25.2 L18.702,25.911 L20.07,25.965 L20.097,23.85 C20.0985882,23.6451176 20.0996159,23.4452803 20.1001325,23.2547415 L20.1001985,22.7152746 C20.098526,22.1004187 20.0906471,21.6677647 20.079,21.627 C20.052,21.564 19.953,21.51 19.863,21.51 C19.584,21.51 18.792,21.069 18.324,20.646 L17.874,20.241 Z M12.195,23.04 C13.005,23.04 13.698,23.229 14.085,23.544 C14.31,23.733 14.355,23.841 14.355,24.156 C14.355,24.831 13.878,25.056 13.113,24.759 C12.519,24.525 11.88,24.516 11.295,24.75 C10.827,24.939 10.719,24.948 10.485,24.867 C10.17,24.75 10.035,24.534 10.035,24.156 C10.035,23.841 10.08,23.733 10.305,23.544 C10.692,23.229 11.385,23.04 12.195,23.04 Z M12.195,16.245 L9.054,19.386 L9.351,19.638 C9.513,19.773 9.72,20.016 9.792,20.187 L9.936,20.493 L10.548,20.331 C10.962,20.223 11.493,20.169 12.195,20.169 C12.897,20.169 13.428,20.223 13.842,20.331 L14.454,20.493 L14.598,20.187 C14.67,20.016 14.877,19.773 15.039,19.638 L15.336,19.386 L12.195,16.245 Z M33.093,4.302 L33.057,5.913 C33.03,7.479 33.021,7.524 32.769,8.055 C32.427,8.748 31.743,9.432 31.05,9.774 C30.582,9.99964286 30.455449,10.0312806 29.6687263,10.0346491 L29.475,10.035 C28.512,10.035 28.404,10.017 27.9,9.774 C27.207,9.432 26.523,8.748 26.181,8.055 C25.929,7.524 25.92,7.479 25.893,5.913 L25.857,4.302 L23.148,4.338 C20.07,4.365 19.926,4.392 19.296,5.103 C18.7853684,5.66778947 18.7269581,5.58078393 18.7206208,9.80477348 L18.7200778,10.3438802 C18.7200217,10.4374348 18.7199804,10.5328692 18.7199505,10.6302257 L18.7199445,13.8477971 C18.7199731,13.9450462 18.7200129,14.0403779 18.7200673,14.1338341 L18.7205959,14.6724012 C18.7252661,17.8589217 18.7590951,18.5928584 18.9919023,19.0010614 L19.0314257,19.0647371 C19.1002945,19.1672244 19.1843684,19.2543158 19.287,19.368 C19.665,19.782 20.025,19.989 20.52,20.079 C20.6652,20.1054 22.93516,20.12212 26.0592187,20.1256107 L28.4637429,20.1257663 C28.5686972,20.1256714 28.6741529,20.1255636 28.7800747,20.1254427 L29.4209154,20.1245601 C29.52856,20.1243867 29.6366,20.1242 29.745,20.124 L38.61,20.115 L38.979,19.917 C39.447,19.665 39.951,19.107 40.104,18.666 C40.1889057,18.4240189 40.2337615,15.6649053 40.2385675,12.7633125 L40.2385675,11.7166875 C40.2337615,8.8150947 40.1889057,6.05598113 40.104,5.814 C39.942,5.337 39.411,4.779 38.925,4.554 C38.547,4.374 38.331,4.365 35.802,4.338 L33.093,4.302 Z M8.199,14.778 C7.605,15.264 4.977,18.27 5.103,18.315 C5.166,18.333 5.688,18.468 6.255,18.612 L7.29,18.882 L9.171,17.001 L11.061,15.129 L10.881,14.931 C10.242,14.229 8.964,14.148 8.199,14.778 Z M17.235,6.579 L16.677,6.867 L16.128,7.155 L11.637,7.182 L7.155,7.209 L7.15404743,8.82324242 C7.14877163,9.63513841 7.11794118,9.75705882 6.975,9.9 C6.8211,10.0539 6.70365,10.07658 4.792131,10.079577 L1.386,10.08 L1.413,13.122 C1.43825806,15.7909355 1.44776379,16.1442768 1.59624581,16.4882175 L1.629,16.56 L1.629,16.56 C1.728,16.785 1.953,17.1 2.115,17.253 C2.475,17.604 3.159,17.892 3.33,17.766 C3.393,17.721 4.275,16.749 5.283,15.615 C6.849,13.851 7.2,13.5 7.659,13.257 C9.009,12.546 10.485,12.663 11.709,13.59 L12.195,13.959 L12.681,13.59 C13.437,13.014 14.598,12.663 15.201,12.816 C15.741,12.951 15.975,13.617 15.633,14.04 C15.507,14.193 15.318,14.265 14.913,14.319 C14.301,14.409 13.779,14.634 13.509,14.931 L13.329,15.129 L15.21,17.01 C16.245,18.045 17.118,18.873 17.163,18.846 C17.1958235,18.8213824 17.2286471,16.5148054 17.2341839,13.5634703 L17.2349075,12.9846328 C17.2349689,12.8869645 17.235,12.7887353 17.235,12.69 L17.235,6.579 Z M12.195,11.52 C12.438,11.52 12.618,11.583 12.735,11.7 C12.852,11.817 12.915,11.997 12.915,12.24 C12.915,12.483 12.852,12.663 12.735,12.78 C12.618,12.897 12.438,12.96 12.195,12.96 C11.952,12.96 11.772,12.897 11.655,12.78 C11.538,12.663 11.475,12.483 11.475,12.24 C11.475,11.997 11.538,11.817 11.655,11.7 C11.772,11.583 11.952,11.52 12.195,11.52 Z M21.375,5.94 C21.5236957,6.08869565 21.549896,6.20336484 21.5542011,7.33734857 L21.5549364,7.70917646 C21.554983,7.77659546 21.555,7.84682609 21.555,7.92 L21.5549364,8.13082354 L21.5549364,8.13082354 L21.5542011,8.50265143 C21.549896,9.63663516 21.5236957,9.75130435 21.375,9.9 C21.258,10.017 21.078,10.08 20.835,10.08 C20.592,10.08 20.412,10.017 20.295,9.9 C20.1463043,9.75130435 20.120104,9.63663516 20.1157989,8.50265143 L20.1157989,7.33734857 C20.120104,6.20336484 20.1463043,6.08869565 20.295,5.94 C20.538,5.697 21.132,5.697 21.375,5.94 Z M24.255,5.94 C24.4036957,6.08869565 24.429896,6.20336484 24.4342011,7.33734857 L24.4349364,7.70917646 C24.434983,7.77659546 24.435,7.84682609 24.435,7.92 L24.4349364,8.13082354 L24.4349364,8.13082354 L24.4342011,8.50265143 C24.429896,9.63663516 24.4036957,9.75130435 24.255,9.9 C24.138,10.017 23.958,10.08 23.715,10.08 C23.472,10.08 23.292,10.017 23.175,9.9 C23.0263043,9.75130435 23.000104,9.63663516 22.9957989,8.50265143 L22.9957989,7.33734857 C23.000104,6.20336484 23.0263043,6.08869565 23.175,5.94 C23.418,5.697 24.012,5.697 24.255,5.94 Z M35.775,5.94 C35.9236957,6.08869565 35.949896,6.20336484 35.9542011,7.33734857 L35.9542011,8.50265143 C35.949896,9.63663516 35.9236957,9.75130435 35.775,9.9 C35.658,10.017 35.478,10.08 35.235,10.08 C34.992,10.08 34.812,10.017 34.695,9.9 C34.5463043,9.75130435 34.520104,9.63663516 34.5157989,8.50265143 L34.5150636,8.13082354 C34.515017,8.06340454 34.515,7.99317391 34.515,7.92 L34.5150636,7.70917646 L34.5150636,7.70917646 L34.5157989,7.33734857 C34.520104,6.20336484 34.5463043,6.08869565 34.695,5.94 C34.938,5.697 35.532,5.697 35.775,5.94 Z M38.655,5.94 C38.8036957,6.08869565 38.829896,6.20336484 38.8342011,7.33734857 L38.8342011,8.50265143 C38.829896,9.63663516 38.8036957,9.75130435 38.655,9.9 C38.538,10.017 38.358,10.08 38.115,10.08 C37.872,10.08 37.692,10.017 37.575,9.9 C37.4263043,9.75130435 37.400104,9.63663516 37.3957989,8.50265143 L37.3950636,8.13082354 C37.395017,8.06340454 37.395,7.99317391 37.395,7.92 L37.3950636,7.70917646 L37.3950636,7.70917646 L37.3957989,7.33734857 C37.400104,6.20336484 37.4263043,6.08869565 37.575,5.94 C37.818,5.697 38.412,5.697 38.655,5.94 Z M12.195,8.64 C12.438,8.64 12.618,8.703 12.735,8.82 C12.852,8.937 12.915,9.117 12.915,9.36 C12.915,9.603 12.852,9.783 12.735,9.9 C12.618,10.017 12.438,10.08 12.195,10.08 C11.952,10.08 11.772,10.017 11.655,9.9 C11.538,9.783 11.475,9.603 11.475,9.36 C11.475,8.883 11.718,8.64 12.195,8.64 Z M31.653,1.44 L27.297,1.44 L27.333,4.167 C27.3572069,6.44244828 27.3669453,6.84422711 27.4984186,7.17540969 L27.5309815,7.25140395 C27.5367895,7.26413436 27.5427931,7.27696552 27.549,7.29 C27.765,7.758 28.125,8.136 28.575,8.379 C29.007,8.604 29.907,8.604 30.357,8.379 C30.816,8.145 31.176,7.767 31.401,7.29 L31.4190185,7.25140395 L31.4190185,7.25140395 L31.4515814,7.17540969 C31.5830547,6.84422711 31.5927931,6.44244828 31.617,4.167 L31.653,1.44 Z M18.045,1.422 L18.324,1.953 C18.486,2.259 18.612,2.682 18.648,2.979 L18.702,3.483 L19.242,3.204 C19.773,2.925 19.809,2.925 21.294,2.898 L22.815,2.862 L22.689,2.628 C22.5,2.268 22.005,1.827 21.6,1.656 C21.321,1.53 20.898,1.485 19.647,1.458 L18.045,1.422 Z" id="Combined-Shape"></path>
                    </g>
                </g>
            </g>
        </g>
    </g>
</svg>