<?xml version="1.0" encoding="UTF-8"?>
<svg width="24px" height="24px" viewBox="0 0 24 24" version="1.1" xmlns="http://www.w3.org/2000/svg" xmlns:xlink="http://www.w3.org/1999/xlink">
    <title>svg/three_dot_grey</title>
    <g id="Page-1" stroke="none" stroke-width="1" fill="none" fill-rule="evenodd">
        <g id="My-Wallet" transform="translate(-333.000000, -325.000000)">
            <g id="Group-21" transform="translate(16.000000, 301.000000)">
                <g id="three_dot_grey" transform="translate(317.000000, 24.000000)">
                    <polygon id="Path" points="0 0 24 0 24 24 0 24"></polygon>
                    <path d="M12,3 C10.9,3 10,3.9 10,5 C10,6.1 10.9,7 12,7 C13.1,7 14,6.1 14,5 C14,3.9 13.1,3 12,3 Z M12,17 C10.9,17 10,17.9 10,19 C10,20.1 10.9,21 12,21 C13.1,21 14,20.1 14,19 C14,17.9 13.1,17 12,17 Z M12,10 C10.9,10 10,10.9 10,12 C10,13.1 10.9,14 12,14 C13.1,14 14,13.1 14,12 C14,10.9 13.1,10 12,10 Z" id="Shape" fill="#202328" fill-rule="nonzero"></path>
                </g>
            </g>
        </g>
    </g>
</svg>