<?xml version="1.0" encoding="UTF-8"?>
<svg width="39px" height="39px" viewBox="0 0 39 39" version="1.1" xmlns="http://www.w3.org/2000/svg" xmlns:xlink="http://www.w3.org/1999/xlink">
    <title>svg/tools_ic</title>
    <g id="Page-1" stroke="none" stroke-width="1" fill="none" fill-rule="evenodd">
        <g id="Product-All-Category" transform="translate(-42.000000, -297.000000)" fill="#47CDFE" fill-rule="nonzero" stroke="#3DCCFF" stroke-width="0.2">
            <g id="Group-2" transform="translate(20.000000, 275.000000)">
                <g id="tools_ic" transform="translate(23.000000, 23.000000)">
                    <path d="M2.78864971,4.26325641e-14 C2.89138943,4.26325641e-14 4.11692759,0.689823875 5.75342466,1.66585127 C7.98630137,3.00831703 8.48675799,3.32795173 8.6091933,3.53166558 L8.63013699,3.57387476 C8.69618395,3.72798434 8.73287671,4.12426614 8.73287671,4.74804305 L8.73287671,4.74804305 L8.73287671,5.68737769 L13.231409,10.18591 L17.7226027,14.6771037 L20.4305284,11.9691781 L23.138454,9.25391389 L23.0357143,8.71819961 C22.9109589,8.05772994 22.9036204,6.48727984 23.0357143,5.94422701 C23.4319961,4.24168297 24.1511742,2.99412916 25.3473581,1.91536204 C25.9271037,1.3869863 26.3087084,1.12279843 26.9691781,0.792563601 C28.5029354,0.0146771037 30.2715264,-0.183463796 32.0034247,0.227495108 C32.8180039,0.418297456 33.0968689,0.63111546 33.0968689,1.05675147 C33.0968689,1.3869863 32.7813112,1.76125245 31.1227984,3.41242661 L31.1227984,3.41242661 L29.8679061,4.65998043 L29.8679061,6.1276908 L30.6898239,6.94960861 L31.5190802,7.77886497 L32.9867906,7.77886497 L34.5939335,6.17172211 C35.6433464,5.1223092 36.2671233,4.54990215 36.3918787,4.5278865 C36.6707436,4.47651663 37.0303327,4.65264188 37.1624266,4.90949119 C37.4119374,5.38649706 37.5,6.02495108 37.5,7.37524462 C37.5,8.4907045 37.4779843,8.78424658 37.3458904,9.24657534 C36.6413894,11.7930528 34.6306262,13.7891389 32.0988258,14.4642857 C31.276908,14.6844423 29.7431507,14.7358121 28.9505871,14.574364 L28.9505871,14.574364 L28.3708415,14.4569472 L26.183953,16.6364971 L24.0044031,18.816047 L24.5327789,19.3077299 L25.0611546,19.7920744 L25.4207436,19.4765166 C25.6996086,19.2196673 25.8317025,19.1536204 26.0445205,19.1536204 C26.4921722,19.1609589 26.8370841,19.5572407 26.7563601,19.9902153 C26.7270059,20.1223092 26.5949119,20.3351272 26.4554795,20.4745597 C26.316047,20.6139922 26.1986301,20.7460861 26.1986301,20.7754403 C26.1986301,20.8047945 28.5322896,22.9770059 31.3943249,25.5968689 C33.8050391,27.8149462 35.5676676,29.4633684 36.3602312,30.2449242 L36.588049,30.4729289 C36.7153865,30.6029843 36.7930528,30.6886008 36.8175147,30.7265166 C36.9496086,30.917319 37.1477495,31.276908 37.2578278,31.5190802 C37.4486301,31.9300391 37.4633072,32.0327789 37.4853229,33.0748532 C37.5146771,34.3664384 37.4192759,34.8067515 36.9129159,35.5919765 C35.4965753,37.7715264 32.5611546,38.2999022 30.5283757,36.7441292 C30.5130871,36.7325098 30.4832742,36.7049902 30.4399564,36.6626661 L30.3356161,36.5586033 C29.7066108,35.9223133 27.7081295,33.7832273 25.464775,31.3502935 L25.464775,31.3502935 L20.731409,26.1986301 L20.4231898,26.4995108 C20.1736791,26.7563601 20.0709393,26.8077299 19.81409,26.8150685 C19.5572407,26.822407 19.4765166,26.7857143 19.2930528,26.5802348 C18.962818,26.2133072 19.0141879,25.890411 19.4911937,25.3913894 L19.4911937,25.3913894 L19.7407045,25.1345401 L19.241683,24.5988258 L18.75,24.0631115 L16.5924658,26.2279843 L14.4349315,28.3928571 L14.5376712,28.9285714 C14.6844423,29.6771037 14.6697652,31.1594912 14.508317,31.8419765 C14.1413894,33.3683953 13.4368885,34.5939335 12.2700587,35.6873777 C10.5234834,37.3458904 8.01369863,37.991683 5.58463796,37.4266145 C4.77005871,37.2358121 4.5572407,37.074364 4.49853229,36.6340509 L4.49853229,36.6340509 L4.45450098,36.3184932 L6.12035225,34.6526419 L7.77886497,32.9794521 L7.77886497,31.5190802 L6.95694716,30.6971624 L6.1276908,29.8679061 L4.58659491,29.8679061 L2.65373638,31.8003247 C1.44548332,33.0045884 1.30354425,33.111546 1.08610568,33.111546 C0.535714286,33.111546 0.352250489,32.8620352 0.139432485,31.8199609 C-0.0146771037,31.06409 -0.0440313112,29.7064579 0.0807240705,29.0166341 C0.572407045,26.2646771 2.59784736,24.0337573 5.32778865,23.2191781 C6.19373777,22.9623288 7.81555773,22.8889432 8.65949119,23.072407 L8.65949119,23.072407 L9.20988258,23.1898239 L11.9031311,20.4965753 L14.6037182,17.7959883 L10.0758317,13.2681018 L5.54060665,8.73287671 L4.60861057,8.73287671 C4.04354207,8.73287671 3.60322896,8.69618395 3.48581213,8.64481409 C3.3390411,8.57876712 2.86203523,7.83757339 1.64383562,5.81213307 C0.234833659,3.45645793 -1.9344588e-15,3.02348337 -1.96501506e-15,2.7739726 L0.000450091508,2.73540578 C0.00712222267,2.48592196 0.100642997,2.37209952 1.08610568,1.37964775 C1.68052838,0.770547945 2.26761252,0.212818004 2.38502935,0.139432485 C2.50978474,0.0587084149 2.68590998,4.26325641e-14 2.78864971,4.26325641e-14 Z M30.8072407,1.54109589 C30.851272,1.42367906 29.7431507,1.46771037 29.0606654,1.60714286 C27.9378669,1.84931507 27.0499022,2.31164384 26.25,3.07485323 C25.4500978,3.83072407 24.8483366,4.83610568 24.5694716,5.86350294 C24.3493151,6.67808219 24.3493151,8.03571429 24.5694716,8.85763209 C24.6722114,9.22455969 24.7162427,9.54745597 24.6868885,9.6648728 C24.6575342,9.80430528 22.3825832,12.1306262 17.3630137,17.1575342 L17.3630137,17.1575342 L16.6359463,17.8854628 C16.476185,18.0453092 16.3177193,18.2037903 16.1607285,18.3607295 L15.6943597,18.8267446 C15.6174286,18.9035839 15.5409111,18.9799935 15.4648295,19.0559515 L15.0137496,19.5061016 C12.1180581,22.3945461 9.95347258,24.5287352 9.84833659,24.5988258 C9.58414873,24.760274 9.41536204,24.760274 8.54941292,24.5547945 C7.90362035,24.4080235 6.77348337,24.4006849 6.09833659,24.547456 C4.9535225,24.7896282 4.05088063,25.2886497 3.1555773,26.1986301 C1.99608611,27.3654599 1.47504892,28.6130137 1.46771037,30.2348337 L1.46771037,30.2348337 L1.46771037,30.9246575 L2.73727984,29.6624266 L4.00684932,28.4001957 L6.6927593,28.4001957 L7.86692759,29.5523483 C8.51272016,30.1908023 9.09246575,30.8145793 9.14383562,30.9466732 C9.29060665,31.276908 9.2832681,33.2289628 9.14383562,33.5591977 C9.0851272,33.6912916 8.52739726,34.3077299 7.8962818,34.9315068 C7.26516634,35.5552838 6.75146771,36.090998 6.75146771,36.1203523 C6.75146771,36.2157534 7.65410959,36.1863992 8.32925636,36.0689824 C9.56947162,35.8488258 10.6482387,35.2837573 11.4995108,34.4031311 C12.9818982,32.8546967 13.5176125,30.8292564 12.9892368,28.7671233 C12.9011742,28.4222114 12.8498043,28.0699609 12.8791585,27.9672211 C12.9061953,27.8552117 16.9013354,23.8015257 20.7411238,19.947807 L21.3154115,19.3717667 C21.4107601,19.2761825 21.5058828,19.1808527 21.6007151,19.085842 L22.993367,17.692705 C23.0836848,17.6025034 23.17339,17.5129444 23.2624182,17.4240928 L23.7879489,16.8999899 C25.9395167,14.7559118 27.5874511,13.1348491 27.7250489,13.0479452 C27.9892368,12.8864971 28.1580235,12.8864971 29.0239726,13.0919765 C29.6771037,13.2387476 30.7411937,13.2387476 31.4456947,13.0993151 C33.4858121,12.6736791 35.1443249,11.1986301 35.8341487,9.18786693 C36.010274,8.65215264 36.0543053,8.39530333 36.0836595,7.63209393 L36.0836595,7.63209393 L36.1203523,6.71477495 L34.8434442,7.97700587 L33.5665362,9.24657534 L30.8586106,9.24657534 L29.7358121,8.08708415 C29.1193738,7.45596869 28.5616438,6.83219178 28.5029354,6.70009785 C28.37818,6.41389432 28.3561644,4.45450098 28.4735812,4.1462818 C28.5176125,4.03620352 29.0533268,3.42710372 29.6697652,2.78131115 C30.278865,2.13551859 30.7999022,1.57778865 30.8072407,1.54109589 Z M25.1051859,21.8688845 C25.0854877,21.8688845 24.4724238,22.4622502 23.6917706,23.2389747 L21.7588063,25.1712329 L22.0963796,25.5161448 C22.287182,25.7142857 24.3786693,27.9818982 26.7490215,30.5650685 C29.1193738,33.1482387 31.1888454,35.3644814 31.3502935,35.4965753 C31.7539139,35.8194716 32.194227,36.0249511 32.7226027,36.1203523 C33.9481409,36.3478474 35.3204501,35.6139922 35.8708415,34.4324853 C36.0469667,34.0655577 36.0689824,33.9261252 36.0689824,33.2436399 L36.0683373,33.0705527 C36.0637059,32.5350754 36.0309553,32.3943693 35.8708415,32.047456 C35.7607632,31.8126223 35.5772994,31.5117417 35.4672211,31.3796477 C35.3571429,31.2475538 32.9867906,29.0533268 30.2054795,26.4995108 C27.4315068,23.9530333 25.1345401,21.8688845 25.1051859,21.8688845 Z M26.1240933,25.3919269 C26.1357021,25.3923714 26.1471663,25.3931673 26.1587661,25.394573 L26.1942532,25.4008782 C26.4069085,25.4513461 26.7470199,25.7677228 28.7177384,27.7349679 L30.0999622,29.1161406 C30.1708824,29.1869141 30.2402742,29.2561654 30.3081704,29.3239301 L31.5254486,30.5407353 C33.0312115,32.050611 33.321359,32.3725176 33.3771597,32.5719524 L33.385297,32.6093095 L33.385297,32.6093095 L33.3891628,32.6453248 C33.3902914,32.6632831 33.390411,32.6813819 33.390411,32.7005871 C33.390411,33.1996086 32.9354207,33.5445205 32.4804305,33.390411 C32.3417319,33.3441781 31.3351761,32.3884785 29.4447138,30.5072627 L29.0100546,30.0739734 L29.0100546,30.0739734 L28.7818004,29.8458904 L28.7818004,29.8458904 L28.3519829,29.4157705 C28.2833723,29.3470571 28.2162542,29.2798087 28.1505981,29.2139933 L27.7739597,28.8360394 C25.7363158,26.7888263 25.3180039,26.3237619 25.3180039,26.1766145 C25.3180039,25.9197652 25.4354207,25.6849315 25.6409002,25.5234834 C25.7289628,25.4500978 25.9197652,25.3913894 26.0885519,25.3913894 L26.0885519,25.3913894 Z M12.1306262,24.8043053 C12.7984344,24.8043053 13.0772994,25.7069472 12.5195695,26.0885519 C12.1306262,26.3674168 11.4921722,26.1179061 11.4041096,25.6555773 C11.3600783,25.3840509 11.5068493,25.0097847 11.7196673,24.8850294 C11.7930528,24.840998 11.9765166,24.8043053 12.1306262,24.8043053 Z M23.351272,13.5029354 C23.8796477,13.5029354 24.2392368,14.0239726 24.0337573,14.4936399 C23.9823875,14.6110568 21.8101761,16.834638 19.2123288,19.4251468 C18.6369863,20.0004892 18.1314219,20.5058159 17.6866641,20.9496292 L17.3201252,21.3151746 C14.7969853,23.8297965 14.4716332,24.1149052 14.2644566,24.1413978 L14.236106,24.1436143 L14.236106,24.1436143 L14.2221135,24.1438356 C13.6937378,24.1438356 13.3341487,23.6227984 13.5396282,23.1531311 C13.590998,23.0357143 15.7632094,20.8121331 18.3610568,18.2142857 L18.3610568,18.2142857 L18.8373282,17.7388553 C22.8971406,13.6869281 23.1037627,13.5029354 23.351272,13.5029354 Z M22.9696673,19.8874755 C22.9500978,19.8874755 22.3738856,20.4441183 21.6430504,21.1760004 L19.7847358,23.0357143 L20.2984344,23.5567515 L20.8047945,24.0777886 L22.4192759,22.4559687 L24.0337573,20.8341487 L23.5200587,20.3644814 C23.3341487,20.1932485 23.1612851,20.0415851 23.0601761,19.9573277 L22.9851598,19.8973106 L22.9851598,19.8973106 Z M2.92808219,1.68786693 C2.86203523,1.68786693 1.68786693,2.90606654 1.68786693,2.96477495 C1.68786693,3.00146771 2.25293542,3.98483366 2.95009785,5.14432485 L2.95009785,5.14432485 L4.21232877,7.26516634 L5.07827789,7.26516634 C5.54794521,7.26516634 6.02495108,7.3018591 6.14236791,7.33855186 C6.24972044,7.37880906 8.06244459,9.14284117 10.3522521,11.4247945 L11.0078278,12.0792564 L15.6678082,16.7318982 L16.1815068,16.2181996 L16.6952055,15.704501 L11.9765166,10.9858121 L7.26516634,6.26712329 L7.26516634,4.29305284 L5.10763209,2.98679061 C3.92612524,2.27495108 2.9427593,1.68786693 2.92808219,1.68786693 Z M25.4500978,11.4481409 C26.0151663,11.4481409 26.3454012,11.9765166 26.0958904,12.4608611 C25.9491194,12.739726 25.7729941,12.8424658 25.4500978,12.8424658 C25.1418787,12.8424658 24.9217221,12.6956947 24.8043053,12.4094912 C24.694227,12.1306262 24.7529354,11.8590998 24.9877691,11.6242661 C25.1125245,11.4995108 25.2446184,11.4481409 25.4500978,11.4481409 Z" id="Combined-Shape"></path>
                </g>
            </g>
        </g>
    </g>
</svg>