<?xml version="1.0" encoding="UTF-8"?>
<svg width="40px" height="41px" viewBox="0 0 40 41" version="1.1" xmlns="http://www.w3.org/2000/svg" xmlns:xlink="http://www.w3.org/1999/xlink">
    <title>svg/Tools_toys_ic</title>
    <g id="Page-1" stroke="none" stroke-width="1" fill="none" fill-rule="evenodd">
        <g id="Product-All-Category" transform="translate(-293.000000, -130.000000)" fill="#47CDFE" fill-rule="nonzero">
            <g id="Group-2" transform="translate(269.000000, 108.000000)">
                <g id="Tools_toys_ic" transform="translate(24.000000, 22.000000)">
                    <path d="M11.1526013,23.2805516 C11.2499962,23.2806143 11.3456494,23.2806837 11.4395937,23.2807604 L11.9830166,23.2813127 C12.070257,23.281421 12.1558544,23.2815378 12.2398416,23.2816638 L12.724705,23.2825344 C15.9871733,23.2894678 16.525211,23.3147473 16.7745211,23.4045473 L16.8084356,23.4178198 C16.8192611,23.4223936 16.8296949,23.4271186 16.84,23.432 C17.224,23.608 17.392,23.784 17.56,24.184 C17.6469818,24.3981091 17.6724073,25.1214572 17.6783992,29.288604 L17.679074,29.8519162 C17.6791693,29.9491369 17.6792562,30.0480455 17.6793353,30.148672 L17.6793331,33.5733584 C17.6750658,37.8425215 17.6499048,39.9184762 17.592,40.056 C17.488,40.328 17.152,40.696 16.864,40.848 C16.7072593,40.9297778 15.7610096,40.9535034 11.4191406,40.9587384 L10.5255937,40.9595377 C10.4213359,40.9596027 10.315393,40.9596602 10.2077383,40.9597106 L1.016,40.96 L0.672,40.76 C0.448,40.632 0.28,40.448 0.168,40.216 C0.15716129,40.1932903 0.147021852,40.1720125 0.137540868,40.1499731 L0.12380813,40.1160686 C0.0443135175,39.9059246 0.0165005539,39.54526 0.0106131382,37.4350758 L0.0109321607,34.6824963 C0.0121373569,33.914897 0.0139354839,33.0345806 0.016,32.024 L0.016,32.024 L0.04,24.184 L0.272,23.888 C0.4,23.72 0.648,23.512 0.832,23.432 C0.858440678,23.4197966 0.885283539,23.40857 0.916730571,23.3982421 L0.956945939,23.3862752 C1.2362069,23.3112295 1.89784517,23.2889726 4.93592237,23.2825344 L5.42233681,23.2816638 C5.50662037,23.2815378 5.59253357,23.281421 5.68011004,23.2813127 L6.22579699,23.2807604 C6.32016099,23.2806837 6.41625549,23.2806143 6.5141141,23.2805516 Z M23.32,19.36 C23.456,19.36 26.84,20.224 30.84,21.288 C35.96,22.64 38.208,23.272 38.416,23.408 C38.792,23.648 39.04,24.12 39.04,24.584 C39.04,24.792 38.232,28.016 37.12,32.248 C36.2776,35.4448 35.7711232,37.335232 35.4569624,38.4319988 L35.3902563,38.6628687 C35.167456,39.4266464 35.05456,39.73328 34.984,39.824 C34.752,40.136 34.24,40.392 33.864,40.4 C33.7402667,40.4 30.4375533,39.5496556 26.9819026,38.6438674 L25.9078993,38.3618607 C22.5721244,37.4844444 19.3856,36.632 19.072,36.52 C18.632,36.352 18.272,35.96 18.144,35.496 C18.1406667,35.4833333 18.1372469,35.4717716 18.1337997,35.4610693 L18.1234348,35.4312949 L18.1234348,35.4312949 L18.1132593,35.4052037 L18.1132593,35.4052037 L18.1036269,35.3813224 C18.1020864,35.3774444 18.1005833,35.3735972 18.099125,35.36975 L18.090971,35.3464211 L18.090971,35.3464211 L18.084245,35.321619 C18.026287,35.065659 18.2267778,34.3823333 20.2,26.968 C21.928,20.4667541 22.0761408,19.8711723 22.5480233,19.6091985 L22.6018836,19.5811801 C22.6480387,19.5585036 22.6975738,19.536918 22.752,19.512 C22.928,19.432 23.192,19.36 23.32,19.36 Z M16,24.96 L1.68,24.96 L1.68,39.28 L16,39.28 L16,24.96 Z M23.664,21.152 C23.56,21.12 23.504,21.192 23.432,21.456 C22.8,23.784 19.856,34.92 19.8639837,34.936 C19.912,34.984 33.632,38.56 33.656,38.528 C33.672,38.512 34.504,35.424 35.512,31.672 C37.08,25.784 37.312,24.832 37.208,24.784 C37.136,24.752 34.096,23.928 30.44,22.96 C26.792,21.992 23.736,21.176 23.664,21.152 Z M5.952,27.6 C6.04,27.56 7.112,27.536 8.32,27.544 L8.32,27.544 L10.5199902,27.56 L10.976,27.784 C11.512,28.048 11.848,28.44 12.04,29.024 C12.312,29.856 12.032,30.784 11.352,31.272 L11.352,31.272 L11.04,31.504 L11.304,31.608 C11.664,31.76 12.136,32.208 12.344,32.592 C12.616,33.104 12.592,34.056 12.296,34.656 C12.024,35.216 11.6,35.56 10.936,35.784 C10.9176667,35.79 10.8995694,35.7957917 10.8815781,35.8013843 L10.7738594,35.832625 C10.394,35.934125 9.946,35.956 8.224,35.984 L8.224,35.984 L6,36.016 L5.51999015,35.536 L5.52002832,30.9935286 C5.52005401,30.9120306 5.52009258,30.8325888 5.52014977,30.7551489 L5.52076223,30.3140959 C5.5264827,27.7370341 5.57339535,27.7514419 5.952,27.6 Z M8.69590281,32.3204433 L7.28,32.32 L7.28,34.64 L8.69869274,34.6396539 C9.56120889,34.6363022 9.79466667,34.6069333 10.056,34.48 C10.488,34.288 10.72,33.92 10.72,33.432 C10.72,32.976 10.512,32.68 10.048,32.472 C9.776,32.352 9.512,32.32 8.504,32.32 Z M27.744,25.352 C28.616,25.072 30.096,25.2 30.936,25.624 C32.48,26.408 33.344,28.264 32.544,29.064 C32.344,29.272 32.272,29.296 31.984,29.256 C31.544,29.2 31.416,29.04 31.16,28.248 C30.976,27.696 30.872,27.504 30.568,27.2 C29.976,26.608 29.12,26.464 28.312,26.816 C27.432,27.192 26.72,28.536 26.584,30.088 C26.528,30.632 26.72,31.328 27.008,31.672 C27.456,32.208 28.544,32.52 29.28,32.32 C29.568,32.248 29.768,32.096 30.256,31.592 C30.792,31.04 30.912,30.96 31.152,30.96 C31.576,30.96 31.92,31.288 31.92,31.688 C31.92,32.584 30.912,33.576 29.656,33.92 C28.96,34.112 27.792,33.92 26.824,33.464 C25.48,32.824 24.688,31.296 24.832,29.616 C25.008,27.504 26.12,25.872 27.744,25.352 Z M8.224,28.88 L7.28,28.88 L7.28,30.96 L8.224,30.96 C9.824,30.96 10.36,30.672 10.36,29.824 C10.36,29.344 10.184,29.152 9.592,29 C9.336,28.928 8.784,28.88 8.224,28.88 L8.224,28.88 Z M22.744,0.008 C23.256,-7.10282527e-15 23.528,0.112 23.856,0.456 C24.008,0.616 24.832,2.624 26.8,7.64 C28.296,11.464 29.56,14.736 29.6,14.912 C29.696,15.336 29.52,15.952 29.232,16.248 C28.92,16.56 15.128,22.008 14.52,22.056 C14.056,22.096 13.512,21.864 13.264,21.52 C13.184,21.408 11.856,18.128 10.32,14.24 C8.304,9.136 7.52,7.072 7.52,6.84 C7.52,6.448 7.8,5.872 8.088,5.656 C8.2,5.576 11.44,4.272 15.288,2.76 C21.504,0.32 22.328,0.016 22.744,0.008 Z M22.648,1.824 C22.6446102,1.8199322 22.5472244,1.85298018 22.3717351,1.91694076 L22.1246754,2.0081345 C19.6762114,2.92019535 9.46765096,6.90738983 9.37591523,6.992 C9.3718618,6.99742373 9.51443047,7.37492445 9.75458061,7.99915341 L9.90998814,8.40229539 C10.9357062,11.0585487 13.1630414,16.7493069 14.1079386,19.1252798 L14.2495317,19.4805141 C14.4222878,19.9127446 14.5288136,20.1739661 14.544,20.2 C14.552,20.2128 14.64192,20.19136 14.816576,20.134784 L14.9635,20.08575 C15.778,19.8075 17.794,19.032 21.16,17.712 C24.768,16.288 27.752,15.112 27.792,15.096 C27.84,15.08 26.712,12.104 25.288,8.472 L25.1760942,8.18725018 C23.802482,4.69257618 22.6791579,1.85515789 22.648,1.824 Z M16.592,6.76 C17.072,6.472 17.64,6.488 18.024,6.792 C18.2665946,6.98313514 19.3907553,8.14703287 20.5491489,9.37816406 L20.9580354,9.81399814 C22.1806808,11.1210285 23.3299459,12.384 23.4,12.528 C23.792,13.36 22.912,14.032 22.152,13.48 C22,13.368 21.664,13.032 21.392,12.736 L21.392,12.736 L20.904,12.2 L17.8,13.416 L17.752,14.448 C17.728,15.016 17.672,15.544 17.64,15.624 C17.56,15.824 17.184,16 16.84,16 C16.624,16 16.488,15.936 16.32,15.776 C16.0840976,15.5400976 16.01284,15.2493135 16.0059456,13.3164313 L16.0056614,12.7076975 C16.0067055,12.1961166 16.0105366,11.5929756 16.016,10.88 C16.04,7 16.032,7.096 16.592,6.76 Z M17.736,8.68 C17.584,8.52 17.584,8.528 17.624,10.184 C17.648,11.104 17.68,11.872 17.704,11.888 C17.728,11.912 18.232,11.744 18.824,11.512 L18.824,11.512 L19.904,11.088 L18.896,9.96 C18.344,9.344 17.824,8.768 17.736,8.68 Z" id="Combined-Shape"></path>
                </g>
            </g>
        </g>
    </g>
</svg>