<?xml version="1.0" encoding="UTF-8"?>
<svg width="10px" height="6px" viewBox="0 0 10 6" version="1.1" xmlns="http://www.w3.org/2000/svg" xmlns:xlink="http://www.w3.org/1999/xlink">
    <title>svg/top_location_arrow</title>
    <g id="Page-1" stroke="none" stroke-width="1" fill="none" fill-rule="evenodd">
        <g id="Home" transform="translate(-252.000000, -59.000000)" fill="#FFFFFF" fill-rule="nonzero">
            <g id="Group" transform="translate(114.000000, 48.000000)">
                <g id="top_location_arrow" transform="translate(143.000000, 13.500000) rotate(-90.000000) translate(-143.000000, -13.500000) translate(140.000000, 9.000000)">
                    <path d="M1.74482714,4.32182634 L5.03498681,1.08948293 C5.12558168,1.00069463 5.17541959,0.881982439 5.17541959,0.755402927 C5.17541959,0.628753171 5.12558168,0.51011122 5.03498681,0.421182439 L4.74668491,0.138099512 C4.65623305,0.0490302439 4.53532072,0 4.4064715,0 C4.27762229,0 4.15685297,0.0490302439 4.0663296,0.138099512 L0.148870179,3.98648195 C0.0579892967,4.07569171 0.00822289668,4.19489561 0.00857849825,4.32161561 C0.00822289668,4.44889756 0.0579177932,4.56796098 0.148870179,4.65724098 L4.06268292,8.50190049 C4.15320629,8.59096976 4.27397561,8.64 4.40289633,8.64 C4.53174554,8.64 4.65251487,8.59096976 4.74310974,8.50190049 L5.03134014,8.21881756 C5.21889368,8.0345678 5.21889368,7.73462634 5.03134014,7.55044683 L1.74482714,4.32182634 Z" id="Path"></path>
                </g>
            </g>
        </g>
    </g>
</svg>