<?xml version="1.0" encoding="UTF-8"?>
<svg width="12px" height="15px" viewBox="0 0 12 15" version="1.1" xmlns="http://www.w3.org/2000/svg" xmlns:xlink="http://www.w3.org/1999/xlink">
    <title>svg/top_location_ic</title>
    <g id="Page-1" stroke="none" stroke-width="1" fill="none" fill-rule="evenodd">
        <g id="Home" transform="translate(-114.000000, -55.000000)" fill="#FFFFFF" fill-rule="nonzero">
            <g id="Group" transform="translate(114.000000, 48.000000)">
                <g id="top_location_ic" transform="translate(0.000000, 7.000000)">
                    <path d="M10.9024327,2.50371562 C9.77492308,0.912684375 7.98799038,0 6.00017308,0 C4.01235577,0 2.22542308,0.912684375 1.09791346,2.50371562 C-0.0240576923,4.08670313 -0.283125,6.09080625 0.403528846,7.86141563 C0.587192308,8.34494062 0.879144231,8.8147125 1.26920192,9.254925 L5.60702885,14.2227562 C5.70513462,14.3352 5.848875,14.4 6.00017308,14.4 C6.15147115,14.4 6.29521154,14.3352281 6.39331731,14.2227562 L10.7299327,9.256275 C11.1217212,8.81353125 11.4132981,8.34426562 11.5954327,7.86462187 C12.2834712,6.09080625 12.0244038,4.08670313 10.9024327,2.50371562 Z M10.6283942,7.51199062 C10.4879423,7.88205938 10.2586442,8.2479375 9.94725,8.59986562 C9.94638462,8.60070937 9.94551923,8.60155313 9.94482692,8.60256563 L6.00017308,13.1199469 L2.05309615,8.599725 C1.741875,8.24810625 1.51257692,7.88225625 1.37074038,7.50864375 C0.802875,6.04431562 1.01838462,4.38730312 1.94740385,3.07636875 C2.87933654,1.76124375 4.35660577,1.0069875 6.00017308,1.0069875 C7.64371154,1.0069875 9.12080769,1.76121562 10.0527692,3.07636875 C10.9819615,4.38730312 11.1976442,6.04431562 10.6283942,7.51199062 Z" id="Shape"></path>
                    <path d="M6.00017308,2.98740937 C4.40567308,2.98740937 3.10828846,4.25219062 3.10828846,5.80699688 C3.10828846,7.36180313 4.4055,8.62658438 6.00017308,8.62658438 C7.59484615,8.62658438 8.89205769,7.36180313 8.89205769,5.80699688 C8.89205769,4.25235938 7.59467308,2.98740937 6.00017308,2.98740937 Z M6.00017308,7.61956875 C4.97509615,7.61956875 4.14109615,6.80641875 4.14109615,5.80696875 C4.14109615,4.80751875 4.97509615,3.99436875 6.00017308,3.99436875 C7.02525,3.99436875 7.85925,4.80751875 7.85925,5.80696875 C7.85925,6.80641875 7.02525,7.61956875 6.00017308,7.61956875 Z" id="Shape"></path>
                </g>
            </g>
        </g>
    </g>
</svg>