<?xml version="1.0" encoding="UTF-8"?>
<svg width="38px" height="38px" viewBox="0 0 38 38" version="1.1" xmlns="http://www.w3.org/2000/svg" xmlns:xlink="http://www.w3.org/1999/xlink">
    <title>svg/Training_ic</title>
    <g id="Page-1" stroke="none" stroke-width="1" fill="none" fill-rule="evenodd">
        <g id="Service-All-Category" transform="translate(-169.000000, -132.000000)" fill="#47CDFE" fill-rule="nonzero" stroke="#47CDFE" stroke-width="0.2">
            <g id="Group-2" transform="translate(122.000000, 108.000000)">
                <g id="Training_ic" transform="translate(48.000000, 24.000000)">
                    <g id="Group" transform="translate(18.007000, 18.840000) scale(-1, 1) rotate(-180.000000) translate(-18.007000, -18.840000) translate(0.007000, 0.840000)">
                        <path d="M23.303,11.9 L23.303,13.853 L24.934,12.915 C26.782,11.844 26.537,11.872 26.999,12.677 L27.223,13.076 L25.284,14.189 L23.338,15.302 L23.317,16.611 L23.303,17.92 L35.833,17.92 L35.833,19.18 L34.643,19.18 L34.643,32.2 L34.993,32.2 C35.378,32.2 35.721,32.34 35.791,32.515 C35.8105,32.5735 35.83,33.1872857 35.8326862,33.9135944 L35.8325306,34.6137143 C35.8297143,35.5214286 35.81,35.56 35.672,35.686 L35.511,35.84 L9.856,35.84 L9.688,35.665 L9.64261073,35.6200144 C9.52664324,35.4972237 9.51443613,35.3812048 9.51315117,34.4326999 L9.51313908,33.6961935 C9.51446032,32.6482063 9.52833333,32.609 9.674,32.438 C9.814,32.277 9.912,32.242 10.269,32.214 L10.703,32.186 L10.703,25.06 L11.963,25.06 L11.963,32.2 L33.383,32.2 L33.383,19.18 L14.273,19.18 L14.273,17.92 L22.043,17.92 L22.043,15.295 L20.153,14.217 C19.11,13.622 18.242,13.111 18.221,13.083 C18.193,13.034 18.501,12.425 18.739,12.054 C18.781,11.991 19.201,12.194 20.391,12.88 C21.273,13.377 22.001,13.79 22.015,13.79 C22.0277273,13.79 22.0404545,13.4371074 22.0426634,12.9837641 L22.043,11.9 L23.303,11.9 Z M34.573,33.46 L10.773,33.46 L10.773,34.58 L34.573,34.58 L34.573,33.46 Z M5.341,4.76 L5.58099215,4.760092 L5.58099215,4.760092 L6.0505099,4.7608065 C7.81995266,4.76484615 9.21226923,4.78342308 9.268,4.802 C9.408,4.858 9.583,5.194 9.583,5.418 C9.583,5.516 9.331,5.971 8.988,6.489 L8.393,7.385 L8.393,18.158 L8.589,17.843 C8.862,17.416 9.324,17.038 9.786,16.863 C10.353,16.653 11.284,16.695 11.809,16.968 C12.243,17.192 12.67,17.598 12.866,17.976 C12.943,18.123 13.447,19.362 13.993,20.72 C15.323,24.052 15.365,23.891 13.223,23.926 C12.082,23.947 11.795,23.926 11.627,23.842 C11.445,23.751 11.368,23.604 11.088,22.82 L10.752,21.903 L10.549,22.274 C10.108,23.079 9.219,23.716 8.316,23.87 L7.847,23.954 L8.015,24.241 C8.288,24.738 8.393,25.291 8.393,26.264 C8.393,26.754 8.358,27.321 8.316,27.524 C8.078,28.623 7.161,29.568 6.076,29.813 C5.607,29.925 4.9,29.897 4.452,29.75 C3.626,29.491 2.982,28.917 2.604,28.098 C2.41831579,27.7133684 2.40854294,27.674277 2.40802858,26.4927538 L2.408,24.885 L2.611,24.465 C2.645,24.399 2.67785714,24.3347143 2.70761224,24.2760612 L2.78561224,24.1209184 C2.818,24.0557143 2.839,24.012 2.842,24.003 C2.856,23.982 2.674,23.919 2.429,23.87 C1.47,23.688 0.693,23.093 0.266,22.225 L0.028,21.735 L0.007,17.675 C0.00648148148,17.5095926 0.00603978052,17.3460288 0.00567489712,17.184909 L0.00596296296,15.0264458 C0.00898765432,14.1139012 0.0163333333,13.5076667 0.028,13.461 C0.098,13.167 0.392,13.09 1.428,13.09 L2.373,13.09 L2.373,7.42 L1.778,6.524 C1.106,5.516 1.036,5.25 1.358,4.935 L1.526,4.76 L5.341,4.76 Z M16.457,23.38 C16.485,23.38 17.346,23.982 18.375,24.717 C19.397,25.445 20.272,26.033 20.321,26.019 C20.363,25.998 20.993,25.508 21.721,24.927 C22.82,24.045 23.079,23.87 23.268,23.87 C23.534,23.87 23.555,23.884 26.558,25.991 L28.588,27.419 L28.609,26.831 L28.63,26.25 L29.883,26.25 L29.883,27.573 L29.8832531,27.7432436 L29.8832531,27.7432436 L29.88362,28.1812368 C29.8766742,29.2559631 29.7586897,29.2081034 28.413,29.54 C28.3068333,29.5668333 28.2024167,29.5930833 28.1017917,29.6182963 L27.6814635,29.7232234 C27.3851667,29.7970069 27.1728333,29.84975 27.132,29.862 C27.069,29.883 26.999,29.855 26.985,29.806 C26.901,29.561 26.67,28.672 26.684,28.658 C26.691,28.658 26.929,28.595 27.216,28.525 C27.692,28.413 27.727,28.392 27.601,28.301 C27.3133226,28.0867097 26.5221623,27.5314298 25.6967721,26.9588363 L25.3151009,26.6945116 C24.2999428,25.9926535 23.3422903,25.34 23.317,25.34 C23.2843333,25.34 22.7394533,25.7546489 22.0807481,26.2766187 L21.938,26.39 C21.217,26.971 20.545,27.461 20.447,27.489 C20.349,27.51 20.188,27.503 20.09,27.461 C20.0148667,27.4316 19.1317778,26.8244356 18.1869997,26.1623911 L17.7804936,25.8768222 C16.83332,25.2097689 15.9310667,24.5625333 15.82,24.458 C15.757,24.4007273 15.7736612,24.3247107 15.9351608,24.0727581 L16.065,23.877 L16.065,23.877 C16.254,23.604 16.429,23.38 16.457,23.38 Z M3.801,24.955 C3.654,25.27 3.633,25.403 3.633,26.292 C3.633,27.237 3.64,27.3 3.829,27.65 C4.039,28.063 4.389,28.378 4.795,28.532 C5.138,28.658 5.754,28.623 6.09,28.462 C6.419,28.308 6.755,27.972 6.944,27.622 C7.07466667,27.3802667 7.09557333,27.2482933 7.09778015,26.4634513 L7.09731641,25.9434355 C7.09329687,25.24375 7.0665,25.1825 6.895,24.864 C6.195,23.604 4.403,23.653 3.801,24.955 Z M7.133,15.54 L3.633,15.54 L3.63253193,19.0180639 C3.62842975,21.2828347 3.58909091,21.3366364 3.22,21.483 C2.982,21.588 2.751,21.532 2.534,21.329 L2.50190561,21.3001786 C2.39778954,21.2004286 2.37776722,21.0809911 2.37391677,19.9496161 L2.37319802,19.5979732 C2.37313202,19.5344911 2.37308801,19.4685 2.37305867,19.3998929 L2.373,16.73 L1.253,16.73 L1.253,21.336 L1.449,21.707 C1.652,22.106 2.114,22.477 2.541,22.603 C2.66,22.638 3.206,22.673 3.759,22.673 L4.753,22.68 L4.753,16.66 L6.013,16.66 L6.013,22.694 L7.119,22.666 C8.092,22.645 8.253,22.624 8.547,22.484 C9.03,22.246 9.387,21.812 9.632,21.168 C9.751,20.867 9.933,20.384 10.038,20.104 C10.241,19.551 10.402,19.39 10.745,19.39 C11.039,19.39 11.256,19.579 11.403,19.957 L11.529,20.265 L11.984,20.286 L12.446,20.307 L12.075,19.39 C11.865,18.886 11.648,18.417 11.578,18.34 C11.284,18.011 10.556,17.885 10.157,18.088 C9.828,18.256 9.681,18.48 8.967,19.915 C8.582,20.692 8.218,21.364 8.162,21.406 C8.106,21.455 7.945,21.518 7.805,21.539 C7.595,21.574 7.525,21.546 7.343,21.364 L7.133,21.154 L7.133,15.54 Z M12.033,21.623 C12.033,21.658 12.117,21.917 12.215,22.183 L12.397,22.68 L12.887,22.68 C13.342,22.68 13.37,22.673 13.328,22.54 C13.307,22.463 13.209,22.218 13.118,22.001 L12.957,21.595 L12.495,21.574 C12.222,21.56 12.033,21.581 12.033,21.623 Z M2.373,14.35 L1.253,14.35 L1.253,15.47 L2.373,15.47 L2.373,14.35 Z M4.753,6.02 L3.871,6.02 C3.192,6.02 3.003,6.041 3.045,6.111 C3.08,6.153 3.22,6.384 3.367,6.608 L3.633,7.021 L3.633,14.28 L7.133,14.28 L7.133,6.965 L7.413,6.545 C7.567,6.314 7.693,6.104 7.693,6.076 C7.693,6.041 7.315,6.02 6.853,6.02 L6.013,6.02 L6.013,13.16 L4.753,13.16 L4.753,6.02 Z M10.759,0 L10.787,1.141 C10.815,2.443 10.878,2.653 11.417,3.108 C11.928,3.549 12.173,3.584 14.497,3.556 L16.548,3.535 L16.926,3.325 C17.675,2.912 17.85,2.499 17.899,1.064 L17.934,0 L19.166,0 L19.187,1.176 C19.208,2.352 19.208,2.359 19.418,2.702 C19.656,3.087 20.195,3.451 20.622,3.528 C20.769,3.549 21.728,3.57 22.75,3.57 C24.85,3.57 25.109,3.528 25.599,3.108 C26.138,2.653 26.201,2.436 26.229,1.134 L26.257,0 L27.489,0 L27.517,1.134 C27.545,2.436 27.608,2.653 28.147,3.108 C28.637,3.528 28.896,3.57 30.996,3.57 C32.018,3.57 32.977,3.549 33.124,3.528 C33.551,3.451 34.09,3.087 34.328,2.702 C34.538,2.359 34.538,2.352 34.559,1.176 L34.58,0 L35.847,0 L35.819,1.316 L35.798,2.632 L35.574,3.087 C35.448,3.346 35.189,3.71 35,3.906 C34.657,4.249 33.901,4.69 33.649,4.69 C33.481,4.69 33.488,4.753 33.691,5.117 C33.978,5.635 34.083,6.174 34.083,7.175 C34.083,8.582 33.852,9.261 33.124,9.947 C32.606,10.437 31.99,10.71 31.297,10.759 C29.988,10.85 28.882,10.213 28.315,9.03 L28.098,8.575 L28.098,5.775 L28.322,5.299 C28.448,5.04 28.539,4.802 28.532,4.774 C28.525,4.746 28.371,4.669 28.189,4.606 C27.804,4.473 27.51,4.284 27.139,3.927 L26.873,3.682 L26.614,3.934 C26.285,4.242 25.865,4.508 25.501,4.634 C25.347,4.683 25.214,4.746 25.207,4.774 C25.207,4.802 25.298,5.04 25.424,5.299 L25.648,5.775 L25.648,8.575 L25.431,9.03 C24.864,10.213 23.758,10.85 22.449,10.759 C21.756,10.71 21.14,10.437 20.622,9.947 C19.894,9.261 19.663,8.582 19.663,7.175 C19.663,6.174 19.768,5.635 20.055,5.117 C20.258,4.753 20.265,4.69 20.097,4.69 C19.852,4.69 19.138,4.277 18.83,3.962 L18.522,3.647 L18.221,3.955 C17.906,4.263 17.157,4.69 16.919,4.69 C16.751,4.69 16.758,4.753 16.982,5.145 C17.08,5.327 17.206,5.656 17.255,5.873 C17.388,6.426 17.381,7.987 17.248,8.505 C17.01,9.408 16.457,10.08 15.617,10.486 C15.183,10.696 15.022,10.731 14.497,10.752 C14.091,10.773 13.762,10.745 13.503,10.675 C12.663,10.437 11.977,9.856 11.585,9.03 L11.368,8.575 L11.368,5.761 L11.627,5.257 C11.795,4.928 11.858,4.746 11.802,4.725 C10.794,4.424 10.066,3.773 9.709,2.87 C9.576,2.541 9.555,2.31 9.527,1.246 L9.499,0 L10.759,0 Z M14.308,4.837 C13.65,4.83 13.055,5.222 12.761,5.845 C12.607,6.16 12.593,6.293 12.593,7.182 C12.593,8.127 12.6,8.19 12.789,8.54 C13.223,9.38 14.168,9.737 14.973,9.373 C15.358,9.198 15.708,8.876 15.904,8.505 C16.0346667,8.2698 16.0555733,8.13826222 16.0577801,7.35344919 L16.0573164,6.83343555 C16.0532969,6.13375 16.0265,6.0725 15.855,5.754 C15.519,5.152 14.987,4.837 14.308,4.837 Z M21.161,5.754 C20.965,6.118 20.958,6.146 20.958,7.175 C20.958,8.12 20.972,8.253 21.112,8.505 C21.532,9.289 22.372,9.674 23.177,9.45 C23.576,9.338 24.01,8.967 24.227,8.547 C24.3908,8.2376 24.4178978,8.15428444 24.4222119,7.51785067 L24.423,7.182 C24.423,6.293 24.409,6.16 24.255,5.845 C23.632,4.529 21.868,4.48 21.161,5.754 Z M31.038,4.837 C30.38,4.83 29.785,5.222 29.491,5.845 C29.337,6.16 29.323,6.293 29.323,7.182 C29.323,8.127 29.33,8.19 29.519,8.54 C29.953,9.38 30.898,9.737 31.703,9.373 C32.088,9.198 32.438,8.876 32.634,8.505 C32.7646667,8.2698 32.7855733,8.13826222 32.7877801,7.35344919 L32.7873164,6.83343555 C32.7832969,6.13375 32.7565,6.0725 32.585,5.754 C32.249,5.152 31.717,4.837 31.038,4.837 Z" id="Combined-Shape"></path>
                    </g>
                </g>
            </g>
        </g>
    </g>
</svg>