<?xml version="1.0" encoding="UTF-8"?>
<svg width="44px" height="39px" viewBox="0 0 44 39" version="1.1" xmlns="http://www.w3.org/2000/svg" xmlns:xlink="http://www.w3.org/1999/xlink">
    <title>svg/Transport_services_ic</title>
    <g id="Page-1" stroke="none" stroke-width="1" fill="none" fill-rule="evenodd">
        <g id="Service-All-Category" transform="translate(-166.000000, -449.000000)" fill="#47CDFE" fill-rule="nonzero">
            <g id="Group-2" transform="translate(146.000000, 426.000000)">
                <g id="Transport_services_ic" transform="translate(20.000000, 22.000000)">
                    <g id="Group" transform="translate(22.000000, 19.713720) scale(-1, 1) rotate(-180.000000) translate(-22.000000, -19.713720) translate(0.000000, 0.213720)">
                        <path d="M14.66766,0.7497 C15.77016,1.4553 16.5816,2.65482 16.88148,4.00428 L16.9344,4.24242 L29.6352,4.24242 L29.68812,4.00428 C29.988,2.63718 30.7818,1.47294 31.90194,0.7497 C33.43662,-0.24696 35.70336,-0.24696 37.24686,0.7497 C38.34936,1.4553 39.1608,2.65482 39.46068,3.99546 L39.5136,4.24242 L40.86306,4.24242 C41.96556,4.24242 42.26544,4.2777 42.5565,4.41 C43.00632,4.61286 43.53552,5.19498 43.659,5.62716 C43.70688,5.78277 43.7303925,6.45822 43.7350492,7.75272054 L43.7355346,8.65353696 C43.734735,9.063945 43.73271,9.51867 43.72956,10.01952 L43.7031,14.07672 L43.42086,14.65884 C43.05924,15.39972 42.45948,15.95538 41.5863,16.38756 C41.15412,16.60806 40.90716,16.78446 40.8807,16.89912 C40.85424,16.99614 40.64256,18.28386 40.3956,19.76562 C40.15746,21.24738 39.87522,22.7115 39.7782,23.02902 C39.46068,24.06096 38.57868,24.94296 37.54674,25.2693 C37.2427892,25.3642846 36.8842832,25.3956214 35.1884737,25.3992143 L34.5957593,25.3994579 C34.0251593,25.3989036 33.3341723,25.3963985 32.49288,25.39278 L27.9153,25.36632 L27.40374,25.11936 C27.13032,24.97824 26.69814,24.66954 26.45118,24.4314 L26.01018,23.99922 L23.9904,23.99922 L23.9904,31.05522 L19.7568,31.05522 L19.7568,38.11122 L9.8784,38.11122 L9.8784,31.05522 L5.6448,31.05522 L5.6448,23.99922 L1.4112,23.99922 L1.4112,16.94322 L1.17306,16.94322 C0.8379,16.94322 0.38808,16.65216 0.1764,16.30818 C0.036456,16.069452 0.0040768,15.8845064 0.000381546667,15.0219026 L0,14.82642 C0,13.79448 0.02646,13.60044 0.1764,13.34466 C0.38808,13.00068 0.8379,12.70962 1.17306,12.70962 L1.4112,12.70962 L1.41184809,8.1900766 C1.4173569,5.45843169 1.46969053,5.38948421 1.96686,4.86864 C2.50194,4.30808 2.70169062,4.24642469 4.75559765,4.24262658 L7.056,4.24242 L7.10892,3.99546 C7.4088,2.63718 8.2026,1.47294 9.32274,0.7497 C10.85742,-0.24696 13.12416,-0.24696 14.66766,0.7497 Z M18.3456,31.05522 L11.2896,31.05522 L11.2896,36.70002 L12.7008,36.70002 L12.7008,33.87762 L16.9344,33.87762 L16.9344,36.70002 L18.3456,36.70002 L18.3456,31.05522 Z M15.5232,35.28882 L14.112,35.28882 L14.112,36.70002 L15.5232,36.70002 L15.5232,35.28882 Z M14.112,23.99922 L7.056,23.99922 L7.056,29.64402 L8.4672,29.64402 L8.4672,26.82162 L12.7008,26.82162 L12.7008,29.64402 L14.112,29.64402 L14.112,23.99922 Z M11.2896,28.23282 L9.8784,28.23282 L9.8784,29.64402 L11.2896,29.64402 L11.2896,28.23282 Z M22.5792,23.99922 L15.5232,23.99922 L15.5232,29.64402 L16.9344,29.64402 L16.9344,26.82162 L21.168,26.82162 L21.168,29.64402 L22.5792,29.64402 L22.5792,23.99922 Z M19.7568,28.23282 L18.3456,28.23282 L18.3456,29.64402 L19.7568,29.64402 L19.7568,28.23282 Z M28.224,5.65362 L26.80398,5.65362 L26.83044,13.97088 C26.8555987,21.3675344 26.8648098,22.2336532 26.9945428,22.5814755 L27.008399,22.6158548 C27.0107819,22.6213587 27.013202,22.6267702 27.01566,22.63212 C27.31554,23.30244 27.93294,23.79636 28.6209,23.91984 C28.8000138,23.9524062 30.4521199,23.9699418 32.4048366,23.9724469 L32.8986,23.97276 L32.8986,23.97276 C36.70002,23.95512 36.83232,23.9463 37.2204,23.7699 C37.68786,23.5494 38.12886,23.09958 38.30526,22.67622 C38.37582,22.50864 38.68452,20.87694 38.9844,19.0512 L39.54006,15.73488 L40.37796,15.32034 C40.8366,15.09102 41.34816,14.80878 41.4981,14.6853 C41.86854,14.40306 42.21252,13.74156 42.28308,13.17708 L42.34482,12.70962 L39.5136,12.70962 L39.5136,9.40212 L40.9248,8.69652 L42.336,7.99092 L42.336,7.2324 C42.336,5.80356 42.1596,5.65362 40.53672,5.65362 L39.5136,5.65362 L39.46068,5.89176 C39.28428,6.72084 38.88738,7.54992 38.41992,8.1144 L38.1024,8.49366 L38.1024,17.95752 L37.7496,19.85382 C37.37916,21.85596 37.3086,22.03236 36.7794,22.39398 C36.5342968,22.5573821 36.4893417,22.5831824 34.2954288,22.5872562 L31.7704869,22.5874877 C29.2771733,22.5841 29.10992,22.56058 28.85904,22.41162 C28.70028,22.3146 28.49742,22.11174 28.4004,21.95298 C28.2625519,21.7208148 28.2321271,21.5542972 28.2256703,17.1481249 L28.2250162,16.6099319 C28.2249239,16.5168865 28.2248396,16.4221462 28.2247627,16.3256785 L28.224,5.65362 Z M9.8784,16.94322 L2.8224,16.94322 L2.8224,22.58802 L4.2336,22.58802 L4.2336,19.76562 L8.4672,19.76562 L8.4672,22.58802 L9.8784,22.58802 L9.8784,16.94322 Z M18.3456,16.94322 L11.2896,16.94322 L11.2896,22.58802 L12.7008,22.58802 L12.7008,19.76562 L16.9344,19.76562 L16.9344,22.58802 L18.3456,22.58802 L18.3456,16.94322 Z M7.056,21.17682 L5.6448,21.17682 L5.6448,22.58802 L7.056,22.58802 L7.056,21.17682 Z M15.5232,21.17682 L14.112,21.17682 L14.112,22.58802 L15.5232,22.58802 L15.5232,21.17682 Z M25.4016,16.94322 L19.7568,16.94322 L19.7568,22.58802 L21.168,22.58802 L21.168,19.76562 L25.4016,19.76562 L25.4016,16.94322 Z M25.4016,21.17682 L22.5792,21.17682 L22.5792,22.58802 L25.4016,22.58802 L25.4016,21.17682 Z M31.1787,15.53202 L29.6352,15.53202 L29.6352,21.17682 L35.96796,21.17682 L36.19728,19.92438 C36.32958,19.2276 36.45306,18.59256 36.47952,18.51318 C36.5196109,18.3768709 36.4284952,18.3571899 35.318209,18.3547381 L34.95366,18.35442 L34.95366,18.35442 C33.19848,18.35442 32.9868,18.29268 32.634,17.71938 C32.4135,17.35776 32.39586,16.51986 32.5899,15.97302 C32.66046,15.77016 32.7222,15.58494 32.7222,15.5673 C32.7222,15.54966 32.02542,15.53202 31.1787,15.53202 Z M36.6912,15.50556 L35.81802,15.54966 C35.16534,15.58494 34.87428,15.63786 34.65378,15.76134 C34.30098,15.97302 33.957,16.4493 33.957,16.73154 L33.957,16.94322 L36.6912,16.94322 L36.6912,15.50556 Z M25.4016,14.12082 L1.4112,14.12082 L1.4112,15.53202 L25.4016,15.53202 L25.4016,14.12082 Z M29.644951,8.71464706 L29.64402,9.95778 L29.64402,9.95778 L29.6352,14.12082 L36.6912,14.12082 L36.6912,9.47268 L36.10026,9.67554 C35.22708,9.97542 33.93054,9.9666 33.01326,9.66672 C31.43448,9.13752 30.19968,7.83216 29.77632,6.2622 C29.7707268,6.24111805 29.7653645,6.22182004 29.7602239,6.20462436 L29.7454576,6.15966272 C29.6701524,5.95690087 29.6492304,6.37384586 29.644951,8.71464706 Z M7.056,5.65362 L5.34492,5.65362 C4.30416,5.65362 3.528,5.6889 3.3516,5.75064 C3.02526,5.8653 2.8224,6.25338 2.8224,6.75612 L2.8224,7.06482 L6.24456,7.06482 L7.30296,11.29842 L2.8224,11.29842 L2.8224,12.70962 L25.4016,12.70962 L25.4016,5.65362 L16.9344,5.65362 L16.88148,5.90058 C16.5816,7.25886 15.7878,8.4231 14.66766,9.14634 C13.12416,10.143 10.86624,10.143 9.32274,9.14634 C8.2026,8.4231 7.4088,7.25886 7.10892,5.90058 L7.056,5.65362 Z M42.2919,9.71082 C42.27426,9.71082 41.95674,9.86076 41.5863,10.03716 L40.9248,10.3635 L40.9248,11.29842 L42.336,11.29842 L42.336,10.50462 C42.336,10.07244 42.31836,9.71082 42.2919,9.71082 Z M2.8224,8.4672 L2.8224,9.88722 L4.1013,9.88722 C4.8069,9.88722 5.3802,9.86076 5.3802,9.82548 C5.3802,9.78138 5.30082,9.4815 5.22144,9.13752 L5.06268,8.52012 L3.94254,8.49366 L2.8224,8.4672 Z M34.7662401,1.55296313 L34.5744,1.55232 C33.75414,1.55232 33.59538,1.57878 33.13674,1.79046 C32.48406,2.09916 31.72554,2.85768 31.41684,3.51036 C31.20516,3.969 31.1787,4.12776 31.1787,4.94802 C31.1787,5.76828 31.20516,5.92704 31.40802,6.35922 C31.83138,7.25004 32.55462,7.91154 33.45426,8.22906 C34.14222,8.47602 35.33292,8.41428 36.01206,8.09676 C36.66474,7.79688 37.42326,7.04718 37.73196,6.38568 C37.94364,5.92704 37.9701,5.76828 37.9701,4.94802 C37.9701,4.12776 37.94364,3.969 37.73196,3.51036 C37.42326,2.85768 36.66474,2.09916 36.01206,1.79046 C35.59164,1.59642 35.4232025,1.55801625 34.7662401,1.55296313 Z M12.1870401,1.55296313 L11.9952,1.55232 C11.17494,1.55232 11.01618,1.57878 10.55754,1.79046 C9.90486,2.09916 9.14634,2.85768 8.83764,3.51036 C8.62596,3.969 8.5995,4.12776 8.5995,4.94802 C8.5995,5.76828 8.62596,5.92704 8.82882,6.35922 C9.25218,7.25004 9.97542,7.91154 10.87506,8.22906 C11.56302,8.47602 12.75372,8.41428 13.43286,8.09676 C14.08554,7.79688 14.84406,7.04718 15.15276,6.38568 C15.3468,5.96526 15.3852038,5.7968225 15.3902569,5.1398601 L15.3909,4.94802 C15.3909,4.12776 15.36444,3.969 15.15276,3.51036 C14.84406,2.85768 14.08554,2.09916 13.43286,1.79046 C13.01244,1.59642 12.8440025,1.55801625 12.1870401,1.55296313 Z M34.5744,2.83122 C35.84448,2.83122 36.6912,3.67794 36.6912,4.94802 C36.6912,5.8653 36.22374,6.59736 35.43876,6.9237 C34.98012,7.11774 34.0893,7.1001 33.6483,6.89724 C32.88096,6.54444 32.4576,5.83884 32.4576,4.93038 C32.46642,3.67794 33.31314,2.83122 34.5744,2.83122 Z M11.9952,2.83122 C13.26528,2.83122 14.112,3.67794 14.112,4.94802 C14.112,5.8653 13.64454,6.59736 12.85956,6.9237 C12.40092,7.11774 11.5101,7.1001 11.0691,6.89724 C10.30176,6.54444 9.8784,5.83884 9.8784,4.93038 C9.88722,3.67794 10.73394,2.83122 11.9952,2.83122 Z M11.3778,4.94802 C11.3778,5.28318 11.66004,5.56542 11.9952,5.56542 C12.14514,5.56542 12.33918,5.48604 12.4362,5.38902 C12.53322,5.292 12.6126,5.09796 12.6126,4.94802 C12.6126,4.79808 12.53322,4.60404 12.4362,4.50702 C12.05694,4.12776 11.3778,4.41 11.3778,4.94802 Z M33.957,4.94802 C33.957,5.28318 34.23924,5.56542 34.5744,5.56542 C34.72434,5.56542 34.91838,5.48604 35.0154,5.38902 C35.11242,5.292 35.1918,5.09796 35.1918,4.94802 C35.1918,4.79808 35.11242,4.60404 35.0154,4.50702 C34.63614,4.12776 33.957,4.41 33.957,4.94802 Z" id="Combined-Shape"></path>
                    </g>
                </g>
            </g>
        </g>
    </g>
</svg>