<?xml version="1.0" encoding="UTF-8"?>
<svg width="37px" height="37px" viewBox="0 0 37 37" version="1.1" xmlns="http://www.w3.org/2000/svg" xmlns:xlink="http://www.w3.org/1999/xlink">
    <title>svg/Translation_services_ic</title>
    <g id="Page-1" stroke="none" stroke-width="1" fill="none" fill-rule="evenodd">
        <g id="Service-All-Category" transform="translate(-170.000000, -1054.000000)" fill="#47CDFE" fill-rule="nonzero">
            <g id="Group-2" transform="translate(146.000000, 1030.000000)">
                <g id="Translation_services_ic" transform="translate(24.000000, 24.000000)">
                    <path d="M10.044,0.1008 C10.9368,-0.0504 13.4496,0.0144 14.3136,0.2088 C18.5544,1.152 21.8664,4.1184 23.1984,8.1648 C23.6016,9.396 23.7672,10.4472 23.7672,11.8224 L23.7672,11.8224 L23.7744,12.96 L29.2176,12.9744 L34.668,12.996 L35.1504,13.2264 C35.784,13.5216 36.3024,14.04 36.5976,14.6736 L36.5976,14.6736 L36.828,15.156 L36.828,30.78 L36.5976,31.2624 C36.3024,31.896 35.784,32.4144 35.1504,32.7096 C34.6824,32.9328 34.632,32.94 33.5736,32.9616 L33.5736,32.9616 L32.472,32.9904 L32.472,36.4824 L32.2848,36.6768 C32.1336,36.828 32.0256,36.864 31.7592,36.864 L31.7592,36.864 L31.7017306,36.8633437 L31.7017306,36.8633437 L31.6474252,36.8597013 C31.3869554,36.8308364 31.1146909,36.6093818 29.052,34.92 L29.052,34.92 L26.676,32.9832 L21.204,32.9616 L15.732,32.94 L15.2496,32.7096 C14.616,32.4144 14.0976,31.896 13.8024,31.2624 L13.8024,31.2624 L13.572,30.78 L13.5504,27.2232 L13.5288,23.6736 L13.284,23.7168 C12.888,23.796 10.8864,23.7744 10.26,23.688 C8.5176,23.4504 6.732,22.7664 5.2776,21.8016 L5.2776,21.8016 L4.6944,21.4128 L3.2328,21.8016 C1.4544,22.2696 1.2096,22.2912 0.9216,21.9744 C0.792,21.8232 0.72,21.6648 0.72,21.5136 C0.72,21.384 0.9864,20.7072 1.3464,19.9224 L1.3464,19.9224 L1.9656,18.5472 L1.7712,18.2232 C0.936,16.7976 0.3816,15.3288 0.1368,13.8888 C0.0072,13.1112 -0.0144,12.8088 0.0216,11.556 C0.0648,9.9648 0.1656,9.3456 0.6048,8.028 C0.9216,7.092 1.5192,5.8968 1.7712,5.6952 C2.0664,5.4648 2.4768,5.4936 2.7432,5.7528 C3.0384,6.048 3.024,6.408 2.7072,6.9984 C2.34,7.6608 2.0232,8.496 1.7784,9.432 C1.5912,10.152 1.5624,10.4256 1.5336,11.5344 C1.5048,12.528 1.5192,12.9672 1.62,13.5504 C1.8504,14.9616 2.376,16.3008 3.1608,17.5176 C3.4632,17.9856 3.6,18.2664 3.6,18.4248 C3.6,18.5472 3.4344,19.008 3.2328,19.4472 C3.0384,19.8864 2.88,20.2608 2.8944,20.2752 C2.9088,20.2824 3.3696,20.1816 3.9168,20.0448 C5.0616,19.7568 5.0832,19.7568 5.7312,20.2464 C7.5024,21.5784 9.6192,22.2696 11.916,22.2552 C13.0608,22.2552 13.8888,22.1328 14.9328,21.8088 C18.6696,20.6568 21.4632,17.4744 22.14,13.572 C22.2912,12.7296 22.2912,11.0376 22.1472,10.224 C21.6216,7.2576 19.9944,4.788 17.5104,3.1608 C15.804,2.0448 13.968,1.5048 11.88,1.5048 C10.1952,1.5048 8.8056,1.8216 7.3008,2.5632 C6.8616,2.7792 6.4152,2.952 6.3072,2.952 C5.688,2.952 5.3208,2.2464 5.6952,1.7712 C5.7816,1.6632 6.1632,1.4184 6.5448,1.2312 C7.6392,0.6768 8.784,0.3096 10.044,0.1008 Z M23.5512,14.3928 L23.472,14.7024 C22.4712,18.6552 19.5696,21.8304 15.7464,23.1552 L15.7464,23.1552 L14.9688,23.4216 L14.9904,26.8488 L15.012,30.2832 L15.1992,30.636 C15.4224,31.0824 15.8184,31.3704 16.3368,31.464 C16.55856,31.50432 18.486304,31.532096 21.3882987,31.5356203 L27.3312,31.536 L29.1672,33.0336 L30.996,34.5384 L31.0176,33.2208 C31.0392,31.4496 30.924,31.5576 32.7816,31.5288 C34.0992,31.5 34.1856,31.4928 34.524,31.3128 C34.9704,31.0896 35.2584,30.6936 35.352,30.1752 C35.3979789,29.9354526 35.422985,27.0246626 35.4270183,23.8795706 L35.4270183,22.0564294 C35.422985,18.9113374 35.3979789,16.0005474 35.352,15.7608 C35.2584,15.2424 34.9704,14.8464 34.524,14.6232 L34.524,14.6232 L34.1712,14.436 L28.8576,14.4144 L23.5512,14.3928 Z M24.696,18.18 C24.9408,17.9208 25.4664,17.9208 25.704,18.18 C25.7976,18.2808 26.3952,19.5552 27.036,21.0096 L27.036,21.0096 L28.1952,23.652 L28.512,23.6952 C28.9008,23.7456 29.232,24.0768 29.232,24.4152 C29.232,24.66 29.0664,25.0272 28.9296,25.0704 C28.8648,25.092 28.9728,25.416 29.2896,26.1432 C29.8008,27.3312 29.8368,27.5616 29.5272,27.8712 C29.3544,28.0368 29.2536,28.08 28.9944,28.08 C28.7928,28.08 28.6128,28.0296 28.5192,27.9504 C28.4328,27.8856 28.1088,27.2448 27.792,26.532 L27.792,26.532 L27.216,25.236 L25.2,25.2144 L23.184,25.2 L23.0904,25.4304 C22.5648,26.6904 22.0464,27.7848 21.9096,27.9216 C21.6648,28.1664 21.1536,28.1448 20.8728,27.8712 C20.5632,27.5616 20.5992,27.3312 21.1104,26.1432 C21.4272,25.416 21.5352,25.092 21.4704,25.0704 C21.3336,25.0272 21.168,24.66 21.168,24.4152 C21.168,24.0768 21.4992,23.7456 21.888,23.6952 L21.888,23.6952 L22.2048,23.652 L23.364,21.0024 C24.0048,19.548 24.6024,18.2808 24.696,18.18 Z M25.2,20.736 C25.1568,20.736 23.904,23.5296 23.904,23.6304 C23.904,23.6664 24.4872,23.688 25.2,23.688 L25.3505939,23.6876746 C25.9931388,23.6848776 26.496,23.6643429 26.496,23.6376 C26.496,23.6088 26.2152,22.9392 25.8696,22.1616 C25.5312,21.3768 25.2288,20.736 25.2,20.736 Z M11.4552,6.2208 C11.8224,6.0192 12.3552,6.1632 12.5136,6.516 C12.5712,6.6456 12.6,7.2144 12.6,8.28 L12.6,9.864 L16.1424,9.864 L16.3512,10.0728 C16.7688,10.4976 16.56,11.2176 15.9768,11.3328 C15.8472,11.3544 15.0624,11.376 14.22,11.376 L12.6864,11.376 L12.7872,11.808 C13.176,13.4784 14.2056,14.9544 15.66,15.9264 C16.3728,16.4016 16.4808,16.5384 16.488,16.9416 C16.488,17.3304 16.1784,17.64 15.7896,17.64 C14.8752,17.64 12.6648,15.552 11.9952,14.0544 L11.9952,14.0544 L11.8584,13.752 L11.5704,14.2704 C10.872,15.5664 9.5184,16.9416 8.3736,17.5248 C7.7976,17.8128 7.2,17.5176 7.2,16.9344 C7.2,16.776 7.2216,16.5888 7.2432,16.524 C7.272,16.4592 7.5744,16.2216 7.9128,16.0056 C9.396,15.0552 10.512,13.4856 10.9008,11.8152 L10.9008,11.8152 L11.0016,11.3904 L9.5976,11.3616 L8.1936,11.34 L7.9848,11.1024 C7.6896,10.7784 7.6896,10.368 7.9848,10.0728 L7.9848,10.0728 L8.1936,9.864 L11.088,9.864 L11.088,8.2584 C11.0952,6.552 11.1168,6.408 11.4552,6.2208 Z M3.6072,3.3408 C4.1688,3.0312 4.8384,3.492 4.7232,4.1184 C4.6656,4.4496 4.3992,4.68 4.0392,4.7304 C3.78,4.7664 3.7224,4.7448 3.492,4.5144 C3.3048,4.3272 3.24,4.2048 3.24,4.0176 C3.2472,3.7224 3.384,3.4632 3.6072,3.3408 Z" id="Combined-Shape"></path>
                </g>
            </g>
        </g>
    </g>
</svg>