<?xml version="1.0" encoding="UTF-8"?>
<svg width="40px" height="41px" viewBox="0 0 40 41" version="1.1" xmlns="http://www.w3.org/2000/svg" xmlns:xlink="http://www.w3.org/1999/xlink">
    <title>svg/Travel_Product_ic</title>
    <g id="Page-1" stroke="none" stroke-width="1" fill="none" fill-rule="evenodd">
        <g id="Product-All-Category" transform="translate(-42.000000, -130.000000)" fill="#47CDFE" fill-rule="nonzero">
            <g id="Group-2" transform="translate(20.000000, 108.000000)">
                <g id="Travel_Product_ic" transform="translate(22.000000, 22.000000)">
                    <path d="M28.24,0.0147672821 C29.008,0.0547672821 29.392,0.206767282 29.936,0.702767282 C30.376,1.09476728 30.6,1.47076728 30.792,2.12676728 C30.888,2.43076728 32.8,9.53476728 35.048,17.9187673 C38.6707368,31.4092936 39.1055291,33.0599086 39.1480636,33.7336581 L39.1503488,33.7772467 C39.1512315,33.7984366 39.1517474,33.8188094 39.152,33.8387673 C39.152,34.4067673 39.12,34.5907673 38.952,34.9587673 C38.608,35.6947673 38.04,36.2387673 37.36,36.4707673 C37.208,36.5267673 33.4,37.5587673 28.896,38.7667673 C21.8438621,40.6591811 20.7281237,40.9407126 20.1915211,40.950852 L20.136,40.9509609 L20.136,40.9509609 C19.824,40.9509609 19.472,40.9187673 19.36,40.8867673 C18.624,40.6627673 17.936,40.0707673 17.64,39.4067673 C17.536,39.1827673 17.12,37.7507673 16.712,36.2227673 L15.968,33.4387673 L5.37392593,33.4379895 C5.28782963,33.4379117 5.20341481,33.4378262 5.12064674,33.4377321 L4.64352126,33.4370585 C1.51439822,33.4316693 1.036648,33.4092833 0.815904,33.3162953 L0.785156741,33.3021771 C0.765511111,33.2924206 0.7472,33.2819673 0.728,33.2707673 C0.568,33.1827673 0.344,32.9827673 0.24,32.8227673 L0.04,32.5267673 L0.04,3.63076728 L0.256,3.30276728 C0.368,3.12676728 0.6,2.91876728 0.776,2.83076728 C0.785142857,2.82619585 0.794358277,2.82176149 0.803890181,2.81745881 L0.833679268,2.80494046 C1.14073873,2.68562241 1.93549206,2.6762276 9.48,2.63876728 L17.88,2.59876728 L22.72,1.28676728 C26.7827826,0.194767282 27.4412854,0.0170924239 27.9571516,0.00780640429 L28.0751502,0.00831310274 C28.1277883,0.00956501365 28.1815652,0.0119846734 28.24,0.0147672821 Z M25.648,2.03876728 C24.368,2.38276728 23.248,2.68676728 23.16,2.72676728 C23.016,2.78276728 23.008,2.79076728 23.152,2.79076728 C23.232,2.79876728 23.512,2.91076728 23.784,3.05476728 C24.352,3.35876728 24.792,3.87876728 25.032,4.51876728 L25.0416898,4.54434272 L25.0416898,4.54434272 L25.0685101,4.61948486 L25.0685101,4.61948486 L25.0921161,4.69775992 C25.1779328,5.01743666 25.1954863,5.56886892 25.1990767,8.22671273 L25.1999987,10.4017685 C25.2,10.5080176 25.2,10.6163359 25.2,10.7267673 L25.2,16.4947673 L25.504,16.4387673 C25.664,16.4067673 25.832,16.3827673 25.872,16.3747673 C25.912,16.3667673 26.104,16.9667673 26.304,17.7027673 C26.6,18.8147673 26.648,19.0627673 26.552,19.1187673 C26.424,19.1987673 25.344,19.4787673 25.264,19.4547673 C25.22775,19.4475173 25.2046406,21.4245017 25.2006262,23.9924035 L25.200752,25.9929673 C25.20536,29.2786873 25.232,30.1635673 25.304,30.1347673 C25.352,30.1187673 25.664,30.0307673 25.984,29.9507673 L26.568,29.7987673 L26.88,28.7987673 C27.048,28.2467673 27.408,27.0627673 27.688,26.1587673 C27.96,25.2547673 28.224,24.4787673 28.272,24.4307673 C28.344,24.3587673 29.248,24.0787673 29.408,24.0787673 C29.44,24.0787673 29.44,25.1987673 29.408,26.5587673 L29.344,29.0467673 L29.576,28.9907673 C29.696,28.9587673 30.144,28.8387673 30.56,28.7267673 L31.32,28.5187673 L31.76,27.7347673 C32.184,26.9747673 32.208,26.9507673 32.592,26.8387673 C32.808,26.7747673 33.008,26.7187673 33.024,26.7187673 C33.0276923,26.7187673 33.0301065,26.7456075 33.0312426,26.7945688 L33.0318107,26.9205879 C33.0302959,27.1242111 33.0196923,27.4627673 33,27.8467673 L32.944,28.9667673 L33.552,29.8867673 C33.888,30.3827673 34.16,30.8147673 34.16,30.8307673 C34.16,30.8547673 33.968,30.9107673 33.728,30.9667673 L33.296,31.0627673 L32.528,30.6067673 L31.752,30.1507673 L30.816,30.3987673 C30.304,30.5427673 29.864,30.6627673 29.848,30.6787673 C29.832,30.6947673 30.36,31.6067673 31.024,32.6947673 C31.688,33.7907673 32.256,34.7427673 32.28,34.8147673 C32.32,34.9187673 32.24,34.9747673 31.864,35.0787673 C31.608,35.1507673 31.344,35.2227673 31.272,35.2467673 C31.192,35.2707673 30.424,34.6067673 29.088,33.3587673 C27.952,32.3027673 27,31.4387673 26.968,31.4387673 C26.944,31.4387673 26.472,31.5587673 25.92,31.7107673 C25.176,31.9187673 24.888,32.0307673 24.776,32.1747673 C24.44,32.6067673 24.016,32.9907673 23.64,33.1827673 L23.24,33.3987673 L20.384,33.4227673 C18.808,33.4387673 17.52,33.4627673 17.52,33.4787673 C17.52,33.6227673 18.904,38.6147673 18.992,38.7827673 C19.192,39.1747673 19.72,39.5107673 20.152,39.5187673 C20.256,39.5187673 24.048,38.5267673 28.592,37.3107673 C33.944,35.8787673 36.928,35.0467673 37.096,34.9347673 C37.432,34.7027673 37.68,34.2547673 37.68,33.8547673 C37.68,33.6819673 35.781504,26.4847321 33.7831803,18.9950179 L33.533,18.0577673 C31.446,10.2427673 29.332,2.41476728 29.224,2.18276728 C29.144,2.01476728 28.96,1.80676728 28.808,1.70276728 C28.288,1.35076728 28.16,1.36676728 25.648,2.03876728 Z M12.454921,4.15877963 L1.44,4.15876728 L1.44,31.9987673 L12.144,31.9827673 L22.856,31.9587673 L23.152,31.7267673 C23.32,31.5987673 23.528,31.3507673 23.608,31.1667673 L23.6225787,31.1329795 C23.6272764,31.1211733 23.6318141,31.1086589 23.6361971,31.0949421 L23.6447585,31.0657588 C23.7255574,30.7653263 23.7499138,29.8923449 23.7570921,24.8762111 L23.757775,24.342375 C23.7578791,24.2508902 23.7579786,24.1581373 23.7580735,24.0640978 L23.7588118,23.1825127 C23.7588815,23.0805895 23.7589473,22.9773248 23.7590095,22.8727004 L23.7599966,18.487202 C23.7599989,18.3473092 23.76,18.205837 23.76,18.0627673 L23.7599785,17.6102367 L23.7599785,17.6102367 L23.7592118,15.475594 C23.7591232,15.3403462 23.759027,15.2065023 23.7589231,15.0740575 L23.7582066,14.2961361 C23.7515886,8.0795592 23.726069,5.1979397 23.672,5.06276728 C23.56,4.75876728 23.216,4.39876728 22.904,4.27076728 C22.7257143,4.19152919 21.4519305,4.16679349 16.0505852,4.16057129 L15.408863,4.15993346 C15.2987988,4.15984017 15.1871651,4.15975321 15.0739402,4.15967233 L12.8593894,4.1588177 C12.7262944,4.15880056 12.5914788,4.15878795 12.454921,4.15877963 Z M14.704,12.7107673 C17.776,13.5107673 20.208,16.0387673 20.832,19.0707673 C21.608,22.8227673 19.896,26.5267673 16.56,28.3027673 C14.968,29.1507673 12.88,29.4787673 11.16,29.1587673 C9.392,28.8227673 7.904,28.0467673 6.672,26.8147673 C4.912,25.0547673 4.048,22.6707673 4.248,20.1427673 C4.552,16.3107673 7.472,13.1667673 11.296,12.5587673 C12.184,12.4147673 13.864,12.4947673 14.704,12.7107673 Z M14.304,24.0787673 L10.944,24.0787673 L11,24.3427673 C11.192,25.2547673 12.072,27.3507673 12.416,27.6947673 C12.592,27.8707673 12.664,27.8787673 12.824,27.6947673 C13.152,27.3347673 13.832,25.7587673 14.144,24.6627673 L14.304,24.0787673 Z M9.408,24.0787673 L7.26176713,24.0783755 C6.39434694,24.0847877 6.52342857,24.1584816 6.944,24.7827673 C7.608,25.7587673 8.808,26.7347673 9.904,27.2067673 C10.2,27.3347673 10.464,27.4387673 10.504,27.4387673 C10.536,27.4387673 10.48,27.2707673 10.368,27.0627673 C10.112,26.5427673 9.728,25.4467673 9.552,24.7027673 L9.408,24.0787673 Z M18.728,24.0787673 L17.28,24.0947673 L15.824,24.1187673 L15.64,24.8387673 C15.44,25.6307673 15.104,26.5987673 14.872,27.0547673 C14.784,27.2227673 14.72,27.3747673 14.72,27.3987673 C14.72,27.4707673 15.496,27.1427673 16.016,26.8547673 C17.016,26.2867673 17.96,25.3747673 18.528,24.4147673 L18.728,24.0787673 Z M27.224,21.0387673 C27.288,21.0387673 27.4,21.3027673 27.512,21.7267673 C27.608,22.1027673 27.68,22.4227673 27.664,22.4387673 C27.648,22.4467673 27.408,22.5107673 27.12,22.5827673 C26.832,22.6547673 26.528,22.7347673 26.44,22.7587673 C26.288,22.8067673 26.256,22.7347673 26.096,22.1187673 C25.992,21.7347673 25.928,21.4067673 25.944,21.3907673 C25.992,21.3427673 27.096,21.0387673 27.224,21.0387673 Z M9.16,19.1187673 L5.936,19.1187673 L5.848,19.4787673 C5.696,20.1027673 5.656,20.9907673 5.752,21.6787673 C5.808,22.0387673 5.872,22.3827673 5.896,22.4467673 C5.92444444,22.5249895 6.17412346,22.5526438 7.15071605,22.5578235 L9.16,22.5587673 L9.16,19.1187673 Z M14.536,19.1187673 L10.664,19.1187673 L10.608,19.7347673 C10.544,20.5027673 10.544,21.3267673 10.616,22.0227673 L10.664,22.5587673 L14.536,22.5587673 L14.592,22.2627673 C14.656,21.8627673 14.656,19.9667673 14.592,19.4867673 L14.536,19.1187673 Z M16.12,19.1187673 L16.12,22.5587673 L19.336,22.5587673 L19.424,22.0467673 C19.552,21.3827673 19.544,20.1587673 19.408,19.5987673 L19.312,19.1587673 L17.712,19.1347673 L16.12,19.1187673 Z M29.912,20.3187673 C29.976,20.3187673 30.352,21.6707673 30.304,21.7187673 C30.272,21.7507673 29.056,22.0787673 28.976,22.0787673 C28.944,22.0787673 28.84,21.7667673 28.736,21.3907673 C28.632,21.0067673 28.56,20.6867673 28.576,20.6787673 C28.608,20.6467673 29.832,20.3187673 29.912,20.3187673 Z M32.8,20.2707673 C32.904,20.6547673 32.968,20.9827673 32.944,20.9987673 C32.888,21.0547673 31.792,21.3587673 31.656,21.3587673 C31.592,21.3587673 31.496,21.1267673 31.4,20.7427673 C31.32,20.3987673 31.248,20.0787673 31.224,20.0387673 C31.208,19.9907673 31.44,19.8947673 31.736,19.8147673 C32.04,19.7347673 32.352,19.6547673 32.448,19.6307673 C32.6,19.5907673 32.632,19.6547673 32.8,20.2707673 Z M29.968,15.2947673 C30.016,15.3507673 30.736,18.0067673 30.704,18.0387673 C30.688,18.0467673 30.448,18.1107673 30.16,18.1827673 C29.872,18.2547673 29.56,18.3347673 29.464,18.3667673 C29.344,18.3987673 29.28,18.3747673 29.256,18.2627673 C29.16,17.9507673 28.56,15.6947673 28.56,15.6547673 C28.56,15.5987673 29.92,15.2547673 29.968,15.2947673 Z M10.44,14.3347673 C10.424,14.3187673 10.112,14.4387673 9.744,14.6067673 C8.52,15.1827673 7.496,16.0787673 6.768,17.2227673 L6.472,17.6787673 L9.4,17.6787673 L9.616,16.8547673 C9.728,16.3987673 9.968,15.6547673 10.152,15.1987673 C10.328,14.7427673 10.456,14.3507673 10.44,14.3347673 Z M12.024,14.7027673 C11.648,15.4147673 11.128,16.7987673 11,17.4227673 L10.944,17.6787673 L14.312,17.6787673 L14.152,17.1027673 C13.912,16.2387673 13.552,15.3187673 13.152,14.5827673 C12.656,13.6627673 12.56,13.6787673 12.024,14.7027673 Z M14.76,14.3347673 C14.744,14.3507673 14.84,14.6067673 14.968,14.9027673 C15.192,15.4307673 15.584,16.6467673 15.76,17.3427673 L15.848,17.6787673 L18.728,17.6787673 L18.632,17.5027673 C18.224,16.7187673 17.24,15.6627673 16.368,15.0867673 C15.92,14.7907673 14.816,14.2707673 14.76,14.3347673 Z M26.632,3.15876728 C26.712,3.15876728 27.096,4.47876728 28.008,7.87876728 C28.704,10.4707673 29.264,12.6067673 29.248,12.6147673 C29.2,12.6627673 28.088,12.9587673 27.96,12.9587673 C27.888,12.9587673 27.816,12.9107673 27.8,12.8627673 C27.784,12.8067673 27.224,10.7267673 26.56,8.23876728 C25.9188966,5.83656039 25.3747444,3.80724291 25.3235777,3.60534074 L25.32,3.59076728 C25.288,3.49476728 25.416,3.43876728 25.896,3.31076728 C26.24,3.23076728 26.568,3.15876728 26.632,3.15876728 Z M19.6,6.87876728 L19.6,8.31876728 L5.6,8.31876728 L5.6,6.87876728 L19.6,6.87876728 Z" id="Combined-Shape" transform="translate(19.596000, 20.479384) scale(-1, 1) rotate(-180.000000) translate(-19.596000, -20.479384) "></path>
                </g>
            </g>
        </g>
    </g>
</svg>