<?xml version="1.0" encoding="UTF-8"?>
<svg width="47px" height="46px" viewBox="0 0 47 46" version="1.1" xmlns="http://www.w3.org/2000/svg" xmlns:xlink="http://www.w3.org/1999/xlink">
    <title>svg/Travel_ic</title>
    <g id="Page-1" stroke="none" stroke-width="1" fill="none" fill-rule="evenodd">
        <g id="Service-All-Category" transform="translate(-39.000000, -445.000000)" fill="#47CDFE" fill-rule="nonzero" stroke="#47CDFE" stroke-width="0.1">
            <g id="Group-2" transform="translate(8.000000, 426.000000)">
                <g id="Travel_ic" transform="translate(31.000000, 20.000000)">
                    <path d="M16.83,3.915 C18.117,3.726 21.681,3.789 22.995,4.041 C26.991,4.779 30.447,6.588 33.3,9.45 C36.666,12.807 38.583,16.965 38.979,21.735 C39.033,22.428 39.06,23.373 39.033,23.823 C39.006,24.282 39.006,24.66 39.033,24.66 C39.06,24.66 39.249,24.516 39.447,24.336 C39.978,23.877 41.499,23.175 42.327,22.995 C43.191,22.806 44.361,22.842 44.829,23.067 C45.252,23.274 45.756,23.778 45.963,24.201 C46.188,24.669 46.224,25.839 46.035,26.703 C45.828,27.684 45.135,29.07 44.487,29.808 C44.199,30.141 43.614,30.717 43.182,31.104 C42.741,31.482 42.39,31.815 42.39,31.842 C42.39,31.869 42.678,33.66 43.02,35.82 C43.371,37.98 43.65,39.861 43.65,39.996 C43.65,40.401 43.407,40.842 42.867,41.418 C42.138,42.192 41.652,42.48 41.112,42.48 C40.23,42.48 40.14,42.381 38.304,39.6 C37.386,38.214 36.612,37.08 36.585,37.08 C36.558,37.08 35.973,37.593 35.289,38.214 L35.289,38.214 L34.047,39.348 L33.984,40.662 C33.894,42.615 33.939,42.489 32.949,43.488 C32.157,44.289 32.049,44.361 31.653,44.424 C31.095,44.496 30.6,44.352 30.267,44.019 C30.114,43.875 29.709,43.092 29.304,42.201 C28.917,41.337 28.584,40.617 28.566,40.599 C28.548,40.581 28.134,40.743 27.657,40.968 C23.265,43.002 18.045,43.281 13.365,41.724 C6.318,39.375 1.188,33.183 0.225,25.875 C-0.045,23.769 0.072,21.024 0.531,18.918 C1.467,14.625 4.077,10.539 7.65,7.767 C10.188,5.796 13.455,4.428 16.83,3.915 Z M44.487,24.66 C44.172,24.318 43.839,24.228 43.155,24.309 C42.12,24.435 41.076,24.903 40.203,25.632 C39.933,25.866 37.611,28.368 35.064,31.203 C31.041,35.667 30.384,36.36 30.132,36.396 C29.97,36.423 29.232,36.468 28.485,36.495 L28.485,36.495 L27.135,36.549 L26.577,37.107 C26.5455,37.1376 26.51463,37.16784 26.484579,37.197513 L26.315613,37.367091 C26.13348,37.55313 26.01,37.6911 26.01,37.71 C26.01,37.737 26.802,38.115 27.774,38.556 C29.151,39.186 29.574,39.42 29.691,39.609 C29.781,39.753 30.168,40.572 30.555,41.445 C30.951,42.309 31.293,43.02 31.32,43.02 C31.347,43.02 31.617,42.768 31.923,42.453 L31.923,42.453 L32.481,41.895 L32.535,40.545 C32.5495385,40.1427692 32.5692959,39.7431479 32.5886518,39.4360624 L32.6050132,39.1976054 C32.6156805,39.0565385 32.6256923,38.9540769 32.634,38.907 C32.67,38.655 33.228,38.106 36.522,35.118 C36.6730714,34.9810714 36.8251531,34.8432704 36.9775922,34.7051906 L37.6637787,34.0839532 C39.4122742,32.5017781 41.0785714,31.0005 41.67,30.483 C41.7214286,30.4373571 41.7731786,30.3911633 41.825027,30.3446283 L42.1355138,30.0630044 C42.7003622,29.5453469 43.2231429,29.0372143 43.407,28.818 C44.19,27.882 44.73,26.523 44.73,25.452 C44.73,25.011 44.694,24.894 44.487,24.66 Z M21.69,5.319 C18.198,4.941 15.075,5.436 11.943,6.867 C10.503,7.533 8.748,8.685 7.596,9.747 L7.596,9.747 L7.083,10.215 L8.442,10.26 C9.702,10.305 9.819,10.323 10.008,10.503 C10.287,10.782 10.278,11.304 9.999,11.529 C9.82575,11.66925 9.6449375,11.6960625 8.16715625,11.6995573 L5.67,11.7 L5.301,12.168 C3.762,14.094 2.502,16.758 1.944,19.269 C1.62,20.718 1.521,21.708 1.521,23.31 C1.53,28.305 3.546,32.949 7.2,36.378 L7.2,36.378 L8.037,37.17 L14.904,37.17 L15.363,36.945 C16.704,36.27 16.731,34.344 15.399,33.669 C15.129,33.525 14.796,33.498 13.365,33.462 C12.006,33.435 11.583,33.39 11.304,33.273 C10.377,32.868 9.873,32.121 9.873,31.149 C9.873,30.186 10.314,29.466 11.142,29.052 L11.142,29.052 L11.565,28.845 L16.605,28.8 C21.3788298,28.7569149 21.6314735,28.7550815 21.9682005,28.5812197 L22.014,28.557 C22.563,28.26 23.112,27.603 23.274,27.018 C23.625,25.821 22.896,24.48 21.681,24.093 C21.303,23.967 20.826,23.94 19.089,23.94 L18.8178324,23.9396354 C16.7158656,23.9336496 16.20576,23.85036 15.48,23.427 C13.284,22.14 12.852,18.927 14.643,17.145 C15.255,16.533 15.984,16.218 17.019,16.101 C17.91,16.002 18.342,15.831 18.756,15.426 C19.791,14.382 19.557,12.735 18.252,12.015 L18.252,12.015 L17.775,11.745 L15.003,11.7 C12.384,11.655 12.222,11.646 12.096,11.484 C11.916,11.232 11.943,10.764 12.141,10.521 C12.312,10.305 12.312,10.305 14.724,10.278 C17.379,10.251 18.117,10.323 18.873,10.674 C20.241,11.322 21.087,12.996 20.808,14.499 C20.502,16.164 19.287,17.271 17.568,17.469 C16.497,17.586 16.11,17.748 15.633,18.261 C14.931,19.008 14.769,20.043 15.201,21.015 C15.453,21.573 15.795,21.924 16.398,22.221 L16.398,22.221 L16.947,22.5 L19.3928982,22.500447 C21.5432352,22.5077184 22.15944,22.60656 22.842,23.004 C25.605,24.624 25.425,28.53 22.527,29.907 L22.527,29.907 L21.915,30.195 L16.866,30.24 C11.8450189,30.2807547 11.614947,30.2624535 11.4290277,30.6932 L11.4056744,30.7494188 C11.401706,30.7591907 11.397671,30.7691667 11.3935264,30.7793513 L11.367,30.843 C11.268,31.095 11.268,31.185 11.376,31.446 C11.583,31.95 11.745,31.986 13.725,32.04 C15.471,32.085 15.543,32.103 16.002,32.337 C16.677,32.688 17.118,33.12 17.469,33.768 C17.766,34.308 17.775,34.38 17.775,35.28 C17.775,36.108 17.748,36.288 17.541,36.72 C17.244,37.35 16.614,37.989 15.948,38.313 L15.948,38.313 L15.435,38.565 L10.125,38.655 L11.475,39.339 C13.707,40.455 15.75,41.031 18.243,41.238 C20.88,41.454 23.841,40.977 26.451,39.915 L26.451,39.915 L26.847,39.753 L25.938,39.321 C24.939,38.835 24.669,38.547 24.597,37.845 C24.516,37.206 24.687,36.9 25.587,36.027 C26.55,35.1 26.433,35.136 28.368,35.046 L28.368,35.046 L29.682,34.983 L30.816,33.741 C31.437,33.057 31.95,32.472 31.95,32.445 C31.95,32.418 30.825,31.644 29.448,30.735 C28.008,29.79 26.865,28.98 26.775,28.827 C26.676,28.683 26.586,28.359 26.568,28.071 C26.514,27.405 26.712,27.036 27.558,26.226 C28.44,25.371 28.665,25.299 29.934,25.488 C31.032,25.65 31.23,25.776 31.23,26.298 C31.23,26.964 30.852,27.108 29.628,26.901 L29.628,26.901 L29.052,26.802 L28.521,27.324 C28.233,27.612 27.99,27.891 27.99,27.945 C27.99,28.017 30.321,29.592 32.76,31.158 L32.76,31.158 L33.003,31.32 L34.164,30.033 C34.803,29.331 35.496,28.566 35.703,28.341 L35.703,28.341 L36.09,27.927 L34.722,27.711 C33.291,27.495 33.093,27.405 32.985,26.973 C32.904,26.676 33.075,26.298 33.345,26.172 C33.525,26.091 33.93,26.127 35.388,26.361 C36.702,26.568 37.224,26.613 37.269,26.541 C37.458,26.235 37.674,23.364 37.584,22.383 L37.584,22.383 L37.512,21.699 L31.518,21.672 L25.515,21.645 L25.002,21.393 C24.363,21.078 23.832,20.484 23.571,19.809 C23.328,19.152 23.364,18.144 23.661,17.523 C23.94,16.947 24.498,16.407 25.092,16.128 C25.587,15.903 25.695,15.885 27.558,15.84 C29.358,15.795 29.529,15.777 29.763,15.606 C30.654,14.94 30.645,13.797 29.727,13.176 C29.484,13.014 29.268,12.978 28.233,12.942 C27.189,12.897 26.955,12.861 26.523,12.663 C25.227,12.069 24.525,10.638 24.876,9.279 C25.164,8.163 25.893,7.416 27,7.11 L27,7.11 L27.405,6.993 L26.865,6.741 C25.488,6.102 23.292,5.499 21.69,5.319 Z M41.103,33.021 C41.076,32.94 37.755,35.964 37.7639817,36.054 C37.7770815,36.1369091 38.5391357,37.3115207 39.3300381,38.499724 L39.6265723,38.9438317 C40.3642562,40.0451653 41.0481818,41.04 41.085,41.04 C41.139,41.04 41.418,40.806 41.706,40.509 L42.228,39.987 L41.67,36.531 C41.44428,35.08776 41.2393536,33.826464 41.1500396,33.2923202 L41.1257889,33.1484504 C41.1123312,33.0694992 41.10444,33.02532 41.103,33.021 Z M21.2860827,34.8302827 C22.00292,34.83312 22.1166,34.86 22.293,35.028 C22.698,35.406 22.491,36.09 21.915,36.234 C21.798,36.261 21.348,36.27 20.916,36.261 C20.232,36.225 20.124,36.198 19.971,36.009 C19.746,35.73 19.746,35.244 19.98,35.01 C20.142,34.848 20.277,34.83 21.123,34.83 Z M23.976,32.31 C24.579,32.319 24.939,32.355 25.038,32.436 C25.272,32.607 25.389,32.994 25.29,33.246 C25.137,33.651 24.876,33.75 23.931,33.75 C22.86,33.75 22.635,33.624 22.635,33.03 C22.635,32.742 22.689,32.607 22.851,32.481 C23.022,32.337 23.211,32.31 23.976,32.31 Z M6.336,26.37 C7.497,26.37 7.668,26.46 7.668,27.045 C7.668,27.63 7.497,27.72 6.336,27.72 C5.346,27.72 5.319,27.711 5.139,27.486 C4.896,27.18 4.896,26.91 5.139,26.604 C5.319,26.379 5.346,26.37 6.336,26.37 Z M9.459,20.259 C10.53,20.25 10.755,20.367 10.755,20.97 C10.755,21.573 10.539,21.69 9.414,21.69 C8.415,21.681 8.226,21.609 8.109,21.177 C8.019,20.853 8.145,20.475 8.397,20.358 C8.505,20.304 8.982,20.259 9.459,20.259 Z M41.805,19.17 C42.345,19.17 42.498,19.368 42.552,20.187 C42.588,20.826 42.579,20.853 42.345,21.042 C42.021,21.294 41.742,21.294 41.427,21.024 C41.211,20.835 41.175,20.736 41.148,20.169 C41.112,19.638 41.139,19.485 41.265,19.35 C41.382,19.224 41.544,19.17 41.805,19.17 Z M29.934,8.46 L28.674,8.46 C27.261,8.469 27,8.532 26.613,8.991 C26.082,9.621 26.109,10.449 26.685,11.025 C27.09,11.421 27.468,11.52 28.629,11.52 C29.907,11.52 30.303,11.664 31.014,12.366 C31.653,13.014 31.86,13.5 31.86,14.4 C31.86,15.219 31.653,15.75 31.131,16.326 C30.366,17.163 30.159,17.217 27.855,17.28 C25.605,17.334 25.425,17.379 25.029,18.09 C24.633,18.801 24.912,19.692 25.65,20.07 L25.65,20.07 L25.6907382,20.0897522 L25.6907382,20.0897522 L25.7322574,20.1080079 C26.0020708,20.2190129 26.4438472,20.2435165 29.4320079,20.2486821 L29.92533,20.2493468 C30.0111926,20.2494341 30.0989052,20.2495104 30.188511,20.249577 L32.5139369,20.2495605 C35.2376033,20.2466529 37.35,20.2295455 37.35,20.205 C37.35,20.178 37.269,19.8 37.17,19.359 C36.27,15.3 34.011,11.7 30.744,9.099 L30.744,9.099 L29.934,8.46 Z M7.209,17.19 C8.361,17.19 8.55,17.289 8.55,17.901 C8.55,18.468 8.271,18.63 7.281,18.63 C6.399,18.63 6.102,18.531 5.949,18.207 C5.805,17.892 5.823,17.694 6.039,17.424 C6.219,17.199 6.255,17.19 7.209,17.19 Z M40.374,15.309 C40.941,14.868 41.391,15.183 41.715,16.236 C42.048,17.316 42.003,17.604 41.49,17.82 C41.274,17.91 41.166,17.91 40.959,17.82 C40.671,17.703 40.671,17.703 40.356,16.794 C40.068,15.948 40.068,15.552 40.374,15.309 Z M38.664,11.619 C38.925,11.412 39.24,11.376 39.51,11.52 C39.735,11.637 40.5,13.05 40.5,13.338 C40.5,13.725 40.176,14.04 39.789,14.04 C39.366,14.04 39.195,13.86 38.754,12.987 C38.358,12.195 38.34,11.871 38.664,11.619 Z M36.792,8.1 C37.17,8.1 37.386,8.289 38.016,9.117 C38.574,9.864 38.394,10.53 37.62,10.53 C37.278,10.53 37.233,10.494 36.675,9.783 C36.036,8.973 35.946,8.649 36.27,8.298 C36.396,8.163 36.567,8.1 36.792,8.1 Z M20.3722117,7.02044934 C21.0536173,7.0245 21.1879286,7.05792857 21.33,7.2 C21.627,7.497 21.6,7.965 21.267,8.262 C21.051,8.46 20.97,8.478 20.106,8.442 C19.062,8.415 18.927,8.343 18.837,7.812 C18.801,7.542 18.828,7.443 19.017,7.254 C19.242,7.029 19.305,7.02 20.205,7.02 Z M33.39,5.4 C33.633,5.157 34.146,5.166 34.452,5.409 C34.587,5.508 34.911,5.796 35.172,6.048 C35.559,6.417 35.64,6.552 35.64,6.804 C35.64,7.218 35.379,7.47 34.929,7.47 C34.632,7.47 34.497,7.389 34.011,6.966 C33.696,6.687 33.381,6.399 33.327,6.318 C33.147,6.102 33.183,5.607 33.39,5.4 Z M4.716,5.4 C5.175,5.202 5.67,5.526 5.67,6.03 C5.67,6.408 5.58,6.543 5.094,6.921 C4.671,7.254 4.284,7.281 3.987,7.002 C3.645,6.678 3.708,6.255 4.149,5.832 C4.356,5.634 4.608,5.436 4.716,5.4 Z M7.47,3.384 C8.19,2.934 8.397,2.889 8.712,3.114 C9.009,3.321 9.126,3.663 8.991,3.978 C8.865,4.275 7.524,5.13 7.173,5.13 C6.795,5.13 6.48,4.806 6.48,4.419 C6.48,4.023 6.552,3.942 7.47,3.384 Z M30.087,3.015 C30.42,2.781 30.762,2.862 31.545,3.33 C32.31,3.789 32.4,3.897 32.4,4.284 C32.4,4.806 31.896,5.139 31.419,4.923 C30.744,4.617 29.97,4.086 29.88,3.87 C29.754,3.564 29.844,3.186 30.087,3.015 Z M12.128358,1.30002469 L12.195,1.305 C12.717,1.395 12.96,2.016 12.627,2.421 C12.411,2.682 10.863,3.258 10.566,3.186 C10.125,3.078 9.927,2.421 10.215,2.034 C10.287,1.944 10.701,1.728 11.133,1.566 C11.655,1.359 12.015,1.278 12.195,1.305 Z M26.487,1.26 C26.793,1.143 26.865,1.152 27.657,1.449 C28.683,1.836 28.953,2.169 28.701,2.736 C28.53,3.105 28.152,3.177 27.558,2.961 C27.27,2.862 26.928,2.736 26.775,2.682 C26.631,2.628 26.415,2.502 26.307,2.403 C25.965,2.097 26.073,1.431 26.487,1.26 Z M15.039,0.441 C16.074,0.225 16.263,0.234 16.515,0.495 C16.785,0.756 16.812,1.152 16.578,1.44 C16.389,1.665 14.877,2.025 14.472,1.926 C13.986,1.827 13.788,1.206 14.112,0.801 C14.238,0.657 14.481,0.558 15.039,0.441 Z M22.32,0.45 C22.536,0.234 22.914,0.216 23.832,0.396 C24.633,0.549 24.84,0.711 24.84,1.188 C24.84,1.602 24.588,1.89 24.237,1.89 C23.724,1.89 22.464,1.62 22.311,1.476 C22.077,1.26 22.086,0.684 22.32,0.45 Z M19.449,0.009 C20.196,5.6174683e-14 20.349,0.027 20.556,0.189 C20.862,0.432 20.88,0.927 20.592,1.233 C20.412,1.422 20.331,1.44 19.422,1.44 L19.2493893,1.43982133 C18.4938,1.43788 18.4182,1.4166 18.225,1.215 C17.883,0.882 17.973,0.252 18.378,0.09 C18.495,0.045 18.972,0.009 19.449,0.009 Z" id="Combined-Shape"></path>
                </g>
            </g>
        </g>
    </g>
</svg>