<?xml version="1.0" encoding="UTF-8"?>
<svg width="22px" height="18px" viewBox="0 0 22 18" version="1.1" xmlns="http://www.w3.org/2000/svg" xmlns:xlink="http://www.w3.org/1999/xlink">
    <title>svg/upload_pic_ic</title>
    <g id="Page-1" stroke="none" stroke-width="1" fill="none" fill-rule="evenodd">
        <g id="Sell-Products" transform="translate(-44.000000, -226.000000)" fill="#47CDFE" fill-rule="nonzero">
            <g id="Group-5" transform="translate(16.000000, 163.000000)">
                <g id="add_photo" transform="translate(0.000000, 33.000000)">
                    <g id="upload_pic_ic" transform="translate(28.000000, 30.000000)">
                        <path d="M14.3526,10.5168 C14.3526,12.447 12.7824,14.0172 10.8522,14.0172 C8.922,14.0172 7.3524,12.447 7.3524,10.5168 C7.3524,8.5866 8.922,7.0164 10.8522,7.0164 C12.7824,7.0164 14.3526,8.5872 14.3526,10.5168 Z M21.7044,5.5464 L21.7044,15.4884 C21.7044,16.8138 20.6298,17.8884 19.3044,17.8884 L2.4,17.8884 C1.0746,17.8884 0,16.8138 0,15.4884 L0,5.5464 C0,4.221 1.0746,3.1464 2.4,3.1464 L5.352,3.1464 L5.352,2.316 C5.352,1.1562 6.2916,0.216 7.452,0.216 L14.2524,0.216 C15.4128,0.216 16.3524,1.1562 16.3524,2.316 L16.3524,3.1458 L19.3044,3.1458 C20.6298,3.1464 21.7044,4.221 21.7044,5.5464 Z M16.1526,10.5168 C16.1526,7.5942 13.7748,5.2164 10.8522,5.2164 C7.9302,5.2164 5.5524,7.5942 5.5524,10.5168 C5.5524,13.4394 7.9302,15.8172 10.8522,15.8172 C13.7748,15.8172 16.1526,13.4394 16.1526,10.5168 Z" id="Shape"></path>
                    </g>
                </g>
            </g>
        </g>
    </g>
</svg>