<?xml version="1.0" encoding="UTF-8"?>
<svg width="24px" height="24px" viewBox="0 0 24 24" version="1.1" xmlns="http://www.w3.org/2000/svg" xmlns:xlink="http://www.w3.org/1999/xlink">
    <title>svg/user_ic</title>
    <g id="Page-1" stroke="none" stroke-width="1" fill="none" fill-rule="evenodd">
        <g id="Register" transform="translate(-33.000000, -329.000000)">
            <g id="Group-3" transform="translate(33.000000, 328.000000)">
                <g id="user_ic" transform="translate(0.000000, 1.000000)">
                    <polygon id="Path" points="0 0 24 0 24 24 0 24"></polygon>
                    <path d="M20,22 L18,22 L18,20 C18,18.3431458 16.6568542,17 15,17 L9,17 C7.34314575,17 6,18.3431458 6,20 L6,22 L4,22 L4,20 C4,17.2385763 6.23857625,15 9,15 L15,15 C17.7614237,15 20,17.2385763 20,20 L20,22 Z M11.9999999,13 C9.85640644,13 7.87564429,11.8564065 6.8038475,10 C5.73205071,8.14359355 5.73205071,5.85640645 6.8038475,4 C7.87564429,2.1435935 9.85640644,1 11.9999999,1 C15.3137085,1 17.9999999,3.6862915 17.9999999,7 C17.9999999,10.3137085 15.3137085,13 11.9999999,13 L11.9999999,13 Z M12,11 C14.209139,11 16,9.209139 16,7 C16,4.790861 14.209139,3 12,3 C9.790861,3 8,4.790861 8,7 C8,9.209139 9.790861,11 12,11 Z" id="Shape" fill="#202328" fill-rule="nonzero"></path>
                </g>
            </g>
        </g>
    </g>
</svg>