<?xml version="1.0" encoding="UTF-8"?>
<svg width="40px" height="40px" viewBox="0 0 40 40" version="1.1" xmlns="http://www.w3.org/2000/svg" xmlns:xlink="http://www.w3.org/1999/xlink">
    <title>svg/Utility_services_ic</title>
    <g id="Page-1" stroke="none" stroke-width="1" fill="none" fill-rule="evenodd">
        <g id="Service-All-Category" transform="translate(-293.000000, -750.000000)" fill="#47CDFE" fill-rule="nonzero" stroke="#47CDFE" stroke-width="0.2">
            <g id="Group-2" transform="translate(271.000000, 728.000000)">
                <g id="Utility_services_ic" transform="translate(23.000000, 23.000000)">
                    <path d="M19.6956844,2.79327392e-05 C19.7783342,4.79553223e-05 19.8584334,8.0090332e-05 19.9360657,0.000128540039 L20.7545849,0.0017619873 C22.2946488,0.00816328125 22.3929562,0.03695625 22.518,0.162 C22.653432,0.297432 22.6759565,0.4015008 22.6794121,1.67202973 L22.68,4.1958 L23.0769,4.2849 C24.2838,4.5441 26.1144,5.2731 27.2484,5.9454 L27.2484,5.9454 L27.8883,6.3261 L29.241,4.9815 C30.5208,3.7098 30.6018,3.645 30.9015,3.645 C31.1795129,3.645 31.2724985,3.70447305 32.7143926,5.14248448 L33.0445755,5.47221057 L33.0445755,5.47221057 L33.2262,5.6538 C33.2886484,5.71624839 33.3491582,5.7767666 33.4077894,5.83542451 L33.8863732,6.31500427 C35.1796992,7.61437929 35.235,7.71041613 35.235,7.9785 L35.2345799,8.01492598 C35.2275047,8.28703125 35.1172125,8.412525 33.8985,9.639 L33.8985,9.639 L32.5539,10.9917 L32.9346,11.6316 C33.6069,12.7656 34.3359,14.5962 34.5951,15.8031 L34.5951,15.8031 L34.6842,16.2 L36.8316419,16.2000477 C38.4598368,16.2008813 38.570256,16.214256 38.718,16.362 C38.8526625,16.4966625 38.8756969,16.6003172 38.8793514,18.5070762 L38.8793514,20.3729238 C38.8756969,22.2796828 38.8526625,22.3833375 38.718,22.518 L38.6996139,22.535777 C38.5706972,22.6554403 38.4207479,22.6761136 37.2079703,22.6794121 L34.6923,22.68 L34.5465,23.2632 C34.2306,24.5754 33.4287,26.487 32.7483,27.5643 L32.7483,27.5643 L32.5458,27.8883 L35.3808,30.7314 C38.5182,33.88392 38.670912,34.016472 38.6773296,35.1726144 L38.6775,35.4375 C38.6775,36.2718 38.6613,36.3609 38.4183,36.8712 C38.0943,37.5678 37.5597,38.0943 36.8712,38.4183 C35.9154,38.8638 34.6842,38.8152 33.777,38.2887 C33.6231,38.1996 32.2299,36.8712 30.6909,35.3322 L30.6909,35.3322 L27.8883,32.5458 L27.5643,32.7483 C26.487,33.4287 24.5754,34.2306 23.2713,34.5465 L23.2713,34.5465 L22.68,34.6923 L22.6794121,37.2079703 C22.6759565,38.4784992 22.653432,38.582568 22.518,38.718 L22.503607,38.7320052 C22.3736337,38.8542831 22.2115843,38.8758274 20.3729238,38.8793514 L18.5070762,38.8793514 C16.6003172,38.8756969 16.4966625,38.8526625 16.362,38.718 C16.2081,38.5641 16.2,38.4507 16.2,36.6201 L16.2,34.6842 L15.8031,34.5951 C14.5962,34.3359 12.7656,33.6069 11.6316,32.9346 L11.6316,32.9346 L10.9917,32.5539 L9.639,33.8985 C8.3592,35.1702 8.2782,35.235 7.9785,35.235 L7.94935104,35.2347123 C7.70165162,35.2292054 7.56625429,35.1317982 6.31500427,33.8863732 L5.83542451,33.4077894 L5.83542451,33.4077894 L5.6538,33.2262 C5.59135161,33.1637516 5.53084183,33.1032334 5.47221057,33.0445755 L5.14248448,32.7143926 C3.70447305,31.2724985 3.645,31.1795129 3.645,30.9015 C3.645,30.6018 3.7098,30.5208 4.9815,29.241 L4.9815,29.241 L6.3261,27.8883 L5.9454,27.2484 C5.2731,26.1144 4.5441,24.2838 4.2849,23.0769 L4.2849,23.0769 L4.1958,22.68 L1.67202973,22.6794121 C0.4015008,22.6759565 0.297432,22.653432 0.162,22.518 C0.03695625,22.3929562 0.00816328125,22.2946488 0.0017619873,20.7545849 L0.000128540039,19.9360657 C3.1640625e-05,19.7808012 -1.41893875e-14,19.6156687 -1.42108547e-14,19.44 L2.79327392e-05,19.1843156 C4.79553223e-05,19.1016658 8.0090332e-05,19.0215666 0.000128540039,18.9439343 L0.0017619873,18.1254151 C0.00816328125,16.5853512 0.03695625,16.4870437 0.162,16.362 C0.3159,16.2081 0.4293,16.2 2.2599,16.2 L4.1958,16.2 L4.2849,15.8031 C4.5441,14.5962 5.2731,12.7656 5.9454,11.6316 L5.9454,11.6316 L6.3261,10.9917 L4.9815,9.639 C3.7098,8.3592 3.645,8.2782 3.645,7.9785 C3.645,7.6707 3.7179,7.5897 5.6538,5.6538 C7.5897,3.7179 7.6707,3.645 7.9785,3.645 C8.2782,3.645 8.3592,3.7098 9.639,4.9815 L9.639,4.9815 L10.9917,6.3261 L11.6316,5.9454 C12.7656,5.2731 14.5962,4.5441 15.8031,4.2849 L15.8031,4.2849 L16.2,4.1958 L16.2000477,2.04835807 C16.2008813,0.4201632 16.214256,0.309744 16.362,0.162 C16.4870437,0.03695625 16.5853512,0.00816328125 18.1254151,0.0017619873 L18.9439343,0.000128540039 C19.0991988,3.1640625e-05 19.2643312,-1.06587916e-14 19.44,-1.06587916e-14 Z M21.384,1.296 L17.496,1.296 L17.4955965,3.8134424 C17.4905968,5.39330939 17.4292448,5.36275862 16.7103,5.508 C14.9769,5.8482 13.4136,6.48 11.7855,7.4844 C11.3886,7.7355 10.9917,7.938 10.9107,7.938 C10.6353,7.938 10.4085,7.7598 9.1935,6.5529 L9.1935,6.5529 L7.9785,5.346 L6.642,6.6825 L5.3136,8.019 L6.6258,9.3393 C7.5654,10.287 7.938,10.7163 7.938,10.854 C7.938,10.9512 7.6707,11.4858 7.3386,12.0366 C6.4395,13.5351 5.8158,15.1308 5.508,16.7103 C5.36275862,17.4292448 5.39330939,17.4905968 3.8134424,17.4955965 L1.296,17.496 L1.296,21.384 L3.62390161,21.3840425 C5.3959195,21.3856566 5.35717241,21.4231034 5.508,22.1697 C5.8158,23.7492 6.4638,25.3935 7.371,26.9001 C7.6869,27.4104 7.938,27.8964 7.938,27.9774 C7.938,28.2447 7.7517,28.4796 6.5529,29.6865 L6.5529,29.6865 L5.346,30.9015 L6.6825,32.238 L8.019,33.5664 L9.3393,32.2542 C10.3275,31.2822 10.7163,30.942 10.8621,30.942 C10.9674,30.942 11.3886,31.1445 11.7855,31.3956 C13.284,32.319 14.5476,32.8536 16.2,33.2586 C16.9047,33.4287 17.3259,33.5745 17.3907,33.6636 C17.4717,33.7689 17.496,34.2954 17.496,35.6967 L17.496,37.584 L21.384,37.584 L21.384,35.6967 C21.384,34.2954 21.4083,33.7689 21.4893,33.6636 C21.5541,33.5745 21.9429,33.4449 22.5747,33.291 C23.8221,32.9913 24.9075,32.5863 26.0253,32.0112 L26.0253,32.0112 L26.9001,31.5576 L25.9848,30.6423 L25.0614,29.7189 L24.381,30.0429 C23.5629,30.4236 22.7205,30.7071 21.7809,30.9096 C21.2301,31.0311 20.7603,31.0635 19.359,31.0635 C17.7309,31.0554 17.5608,31.0473 16.7265,30.8367 C14.4261,30.2616 12.5631,29.1843 10.9593,27.5076 C9.3879,25.8714 8.424,24.0003 7.9218,21.6756 C7.6869,20.574 7.6707,18.468 7.8894,17.334 C8.6022,13.6404 10.935,10.5462 14.2155,8.9424 C15.2766,8.424 16.038,8.1648 17.1315,7.9461 C19.359,7.5006 21.7242,7.7193 23.8464,8.5779 C27.4347,10.0197 30.0915,13.2192 30.9177,17.091 C31.1283,18.0873 31.1283,20.817 30.9096,21.7809 C30.7071,22.7205 30.4236,23.5629 30.0429,24.381 L30.0429,24.381 L29.7189,25.0614 L30.6342,25.9767 L31.5576,26.892 L32.0112,26.0253 C32.5863,24.9237 32.9913,23.8302 33.291,22.5747 C33.4449,21.9429 33.5745,21.5541 33.6636,21.4893 C33.7689,21.4083 34.2954,21.384 35.6967,21.384 L35.6967,21.384 L37.584,21.384 L37.584,17.496 L35.0665576,17.4955965 C33.4866906,17.4905968 33.5172414,17.4292448 33.372,16.7103 C33.0237,14.9364 32.3028,13.1706 31.2741,11.5911 C31.0959,11.3076 30.942,10.9836 30.942,10.8702 C30.942,10.6677 31.2336,10.3356 32.7807,8.748 L32.7807,8.748 L33.534,7.9785 L32.2137,6.6582 L30.8934,5.3379 L30.7314,5.5161 C30.6504,5.6133 30.0429,6.1965 29.3868,6.8121 C28.5363,7.614 28.1394,7.938 28.0017,7.938 C27.8964,7.938 27.5724,7.7841 27.2889,7.6059 C25.8471,6.6663 24.3972,6.0426 22.68,5.6214 C21.9753,5.4513 21.5541,5.3055 21.4893,5.2164 C21.4083,5.1111 21.384,4.5846 21.384,3.1833 L21.384,3.1833 L21.384,1.296 Z M19.0107,13.2921 C18.3789,13.203 18.2898,13.203 18.063,13.2516 C17.9982,13.2597 17.7633,13.3002 17.5446,13.3245 L17.5446,13.3245 L17.1477,13.3812 L18.6219,14.8554 L20.088,16.3296 L20.0875728,18.2003136 C20.083608,19.057752 20.05236,19.76184 20.007,19.845 C19.9665,19.926 19.8126,20.0313 19.6749,20.0799 C19.3509,20.1933 16.9128,20.2014 16.524,20.088 C16.3215,20.0313 15.8517,19.6182 14.8068,18.5733 C14.013,17.7795 13.365,17.172 13.365,17.2125 C13.3569,17.2611 13.3245,17.5446 13.284,17.8605 C13.0248,19.8612 14.2317,22.0482 16.0947,22.9635 C16.929,23.3685 17.2125,23.4252 18.792,23.4819 C20.1123,23.5305 20.3472,23.5629 20.736,23.733 C20.7555197,23.7413656 20.7759797,23.7511417 20.7979333,23.7628603 L20.8439954,23.7890451 C21.2955531,24.0605504 22.3959689,25.132441 27.7425,30.4641 L27.7425,30.4641 L28.2891086,31.0096383 C32.9052,35.6149444 34.395,37.0539 34.668,37.1709 C36.2637,37.8918 37.8918,36.2637 37.1709,34.668 C37.07865,34.45275 36.2019333,33.5277444 33.5835139,30.9038394 L32.766525,30.0864375 C32.69415,30.014125 32.6206833,29.9407444 32.5461111,29.8662815 L32.0853,29.4064 C31.611,28.9333 31.0959,28.4202 30.537,27.864 C29.1733291,26.5060709 28.0739614,25.417787 27.1875955,24.5332408 L26.8206157,24.1664312 C23.1011169,20.4418692 23.5464949,20.6523342 23.4819,18.792 C23.4252,17.1477 23.3766,16.929 22.9149,16.038 C22.1373,14.5314 20.7036,13.527 19.0107,13.2921 Z M35.0406,34.344 C35.2917,34.344 35.4051,34.4088 35.7291,34.7409 C36.0693,35.073 36.126,35.1783 36.126,35.4375 C36.126,35.8749 35.8749,36.126 35.4537,36.126 C35.1783,36.126 35.073,36.0693 34.7409,35.7291 C34.4088,35.4051 34.344,35.2917 34.344,35.0406 C34.344,34.83 34.4007,34.6842 34.5465,34.5465 C34.6842,34.4007 34.83,34.344 35.0406,34.344 Z M25.4172816,24.7365576 L25.515,24.7455 C25.758,24.7779 26.2926,25.2801 29.8242,28.8117 C33.4147235,32.4096882 33.8132803,32.8157097 33.8537119,33.0854952 L33.8571463,33.1194313 L33.8571463,33.1194313 L33.858,33.1533 C33.858,33.5745 33.5745,33.858 33.1533,33.858 L33.1533,33.858 L33.1185497,33.8571798 C32.9001723,33.845383 32.6854982,33.6813975 30.8360739,31.8406908 L30.5302354,31.5358967 C30.4769185,31.4827012 30.4224098,31.4282891 30.3666794,31.3726324 L29.6373633,30.6432373 C29.5713817,30.57718 29.504059,30.509767 29.4353654,30.4409706 L29.0065129,30.0113686 L29.0065129,30.0113686 L28.7793,29.7837 C28.1513291,29.1569073 27.6167559,28.623855 27.162419,28.1689389 L26.836505,27.8421586 C24.657538,25.6538368 24.5993947,25.5116225 24.7575849,25.1575405 L24.7814495,25.1052722 L24.7814495,25.1052722 L24.7941,25.0776 C24.8427,24.9723 24.9642,24.8427 25.0614,24.7941 C25.1505,24.7455 25.3611,24.7212 25.515,24.7455 Z M21.4812,9.3231 C18.0792,8.6265 14.6286,9.6714 12.15,12.15 C11.0403,13.2597 10.2141,14.5557 9.6876,16.0218 C8.9343,18.1278 8.9343,20.7522 9.6876,22.8582 C10.7406,25.7742 13.0896,28.1313 15.9813,29.1519 C17.982,29.8566 20.0799,29.9376 22.1049,29.3949 C22.7853,29.2167 23.976,28.755 23.976,28.6821 C23.976,28.6497 23.1822,27.8397 22.2183,26.8758 C21.1167,25.7823 20.3472,25.0776 20.1609,25.0047 C19.9584,24.9237 19.44,24.8751 18.4599,24.8508 C17.2125,24.8184 16.9776,24.786 16.4025,24.5997 C13.6728,23.6925 11.8989,21.2706 11.8908,18.4275 C11.8908,16.9209 12.3525,15.4224 12.879,15.2442 C13.0815,15.1713 13.1949,15.1713 13.3893,15.2604 C13.5351,15.3252 14.4099,16.1433 15.3495,17.0829 L15.3495,17.0829 L17.0505,18.792 L18.792,18.792 L18.792,17.0505 L17.0829,15.3495 C16.1433,14.4099 15.3252,13.5351 15.2604,13.3893 C15.0741,12.9519 15.2361,12.6603 15.8274,12.393 C16.5807,12.0528 17.415,11.8908 18.4275,11.8989 C21.2949,11.8989 23.7492,13.7133 24.6321,16.4835 C24.7779,16.9533 24.8184,17.3016 24.8508,18.4599 C24.8751,19.44 24.9237,19.9584 25.0047,20.1609 C25.0776,20.3472 25.7823,21.1167 26.8758,22.2102 C26.9772632,22.3125158 27.0770211,22.4128571 27.1743462,22.5105058 L27.5934335,22.9293274 C28.2121654,23.5450172 28.6582263,23.976 28.6821,23.976 C28.7712,23.976 29.2491,22.68 29.4597,21.87 C29.6217,21.2625 29.6703,20.8332 29.7027,19.8045 C29.7513,18.3627 29.646,17.5365 29.2734,16.3539 C28.1556,12.7818 25.1424,10.0602 21.4812,9.3231 Z M23.1093,22.437 C23.3847,22.437 23.49,22.4937 23.8221,22.8339 C24.1623,23.166 24.219,23.2713 24.219,23.5305 C24.219,23.9679 23.9679,24.219 23.5467,24.219 C23.2713,24.219 23.166,24.1623 22.8339,23.8221 C22.4937,23.49 22.437,23.3847 22.437,23.1255 C22.437,22.9149 22.4937,22.7529 22.6152,22.6233 C22.7367,22.4856 22.8825,22.437 23.1093,22.437 Z" id="Combined-Shape"></path>
                </g>
            </g>
        </g>
    </g>
</svg>