<?xml version="1.0" encoding="UTF-8"?>
<svg width="52px" height="21px" viewBox="0 0 52 21" version="1.1" xmlns="http://www.w3.org/2000/svg" xmlns:xlink="http://www.w3.org/1999/xlink">
    <title>svg/vehicles_ic</title>
    <g id="Page-1" stroke="none" stroke-width="1" fill="none" fill-rule="evenodd">
        <g id="Product-All-Category" transform="translate(-162.000000, -1094.000000)" fill="#47CDFE" fill-rule="nonzero">
            <g id="Group-2" transform="translate(146.000000, 1062.000000)">
                <g id="vehicles_ic" transform="translate(16.000000, 32.000000)">
                    <path d="M26.45,0.11 C32.85,-0.31 38.46,0.87 43.53,3.71 L43.53,3.71 L44.63,4.32 L47.6,4.75 C49.23,4.98 50.66,5.24 50.78,5.31 C51.18,5.56 51.22,5.95 51.18,9.9 C51.15,13.18 51.12,13.71 50.97,14.1 C50.72,14.75 50.36,15.23 49.85,15.59 C49.36,15.94 46.34,17.2 45.98,17.2 C45.8,17.2 45.68,17.34 45.4,17.87 C44.74,19.16 43.35,20.21 41.93,20.51 C39.73,20.96 37.31,19.8 36.31,17.81 L36.31,17.81 L36,17.2 L13.31,17.2 L13.12,17.62 C12.66,18.64 11.61,19.69 10.57,20.14 C9.06,20.81 7.19,20.7 5.78,19.86 C5.09,19.45 4.22,18.52 3.88,17.83 L3.88,17.83 L3.57,17.2 L1.86131506,17.1994781 C0.600554017,17.1930748 0.250526316,17.1252632 0.08,16.86 C0.0433333333,16.805 0.00666666667,15.4895833 0.000810185185,13.8457581 L1.77284195e-14,10.03 L0.31,9.42 C0.74,8.55 1.4,8 2.91,7.26 C5.22,6.12 8.03,5.35 10.38,5.23 L10.38,5.23 L11.55,5.17 L13.38,4.17 C13.6130769,4.04307692 13.8647929,3.90869822 14.122244,3.77337733 L14.6409695,3.50340919 C15.3326036,3.14692308 16.0038462,2.81461538 16.41,2.63 C19.6,1.19 23,0.34 26.45,0.11 Z M42.07,12.32 C40.13,11.59 37.99,12.8 37.6,14.83 C37.11,17.47 39.81,19.58 42.25,18.46 C43.83,17.74 44.6,15.87 43.99,14.25 C43.69,13.44 42.87,12.61 42.07,12.32 Z M8.6,12.14 C7.68,12.1 7.31,12.2 6.6,12.68 C4.43,14.14 4.7,17.37 7.1,18.49 C7.88,18.85 9.02,18.85 9.8,18.49 C10.5,18.16 11.16,17.5 11.49,16.8 C11.7,16.35 11.75,16.1 11.75,15.45 C11.75,14.12 11.16,13.12 9.98,12.5 C9.46,12.22 9.23,12.16 8.6,12.14 Z M41.13,4.51 L40.04,5.62 C39.44,6.22 38.81,6.78 38.63,6.86 C38.3848571,6.96371429 37.5174286,6.9963102 34.2675347,6.99969679 L29,7 L29,15.4 L35.68,15.4 L35.75,14.82 C36.14,11.72 39.2,9.66 42.25,10.45 C44.21,10.96 45.76,12.75 45.99,14.76 L45.99,14.76 L46.05,15.28 L47.15,14.84 C49.39,13.95 49.34,14.03 49.38,11.43 L49.38,11.43 L49.42,9.5 L46.8,9.5 L46.8,7.7 L49.4,7.7 L49.4,6.84 L46.73,6.46 L44.05,6.08 L43.1,5.55 C42.58,5.26 41.92,4.91 41.64,4.77 L41.64,4.77 L41.13,4.51 Z M27.2,7 L18.68,7.01 C13.99,7.02 9.84,7.06 9.45,7.11 C7.71,7.33 5.37,8.06 3.63,8.93 C2.54,9.48 2.18,9.77 1.91,10.33 C1.73461538,10.6992308 1.70408284,10.906568 1.7004233,12.6194492 L1.7,15.4 L3.3,15.4 L3.3,15.07 C3.3,14.07 3.95,12.65 4.8,11.8 C5.8,10.8 7.02,10.3 8.46,10.3 C10.8,10.3 12.86,11.88 13.45,14.15 C13.53,14.48 13.6,14.89 13.6,15.07 L13.6,15.07 L13.6,15.4 L27.2,15.4 L27.2,7 Z M24.7,7.7 L24.7,9.5 L21.2,9.5 L21.2,7.7 L24.7,7.7 Z M29,1.78 L29,5.1 L37.96,5.1 L39.32,3.72 L38.75,3.51 C36.93,2.83 34.37,2.22 32.4,2.01 C31.88,1.96 30.9,1.88 30.23,1.85 L30.23,1.85 L29,1.78 Z M27.2,1.9 L26.68,1.91 C26.39,1.92 25.69,1.98 25.13,2.05 C22.1,2.44 19.14,3.32 16.55,4.59 L16.55,4.59 L15.55,5.08 L21.38,5.09 L27.2,5.1 L27.2,1.9 Z" id="Combined-Shape"></path>
                </g>
            </g>
        </g>
    </g>
</svg>