<?xml version="1.0" encoding="UTF-8"?>
<svg width="43px" height="47px" viewBox="0 0 43 47" version="1.1" xmlns="http://www.w3.org/2000/svg" xmlns:xlink="http://www.w3.org/1999/xlink">
    <title>svg/Video and_photography_services_ic</title>
    <g id="Page-1" stroke="none" stroke-width="1" fill="none" fill-rule="evenodd">
        <g id="Service-All-Category" transform="translate(-40.000000, -1049.000000)" fill="#47CDFE" fill-rule="nonzero">
            <g id="Group-2" transform="translate(20.000000, 1030.000000)">
                <g id="Video-and_photography_services_ic" transform="translate(20.000000, 19.000000)">
                    <path d="M32.481,0.145261968 L32.5189063,0.171842215 C32.8748611,0.419662431 32.9300417,0.466317523 32.9385,5.82567863 L32.9392188,6.39927277 C32.9393142,6.49810572 32.9393984,6.59857447 32.9394727,6.70070728 L32.94,18.874262 L32.733,19.180262 C32.472,19.567262 32.193,19.711262 31.662,19.711262 L31.23,19.711262 L31.23,25.111262 L34.2021954,25.1115169 C36.4528002,25.1146709 36.548129,25.1556813 36.927,25.669262 C36.9420968,25.6901652 36.9766733,25.7449331 37.0285833,25.8298922 L37.1191803,25.979515 C37.5485994,26.6934638 38.6131935,28.5150039 39.789,30.547262 C42.0780638,34.5243045 42.3858769,35.0812411 42.4285828,35.4849478 L42.4329939,35.5406132 L42.4329939,35.5406132 L42.435,35.596262 L42.435,35.596262 C42.435,36.028262 42.354,36.190262 41.139,38.314262 C39.852,40.555262 39.681,40.771262 39.249,40.771262 C39.159,40.771262 38.979,40.690262 38.844,40.582262 C38.412,40.240262 38.502,39.952262 39.591,38.062262 L40.572,36.361262 L36.6888659,36.361659 C34.479717,36.3652857 33.84,36.3944689 33.84,36.478262 C33.84,36.703262 33.372,37.585262 33.111,37.855262 L32.841,38.134262 L34.164,40.420262 C34.884,41.680262 35.64,42.985262 35.838,43.318262 L36.198,43.939262 L36.603,43.228262 C37.08,42.409262 37.278,42.211262 37.638,42.211262 C37.971,42.211262 38.34,42.571262 38.34,42.904262 C38.34,43.156262 37.215,45.226262 36.864,45.613262 C36.8404364,45.6392801 36.8187203,45.6638524 36.7977258,45.6870591 L36.7563651,45.7316755 C36.7495208,45.738816 36.7426732,45.7458107 36.7357807,45.7526627 L36.6935525,45.7920845 L36.6935525,45.7920845 L36.6482434,45.8282217 C36.3552234,46.041234 35.7722758,46.0750352 32.7868165,46.0803211 L32.281295,46.0809522 C32.1934203,46.0810236 32.1037073,46.0810802 32.0121142,46.0811248 L24.795,46.0812739 L24.48,45.865262 C24.228,45.694262 23.607,44.686262 21.42,40.897262 L18.675,36.136262 L18.675,35.056262 L21.231,30.646262 C22.9697679,27.6420298 23.6880861,26.3946258 24.0500842,25.8414427 L24.1158773,25.7427584 C24.3009787,25.4709996 24.380393,25.4101832 24.4841327,25.3522891 L24.5197919,25.332814 C24.5382503,25.3228452 24.5577857,25.3123155 24.579,25.300262 C24.86025,25.1395477 25.0123546,25.1151535 26.6816615,25.1117712 L29.79,25.111262 L29.79,19.711262 L29.43,19.711262 C29.232,19.711262 28.926,19.657262 28.755,19.585262 C28.224931,19.3593309 28.1730927,19.17535 28.170148,17.0243452 L28.17,14.662262 L28.404,14.428262 C28.593,14.239262 28.692,14.212262 28.962,14.248262 C29.556,14.347262 29.565,14.383262 29.592,16.426262 L29.619,18.271262 L31.5,18.271262 L31.5,1.35126197 L29.61,1.35126197 L29.61,12.070262 L29.385,12.286262 C29.097,12.583262 28.638,12.592262 28.368,12.304262 L28.17,12.088262 L28.188,6.31026197 L28.215,0.523261968 L28.512,0.262261968 L28.8,0.00126196762 L30.537,0.00126196762 C31.995,0.00126196762 32.301,0.0282619676 32.481,0.145261968 Z M29.475,38.881262 L28.638,40.348262 C28.179,41.149262 27.423,42.463262 26.955,43.273262 L26.109,44.731262 L31.0130992,44.731011 C33.2036861,44.7287792 34.92,44.7120206 34.92,44.695262 C34.92,44.677262 34.173,43.363262 33.264,41.788262 C31.959,39.547262 31.572,38.935262 31.437,38.953262 C31.05,39.007262 30.078,39.007262 29.79,38.944262 L29.475,38.881262 Z M24.8486865,36.3618991 L20.502,36.361262 L20.673,36.658262 C20.772,36.811262 21.753,38.512262 22.86,40.438262 C23.967,42.355262 24.876,43.912262 24.894,43.9033008 C24.903,43.885262 25.65,42.607262 26.541,41.059262 C27.441,39.511262 28.17,38.224262 28.17,38.197262 C28.17,38.170262 28.053,37.990262 27.909,37.810262 C27.666,37.513262 27.351,36.901262 27.234,36.523262 C27.1944545,36.3888074 27.002,36.3655595 24.8486865,36.3618991 Z M30.528,33.661262 C29.934,33.661262 29.466,33.886262 29.043,34.390262 C28.593,34.912262 28.467,35.479262 28.665,36.136262 C29.007,37.342262 30.312,37.909262 31.41,37.351262 C33.246,36.406262 32.589,33.670262 30.528,33.661262 Z M24.876,27.280262 L22.698,31.051262 C21.501,33.121262 20.52,34.840262 20.52,34.867262 C20.52,34.901762 21.8920938,34.9197307 23.6144434,34.9211682 L27.153,34.921262 L27.351,34.390262 C27.45,34.102262 27.693,33.688262 27.891,33.472262 L28.233,33.076262 L26.829,30.646262 C26.055,29.314262 25.299,28.009262 25.155,27.748262 L24.876,27.280262 Z M36.189,27.361262 C36.162,27.361262 35.397,28.648262 34.497,30.214262 L32.859,33.058262 L33.138,33.382262 C33.381,33.661262 33.696,34.255262 33.867,34.768262 C33.9128182,34.8904438 34.0947025,34.9154355 36.0399487,34.9202039 L36.4843704,34.9209442 C36.5631367,34.9210253 36.6443005,34.9210877 36.7279359,34.9211347 L37.26,34.921262 C39.096,34.921262 40.581,34.894262 40.563,34.858262 C40.014,33.841262 36.234,27.361262 36.189,27.361262 Z M7.767,0.163261968 C7.83768293,0.238993675 8.22274479,1.6685374 8.6806851,3.49065759 L8.8016422,3.9742666 C9.1277561,5.28426732 9.47897561,6.74379855 9.774,8.02926197 L9.918,8.64126197 L12.951,8.64126197 L13.041,8.30826197 C13.095,8.11926197 13.545,6.26526197 14.04,4.19526197 C14.544,2.11626197 14.994,0.343261968 15.039,0.253261968 C15.228,-0.0977380324 15.957,-0.0797380324 16.227,0.289261968 L16.416,0.541261968 L15.489,4.38426197 C14.985,6.50826197 14.544,8.32626197 14.517,8.43426197 C14.472,8.63226197 14.499,8.64126197 14.985,8.64126197 C15.642,8.64126197 16.065,8.83926197 16.362,9.29826197 C16.578,9.62226197 16.605,9.76626197 16.632,10.612262 C16.686,12.061262 16.461,12.628262 15.714,12.970262 C15.4165,13.106262 15.1430833,13.1379009 13.9687716,13.1409965 L12.15,13.141262 L12.15,15.571262 L12.906,15.571262 C14.274,15.571262 14.49,15.805262 14.49,17.299262 L14.49,18.262262 L16.281,18.289262 C18.279,18.316262 18.378,18.343262 18.765,19.000262 C18.9075,19.247762 18.9375,19.407762 18.9435417,22.3813036 L18.9442793,22.8487991 C18.944376,22.9303528 18.9444604,23.0137556 18.9445341,23.0990529 L18.9446309,26.2166624 C18.9445693,26.2987317 18.9444976,26.3789207 18.9444138,26.4572759 L18.9437542,26.9057754 C18.9389092,29.3980129 18.9152227,29.7581643 18.7994219,29.9855276 L18.7786543,30.0235764 C18.7714219,30.0360745 18.763875,30.048512 18.756,30.061262 C18.657,30.232262 18.441,30.466262 18.27,30.574262 C18,30.763262 17.865,30.781262 16.839,30.781262 L15.705,30.790262 L14.994,31.690262 C14.607,32.185262 14.166,32.653262 14.004,32.743262 C13.608,32.959262 9.603,33.013262 9.045,32.806262 C8.847,32.734262 8.685,32.671262 8.676,32.671262 C8.676,32.671262 8.334,32.248262 7.92,31.726262 L7.173,30.781262 L3.53431714,30.7811191 C3.45211633,30.7810653 3.37247919,30.7809934 3.29531644,30.7808986 L2.86131857,30.7800191 C1.170763,30.7749036 0.915124878,30.7497037 0.699655518,30.6314634 L0.648,30.601262 L0.648,30.601262 C0.468,30.484262 0.279,30.259262 0.171,30.016262 L0.160315865,29.9922945 L0.160315865,29.9922945 L0.140305616,29.9444641 C0.0478797954,29.7108605 0.0168382343,29.4154353 0.0112397927,27.8975009 L0.0111275344,26.5682988 C0.0123938434,25.9680954 0.0149361702,25.2535386 0.018,24.400262 C0.0410625,20.033762 0.0444257813,19.3181838 0.162701172,19.0508997 L0.180845703,19.0146134 L0.180845703,19.0146134 L0.200724609,18.9824971 C0.211113281,18.9671096 0.2221875,18.9524495 0.234,18.937262 C0.333,18.802262 0.531,18.604262 0.666,18.505262 C0.909,18.325262 1.035,18.316262 4.689,18.289262 L8.46,18.262262 L8.46,17.227262 C8.46,16.660262 8.505,16.111262 8.55,16.012262 C8.721,15.697262 9.126,15.571262 9.945,15.571262 L10.71,15.571262 L10.71,13.159262 L9.018,13.123262 C7.52890909,13.0987165 7.33403306,13.0890471 7.07424343,12.9252079 L6.993,12.871262 L6.993,12.871262 C6.813,12.754262 6.579,12.493262 6.48,12.304262 C6.3,11.998262 6.291,11.854262 6.318,10.756262 C6.345,9.71226197 6.372,9.52326197 6.534,9.30726197 C6.876,8.83926197 7.173,8.68626197 7.821,8.64126197 L8.424,8.59626197 L7.497,4.77126197 C6.993,2.66526197 6.57,0.811261968 6.57,0.658261968 C6.57,0.478261968 6.642,0.289261968 6.75,0.181261968 C6.984,-0.0527380324 7.56,-0.0617380324 7.767,0.163261968 Z M28.6734995,26.5639617 L27.3460862,26.5639301 C26.6527414,26.5654278 26.2253124,26.5699048 26.2169165,26.578262 C26.2139444,26.584262 26.2919629,26.731262 26.4306419,26.982262 L26.6111749,27.3065608 C26.9058125,27.8327307 27.3405,28.596887 27.828,29.440262 L29.457,32.266262 L30.546,32.257262 L31.635,32.239262 L33.264,29.422262 L34.902,26.596262 L30.573,26.569262 C29.8941429,26.5666905 29.2490816,26.5648538 28.6734995,26.5639617 Z M4.68,19.711262 L1.44,19.711262 L1.44,29.341262 L4.68,29.341262 L4.68,28.378262 C4.68,27.514262 4.698,27.397262 4.878,27.208262 C5.148,26.920262 5.607,26.929262 5.895,27.226262 C6.0882,27.419462 6.11676,27.495062 6.11970933,28.2286993 L6.12,29.341262 L6.831,29.341262 C7.218,29.341262 7.65,29.386262 7.794,29.440262 C7.965,29.494262 8.325,29.881262 8.82,30.511262 L9.585,31.492262 L11.439,31.501262 L13.293,31.501262 L14.085,30.502262 C14.517,29.953262 14.976,29.467262 15.093,29.422262 C15.21,29.377262 15.813,29.341262 16.434,29.341262 L17.55,29.341262 L17.55,19.711262 L6.12,19.711262 L6.12,22.186262 C6.12,23.824262 6.084,24.724262 6.021,24.877262 C5.814,25.327262 5.094,25.390262 4.815,24.994262 C4.78476,24.948902 4.7608704,24.878846 4.74214579,24.7554466 L4.72733338,24.6359439 C4.69332634,24.3011871 4.6814809,23.6839023 4.68013306,22.5022095 L4.68,19.711262 Z M15.201,22.771262 C15.48,23.356262 15.525,23.545262 15.552,24.283262 C15.579,24.904262 15.552,25.282262 15.435,25.705262 C14.868,27.802262 12.618,29.107262 10.467,28.585262 C8.199,28.036262 6.831,25.732262 7.434,23.446262 C7.713,22.339262 8.541,21.340262 9.576,20.836262 C11.727,19.783262 14.184,20.629262 15.201,22.771262 Z M8.856,25.309262 C9.099,26.146262 9.954,26.956262 10.845,27.190262 C11.259,27.298262 12.078,27.217262 12.528,27.028262 C13.113,26.767262 13.545,26.335262 13.86,25.723262 C14.544,24.337262 13.959,22.726262 12.519,22.069262 C10.467,21.124262 8.217,23.122262 8.856,25.309262 Z M13.05,17.011262 L9.9,17.011262 L9.9,18.271262 L13.05,18.271262 L13.05,17.011262 Z M12.2965869,9.99183295 L11.0454115,9.99180884 C9.33325,9.99576197 7.95825,10.020512 7.884,10.045262 C7.767,10.090262 7.74,10.252262 7.74,10.837262 C7.74,11.251262 7.767,11.611262 7.803,11.638262 C7.83036,11.665622 8.7986304,11.6825852 10.1428491,11.6852008 L10.8054783,11.6853511 C11.0342448,11.6850332 11.27016,11.684342 11.511,11.683262 L15.165,11.656262 L15.192,10.954262 C15.21,10.504262 15.183,10.198262 15.111,10.117262 C15.0378387,10.0197136 14.5241363,9.99558871 12.2965869,9.99183295 Z" id="Combined-Shape" transform="translate(21.222714, 23.040631) scale(-1, 1) rotate(-180.000000) translate(-21.222714, -23.040631) "></path>
                </g>
            </g>
        </g>
    </g>
</svg>