<?xml version="1.0" encoding="UTF-8"?>
<svg width="41px" height="41px" viewBox="0 0 41 41" version="1.1" xmlns="http://www.w3.org/2000/svg" xmlns:xlink="http://www.w3.org/1999/xlink">
    <title>svg/Waste_management_services_ic</title>
    <g id="Page-1" stroke="none" stroke-width="1" fill="none" fill-rule="evenodd">
        <g id="Service-All-Category" transform="translate(-42.000000, -281.000000)" fill="#47CDFE" fill-rule="nonzero">
            <g id="Group-2" transform="translate(17.000000, 259.000000)">
                <g id="Waste_management_services_ic" transform="translate(25.000000, 21.000000)">
                    <g id="Group" transform="translate(20.500000, 21.460000) scale(-1, 1) rotate(-180.000000) translate(-20.500000, -21.460000) translate(0.000000, 0.960000)">
                        <path d="M20.52,30.256 L25.368,34.32 L31.76,34.32 L31.76,40.96 L15.84,40.96 L15.84,34.32 L20.48,34.32 L20.496,32.288 L20.52,30.256 Z M21.88,33.256 L21.856,34.472 L21.832,35.68 L17.2,35.68 L17.2,39.6 L30.32,39.6 L30.32,35.68 L24.784,35.68 L23.328,34.472 L21.88,33.256 Z M19.84,36.96 L19.84,38.32 L18.48,38.32 L18.48,36.96 L19.84,36.96 Z M26.48,36.96 L26.48,38.32 L21.12,38.32 L21.12,36.96 L26.48,36.96 Z M29.12,36.96 L29.12,38.32 L27.68,38.32 L27.68,36.96 L29.12,36.96 Z M40.96,1.13686838e-13 L40.96,1.36 L33.696,1.36 L33.648,1.664 C33.624,1.824 33.512,2.88 33.4,4 C33.296,5.12 33.184,6.168 33.16,6.328 L33.12,6.616 L33.624,6.752 C35.112,7.168 36.336,8.368 36.848,9.92 C36.984,10.32 37,10.784 37.024,15.104 L37.048,19.84 L34.424,19.84 L34.384,20.624 C34.336,21.56 34.128,22.04 33.552,22.544 L33.184,22.872 L33.48,23.216 C33.856,23.664 34.208,24.4 34.312,24.992 C34.36,25.256 34.4,25.92 34.4,26.472 C34.4,28.072 34.08,29.016 33.256,29.856 C32.456,30.664 31.512,31.064 30.4,31.064 C28.616,31.064 27.128,29.976 26.584,28.264 C26.424,27.752 26.4,27.512 26.4,26.472 C26.4,25.112 26.504,24.56 26.896,23.816 C27.192,23.264 27.976,22.504 28.544,22.224 L28.944,22.024 L25.48,18.56 L21.84,18.56 L21.8,18.784 C21.64,19.52 21.224,20.152 20.64,20.552 C20.424,20.696 19.888,20.904 19.28,21.08 C18.728,21.24 18.04,21.44 17.744,21.528 L17.2,21.688 L17.2,22.208 C17.2,22.712 17.216,22.752 17.52,23.104 C17.984,23.632 18.384,24.488 18.488,25.2 C18.624,26.072 18.536,27.76 18.336,28.336 C17.88,29.608 16.88,30.576 15.672,30.912 C15.096,31.064 14.448,31.12 13.96,31.04 C12.392,30.792 11.144,29.696 10.688,28.168 C10.592,27.84 10.56,27.4 10.56,26.448 C10.56,24.712 10.696,24.216 11.464,23.208 C11.84,22.712 11.848,22.696 11.824,22.176 L11.8,21.656 L10.36,21.24 C9.568,21.016 8.776,20.752 8.592,20.664 C8.16,20.44 7.712,19.92 7.456,19.368 C7.264,18.944 7.248,18.824 7.216,17.424 L7.184,15.92 L4.56,15.92 L4.56,11.84 L5.92,11.84 L5.92,1.36 L3.55271368e-14,1.36 L3.55271368e-14,1.13686838e-13 L40.96,1.13686838e-13 Z M13.544,23.392 C13.024,23.632 12.464,24.136 12.24,24.56 C12,25.024 11.896,25.768 11.936,26.736 C11.976,27.728 12.144,28.248 12.6,28.784 C13.32,29.632 14.576,29.904 15.608,29.424 C16.16,29.168 16.608,28.72 16.872,28.16 C17.072,27.744 17.08,27.656 17.08,26.4 C17.08,25.152 17.072,25.056 16.88,24.688 C16.416,23.768 15.64,23.264 14.624,23.216 C14.096,23.184 13.952,23.208 13.544,23.392 Z M30.24,23.216 C29.216,23.28 28.472,23.8 28.024,24.76 C27.8298667,25.1856 27.8029867,25.2906311 27.8002655,26.1613108 L27.8,26.36 C27.8,27.616 27.872,27.96 28.264,28.536 C28.552,28.952 29.216,29.448 29.672,29.584 C30.16,29.728 30.944,29.656 31.456,29.424 C31.984,29.176 32.44,28.736 32.72,28.192 C32.904,27.832 32.92,27.696 32.944,26.56 C32.976,25.024 32.856,24.608 32.208,23.952 C31.64,23.392 31.056,23.168 30.24,23.216 Z M14.584,20.56 C13.88,20.56 13.28,21.048 13.28,21.624 C13.28,21.936 13.28,21.936 13.544,21.888 C14.088,21.768 14.856,21.76 15.32,21.856 L15.8,21.96 L15.824,21.696 C15.84,21.544 15.792,21.344 15.72,21.232 C15.48,20.864 14.968,20.56 14.584,20.56 Z M26.848,15.92 L19.592,15.92 L19.4,16.12 C19.288,16.224 19.2,16.408 19.2,16.52 C19.2,16.632 19.288,16.816 19.4,16.92 L19.592,17.12 L26.04,17.12 L28.2,19.288 C29.392,20.48 30.472,21.528 30.6,21.608 C30.872,21.784 30.952,21.792 31.232,21.68 C31.496,21.584 31.696,21.184 31.632,20.904 C31.6,20.752 30.768,19.872 29.216,18.304 L26.848,15.92 Z M17.896,15.92 L8.64,15.92 L8.64097461,17.6139277 C8.65325,19.2562813 8.8145,19.3355 10.832,19.928 C11.536,20.136 12.144,20.304 12.168,20.312 C12.192,20.32 12.384,20.152 12.6,19.952 C13.2,19.376 13.736,19.16 14.56,19.16 C15.368,19.168 15.784,19.328 16.432,19.928 L16.848,20.312 L18.312,19.888 C19.856,19.44 20.136,19.28 20.312,18.792 C20.392,18.56 20.392,18.56 20.08,18.56 C19.224,18.56 18.504,18.208 18.128,17.608 C17.896,17.248 17.776,16.64 17.848,16.224 L17.896,15.92 Z M31.488,10.64 L25.84,10.64 L25.84,11.84 L27.76,11.84 L27.76,14.832 L30.232,17.32 C31.608,18.704 32.744,19.912 32.808,20.064 C32.904,20.288 32.92,19.832 32.944,16.304 C32.9464615,15.9027692 32.9479763,15.5272899 32.9486026,15.1784652 L32.9485371,14.43897 C32.9453373,12.9743787 32.9230769,12.1264615 32.888,11.992 C32.752,11.52 32.376,11.08 31.912,10.848 L31.488,10.64 Z M30.4973518,8.0006065 L25.84,8 L25.84,9.2 L29.1055289,9.200832 C31.5799822,9.20899556 32.0613333,9.28266667 32.696,9.656 C33.536,10.144 34.168,11.04 34.32,11.968 C34.368,12.224 34.4,13.8 34.4,15.464 L34.4,18.48 L35.6,18.48 L35.6,14.576 L35.5999535,14.2719457 L35.5999535,14.2719457 L35.599138,13.4514658 C35.5945932,11.0204077 35.5694545,10.5813333 35.464,10.272 C35.208,9.512 34.768,8.944 34.12,8.52 C33.3970526,8.05473684 33.3145485,8.00576177 30.4973518,8.0006065 Z M26.4,13.28 L6,13.28 L6,14.48 L26.4,14.48 L26.4,13.28 Z M8.8,1.36 L7.28,1.36 L7.28,9.2 L9.28,9.2 L9.28,10.64 L7.28,10.64 L7.28,11.84 L24.4,11.84 L24.4,10.64 L10.56,10.64 L10.56,9.2 L24.4,9.2 L24.4,1.36 L22.92,1.36 L22.256,2.68 L21.6,4 L10.12,4 L9.456,2.68 L8.8,1.36 Z M28.124504,1.360752 L25.84,1.36 L25.84,6.56 L27.48,6.56 L27.6777213,6.55993989 L27.6777213,6.55993989 L28.0245237,6.55926972 C29.0245289,6.55558678 29.12,6.53454545 29.12,6.424 C29.12,6.344 29.232,5.216 29.36,3.92 C29.488,2.624 29.6,1.512 29.6,1.464 C29.6,1.392 29.25008,1.36536 28.124504,1.360752 Z M31.64,1.36 L31.048,1.36 L31.008,1.624 C30.984,1.76 30.872,2.832 30.76,4 C30.7138824,4.48094118 30.6691211,4.94153633 30.6307429,5.32593365 L30.5995278,5.63545369 C30.5603045,6.01979239 30.5312941,6.28376471 30.52,6.344 L30.488,6.56 L31.12,6.56 C31.68,6.56 31.76,6.544 31.76,6.424 C31.76,6.344 31.872,5.216 32,3.92 C32.128,2.624 32.24,1.512 32.24,1.464 C32.24,1.392 32.064,1.36 31.64,1.36 Z M16.9327813,1.36073438 L10.4,1.36 L11.04,2.64 L20.688,2.64 L20.984,2.04 C21.144,1.704 21.28,1.416 21.28,1.4 C21.28,1.379 19.40575,1.364125 16.9327813,1.36073438 Z" id="Combined-Shape"></path>
                    </g>
                </g>
            </g>
        </g>
    </g>
</svg>