<?xml version="1.0" encoding="UTF-8"?>
<svg width="40px" height="48px" viewBox="0 0 40 48" version="1.1" xmlns="http://www.w3.org/2000/svg" xmlns:xlink="http://www.w3.org/1999/xlink">
    <title>svg/womens_fashion_ic</title>
    <g id="Page-1" stroke="none" stroke-width="1" fill="none" fill-rule="evenodd">
        <g id="Product-All-Category" transform="translate(-42.000000, -778.000000)" fill="#47CDFE" fill-rule="nonzero" stroke="#47CDFE" stroke-width="0.2">
            <g id="Group-2" transform="translate(20.000000, 760.000000)">
                <g id="womens_fashion_ic" transform="translate(23.000000, 19.000000)">
                    <path d="M12.15,45.9937007 C10.611,45.4267007 9.063,44.1847007 8.136,42.7897007 C7.83,42.3217007 6.543,39.5407007 4.023,33.8617007 C2.007,29.3167007 0.27,25.3747007 0.18,25.0957007 C0.018,24.6277007 0,24.3307007 0,21.8917007 C0,18.9307007 0.018,18.8047007 0.558,18.2467007 C0.711,18.0937007 0.954,17.9137007 1.089,17.8507007 L1.35,17.7517007 L1.35,16.7887007 C1.35,15.7357007 1.449,15.4837007 1.944,15.1507007 C2.178,14.9977007 2.394,14.9797007 4.05,14.9797007 C5.706,14.9797007 5.922,14.9977007 6.156,15.1507007 C6.651,15.4837007 6.75,15.7357007 6.75,16.7887007 L6.75,17.7517007 L7.011,17.8507007 C7.146,17.9137007 7.389,18.0937007 7.542,18.2467007 C8.055,18.7687007 8.1,19.0207007 8.1,21.0187007 L8.1,22.8277007 L9.297,25.5187007 C9.945,26.9947007 10.503,28.2097007 10.53,28.2097007 C10.611,28.2097007 11.16,26.7337007 11.16,26.5267007 C11.16,26.4187007 11.034,25.9957007 10.881,25.5817007 C9.837,22.7827007 8.424,17.3017007 7.02,10.5877007 C6.228,6.78070066 5.805,3.65770066 5.868,2.11870066 C5.895,1.43470066 5.931,1.28170066 6.147,0.957700658 C6.282,0.750700658 6.561,0.471700658 6.768,0.336700658 L7.146,0.0847006579 L19.44,0.0847006579 L31.734,0.0847006579 L32.112,0.336700658 C32.319,0.471700658 32.598,0.750700658 32.733,0.957700658 C32.949,1.28170066 32.985,1.43470066 33.012,2.11870066 C33.075,3.65770066 32.652,6.78070066 31.86,10.5877007 C30.456,17.3017007 29.043,22.7827007 27.999,25.5817007 C27.846,25.9957007 27.72,26.4187007 27.72,26.5357007 C27.72,26.6437007 27.855,27.0757007 28.026,27.4897007 C28.287,28.1287007 28.341,28.2187007 28.422,28.0657007 C28.467,27.9757007 28.998,26.7877007 29.601,25.4377007 L30.69,22.9897007 L30.69,21.3247007 C30.69,20.4157007 30.735,19.4707007 30.789,19.2277007 C30.888,18.7327007 31.347,18.1207007 31.77,17.9047007 C32.013,17.7787007 32.022,17.7517007 32.058,16.8517007 C32.103,15.7987007 32.238,15.4387007 32.697,15.1507007 C32.967,14.9887007 33.12,14.9797007 34.893,14.9977007 C36.783,15.0247007 36.801,15.0247007 37.035,15.2497007 C37.449,15.6367007 37.53,15.8887007 37.53,16.8427007 L37.53,17.7247007 L37.89,17.9317007 C38.286,18.1567007 38.628,18.5707007 38.781,19.0207007 C38.916,19.4347007 38.916,24.1957007 38.781,24.7717007 C38.646,25.3117007 31.428,41.6017007 30.96,42.4117007 C30.177,43.7527007 28.881,44.9497007 27.45,45.6517007 C26.118,46.3087007 25.29,46.2817007 24.588,45.5707007 L24.228,45.2197007 L19.404,45.2197007 L14.571,45.2197007 L14.283,45.5437007 C14.13,45.7327007 13.869,45.9307007 13.707,45.9937007 C13.347,46.1467007 12.573,46.1467007 12.15,45.9937007 Z M13.203,44.5717007 C13.257,44.5087007 13.419,44.0317007 13.572,43.5097007 C14.463,40.4407007 15.696,39.2347007 18.297,38.8747007 L18.72,38.8207007 L18.72,37.2907007 C18.72,35.7877007 18.72,35.7607007 18.945,35.5447007 C19.206,35.2747007 19.611,35.2567007 19.899,35.4907007 C20.106,35.6617007 20.115,35.7067007 20.142,37.2367007 L20.169,38.8117007 L20.547,38.8747007 C23.292,39.2797007 24.381,40.4047007 25.425,43.8967007 C25.695,44.8057007 25.749,44.8327007 26.586,44.4637007 C27.981,43.8427007 29.25,42.6097007 29.97,41.1697007 C30.15,40.8007007 31.896,36.9127007 33.849,32.5297007 L37.395,24.5647007 L37.422,22.0717007 C37.44,20.4337007 37.413,19.5157007 37.35,19.3987007 C37.296,19.2997007 37.089,19.1647007 36.873,19.1107007 C36.18,18.9127007 36.135,18.8227007 36.108,17.4997007 L36.072,16.3297007 L34.776,16.3297007 L33.48,16.3297007 L33.48,17.0047007 L33.48,17.6797007 L33.975,17.6797007 C34.569,17.6797007 34.83,17.8777007 34.83,18.3367007 C34.83,18.9037007 34.695,18.9757007 33.57,19.0387007 C32.112,19.1107007 32.184,18.9847007 32.13,21.4867007 L32.085,23.4847007 L30.582,26.8597007 L29.07,30.2347007 L29.25,30.8017007 C29.493,31.5757007 29.493,32.3407007 29.25,32.6017007 C29.142,32.7187007 28.953,32.7997007 28.8,32.7997007 C28.26,32.7997007 28.116,32.6377007 27.99,31.8547007 C27.909,31.3777007 27.423,29.9647007 26.721,28.1467007 L26.352,27.2197007 L20.331,27.2197007 C14.427,27.2197007 14.31,27.2197007 14.13,27.0397007 C13.86,26.7697007 13.86,26.2927007 14.139,26.0047007 C14.31,25.8247007 14.463,25.8247007 20.349,25.7797007 L26.388,25.7347007 L26.703,24.8797007 C27.738,22.0177007 28.953,17.2927007 30.321,10.8217007 C30.933,7.95070066 31.248,6.08770066 31.455,4.26970066 C31.644,2.56870066 31.635,1.91170066 31.419,1.65070066 L31.248,1.43470066 L28.773,1.40770066 L26.307,1.38070066 L26.253,1.99270066 C26.217,2.32570066 26.19,3.00970066 26.19,3.50470066 C26.19,5.74570066 25.677,13.2157007 25.506,13.5577007 C25.281,13.9987007 24.615,14.0077007 24.327,13.5757007 C24.192,13.3597007 24.192,13.2157007 24.327,11.2627007 C24.516,8.70670066 24.723,4.81870066 24.786,2.85670066 L24.831,1.38970066 L22.491,1.38970066 L20.16,1.38970066 L20.16,7.41970066 L20.16,13.4587007 L19.935,13.6747007 C19.647,13.9717007 19.233,13.9717007 18.945,13.6747007 L18.72,13.4587007 L18.72,7.41970066 L18.72,1.38970066 L16.389,1.38970066 L14.049,1.38970066 L14.094,2.85670066 C14.157,4.81870066 14.364,8.70670066 14.553,11.2627007 C14.688,13.2157007 14.688,13.3597007 14.553,13.5757007 C14.265,14.0077007 13.599,13.9987007 13.374,13.5577007 C13.203,13.2067007 12.699,5.91670066 12.69,3.59470066 C12.69,3.05470066 12.663,2.32570066 12.627,1.99270066 L12.573,1.38070066 L10.107,1.40770066 L7.632,1.43470066 L7.461,1.65070066 C7.245,1.91170066 7.236,2.56870066 7.425,4.26970066 C7.695,6.71770066 8.19,9.31870066 9.369,14.5297007 C10.431,19.2277007 11.34,22.5847007 12.204,24.9517007 C12.717,26.3827007 12.726,26.7247007 12.249,27.9127007 C11.565,29.6407007 10.971,31.3597007 10.89,31.8277007 C10.755,32.6467007 10.629,32.7997007 10.089,32.7997007 C9.459,32.7997007 9.261,31.9807007 9.621,30.8197007 L9.801,30.2527007 L8.298,26.9137007 L6.804,23.5747007 L6.75,21.5317007 C6.696,18.9757007 6.768,19.1107007 5.31,19.0387007 C4.185,18.9757007 4.05,18.9037007 4.05,18.3367007 C4.05,17.8777007 4.311,17.6797007 4.905,17.6797007 L5.4,17.6797007 L5.4,17.0047007 L5.4,16.3297007 L4.05,16.3297007 L2.7,16.3297007 L2.7,17.4997007 C2.7,18.8137007 2.637,18.9667007 2.034,19.0747007 C1.404,19.2007007 1.395,19.2187007 1.395,21.8557007 C1.395,23.6287007 1.422,24.2947007 1.521,24.5647007 C1.719,25.1227007 8.811,41.0797007 9.045,41.4937007 C9.756,42.7087007 10.809,43.7257007 12.006,44.3197007 C12.744,44.6977007 13.059,44.7607007 13.203,44.5717007 Z M23.85,43.7527007 C23.85,43.6267007 23.463,42.6457007 23.238,42.2047007 C22.563,40.8547007 21.384,40.2697007 19.368,40.2697007 C17.694,40.2697007 16.623,40.7107007 15.921,41.6917007 C15.615,42.1237007 15.03,43.4287007 15.03,43.6897007 C15.03,43.7527007 16.47,43.7797007 19.44,43.7797007 C21.87,43.7797007 23.85,43.7617007 23.85,43.7527007 Z" id="Shape" transform="translate(19.441125, 23.104850) scale(-1, 1) rotate(-180.000000) translate(-19.441125, -23.104850) "></path>
                </g>
            </g>
        </g>
    </g>
</svg>